<svg id="artwork" xmlns="http://www.w3.org/2000/svg" viewBox="0 0 282 282"><defs><style>.cls-1{fill:#d9cec5;}.cls-2{fill:#9b7942;}.cls-3,.cls-4{fill:#2d2d2d;}.cls-4{fill-rule:evenodd;}.cls-5{fill:none;stroke:#2d2d2d;stroke-miterlimit:10;}.cls-6{fill:#f2eae4;}.cls-7{fill:#462e13;}</style></defs><g id="eyes_shocked3"><g id="white"><path class="cls-1" d="M104.87,113c-3.55.84-9.06,2.63-11.27,5.82-1.91,2.75-.61,6,1.87,9.15.92,1.17,3.73,1.68,3.73,1.68a23.68,23.68,0,0,1,8.61-1.68,26.66,26.66,0,0,1,9.81,2.1s3.82-2,5.07-4.56c1.9-3.92,3.18-7.87-.1-10.72-1.29-1.12-6.17-2.89-7.87-3.11C112.24,111.38,108.72,112.09,104.87,113Z"/><path class="cls-1" d="M173.4,111.06c3.55.85,10.23,6,12.44,9.23,1.91,2.75-.46,7.66-3.47,9.49a12.36,12.36,0,0,1-2.14,1.05s-6.49-2.27-10.58-1.88c-4.42.42-6.42,1.8-8.2,1.72-2.55-.12-4.45-2.46-5.48-7.15-.72-3.31-1.3-4.76,1.33-7.39,1.21-1.21,3.71-4.15,5.4-4.37C165.18,111.44,169.55,110.15,173.4,111.06Z"/></g><g id="iris"><path class="cls-2" d="M106.7,126.9a9.63,9.63,0,0,0,2.79.12,8.81,8.81,0,0,0,5-2c1.84-1.66,1.84-3.36,1.12-5.73a6.22,6.22,0,0,0-2.5-3c-2.32-1.85-5.93-1.44-8.31.07a5.58,5.58,0,0,0-2.5,6.23,4.35,4.35,0,0,0,.94,2.17,4.28,4.28,0,0,0,2.11,1.77C105.48,126.57,106.53,126.85,106.7,126.9Z"/><path class="cls-2" d="M168.18,128a9.64,9.64,0,0,0,2.79.12,8.87,8.87,0,0,0,5-2c1.84-1.66,1.84-3.36,1.12-5.73a6.24,6.24,0,0,0-2.51-3c-2.32-1.85-5.93-1.44-8.31.07a5.58,5.58,0,0,0-2.49,6.23,4.39,4.39,0,0,0,.93,2.17,4.25,4.25,0,0,0,2.12,1.77C167,127.66,168,127.94,168.18,128Z"/></g><g id="iris_outline"><path class="cls-3" d="M102.88,120.5c1.72.36,3.55.35,5.22.73a15,15,0,0,1-5.22-.73Z"/><path class="cls-3" d="M104.07,124.75c1.38-1.08,2.55-2.49,3.92-3.52a15.08,15.08,0,0,1-3.92,3.52Z"/><path class="cls-3" d="M104.57,117.64a14.25,14.25,0,0,1,4.07,2.59c-1.31-.72-2.76-1.76-4.07-2.59Z"/><path class="cls-3" d="M112.61,116.86a27.54,27.54,0,0,1-2.78,4.31l0,0,.07,0v0l-.12.12c.59-1.68,2-2.91,2.85-4.39Z"/><path class="cls-3" d="M109,115.91a20,20,0,0,1,0,4.31,8.63,8.63,0,0,1-.11-2.15s0-2.21.1-2.16Z"/><path class="cls-3" d="M115.22,120.68a30.33,30.33,0,0,1-5.19.66c-.22,0-.59.09-.76-.06,1.94-.38,4-.28,6-.6Z"/><path class="cls-3" d="M107.66,126.56c.44-1.51,0-3.3.88-4.65,0,.08-.05-.09-.05-.09s0,0,0,0,0,0,0,.08,0,0,0-.07,0,0,0-.07l.08.13c-.49,1.45-.41,3.21-.93,4.63Z"/><path class="cls-3" d="M112.23,125.83c-1-1.57-2.39-2.9-3.22-4.61a27.62,27.62,0,0,1,3.22,4.61Z"/><path class="cls-3" d="M114.49,122.79c-1.85-.32-3.76-.24-5.56-.81a27.53,27.53,0,0,1,5.56.81Z"/><path class="cls-3" d="M108.62,127c13.32-.25,5.62-16.61-3.58-10.12-2.34,2-3.29,6.09-1,8.45a6.83,6.83,0,0,0,4.54,1.67v.1c-6.91,1-9.14-6.88-4.19-10.95,4.59-3.7,11.86-.39,11.84,5.53,0,3.94-4.3,5.59-7.65,5.42V127Z"/><path class="cls-3" d="M169.92,128.19c13.32-.24,5.62-16.61-3.58-10.11-2.34,2-3.29,6.09-1,8.45a6.79,6.79,0,0,0,4.54,1.66v.1c-6.91,1-9.14-6.87-4.19-10.94,4.59-3.71,11.87-.39,11.84,5.53,0,3.93-4.3,5.59-7.65,5.41v-.1Z"/><path class="cls-3" d="M175.58,120.72a55.82,55.82,0,0,1-5.73,1.14l-.19,0s-.19,0-.11,0v0s0,0-.05,0a2.13,2.13,0,0,1,.33-.11,36.09,36.09,0,0,1,5.75-1.07Z"/><path class="cls-3" d="M175,117.81c-1.41,1.28-3.33,3.33-5,4.22a24,24,0,0,1,2.46-2.14s2.51-2.17,2.51-2.08Z"/><path class="cls-3" d="M165.53,119.47c1.27,1.17,3.06,1.72,4.2,3.11l-.15-.07v0h.08a12.71,12.71,0,0,1-2.14-1.41c-.61-.54-1.54-.93-2-1.61Z"/><path class="cls-3" d="M168.3,117.65c.93,1.32,1,3.11,1.95,4.38-1.4-1-1.14-3.07-1.95-4.38Z"/><path class="cls-3" d="M164.91,123.89a47,47,0,0,1,5.34-1.37,9.06,9.06,0,0,1-2.63.81s-2.74.64-2.71.56Z"/><path class="cls-3" d="M173.78,127a31.94,31.94,0,0,1-3.25-4.3,31.3,31.3,0,0,1,3.25,4.3Z"/><path class="cls-3" d="M176.69,122.53a31.63,31.63,0,0,1-5.38.26,32.38,32.38,0,0,1,5.38-.26Z"/><path class="cls-3" d="M171.29,116.84a32.23,32.23,0,0,1,0,5.38,31.19,31.19,0,0,1,0-5.38Z"/><path class="cls-3" d="M167.24,126.92a28.68,28.68,0,0,1,3-4.24,28.47,28.47,0,0,1-3,4.24Z"/></g><g id="pupil"><path class="cls-4" d="M107.82,123l-1.58-.39a4.05,4.05,0,0,1,2.19-4.27c1.47-.59,2.9.37,3.18,2.12a4.09,4.09,0,0,1-2.19,4.28,2.19,2.19,0,0,1-1.33.12Z"/><path class="cls-4" d="M169.32,124.16l.71,1.46a4.08,4.08,0,0,0,3.73-3c.26-1.56-1-2.76-2.75-2.67a4.07,4.07,0,0,0-3.72,3,2.25,2.25,0,0,0,.15,1.34Z"/><path class="cls-4" d="M107.82,123l-1.58-.39a4.05,4.05,0,0,1,2.19-4.27c1.47-.59,2.9.37,3.18,2.12a4.09,4.09,0,0,1-2.19,4.28,2.19,2.19,0,0,1-1.33.12Z"/><path class="cls-4" d="M169.32,124.16l.71,1.46a4.08,4.08,0,0,0,3.73-3c.26-1.56-1-2.76-2.75-2.67a4.07,4.07,0,0,0-3.72,3,2.25,2.25,0,0,0,.15,1.34Z"/><path class="cls-5" d="M107.82,123l-1.58-.39a4.05,4.05,0,0,1,2.19-4.27c1.47-.59,2.9.37,3.18,2.12a4.09,4.09,0,0,1-2.19,4.28,2.19,2.19,0,0,1-1.33.12Z"/><path class="cls-5" d="M169.32,124.16l.71,1.46a4.08,4.08,0,0,0,3.73-3c.26-1.56-1-2.76-2.75-2.67a4.07,4.07,0,0,0-3.72,3,2.25,2.25,0,0,0,.15,1.34Z"/></g><g id="spec"><path class="cls-6" d="M111.36,117c-1.29,1.57,1.53,3,3.22,2.53a2,2,0,0,0,1.59-1.92c-.23-1.82-3.62-2-4.77-.66A.1.1,0,0,1,111.36,117Z"/><path class="cls-6" d="M172.68,118.91c-1-1.74,1.95-2.74,3.57-2a2,2,0,0,1,1.28,2.14c-.5,1.76-3.87,1.41-4.81-.06Z"/></g><g id="outline"><path class="cls-3" d="M90.58,124.8c1.21-3.68,2.93-7.36,6-9.94,3.76-3.23,8.64-5.5,13.68-5.14,4.8.17,10.5.74,13.57,5a9.74,9.74,0,0,1,1.6,5.62h-.25a9.28,9.28,0,0,0-2-5.1c-4.07-4.82-15.48-4.11-20.89-2-5.61,2.12-9.13,6.24-11.4,11.71l-.23-.09Z"/><path class="cls-3" d="M97.66,130.31a27.64,27.64,0,0,1,10.87-2.58,21.26,21.26,0,0,1,5.55.85c1.81.52,3.57,1.14,5.33,1.78l0,0h0c-1.8-.51-3.58-1.1-5.38-1.57a24.47,24.47,0,0,0-5.5-.89c-3.74-.12-7.39,1-10.85,2.41h0Z"/><path class="cls-3" d="M92.7,120.53a5.84,5.84,0,0,0,.31,3,11.29,11.29,0,0,0,1.39,2.75,11.71,11.71,0,0,0,2,2.3,3.52,3.52,0,0,0,2.75,1l0,0a0,0,0,0,1,0,0,3.34,3.34,0,0,1-2.92-.87,9.47,9.47,0,0,1-2-2.38,11.74,11.74,0,0,1-1.33-2.82,5.88,5.88,0,0,1-.23-3.08,0,0,0,0,1,0,0Z"/><path class="cls-3" d="M124.59,118.43a12.25,12.25,0,0,1-.56,3.85,19.19,19.19,0,0,1-1.44,3.63,9.18,9.18,0,0,1-2.41,3.09,4,4,0,0,1-1.82.78,3.16,3.16,0,0,1-1.91-.37s0,0,0,0h0a3.48,3.48,0,0,0,1.88.22,4,4,0,0,0,1.69-.81,10.5,10.5,0,0,0,2.39-3,20,20,0,0,0,1.5-3.57,12.45,12.45,0,0,0,.65-3.82s0,0,0,0S124.59,118.42,124.59,118.43Z"/><path class="cls-3" d="M126,107.25a15.28,15.28,0,0,1-1.12,2.39,7.65,7.65,0,0,1-.74,1.11,6.42,6.42,0,0,1-.93,1,0,0,0,0,1,0,0h0c.25-.37.51-.72.76-1.08s.51-.7.76-1.06a14.69,14.69,0,0,0,1.26-2.3h0Z"/><path class="cls-3" d="M113.49,103.49l-.4,2.49c-.07.42-.12.84-.22,1.25a9.88,9.88,0,0,1-.35,1.21h0a0,0,0,0,1,0,0,10.55,10.55,0,0,1,.13-1.26c.07-.42.18-.82.27-1.23l.57-2.46h0Z"/><path class="cls-3" d="M103.28,103.91a17,17,0,0,1,1.2,2.32,9,9,0,0,1,.47,1.22,5.56,5.56,0,0,1,.24,1.28h0l-.46-1.22-.41-1.22a17.2,17.2,0,0,0-1-2.37,0,0,0,0,1,0,0Z"/><path class="cls-3" d="M96.13,108.63l1,2c.16.34.34.67.47,1a7.87,7.87,0,0,1,.35,1.07,0,0,0,0,1,0,0h0a9.52,9.52,0,0,1-.56-1c-.16-.34-.29-.69-.42-1l-.82-2.1h0Z"/><path class="cls-3" d="M89.3,114.57A17.9,17.9,0,0,0,90.76,116c.26.21.55.39.82.59a9.6,9.6,0,0,1,.81.65h0a6.19,6.19,0,0,1-.93-.46,5,5,0,0,1-.81-.65,18,18,0,0,1-1.35-1.56v0Z"/><path class="cls-3" d="M94,129.92a2.76,2.76,0,0,0,.42,1.9,3.71,3.71,0,0,0,1.46,1.29,4.22,4.22,0,0,0,1.87.45,2.44,2.44,0,0,0,1.77-.69h0s0,0,0,0a2.21,2.21,0,0,1-1.78.93,3.73,3.73,0,0,1-2-.53,3.85,3.85,0,0,1-1.46-1.4,2.76,2.76,0,0,1-.34-2h0Z"/><path class="cls-3" d="M123.09,104.32a9.06,9.06,0,0,0,2.14-3.48,11.35,11.35,0,0,0,.45-2,12.69,12.69,0,0,0,.12-2h0s0,0,0,0a6.91,6.91,0,0,1,.1,2.08,7.85,7.85,0,0,1-.51,2,9,9,0,0,1-2.31,3.43s0,0,0,0S123.08,104.32,123.09,104.32Z"/><path class="cls-3" d="M188.32,125.81c-4.91-11.16-14.23-17.15-26.17-12.5a13.45,13.45,0,0,0-7.37,7.59l-.24-.07a13.33,13.33,0,0,1,6.87-9c7-4,16.48-2,21.53,4a28.88,28.88,0,0,1,5.61,9.88l-.23.09Z"/><path class="cls-3" d="M181.36,131.24A33.62,33.62,0,0,0,170.73,129a23.91,23.91,0,0,0-5.39.69c-1.77.4-3.51.94-5.26,1.43,0,0,0,0,0,0h0a51.92,51.92,0,0,1,5.22-1.66,21.2,21.2,0,0,1,5.44-.64,33.83,33.83,0,0,1,10.64,2.38s0,0,0,0Z"/><path class="cls-3" d="M186.52,121.79a5,5,0,0,1-.28,3,12.39,12.39,0,0,1-1.39,2.71,10.29,10.29,0,0,1-2,2.28,3.31,3.31,0,0,1-2.86.83h0a3.5,3.5,0,0,0,2.69-1,12.08,12.08,0,0,0,2-2.19,11.5,11.5,0,0,0,1.45-2.64,4.89,4.89,0,0,0,.37-2.94s0,0,0,0Z"/><path class="cls-3" d="M155.4,119.66a25.47,25.47,0,0,0,1.73,7.27,7.67,7.67,0,0,0,2.09,3l.37.28.41.19a2.54,2.54,0,0,0,.87.23,5.59,5.59,0,0,0,.91,0l.9-.27h0a0,0,0,0,1,0,0c-.29.12-.58.25-.88.36a5.11,5.11,0,0,1-.95.1,2.73,2.73,0,0,1-.94-.2c-.15-.06-.31-.12-.45-.19l-.4-.28A7.13,7.13,0,0,1,157,127a25.41,25.41,0,0,1-1.57-7.35s0,0,0,0Z"/><path class="cls-3" d="M153.87,105.41a14.69,14.69,0,0,0,1.26,2.3c.24.36.51.7.76,1.06s.51.71.76,1.08a0,0,0,0,1,0,0,0,0,0,0,1,0,0,6.42,6.42,0,0,1-.93-1,8.24,8.24,0,0,1-.74-1.11,15,15,0,0,1-1.12-2.4h0Z"/><path class="cls-3" d="M163.06,103.33l.57,2.46c.1.41.21.81.27,1.23a10.55,10.55,0,0,1,.13,1.26,0,0,0,0,1,0,0h0a10.58,10.58,0,0,1-.35-1.22c-.1-.41-.15-.83-.22-1.25l-.4-2.49a0,0,0,0,1,0,0A0,0,0,0,1,163,103.33Z"/><path class="cls-3" d="M174.16,103.51a11.87,11.87,0,0,0-.83,1.86l-.31,1c-.12.32-.22.65-.36,1h0a4.5,4.5,0,0,1,.15-1,6,6,0,0,1,.36-1,12.15,12.15,0,0,1,1-1.8,0,0,0,0,1,0,0Z"/><path class="cls-3" d="M182.13,107.64l-.82,2.1c-.14.35-.26.7-.43,1a9.43,9.43,0,0,1-.55,1h0a9.56,9.56,0,0,1,.35-1.07c.14-.35.31-.68.47-1l1-2h0A0,0,0,0,0,182.13,107.64Z"/><path class="cls-3" d="M189.86,115.51a16.58,16.58,0,0,1-1.35,1.56,4.69,4.69,0,0,1-.82.65,5.36,5.36,0,0,1-.93.46h0c.26-.24.54-.44.8-.65s.56-.38.83-.59a15.13,15.13,0,0,0,1.46-1.43,0,0,0,0,1,0,0A0,0,0,0,1,189.84,115.49Z"/><path class="cls-3" d="M185.14,130.84a2.35,2.35,0,0,1-.23,1.68,3.08,3.08,0,0,1-1.25,1.2,3.41,3.41,0,0,1-1.68.45,3,3,0,0,1-1.66-.46v0h0a4,4,0,0,0,1.64.24,4.22,4.22,0,0,0,1.6-.38,2.89,2.89,0,0,0,1.24-1.08,2.24,2.24,0,0,0,.3-1.62h0Z"/><path class="cls-3" d="M154,97a2.57,2.57,0,0,1-1.33-1.1,4.83,4.83,0,0,1-.61-1.65,5.83,5.83,0,0,1-.06-1.77,6.6,6.6,0,0,1,.45-1.69h0a0,0,0,0,0,0,0,14.32,14.32,0,0,0-.23,1.71,8.15,8.15,0,0,0,0,1.71,4.63,4.63,0,0,0,.5,1.62A2.57,2.57,0,0,0,154,96.94h0Z"/><path class="cls-3" d="M125.26,120.29a8.8,8.8,0,0,0-6.55-8.45,21.39,21.39,0,0,0-5.62-1,36.53,36.53,0,0,0-5.73.08A21,21,0,0,0,97,115.41a16.36,16.36,0,0,0-3.77,4.27,33.22,33.22,0,0,0-2.51,5.16h0a32.75,32.75,0,0,1,2.46-5.18,16.6,16.6,0,0,1,3.74-4.35,20.7,20.7,0,0,1,10.44-4.54,36.93,36.93,0,0,1,5.76-.08,20.93,20.93,0,0,1,5.65,1,8.88,8.88,0,0,1,6.51,8.57Z"/><path class="cls-3" d="M90.59,124.8c.28.22.3-.15.41-.35l.29-.66c.21-.43.41-.87.64-1.29a22.39,22.39,0,0,1,1.5-2.48,18.37,18.37,0,0,1,9-7,26.57,26.57,0,0,1,5.63-1.29,32,32,0,0,1,5.79-.19,19.26,19.26,0,0,1,5.66,1.15A8.45,8.45,0,0,1,124,116.3a9.54,9.54,0,0,1,1,2.72c0,.24.1.48.13.72l0,.36c0,.17,0,.1.09.11s0,0,0,0v-.53q0-.36-.06-.72a8.46,8.46,0,0,0-2.29-5.13,11.06,11.06,0,0,0-4.88-2.9,24,24,0,0,0-5.66-1,24,24,0,0,0-5.75,0,21,21,0,0,0-10.22,5c-2.94,2.55-4.65,6.18-5.84,9.81h0c1.19-3.64,2.88-7.28,5.81-9.85a21.22,21.22,0,0,1,10.24-5.12,23.78,23.78,0,0,1,5.78-.07,24.48,24.48,0,0,1,5.7,1,11.43,11.43,0,0,1,5,2.94,8.72,8.72,0,0,1,2.33,5.23c0,.24,0,.49.06.73v.7s-.1,0-.14,0-.19,0-.26,0l0-.24-.05-.36c0-.24-.08-.47-.14-.71a9,9,0,0,0-1-2.66,8.31,8.31,0,0,0-4.38-3.52,19.46,19.46,0,0,0-5.61-1.15,31.67,31.67,0,0,0-5.76.16,25.69,25.69,0,0,0-5.62,1.26,18.5,18.5,0,0,0-5.06,2.73,18.83,18.83,0,0,0-4,4.16,24,24,0,0,0-1.51,2.47c-.23.42-.43.86-.64,1.29l-.29.66c-.11.2-.15.57-.43.35Z"/><path class="cls-3" d="M97.64,130.34a41.67,41.67,0,0,1,5.3-1.87,19.53,19.53,0,0,1,5.58-.72,21.74,21.74,0,0,1,5.56.89c1.81.52,3.57,1.16,5.35,1.74h0c-1.79-.57-3.57-1.15-5.38-1.62a24.13,24.13,0,0,0-5.53-.86,21.69,21.69,0,0,0-5.55.68,38.62,38.62,0,0,0-5.33,1.75Z"/><path class="cls-3" d="M97.66,130.32c3.35-1.28,7.09-2.56,10.85-2.45a23.3,23.3,0,0,1,5.54.88l1.9.53-1.89-.62a21.61,21.61,0,0,0-5.53-.86,26.73,26.73,0,0,0-10.87,2.52h0c3.45-1.42,7.08-2.67,10.87-2.64a21,21,0,0,1,5.57.83l5.41,1.9c-1.76-.43-3.67-1-5.48-1.49a24.69,24.69,0,0,0-5.52-.92c-3.74-.16-7.49,1-10.85,2.32Z"/><path class="cls-3" d="M92.69,120.51a5.67,5.67,0,0,0,.32,3,12.76,12.76,0,0,0,1.37,2.77,11.52,11.52,0,0,0,2,2.34,5,5,0,0,0,1.3.83,2.37,2.37,0,0,0,1.51.16h0a2.51,2.51,0,0,1-1.53-.12,5.11,5.11,0,0,1-1.36-.78,9.84,9.84,0,0,1-2.06-2.35,11,11,0,0,1-1.36-2.82,6,6,0,0,1-.2-3.09Z"/><path class="cls-3" d="M92.69,120.53a3.9,3.9,0,0,0-.1,1.5,7.91,7.91,0,0,0,.32,1.52,11.57,11.57,0,0,0,1.34,2.79,9.82,9.82,0,0,0,2,2.35,3.42,3.42,0,0,0,2.78.95l.13,0h0l0,.05s0,0,0,0v0a3.59,3.59,0,0,1-2.81-1,11.19,11.19,0,0,1-2-2.29A11.73,11.73,0,0,1,93,123.61a6,6,0,0,1-.3-3.08h0a5.79,5.79,0,0,0,.34,3,11.75,11.75,0,0,0,1.44,2.74,12.18,12.18,0,0,0,2,2.23,3.39,3.39,0,0,0,2.68,1h0a.1.1,0,0,1,0,.19h0l-.14,0a3.51,3.51,0,0,1-2.92-1,9.21,9.21,0,0,1-2-2.4,11.54,11.54,0,0,1-1.29-2.84,8.19,8.19,0,0,1-.29-1.54,3.7,3.7,0,0,1,.13-1.5Z"/><path class="cls-3" d="M124.58,118.41a12.64,12.64,0,0,1-.54,3.86,17.05,17.05,0,0,1-1.47,3.63,9,9,0,0,1-2.44,3,3.83,3.83,0,0,1-1.79.77,3.28,3.28,0,0,1-1.9-.33h0a3.18,3.18,0,0,0,1.89.28,3.85,3.85,0,0,0,1.73-.82,10,10,0,0,0,2.37-3,21.13,21.13,0,0,0,1.49-3.58,11.9,11.9,0,0,0,.66-3.83Z"/><path class="cls-3" d="M124.59,118.43a11.81,11.81,0,0,1-.18,1.9c-.12.64-.28,1.27-.46,1.89a18.72,18.72,0,0,1-1.48,3.62A9.91,9.91,0,0,1,120,128.9a3.88,3.88,0,0,1-1.8.81,3.35,3.35,0,0,1-1,0,3.89,3.89,0,0,1-.49-.12l-.23-.08-.06,0h0l0,0h0s0,0,0,0,.08,0,.13,0a2.94,2.94,0,0,0,1.84.29,4,4,0,0,0,1.73-.77,9.39,9.39,0,0,0,2.38-3,19.44,19.44,0,0,0,1.47-3.6,11.72,11.72,0,0,0,.58-3.85h0a12.64,12.64,0,0,1-.54,3.86,19.23,19.23,0,0,1-1.4,3.65,9.39,9.39,0,0,1-2.39,3.1,4.21,4.21,0,0,1-1.8.81,3.22,3.22,0,0,1-1.95-.32l-.12-.06s0,0,0-.11,0,0,.08-.05h.07l.06,0,.22.08a2.47,2.47,0,0,0,.47.11,3,3,0,0,0,.94,0,3.78,3.78,0,0,0,1.73-.78,10,10,0,0,0,2.43-3,18.89,18.89,0,0,0,1.55-3.57,17.47,17.47,0,0,0,.49-1.89,12.87,12.87,0,0,0,.19-1.89Z"/><path class="cls-3" d="M126,107.23a11.2,11.2,0,0,1-1.13,2.4,8.25,8.25,0,0,1-.77,1.09c-.28.33-.59.66-.89,1h0a9.94,9.94,0,0,0,.79-1l.74-1.09a21.59,21.59,0,0,0,1.26-2.32Z"/><path class="cls-3" d="M126,107.25s0,0,0,0h0a16.09,16.09,0,0,1-1.21,2.33c-.5.72-1,1.45-1.5,2.16v0a.06.06,0,0,0-.06-.07,11.28,11.28,0,0,0,.87-.92l.74-1.08a14.1,14.1,0,0,0,1.17-2.37h0a16.92,16.92,0,0,1-1.07,2.43l-.73,1.13a4.81,4.81,0,0,1-1,1,.1.1,0,0,1-.1-.1v0l0,0c.48-.74,1-1.44,1.53-2.14a14.14,14.14,0,0,0,1.31-2.26h0s0,0,0,0Z"/><path class="cls-3" d="M113.48,103.48c-.14.83-.23,1.68-.41,2.5-.08.41-.16.83-.26,1.24l-.31,1.23h0l.18-1.26c.06-.41.14-.83.23-1.24.14-.83.38-1.65.56-2.47Z"/><path class="cls-3" d="M113.48,103.49h0L113,106l-.24,1.23,0,.42c.06-.17.09-.34.11-.4L113,106l.46-2.5h0l-.34,2.52c-.07.42-.13.84-.21,1.26s-.29.9-.47,1.25l.07-1.35.29-1.24.63-2.45h0Z"/><path class="cls-3" d="M103.27,103.91a12.4,12.4,0,0,1,1.19,2.32,9.59,9.59,0,0,1,.43,1.24c.12.42.21.84.29,1.27h0a8.87,8.87,0,0,0-.41-1.23l-.45-1.22c-.35-.79-.63-1.61-1-2.37Z"/><path class="cls-3" d="M103.28,103.92s0,0,0,0h0a16.7,16.7,0,0,1,1.09,2.35l.89,2.43,0,0a.08.08,0,0,0-.08,0l0,0v0h0a5.6,5.6,0,0,0-.24-1.26l-.44-1.21a15.39,15.39,0,0,0-1.15-2.34h0a17.12,17.12,0,0,1,1.26,2.3l.49,1.22a5.63,5.63,0,0,1,.24,1.3h0v0h0s0,0,0,0a.09.09,0,0,1-.12,0h0v0c-.33-.8-.6-1.62-.85-2.45a14.63,14.63,0,0,0-1-2.39h0a0,0,0,0,1,0,0Z"/><path class="cls-3" d="M96.12,108.63c.32.68.7,1.34,1,2,.16.34.31.68.44,1l.39,1.05h0l-.51-1c-.17-.34-.32-.68-.46-1-.33-.68-.56-1.4-.83-2.1Z"/><path class="cls-3" d="M96.13,108.64a0,0,0,0,0,0,0h0l.88,2.08.44,1,.2.32a3.24,3.24,0,0,0-.12-.35l-.45-1-.93-2.07h0l1,2c.17.34.34.67.5,1s.23.81.27,1.16l-.66-1-.41-1.06-.76-2.12h0s0,0,0,0Z"/><path class="cls-3" d="M89.29,114.57c.47.5,1,1,1.46,1.44.26.22.53.42.8.63s.55.42.83.61h0l-.9-.5a5.69,5.69,0,0,1-.84-.62,10.15,10.15,0,0,1-1.36-1.56Z"/><path class="cls-3" d="M89.3,114.57a0,0,0,0,0,0,0h0l1.39,1.52.8.61a3.42,3.42,0,0,0,.35.17,2.85,2.85,0,0,0-.28-.22l-.8-.6-1.44-1.49h0c.5.47,1,.94,1.52,1.39.29.2.57.38.85.6l.42.39.2.18.11.1s.09.09,0,.06c-.35-.14-.7-.28-1-.44l-.81-.66-1.3-1.6h0s0,0,0,0Z"/><path class="cls-3" d="M94,129.91a2.66,2.66,0,0,0,.43,1.9,4.09,4.09,0,0,0,1.45,1.32,4.28,4.28,0,0,0,1.89.49,2.68,2.68,0,0,0,1-.17,3.75,3.75,0,0,0,.44-.24c.13-.1.25-.23.37-.34h0c-.12.12-.23.25-.36.36a3.12,3.12,0,0,1-.43.27,2.57,2.57,0,0,1-1,.24,3.7,3.7,0,0,1-2-.47,3.74,3.74,0,0,1-1.48-1.39,2.89,2.89,0,0,1-.32-2Z"/><path class="cls-3" d="M94,129.92h0a2.75,2.75,0,0,0,.35,1.92,3.81,3.81,0,0,0,1.43,1.36,3.88,3.88,0,0,0,1.87.53,2.23,2.23,0,0,0,1.73-.74.72.72,0,0,0,.11-.15l.06,0h0l0,.05a2.53,2.53,0,0,1-1.78.71,4.22,4.22,0,0,1-1.88-.44,3.83,3.83,0,0,1-1.51-1.34,2.76,2.76,0,0,1-.41-1.94h0a2.64,2.64,0,0,0,.45,1.91A3.65,3.65,0,0,0,96,133.09a3.16,3.16,0,0,0,3.49-.28h0c.06-.05.2,0,.13.13h0l-.12.16a2.38,2.38,0,0,1-1.85.8,3.75,3.75,0,0,1-1.94-.59,4,4,0,0,1-1.42-1.43,2.83,2.83,0,0,1-.3-2h0s0,0,0,0Z"/><path class="cls-3" d="M123.09,104.33a8,8,0,0,0,1.26-1.63,11.4,11.4,0,0,0,.9-1.86,11.13,11.13,0,0,0,.49-2,8,8,0,0,0,.07-2.07h0a9.65,9.65,0,0,1,.06,2.08,8,8,0,0,1-.47,2,8.13,8.13,0,0,1-.94,1.86,9.35,9.35,0,0,1-1.37,1.57Z"/><path class="cls-3" d="M123.09,104.32a8.48,8.48,0,0,0,2.25-3.4,7.26,7.26,0,0,0,.42-4v-.07h0s-.07,0,.06,0h.07v.41l0,.52-.07,1a9.47,9.47,0,0,1-.46,2,9.23,9.23,0,0,1-2.21,3.51h0a8.82,8.82,0,0,0,2.09-3.53,10.76,10.76,0,0,0,.42-2l.06-1,0-.52v-.38s0,0,0-.09.07,0,.12,0,0,.06,0,.06v.07a7,7,0,0,1-.46,4.12,8.74,8.74,0,0,1-2.37,3.34Z"/><path class="cls-3" d="M154.66,120.87a13.46,13.46,0,0,1,7.09-8.37,17.6,17.6,0,0,1,5.4-1.64,18.71,18.71,0,0,1,5.64,0,17.18,17.18,0,0,1,9.77,5.31,29.76,29.76,0,0,1,5.88,9.56h0a29.33,29.33,0,0,0-6-9.48,17.42,17.42,0,0,0-9.71-5.23,18.7,18.7,0,0,0-5.59,0,17.91,17.91,0,0,0-5.36,1.59,13.29,13.29,0,0,0-7.15,8.26Z"/><path class="cls-3" d="M188.32,125.81c.35,0,.13-.31.08-.52l-.25-.67c-.17-.44-.35-.88-.54-1.31-.37-.87-.79-1.72-1.24-2.55a27,27,0,0,0-3.23-4.65,17.43,17.43,0,0,0-9.47-5.81,17.19,17.19,0,0,0-11,1,13.67,13.67,0,0,0-7.55,8,10.43,10.43,0,0,0-.39,1.35l0,.17s0,0,0,0,0,.07.12-.08.17-.45.28-.66a13.7,13.7,0,0,1,1.46-2.44,13.49,13.49,0,0,1,4.27-3.72,20.43,20.43,0,0,1,11.05-2.1A17.32,17.32,0,0,1,182,116.52a8.58,8.58,0,0,1,1,1c.32.35.65.69,1,1,.57.76,1.19,1.47,1.68,2.28a32.84,32.84,0,0,1,2.72,5h0a32.76,32.76,0,0,0-2.74-5,26.72,26.72,0,0,0-1.69-2.27c-.31-.36-.64-.7-1-1a10.47,10.47,0,0,0-1-1,17.25,17.25,0,0,0-10.09-4.66A20.65,20.65,0,0,0,160.87,114a13.51,13.51,0,0,0-4.22,3.67,13.8,13.8,0,0,0-1.44,2.42c-.11.21-.19.43-.28.65l-.09.22s-.1,0-.15,0l-.1,0c-.05,0-.12,0-.14-.06l0-.15,0-.17a10.86,10.86,0,0,1,.39-1.38,13.77,13.77,0,0,1,7.63-8,17.08,17.08,0,0,1,11.14-.95,17.49,17.49,0,0,1,9.49,5.9,26.69,26.69,0,0,1,3.21,4.67c.45.83.86,1.69,1.23,2.56.19.43.37.87.53,1.31l.25.67c.06.21.27.5-.08.53Z"/><path class="cls-3" d="M181.4,131.24a48.59,48.59,0,0,0-5.26-1.53,26,26,0,0,0-5.41-.7,24,24,0,0,0-5.41.65c-1.78.4-3.53.94-5.28,1.49h0c1.74-.56,3.47-1.16,5.25-1.6a21.19,21.19,0,0,1,5.44-.69,22.71,22.71,0,0,1,5.44.74c1.77.45,3.51,1,5.23,1.65Z"/><path class="cls-3" d="M181.36,131.24a32.1,32.1,0,0,0-10.57-2.34c-3.67-.09-7.22,1-10.64,2.28,0,.1-.16-.16-.05-.12l.16-.05.34-.09.66-.18,1.32-.36,2.65-.72a23.24,23.24,0,0,1,5.44-.69,34.39,34.39,0,0,1,10.69,2.27h0a32.5,32.5,0,0,0-10.69-2.14,24.19,24.19,0,0,0-5.41.72l-2.64.72-1.32.36-.66.18-.33.09-.17,0,0,0a.15.15,0,0,1-.1,0s0-.06,0-.09a.15.15,0,0,1,.09-.08h0a51.12,51.12,0,0,1,5.23-1.65,20.52,20.52,0,0,1,5.46-.61,33.65,33.65,0,0,1,10.57,2.47Z"/><path class="cls-3" d="M186.51,121.78a5.07,5.07,0,0,1-.26,3,11.06,11.06,0,0,1-1.42,2.7,10,10,0,0,1-2.07,2.24,4.74,4.74,0,0,1-1.33.76,2.45,2.45,0,0,1-1.49.11h0a2.32,2.32,0,0,0,1.47-.16,4.58,4.58,0,0,0,1.27-.81,11.58,11.58,0,0,0,2-2.23,13.64,13.64,0,0,0,1.43-2.66,4.76,4.76,0,0,0,.38-3Z"/><path class="cls-3" d="M186.52,121.79a4.43,4.43,0,0,1,0,1.46,7.5,7.5,0,0,1-.39,1.46,11.31,11.31,0,0,1-1.41,2.66,12,12,0,0,1-2,2.24,3.61,3.61,0,0,1-2.79,1v-.06s0,0,0,0l0-.05.09,0a3.32,3.32,0,0,0,2.73-.88,10.23,10.23,0,0,0,2-2.23,11.73,11.73,0,0,0,1.4-2.67,4.85,4.85,0,0,0,.31-3h0a5,5,0,0,1-.25,3,12.21,12.21,0,0,1-1.36,2.73,9.81,9.81,0,0,1-2,2.29,3.45,3.45,0,0,1-2.87.9l-.09,0h0a.09.09,0,0,1-.07-.12.13.13,0,0,1,.1-.06h0a3.45,3.45,0,0,0,2.66-1,13.18,13.18,0,0,0,2-2.18,11.68,11.68,0,0,0,1.45-2.61,7.4,7.4,0,0,0,.42-1.44,4.45,4.45,0,0,0,0-1.46Z"/><path class="cls-3" d="M155.39,119.64a27.33,27.33,0,0,0,.61,3.71,24.34,24.34,0,0,0,1.11,3.58,7.69,7.69,0,0,0,2.08,3l.37.28.42.19a2.54,2.54,0,0,0,.9.23,5.81,5.81,0,0,0,.93-.06l.89-.3h0l-.88.32a5.07,5.07,0,0,1-.94.09,2.91,2.91,0,0,1-.93-.19l-.44-.19-.39-.27A7.18,7.18,0,0,1,157,127a20.07,20.07,0,0,1-1.08-3.62,31.64,31.64,0,0,1-.49-3.74Z"/><path class="cls-3" d="M155.4,119.66a23.55,23.55,0,0,0,1.59,7.28,7.49,7.49,0,0,0,2,3.06,2.9,2.9,0,0,0,.79.47,2.2,2.2,0,0,0,.88.22,2.62,2.62,0,0,0,.92-.06,4.19,4.19,0,0,0,.86-.3l.11-.05s0-.05.07,0,0,0,0,.09l-.23.07-.45.14-.25.06-.23,0c-.15,0-.31,0-.47,0a4,4,0,0,1-1-.17,3.27,3.27,0,0,1-.83-.48,7.43,7.43,0,0,1-2.18-3.07,26.4,26.4,0,0,1-1.69-7.33h0a24.32,24.32,0,0,0,1.81,7.28,7.53,7.53,0,0,0,2.16,3,3.16,3.16,0,0,0,.8.45,3.79,3.79,0,0,0,.89.17,3.73,3.73,0,0,0,.46,0h.24l.21-.06.45-.13.22-.07a.09.09,0,0,1,.08,0,.08.08,0,0,1,0,.16l-.06,0-.11,0a3.38,3.38,0,0,1-1.85.38,2.28,2.28,0,0,1-.93-.23,3.13,3.13,0,0,1-.83-.49,7.48,7.48,0,0,1-2.07-3.15,25.34,25.34,0,0,1-1.47-7.32Z"/><path class="cls-3" d="M153.85,105.4a22.59,22.59,0,0,0,1.26,2.32l.74,1.09a9.94,9.94,0,0,0,.79,1h0c-.3-.31-.61-.64-.89-1a7.54,7.54,0,0,1-.77-1.08,11.2,11.2,0,0,1-1.13-2.4Z"/><path class="cls-3" d="M153.87,105.41h0a12.61,12.61,0,0,0,1.16,2.36l.74,1.08a6.23,6.23,0,0,0,.91.94h0s-.08,0-.07.06v0l-1.48-2.13a15.47,15.47,0,0,1-1.23-2.35h0a13,13,0,0,0,1.33,2.29c.53.69,1,1.4,1.51,2.12l0,0v0a.12.12,0,0,1-.11.1h0l0,0a6.49,6.49,0,0,1-.94-1l-.72-1.12a16.75,16.75,0,0,1-1.06-2.42h0Z"/><path class="cls-3" d="M163.05,103.32c.19.82.43,1.64.56,2.47.09.41.17.83.23,1.25l.18,1.25h0l-.3-1.23c-.11-.41-.19-.82-.26-1.24-.19-.82-.27-1.67-.41-2.5Z"/><path class="cls-3" d="M163.06,103.33s0,0,0,0h0l.46,2.49.24,1.23.13.4a3.42,3.42,0,0,0-.05-.41l-.24-1.22-.52-2.49h0l.64,2.47c.1.41.2.82.28,1.24s.07.94,0,1.34l-.45-1.28-.19-1.25-.34-2.51h0s0,0,0,0Z"/><path class="cls-3" d="M174.16,103.5c-.34.6-.57,1.24-.85,1.87l-.35,1a8,8,0,0,0-.31,1h0c.06-.34.12-.68.2-1a5.61,5.61,0,0,1,.32-1,8.58,8.58,0,0,1,1-1.81Z"/><path class="cls-3" d="M174.16,103.51s0,0,0,0h0a11.19,11.19,0,0,0-.94,1.82l-.34,1a4.83,4.83,0,0,0-.15,1v0a.07.07,0,0,0-.08,0l0,0c.24-.62.46-1.25.68-1.89a14,14,0,0,1,.9-1.87h0a10.94,10.94,0,0,0-.78,1.91,16.68,16.68,0,0,1-.65,1.92v0l0,0a.11.11,0,0,1-.13,0l0,0v-.06a5,5,0,0,1,.15-1l.39-1a13.09,13.09,0,0,1,1-1.77h0a0,0,0,0,1,0,0Z"/><path class="cls-3" d="M182.12,107.63c-.28.7-.51,1.42-.83,2.1-.15.35-.3.69-.47,1l-.51,1h0l.4-1.05c.13-.36.28-.7.43-1,.28-.7.65-1.36,1-2Z"/><path class="cls-3" d="M182.13,107.64s0,0,0,0h0l-.93,2.06-.45,1-.1.36a2.12,2.12,0,0,0,.17-.32l.44-1,.89-2.09h0l-.77,2.14c-.14.35-.27.71-.42,1.06s-.44.72-.67,1l.3-1.18.5-1,1-2h0Z"/><path class="cls-3" d="M189.85,115.5a10,10,0,0,1-1.36,1.56,4.55,4.55,0,0,1-.83.61l-.91.5h0q.44-.28.84-.6c.27-.21.54-.41.8-.63.49-.47,1-.94,1.46-1.44Z"/><path class="cls-3" d="M189.86,115.51c-.48.42-1,1-1.45,1.46l-.81.62a2,2,0,0,0-.24.22l.29-.16.81-.62,1.4-1.52h0l-1.31,1.61-.82.67-1,.44a9.61,9.61,0,0,1,.79-.77l.86-.59c.5-.44,1-1,1.52-1.36Z"/><path class="cls-3" d="M185.13,130.83a2.42,2.42,0,0,1-.21,1.69,2.93,2.93,0,0,1-1.26,1.18,3.55,3.55,0,0,1-1.69.41,4,4,0,0,1-.85-.11,4.38,4.38,0,0,1-.81-.31h0a3.52,3.52,0,0,0,.82.25,3.39,3.39,0,0,0,.84.05,4.28,4.28,0,0,0,1.61-.43,3.27,3.27,0,0,0,1.23-1.1,2.22,2.22,0,0,0,.31-1.63Z"/><path class="cls-3" d="M185.14,130.84h0a2.56,2.56,0,0,1-1.5,2.75,4.32,4.32,0,0,1-3.31.17h.08l0,0h0l0-.06h0l0,0,.07.05a3.33,3.33,0,0,0,3.21-.07,3.11,3.11,0,0,0,1.21-1.15,2.26,2.26,0,0,0,.25-1.65h0a2.4,2.4,0,0,1-.2,1.68,3.22,3.22,0,0,1-1.2,1.23,3.32,3.32,0,0,1-3.35.09l-.07,0,0,0s0,0-.05-.09.05-.07.08-.09h0a4.45,4.45,0,0,0,3.21-.13,2.93,2.93,0,0,0,1.24-1,2.16,2.16,0,0,0,.31-1.59h0Z"/><path class="cls-3" d="M154,97a2.61,2.61,0,0,1-1.34-1.09,4.08,4.08,0,0,1-.59-1.66,6,6,0,0,1,0-1.75,9.91,9.91,0,0,1,.41-1.71h0a9.23,9.23,0,0,0-.29,1.72,9,9,0,0,0,.06,1.72,5.06,5.06,0,0,0,.53,1.62A2.48,2.48,0,0,0,154,97Z"/><path class="cls-3" d="M154,97a2.83,2.83,0,0,1-1.25-1.13,4.68,4.68,0,0,1-.55-1.64,7.7,7.7,0,0,1,0-1.73l.23-1.72v0s0,0,0,0h0l0-.06h0l.07,0h0v0l0,0a6.14,6.14,0,0,0-.37,3.39,4.42,4.42,0,0,0,.57,1.62A2.48,2.48,0,0,0,154,97h0a2.57,2.57,0,0,1-1.35-1.08,4.71,4.71,0,0,1-.64-1.63,5.74,5.74,0,0,1,.34-3.47l0,0,0,0c.1,0,.12,0,.14,0h0v0l-.23,1.7a8.88,8.88,0,0,0,0,1.71,4.5,4.5,0,0,0,.48,1.63A2.77,2.77,0,0,0,154,97Z"/></g><g id="eyebrows"><path class="cls-7" d="M123,99.23c-1.77-.23-3-1.16-4.6-1.68-7.8-2.92-15.85-.79-22,4.72-2.44,2.08-4.87,4.45-7.27,6.78,3.67-11,19.47-19.52,30.32-13.94,1.55.88,3.17,1.73,4.09,3.4l-.55.72Z"/><path class="cls-7" d="M156.28,93.41c.77-1.58,2.23-2.4,3.63-3.3a17.45,17.45,0,0,1,4.62-1.9c9.85-2.44,20.64,5.18,22,15.11l-.05,0c-7.75-11.1-14-16.44-27.37-10a5.21,5.21,0,0,1-2.25.74l-.55-.72Z"/></g></g></svg>