<svg id="artwork" xmlns="http://www.w3.org/2000/svg" viewBox="0 0 282 282"><defs><style>.cls-1{fill:#d9cec5;}.cls-2{fill:#9b7942;}.cls-3,.cls-4{fill:#2d2d2d;}.cls-4{fill-rule:evenodd;}.cls-5{fill:none;stroke:#2d2d2d;stroke-miterlimit:10;}.cls-6{fill:#f2eae4;}.cls-7{fill:#462e13;}</style></defs><g id="eyes_right2"><g id="white"><path class="cls-1" d="M110.56,115.44a44.52,44.52,0,0,0-11.12,3.89c-12.55,6,7.57,12.11,14,11.61,4-.31,9-1.41,11.62-4.7,2.27-2.84,3.74-11.13-.19-11.28C121.09,114.82,116.89,114.33,110.56,115.44Z"/><path class="cls-1" d="M165.91,112.73c-5,2-11,6.71-8.94,11,3.86,7.79,12.5,9,19.83,6.8,5-1.49,8.78-5.78,7.73-9.93a10.19,10.19,0,0,0-3.22-4.78,15.63,15.63,0,0,0-4.68-3,15.22,15.22,0,0,0-9.73-.4C166.57,112.48,166.24,112.6,165.91,112.73Z"/></g><g id="iris"><path class="cls-2" d="M123.62,126.92c3.09-1.39,4.45-9.72,3.38-12.33a93.59,93.59,0,0,0-9.46.24c-2.19,2-1.45,6.59-.51,8.29C118.49,125.75,123.16,127.12,123.62,126.92Z"/><path class="cls-2" d="M185.88,119a7.93,7.93,0,0,0-3.91-5.42c-2.74-1.3-4.74,2.12-5.07,4.35s1.28,7.38,4.69,7.87c1.62,1.19,3-1.87,3.55-3.08A15.2,15.2,0,0,0,185.88,119Z"/></g><g id="iris_outline"><path class="cls-3" d="M120.54,125.67a57.6,57.6,0,0,1,3.5-5l.12-.17s.12-.15,0-.07l0,0s0,0,0,0,0,.11,0,.16a40.23,40.23,0,0,1-3.66,5.15Z"/><path class="cls-3" d="M124.32,122.92a9.76,9.76,0,0,1-2.28-3,35.67,35.67,0,0,1,2.28,3Z"/><path class="cls-3" d="M125.55,120.24a9.15,9.15,0,0,1-3-1,13.2,13.2,0,0,1,3,1Z"/><path class="cls-3" d="M124.82,115.61c-.93,1-1.92,2.07-2.81,3.09.47-1.35,1.85-2.18,2.81-3.09Z"/><path class="cls-3" d="M119.22,115.21a11.36,11.36,0,0,1,3,1.28,5.15,5.15,0,0,1-1.54-.55s-1.53-.69-1.46-.73Z"/><path class="cls-3" d="M117.1,122.63a36.22,36.22,0,0,1,4.89-2.86,34.3,34.3,0,0,1-4.89,2.86Z"/><path class="cls-3" d="M115.74,117.78c1,.34,2.19.31,3.24.61s2.2.64,3.19.92a12.38,12.38,0,0,1-3.23-.72c-1-.37-2.33-.35-3.2-.81Z"/><path class="cls-3" d="M123.51,126.94c-5.19-.24-10.47-6.61-7.13-11.51l.09,0a9.4,9.4,0,0,0,7,11.47Z"/><path class="cls-3" d="M183.38,126c-7.17,1.41-9.54-11.57-2.81-13.42l0,.09c-4.9,3.26-4,13.6,2.78,13.33Z"/></g><g id="pupil"><path class="cls-4" d="M123.11,116.57c2-1.25,5.29,1.91,3.18,6.39-.76,1.6-2.18,2-3.23.8a5.56,5.56,0,0,1-1.22-3.33C121.74,118.29,122.31,117.07,123.11,116.57Z"/><path class="cls-4" d="M184.06,123.63c.79-.47,1.28-1.13,1.48-3.1.32-3.17-3.44-6-5.07-2.47-.74,1.62.56,1.26,1,2.17,1,2-.25,1.27-.95,3.25C180.12,124.74,182.39,124.63,184.06,123.63Z"/><path class="cls-4" d="M123.11,116.57c2-1.25,5.29,1.91,3.18,6.39-.76,1.6-2.18,2-3.23.8a5.56,5.56,0,0,1-1.22-3.33C121.74,118.29,122.31,117.07,123.11,116.57Z"/><path class="cls-4" d="M184.06,123.63c.79-.47,1.28-1.13,1.48-3.1.32-3.17-3.44-6-5.07-2.47-.74,1.62.56,1.26,1,2.17,1,2-.25,1.27-.95,3.25C180.12,124.74,182.39,124.63,184.06,123.63Z"/><path class="cls-5" d="M123.11,116.57c2-1.25,5.29,1.91,3.18,6.39-.76,1.6-2.18,2-3.23.8a5.56,5.56,0,0,1-1.22-3.33C121.74,118.29,122.31,117.07,123.11,116.57Z"/><path class="cls-5" d="M184.06,123.63c.79-.47,1.28-1.13,1.48-3.1.32-3.17-3.44-6-5.07-2.47-.74,1.62.56,1.26,1,2.17,1,2-.25,1.27-.95,3.25C180.12,124.74,182.39,124.63,184.06,123.63Z"/></g><g id="spec"><path class="cls-6" d="M116.18,118.38a1.45,1.45,0,0,0-.22.36,1.55,1.55,0,0,0,.73,1.83,1.1,1.1,0,0,0,1.61-.58,1.52,1.52,0,0,0-.37-1.56C117.35,118.4,116.76,118.39,116.18,118.38Z"/><path class="cls-6" d="M178.46,115.77a.79.79,0,0,0-.43.08c-.59.34-.72,1.52-.29,2.63s1.27,1.74,1.86,1.4.7-1.42.33-2.49A16.26,16.26,0,0,0,178.46,115.77Z"/></g><g id="outline"><path class="cls-3" d="M129.58,114.21c-.76.13-1.53.31-2.29.44s-1.51.21-2.27.32c-1.52.2-3,.39-4.55.52s-3,.19-4.57.26a31.63,31.63,0,0,0-4.47.44,74.49,74.49,0,0,0-8.61,2.55,23.38,23.38,0,0,0-4,1.74c-1.3.71-2.65,1.51-4.08,2.17l-.09-.12a33.34,33.34,0,0,1,3.21-3.42,14.07,14.07,0,0,1,4.12-2.56,47.2,47.2,0,0,1,9.09-2.25c1.53-.26,3.11-.47,4.65-.6s3.06-.27,4.59-.31a44.55,44.55,0,0,1,4.62.13c.77.06,1.54.11,2.31.22s1.54.29,2.3.44Z"/><path class="cls-3" d="M95.76,123.85a21.44,21.44,0,0,0,8,5.81,23.28,23.28,0,0,0,9.59,1.84,17,17,0,0,0,9.18-3,10.67,10.67,0,0,0,3.19-3.68,10.41,10.41,0,0,0,1.15-4.79h0a11.45,11.45,0,0,1-1,4.89,11.17,11.17,0,0,1-3.08,4,15.8,15.8,0,0,1-9.46,3.23,20.64,20.64,0,0,1-9.82-2,22.91,22.91,0,0,1-7.76-6.24Z"/><path class="cls-3" d="M117.12,107.18a15.06,15.06,0,0,1,.35,2.6,5.92,5.92,0,0,1,0,1.33,4.48,4.48,0,0,1-.43,1.26h0s0,0,0,0a9.62,9.62,0,0,1,0-1.31c0-.43.1-.85.13-1.27a14,14,0,0,0,0-2.59h.05Z"/><path class="cls-3" d="M113,108.33l.34,1.65a3.89,3.89,0,0,1,.14.83,2.85,2.85,0,0,1-.14.85h0a2.7,2.7,0,0,1-.31-.81,4.73,4.73,0,0,1,0-.84v-1.68h0Z"/><path class="cls-3" d="M107.27,109.16a11.73,11.73,0,0,1,.77,1.91,3.9,3.9,0,0,1,.23,1,2.9,2.9,0,0,1-.14,1h0a6.51,6.51,0,0,1-.31-1c-.07-.32-.07-.66-.12-1a11.34,11.34,0,0,0-.42-2h0Z"/><path class="cls-3" d="M101.42,110.87l.89,2.1a8,8,0,0,1,.4,1.06,4.9,4.9,0,0,1,.15,1.15l0,0h0a4.42,4.42,0,0,1-.57-1,7.09,7.09,0,0,1-.31-1.09l-.55-2.22h0Z"/><path class="cls-3" d="M95.43,113a16.16,16.16,0,0,0,1.24,2.5c.24.39.52.76.74,1.17A12.23,12.23,0,0,1,98,117.9l0,0h0a4.78,4.78,0,0,1-1-1,6.36,6.36,0,0,1-.67-1.26,16.81,16.81,0,0,1-.94-2.66l0,0Z"/><path class="cls-3" d="M113.85,134.55a22.62,22.62,0,0,0,7.51-4.1,19.43,19.43,0,0,0,2.87-3.14,19.08,19.08,0,0,0,2.12-3.71s0,0,0,0,0,0,0,0a12.29,12.29,0,0,1-1.76,4,14.42,14.42,0,0,1-3,3.16,23,23,0,0,1-7.75,3.84l0,0S113.83,134.55,113.85,134.55Z"/><path class="cls-3" d="M103.34,131.76a22,22,0,0,1-4.13-2.63,13,13,0,0,1-1.8-1.68,10.2,10.2,0,0,1-1.39-2v0h0l1.71,1.73c.57.57,1.11,1.17,1.7,1.72a22.56,22.56,0,0,0,3.89,2.89s0,0,0,0Z"/><path class="cls-3" d="M157.83,125.68a12.85,12.85,0,0,0,1.52,4.1,20.19,20.19,0,0,0,2.52,3.57,21.19,21.19,0,0,0,3.22,2.92,13.34,13.34,0,0,0,3.84,2s0,0,0,0,0,0,0,0a9.63,9.63,0,0,1-4.12-1.66,15.69,15.69,0,0,1-3.23-3.07,20.19,20.19,0,0,1-2.42-3.73,13.28,13.28,0,0,1-1.37-4.2,0,0,0,0,1,0,0S157.83,125.66,157.83,125.68Z"/><path class="cls-3" d="M182.37,109.45a15.78,15.78,0,0,1,6.33,6.27,11.09,11.09,0,0,1,1.27,4.36,11.88,11.88,0,0,1-.55,4.48,0,0,0,0,1,0,0s0,0,0,0a18.2,18.2,0,0,0,.11-4.42,13.49,13.49,0,0,0-1.14-4.22,15.53,15.53,0,0,0-6-6.41s0,0,0,0S182.36,109.44,182.37,109.45Z"/><path class="cls-3" d="M155.72,119.76a66,66,0,0,1,6.89-6.18,13.71,13.71,0,0,1,4.41-2.25,37.61,37.61,0,0,1,4.68-.93,21.43,21.43,0,0,1,5-.24,11.77,11.77,0,0,1,2.63.56,9.74,9.74,0,0,1,2.33,1.27,15.12,15.12,0,0,1,2,1.65,6.84,6.84,0,0,1,1.52,2.37,14.1,14.1,0,0,1,.81,4.82l-.38.14c-1-1.21-2-2.52-2.85-3.52a5.37,5.37,0,0,0-1.37-1.13c-.48-.28-1.1-.57-1.78-.89s-1.17-.58-1.73-.81a16.59,16.59,0,0,0-1.8-.55,18.19,18.19,0,0,0-4.13-.48,42.19,42.19,0,0,0-4.36.31,12.25,12.25,0,0,0-3.93,1.35,90.36,90.36,0,0,0-7.67,4.82Z"/><path class="cls-3" d="M156.5,122a11.38,11.38,0,0,0,6,6.81,18.82,18.82,0,0,0,9,2,17.31,17.31,0,0,0,8.7-2.62,14.24,14.24,0,0,0,5.66-7.13l.1,0a12.49,12.49,0,0,1-5.2,7.93,16.12,16.12,0,0,1-9.25,2.59,19.14,19.14,0,0,1-9.26-2.32,11.55,11.55,0,0,1-5.9-7.22Z"/><path class="cls-3" d="M157.34,110.46l.49,1.93a6.55,6.55,0,0,1,.2,1,3.48,3.48,0,0,1-.06,1h0a0,0,0,0,1,0,0,3.44,3.44,0,0,1-.38-.94,5.56,5.56,0,0,1-.11-1l-.14-2h.05Z"/><path class="cls-3" d="M160.54,108.67l.4,1.75a4.4,4.4,0,0,1,.16.88,3.3,3.3,0,0,1-.11.92h-.05a3.09,3.09,0,0,1-.34-.85,4.54,4.54,0,0,1-.06-.9l0-1.79h0Z"/><path class="cls-3" d="M163.48,106.18a11.6,11.6,0,0,0,.09,2,8.09,8.09,0,0,1,.14,1,4.86,4.86,0,0,1-.05,1h0a2.62,2.62,0,0,1-.39-1,3.41,3.41,0,0,1,0-1,11.05,11.05,0,0,1,.25-2h0Z"/><path class="cls-3" d="M167.38,105.46l.17,2a4.64,4.64,0,0,1,0,1,3.46,3.46,0,0,1-.22,1h0a3.87,3.87,0,0,1-.23-1,6.5,6.5,0,0,1,.05-1l.18-2h0Z"/><path class="cls-3" d="M170.62,103.65a6.91,6.91,0,0,1,.78,2.76,5.49,5.49,0,0,1,0,1.46,3.78,3.78,0,0,1-.54,1.37h-.05l.09-1.41c0-.46.11-.92.12-1.38a6.53,6.53,0,0,0-.43-2.76l0,0Z"/></g><g id="eyebrows"><path class="cls-7" d="M131.28,95.46c-1.26,1.67-3.07,2.18-4.79,3.09-5,2.42-10.34,4-15.47,6.14-6.88,2.85-13,7.19-20.25,9.17,5.12-5.79,12.06-9,18.9-12.19a101,101,0,0,1,15.55-6.42c1.89-.48,3.57-1.31,5.62-.92l.44,1.13Z"/><path class="cls-7" d="M153.48,107.42c3-9.59,12.3-18.32,22.9-17.66A11,11,0,0,1,185.07,95c-11.8-7-23.59,4.46-31.59,12.39Z"/></g></g></svg>