<svg id="artwork" xmlns="http://www.w3.org/2000/svg" xmlns:xlink="http://www.w3.org/1999/xlink" viewBox="0 0 282 282"><defs><style>.cls-1,.cls-7{fill:none;}.cls-2{clip-path:url(#clip-path);}.cls-3{fill:#d9cec5;}.cls-4{fill:#9b7942;}.cls-5,.cls-6{fill:#2d2d2d;}.cls-6{fill-rule:evenodd;}.cls-7{stroke:#2d2d2d;stroke-miterlimit:10;}.cls-8{fill:#f2eae4;}.cls-9{fill:#462e13;}</style><clipPath id="clip-path"><rect id="face_clip" class="cls-1" x="1" y="1" width="280" height="280" rx="140"/></clipPath></defs><g class="cls-2"><g id="eyes_left1"><g id="white"><path class="cls-3" d="M172.05,116.61a45,45,0,0,1,11.22,3.9c12.67,6-7.64,12.11-14.1,11.6-4-.31-9.08-1.41-11.73-4.69-2.29-2.84-3.77-11.13.19-11.28C161.43,116,165.66,115.51,172.05,116.61Z"/><path class="cls-3" d="M117.09,116.4c5.09,2,11.14,6.72,9,11-3.89,7.78-12.61,9-20,6.8-5-1.5-8.87-5.79-7.81-9.94a10.18,10.18,0,0,1,3.25-4.77,15.71,15.71,0,0,1,4.73-3,15.46,15.46,0,0,1,9.81-.4C116.43,116.16,116.76,116.27,117.09,116.4Z"/></g><g id="iris"><path class="cls-4" d="M158.87,128.09c-3.11-1.39-4.48-9.71-3.4-12.33A95.19,95.19,0,0,1,165,116c2.21,1.95,1.46,6.58.51,8.28C164.05,126.92,159.34,128.3,158.87,128.09Z"/><path class="cls-4" d="M97,122.68a7.91,7.91,0,0,1,3.94-5.43c2.76-1.3,4.79,2.13,5.11,4.35.35,2.39-1.28,7.38-4.73,7.88-1.63,1.18-3-1.88-3.57-3.08A14.13,14.13,0,0,1,97,122.68Z"/></g><g id="iris_outline"><path class="cls-5" d="M162,126.86a45.05,45.05,0,0,1-3.66-5.16s-.09-.13-.05-.16,0,0,.05,0l0,0c-.07-.07,0,0,.06.08l.12.16a49.3,49.3,0,0,1,3.5,5Z"/><path class="cls-5" d="M158.15,124.07c.84-.95,1.41-2.09,2.32-3a8.78,8.78,0,0,1-2.32,3Z"/><path class="cls-5" d="M156.92,121.39a17.17,17.17,0,0,1,3-.94,3.38,3.38,0,0,1-1.48.61s-1.59.4-1.56.33Z"/><path class="cls-5" d="M157.68,116.77c.93,1,2.43,1.75,2.8,3.11-.84-1.1-2-2-2.8-3.11Z"/><path class="cls-5" d="M163.32,116.41a11.62,11.62,0,0,1-3,1.23,5.31,5.31,0,0,1,1.48-.71s1.59-.59,1.56-.52Z"/><path class="cls-5" d="M165.44,123.83a36,36,0,0,1-4.91-2.9,36,36,0,0,1,4.91,2.9Z"/><path class="cls-5" d="M166.84,119c-1,.41-2.18.43-3.24.79a12.27,12.27,0,0,1-3.26.71c1-.27,2.13-.71,3.21-.91s2.27-.32,3.29-.59Z"/><path class="cls-5" d="M159,128a9.28,9.28,0,0,0,7.11-11.37l.09,0c3.43,4.83-2.19,11.6-7.2,11.41Z"/><path class="cls-5" d="M99.49,129.61c6.84.53,7.69-10.17,2.78-13.24l0-.09c6.91,1.78,4.14,15.18-2.82,13.33Z"/></g><g id="pupil"><path class="cls-6" d="M159.39,117.74c-2-1.25-5.33,1.92-3.2,6.4.75,1.59,2.19,2,3.25.8a5.47,5.47,0,0,0,1.23-3.33C160.77,119.47,160.19,118.24,159.39,117.74Z"/><path class="cls-6" d="M98.78,127.3c-.8-.47-1.29-1.13-1.49-3.1-.32-3.17,3.47-6,5.11-2.46.75,1.61-.57,1.26-1.05,2.17-1,2,.25,1.27,1,3.24C102.76,128.41,100.47,128.31,98.78,127.3Z"/><path class="cls-6" d="M159.39,117.74c-2-1.25-5.33,1.92-3.2,6.4.75,1.59,2.19,2,3.25.8a5.47,5.47,0,0,0,1.23-3.33C160.77,119.47,160.19,118.24,159.39,117.74Z"/><path class="cls-6" d="M98.78,127.3c-.8-.47-1.29-1.13-1.49-3.1-.32-3.17,3.47-6,5.11-2.46.75,1.61-.57,1.26-1.05,2.17-1,2,.25,1.27,1,3.24C102.76,128.41,100.47,128.31,98.78,127.3Z"/><path class="cls-7" d="M159.39,117.74c-2-1.25-5.33,1.92-3.2,6.4.75,1.59,2.19,2,3.25.8a5.47,5.47,0,0,0,1.23-3.33C160.77,119.47,160.19,118.24,159.39,117.74Z"/><path class="cls-7" d="M98.78,127.3c-.8-.47-1.29-1.13-1.49-3.1-.32-3.17,3.47-6,5.11-2.46.75,1.61-.57,1.26-1.05,2.17-1,2,.25,1.27,1,3.24C102.76,128.41,100.47,128.31,98.78,127.3Z"/></g><g id="spec"><path class="cls-8" d="M166.38,119.56a1.09,1.09,0,0,1,.22.36,1.54,1.54,0,0,1-.73,1.83,1.13,1.13,0,0,1-1.63-.58,1.5,1.5,0,0,1,.38-1.56C165.21,119.58,165.79,119.56,166.38,119.56Z"/><path class="cls-8" d="M104.43,119.45a.68.68,0,0,1,.44.08c.59.34.72,1.52.29,2.63s-1.28,1.73-1.88,1.39-.71-1.41-.34-2.48A15.47,15.47,0,0,1,104.43,119.45Z"/></g><g id="outline"><path class="cls-5" d="M152.86,115.36c.77-.15,1.54-.34,2.32-.45s1.55-.16,2.33-.22c1.55-.11,3.11-.16,4.65-.12s3.1.16,4.64.3,3.14.34,4.69.6a48.83,48.83,0,0,1,9.16,2.25,14.19,14.19,0,0,1,4.16,2.56,32.69,32.69,0,0,1,3.25,3.42l-.09.13c-1.43-.67-2.8-1.47-4.11-2.18a23.5,23.5,0,0,0-4-1.74,73.2,73.2,0,0,0-8.69-2.54,30.62,30.62,0,0,0-4.5-.44c-1.54-.07-3.08-.14-4.61-.27s-3.06-.31-4.59-.52c-.76-.11-1.53-.2-2.29-.32s-1.54-.31-2.31-.43Z"/><path class="cls-5" d="M187,125a23.2,23.2,0,0,1-7.84,6.25,20.89,20.89,0,0,1-9.88,2,16,16,0,0,1-9.53-3.2,10.83,10.83,0,0,1-4.11-8.89h0a10.39,10.39,0,0,0,1.17,4.81,10.69,10.69,0,0,0,3.23,3.68,17.29,17.29,0,0,0,9.26,3,23.23,23.23,0,0,0,9.65-1.84,21.46,21.46,0,0,0,8-5.8Z"/><path class="cls-5" d="M165.49,108.37a13.09,13.09,0,0,0,0,2.58c0,.43.12.85.13,1.28a11.35,11.35,0,0,1,0,1.3l0,0h0a4.07,4.07,0,0,1-.42-1.26,5.29,5.29,0,0,1,0-1.32,14.15,14.15,0,0,1,.36-2.6h0Z"/><path class="cls-5" d="M169.65,109.51v1.69a4.57,4.57,0,0,1,0,.83,2.51,2.51,0,0,1-.31.81h-.05a3,3,0,0,1-.14-.86,3.8,3.8,0,0,1,.14-.82l.34-1.65h.05Z"/><path class="cls-5" d="M175.42,110.36a11,11,0,0,0-.44,2,8,8,0,0,1-.12,1,5.29,5.29,0,0,1-.31,1h-.05a2.84,2.84,0,0,1-.13-1,3.88,3.88,0,0,1,.22-1,12.22,12.22,0,0,1,.78-1.9h0Z"/><path class="cls-5" d="M181.32,112.06l-.56,2.21a6.9,6.9,0,0,1-.31,1.1,4.81,4.81,0,0,1-.58,1h0s0,0,0,0a4.77,4.77,0,0,1,.14-1.15,8,8,0,0,1,.41-1.06l.89-2.11h0Z"/><path class="cls-5" d="M187.37,114.16a17,17,0,0,1-1,2.67,6.58,6.58,0,0,1-.68,1.25,4.65,4.65,0,0,1-1,1h0l0,0a13.62,13.62,0,0,1,.62-1.27c.23-.4.51-.77.75-1.17a17,17,0,0,0,1.25-2.49s0,0,0,0Z"/><path class="cls-5" d="M168.72,135.77a22.9,22.9,0,0,1-7.8-3.83,14.29,14.29,0,0,1-3.06-3.15,12.29,12.29,0,0,1-1.79-4s0,0,0,0h0a18.85,18.85,0,0,0,2.15,3.73,18.29,18.29,0,0,0,2.9,3.13,22.7,22.7,0,0,0,7.57,4.09s0,0,0,0A0,0,0,0,1,168.72,135.77Z"/><path class="cls-5" d="M179.32,132.89a21.79,21.79,0,0,0,3.92-2.89c.6-.55,1.14-1.14,1.71-1.71l1.73-1.73h0s0,0,0,0a10.86,10.86,0,0,1-1.4,2,13.78,13.78,0,0,1-1.82,1.68,22.61,22.61,0,0,1-4.16,2.63,0,0,0,0,1,0,0A0,0,0,0,1,179.32,132.89Z"/><path class="cls-5" d="M125.29,129.36a12.94,12.94,0,0,1-1.38,4.21,19.93,19.93,0,0,1-2.45,3.72,15.32,15.32,0,0,1-3.26,3.07,9.7,9.7,0,0,1-4.14,1.66s0,0,0,0,0,0,0,0a13.05,13.05,0,0,0,3.86-2,20.39,20.39,0,0,0,3.25-2.92,19.63,19.63,0,0,0,2.55-3.57,12.83,12.83,0,0,0,1.53-4.11l0,0S125.3,129.34,125.29,129.36Z"/><path class="cls-5" d="M100.51,113.16a15.63,15.63,0,0,0-6,6.4,13,13,0,0,0-1.15,4.22,17.87,17.87,0,0,0,.1,4.44s0,0,0,0l0,0a11.94,11.94,0,0,1-.55-4.49,11.07,11.07,0,0,1,1.29-4.36,15.82,15.82,0,0,1,6.38-6.26s0,0,0,0A0,0,0,0,1,100.51,113.16Z"/><path class="cls-5" d="M127.12,123.74c-2.57-1.67-5.1-3.46-7.73-4.82a12.71,12.71,0,0,0-4-1.35,40,40,0,0,0-4.39-.3,18.62,18.62,0,0,0-4.17.47,17.5,17.5,0,0,0-1.81.55c-.58.23-1,.42-1.75.8s-1.31.61-1.8.89a5.66,5.66,0,0,0-1.39,1.13c-.91,1-1.83,2.32-2.88,3.54l-.37-.14a14.28,14.28,0,0,1,.84-4.85,7.07,7.07,0,0,1,1.55-2.38,16.06,16.06,0,0,1,2-1.64,10.07,10.07,0,0,1,2.35-1.26,12,12,0,0,1,2.63-.55,22.26,22.26,0,0,1,5,.24A40,40,0,0,1,116,115a14.27,14.27,0,0,1,4.44,2.24,69.16,69.16,0,0,1,7,6.19Z"/><path class="cls-5" d="M126.69,125.71a11.57,11.57,0,0,1-6,7.22,19.51,19.51,0,0,1-9.32,2.32,16.4,16.4,0,0,1-9.31-2.58,12.53,12.53,0,0,1-5.27-7.94l.09,0a14.28,14.28,0,0,0,5.73,7.13,17.6,17.6,0,0,0,8.77,2.62,19.18,19.18,0,0,0,9.08-1.95,11.42,11.42,0,0,0,6.1-6.82Z"/><path class="cls-5" d="M125.79,114.14l-.14,2a6.52,6.52,0,0,1-.11,1,4,4,0,0,1-.38.95h0a4,4,0,0,1-.07-1,5.42,5.42,0,0,1,.21-1l.49-1.94h.05Z"/><path class="cls-5" d="M122.56,112.35l0,1.8a4.4,4.4,0,0,1-.07.89,2.93,2.93,0,0,1-.33.86h0A2.87,2.87,0,0,1,122,115a4.4,4.4,0,0,1,.16-.88l.4-1.75h0Z"/><path class="cls-5" d="M119.6,109.84a12,12,0,0,1,.25,2,3.8,3.8,0,0,1,0,1,2.72,2.72,0,0,1-.4,1h0a7,7,0,0,1,0-1c0-.32.1-.64.14-1a11.77,11.77,0,0,0,.1-2h0Z"/><path class="cls-5" d="M115.66,109.13l.18,2a6.37,6.37,0,0,1,0,1,3.8,3.8,0,0,1-.23,1h0a3.4,3.4,0,0,1-.22-1,4.57,4.57,0,0,1,0-1l.17-2h0Z"/><path class="cls-5" d="M112.39,107.34a6.7,6.7,0,0,0-.44,2.76c0,.47.1.92.13,1.38l.09,1.41a0,0,0,0,1,0,0h0a3.8,3.8,0,0,1-.54-1.36,5.1,5.1,0,0,1,0-1.46,7,7,0,0,1,.79-2.77h0Z"/></g><g id="eyebrows"><path class="cls-9" d="M151.58,95.5c2.07-.38,3.77.45,5.67.92a102,102,0,0,1,15.68,6.42c6.9,3.2,13.9,6.4,19.09,12.2-7.29-2-13.48-6.33-20.43-9.18-5.17-2.08-10.55-3.71-15.6-6.13-1.74-.91-3.56-1.43-4.84-3.1l.43-1.13Z"/><path class="cls-9" d="M129.63,111.09c-8.07-8-20-19.32-31.87-12.39a11.18,11.18,0,0,1,8.76-5.26c10.64-.68,20,8,23.11,17.65Z"/></g></g></g></svg>