<svg id="artwork" xmlns="http://www.w3.org/2000/svg" xmlns:xlink="http://www.w3.org/1999/xlink" viewBox="0 0 282 282"><defs><style>.cls-1{fill:none;}.cls-2{clip-path:url(#clip-path);}.cls-3{fill:#d9b9b0;fill-rule:evenodd;}.cls-4{fill:#2d2d2d;}</style><clipPath id="clip-path"><rect id="face_clip" class="cls-1" x="1" y="1" width="280" height="280" rx="140"/></clipPath></defs><g class="cls-2"><g id="mouth_sad2"><path class="cls-3" d="M126.4,178.92c.84,1.46,2.31,5.44,4.61,5.65s7.94-.63,10.87-.42,9,1,11.08,0A17.58,17.58,0,0,0,159,178.5c.84-1.67-3.62-6.51-6.72-6.81s-6.73,2.26-10.15,1.82-5.72-2.54-8.23-1.49a25.17,25.17,0,0,0-6.27,4A7.28,7.28,0,0,0,126.4,178.92Z"/><path class="cls-4" d="M126.14,177.26c1.93-1.47,3.53-3.32,5.5-4.77a6.87,6.87,0,0,1,7.18-.15,4.27,4.27,0,0,0,4.32.53c5.29-1.52,9.49-3.55,13.86,1.24l3.45,3.4-.06.08c-7.95-6-7-6.64-17-4a7.68,7.68,0,0,1-2.53.31,5.62,5.62,0,0,1-2.32-1,6.44,6.44,0,0,0-6.63-.08c-1.72,1-4.24,3.82-5.72,4.44Z"/><path class="cls-4" d="M167.92,182.47a14.7,14.7,0,0,0-8.14-4.56,8.62,8.62,0,0,0-3.06.55,28.62,28.62,0,0,1-6.42-.15,206.9,206.9,0,0,0-25.4.53,27.27,27.27,0,0,0-6.19,1.29l0-.09a21.48,21.48,0,0,1,6.12-1.92c8.45-1.49,17-.75,25.55-.41a29.88,29.88,0,0,0,6.3.33,8.6,8.6,0,0,1,3.19-.43,12.14,12.14,0,0,1,1.55.45A14.3,14.3,0,0,1,168,182.4l-.07.07Z"/><path class="cls-4" d="M158.82,177.55a11,11,0,0,1-2.72,3.65,8.54,8.54,0,0,1-3.87,2.43c-3,.9-6.08-.3-9.07-.13-4.3.1-9.6,2.39-13.57-.49a6.54,6.54,0,0,1-1.84-4.23l.1,0a7,7,0,0,0,2.21,3.69c4,2.2,8.67.13,13.09.26,3.12-.06,6.06,1.24,9,.5,2.21-.42,3.89-2.21,5.37-3.81a5.94,5.94,0,0,0,1.23-1.84Z"/></g></g></svg>