<svg id="artwork" xmlns="http://www.w3.org/2000/svg" viewBox="0 0 340 665"><defs><style>.cls-1{fill:#bdb3ad;}.cls-2{fill:#b88d6e;}.cls-3,.cls-4{fill:#2d2d2d;}.cls-4{fill-rule:evenodd;}.cls-5{fill:none;stroke:#2d2d2d;stroke-miterlimit:10;}.cls-6{fill:#f2eae4;}</style></defs><g id="eyes_left1"><g id="white"><path class="cls-1" d="M208.16,110.05c5.22.92,10.18,3.55,11.28,4,11.71,4.37-7.82,13.14-14.32,12.63-4-.32-9-2.29-11.65-5.62-2.31-2.88-3.79-11.3.19-11.45C197.48,109.43,201.74,108.93,208.16,110.05Z"/><path class="cls-1" d="M161.94,108.14c5.12,2,11.21,6.81,9.07,11.11-3.91,7.9-12.9,8.19-20.11,6.9-5.2-.92-8.92-5.86-7.85-10.08a10.29,10.29,0,0,1,3.26-4.84,15.77,15.77,0,0,1,4.76-3,15.37,15.37,0,0,1,9.87-.4C161.28,107.89,161.61,108,161.94,108.14Z"/></g><g id="iris"><path class="cls-2" d="M194.67,122c-3.13-1.41-4.27-10.14-3.18-12.79,2.88-.21,6.67.14,9.59.25,2.22,2,1.47,6.68.52,8.4C200.12,120.52,195.14,122.19,194.67,122Z"/><path class="cls-2" d="M141.68,114.5a8.05,8.05,0,0,1,4-5.5c2.77-1.32,4.81,2.16,5.14,4.41.35,2.43-1.29,7.5-4.76,8-1.64,1.2-3-1.91-3.59-3.13A15,15,0,0,1,141.68,114.5Z"/></g><g id="iris_outline"><path class="cls-3" d="M198,120.45a45.35,45.35,0,0,1-3.69-5.24s-.09-.12-.05-.16,0,0,.05,0l0,0c-.07-.08,0,0,.06.08l.12.16a52.17,52.17,0,0,1,3.53,5.1Z"/><path class="cls-3" d="M199.68,110.83a21.62,21.62,0,0,1-3.68.68,4.67,4.67,0,0,1,1.82-.47s1.9-.28,1.86-.21Z"/><path class="cls-3" d="M201.09,117.5a35.51,35.51,0,0,1-4.93-3,36.51,36.51,0,0,1,4.93,3Z"/><path class="cls-3" d="M203,113.18c-1.1.19-2.24-.05-3.36.07a12.53,12.53,0,0,1-3.35,0c1,0,2.24-.24,3.35-.2s2.3.18,3.36.13Z"/><path class="cls-3" d="M146,121.34a45.35,45.35,0,0,1-3.69-5.24s-.09-.12,0-.16,0,0,0,0h0c-.07-.07,0,0,.06.08l.12.17a52.17,52.17,0,0,1,3.53,5.1Z"/><path class="cls-3" d="M147.41,110.74a11.85,11.85,0,0,1-3.07,1.24,5,5,0,0,1,1.5-.71,15.28,15.28,0,0,1,1.57-.53Z"/><path class="cls-3" d="M149.53,118.27a35.51,35.51,0,0,1-4.93-3,36.51,36.51,0,0,1,4.93,3Z"/><path class="cls-3" d="M150.94,113.34c-1,.42-2.2.44-3.26.8a12.79,12.79,0,0,1-3.27.73c1-.28,2.13-.72,3.23-.93s2.28-.32,3.3-.6Z"/><path class="cls-3" d="M194.84,122c5-1.12,9.37-7.44,6.86-12.38l.08-.06c4.78,4.24-2,12.55-6.94,12.44Z"/><path class="cls-3" d="M144.24,121.54c6.91.53,7.72-10.33,2.79-13.43l0-.09c6.94,1.82,4.2,15.36-2.83,13.52Z"/></g><g id="pupil"><path class="cls-4" d="M143.52,119.2c-.92-.08-1.29-1.15-1.49-3.15-.33-3.21,3.48-6.11,5.14-2.5.75,1.64-.57,1.28-1.06,2.21-1,2-.16-.21.55,1.79C147.12,118.83,145.45,119.37,143.52,119.2Z"/><path class="cls-4" d="M194.43,112.91c.49-.93,2.34-2.1,2.16-2.64-.74-2.23-3.89-1.93-5.07-.79a36.66,36.66,0,0,0,.26,6.44c1.69,1,3.28,1.12,3.91,0C195.93,115.43,193.39,114.89,194.43,112.91Z"/><path class="cls-4" d="M143.52,119.2c-.92-.08-1.29-1.15-1.49-3.15-.33-3.21,3.48-6.11,5.14-2.5.75,1.64-.57,1.28-1.06,2.21-1,2-.16-.21.55,1.79C147.12,118.83,145.45,119.37,143.52,119.2Z"/><path class="cls-4" d="M194.43,112.91c.49-.93,2.34-2.1,2.16-2.64-.74-2.23-3.89-1.93-5.07-.79a36.66,36.66,0,0,0,.26,6.44c1.69,1,3.28,1.12,3.91,0C195.93,115.43,193.39,114.89,194.43,112.91Z"/><path class="cls-5" d="M143.52,119.2c-.92-.08-1.29-1.15-1.49-3.15-.33-3.21,3.48-6.11,5.14-2.5.75,1.64-.57,1.28-1.06,2.21-1,2-.16-.21.55,1.79C147.12,118.83,145.45,119.37,143.52,119.2Z"/><path class="cls-5" d="M194.43,112.91c.49-.93,2.34-2.1,2.16-2.64-.74-2.23-3.89-1.93-5.07-.79a36.66,36.66,0,0,0,.26,6.44c1.69,1,3.28,1.12,3.91,0C195.93,115.43,193.39,114.89,194.43,112.91Z"/></g><g id="spec"><path class="cls-6" d="M203.54,110.21a1.61,1.61,0,0,1,.34.53,2.21,2.21,0,0,1-1.12,2.72,1.83,1.83,0,0,1-2.57-.88,2.15,2.15,0,0,1,.57-2.32C201.69,110.23,202.61,110.21,203.54,110.21Z"/><path class="cls-6" d="M150.45,109.76a1.62,1.62,0,0,1,.55.49,2.4,2.4,0,0,1-1,3.17,2.07,2.07,0,1,1-2.44-3.22A18.67,18.67,0,0,1,150.45,109.76Z"/></g><g id="outline"><path class="cls-3" d="M188.86,108.78c.77-.15,1.55-.34,2.33-.45s1.57-.15,2.35-.22c1.56-.11,3.13-.16,4.69-.12s3.11.17,4.66.31,3.16.35,4.72.62a47.71,47.71,0,0,1,9.21,2.28,14.46,14.46,0,0,1,4.18,2.59,35.36,35.36,0,0,1,3.26,3.46l-.09.12c-1.44-.68-2.81-1.48-4.13-2.21a22.26,22.26,0,0,0-4-1.77,72.31,72.31,0,0,0-8.74-2.58,29.71,29.71,0,0,0-4.53-.45c-1.55-.07-3.1-.14-4.64-.27s-3.08-.32-4.61-.53c-.77-.11-1.54-.19-2.32-.32s-1.54-.31-2.32-.43Z"/><path class="cls-3" d="M223.18,118.6a23.6,23.6,0,0,1-9.16,6.87,20.58,20.58,0,0,1-11.45,1.38,14.84,14.84,0,0,1-5.48-2,12.36,12.36,0,0,1-4.08-4.18,14.24,14.24,0,0,1-1.82-5.5,23.54,23.54,0,0,1,.06-5.75h0a21.06,21.06,0,0,0,.15,5.72,13.88,13.88,0,0,0,2,5.27,13.66,13.66,0,0,0,9.24,5.84,23,23,0,0,0,20.49-7.63Z"/><path class="cls-3" d="M201.56,101.68a15.4,15.4,0,0,0,0,2.63c0,.43.12.86.13,1.29a8.47,8.47,0,0,1,0,1.33h0a4.47,4.47,0,0,1-.42-1.28,6,6,0,0,1,0-1.34,14.47,14.47,0,0,1,.36-2.64h.05Z"/><path class="cls-3" d="M205.75,102.85v1.71a3.46,3.46,0,0,1,0,.85,2.51,2.51,0,0,1-.31.82h-.05a2.63,2.63,0,0,1-.13-.87,3.88,3.88,0,0,1,.13-.83l.35-1.67h.05Z"/><path class="cls-3" d="M211.54,103.71a12.39,12.39,0,0,0-.43,2c-.05.34-.05.68-.12,1a6.62,6.62,0,0,1-.31,1h-.05a3,3,0,0,1-.14-1.06,4,4,0,0,1,.23-1,10.83,10.83,0,0,1,.78-1.93h0Z"/><path class="cls-3" d="M217.48,105.43l-.56,2.25a7.37,7.37,0,0,1-.32,1.11,4.9,4.9,0,0,1-.57,1H216a4.52,4.52,0,0,1,.15-1.17,7.47,7.47,0,0,1,.41-1.08l.89-2.13h0Z"/><path class="cls-3" d="M223.56,107.57a16.66,16.66,0,0,1-.95,2.7,6.74,6.74,0,0,1-.68,1.27,5,5,0,0,1-1,1h0v0a11.84,11.84,0,0,1,.62-1.29c.22-.41.51-.78.75-1.19a16.13,16.13,0,0,0,1.26-2.53h0Z"/><path class="cls-3" d="M204.81,129.49a36,36,0,0,1-5.23-1.73,12.9,12.9,0,0,1-4.46-3.25,14.28,14.28,0,0,1-2.75-4.82,21.85,21.85,0,0,1-1.05-5.42s0,0,0,0a0,0,0,0,1,0,0,37.57,37.57,0,0,0,1.47,5.26,16.55,16.55,0,0,0,2.58,4.72,12.9,12.9,0,0,0,4.26,3.31,36.72,36.72,0,0,0,5.14,1.89s0,0,0,0A0,0,0,0,1,204.81,129.49Z"/><path class="cls-3" d="M215.47,126.57a22.22,22.22,0,0,0,3.95-2.93c.6-.56,1.14-1.16,1.72-1.74l1.73-1.75a0,0,0,0,1,0,0s0,0,0,0a10.69,10.69,0,0,1-1.4,2.06,14,14,0,0,1-1.83,1.7,22.24,22.24,0,0,1-4.19,2.68,0,0,0,0,1,0,0A0,0,0,0,1,215.47,126.57Z"/><path class="cls-3" d="M170.19,121.28a13.54,13.54,0,0,1-1.39,4.27,20.64,20.64,0,0,1-2.45,3.77,15.66,15.66,0,0,1-3.28,3.12,9.91,9.91,0,0,1-4.18,1.69l0,0s0,0,0,0a13.24,13.24,0,0,0,3.9-2.05,20.83,20.83,0,0,0,3.26-3,19.91,19.91,0,0,0,2.56-3.62,13.22,13.22,0,0,0,1.54-4.16s0,0,0,0A0,0,0,0,1,170.19,121.28Z"/><path class="cls-3" d="M145.27,104.85a15.78,15.78,0,0,0-6.09,6.51,13.33,13.33,0,0,0-1.15,4.28,18.28,18.28,0,0,0,.11,4.49s0,0,0,0,0,0,0,0a12.44,12.44,0,0,1-.56-4.55,11.37,11.37,0,0,1,1.3-4.41,15.91,15.91,0,0,1,6.41-6.37s0,0,0,0S145.28,104.85,145.27,104.85Z"/><path class="cls-3" d="M172,115.59a89.08,89.08,0,0,0-7.78-4.9,12.41,12.41,0,0,0-4-1.38,40.68,40.68,0,0,0-4.42-.32,18.24,18.24,0,0,0-4.2.49,16.5,16.5,0,0,0-1.83.55c-.57.23-1,.44-1.76.83s-1.32.61-1.81.9a5.83,5.83,0,0,0-1.39,1.16c-.92,1-1.83,2.35-2.88,3.58l-.38-.13a14.5,14.5,0,0,1,.84-4.89,7.11,7.11,0,0,1,1.54-2.4,16.53,16.53,0,0,1,2-1.67,9.8,9.8,0,0,1,2.36-1.28,11.51,11.51,0,0,1,2.66-.57,22,22,0,0,1,5,.24,36.79,36.79,0,0,1,4.74.94,14.17,14.17,0,0,1,4.47,2.27,69.15,69.15,0,0,1,7,6.26Z"/><path class="cls-3" d="M171.59,117.58a11.72,11.72,0,0,1-6,7.32,19.53,19.53,0,0,1-9.39,2.36,16.33,16.33,0,0,1-9.38-2.64,12.7,12.7,0,0,1-5.28-8l.1,0a14.44,14.44,0,0,0,5.74,7.23,17.6,17.6,0,0,0,8.83,2.67,19.23,19.23,0,0,0,9.15-2,11.57,11.57,0,0,0,6.13-6.91Z"/><path class="cls-3" d="M168.58,105.25l-.15,2a4.88,4.88,0,0,1-.11,1,3.37,3.37,0,0,1-.38,1h-.05a4,4,0,0,1-.06-1,5.63,5.63,0,0,1,.21-1l.49-2h.05Z"/><path class="cls-3" d="M164.66,103.27l-.06,1.82a4.64,4.64,0,0,1-.06.91,3,3,0,0,1-.34.87h0a3.33,3.33,0,0,1-.11-.93,4.65,4.65,0,0,1,.17-.89l.4-1.78h0Z"/><path class="cls-3" d="M160.07,101.48a11.39,11.39,0,0,1,.26,2,3.86,3.86,0,0,1,0,1,3,3,0,0,1-.4,1h0a5,5,0,0,1-.05-1c0-.33.1-.65.14-1a11.13,11.13,0,0,0,.09-2h0Z"/><path class="cls-3" d="M155.36,100.17l.17,2a4.7,4.7,0,0,1,.05,1,3.53,3.53,0,0,1-.22,1h-.05a3.55,3.55,0,0,1-.23-1,6.57,6.57,0,0,1,0-1l.18-2h.05Z"/><path class="cls-3" d="M151.73,98.61a6.72,6.72,0,0,0-.44,2.8c0,.47.09.93.12,1.4s.06.94.1,1.43l0,0h0a3.9,3.9,0,0,1-.54-1.38,5.24,5.24,0,0,1,0-1.48,7,7,0,0,1,.79-2.81h0Z"/></g><g id="eyebrows"><path class="cls-3" d="M187.58,88.64c2.08-.37,3.79.47,5.7,1a104,104,0,0,1,15.78,6.52c6.93,3.24,14,6.49,19.18,12.34-7.32-2-13.55-6.43-20.53-9.33-5.2-2.11-10.62-3.79-15.7-6.22-1.75-.92-3.58-1.45-4.87-3.13l.44-1.13Z"/><path class="cls-3" d="M174.55,102.75c-8.08-8.07-20.09-19.67-32.05-12.57a11.24,11.24,0,0,1,8.82-5.32c10.74-.66,20.15,8.18,23.23,17.89Z"/></g></g></svg>