<svg id="artwork" xmlns="http://www.w3.org/2000/svg" viewBox="0 0 340 665"><defs><style>.cls-1{fill:#bdb3ad;}.cls-2{fill:#b88d6e;}.cls-3,.cls-4{fill:#2d2d2d;}.cls-4{fill-rule:evenodd;}.cls-5{fill:none;stroke:#2d2d2d;stroke-miterlimit:10;}.cls-6{fill:#f2eae4;}</style></defs><g id="eyes_neutral7"><g id="white"><path class="cls-1" d="M144.37,107.35c-4.14,1.78-7.29,1.78-8.28,3.16s-.79,5.91-.39,7.69,1.66,1.88,4.86,3.28a28.74,28.74,0,0,0,10.32,2.17c3,.07,13-1.51,14.19-2.3s3.23-1.19,3.62-3.35a20.44,20.44,0,0,0-.86-7.89c-.59-1.77-1-3.43-4.81-4.25S144.37,107.35,144.37,107.35Z"/><path class="cls-1" d="M202.7,106.59c-4.15,1.75-7.37.83-8.37,2.2s-1.14,6.65-.76,8.43,1.9,2.64,5.24,3.65a43.24,43.24,0,0,0,12.85,2c3.74.08,11.27-2,12.46-2.77s2.08-3.7,2.49-5.87-1.73-7.59-1.73-7.59a12.86,12.86,0,0,0-6.07-.6C214.87,106.37,202.7,106.59,202.7,106.59Z"/></g><g id="iris"><path class="cls-2" d="M148.18,107.62c-3.74,1.25-4.77,6.71-3.72,8.82a8,8,0,0,0,7.2,3.89,10.45,10.45,0,0,0,6.15-2.33,6.49,6.49,0,0,0,1.81-5.83c-.53-1.58-2.07-4.42-3.12-5S151.33,106.57,148.18,107.62Z"/><path class="cls-2" d="M206.59,107.18c-3.75,1.22-5,6.6-3.93,8.71s4.19,4.56,7.18,4.31,5-1,6.36-2.74c1.27-1.55,2.44-3.62,1.92-5.2s-1.8-4.74-2.85-5.28S209.76,106.15,206.59,107.18Z"/></g><g id="iris_outline"><path class="cls-3" d="M151.55,112.92s0,0,.06,0a.12.12,0,0,1,0,.07l0,.11v.22l0,.43,0,.87.05,1.74a14.43,14.43,0,0,1,0,1.74,10.48,10.48,0,0,1-.29,1.72s0,0,0,0h0a10.26,10.26,0,0,1-.16-1.75c0-.58.07-1.16.1-1.73l.23-3.36h0A0,0,0,0,1,151.55,112.92Z"/><path class="cls-3" d="M152.35,113.66l1,1.23c.32.41.62.84.95,1.23s.72.74,1,1.16a5.1,5.1,0,0,1,.77,1.39s0,0,0,0h0c-.4-.36-.75-.73-1.11-1.1a9.09,9.09,0,0,1-1-1.24c-.3-.43-.55-.89-.83-1.34l-.8-1.34s0,0,0,0Z"/><path class="cls-3" d="M153,113.06H153V113a30.58,30.58,0,0,0,3,.93c.51.18,1,.26,1.56.46a3.81,3.81,0,0,1,1.43.85s0,0,0,0,0,0,0,0c-.52-.17-1-.3-1.55-.42a8.23,8.23,0,0,1-1.55-.56,27.56,27.56,0,0,1-2.92-1.25l-.12-.06H153a0,0,0,0,1,0,0S153.05,113.06,153,113.06Z"/><path class="cls-3" d="M152.44,112.36a7.61,7.61,0,0,1,2-1.9c.37-.27.72-.55,1.1-.78s.77-.45,1.19-.66h0v0a3.45,3.45,0,0,1-.93,1,7.86,7.86,0,0,1-1.18.71,7.33,7.33,0,0,0-2.15,1.59h0Z"/><path class="cls-3" d="M151.58,112.74a12.16,12.16,0,0,1-.19-1.46l-.19-1.45a8.89,8.89,0,0,1-.11-1.46,4.14,4.14,0,0,1,.29-1.47h.05c.08.5.1,1,.16,1.46s0,1,0,1.45l0,1.47a14,14,0,0,0,0,1.45h0A0,0,0,0,1,151.58,112.74Z"/><path class="cls-3" d="M150.3,113.75v0h0s0,0,0,0h0a6.28,6.28,0,0,1-1.16,1.09l-1.25,1c-.45.32-.91.61-1.35.87a5.58,5.58,0,0,0-1.27.91h0a0,0,0,0,1,0,0,2.64,2.64,0,0,1,1-1.3,11.78,11.78,0,0,1,1.42-.79l1.32-.84a5.81,5.81,0,0,0,1.25-.93v0h0s0,0,.05,0,0,0,0,0v0h0Z"/><path class="cls-3" d="M150.24,112.84a6.5,6.5,0,0,1-1.28-.6l-1.26-.63c-.42-.22-.87-.35-1.27-.6l-.59-.37a1.54,1.54,0,0,1-.56-.49l0,0h0a3.63,3.63,0,0,0,.66.21c.23.07.45.16.67.24a7.19,7.19,0,0,1,1.24.7l1.18.79a7.46,7.46,0,0,0,1.18.74,0,0,0,0,1,0,0Z"/><path class="cls-3" d="M210.3,112.28s0,0,.06,0a.12.12,0,0,1,0,.07l0,.11v.22l0,.43,0,.87.05,1.74a14.41,14.41,0,0,1,0,1.74,10.51,10.51,0,0,1-.3,1.72s0,0,0,0h0a10.22,10.22,0,0,1-.15-1.74c0-.58.08-1.17.12-1.74l.24-3.36h0S210.3,112.29,210.3,112.28Z"/><path class="cls-3" d="M211.09,113l.94,1.25c.32.4.62.83.95,1.22s.71.75,1,1.18a5.07,5.07,0,0,1,.76,1.39l0,0h0c-.4-.36-.74-.74-1.11-1.11a10.69,10.69,0,0,1-1-1.24c-.29-.44-.54-.9-.81-1.35l-.8-1.34,0,0Z"/><path class="cls-3" d="M211.79,112.43h-.08v-.05a29.85,29.85,0,0,0,3,1c.51.18,1,.27,1.54.47a3.68,3.68,0,0,1,1.43.86s0,0,0,0h0c-.53-.17-1-.3-1.56-.43a8.18,8.18,0,0,1-1.54-.57,28.66,28.66,0,0,1-2.92-1.27l-.11-.07.13,0h.08a.08.08,0,0,0,0,0A0,0,0,0,1,211.79,112.43Z"/><path class="cls-3" d="M211.19,111.72a7.58,7.58,0,0,1,2-1.88,13.15,13.15,0,0,1,1.12-.77c.39-.22.76-.45,1.18-.66l0,0v0a3.71,3.71,0,0,1-.94,1,8.92,8.92,0,0,1-1.18.7,7.35,7.35,0,0,0-2.17,1.57h0S211.19,111.72,211.19,111.72Z"/><path class="cls-3" d="M210.33,112.1a12.38,12.38,0,0,1-.18-1.46l-.18-1.45a9,9,0,0,1-.1-1.47,4.43,4.43,0,0,1,.3-1.47h.05c.07.5.1,1,.15,1.45a14.22,14.22,0,0,1,0,1.46v1.46a14.1,14.1,0,0,0,0,1.45s0,0,0,0A0,0,0,0,1,210.33,112.1Z"/><path class="cls-3" d="M209,113.09v0s0,0,0,0v0h0a6.31,6.31,0,0,1-1.17,1.08l-1.26,1a15.27,15.27,0,0,1-1.35.86,5.54,5.54,0,0,0-1.27.9h0a2.64,2.64,0,0,1,1-1.3,13.23,13.23,0,0,1,1.42-.78l1.33-.83a6.09,6.09,0,0,0,1.26-.92v0h0s0,0,.05,0,0,0,0,0v0h0Z"/><path class="cls-3" d="M208.83,112.05a6.85,6.85,0,0,1-1.28-.61l-1.26-.64c-.41-.23-.86-.36-1.26-.61l-.59-.38a1.51,1.51,0,0,1-.55-.49,0,0,0,0,1,0,0h0a3.63,3.63,0,0,0,.66.21c.23.07.45.17.67.25a8.46,8.46,0,0,1,1.24.71l1.17.79a6.56,6.56,0,0,0,1.18.76v0A0,0,0,0,1,208.83,112.05Z"/><path class="cls-3" d="M147.9,107.28a13.64,13.64,0,0,0-3.14,4,6,6,0,0,0-.26,4.92,5.11,5.11,0,0,0,.62,1.09,9.36,9.36,0,0,0,.86.92,10.06,10.06,0,0,0,1,.71,7.39,7.39,0,0,0,1.15.52,10.76,10.76,0,0,0,5,.46,8.4,8.4,0,0,0,4.57-1.88,5.56,5.56,0,0,0,1.82-4.41,8,8,0,0,0-1.72-4.63,6.52,6.52,0,0,0-4.22-2.58s-.06,0-.06,0a.08.08,0,0,1,.06,0,6.41,6.41,0,0,1,4.49,2.41,8.29,8.29,0,0,1,1.95,4.83,5.85,5.85,0,0,1-2,4.8,8.89,8.89,0,0,1-4.85,1.9,11.08,11.08,0,0,1-5.17-.55,7.54,7.54,0,0,1-1.18-.57,8.78,8.78,0,0,1-1.08-.76,8.86,8.86,0,0,1-.87-1,4.84,4.84,0,0,1-.63-1.16,6.13,6.13,0,0,1,.34-5.06,13.89,13.89,0,0,1,3.22-4s0,0,.06,0S147.92,107.26,147.9,107.28Z"/><path class="cls-3" d="M207.5,106.19a13.78,13.78,0,0,0-3.59,3.34,7.17,7.17,0,0,0-1.42,4.58,5.88,5.88,0,0,0,2.22,4.15,8.44,8.44,0,0,0,4.41,1.83,8.18,8.18,0,0,0,8-4.23,6.47,6.47,0,0,0,.55-4.65,10.17,10.17,0,0,0-2.45-4.18s0,0,0,0,0,0,.05,0a9.42,9.42,0,0,1,2.74,4.12,6.73,6.73,0,0,1-.44,5,8.41,8.41,0,0,1-8.5,4.41,8.82,8.82,0,0,1-4.57-2,6.16,6.16,0,0,1-2.23-4.38,7.34,7.34,0,0,1,1.53-4.67,14,14,0,0,1,3.67-3.31h.06S207.52,106.17,207.5,106.19Z"/></g><g id="pupil"><path class="cls-4" d="M151.87,113.11l1.79,1.46a2.31,2.31,0,1,1-.31-3.29,2.31,2.31,0,0,1,.68.92Z"/><path class="cls-4" d="M210.16,112.45l1.79,1.47a2.32,2.32,0,1,1-.29-3.29,2.26,2.26,0,0,1,.67.92Z"/><path class="cls-4" d="M151.87,113.11l1.79,1.46a2.31,2.31,0,1,1-.31-3.29,2.31,2.31,0,0,1,.68.92Z"/><path class="cls-4" d="M210.16,112.45l1.79,1.47a2.32,2.32,0,1,1-.29-3.29,2.26,2.26,0,0,1,.67.92Z"/><path class="cls-5" d="M151.87,113.11l1.79,1.46a2.31,2.31,0,1,1-.31-3.29,2.31,2.31,0,0,1,.68.92Z"/><path class="cls-5" d="M210.16,112.45l1.79,1.47a2.32,2.32,0,1,1-.29-3.29,2.26,2.26,0,0,1,.67.92Z"/></g><g id="spec"><ellipse class="cls-6" cx="157.61" cy="110.55" rx="2.5" ry="2.23" transform="translate(19.41 244.59) rotate(-79.17)"/><ellipse class="cls-6" cx="216.88" cy="108.86" rx="2.23" ry="2.5" transform="translate(106.47 324.95) rotate(-89.59)"/></g><g id="outline"><path class="cls-3" d="M194.6,119.23a3.25,3.25,0,0,1-1.26-2.38,14.83,14.83,0,0,1-.29-2.75,11.14,11.14,0,0,1,.26-2.76,9.41,9.41,0,0,1,1-2.57h0s0,0,0,0c-.21.89-.44,1.76-.58,2.65a24.08,24.08,0,0,0-.35,2.67,15.22,15.22,0,0,0,.11,2.7,3.16,3.16,0,0,0,1.06,2.38,0,0,0,0,1,0,0S194.61,119.24,194.6,119.23Z"/><path class="cls-3" d="M223.74,120.52a4.88,4.88,0,0,0,2.11-2.92,11.46,11.46,0,0,0,.5-3.63,20.17,20.17,0,0,0-.49-3.64,23.68,23.68,0,0,0-1.06-3.55s0,0,0,0,0,0,0,0a12.21,12.21,0,0,1,1.5,3.45,13.6,13.6,0,0,1,.4,3.76,11.77,11.77,0,0,1-.69,3.71,4.94,4.94,0,0,1-2.3,2.88s0,0,0,0A0,0,0,0,1,223.74,120.52Z"/><path class="cls-3" d="M224.32,120.07a34.61,34.61,0,0,1-15,3.05,32.92,32.92,0,0,1-7.65-1.09,37.4,37.4,0,0,1-7.2-2.79s0,0,0,0h.05a58,58,0,0,0,7.3,2.35,39.42,39.42,0,0,0,7.55,1.18,34.44,34.44,0,0,0,15-2.69s0,0,0,0S224.34,120.06,224.32,120.07Z"/><path class="cls-3" d="M160.78,98.3l.34,2.4a8.15,8.15,0,0,1,.14,1.21,5.8,5.8,0,0,1-.14,1.23h-.05a5.17,5.17,0,0,1-.31-1.2,8.11,8.11,0,0,1,0-1.21V98.3h.05Z"/><path class="cls-3" d="M154.82,99.15a8.55,8.55,0,0,1,.7,1.93,3.67,3.67,0,0,1,.14,1,2.85,2.85,0,0,1-.26,1h-.05a6.38,6.38,0,0,1-.19-1c0-.33,0-.66,0-1a8,8,0,0,0-.35-2h0A0,0,0,0,1,154.82,99.15Z"/><path class="cls-3" d="M148.82,99.72l.6,2a5.81,5.81,0,0,1,.27,1,4,4,0,0,1,0,1l0,0h0a3.86,3.86,0,0,1-.44-1,6.87,6.87,0,0,1-.17-1l-.26-2h0Z"/><path class="cls-3" d="M140.25,99.15l1,2.8a11.8,11.8,0,0,1,.47,1.42,8.11,8.11,0,0,1,.21,1.49h-.05a8,8,0,0,1-.64-1.36,12.17,12.17,0,0,1-.37-1.44l-.67-2.91h.05Z"/><path class="cls-3" d="M198.47,99.83l.16,2.28a8.69,8.69,0,0,1,0,1.14,4.93,4.93,0,0,1-.23,1.13h-.06a4.57,4.57,0,0,1-.21-1.14,7.26,7.26,0,0,1,.06-1.14l.19-2.27h.05Z"/><path class="cls-3" d="M215.59,98.14c-.05,1-.05,2,0,2.93a14,14,0,0,1,0,1.45,8.29,8.29,0,0,1-.17,1.47h-.05a6.72,6.72,0,0,1-.28-1.46,9,9,0,0,1,.06-1.47c.09-1,.21-2,.37-2.92h.05Z"/><path class="cls-3" d="M209.69,98.67a9.09,9.09,0,0,1,.34,2.21A4.25,4.25,0,0,1,210,102a2.9,2.9,0,0,1-.48,1,0,0,0,0,1,0,0h0a6.77,6.77,0,0,1,0-1.11c0-.36.12-.71.16-1.06a8.91,8.91,0,0,0,0-2.19h.05Z"/><path class="cls-3" d="M204.63,97.78a28.81,28.81,0,0,1,.14,3.09,8,8,0,0,1-.09,1.54,6.27,6.27,0,0,1-.44,1.5h-.05a11.45,11.45,0,0,1,0-1.55c0-.5.12-1,.18-1.51.12-1,.19-2,.21-3h0S204.63,97.78,204.63,97.78Z"/><path class="cls-3" d="M136.6,120.58a11.47,11.47,0,0,1-1.54-3.88,8.3,8.3,0,0,1-.2-2.11,6.31,6.31,0,0,1,.47-2.06s0,0,0,0a0,0,0,0,1,0,0c0,.7,0,1.38,0,2.06s0,1.35.09,2a11.35,11.35,0,0,0,1.19,3.92s0,0,0,0Z"/><path class="cls-3" d="M168.23,119.44a14.4,14.4,0,0,0,.36-6.55,13.44,13.44,0,0,0-1-3.1A17,17,0,0,0,165.9,107a0,0,0,0,1,0,0h0a9.35,9.35,0,0,1,2.07,2.67,10,10,0,0,1,1,3.24,14.78,14.78,0,0,1-.71,6.64s0,0,0,0S168.23,119.45,168.23,119.44Z"/><path class="cls-3" d="M138.79,120.18a19.07,19.07,0,0,0,7.17,2.88,28.61,28.61,0,0,0,7.73.32,57.41,57.41,0,0,0,7.67-1.3,31.42,31.42,0,0,0,3.78-.86,9.11,9.11,0,0,0,3.28-2s0,0,.05,0,0,0,0,0a8.24,8.24,0,0,1-3.2,2.26,28.86,28.86,0,0,1-3.8,1,43.76,43.76,0,0,1-7.74,1.21,29.22,29.22,0,0,1-7.81-.5,19.2,19.2,0,0,1-7.15-3.06s0,0,0,0S138.77,120.16,138.79,120.18Z"/><path class="cls-3" d="M133.61,112.48a25.57,25.57,0,0,1,7.23-4.58,41,41,0,0,1,8.26-2.52,26.85,26.85,0,0,1,8.6-.81,33.3,33.3,0,0,1,4.22.76,22.46,22.46,0,0,1,4.11,1.41V107a21.23,21.23,0,0,1-4.24,1c-1.4.2-2.78.32-4.14.45-2.7.24-5.38,0-8.1.16a44.38,44.38,0,0,0-8,1.32,38.68,38.68,0,0,0-7.66,3Z"/><path class="cls-3" d="M227,106.38c-1.38.17-2.74.2-4.11.3s-2.72.21-4.08.33c-2.72.25-5.43.58-8.12.94a78.75,78.75,0,0,1-8,1.2c-1.36.06-2.72.08-4.1,0a18.55,18.55,0,0,1-2.09-.16c-.71-.07-1.42-.15-2.13-.25l-.05-.28a29.56,29.56,0,0,1,3.87-1.82,37.7,37.7,0,0,1,4-1.14,39.7,39.7,0,0,1,8.3-.47c2.77,0,5.54.05,8.3.21,1.38.08,2.75.19,4.13.32a38,38,0,0,1,4.1.52Z"/></g><g id="eyebrows"><path class="cls-3" d="M167,96.44c-3.44,0-6.49-1.46-9.79-2a21.2,21.2,0,0,0-13.56,1.77c-3.13,1.28-5.79,3.18-8.92,4.52a23.07,23.07,0,0,1-5.13,1.64A26.39,26.39,0,0,1,133,98.11,29.42,29.42,0,0,1,142,92.46c3.39-1.42,6.74-3.08,10.56-3.43s7.45,1.27,10.87,2.71c1.7.89,3.45,1.58,4.42,3.48L167,96.44Z"/><path class="cls-3" d="M230.3,98.45a54.08,54.08,0,0,0-10.16-4.81,25.68,25.68,0,0,0-10.43-1.33c-7.77.37-14.59,4.13-22.64,3,6.28-6.25,14.06-7,22.39-7.5a20.3,20.3,0,0,1,12.17,2.56c3.52,2,6.88,3.88,9.85,6.8l-1.18,1.23Z"/></g></g></svg>