<svg id="artwork" xmlns="http://www.w3.org/2000/svg" viewBox="0 0 340 665"><defs><style>.cls-1{fill:#bdb3ad;}.cls-2{fill:#443225;}.cls-2,.cls-5{fill-rule:evenodd;}.cls-3{fill:#b88d6e;}.cls-4,.cls-5{fill:#2d2d2d;}.cls-6{fill:none;stroke:#2d2d2d;stroke-miterlimit:10;}.cls-7{fill:#f2eae4;}</style></defs><g id="eyes_sad4"><g id="white"><path class="cls-1" d="M151.05,101.76a32.54,32.54,0,0,0-4.53,1.65c-2.61,2.06-5.08,2.33-6,4.65-1.88,5,.66,12.31.66,12.31s9.21,5.54,17.69,4.77A24.24,24.24,0,0,0,171.35,120s1.94-9.91-.93-13.11c-2.3-2.57-5.76-4.81-8.92-5.29A24.52,24.52,0,0,0,151.05,101.76Z"/><path class="cls-1" d="M222,105.56a35.72,35.72,0,0,0-3.19-1.67,53.47,53.47,0,0,0-10.57-4c-5.9-1.35-12.88.52-16.8,5.28-1,4-1.17,8.31.15,10.77,1.75,3.25,8.78,8.12,13.06,8.68,8.4,1.1,18.31-5,18.31-5s3.89-6.31.59-11.85A20.44,20.44,0,0,0,222,105.56Z"/></g><g id="eyelids"><path class="cls-2" d="M221.7,104.93a23.58,23.58,0,0,0-4.88-3.45c-7.43-2.82-15-4.07-22.37-.41-.77.39-2.56,1.26-2.85,2.16-.56,1.78-1,3.76-1,3.76s9.89-2.45,11.44-2.61c4.48-.44,8.63-.9,13,.1,4.57,1,9.14,4.45,9,4C223.81,107.31,222.63,106,221.7,104.93Z"/><path class="cls-2" d="M139.81,110a79.09,79.09,0,0,1,9.76-2.71c4.49-.6,10.13-1.45,14.57-.79.73.11,7,1.78,6.82,1.31-.49-1.45-.73-2.46-1.88-3.36-1.87-1.46-7.67-3.41-10.06-3.33-8.1.28-11.24,1-17.93,5.8C140.3,107.45,139.81,110,139.81,110Z"/></g><g id="iris"><path class="cls-3" d="M157.22,125.06c-2.42,0-3.93.1-5.09-.5-1.35-.69-1.75-1.62-3.11-4.08a5,5,0,0,1,2-6.47,10.72,10.72,0,0,1,9.38,0,7,7,0,0,1,3.92,4.14C165.87,124.18,162.51,125.06,157.22,125.06Z"/><path class="cls-3" d="M213.2,123.18c-2.15,1.59-7,1.82-10.53.4-5.84-2.36-3.75-10.27,1.9-12a9.64,9.64,0,0,1,6.36.38C216.7,114.45,217.09,120.3,213.2,123.18Z"/></g><g id="iris_outline"><path class="cls-4" d="M148.94,119.45a50.37,50.37,0,0,1,6.35.94c.05,0,.53.12.32.16v0c.1,0-.3-.07-.33-.07a54.74,54.74,0,0,1-6.34-1Z"/><path class="cls-4" d="M150.44,115.3l3.08,2.26a33.07,33.07,0,0,1,3.07,2.29,39.25,39.25,0,0,1-6.15-4.55Z"/><path class="cls-4" d="M163.84,116a39.87,39.87,0,0,1-5.11,3.26l0,0h.09s-.05,0-.17.09c1.49-1.46,3.62-2.11,5.21-3.3Z"/><path class="cls-4" d="M156.68,113.77c.32,1.77,1,3.64.76,5.42-.16-.91-.29-1.8-.39-2.71,0,0-.44-2.75-.37-2.71Z"/><path class="cls-4" d="M163.78,121.86a43.47,43.47,0,0,1-6.29-1.35c-.26-.09-.69-.13-.86-.34,2.36.37,4.83,1.29,7.15,1.69Z"/><path class="cls-4" d="M152.77,124.37a33.69,33.69,0,0,1,3.66-4.27,35.53,35.53,0,0,1-3.66,4.27Z"/><path class="cls-4" d="M160.91,124.47a60.9,60.9,0,0,1-4.32-5.3,42,42,0,0,1,4.32,5.3Z"/><path class="cls-4" d="M162,124.74c2.87-1.46,3.19-5.06,1.4-7.49-2.4-3.73-7.54-4.86-11.45-3.15-2.76,1.14-3.5,4.34-2.41,7a9.27,9.27,0,0,0,2.47,3.56l-.06.08c-4.16-2.38-5.62-9.42-.41-11.51,4.37-1.72,9.85-.28,12.29,3.79a6.32,6.32,0,0,1,1,4.41,4.91,4.91,0,0,1-2.74,3.45l-.05-.09Z"/><path class="cls-4" d="M201.81,122.1a48.9,48.9,0,0,1,5.27-3.53s.47-.27.34-.1h0l-.1.05-.18.12a55.52,55.52,0,0,1-5.31,3.47Z"/><path class="cls-4" d="M199,116.69c2.28.65,5.65,1.34,7.76,2a42.29,42.29,0,0,1-7.76-2Z"/><path class="cls-4" d="M207.1,111.78a33.77,33.77,0,0,1,.92,5.56h0l0-.08s0,0,0,.16c-.75-1.78-.43-3.86-.91-5.65Z"/><path class="cls-4" d="M203.12,113.08a34.87,34.87,0,0,1,3.26,4.62,35,35,0,0,1-3.26-4.62Z"/><path class="cls-4" d="M214.52,113.56a34.64,34.64,0,0,1-5.09,3.17c-.23.12-.55.37-.8.32,1.82-1.28,4.09-2.23,5.89-3.49Z"/><path class="cls-4" d="M210.15,123.42c-.53-1-1.43-1.77-2-2.7a2.54,2.54,0,0,1-.45-1v0s0,0,0,0,0,0,0,0v0s.05,0,.06,0c.67,1.28,1.9,2.4,2.4,3.75Z"/><path class="cls-4" d="M215,120a65.35,65.35,0,0,1-6.82-1.54A43.12,43.12,0,0,1,215,120Z"/><path class="cls-4" d="M213.59,122.87a6.44,6.44,0,0,0,2.06-5.28,9.36,9.36,0,0,0-3.4-4.63c-4.49-3.32-13.22-.27-12.85,5.77.76,3.76,5.37,5.5,8.9,5.54a9.4,9.4,0,0,0,5.53-1.63l.06.08c-4.34,4.08-14.21,2.54-15.48-3.85-.33-6.8,9.19-10.1,14.14-6.31,2.31,1.82,4.43,5,2.85,8a6,6,0,0,1-1.75,2.43l-.06-.08Z"/></g><g id="pupil"><path class="cls-5" d="M155.06,120.88l-1.18-1a3.88,3.88,0,0,1,3.68-2.66,2.19,2.19,0,0,1,1.78,3.11,3.87,3.87,0,0,1-3.67,2.67,2.2,2.2,0,0,1-1.19-.46Z"/><path class="cls-5" d="M205.53,119.47l-1.17-1a3.86,3.86,0,0,1,3.67-2.66,2.19,2.19,0,0,1,1.78,3.11,3.86,3.86,0,0,1-3.67,2.66,2.14,2.14,0,0,1-1.19-.45Z"/><path class="cls-5" d="M155.06,120.88l-1.18-1a3.88,3.88,0,0,1,3.68-2.66,2.19,2.19,0,0,1,1.78,3.11,3.87,3.87,0,0,1-3.67,2.67,2.2,2.2,0,0,1-1.19-.46Z"/><path class="cls-5" d="M205.53,119.47l-1.17-1a3.86,3.86,0,0,1,3.67-2.66,2.19,2.19,0,0,1,1.78,3.11,3.86,3.86,0,0,1-3.67,2.66,2.14,2.14,0,0,1-1.19-.45Z"/><path class="cls-6" d="M155.06,120.88l-1.18-1a3.88,3.88,0,0,1,3.68-2.66,2.19,2.19,0,0,1,1.78,3.11,3.87,3.87,0,0,1-3.67,2.67,2.2,2.2,0,0,1-1.19-.46Z"/><path class="cls-6" d="M205.53,119.47l-1.17-1a3.86,3.86,0,0,1,3.67-2.66,2.19,2.19,0,0,1,1.78,3.11,3.86,3.86,0,0,1-3.67,2.66,2.14,2.14,0,0,1-1.19-.45Z"/></g><g id="spec"><path class="cls-7" d="M160.41,115.59c-1.59,1.94,1.46,3.43,3.42,2.75a2.74,2.74,0,0,0,2-2.39c-.11-2.13-3.92-2.06-5.33-.42Z"/><ellipse class="cls-7" cx="214.29" cy="113.87" rx="2.15" ry="3.02" transform="translate(78.11 314.72) rotate(-83.85)"/><path class="cls-4" d="M188.09,81.68a3.65,3.65,0,0,1-.64-2.44,6.13,6.13,0,0,1,.7-2.49,4.16,4.16,0,0,1,1.82-2,3.13,3.13,0,0,1,1.37-.29,3.61,3.61,0,0,1,.67.11,4.88,4.88,0,0,1,.61.27l0,.1-.61.08c-.2,0-.38.1-.56.14a4.55,4.55,0,0,0-1,.46,5.39,5.39,0,0,0-2.51,3.64,3.5,3.5,0,0,0,.23,2.32Z"/><path class="cls-4" d="M173,82a4.26,4.26,0,0,0,.11-2.29,4.71,4.71,0,0,0-1-2,7.17,7.17,0,0,0-1.74-1.28l-.48-.26-.51-.21-.54-.19a5.25,5.25,0,0,1-.59-.16v-.09a6.21,6.21,0,0,1,.61-.2c.22,0,.43,0,.65,0s.44,0,.66.07.42.12.63.18a4.27,4.27,0,0,1,1.95,1.71,4.93,4.93,0,0,1,.88,2.38,4.3,4.3,0,0,1-.51,2.4Z"/></g><g id="outline"><path class="cls-4" d="M145.46,128.42a30.4,30.4,0,0,1-4.4-3.61,17.51,17.51,0,0,1-1.91-2.13,14.2,14.2,0,0,1-1.47-2.45s0,0,0,0a0,0,0,0,1,0,0l1.82,2.17c.61.72,1.18,1.46,1.81,2.17a30.15,30.15,0,0,0,4.14,3.84,0,0,0,0,1,0,0S145.47,128.43,145.46,128.42Z"/><path class="cls-4" d="M217.05,129.22a18.69,18.69,0,0,0,7.3-5.22,22.83,22.83,0,0,0,2.55-3.71,23.93,23.93,0,0,0,1.84-4.13l0,0s0,0,0,0a14.58,14.58,0,0,1-1.45,4.35,16.93,16.93,0,0,1-2.69,3.74,18.92,18.92,0,0,1-7.59,5s0,0,0,0S217,129.23,217.05,129.22Z"/><path class="cls-4" d="M172.16,106.67a21.94,21.94,0,0,0-8.23-4.32,23.9,23.9,0,0,0-9.22-.65,29.2,29.2,0,0,0-8.81,2.68l-2.06,1.07-2,1.22L140,108l-1.8,1.52-.07-.07,1.57-1.78,1.77-1.6,1.93-1.41,2.07-1.21a24.6,24.6,0,0,1,9.18-2.59,24.09,24.09,0,0,1,9.44,1,21.88,21.88,0,0,1,8.16,4.71Z"/><path class="cls-4" d="M140,120.21c2.62,1.14,5.25,2.26,8,3.15a28.87,28.87,0,0,0,8.35,1.61,23.32,23.32,0,0,0,8.33-1.33,29.89,29.89,0,0,0,7.4-4.16s0,0,.05,0,0,0,0,0a24.23,24.23,0,0,1-7.26,4.59,21.3,21.3,0,0,1-8.52,1.25,29.1,29.1,0,0,1-8.4-1.78c-2.7-1-5.31-2.13-7.91-3.33,0,0,0,0,0,0Z"/><path class="cls-4" d="M192,102.61a16.58,16.58,0,0,1,8.26-3.94,25.46,25.46,0,0,1,9.25.12,26.55,26.55,0,0,1,8.77,3.09,17.42,17.42,0,0,1,3.71,2.86,7.2,7.2,0,0,1,2.17,4.09l-.09,0a7.94,7.94,0,0,0-2.57-3.6,19.53,19.53,0,0,0-3.72-2.5,32.62,32.62,0,0,0-8.43-3.18,25.53,25.53,0,0,0-9-.41,16.54,16.54,0,0,0-8.28,3.53Z"/><path class="cls-4" d="M225,118.85c-2.61,1.26-5.19,2.57-7.87,3.72a25.76,25.76,0,0,1-8.44,2.31,16.47,16.47,0,0,1-8.65-1.71,20.24,20.24,0,0,1-1.93-1.08,16.08,16.08,0,0,1-1.81-1.24,31.21,31.21,0,0,1-3.34-2.83l.06-.08c1.25.77,2.41,1.62,3.66,2.33.62.37,1.23.75,1.87,1.06a20,20,0,0,0,1.92.93,18.37,18.37,0,0,0,8.17,1.82,25.79,25.79,0,0,0,8.31-2c2.7-1,5.34-2.22,8-3.35Z"/><path class="cls-4" d="M197.25,128.19a27.85,27.85,0,0,1-5.13-5.16,15.75,15.75,0,0,1-2-3.08,2.84,2.84,0,0,1-.17-2.06,1.77,1.77,0,0,1,.68-.82,1.15,1.15,0,0,1,1-.15v.1a1.19,1.19,0,0,0-1,1.07,2.48,2.48,0,0,0,.39,1.43c.58,1,1.14,2.06,1.77,3a33.3,33.3,0,0,0,4.54,5.54Z"/><path class="cls-4" d="M166.19,128.76c.79-.93,1.69-1.76,2.55-2.6s1.74-1.69,2.54-2.56a7.73,7.73,0,0,0,1.74-2.88,2,2,0,0,0,0-1.45,1.41,1.41,0,0,0-1.16-1l0-.1a1.58,1.58,0,0,1,1.79.72A2.59,2.59,0,0,1,174,121a5.38,5.38,0,0,1-.83,1.78,10.89,10.89,0,0,1-1.31,1.39c-.89.84-1.84,1.61-2.79,2.36s-1.91,1.49-2.8,2.31Z"/><path class="cls-4" d="M170.15,105.76a19.38,19.38,0,0,1,2.24,7,11.77,11.77,0,0,1-.29,5.54,9.64,9.64,0,0,1-.7,1.73l-.1,0c0-.62.07-1.22.11-1.82l.09-1.79c0-1.18.15-2.36.1-3.56a21.63,21.63,0,0,0-1.54-7Z"/><path class="cls-4" d="M141.65,121.35a10.34,10.34,0,0,1-1.77-3.18,15.06,15.06,0,0,1-.78-3.58,13,13,0,0,1,.05-3.68,10.09,10.09,0,0,1,1.26-3.45l.09,0c-.13,1.22-.28,2.38-.36,3.55s-.25,2.32-.24,3.5a15.82,15.82,0,0,0,.45,3.49,10.5,10.5,0,0,0,1.38,3.26Z"/><path class="cls-4" d="M192.06,102.67a41.82,41.82,0,0,0-1,4.08,18.57,18.57,0,0,0-.33,4.13,13.32,13.32,0,0,0,.84,3.93,11.61,11.61,0,0,0,.84,1.83c.18.29.34.6.53.88s.41.57.6.87l-.06.08c-.3-.21-.59-.42-.87-.65a9.45,9.45,0,0,1-.78-.77,8.41,8.41,0,0,1-1.19-1.86,9.41,9.41,0,0,1-.71-4.31,17.76,17.76,0,0,1,.65-4.24,35.13,35.13,0,0,1,1.38-4Z"/><path class="cls-4" d="M222.15,120.18a6,6,0,0,0,1.55-2.72,13.07,13.07,0,0,0,.47-3.11c0-1-.12-2.09-.2-3.13-.05-.52-.08-1-.15-1.57s-.11-1.07-.14-1.63l.1,0a8.56,8.56,0,0,1,.73,1.49,11,11,0,0,1,.45,1.61,10.27,10.27,0,0,1,0,3.32,12,12,0,0,1-.8,3.22,6,6,0,0,1-1.95,2.63Z"/><path class="cls-4" d="M224,108.73a19.85,19.85,0,0,0-3.72-2.14,19.6,19.6,0,0,0-4-1.39,38.5,38.5,0,0,0-8.5-.86,55.15,55.15,0,0,0-8.51.75c-2.82.42-5.62,1-8.44,1.67l0-.1a40.66,40.66,0,0,1,8.3-2.55,36.71,36.71,0,0,1,8.69-.57,38,38,0,0,1,8.61,1.18,19.08,19.08,0,0,1,4,1.6,19.7,19.7,0,0,1,3.65,2.34Z"/><path class="cls-4" d="M138.93,110.83a3,3,0,0,1,1.51-1.37,17,17,0,0,1,1.92-.7c1.28-.43,2.59-.79,3.91-1.12a54.64,54.64,0,0,1,8-1.35,43.63,43.63,0,0,1,8.16-.13c1.36.12,2.71.31,4.05.56a35.89,35.89,0,0,1,4,1l0,.09c-1.36-.14-2.69-.29-4-.4s-2.67-.22-4-.27c-2.68-.11-5.36-.21-8-.06a56.7,56.7,0,0,0-8,1c-1.32.27-2.64.57-3.93.94a15.26,15.26,0,0,0-1.92.59,2.86,2.86,0,0,0-1.51,1.22Z"/></g><g id="eyebrows"><path class="cls-4" d="M140.62,96.41c6.12-2,12.88-3.11,18.1-7a17.59,17.59,0,0,0,3.52-4.92,7.59,7.59,0,0,1,1.18-1.77,11.12,11.12,0,0,1,6.39-3.48l.46.4a12.53,12.53,0,0,1-.79,4.95,8,8,0,0,1-2.64,3.74,31.76,31.76,0,0,1-17.22,7.55c-3,.45-5.93.69-8.86,1.09l-.14-.6Z"/><path class="cls-4" d="M229.75,100c-7.49-.91-14.48-4-21.25-7.15-3-1.43-7.38-3.2-9.87-5.45-2.84-2.55-6.24-5.61-6.77-9.64l.56-.21c2.92,1.81,6.58,3.11,9.61,4.9,4.71,2.7,8.69,6.53,13.43,9.21,4.62,2.9,9.29,5.83,14.41,7.76l-.12.58Z"/></g></g></svg>