<svg id="artwork" xmlns="http://www.w3.org/2000/svg" viewBox="0 0 340 665"><defs><style>.cls-1{fill:#bdb3ad;}.cls-2{fill:#b88d6e;}.cls-3,.cls-4{fill:#2d2d2d;}.cls-4{fill-rule:evenodd;}.cls-5{fill:none;stroke:#2d2d2d;stroke-miterlimit:10;}.cls-6{fill:#f2eae4;}</style></defs><g id="eyes_shocked3"><g id="white"><path class="cls-1" d="M150.68,108.73c-3.48.82-7.42,2.62-9.6,5.76-1.87,2.7-.61,6.78,2.35,8.57,4.65,2.83,7-.74,12.51-.06,3.87.48,6,1.91,7.95,1.48,3.4-.74,5.23-4.13,6.31-6.82.93-2.33.59-3.71-2-6.29-1.19-1.19-6.07-3.21-7.73-3.42A29.15,29.15,0,0,0,150.68,108.73Z"/><path class="cls-1" d="M211,108.39c3.48.83,7.67,5.33,9.84,8.47,1.87,2.7-.36,5.41-2.65,8-2.7,3.06-7-.94-12.23-.41-1.93.19-5.12,1.47-9.18,1.41-1.71-.78-3.51-3.8-4.59-6.24a7.14,7.14,0,0,1,1.71-8.57c1.18-1.19,4.53-3.47,6.19-3.69A37.29,37.29,0,0,1,211,108.39Z"/></g><g id="iris"><path class="cls-2" d="M153.48,121.64a9.22,9.22,0,0,0,2.73.12,8.7,8.7,0,0,0,4.88-1.93c1.8-1.63,1.8-3.3,1.1-5.63a6.22,6.22,0,0,0-2.46-3c-2.28-1.81-5.83-1.41-8.16.08a5.47,5.47,0,0,0-2.45,6.11,4.33,4.33,0,0,0,.92,2.13,4.2,4.2,0,0,0,2.08,1.74C152.28,121.32,153.31,121.59,153.48,121.64Z"/><path class="cls-2" d="M204.26,123.2a9.65,9.65,0,0,0,2.74.11,8.59,8.59,0,0,0,4.87-1.93c1.81-1.63,1.81-3.3,1.11-5.62a6.18,6.18,0,0,0-2.46-3c-2.28-1.82-5.83-1.42-8.16.07a5.48,5.48,0,0,0-2.45,6.12,4.34,4.34,0,0,0,.92,2.12,4.15,4.15,0,0,0,2.08,1.74C203.07,122.87,204.1,123.15,204.26,123.2Z"/></g><g id="iris_outline"><path class="cls-3" d="M150,116.53a41.42,41.42,0,0,1,5.63,1.08,1.83,1.83,0,0,1,.33.11c0,.06,0,0-.05,0v0c.08,0-.07,0-.1,0l-.19,0a42.68,42.68,0,0,1-5.62-1.14Z"/><path class="cls-3" d="M150.86,112.09c1.16.87,2.94,1.89,4,2.87a18.17,18.17,0,0,1-4-2.87Z"/><path class="cls-3" d="M160.64,112.72a27.58,27.58,0,0,1-4,3l0,0h.08v0l-.15.07c1.12-1.33,2.89-2,4.14-3Z"/><path class="cls-3" d="M157.73,110.81c-.87,1.31-.52,3.34-1.93,4.29.95-1.22,1-3.1,1.93-4.29Z"/><path class="cls-3" d="M162.48,117.21a28.86,28.86,0,0,1-5-1.23c-.2-.07-.56-.13-.67-.32,1.91.34,3.8,1.17,5.66,1.55Z"/><path class="cls-3" d="M153.2,121c.31-.72,1-1.28,1.13-2.06a4.76,4.76,0,0,1,1-2.16s0,0,0,0h0v0h0s0,0,0,0c-.34.7-.56,1.49-.85,2.21a8,8,0,0,1-1.33,2Z"/><path class="cls-3" d="M158.91,120.6c-1-1.54-2.36-2.85-3.16-4.53a26.82,26.82,0,0,1,3.16,4.53Z"/><path class="cls-3" d="M155.36,121.71c13.07-.24,5.51-16.3-3.51-9.92-2.29,2-3.22,6-.95,8.28a6.72,6.72,0,0,0,4.46,1.64v.1c-8.35,1.15-8.89-9.87-1.73-12,4.36-1.43,9.34,2.07,9.25,6.66,0,3.86-4.23,5.49-7.52,5.32v-.1Z"/><path class="cls-3" d="M206,123.39c13.07-.24,5.51-16.29-3.51-9.92-2.29,2-3.22,6-1,8.28a6.66,6.66,0,0,0,4.45,1.64v.1c-8.35,1.16-8.9-9.87-1.73-12,4.36-1.43,9.34,2.08,9.25,6.66,0,3.87-4.23,5.5-7.52,5.32v-.1Z"/><path class="cls-3" d="M211.53,116.06a51.39,51.39,0,0,1-5.63,1.11l-.19,0s-.18.05-.1,0v0s0,0-.05,0a1.83,1.83,0,0,1,.33-.11,33.5,33.5,0,0,1,5.64-1Z"/><path class="cls-3" d="M211,113.2c-1.39,1.26-3.27,3.27-4.88,4.15a23.18,23.18,0,0,1,2.41-2.11s2.47-2.13,2.47-2Z"/><path class="cls-3" d="M201.3,114.09c1.24,1.16,3,1.69,4.11,3l-.14-.07v0h.07a13.27,13.27,0,0,1-2.1-1.38c-.6-.53-1.51-.92-1.94-1.59Z"/><path class="cls-3" d="M204.21,112.19c.91,1.29,1,3,1.91,4.3-1.38-.95-1.13-3-1.91-4.3Z"/><path class="cls-3" d="M199.43,118.58c1.94-.33,3.74-1.21,5.67-1.53-.11.19-.48.25-.68.32a25.37,25.37,0,0,1-5,1.21Z"/><path class="cls-3" d="M209.43,122c-.63-.36-.66-1.22-.87-1.84s-.42-1.33-.73-1.92c0,0,0,0,0,0h0s0,0,0,0,0,0,0,0c.27.14.42.59.55.87.47.92.29,2.17,1,2.89Z"/><path class="cls-3" d="M202.76,122.68a27.15,27.15,0,0,1,3-4.16,28,28,0,0,1-3,4.16Z"/></g><g id="pupil"><path class="cls-4" d="M154.15,118l-1.51-.51a4,4,0,0,1,2.48-4c1.49-.46,2.82.6,2.94,2.34a4,4,0,0,1-2.48,4,2.2,2.2,0,0,1-1.32,0Z"/><path class="cls-4" d="M205.38,119.43l.7,1.44a4,4,0,0,0,3.66-3c.26-1.54-1-2.72-2.7-2.62a4,4,0,0,0-3.66,3,2.32,2.32,0,0,0,.16,1.31Z"/><path class="cls-4" d="M154.15,118l-1.51-.51a4,4,0,0,1,2.48-4c1.49-.46,2.82.6,2.94,2.34a4,4,0,0,1-2.48,4,2.2,2.2,0,0,1-1.32,0Z"/><path class="cls-4" d="M205.38,119.43l.7,1.44a4,4,0,0,0,3.66-3c.26-1.54-1-2.72-2.7-2.62a4,4,0,0,0-3.66,3,2.32,2.32,0,0,0,.16,1.31Z"/><path class="cls-5" d="M154.15,118l-1.51-.51a4,4,0,0,1,2.48-4c1.49-.46,2.82.6,2.94,2.34a4,4,0,0,1-2.48,4,2.2,2.2,0,0,1-1.32,0Z"/><path class="cls-5" d="M205.38,119.43l.7,1.44a4,4,0,0,0,3.66-3c.26-1.54-1-2.72-2.7-2.62a4,4,0,0,0-3.66,3,2.32,2.32,0,0,0,.16,1.31Z"/></g><g id="spec"><path class="cls-6" d="M159.51,111.32c-1.51,1.29,1,3.16,2.68,3a1.92,1.92,0,0,0,1.86-1.58c.09-1.8-3.16-2.53-4.49-1.46Z"/><path class="cls-6" d="M209.28,114.77c-1.24-1.56,1.55-2.92,3.21-2.44a1.93,1.93,0,0,1,1.52,1.92c-.25,1.77-3.58,1.87-4.68.57C209.31,114.8,209.3,114.78,209.28,114.77Z"/></g><g id="outline"><path class="cls-3" d="M137.18,121.5c1.2-3.68,2.93-7.36,6-9.9A19.94,19.94,0,0,1,154,106.72c5.76-.19,12.63.55,16.35,5.49a9.77,9.77,0,0,1,1.64,5.6h-.25a9.31,9.31,0,0,0-2.07-5.09c-4.49-5.07-14.81-4.84-20.75-2.73-5.65,2.07-9.19,6.09-11.46,11.59l-.23-.09Z"/><path class="cls-3" d="M143.4,125.82c3.57-1.48,7.31-2.82,11.23-2.85a20.12,20.12,0,0,1,5.77.82,46.5,46.5,0,0,1,5.46,2s0,0,0,0h0c-1.83-.64-3.66-1.3-5.52-1.81a22,22,0,0,0-5.7-.86c-3.88,0-7.63,1.24-11.22,2.67h0A0,0,0,0,1,143.4,125.82Z"/><path class="cls-3" d="M139.74,116a2.24,2.24,0,0,0-.1,1.59,6.37,6.37,0,0,0,.61,1.51,11.56,11.56,0,0,0,1.95,2.6,11.12,11.12,0,0,0,2.56,2,3.72,3.72,0,0,0,3.09.48h0a0,0,0,0,1,0,0,3.49,3.49,0,0,1-3.21-.28,9.42,9.42,0,0,1-2.59-2.06,12.06,12.06,0,0,1-1.91-2.69,6.58,6.58,0,0,1-.58-1.55,2.24,2.24,0,0,1,.15-1.61h0S139.75,116,139.74,116Z"/><path class="cls-3" d="M170.78,114.84a9.5,9.5,0,0,1-.74,3.6,15.62,15.62,0,0,1-1.74,3.28,8.14,8.14,0,0,1-2.71,2.54,3.76,3.76,0,0,1-3.62.06s0,0,0,0h0a3.87,3.87,0,0,0,3.49-.26,8.75,8.75,0,0,0,2.67-2.44,15.69,15.69,0,0,0,1.79-3.2,9.17,9.17,0,0,0,.82-3.56,0,0,0,0,1,0,0A0,0,0,0,1,170.78,114.84Z"/><path class="cls-3" d="M172.42,102.35a15.3,15.3,0,0,1-1.1,2.36,7.8,7.8,0,0,1-.72,1.08,5.78,5.78,0,0,1-.92.93h0v0c.23-.36.49-.7.73-1.06s.51-.68.75-1a13.77,13.77,0,0,0,1.24-2.26h0Z"/><path class="cls-3" d="M160.14,98.66l-.39,2.45c-.07.41-.12.82-.22,1.22s-.2.81-.34,1.2h0a0,0,0,0,1,0,0,10.05,10.05,0,0,1,.13-1.23c.06-.41.17-.81.26-1.22l.56-2.41h0Z"/><path class="cls-3" d="M150.12,99.08a15.28,15.28,0,0,1,1.18,2.27,8.26,8.26,0,0,1,.46,1.2,6,6,0,0,1,.24,1.26h0l-.44-1.2-.41-1.2a17.14,17.14,0,0,0-1-2.33h0Z"/><path class="cls-3" d="M143.1,103.71l1,2c.16.33.33.66.46,1a7.7,7.7,0,0,1,.34,1.06h0a7.78,7.78,0,0,1-.55-1c-.16-.33-.28-.68-.42-1l-.8-2.06h0Z"/><path class="cls-3" d="M136.4,109.54a15.72,15.72,0,0,0,1.43,1.4c.26.21.54.38.81.58s.54.4.79.64h0a0,0,0,0,1,0,0,5.92,5.92,0,0,1-.91-.45,5.48,5.48,0,0,1-.8-.64,17.22,17.22,0,0,1-1.32-1.53v0Z"/><path class="cls-3" d="M141,124.6a4,4,0,0,0,1.12,3,3.08,3.08,0,0,0,1.31.84,2.39,2.39,0,0,0,1.56-.06h0a2.05,2.05,0,0,1-1.64.28,2.78,2.78,0,0,1-1.4-.94,4.19,4.19,0,0,1-1-3.09h0Z"/><path class="cls-3" d="M169.56,99.48a8.86,8.86,0,0,0,2.1-3.42,10.27,10.27,0,0,0,.44-2,12.2,12.2,0,0,0,.13-2s0,0,0,0a0,0,0,0,1,0,0,6.65,6.65,0,0,1,.1,2,8,8,0,0,1-.5,2,8.9,8.9,0,0,1-2.27,3.36s0,0,0,0Z"/><path class="cls-3" d="M223.55,123c-3-7-8.38-14.23-16.44-14.86-5.57-.41-11.78,1.39-15.3,6a11.07,11.07,0,0,0-2.15,5.36l-.25,0a11.1,11.1,0,0,1,1.57-5.9c4.46-7.28,15-9.72,22.34-5.33,5.39,3.16,8.51,9,10.46,14.69l-.23.09Z"/><path class="cls-3" d="M217,126.88a35.67,35.67,0,0,0-5.4-1.72,20.52,20.52,0,0,0-5.63-.51,26.45,26.45,0,0,0-5.56,1c-1.83.48-3.62,1.08-5.45,1.59t0,0l0,0c1.78-.65,3.57-1.28,5.4-1.81a23.17,23.17,0,0,1,5.62-.93,20.66,20.66,0,0,1,5.65.6,35.19,35.19,0,0,1,5.39,1.81s0,0,0,0S217,126.89,217,126.88Z"/><path class="cls-3" d="M221.42,118.1a3.42,3.42,0,0,1-.14,2.83,10.59,10.59,0,0,1-1.52,2.49,9,9,0,0,1-2.14,2,3.5,3.5,0,0,1-2.8.64s0,0,0,0a0,0,0,0,1,0,0,3.77,3.77,0,0,0,2.65-.83,11,11,0,0,0,2.13-1.91,10.2,10.2,0,0,0,1.56-2.4,3.3,3.3,0,0,0,.22-2.77,0,0,0,0,1,0,0Z"/><path class="cls-3" d="M192.62,112.77a2.78,2.78,0,0,0-1,1.85,7.17,7.17,0,0,0,0,2.17,14.4,14.4,0,0,0,1.22,4.17,13.34,13.34,0,0,0,2.39,3.61,4.94,4.94,0,0,0,1.75,1.22,2.78,2.78,0,0,0,2.1,0h0s0,0,0,0a2.77,2.77,0,0,1-2.17.14,4.94,4.94,0,0,1-1.86-1.22,11.85,11.85,0,0,1-2.4-3.7,14.49,14.49,0,0,1-1.15-4.24,7.38,7.38,0,0,1,.06-2.2,2.83,2.83,0,0,1,1.1-1.85h0S192.63,112.76,192.62,112.77Z"/><path class="cls-3" d="M190.21,101a14.51,14.51,0,0,0,1.25,2.25c.24.36.5.7.75,1s.49.69.73,1.06h0a7.26,7.26,0,0,1-.91-.93,8.55,8.55,0,0,1-.72-1.09,13.94,13.94,0,0,1-1.1-2.35,0,0,0,0,1,0,0A0,0,0,0,1,190.21,101Z"/><path class="cls-3" d="M199.24,99l.56,2.42c.09.4.2.8.26,1.21a10.22,10.22,0,0,1,.13,1.24,0,0,0,0,1,0,0,0,0,0,0,1,0,0,10.11,10.11,0,0,1-.35-1.19c-.1-.4-.15-.81-.21-1.22L199.22,99h0Z"/><path class="cls-3" d="M210.14,99.17a11.12,11.12,0,0,0-.82,1.83l-.31,1c-.11.31-.21.63-.35.94a0,0,0,0,1,0,0h0a4.82,4.82,0,0,1,.14-1,6.52,6.52,0,0,1,.36-1,12.68,12.68,0,0,1,1-1.77h0Z"/><path class="cls-3" d="M218,103.22l-.8,2.06c-.14.34-.26.69-.42,1a7.78,7.78,0,0,1-.55,1h0a7.7,7.7,0,0,1,.34-1.06c.13-.34.31-.67.47-1l1-2h0Z"/><path class="cls-3" d="M225.54,110.94a16,16,0,0,1-1.32,1.54,5.48,5.48,0,0,1-.8.64,6,6,0,0,1-.92.45h0a9.6,9.6,0,0,1,.79-.64c.26-.2.55-.37.8-.58a14.63,14.63,0,0,0,1.44-1.4h0Z"/><path class="cls-3" d="M220.91,126a4.23,4.23,0,0,1-1,3.09,2.82,2.82,0,0,1-1.4.94,2.09,2.09,0,0,1-1.64-.28h0a2.39,2.39,0,0,0,1.56.06,3,3,0,0,0,1.32-.84,4.08,4.08,0,0,0,1.12-3h0Z"/><path class="cls-3" d="M191.16,96.13a2.61,2.61,0,0,1-1.31-1.08,4.79,4.79,0,0,1-.59-1.62,6,6,0,0,1-.07-1.74,6.8,6.8,0,0,1,.45-1.66s0,0,0,0a0,0,0,0,1,0,0c-.09.56-.19,1.12-.23,1.68a8.46,8.46,0,0,0,0,1.67A4.45,4.45,0,0,0,190,95a2.45,2.45,0,0,0,1.22,1.11s0,0,0,0Z"/><path class="cls-3" d="M171.81,117.81a9.53,9.53,0,0,0-1.88-5.32,10.63,10.63,0,0,0-4.61-3.28,21.55,21.55,0,0,0-5.55-1.29,29.55,29.55,0,0,0-5.72-.07,20.4,20.4,0,0,0-10.43,4.31,16.19,16.19,0,0,0-3.81,4.23,31.58,31.58,0,0,0-2.52,5.16h0a33.12,33.12,0,0,1,2.47-5.17,16.23,16.23,0,0,1,3.78-4.31,20,20,0,0,1,10.5-4.37,29.08,29.08,0,0,1,5.75.07,21.05,21.05,0,0,1,5.58,1.34,10.58,10.58,0,0,1,4.6,3.36,9.64,9.64,0,0,1,1.84,5.35Z"/><path class="cls-3" d="M137.18,121.5c.28.22.31-.15.42-.35l.29-.66c.21-.43.4-.87.64-1.29a22.26,22.26,0,0,1,1.5-2.47,18.23,18.23,0,0,1,9.08-6.85,26.1,26.1,0,0,1,5.65-1.2,22.51,22.51,0,0,1,11.37,1.46,9.6,9.6,0,0,1,4.38,3.71,9.47,9.47,0,0,1,1.05,2.7c.05.24.1.48.14.72l.05.36c0,.16,0,.09.09.1s0,0,0,0v-.54l-.06-.71a8.69,8.69,0,0,0-2.33-5.12,12.85,12.85,0,0,0-4.77-3.11,21.47,21.47,0,0,0-5.6-1.27,31.55,31.55,0,0,0-5.75-.1,20.44,20.44,0,0,0-10.27,4.89c-3,2.5-4.69,6.13-5.88,9.76h0c1.18-3.63,2.88-7.27,5.84-9.81a20.57,20.57,0,0,1,10.3-5,31,31,0,0,1,5.78.07,21.06,21.06,0,0,1,5.64,1.27,13,13,0,0,1,4.83,3.15,8.82,8.82,0,0,1,2.36,5.21c0,.24,0,.48.07.72v.7c0,.06-.09,0-.13,0h-.12c-.05,0-.11,0-.15,0l0-.24-.05-.36c0-.24-.08-.47-.14-.7a8.61,8.61,0,0,0-5.34-6.3,22.59,22.59,0,0,0-11.28-1.49,26.54,26.54,0,0,0-5.64,1.16,18.87,18.87,0,0,0-5.09,2.66,18.44,18.44,0,0,0-4,4.13,21.33,21.33,0,0,0-1.51,2.46c-.24.42-.43.85-.65,1.29l-.29.66C137.49,121.35,137.45,121.73,137.18,121.5Z"/><path class="cls-3" d="M143.38,125.84a50.47,50.47,0,0,1,5.48-2,20.88,20.88,0,0,1,5.77-.86,19.71,19.71,0,0,1,5.76.87c1.87.55,3.68,1.26,5.49,2h0a54.23,54.23,0,0,0-5.52-1.86,21.86,21.86,0,0,0-5.73-.83,22.8,22.8,0,0,0-5.74.82,45.23,45.23,0,0,0-5.51,1.87Z"/><path class="cls-3" d="M143.41,125.82c3.47-1.33,7.3-2.73,11.21-2.71a21.72,21.72,0,0,1,5.77.86l2.77.91,1.39.45.69.23.35.11.17.06.09,0s0,0,0,0,0,0,0,0a.14.14,0,0,0,0,0c-3.54-1.52-7.27-2.91-11.18-2.85s-7.66,1.29-11.23,2.78h0c3.58-1.47,7.31-2.84,11.24-2.9a19.87,19.87,0,0,1,5.78.8,46.71,46.71,0,0,1,5.47,2s0,0,.05,0,0,.08,0,.11l0,0c-.09,0-.09,0-.1,0l-.09,0-.17-.06-.35-.11-.69-.23-1.39-.45-2.77-.91a22.15,22.15,0,0,0-5.72-.89c-3.88-.07-7.74,1.26-11.22,2.58Z"/><path class="cls-3" d="M139.74,116a2.21,2.21,0,0,0-.11,1.6,6,6,0,0,0,.62,1.51,13,13,0,0,0,1.94,2.63,11.35,11.35,0,0,0,2.55,2,4.93,4.93,0,0,0,1.52.58,2.7,2.7,0,0,0,1.61-.16h0a2.81,2.81,0,0,1-1.62.22,5.2,5.2,0,0,1-1.57-.53,9.68,9.68,0,0,1-2.61-2,11.07,11.07,0,0,1-1.93-2.68,6.33,6.33,0,0,1-.56-1.56,2.24,2.24,0,0,1,.16-1.61Z"/><path class="cls-3" d="M139.74,116a1.32,1.32,0,0,0-.23.73,2.84,2.84,0,0,0,.06.82,6,6,0,0,0,.57,1.53,11.75,11.75,0,0,0,1.91,2.66,10.13,10.13,0,0,0,2.54,2,3.58,3.58,0,0,0,3.09.39l.09,0,0,0c.06.12,0,0,0,.13l-.2.06a2.71,2.71,0,0,1-.41.09,3.46,3.46,0,0,1-.85,0,5.17,5.17,0,0,1-1.57-.56,11.14,11.14,0,0,1-2.62-2,12.09,12.09,0,0,1-2-2.65,6.59,6.59,0,0,1-.61-1.54,2.24,2.24,0,0,1,.11-1.61h0a2.19,2.19,0,0,0-.09,1.61,6,6,0,0,0,.63,1.51,11.76,11.76,0,0,0,2,2.59,11.37,11.37,0,0,0,2.61,2,5.21,5.21,0,0,0,1.52.54,3.05,3.05,0,0,0,.8,0l.39-.08.19-.07s.07,0,.12,0,0,.12,0,.13l0,0-.09,0a3.76,3.76,0,0,1-3.23-.39,10,10,0,0,1-2.56-2.1,12.07,12.07,0,0,1-1.87-2.72,6.28,6.28,0,0,1-.54-1.56,2.83,2.83,0,0,1-.05-.82,1.25,1.25,0,0,1,.25-.73Z"/><path class="cls-3" d="M170.77,114.82a9.82,9.82,0,0,1-.72,3.62,13.91,13.91,0,0,1-1.77,3.26,7.92,7.92,0,0,1-2.73,2.51,8.31,8.31,0,0,1-.87.35c-.3.08-.62.09-.92.14s-.62,0-.93-.08l-.87-.31h0l.88.29c.3,0,.61,0,.92.06a9,9,0,0,0,.9-.18,6.9,6.9,0,0,0,3.49-2.86,16.58,16.58,0,0,0,1.78-3.22,9,9,0,0,0,.83-3.57Z"/><path class="cls-3" d="M170.78,114.84a10.43,10.43,0,0,1-.24,1.76,11.92,11.92,0,0,1-.57,1.75,15.25,15.25,0,0,1-1.74,3.23,8.92,8.92,0,0,1-2.68,2.51,4,4,0,0,1-3.6.28l0,0s0,0,0,0l0,0v-.05h0l.1.06a3.73,3.73,0,0,0,3.48-.14,8.22,8.22,0,0,0,2.66-2.49,15.2,15.2,0,0,0,1.77-3.24,9.33,9.33,0,0,0,.76-3.6h0a9.58,9.58,0,0,1-.73,3.61,14.73,14.73,0,0,1-1.7,3.3,8.1,8.1,0,0,1-2.68,2.56,3.88,3.88,0,0,1-3.64.14l-.1-.06h0s-.08,0-.05-.13a.13.13,0,0,1,.11,0h0a3.85,3.85,0,0,0,3.46-.28,9,9,0,0,0,2.66-2.44,16,16,0,0,0,1.81-3.17,13.71,13.71,0,0,0,.59-1.74,10.49,10.49,0,0,0,.25-1.76Z"/><path class="cls-3" d="M172.41,102.34a10.75,10.75,0,0,1-1.11,2.35,7.33,7.33,0,0,1-.75,1.07c-.28.33-.58.65-.88,1h0a11.28,11.28,0,0,0,.78-1l.72-1.07a22.55,22.55,0,0,0,1.24-2.27Z"/><path class="cls-3" d="M172.42,102.35h0a14.64,14.64,0,0,1-1.19,2.29c-.49.71-1,1.42-1.47,2.12l0,0a.08.08,0,0,0-.07-.07,9.36,9.36,0,0,0,.85-.9l.73-1.06a13.68,13.68,0,0,0,1.16-2.33h0a15.89,15.89,0,0,1-1,2.39l-.71,1.11a4.94,4.94,0,0,1-1,1,.09.09,0,0,1-.09-.1v0c.47-.72,1-1.41,1.5-2.1a12.6,12.6,0,0,0,1.29-2.22h0Z"/><path class="cls-3" d="M160.13,98.66c-.14.81-.22,1.64-.4,2.45-.08.41-.15.81-.26,1.22l-.3,1.2h0l.18-1.23c.06-.41.14-.82.22-1.22.13-.82.37-1.62.56-2.42Z"/><path class="cls-3" d="M160.14,98.67h0l-.5,2.43-.24,1.21,0,.41a2.44,2.44,0,0,0,.1-.39l.23-1.2.46-2.46h0l-.33,2.48c-.07.41-.13.82-.21,1.24s-.28.88-.46,1.23l.06-1.33.29-1.22.62-2.4h0Z"/><path class="cls-3" d="M150.11,99.08a11.42,11.42,0,0,1,1.17,2.28,8.27,8.27,0,0,1,.43,1.21c.11.41.2.83.28,1.25h0a10.08,10.08,0,0,0-.4-1.21l-.45-1.19c-.35-.78-.62-1.59-1-2.34Z"/><path class="cls-3" d="M150.12,99.08h0a19.41,19.41,0,0,1,1.08,2.31l.87,2.39,0,0s-.06,0-.08,0v.06h0a6.75,6.75,0,0,0-.23-1.24l-.44-1.19a14.42,14.42,0,0,0-1.13-2.3h0a17,17,0,0,1,1.24,2.25l.48,1.2a5.46,5.46,0,0,1,.24,1.28h0v0l0,0a.09.09,0,0,1-.12,0h0v0a22.74,22.74,0,0,1-.84-2.4,14.93,14.93,0,0,0-1-2.34h0s0,0,0,0Z"/><path class="cls-3" d="M143.09,103.71c.32.67.69,1.31,1,2,.15.33.3.67.43,1s.24.7.38,1h0c-.16-.34-.33-.66-.5-1s-.31-.67-.46-1c-.32-.66-.54-1.37-.81-2.06Z"/><path class="cls-3" d="M143.1,103.72s0,0,0,0h0l.86,2,.44,1,.19.32c0-.16-.1-.29-.11-.35l-.44-1-.92-2h0l1,2c.16.33.33.66.48,1s.23.8.27,1.14l-.65-1-.4-1-.75-2.09h0s0,0,0,0Z"/><path class="cls-3" d="M136.38,109.54c.47.49,1,1,1.44,1.41.25.22.52.42.79.62s.53.41.82.6h0l-.88-.49a4.48,4.48,0,0,1-.82-.61,9.3,9.3,0,0,1-1.34-1.53Z"/><path class="cls-3" d="M136.4,109.54a0,0,0,0,0,0,0h0l1.36,1.49.79.61.34.15c-.08-.08-.23-.17-.27-.21l-.78-.59-1.42-1.46h0c.49.46,1,.92,1.5,1.37.28.19.56.37.83.58l.41.38.2.19.1.09s.09.1,0,.06c-.34-.14-.68-.27-1-.42l-.78-.66-1.28-1.57h0s0,0,0,0Z"/><path class="cls-3" d="M141,124.59a3.5,3.5,0,0,0,.28,1.6,4.86,4.86,0,0,0,.84,1.38,3.17,3.17,0,0,0,1.31.88,2.18,2.18,0,0,0,.8.1,2.8,2.8,0,0,0,.79-.21h0a2.76,2.76,0,0,1-.78.26,2.38,2.38,0,0,1-.84,0,2.73,2.73,0,0,1-1.4-.9,3.8,3.8,0,0,1-.84-1.44,4,4,0,0,1-.17-1.64Z"/><path class="cls-3" d="M141,124.6a3.93,3.93,0,0,0,1,3,2.91,2.91,0,0,0,1.3.92,2,2,0,0,0,1.54-.15l.14-.08,0,0s-.07.08.05,0h0l0,.07a2.48,2.48,0,0,1-1.57.07,3.06,3.06,0,0,1-1.33-.84,4.1,4.1,0,0,1-1.12-3h0a4,4,0,0,0,1.21,3,2.59,2.59,0,0,0,2.76.69h0a.1.1,0,0,1,.09.15v0h0l-.16.09a2.13,2.13,0,0,1-1.66.17,2.85,2.85,0,0,1-1.34-1,4,4,0,0,1-.89-3.08Z"/><path class="cls-3" d="M169.56,99.49a7.63,7.63,0,0,0,1.24-1.6,10.88,10.88,0,0,0,.88-1.82,11.24,11.24,0,0,0,.49-2,8.61,8.61,0,0,0,.07-2h0a9.27,9.27,0,0,1,0,2A8.57,8.57,0,0,1,170.91,98a9,9,0,0,1-1.35,1.54Z"/><path class="cls-3" d="M169.56,99.48a8.31,8.31,0,0,0,2.22-3.34,7.26,7.26,0,0,0,.41-4l0-.07h.13v.13l0,.26,0,.51-.06,1a10,10,0,0,1-.46,2,9.07,9.07,0,0,1-2.17,3.44h0A8.65,8.65,0,0,0,171.62,96a13.25,13.25,0,0,0,.41-2l.06-1,0-.51,0-.25v-.13s0,0,0-.09.18.09.15.06v.06a6.86,6.86,0,0,1-.45,4,8.44,8.44,0,0,1-2.33,3.28Z"/><path class="cls-3" d="M189.53,119.44a11.28,11.28,0,0,1,1.84-5.65,14.07,14.07,0,0,1,4.33-4.12,18.12,18.12,0,0,1,11.54-2.6,15.75,15.75,0,0,1,5.71,1.8,18.07,18.07,0,0,1,4.69,3.74,33.8,33.8,0,0,1,6,10.32h0a32.94,32.94,0,0,0-6.11-10.24,18.26,18.26,0,0,0-4.67-3.68,15.74,15.74,0,0,0-5.66-1.79,18.3,18.3,0,0,0-11.46,2.55,13.85,13.85,0,0,0-4.34,4,11.07,11.07,0,0,0-1.89,5.62Z"/><path class="cls-3" d="M223.55,123c.38,0,.1-.35.06-.57l-.26-.71c-.18-.47-.36-.94-.56-1.4-.37-.93-.81-1.84-1.26-2.74a27,27,0,0,0-3.28-5,16.92,16.92,0,0,0-10.06-6.14,17.54,17.54,0,0,0-11.62,2,15.22,15.22,0,0,0-4.56,3.85,12.86,12.86,0,0,0-1.57,2.55,11,11,0,0,0-.83,2.87,12.3,12.3,0,0,0-.12,1.49c0,.12,0,.29,0,.26s.09.07.1-.09.07-.5.12-.75a11.45,11.45,0,0,1,1-2.86,12.63,12.63,0,0,1,4-4.48A19,19,0,0,1,206.24,108a14.78,14.78,0,0,1,5.85,1.4,18.05,18.05,0,0,1,4.9,3.5A32.5,32.5,0,0,1,223.55,123h0a32.32,32.32,0,0,0-6.6-10,18.07,18.07,0,0,0-4.9-3.46,14.76,14.76,0,0,0-5.81-1.36,19.09,19.09,0,0,0-11.39,3.17,12.56,12.56,0,0,0-4,4.42,10.9,10.9,0,0,0-1,2.82c0,.24-.09.49-.12.74l0,.1s0,.15-.05.14l-.29,0s-.07,0-.07,0v-.4a12.8,12.8,0,0,1,.12-1.52,11.41,11.41,0,0,1,.84-2.91,13.22,13.22,0,0,1,1.6-2.58,15.54,15.54,0,0,1,4.6-3.9,17.65,17.65,0,0,1,11.72-2,17.1,17.1,0,0,1,10.08,6.24,28.13,28.13,0,0,1,3.27,5.07c.44.9.87,1.81,1.24,2.74.2.47.37.94.56,1.41l.25.71c0,.22.32.54-.06.57Z"/><path class="cls-3" d="M217,126.88a35.52,35.52,0,0,0-5.42-1.71,21.39,21.39,0,0,0-5.64-.54,26.54,26.54,0,0,0-5.59.93c-1.83.49-3.64,1.08-5.45,1.65h0c1.8-.59,3.59-1.24,5.42-1.77a23.22,23.22,0,0,1,5.62-1,19.71,19.71,0,0,1,5.67.58,38.13,38.13,0,0,1,5.4,1.83Z"/><path class="cls-3" d="M217,126.88a25.22,25.22,0,0,0-11-2.37,23.59,23.59,0,0,0-5.59.93l-2,.67.76-.23.86-.25.44-.13,1.06-.26a23.36,23.36,0,0,1,4.32-.65A26.5,26.5,0,0,1,217,126.88h0a34.55,34.55,0,0,0-5.43-1.71,21.07,21.07,0,0,0-5.65-.46,25.89,25.89,0,0,0-4.29.68l-1,.27-1.75.51-3.53,1h-.18l-.13,0h-.08s-.11,0,0,0l5.47-1.92a23,23,0,0,1,5.64-.9,26.15,26.15,0,0,1,11,2.5Z"/><path class="cls-3" d="M221.4,118.09a3.42,3.42,0,0,1-.12,2.83,9.38,9.38,0,0,1-1.53,2.49,9.17,9.17,0,0,1-2.17,2,4.13,4.13,0,0,1-.65.36,3.09,3.09,0,0,1-.68.26,2.71,2.71,0,0,1-1.44.06h0a2.54,2.54,0,0,0,1.42-.1,5.33,5.33,0,0,0,1.28-.67,11.19,11.19,0,0,0,2.12-2,11.46,11.46,0,0,0,1.54-2.43,3.3,3.3,0,0,0,.23-2.79Z"/><path class="cls-3" d="M221.41,118.1s0,0,0,0h0a3.29,3.29,0,0,1-.19,2.77,10.26,10.26,0,0,1-1.53,2.43,10.9,10.9,0,0,1-2.13,1.94,3.87,3.87,0,0,1-2.72.84v0s0,0,0,0l0-.06.09,0a3.56,3.56,0,0,0,2.68-.69,9.29,9.29,0,0,0,2.11-2,10.18,10.18,0,0,0,1.53-2.45,3.34,3.34,0,0,0,.15-2.81h0a3.45,3.45,0,0,1-.11,2.83,10.76,10.76,0,0,1-1.48,2.51,9,9,0,0,1-2.12,2,3.68,3.68,0,0,1-2.81.7l-.1,0h0a.1.1,0,0,1-.07-.12s.07-.07.1-.06h0a3.72,3.72,0,0,0,2.61-.83,11.53,11.53,0,0,0,2.13-1.88,10.38,10.38,0,0,0,1.57-2.37,3.25,3.25,0,0,0,.24-2.75h0s0,0,0,0Z"/><path class="cls-3" d="M192.63,112.74a2.78,2.78,0,0,0-1,1.86,7.24,7.24,0,0,0,0,2.18,15.81,15.81,0,0,0,1.2,4.19,13.21,13.21,0,0,0,2.38,3.65,5,5,0,0,0,1.77,1.24,2.76,2.76,0,0,0,2.13-.06h0a2.86,2.86,0,0,1-2.15.11,5.06,5.06,0,0,1-1.85-1.2,12,12,0,0,1-2.43-3.67,14,14,0,0,1-1.18-4.25,7.44,7.44,0,0,1,.08-2.21,2.89,2.89,0,0,1,1.11-1.84Z"/><path class="cls-3" d="M192.62,112.77c0-.07-.06,0-.08,0l-.1.09a1.8,1.8,0,0,0-.2.19,3.28,3.28,0,0,0-.32.44,3.2,3.2,0,0,0-.38,1,7,7,0,0,0-.07,2.19,14.71,14.71,0,0,0,1.15,4.21A12.33,12.33,0,0,0,195,124.6a5.23,5.23,0,0,0,1.77,1.23,2.75,2.75,0,0,0,2.09,0l.16-.08.06,0,0,0s0,0,0,0a0,0,0,0,0,0,0l0,0a2.9,2.9,0,0,1-2.15,0,5,5,0,0,1-1.77-1.23,12.75,12.75,0,0,1-2.37-3.58,14.49,14.49,0,0,1-1.22-4.22,7.37,7.37,0,0,1,0-2.2,2.85,2.85,0,0,1,1.06-1.87h0a2.74,2.74,0,0,0-1,1.87,7.65,7.65,0,0,0,0,2.19,14.89,14.89,0,0,0,1.28,4.18,13.18,13.18,0,0,0,2.38,3.51,4.74,4.74,0,0,0,1.71,1.2,2.69,2.69,0,0,0,2,0h0s.13,0,.13.06,0,.1-.06.11h0l-.18.08a2.87,2.87,0,0,1-2.21,0,5.36,5.36,0,0,1-1.82-1.26,12,12,0,0,1-2.35-3.73,14.62,14.62,0,0,1-1.1-4.26,7.73,7.73,0,0,1,.1-2.2,3.34,3.34,0,0,1,.4-1,2.36,2.36,0,0,1,.32-.44l.2-.19.11-.09s.12-.1.08,0Z"/><path class="cls-3" d="M190.2,101a22.55,22.55,0,0,0,1.24,2.27l.72,1.08a10.72,10.72,0,0,0,.78,1h0c-.3-.31-.6-.63-.88-1a8.88,8.88,0,0,1-.76-1.06,10.79,10.79,0,0,1-1.1-2.36Z"/><path class="cls-3" d="M190.21,101s0,0,0,0h0a13.09,13.09,0,0,0,1.15,2.31l.72,1.06a6.45,6.45,0,0,0,.89.92h0a.07.07,0,0,0-.08.06v0l-1.45-2.09a15.88,15.88,0,0,1-1.21-2.31h0a12.82,12.82,0,0,0,1.3,2.24c.52.67,1,1.37,1.49,2.08v0a.11.11,0,0,1-.11.1h0l0,0a7.34,7.34,0,0,1-.92-.93l-.7-1.11a15.08,15.08,0,0,1-1-2.37h0s0,0,0,0Z"/><path class="cls-3" d="M199.23,99c.18.81.42,1.61.55,2.42.09.41.17.82.22,1.23l.18,1.23h0l-.3-1.21c-.1-.4-.18-.81-.25-1.22-.19-.8-.27-1.63-.4-2.45Z"/><path class="cls-3" d="M199.24,99h0l.45,2.44.23,1.21.13.39a3.46,3.46,0,0,0-.05-.4l-.24-1.2-.5-2.44h0l.63,2.42c.09.41.2.81.28,1.23s.06.92,0,1.31l-.44-1.26-.19-1.23L199.21,99h0Z"/><path class="cls-3" d="M210.13,99.15c-.33.59-.56,1.23-.83,1.84l-.35.94a6.78,6.78,0,0,0-.3,1h0c.06-.33.12-.66.19-1a6.48,6.48,0,0,1,.32-1,8.13,8.13,0,0,1,1-1.78Z"/><path class="cls-3" d="M210.13,99.17a0,0,0,0,0,0,0h0a10.49,10.49,0,0,0-.93,1.79l-.33.94a4.75,4.75,0,0,0-.15,1v0a.07.07,0,0,0-.08,0l0,0c.24-.61.46-1.23.67-1.86a13.51,13.51,0,0,1,.88-1.84h0a9.82,9.82,0,0,0-.77,1.87,15.41,15.41,0,0,1-.64,1.88v0h0a.09.09,0,0,1-.12,0l0,0v0a4.92,4.92,0,0,1,.15-1l.38-1a12.64,12.64,0,0,1,1-1.74h0s0,0,0,0Z"/><path class="cls-3" d="M217.94,103.21c-.27.69-.49,1.4-.81,2.06-.14.34-.29.68-.46,1s-.34.66-.5,1h0c.14-.34.26-.69.39-1s.27-.68.42-1c.27-.69.64-1.33,1-2Z"/><path class="cls-3" d="M218,103.22a0,0,0,0,0,0,0h0l-.91,2-.44,1-.1.36a2.12,2.12,0,0,0,.17-.32l.43-1c.29-.67.57-1.33.87-2h0l-.75,2.1c-.13.35-.26.7-.41,1s-.44.71-.66,1l.29-1.15.49-1,1-2h0s0,0,0,0Z"/><path class="cls-3" d="M225.54,110.93a9.8,9.8,0,0,1-1.34,1.53,4.85,4.85,0,0,1-.82.61l-.89.49h0c.28-.19.56-.39.82-.6s.53-.4.79-.62c.48-.45,1-.92,1.43-1.41Z"/><path class="cls-3" d="M225.54,111c-.47.4-.94,1-1.42,1.43l-.8.61a1.92,1.92,0,0,0-.24.22l.29-.16.8-.61,1.37-1.5h0l-1.29,1.58-.79.66-1,.42a7,7,0,0,1,.78-.75l.84-.58c.49-.44,1-.94,1.49-1.34Z"/><path class="cls-3" d="M220.89,126a4,4,0,0,1-.16,1.64,3.8,3.8,0,0,1-.84,1.44,2.77,2.77,0,0,1-1.4.9,2.38,2.38,0,0,1-.84,0,2.76,2.76,0,0,1-.78-.26h0a2.72,2.72,0,0,0,.79.21,2.18,2.18,0,0,0,.8-.1,3.23,3.23,0,0,0,1.31-.88,4.86,4.86,0,0,0,.84-1.38,3.64,3.64,0,0,0,.28-1.6Z"/><path class="cls-3" d="M220.91,126a4.4,4.4,0,0,1-1.07,3,3.12,3.12,0,0,1-1.35.91,2.53,2.53,0,0,1-1.63,0h0s0,0,0,0h0l-.05,0h0s0,0,0,0l0-.06.11.07a2,2,0,0,0,1.54.17,2.86,2.86,0,0,0,1.3-.9,4.15,4.15,0,0,0,1-3h0a4.31,4.31,0,0,1-.94,3.11,2.89,2.89,0,0,1-1.35,1,2.21,2.21,0,0,1-1.67-.19l-.12-.08h0s-.05-.1,0-.12a.13.13,0,0,1,.07-.05h0a2.61,2.61,0,0,0,2.84-.78,4.2,4.2,0,0,0,1.16-2.87Z"/><path class="cls-3" d="M191.17,96.12a2.57,2.57,0,0,1-1.32-1.07,4.13,4.13,0,0,1-.57-1.63,5.51,5.51,0,0,1,0-1.72,10.42,10.42,0,0,1,.4-1.67h0a8.47,8.47,0,0,0-.22,3.37A5,5,0,0,0,190,95a2.42,2.42,0,0,0,1.21,1.13Z"/><path class="cls-3" d="M191.16,96.13A2.77,2.77,0,0,1,189.94,95a4.32,4.32,0,0,1-.54-1.61,7.44,7.44,0,0,1,0-1.7l.23-1.68v0l0,0h0l0-.06h0l.07,0h0l0,0a6,6,0,0,0-.36,3.33,4.49,4.49,0,0,0,.55,1.59,2.49,2.49,0,0,0,1.28,1.09h0a2.55,2.55,0,0,1-1.32-1.06,4.56,4.56,0,0,1-.64-1.6,5.7,5.7,0,0,1,.34-3.41l0,0s0,0,0-.06.12,0,.14.06h0v0l-.23,1.67a9.43,9.43,0,0,0,0,1.68A4.34,4.34,0,0,0,190,95a2.71,2.71,0,0,0,1.17,1.13Z"/></g><g id="eyebrows"><path class="cls-3" d="M169.19,94.87c-2,.48-3.12-.36-4.77-.75-4.11-1-8.24-1.62-12.52-.29-6,2-10.19,7.44-15.67,10.28.82-7.49,7.33-12.34,13.91-15,5.88-2.75,13.57-2.92,18.72,1.69a4.09,4.09,0,0,1,1.45,2.6l-1.12,1.48Z"/><path class="cls-3" d="M192.71,92.26a4.08,4.08,0,0,1,1.45-2.6A16.07,16.07,0,0,1,199,86.82c4.47-1.74,9.68-.89,13.86,1,6.65,2.67,13.08,8.34,12.66,16-4.82-3.61-8.52-9.31-14.44-11.31-5-1.54-9.84-.3-14.59,1.08a3.9,3.9,0,0,1-2.67.15l-1.12-1.47Z"/></g></g></svg>