<svg id="artwork" xmlns="http://www.w3.org/2000/svg" viewBox="0 0 340 665"><defs><style>.cls-1{fill:#bdb3ad;}.cls-2{fill:#b88d6e;}.cls-3,.cls-4{fill:#2d2d2d;}.cls-4{fill-rule:evenodd;}.cls-5{fill:none;stroke:#2d2d2d;stroke-miterlimit:10;}.cls-6{fill:#f2eae4;}</style></defs><g id="eyes_thinking5"><g id="white"><path class="cls-1" d="M214,106.92c7.45,5.33,6.61,18.39-2.34,20.89-6.61,1.84-13.66,1-17.4-6.17-2.58-4.92.49-11.33,5.36-15.34C204,102.65,208.77,103.2,214,106.92Z"/><path class="cls-1" d="M152.28,105.25c-.41.19-.49,1.9-.84,2.12a10.16,10.16,0,0,0-3.83,5c-1.61,4.26-3.34,8.47,3.18,13.23,3.65,2.67,10.47,2.88,14.25.51,7.76-4.86,9.53-10,5.36-14.61a44.93,44.93,0,0,0-5.3-5.53C162.29,103.64,155.89,103.59,152.28,105.25Z"/></g><g id="iris"><path class="cls-2" d="M154.37,105.75c1.88-.22,4.55.48,5.19,2.73,1.05,3.73-4.82,8.31-8.27,7.3A3.74,3.74,0,0,1,149,112.9C148.11,109.1,151,106.15,154.37,105.75Z"/><path class="cls-2" d="M202.11,105.84c1.87-.21,4.54.52,5.16,2.77,1,3.74-4.88,8.27-8.32,7.24a3.76,3.76,0,0,1-2.24-2.9C195.82,109.14,198.72,106.21,202.11,105.84Z"/></g><g id="iris_outline"><path class="cls-3" d="M155.45,114.38a30,30,0,0,1-1.58-4,2.66,2.66,0,0,1-.13-.58,28.19,28.19,0,0,1,1.71,4.58Z"/><path class="cls-3" d="M152.32,115.5c.44-1.49.78-3,1.36-4.42a15.1,15.1,0,0,1-1.36,4.42Z"/><path class="cls-3" d="M149.76,114.61a29.14,29.14,0,0,1,3.48-3.75c-.87,1.49-2.41,2.51-3.48,3.75Z"/><path class="cls-3" d="M148.77,109.89c1.51.34,3.19-.4,4.59.47-1.45-.34-3.18,0-4.59-.47Z"/><path class="cls-3" d="M152.11,105.08a19.1,19.1,0,0,1,1.23,3.84c0,.14.15.48,0,.59-.6-1.4-.76-3-1.27-4.43Z"/><path class="cls-3" d="M158.94,110.68c-.94-.4-2,.07-3-.09-.25,0-.87-.07-1-.26,0,0,0,0,0,0h0s0-.06,0,0c.65.07,1.33,0,2,.1s1.49-.15,2,.27Z"/><path class="cls-3" d="M157.54,106.12a24.74,24.74,0,0,1-2.62,3.52,17.7,17.7,0,0,1,2.62-3.52Z"/><path class="cls-3" d="M151.71,106.86c-4.09,2.55-2.89,10.86,2.78,8.07,2.74-1.3,5.84-4.81,3.63-7.69a5.93,5.93,0,0,0-2.92-1.63v-.1c7.23.64,4.92,8.29-.37,10.19-6.61,2.86-8-6.51-3.13-8.84Z"/><path class="cls-3" d="M203.12,114.48a27.58,27.58,0,0,1-1.55-4,2.71,2.71,0,0,1-.13-.57,29.17,29.17,0,0,1,1.68,4.59Z"/><path class="cls-3" d="M200,115.57c.45-1.48.8-3,1.39-4.41a14.91,14.91,0,0,1-1.39,4.41Z"/><path class="cls-3" d="M197.43,114.67a28.35,28.35,0,0,1,3.51-3.73c-.88,1.49-2.43,2.49-3.51,3.73Z"/><path class="cls-3" d="M196.47,109.94c1.51.35,3.2-.38,4.59.51-1.45-.35-3.18-.06-4.59-.51Z"/><path class="cls-3" d="M199.85,105.15a19.3,19.3,0,0,1,1.2,3.85c0,.15.15.48,0,.59-.58-1.4-.73-3-1.23-4.44Z"/><path class="cls-3" d="M206.63,110.81c-.93-.41-2,0-3-.12-.25,0-.87-.08-1-.26,0,0,0,0,0,0h0s0-.06,0,0c.66.07,1.34,0,2,.11s1.5-.14,2,.29Z"/><path class="cls-3" d="M205.27,106.24a26.08,26.08,0,0,1-2.64,3.5,17,17,0,0,1,2.64-3.5Z"/><path class="cls-3" d="M199.44,106.92c-4.11,2.53-3,10.85,2.71,8.1,2.75-1.27,5.88-4.77,3.69-7.66a5.88,5.88,0,0,0-2.91-1.65l0-.1c7.23.7,4.85,8.33-.46,10.18-6.63,2.81-7.91-6.56-3.05-8.87Z"/></g><g id="pupil"><path class="cls-4" d="M153.22,110l1.57-.84a1.91,1.91,0,0,1-1.08,2.15,1.39,1.39,0,0,1-2.06-.47,1.91,1.91,0,0,1,1.07-2.15,2,2,0,0,1,.81-.24Z"/><path class="cls-4" d="M200.92,110.06l1.57-.82a1.9,1.9,0,0,1-1.09,2.14,1.4,1.4,0,0,1-2.06-.49,1.92,1.92,0,0,1,1.09-2.14,2,2,0,0,1,.81-.24Z"/><path class="cls-4" d="M153.22,110l1.57-.84a1.91,1.91,0,0,1-1.08,2.15,1.39,1.39,0,0,1-2.06-.47,1.91,1.91,0,0,1,1.07-2.15,2,2,0,0,1,.81-.24Z"/><path class="cls-4" d="M200.92,110.06l1.57-.82a1.9,1.9,0,0,1-1.09,2.14,1.4,1.4,0,0,1-2.06-.49,1.92,1.92,0,0,1,1.09-2.14,2,2,0,0,1,.81-.24Z"/><path class="cls-5" d="M153.22,110l1.57-.84a1.91,1.91,0,0,1-1.08,2.15,1.39,1.39,0,0,1-2.06-.47,1.91,1.91,0,0,1,1.07-2.15,2,2,0,0,1,.81-.24Z"/><path class="cls-5" d="M200.92,110.06l1.57-.82a1.9,1.9,0,0,1-1.09,2.14,1.4,1.4,0,0,1-2.06-.49,1.92,1.92,0,0,1,1.09-2.14,2,2,0,0,1,.81-.24Z"/></g><g id="spec"><ellipse class="cls-6" cx="155.86" cy="108.03" rx="1.53" ry="1.2" transform="translate(-31.02 140.27) rotate(-44.51)"/><ellipse class="cls-6" cx="203.58" cy="108.13" rx="1.53" ry="1.2" transform="translate(-17.91 172) rotate(-44.06)"/></g><g id="outline"><path class="cls-3" d="M190.8,118.44a15.13,15.13,0,0,0,2.6,6.37,20.6,20.6,0,0,0,2.24,2.6c.4.41.83.8,1.27,1.17l.67.55c.22.13.48.5.65.29h0l0,0c0,.19-.31.15-.42.07l-.39-.2c-.27-.14-.51-.3-.76-.46a13.46,13.46,0,0,1-1.4-1.09,12.85,12.85,0,0,1-2.24-2.74,15.59,15.59,0,0,1-2.31-6.59,0,0,0,0,1,0,0S190.8,118.43,190.8,118.44Z"/><path class="cls-3" d="M141.91,120.81a15.67,15.67,0,0,1,1-7.53,13.66,13.66,0,0,1,1.85-3.37,11.66,11.66,0,0,1,2.8-2.63s0,0,0,0,0,0,0,0a21.23,21.23,0,0,0-2.42,2.88,20.15,20.15,0,0,0-1.89,3.24,15.51,15.51,0,0,0-1.33,7.37s0,0,0,0A0,0,0,0,1,141.91,120.81Z"/><path class="cls-3" d="M163.33,130.62a9.5,9.5,0,0,0,4.63-1.79,13.21,13.21,0,0,0,3.41-3.62,23.21,23.21,0,0,0,2.12-4.51c.6-1.57,1-3.19,1.56-4.8,0,0,0,0,0,0s0,0,0,0a31.37,31.37,0,0,1-1.13,5,17.74,17.74,0,0,1-2.27,4.57,13.4,13.4,0,0,1-3.61,3.59,9.66,9.66,0,0,1-4.76,1.65s0,0,0,0S163.31,130.63,163.33,130.62Z"/><path class="cls-3" d="M216.18,105.15a27.51,27.51,0,0,1,5,6.82,18.76,18.76,0,0,1,1.63,4,10.78,10.78,0,0,1,.34,4.26s0,0,0,0,0,0,0,0a16.31,16.31,0,0,0-.77-4.11,29.62,29.62,0,0,0-1.51-3.92,27.15,27.15,0,0,0-4.72-7,0,0,0,0,1,0,0A0,0,0,0,1,216.18,105.15Z"/><path class="cls-3" d="M192.45,116.41a22.65,22.65,0,0,1,5.07-9.26,11.66,11.66,0,0,1,4.34-3.38,8.28,8.28,0,0,1,1.38-.33c.44-.08.89-.16,1.34-.21a15.7,15.7,0,0,1,2.75-.12,12.12,12.12,0,0,1,5.42,1.5,14.55,14.55,0,0,1,4.23,3.6,14.06,14.06,0,0,1,2.6,4.89,9,9,0,0,1-.14,5.43l-.2,0a11,11,0,0,0-1-4.92,15.49,15.49,0,0,0-2.8-4.06c-2.25-2.41-4.93-4.51-8.25-4.8a14.75,14.75,0,0,0-2.49,0c-.42,0-.84.08-1.27.13a7.11,7.11,0,0,0-1.19.21,10.94,10.94,0,0,0-4,2.8,23.06,23.06,0,0,0-5.59,8.64Z"/><path class="cls-3" d="M193.18,121.64a16.05,16.05,0,0,0,6.74,5.54,15.13,15.13,0,0,0,8.55,1,14.41,14.41,0,0,0,7.51-4,16.23,16.23,0,0,0,4.16-7.55l.1,0A13.14,13.14,0,0,1,208.6,129a15.49,15.49,0,0,1-8.88-1.35,15.89,15.89,0,0,1-6.62-5.93Z"/><path class="cls-3" d="M172.45,114.92a22.94,22.94,0,0,0-6.89-7.7,11.1,11.1,0,0,0-4.44-2.16,6.76,6.76,0,0,0-1.21,0c-.43,0-.86,0-1.28.07a14.41,14.41,0,0,0-2.48.39,10.5,10.5,0,0,0-4.28,2.25,20,20,0,0,0-3.24,3.72,15.55,15.55,0,0,0-2.18,4.44,10.77,10.77,0,0,0-.24,5L146,121a8.9,8.9,0,0,1-1-5.37,13.91,13.91,0,0,1,1.88-5.24,14.46,14.46,0,0,1,3.69-4.19,12.16,12.16,0,0,1,5.16-2.27,15.2,15.2,0,0,1,2.75-.29c.46,0,.91,0,1.36,0a8.24,8.24,0,0,1,1.42.12,11.83,11.83,0,0,1,4.83,2.68,22.81,22.81,0,0,1,6.48,8.4Z"/><path class="cls-3" d="M146.26,120.7a15.93,15.93,0,0,0,6.74,5.54,15.13,15.13,0,0,0,8.55,1,14.31,14.31,0,0,0,7.5-4,16.2,16.2,0,0,0,4.17-7.55l.1,0A13.14,13.14,0,0,1,161.68,128a15.48,15.48,0,0,1-8.88-1.34,16,16,0,0,1-6.62-5.93Z"/><path class="cls-3" d="M221,126.55a10.7,10.7,0,0,0-.95-.77c-.17-.11-.37-.17-.47-.34a1.42,1.42,0,0,1-.15-.73l.06-.08a1.08,1.08,0,0,1,.78.08c.21.11.29.35.39.55a3.71,3.71,0,0,1,.43,1.25Z"/><path class="cls-3" d="M218.73,129.57a6.63,6.63,0,0,1-1.72-1,2.14,2.14,0,0,1-.74-.66,1.78,1.78,0,0,1-.22-1l.08-.05a2.43,2.43,0,0,1,.91.46,3.35,3.35,0,0,1,.54.74,14.43,14.43,0,0,0,1.2,1.43Z"/><path class="cls-3" d="M215.28,132.6a9.5,9.5,0,0,1-1.57-1.72,3.13,3.13,0,0,1-.61-1,2.27,2.27,0,0,1,0-1.24l.1,0a3.17,3.17,0,0,1,.82.87,4.33,4.33,0,0,1,.4,1,20.86,20.86,0,0,0,1,2Z"/><path class="cls-3" d="M153.57,130.53a9,9,0,0,0,.14-1.22c0-.2-.07-.4,0-.57a1.38,1.38,0,0,1,.53-.52h.1a1.11,1.11,0,0,1,.36.7,1.12,1.12,0,0,1-.25.62,3.77,3.77,0,0,1-.82,1Z"/><path class="cls-3" d="M149.81,130.26a6.77,6.77,0,0,1-.13-2,2.17,2.17,0,0,1,.15-1,1.85,1.85,0,0,1,.76-.76l.09,0a2.53,2.53,0,0,1,.11,1,3.06,3.06,0,0,1-.33.85,15.6,15.6,0,0,0-.55,1.79Z"/><path class="cls-3" d="M145.39,129a9.71,9.71,0,0,1,.6-2.25,2.9,2.9,0,0,1,.51-1.06,2.22,2.22,0,0,1,1-.68l.08.06a3,3,0,0,1-.28,1.16,4.27,4.27,0,0,1-.64.89c-.42.61-.83,1.24-1.2,1.91Z"/></g><g id="eyebrows"><path class="cls-3" d="M190,96.57c1.5-1,3-1,4.59-1.37l4.72-.89c6.48-1,13.93-2.68,20.09.73a11,11,0,0,1,5.11,6.18c.13.87.83,1.61-.33,2.76a1.77,1.77,0,0,1-1-.35c-.53-.37-.62-1-1-1.48a9.37,9.37,0,0,0-8.33-5.76c-6.28-.56-12.48,1.53-18.76,2.32-1.63.18-3.32.57-5.06-.29L190,96.57Z"/><path class="cls-3" d="M171,100a4,4,0,0,1-2.31-.8,26.09,26.09,0,0,0-6-2.69c-8.61-2-13.22-1.51-18.65,6a16.15,16.15,0,0,1-3.52,3.48l-.08-.06c.56-1.57,1-3.05,1.55-4.58,3.27-9.25,10.31-11.19,19.26-9.11a19.24,19.24,0,0,1,9.26,4.33,3.8,3.8,0,0,1,1.57,2L171,100Z"/></g></g></svg>