<svg id="artwork" xmlns="http://www.w3.org/2000/svg" viewBox="0 0 340 665"><defs><style>.cls-1{fill:#534236;fill-rule:evenodd;}.cls-2{fill:#2d2d2d;}</style></defs><g id="mouth_sad1"><g id="lip_colour" data-name="lip colour"><path class="cls-1" d="M165.61,170.94s.62,7.41,4.42,7.48c2.31.05,7.63-3.08,10.55-2.88s8.16,2.92,10.37,2.15c3.27-1.14,5.68-7,5.68-7l1.45,0s-4.72-5.35-7.82-5.65-10.92,2.8-10.92,2.8-7-3.93-9.52-2.89-5.08,6.53-5.08,6.53Z"/></g><g id="outline"><path class="cls-2" d="M164.8,171c1.31-1.84,1.86-4.23,3.83-5.68,3.08-2.38,8,.55,11,2.05l-.34,0c3.39-1.33,6.77-2.91,10.47-3.08,2,0,3.56,1.43,4.9,2.71s2.49,2.59,3.78,3.85l-.07.08c-1.49-1-2.85-2.23-4.22-3.38s-2.72-2.24-4.39-2.24c-3.42.24-6.94,1.57-10.18,2.77l-.19.07-.16-.1c-2.53-1.47-5.34-3.1-8.33-3.1-1.54,0-2.68,1.16-3.59,2.29s-1.38,2.73-2.43,3.88l0-.09Z"/><path class="cls-2" d="M205.68,175.4a14.6,14.6,0,0,0-8.11-4.55,8.11,8.11,0,0,0-3,.53,26.8,26.8,0,0,1-6.4-.14c-4.2-.14-8.47-.16-12.69-.11-6.23,0-12.79.55-17.84,4.63l-.07-.07a16.23,16.23,0,0,1,5.27-3.63,29.49,29.49,0,0,1,12.65-1.88c3.77.12,9,.22,12.73.46a27.7,27.7,0,0,0,6.27.32,8.37,8.37,0,0,1,3.18-.42,15,15,0,0,1,8.13,4.79l-.07.07Z"/><path class="cls-2" d="M196.77,170.89a15.23,15.23,0,0,1-4.06,6.19c-2.05,1.79-5.05.9-7.24,0a12.73,12.73,0,0,0-4.63-1.13,10.9,10.9,0,0,0-4.49,1.41c-2.68,1.5-7.53,3.3-9.28-.44a14.52,14.52,0,0,1-1.37-4.81l.1,0a18.35,18.35,0,0,0,1.84,4.49c2,3.17,5.66,1,8.29-.12a11.67,11.67,0,0,1,4.91-1.3c3.55.07,6.25,2.7,9.49,2.47,1.65,0,2.83-1.31,3.85-2.56a14.61,14.61,0,0,0,2.49-4.18Z"/></g></g></svg>