<svg id="artwork" xmlns="http://www.w3.org/2000/svg" viewBox="0 0 340 665"><defs><style>.cls-1,.cls-4{fill:#2d2d2d;}.cls-1,.cls-2{fill-rule:evenodd;}.cls-2{fill:#534236;}.cls-3{fill:#f2eae4;}</style></defs><g id="mouth_shocked2"><g id="Layer_88" data-name="Layer 88"><path class="cls-1" d="M200.23,169.66s-3.77,4.32-5,4.61-13.7,3.18-14.82,2.65-12.53-2.71-12.53-2.71l-3.77-2-.17-2.47,5.94-2.41,12.47-1,11.82.65Z"/></g><g id="lip_colour" data-name="lip colour"><path class="cls-2" d="M187.77,161.83c-3.18-.57-7.87,2.38-7.87,2.38s-4-2.67-6.79-1.85c-3,.89-7,4.09-8.1,5.2a21.22,21.22,0,0,0-2.79,4.77c1.66,2.15,5.18,7.63,7.46,7.93s7.88.33,10.78.63,9.92,0,12.13-1.34a20.86,20.86,0,0,0,8.22-9.87,15.8,15.8,0,0,0-5.19-5.14A22.56,22.56,0,0,0,187.77,161.83Zm7.09,11c-3.61,1.46-9.68,2.09-12.55,2.25A32.41,32.41,0,0,1,170,173.34a42.61,42.61,0,0,0-6.16-1.79,18.68,18.68,0,0,1,4-1.71,48.19,48.19,0,0,1,6.54-1.23c2.77-.33,5.45-.63,8.24-.83a81.52,81.52,0,0,1,10.65.77c3.61.48,6.69,1.19,6.69,1.19A29.12,29.12,0,0,1,194.86,172.84Z"/></g><g id="teeth"><path class="cls-3" d="M198.05,169.29a11.81,11.81,0,0,1-4.77,1.22c-.91.07-3.17.28-4.37.23s-5.69.17-6.84.17-7.27.17-8.17.13-4.85.12-4.85.12l-.14-1.6s13.86-1.67,15.31-1.75S196.47,168.76,198.05,169.29Z"/></g><g id="outine"><path class="cls-4" d="M205.53,169.75a25.9,25.9,0,0,1-2.91.22,10.17,10.17,0,0,1-1.46,0,7.33,7.33,0,0,1-1.44-.28v0a6.61,6.61,0,0,1,1.46-.17,11.6,11.6,0,0,1,1.44.09c1,.06,1.93.12,2.9.13Z"/><path class="cls-4" d="M156.67,173c1.43-.23,2.84-.54,4.25-.86.7-.16,1.4-.37,2.11-.48a14.37,14.37,0,0,1,2.18-.21v.05a17.4,17.4,0,0,1-2.09.65c-.7.18-1.42.27-2.14.38a41.74,41.74,0,0,1-4.32.52Z"/><path class="cls-4" d="M162.23,172.06a12.16,12.16,0,0,1,3-4.74,20.84,20.84,0,0,1,4.33-3.6,12,12,0,0,1,5.31-2c.13,0,.23,0,.38,0a2.24,2.24,0,0,1,.42.08,7,7,0,0,1,.69.25c.45.18.87.38,1.3.59l1.25.65,1,.57.23-.12.42-.21c.88-.43,1.76-.85,2.66-1.24a14.58,14.58,0,0,1,2.86-1,2.37,2.37,0,0,1,.88,0l.72.11,1.44.24a24.59,24.59,0,0,1,2.89.66,15.07,15.07,0,0,1,2.78,1.11,13.87,13.87,0,0,1,2.44,1.72,18.64,18.64,0,0,1,2.13,2,6.42,6.42,0,0,1,1.49,2.54l-.09,0A7,7,0,0,0,199,167.5a21.52,21.52,0,0,0-2.24-1.8,14.51,14.51,0,0,0-2.4-1.5,16.43,16.43,0,0,0-2.66-.93c-.92-.24-1.86-.42-2.8-.6l-1.43-.25-.72-.13-.18,0h-.11a1.37,1.37,0,0,0-.27,0,14.57,14.57,0,0,0-2.67.83c-.89.35-1.78.73-2.65,1.14l-1,.49-1.38-.81-1.22-.66c-.41-.22-.82-.43-1.23-.61l-.62-.24-.26-.06c-.08,0-.21,0-.32,0a11.62,11.62,0,0,0-5.1,1.76,21.36,21.36,0,0,0-4.36,3.39,12.08,12.08,0,0,0-3.06,4.57Z"/><path class="cls-4" d="M162.19,172.34a33.05,33.05,0,0,1,3.65,4.7,9.84,9.84,0,0,0,2,2.11,6,6,0,0,0,2.64,1.07,42.53,42.53,0,0,0,5.89.41c2,0,3.94,0,5.94,0s4,0,5.91-.14a13.68,13.68,0,0,0,5.34-1.89,15.52,15.52,0,0,0,4.24-3.88,23.06,23.06,0,0,0,2.93-5.11l.1,0a19.05,19.05,0,0,1-2.45,5.47,15.09,15.09,0,0,1-4.28,4.33,13.1,13.1,0,0,1-5.79,2c-2,.12-4,0-6-.05s-4,0-6-.1a41.6,41.6,0,0,1-6-.58,6.4,6.4,0,0,1-2.78-1.23,10,10,0,0,1-2-2.25,34,34,0,0,0-3.47-4.81Z"/><path class="cls-4" d="M162.07,172a3.39,3.39,0,0,1,2.38-.52c.83.09,1.63.27,2.44.44a38.93,38.93,0,0,1,4.65,1.67,11.34,11.34,0,0,0,2.38.51l2.45.38a19.49,19.49,0,0,0,4.87.33,47.22,47.22,0,0,0,9.75-1.11,26.28,26.28,0,0,0,4.62-1.59,30.16,30.16,0,0,0,4.29-2.41l0,0a23.17,23.17,0,0,1-8.82,4.44c-3.21.93-6.58.9-9.85,1a19.91,19.91,0,0,1-4.94-.39l-2.44-.42a11.83,11.83,0,0,1-2.42-.57,40.9,40.9,0,0,0-4.6-1.75,20.3,20.3,0,0,0-2.42-.48,3.25,3.25,0,0,0-2.34.45Z"/><path class="cls-4" d="M163.1,171.94a22.15,22.15,0,0,1,8.92-3.06c3.13-.5,6.26-.86,9.43-1.09a44.25,44.25,0,0,1,4.75-.09A47.11,47.11,0,0,1,191,168a58.91,58.91,0,0,1,9.32,1.76v0c-3.11-.57-6.23-1-9.36-1.3-1.57-.14-3.14-.25-4.71-.28a43.72,43.72,0,0,0-4.72,0c-3.14.19-6.3.49-9.41.93a22.32,22.32,0,0,0-8.94,2.87Z"/><path class="cls-4" d="M168.91,169.63l.18,1.48,13.86-.52c2.57-.09,5.14-.21,7.71-.25,1.29,0,2.55-.09,3.83-.14.64-.09,1.27-.18,1.9-.31a7.39,7.39,0,0,0,.93-.22c.28-.1.66-.17.77-.44h0c0,.2-.2.28-.33.37a3.55,3.55,0,0,1-.44.21,7.21,7.21,0,0,1-.93.3c-.62.18-1.25.31-1.89.44-1.28.12-2.58.23-3.87.29-2.57.1-5.15.11-7.72.15l-14,.21-.15-1.56Z"/></g></g></svg>