<svg id="artwork" xmlns="http://www.w3.org/2000/svg" viewBox="0 0 282 282"><defs><style>.cls-1{fill:#bdb3ad;}.cls-2{fill:#b88d6e;}.cls-3,.cls-4{fill:#2d2d2d;}.cls-4{fill-rule:evenodd;}.cls-5{fill:none;stroke:#2d2d2d;stroke-miterlimit:10;}.cls-6{fill:#f2eae4;}</style></defs><g id="eyes_right2"><g id="white"><path class="cls-1" d="M112.58,115.07a46.59,46.59,0,0,0-11.74,4.11c-13.25,6.33,8,12.78,14.76,12.25,4.17-.33,9.5-1.49,12.27-5,2.4-3,3.94-11.76-.2-11.91C123.69,114.42,119.27,113.9,112.58,115.07Z"/><path class="cls-1" d="M161.81,113.24c-5.26,2.05-11.51,6.84-9.32,11.16,4,7.94,13,9.17,20.66,6.93,5.19-1.52,9.15-5.89,8.06-10.12a10.26,10.26,0,0,0-3.36-4.86,16,16,0,0,0-4.88-3.06,16.17,16.17,0,0,0-10.13-.4C162.49,113,162.14,113.11,161.81,113.24Z"/></g><g id="iris"><path class="cls-2" d="M126.37,127.18c3.9-1.84,4.58-10.17,3.45-12.93a98.71,98.71,0,0,0-9.87.17c-2.31,2.07-1.53,7-.54,8.75C121,126,125.89,127.41,126.37,127.18Z"/><path class="cls-2" d="M182.62,119.9a8.3,8.3,0,0,0-4.13-5.72c-2.88-1.38-5,2.24-5.34,4.58-.36,2.53,1.34,7.8,4.95,8.32,1.71,1.25,3.14-2,3.74-3.25A15.52,15.52,0,0,0,182.62,119.9Z"/></g><g id="iris_outline"><path class="cls-3" d="M124,126.22a16.58,16.58,0,0,1,1.91-2.64,1.51,1.51,0,0,1,.09-.13s0,0,0,0,0,.15,0,.19a11.62,11.62,0,0,1-2,2.61Z"/><path class="cls-3" d="M121.06,116a12.38,12.38,0,0,1,3.1,0,9.22,9.22,0,0,1-3.1,0Z"/><path class="cls-3" d="M120.57,122.2a15.13,15.13,0,0,1,3.54-1.21,6.54,6.54,0,0,1-1.74.7s-1.83.58-1.8.51Z"/><path class="cls-3" d="M119.75,119.43c.91-.19,1.74-.71,2.65-.94a22.35,22.35,0,0,1,2.74-.68,9.25,9.25,0,0,1-2.68.87,22.67,22.67,0,0,1-2.71.75Z"/><path class="cls-3" d="M177.85,126.9c1.12-1.83,2.4-3.57,3.69-5.28l.13-.18s.13-.16.05-.08l0,0s0,0,.06,0,0,.12,0,.17a44,44,0,0,1-3.86,5.43Z"/><path class="cls-3" d="M176.45,115.86a12.67,12.67,0,0,1,3.17,1.35,5.7,5.7,0,0,1-1.62-.58s-1.62-.73-1.55-.77Z"/><path class="cls-3" d="M174.22,123.7a39.2,39.2,0,0,1,5.16-3,38.2,38.2,0,0,1-5.16,3Z"/><path class="cls-3" d="M172.78,118.57c1.09.37,2.31.33,3.42.66s2.32.68,3.36,1a13,13,0,0,1-3.4-.77c-1.08-.39-2.41-.36-3.38-.85Z"/><path class="cls-3" d="M126.25,127.2c-5.48-.27-11-7-7.52-12.14l.09,0a9.87,9.87,0,0,0,7.43,12.1Z"/><path class="cls-3" d="M180,127.32c-7.55,1.46-10-12.18-3-14.17l0,.09c-5.22,3.4-4.2,14.41,2.93,14.08Z"/></g><g id="pupil"><path class="cls-4" d="M180.42,124.69c1-.16,1.63-1.14,1.84-3.21.34-3.35-3.62-6.33-5.34-2.57-.78,1.71.85,1.07,1.36,2,1.08,2.06-1.67.27-1.3,2.45C177.2,124.77,178.12,125.07,180.42,124.69Z"/><path class="cls-4" d="M129.64,121.28c.34-.61.35-4.12.34-6a1.69,1.69,0,0,0-1.43-1.66c-1.06-.15-2.49.13-3.47,2.26-.78,1.71.85,1.07,1.36,2,1.08,2.06-1.66.27-1.3,2.45C125.37,121.75,128.79,122.81,129.64,121.28Z"/><path class="cls-4" d="M180.42,124.69c1-.16,1.63-1.14,1.84-3.21.34-3.35-3.62-6.33-5.34-2.57-.78,1.71.85,1.07,1.36,2,1.08,2.06-1.67.27-1.3,2.45C177.2,124.77,178.12,125.07,180.42,124.69Z"/><path class="cls-4" d="M129.64,121.28c.34-.61.35-4.12.34-6a1.69,1.69,0,0,0-1.43-1.66c-1.06-.15-2.49.13-3.47,2.26-.78,1.71.85,1.07,1.36,2,1.08,2.06-1.66.27-1.3,2.45C125.37,121.75,128.79,122.81,129.64,121.28Z"/><path class="cls-5" d="M180.42,124.69c1-.16,1.63-1.14,1.84-3.21.34-3.35-3.62-6.33-5.34-2.57-.78,1.71.85,1.07,1.36,2,1.08,2.06-1.67.27-1.3,2.45C177.2,124.77,178.12,125.07,180.42,124.69Z"/><path class="cls-5" d="M129.64,121.28c.34-.61.35-4.12.34-6a1.69,1.69,0,0,0-1.43-1.66c-1.06-.15-2.49.13-3.47,2.26-.78,1.71.85,1.07,1.36,2,1.08,2.06-1.66.27-1.3,2.45C125.37,121.75,128.79,122.81,129.64,121.28Z"/></g><g id="spec"><path class="cls-6" d="M117.28,115.09a1.64,1.64,0,0,0-.36.55,2.29,2.29,0,0,0,1.17,2.81,1.89,1.89,0,0,0,2.67-.9,2.25,2.25,0,0,0-.6-2.41C119.2,115.1,118.24,115.08,117.28,115.09Z"/><path class="cls-6" d="M171.19,114.87a1.38,1.38,0,0,0-.3.59c-.2,1,.79,2.09,2.21,2.47s2.72-.11,2.92-1.1-.71-2-2-2.41A18.78,18.78,0,0,0,171.19,114.87Z"/></g><g id="outline"><path class="cls-3" d="M132.66,113.77c-.81.12-1.61.31-2.41.43s-1.61.21-2.41.33c-1.6.21-3.2.4-4.81.53s-3.21.2-4.82.28a33.69,33.69,0,0,0-4.72.47,76.45,76.45,0,0,0-9.1,2.68,24.26,24.26,0,0,0-4.19,1.86c-1.37.76-2.79,1.61-4.28,2.33l-.09-.13A38.17,38.17,0,0,1,99.24,119a14.85,14.85,0,0,1,4.34-2.67,49.56,49.56,0,0,1,9.58-2.39c1.62-.28,3.29-.5,4.91-.64s3.23-.28,4.85-.32,3.25,0,4.88.12c.81.06,1.62.11,2.44.21s1.62.3,2.42.45Z"/><path class="cls-3" d="M97,124a21,21,0,0,0,9.77,6.34,24.09,24.09,0,0,0,11.55.82,15.55,15.55,0,0,0,9.76-5.78,12.28,12.28,0,0,0,2.14-5.38,16.8,16.8,0,0,0-.23-5.87h0a18.34,18.34,0,0,1,.44,5.91,12.37,12.37,0,0,1-6.35,9.72,17.9,17.9,0,0,1-5.65,2A22.44,22.44,0,0,1,97,124Z"/><path class="cls-3" d="M119.5,106.35a14.91,14.91,0,0,1,.37,2.75,7.18,7.18,0,0,1,0,1.39,4.84,4.84,0,0,1-.44,1.33h0l0,0a12.56,12.56,0,0,1,0-1.37c0-.46.1-.9.14-1.35a15.56,15.56,0,0,0,0-2.73h0Z"/><path class="cls-3" d="M115.14,107.57l.36,1.73a4.35,4.35,0,0,1,.13.88,2.88,2.88,0,0,1-.13.9h0a2.82,2.82,0,0,1-.31-.85,3.77,3.77,0,0,1,0-.89v-1.77h0Z"/><path class="cls-3" d="M109.11,108.44a13,13,0,0,1,.8,2,4.36,4.36,0,0,1,.24,1.07,3.39,3.39,0,0,1-.13,1.09h0a6.18,6.18,0,0,1-.32-1c-.08-.34-.08-.69-.13-1a11.55,11.55,0,0,0-.46-2.08h0Z"/><path class="cls-3" d="M102.93,110.24l.93,2.22a8.12,8.12,0,0,1,.42,1.13,5.27,5.27,0,0,1,.17,1.21h0a5.09,5.09,0,0,1-.59-1.07,7.25,7.25,0,0,1-.33-1.15l-.59-2.33s0,0,0,0Z"/><path class="cls-3" d="M96.6,112.46a17.07,17.07,0,0,0,1.31,2.64c.25.42.54.81.77,1.24a11,11,0,0,1,.66,1.33s0,0,0,0h0a6,6,0,0,1-1-1.09,7.64,7.64,0,0,1-.71-1.32,17.69,17.69,0,0,1-1-2.81l0,0Z"/><path class="cls-3" d="M116.05,135.24a24,24,0,0,0,7.88-4.21,18.59,18.59,0,0,0,3-3.27,19,19,0,0,0,2.18-3.9s0,0,0,0a0,0,0,0,1,0,0,12.71,12.71,0,0,1-1.82,4.17,14.51,14.51,0,0,1-3.16,3.29,24.32,24.32,0,0,1-8.12,3.95s0,0,0,0A.05.05,0,0,1,116.05,135.24Z"/><path class="cls-3" d="M105,132.3a23.48,23.48,0,0,1-4.35-2.79,15.15,15.15,0,0,1-1.9-1.77,11.61,11.61,0,0,1-1.47-2.14,0,0,0,0,1,0,0h0c.61.61,1.2,1.22,1.8,1.83s1.17,1.23,1.8,1.81a22.42,22.42,0,0,0,4.11,3s0,0,0,0Z"/><path class="cls-3" d="M153,127a14,14,0,0,0,1.6,4.33,20.69,20.69,0,0,0,2.66,3.77,21.15,21.15,0,0,0,3.4,3.09,13.59,13.59,0,0,0,4.06,2.13s0,0,0,0,0,0,0,0a10.25,10.25,0,0,1-4.34-1.77,16.13,16.13,0,0,1-3.41-3.24,21,21,0,0,1-2.56-3.92A14,14,0,0,1,153,127a0,0,0,0,1,0,0S153,126.93,153,127Z"/><path class="cls-3" d="M178.92,109.81a16.69,16.69,0,0,1,6.67,6.63,11.92,11.92,0,0,1,1.34,4.6,12.74,12.74,0,0,1-.57,4.72s0,0,0,0,0,0,0,0a18.3,18.3,0,0,0,.12-4.67,13.68,13.68,0,0,0-1.2-4.46,16.38,16.38,0,0,0-6.34-6.76.06.06,0,0,1,0,0Z"/><path class="cls-3" d="M150.79,120.71a71.13,71.13,0,0,1,7.3-6.49,14.49,14.49,0,0,1,4.64-2.35,39.38,39.38,0,0,1,4.93-1,22,22,0,0,1,5.23-.23,11.87,11.87,0,0,1,2.75.59,10.31,10.31,0,0,1,2.44,1.32,16,16,0,0,1,2.11,1.72,7.21,7.21,0,0,1,1.6,2.48,15,15,0,0,1,.92,5l-.38.14c-1.07-1.3-2-2.69-3-3.76a5.76,5.76,0,0,0-1.44-1.23c-.52-.31-1.17-.61-1.89-1s-1.24-.62-1.84-.86a15.38,15.38,0,0,0-1.92-.58,18.81,18.81,0,0,0-4.39-.49,41.68,41.68,0,0,0-4.61.34,13.17,13.17,0,0,0-4.16,1.45c-2.75,1.45-5.4,3.35-8.08,5.13Z"/><path class="cls-3" d="M151.6,123.08a12,12,0,0,0,6.37,7.19,19.91,19.91,0,0,0,9.52,2.08,18.23,18.23,0,0,0,9.21-2.77,14.11,14.11,0,0,0,3.57-3.24,16.87,16.87,0,0,0,2.39-4.3l.09,0a13.22,13.22,0,0,1-5.49,8.35,17,17,0,0,1-9.76,2.74,20.22,20.22,0,0,1-9.76-2.44,12.23,12.23,0,0,1-6.24-7.61Z"/><path class="cls-3" d="M152.49,110.88l.51,2a6.07,6.07,0,0,1,.21,1,4.27,4.27,0,0,1-.05,1.07h0a0,0,0,0,1,0,0,3.84,3.84,0,0,1-.39-1,6,6,0,0,1-.12-1l-.16-2.1h.05Z"/><path class="cls-3" d="M155.87,109l.41,1.85a5.06,5.06,0,0,1,.17.93,3.24,3.24,0,0,1-.1,1h0a3.2,3.2,0,0,1-.34-.9,4.3,4.3,0,0,1-.07-1l-.07-1.89h.05Z"/><path class="cls-3" d="M159,106.36a12,12,0,0,0,.09,2.08c0,.34.12.67.14,1a6.27,6.27,0,0,1,0,1.05l0,0h0a3,3,0,0,1-.41-1,4.25,4.25,0,0,1,0-1.07,11.38,11.38,0,0,1,.26-2.1h0Z"/><path class="cls-3" d="M163.09,105.6l.18,2.06a7.25,7.25,0,0,1,0,1,3.82,3.82,0,0,1-.23,1H163a3.8,3.8,0,0,1-.22-1,5.18,5.18,0,0,1,.05-1l.17-2.06h.05Z"/><path class="cls-3" d="M166.51,103.69a7.21,7.21,0,0,1,.82,2.92,5.68,5.68,0,0,1,0,1.54,4,4,0,0,1-.56,1.44h0s0,0,0,0c0-.51.07-1,.11-1.49s.11-1,.12-1.46a7.09,7.09,0,0,0-.46-2.91l0,0Z"/></g><g id="eyebrows"><path class="cls-3" d="M134.44,93.94c-1.36,1.71-3.26,2.26-5.07,3.21-5.31,2.52-10.93,4.27-16.34,6.48-7.26,3-13.76,7.57-21.34,9.77,5.47-6,12.78-9.42,20-12.79a113.11,113.11,0,0,1,16.41-6.77c2-.51,3.76-1.38,5.92-1l.43,1.13Z"/><path class="cls-3" d="M148.42,107.67c3.29-10,13-19.21,24.18-18.55a11.7,11.7,0,0,1,9.17,5.47c-12.35-7.52-25.06,4.61-33.35,13.08Z"/></g></g></svg>