<svg id="artwork" xmlns="http://www.w3.org/2000/svg" viewBox="0 0 282 282"><defs><style>.cls-1{fill:#bdb3ad;}.cls-2{fill:#b88d6e;}.cls-3,.cls-4{fill:#2d2d2d;}.cls-4,.cls-7{fill-rule:evenodd;}.cls-5,.cls-7{fill:none;stroke:#2d2d2d;stroke-miterlimit:10;}.cls-6{fill:#f2eae4;}.cls-7{stroke-width:0.6px;}</style></defs><g id="eyes_tired6"><g id="white"><path class="cls-1" d="M108.94,115.82c-3.57,1.38-7.88,2.73-8.77,3.9s-.77,3.54-.51,5.11,4.62,4.4,7.41,5.41,7.71.55,10.22.33,6.08-2.2,7.11-2.84,4-2.56,4.45-4.44a6.47,6.47,0,0,0-.08-4c-.42-1.58-3.44-4-6.79-3.82S108.94,115.82,108.94,115.82Z"/><path class="cls-1" d="M171.45,117c3.49,1.16,5.7,2.65,6.6,3.74a7,7,0,0,1,1.26,4.72c-.18,1.54-4.22,4.48-6.86,5.59s-7.37.91-9.79.82-5.92-1.84-6.94-2.41a43.58,43.58,0,0,1-5.77-5c-1.94-2.13-1.26-3.15-1.13-5.38s5.87-3.65,9.09-3.64S171.45,117,171.45,117Z"/></g><g id="iris"><path class="cls-2" d="M118.61,114.07a2.28,2.28,0,0,0-.4-.17c-3.21.66-6.44,1.2-9.61,2.06a7,7,0,0,0-.88,5.63,6.89,6.89,0,0,0,6,3.83c2.49-.11,5.5-.52,6.26-2.12s1.41-3.48,1-4.91S119.49,114.58,118.61,114.07Z"/><path class="cls-2" d="M167,116.13c-2.71-.81-5.51-.47-8.3-.5a10.38,10.38,0,0,0-1.78,3.89c-.3,1.34.39,3,1.15,4.51s3.55,1.7,5.86,1.68a6.42,6.42,0,0,0,5.41-3.84,6.6,6.6,0,0,0-1.21-5.41Z"/></g><g id="iris_outline"><path class="cls-3" d="M114.11,118.93s0-.05.07,0a.15.15,0,0,1,0,.06v3a13.13,13.13,0,0,1-.07,1.54,9.37,9.37,0,0,1-.35,1.53h0a8.18,8.18,0,0,1-.1-1.56c0-.52.11-1,.17-1.55l.18-1.53.09-.77,0-.38,0-.19s0-.19,0-.11h0Z"/><path class="cls-3" d="M114.78,119.62c.52.75,1,1.52,1.55,2.26a12.49,12.49,0,0,1,.84,1.08,4.24,4.24,0,0,1,.58,1.28l0,0h0c-.35-.33-.63-.67-.94-1a8.53,8.53,0,0,1-.77-1.15c-.44-.81-.84-1.64-1.26-2.46a0,0,0,0,1,0,0Z"/><path class="cls-3" d="M115.39,119.12h-.07l0-.05a26.47,26.47,0,0,0,2.59.94c.43.18.88.27,1.31.47a3.12,3.12,0,0,1,1.19.84,0,0,0,0,1,0,0h0c-.46-.16-.88-.29-1.33-.41a7.53,7.53,0,0,1-1.31-.57,25.81,25.81,0,0,1-2.45-1.26l-.1-.07h.18a0,0,0,0,1,0,0A0,0,0,0,1,115.39,119.12Z"/><path class="cls-3" d="M114.9,118.47a6.51,6.51,0,0,1,1.77-1.62,10.5,10.5,0,0,1,1-.66c.35-.17.68-.36,1.06-.52l0,0v0a3,3,0,0,1-.82.91,7.11,7.11,0,0,1-1,.57,6.34,6.34,0,0,0-1.93,1.31h0Z"/><path class="cls-3" d="M114.15,118.77l-.21-1.55a3.38,3.38,0,0,1-.06-.77,2.27,2.27,0,0,1,.21-.78h0a2.29,2.29,0,0,1,.24.77,2.92,2.92,0,0,1,0,.78l-.14,1.55h0Z"/><path class="cls-3" d="M113,119.61l0,0s0,0,0,0h0a5.32,5.32,0,0,1-1,.92l-1.11.84a10.88,10.88,0,0,1-1.2.72,5.42,5.42,0,0,0-1.14.74h0a0,0,0,0,1,0,0,2.23,2.23,0,0,1,.92-1.13,9.34,9.34,0,0,1,1.26-.64l1.18-.68a5.56,5.56,0,0,0,1.12-.77v0h0s0,0,0,0,0,0,0,0v0h0Z"/><path class="cls-3" d="M112.86,118.67c-.57-.25-1.13-.56-1.67-.86a4.93,4.93,0,0,1-.8-.47,4.24,4.24,0,0,1-.67-.67,0,0,0,0,1,0,0l0,0a2.71,2.71,0,0,1,.91.3,5.23,5.23,0,0,1,.75.56c.48.4,1,.79,1.47,1.14a0,0,0,0,1,0,0Z"/><path class="cls-3" d="M108.61,116.65a6.58,6.58,0,0,0-1,3.4,4.5,4.5,0,0,0,1.47,3.14,7.42,7.42,0,0,0,3.08,1.7,8.34,8.34,0,0,0,3.51.3A6.83,6.83,0,0,0,118.9,124a5.08,5.08,0,0,0,1.83-2.84,7.15,7.15,0,0,0-1.85-6.52s0,0,0,0,0,0,0,0a6.94,6.94,0,0,1,2.29,6.68,5.18,5.18,0,0,1-2,3.11,7.26,7.26,0,0,1-3.48,1.25,8.62,8.62,0,0,1-3.64-.4,7.72,7.72,0,0,1-3.15-1.84,4.74,4.74,0,0,1-1.45-3.29,6.63,6.63,0,0,1,1.09-3.43.05.05,0,0,1,0,0A0,0,0,0,1,108.61,116.65Z"/><path class="cls-3" d="M163.25,119.71c0-.08,0,.06,0,.09l0,.18.05.36.12.71.24,1.41a13.73,13.73,0,0,1,.23,1.43,7,7,0,0,1,0,1.45h0a8.23,8.23,0,0,1-.41-1.4,9.74,9.74,0,0,1-.12-1.43l-.07-1.45,0-.72v-.64s0,0,0,0,0,0,.06,0a0,0,0,0,1,0,0Z"/><path class="cls-3" d="M162.75,120.38c-.35.78-.68,1.58-1.05,2.36a8.72,8.72,0,0,1-.65,1.11,10.79,10.79,0,0,1-.84,1h-.05a4.07,4.07,0,0,1,.47-1.23,10.78,10.78,0,0,1,.73-1c.46-.71.89-1.44,1.34-2.17h.05Z"/><path class="cls-3" d="M162.12,119.88h.06l.12,0-.1.07a21.49,21.49,0,0,1-2.2,1.3,5.92,5.92,0,0,1-1.18.59c-.41.14-.79.27-1.21.43h0a0,0,0,0,1,0,0,2.66,2.66,0,0,1,1-.85c.4-.21.81-.31,1.2-.5a23.23,23.23,0,0,0,2.35-1l0,.05h-.07a0,0,0,0,1,0,0A0,0,0,0,1,162.12,119.88Z"/><path class="cls-3" d="M162.51,119.33a5.77,5.77,0,0,0-1.84-1.11,5.36,5.36,0,0,1-1-.49,2.58,2.58,0,0,1-.79-.82v0h0c.37.12.68.28,1,.42a10,10,0,0,1,.93.56,6,6,0,0,1,1.68,1.44,0,0,0,0,1,0,0Z"/><path class="cls-3" d="M163.21,119.55l-.22-1.44a2.93,2.93,0,0,1-.07-.72,2.28,2.28,0,0,1,.2-.73h0a2.09,2.09,0,0,1,.25.71,3,3,0,0,1,0,.73l-.13,1.44h0Z"/><path class="cls-3" d="M164.3,120.29l0,0v0c0-.06,0,0,0,0h0a4.4,4.4,0,0,0,1.06.66l1.12.57a8.94,8.94,0,0,1,1.19.54,2.06,2.06,0,0,1,.89,1l0,0h0a5.38,5.38,0,0,0-1.09-.61,9,9,0,0,1-1.13-.62l-1.06-.73a5.14,5.14,0,0,1-1-.82h0s0,0,0,0v0a0,0,0,0,1,0,0Z"/><path class="cls-3" d="M164.41,119.35c.56-.42,1.09-.89,1.62-1.36a5.35,5.35,0,0,1,.83-.66,3.42,3.42,0,0,1,1-.39l0,0v0a5.37,5.37,0,0,1-.76.75,7.31,7.31,0,0,1-.87.58c-.6.37-1.2.75-1.83,1.07l0,0A0,0,0,0,1,164.41,119.35Z"/><path class="cls-3" d="M168.07,117a6.68,6.68,0,0,1,1.34,3,4.4,4.4,0,0,1-.91,3.2,7.61,7.61,0,0,1-6,2.76,6.94,6.94,0,0,1-3.33-.78,4.81,4.81,0,0,1-2.21-2.63,6.37,6.37,0,0,1,1.4-6.38,0,0,0,0,1,0,0s0,0,0,0a6.62,6.62,0,0,0-1,6.17,4.67,4.67,0,0,0,2,2.38,6.52,6.52,0,0,0,3.08.81,7.3,7.3,0,0,0,5.8-2.5,4.25,4.25,0,0,0,1-3,6.65,6.65,0,0,0-1.25-3,0,0,0,0,1,0,0S168.06,117,168.07,117Z"/></g><g id="pupil"><path class="cls-4" d="M114.35,119.69l1.49,1.38a2,2,0,0,1-2.84.18,2.15,2.15,0,0,1-.13-2.94,2,2,0,0,1,2.84-.18,2,2,0,0,1,.54.84Z"/><path class="cls-4" d="M163.1,120.41l-1.31,1.35a1.81,1.81,0,0,0,2.62,0,2,2,0,0,0,0-2.74,1.81,1.81,0,0,0-2.62,0,1.77,1.77,0,0,0-.46.81Z"/><path class="cls-4" d="M114.35,119.69l1.49,1.38a2,2,0,0,1-2.84.18,2.15,2.15,0,0,1-.13-2.94,2,2,0,0,1,2.84-.18,2,2,0,0,1,.54.84Z"/><path class="cls-4" d="M163.1,120.41l-1.31,1.35a1.81,1.81,0,0,0,2.62,0,2,2,0,0,0,0-2.74,1.81,1.81,0,0,0-2.62,0,1.77,1.77,0,0,0-.46.81Z"/><path class="cls-5" d="M114.35,119.69l1.49,1.38a2,2,0,0,1-2.84.18,2.15,2.15,0,0,1-.13-2.94,2,2,0,0,1,2.84-.18,2,2,0,0,1,.54.84Z"/><path class="cls-5" d="M163.1,120.41l-1.31,1.35a1.81,1.81,0,0,0,2.62,0,2,2,0,0,0,0-2.74,1.81,1.81,0,0,0-2.62,0,1.77,1.77,0,0,0-.46.81Z"/></g><g id="spec"><ellipse class="cls-6" cx="118.23" cy="117.49" rx="2.22" ry="1.93" transform="translate(-18.59 212.68) rotate(-79.65)"/><ellipse class="cls-6" cx="159.44" cy="118.54" rx="1.78" ry="2.07" transform="translate(-20.72 34.78) rotate(-11.7)"/></g><g id="outline"><path class="cls-3" d="M130.42,119.43a21,21,0,0,0-8.84-3.31,24.38,24.38,0,0,0-4.65-.24,23.76,23.76,0,0,0-4.55.82c-1.51.42-3,1-4.49,1.55l-4.43,1.59A92.09,92.09,0,0,1,94.29,123l-.14-.27a37,37,0,0,1,8.13-5.63,17.32,17.32,0,0,1,2.35-1c.82-.27,1.56-.47,2.36-.69,1.58-.42,3.21-.77,4.86-1.06a24.21,24.21,0,0,1,5.05-.45,23.4,23.4,0,0,1,5,.77,20.73,20.73,0,0,1,8.73,4.51Z"/><path class="cls-3" d="M99.38,123.54a6.16,6.16,0,0,0,2.34,3.92,13.4,13.4,0,0,0,4.08,2.23,20.8,20.8,0,0,0,9.23.87,24.11,24.11,0,0,0,8.71-3.06,27.77,27.77,0,0,0,3.79-2.7,36.1,36.1,0,0,0,3.32-3.34l.08.06a20.66,20.66,0,0,1-6.67,6.83,21.74,21.74,0,0,1-18.63,1.8,13.54,13.54,0,0,1-4.11-2.46,6.32,6.32,0,0,1-2.24-4.14Z"/><path class="cls-3" d="M126.21,108.88a13.81,13.81,0,0,1,.23,2.49,6.67,6.67,0,0,1-.08,1.26,4.66,4.66,0,0,1-.41,1.19,0,0,0,0,1,0,0h0c0-.42,0-.83.07-1.24s.11-.81.15-1.21a12.74,12.74,0,0,0,0-2.47h0Z"/><path class="cls-3" d="M119.56,109.64l.25,1.58a4.27,4.27,0,0,1,.1.79,3.21,3.21,0,0,1-.1.81h0a2.89,2.89,0,0,1-.23-.78,4.26,4.26,0,0,1,0-.8v-1.59h0Z"/><path class="cls-3" d="M110.85,109.72a10.53,10.53,0,0,1,.67,1.83,4.4,4.4,0,0,1,.18,1,3.24,3.24,0,0,1-.11,1h0a8.64,8.64,0,0,1-.22-1c-.06-.31-.06-.63-.1-.94a10.21,10.21,0,0,0-.42-1.88h0Z"/><path class="cls-3" d="M103.57,111l.77,2a7.74,7.74,0,0,1,.36,1,5.53,5.53,0,0,1,.17,1.08h0a0,0,0,0,1,0,0,5.23,5.23,0,0,1-.48-1,7.27,7.27,0,0,1-.29-1l-.53-2.11h0Z"/><path class="cls-3" d="M97.56,112.5a13.94,13.94,0,0,0,1.13,2.41c.22.39.47.75.69,1.14s.43.77.62,1.19h0a0,0,0,0,1,0,0,5.44,5.44,0,0,1-.91-1,7.67,7.67,0,0,1-.64-1.2,14.48,14.48,0,0,1-.9-2.54h0Z"/><path class="cls-3" d="M100.85,120.14a43.48,43.48,0,0,1,13.37-5.82,35.55,35.55,0,0,1,7.26-1.15,29.3,29.3,0,0,1,7.3.61v.1c-2.44,0-4.84.07-7.23.29a66.09,66.09,0,0,0-7.14.93,46.39,46.39,0,0,0-13.49,5.12Z"/><path class="cls-3" d="M111.29,135.79a10.68,10.68,0,0,1-4.73-.35,14.44,14.44,0,0,1-4.28-2.14,17.8,17.8,0,0,1-3.47-3.3,23.62,23.62,0,0,1-2.54-4s0,0,0,0h0c.94,1.28,1.86,2.57,2.89,3.75a23.53,23.53,0,0,0,3.32,3.3,12.13,12.13,0,0,0,8.76,2.76,0,0,0,0,1,0,0S111.31,135.79,111.29,135.79Z"/><path class="cls-3" d="M147.89,117.55a21.46,21.46,0,0,1,9.13-3.29,24.34,24.34,0,0,1,9.85.91,42,42,0,0,1,9.16,3.3,26.12,26.12,0,0,1,7.68,6.07l-.17.25-8.8-3.61c-2.89-1.15-5.68-2.59-8.63-3.73a23.8,23.8,0,0,0-9-1.72,22,22,0,0,0-9.08,2.08Z"/><path class="cls-3" d="M179.63,124.15a6.25,6.25,0,0,1-1.94,4.1,13.1,13.1,0,0,1-3.82,2.59,20.72,20.72,0,0,1-18-.82,21.66,21.66,0,0,1-3.73-2.78,21.36,21.36,0,0,1-3-3.54l.08-.06a33.28,33.28,0,0,0,3.35,3.06,25.89,25.89,0,0,0,3.75,2.44,23,23,0,0,0,8.5,2.55,19.83,19.83,0,0,0,8.82-1.3,12.94,12.94,0,0,0,3.81-2.36,6.09,6.09,0,0,0,2.05-3.88Z"/><path class="cls-7" d="M179.81,122.36c-8-7.53-9.9-6.34-21.6-9.75"/><path class="cls-3" d="M172.61,133.1a35,35,0,0,0,3.58-3.2c.56-.57,1.07-1.17,1.64-1.74s1.11-1.14,1.73-1.68h0a0,0,0,0,0,0,0,13.19,13.19,0,0,1-1.4,2,16.33,16.33,0,0,1-1.74,1.69,35.14,35.14,0,0,1-3.83,2.95h0S172.6,133.1,172.61,133.1Z"/><path class="cls-3" d="M113.19,144.19a44.43,44.43,0,0,0,9.76-9.5,54.72,54.72,0,0,0,3.73-5.7,62.19,62.19,0,0,0,3.08-6.1s0,0,0,0,0,0,0,0a34.84,34.84,0,0,1-2.7,6.32,39.06,39.06,0,0,1-3.84,5.71,44.8,44.8,0,0,1-10,9.29,0,0,0,0,1,0,0A0,0,0,0,1,113.19,144.19Z"/><path class="cls-3" d="M148.29,121.31A46.92,46.92,0,0,0,155.92,135a56.32,56.32,0,0,0,5.33,5.69,33.37,33.37,0,0,0,6.19,4.73l0,.09a20.69,20.69,0,0,1-6.82-4.07,35.22,35.22,0,0,1-5.3-5.95,44.64,44.64,0,0,1-7.08-14.1Z"/><path class="cls-3" d="M149,112.3a4.31,4.31,0,0,0,.33,1.18,5.36,5.36,0,0,1,.26.54,3.26,3.26,0,0,1,.17.6,0,0,0,0,0,0,0h0a1.32,1.32,0,0,1-.47-.47,1.64,1.64,0,0,1-.21-.61,4.18,4.18,0,0,1-.08-1.27h0Z"/><path class="cls-3" d="M151.64,109.87a6.88,6.88,0,0,0-.13,2c0,.33.09.66.11,1s.06.66.06,1h0a3.14,3.14,0,0,1-.39-1,4.11,4.11,0,0,1,0-1,7,7,0,0,1,.39-2h0Z"/><path class="cls-3" d="M154.15,109.58l.14,1.61a4.35,4.35,0,0,1,.05.8,3.32,3.32,0,0,1-.16.81h0a3.19,3.19,0,0,1-.18-.8,5.49,5.49,0,0,1,0-.81l.12-1.61h0Z"/><path class="cls-3" d="M157.88,108.09l0,2a7,7,0,0,1,0,1,5.09,5.09,0,0,1-.21,1h0a5.07,5.07,0,0,1-.12-1,8.59,8.59,0,0,1,.08-1l.22-2h0Z"/></g><g id="eyebrows"><path class="cls-3" d="M126.11,93.22c.31,1-.23,1.21-.56,1.58a37.89,37.89,0,0,1-8.29,4.85c-3.23,1.59-6.61,2.8-9.81,4.37s-6.13,3.64-9.31,5.18-6.3,3.13-9.61,4.7l-.21-.25a32.15,32.15,0,0,1,8.25-7.21c3.05-2,6.54-3.16,9.78-4.71S112.76,98.46,116,97l7.18-3.35c.37-.2.76-.38,1.15-.57s.52-.56,1.54-.1l.22.23Z"/><path class="cls-3" d="M155.63,96.43c1-.21,1,.08,1.28.28a48.25,48.25,0,0,0,5.93,3.86c2.45,1.35,4.85,2.9,7.41,4.15,3.93,1.75,8.1,3.19,11.4,6.14a12.36,12.36,0,0,1,3,3.35l-.23.23c-2.63-1.22-5.24-2.14-7.83-3.31s-4.92-2.85-7.48-4.14c-4.51-2.28-9.54-4.14-13.08-8a6.85,6.85,0,0,1-1-1.52,1.08,1.08,0,0,1,.62-1.07Z"/><path class="cls-3" d="M126.61,96.83A9.25,9.25,0,0,0,128,93.39a8.58,8.58,0,0,0-.13-1.82c-.08-.62-.24-1.22-.32-1.86,0,0,0,0,0,0h0a6.38,6.38,0,0,1,.76,1.78,4.84,4.84,0,0,1,0,2,9.23,9.23,0,0,1-1.76,3.41,0,0,0,0,1,0,0Z"/><path class="cls-3" d="M152.58,98.43c.39-.82.59-1.68.91-2.55a2.71,2.71,0,0,1,.79-1.19,2.66,2.66,0,0,1,1.29-.56s0,0,0,0,0,0,0,0a10.51,10.51,0,0,0-1,.88,4,4,0,0,0-.76,1c-.41.78-.74,1.65-1.23,2.4h0Z"/></g></g></svg>