<svg id="artwork" xmlns="http://www.w3.org/2000/svg" viewBox="0 0 282 282"><defs><style>.cls-1{fill:#534236;fill-rule:evenodd;}.cls-2{fill:#2d2d2d;}</style></defs><g id="mouth_happy3"><g id="lip_colour" data-name="lip colour"><path class="cls-1" d="M123.15,178.27s0,4.18,6.51,6.76c2.28.91,7.35,2.7,10.45,2.77,7.35.17,11.74-2.23,14-3,6-2.1,4.27-5,4.27-5l1-.42a38.88,38.88,0,0,1-4.26-3.67,7.82,7.82,0,0,0-5.44-2.53c-3.28-.26-5.55,1.74-9.17,2-1.45.11-5.77-3.09-9.69-1.45-2.46,1-4.07,1.08-6.18,3.08a3.93,3.93,0,0,1-2.45,1Z"/></g><g id="outine"><path class="cls-2" d="M167.05,175.68c-1.82,1.19-3.91,1.89-5.72,3.08a14.07,14.07,0,0,1-3,1.24c-3.12,1.09-6.44.84-9.66,1.45-10.47,1.39-23.2,2-30.69-6.87l.07-.07c8.19,7.64,20.12,7.28,30.54,6.29,3.19-.55,6.52-.17,9.64-1.16,2.15-.46,3.91-1.79,5.91-2.58,1-.44,2-.93,2.9-1.46l.05.08Z"/><path class="cls-2" d="M122,177.68c2,.09,2.78-1.38,4.13-2.46a19.65,19.65,0,0,1,7.22-2.38,23.7,23.7,0,0,1,7.3,2.15l-.33,0c3.49-1.17,6.84-2.55,10.64-2.48,2.77.4,4.66,3.2,6.5,5a8.86,8.86,0,0,0,2,1.78l0,.1a7.63,7.63,0,0,1-2.25-1.54c-1.2-1-2.78-2.59-4.05-3.45-2.22-1.71-4.82-.65-7.35-.16-1.72.43-3.44.93-5.12,1.5-.19.06-.15.08-.33,0a22.71,22.71,0,0,0-6.95-2.33,21,21,0,0,0-7,2.13c-.69.41-1.21,1.09-1.91,1.59a4,4,0,0,1-2.43.65v-.1Z"/><path class="cls-2" d="M158.31,179.6c2.29,3.48-4.62,5.71-6.93,6.81-8.37,3.53-18.93,2.52-25.87-3.57-1.26-1.24-2.68-2.81-2.52-4.7h.1c0,1.81,1.42,3.25,2.7,4.38,7,5.62,17,6.09,25.36,3.25a35.13,35.13,0,0,0,4.92-2.13,5.75,5.75,0,0,0,2.09-1.55,2.14,2.14,0,0,0,.07-2.44l.08-.06Z"/><path class="cls-2" d="M111.7,177.7a16.61,16.61,0,0,0,2.52-2.51c.38-.46.71-.95,1.08-1.41s.74-.93,1.16-1.37h0a0,0,0,0,1,0,0,7.12,7.12,0,0,1-.8,1.64,8.61,8.61,0,0,1-1.18,1.38,16.42,16.42,0,0,1-2.79,2.29s0,0,0,0S111.69,177.71,111.7,177.7Z"/></g></g></svg>