<svg id="artwork" xmlns="http://www.w3.org/2000/svg" viewBox="0 0 282 282"><defs><style>.cls-1{fill:#534236;fill-rule:evenodd;}.cls-2{fill:#2d2d2d;}</style></defs><g id="mouth_neutral4"><g id="lip_colour" data-name="lip colour"><path class="cls-1" d="M124,181.55c1.18,1.53,3,4.23,4.93,5.46s6.59,2.2,9.53,2.29c7,.21,11.6-1.24,13.6-2.54a10.81,10.81,0,0,0,4.76-6.09c.26-.75,3.67-.25,2.21-.71-3.29-1-8.22-6.57-10-6.74-3.11-.3-6.39.95-9.83.7-4.83-.35-6.26-.5-7.58.56-3.13,1.94-5,4.33-7.83,5.62C122.7,180.6,124,181.55,124,181.55Z"/></g><g id="outine"><path class="cls-2" d="M163.21,179.88c-3.79.42-7.55.86-11.32,1.37a21.21,21.21,0,0,1-5.72.5c-5.53-.31-11.67,0-17.14-.53-3.3-.26-8.07-.86-11.36-.82v-.1c5.67-.75,11.44.07,17.11.24,3.31,0,8.07.37,11.42.56,2.87.36,5.64-.55,8.49-.55,2.82-.38,5.68-.55,8.52-.77v.1Z"/><path class="cls-2" d="M122.45,180c2.71-.18,4.26-2.69,6.32-4.13l2.1-1.5c1.08-.72,2.31-1.56,3.73-1.22l1.27.11c3.52.43,6.72-.93,10.23-.93a14.59,14.59,0,0,1,4,.55c2.06.9,3.53,2.71,5.14,4.1a23,23,0,0,0,4.1,3l0,.09c-3.24-1.17-5.76-3.88-8.49-5.76-4.67-2.4-10,.28-15-.45-.41,0-1.53-.18-1.93-.24a5.26,5.26,0,0,0-2.75,1.14L129,176.21c-2.09,1.36-3.83,3.84-6.55,3.89V180Z"/><path class="cls-2" d="M157,180.39a16.29,16.29,0,0,1-4,6.14c-3.48,2.26-7.7,3-11.78,3.11s-8.51,0-12.13-2.08a18,18,0,0,1-4.87-5.54l.08-.06c2,2.29,4.27,5.07,7.37,5.7,6.91,1.46,14.74,2.18,21.12-1.43a16.33,16.33,0,0,0,4.11-5.84Z"/></g></g></svg>