<svg id="artwork" xmlns="http://www.w3.org/2000/svg" viewBox="0 0 282 282"><defs><style>.cls-1{fill:#d9cec5;}.cls-2{fill:#824413;}.cls-3,.cls-4{fill:#2d2d2d;}.cls-4{fill-rule:evenodd;}.cls-5{fill:none;stroke:#2d2d2d;stroke-miterlimit:10;}.cls-6{fill:#f2eae4;}.cls-7{fill:#3a120e;}</style></defs><g id="eyes_shocked3"><g id="white"><path class="cls-1" d="M107.21,121.24a22.3,22.3,0,0,0-10.89,7.41c-1.9,2.72-.08,7.06,2.91,8.87,4.71,2.84,6.81-.45,12.07.06,4.76.46,7.55,1.71,9.78,1.11,1.73-.47,3.12-2.25,4.84-5.34,1.22-2.21,1.84-6.62-.77-9.22-1.2-1.19-6.12-2.85-7.8-3.06A28.57,28.57,0,0,0,107.21,121.24Z"/><path class="cls-1" d="M169.11,120.71c3.51.83,9.41,6.17,11.61,9.32,1.89,2.72.15,7.6-2.84,9.4-4.71,2.85-7.3-.48-12.57-.06a51,51,0,0,0-8.11,1.53c-2.74.68-4.76-2.3-6-6.36-.88-2.79-2.41-6.32.8-9.35a25.63,25.63,0,0,1,5.85-3.93A22.72,22.72,0,0,1,169.11,120.71Z"/></g><g id="iris"><path class="cls-2" d="M108.39,137.09a9.42,9.42,0,0,0,2.76.11,8.69,8.69,0,0,0,4.93-1.94c1.82-1.64,1.83-3.32,1.11-5.66a6.21,6.21,0,0,0-2.48-3c-2.3-1.82-5.89-1.42-8.25.08a5.49,5.49,0,0,0-2.47,6.15,4.24,4.24,0,0,0,.93,2.14A4.2,4.2,0,0,0,107,136.7C107.18,136.77,108.22,137,108.39,137.09Z"/><path class="cls-2" d="M163.5,139.24a9.52,9.52,0,0,0,2.72.18,9,9,0,0,0,5-2c1.83-1.64,1.83-3.32,1.12-5.66a6.23,6.23,0,0,0-2.49-3c-2.3-1.83-5.89-1.42-8.24.07A5.51,5.51,0,0,0,159.1,135c.32,1.11.17,1.52.86,2.41a3.83,3.83,0,0,0,2.17,1.47C162.29,138.91,163.33,139.18,163.5,139.24Z"/></g><g id="iris_outline"><path class="cls-3" d="M104.91,131.94a40.93,40.93,0,0,1,5.7,1.09,1.83,1.83,0,0,1,.33.11c0,.06,0,0,0,0v0c.08,0-.07,0-.11,0l-.19,0a42.63,42.63,0,0,1-5.68-1.15Z"/><path class="cls-3" d="M105.74,127.47c1.18.88,3,1.91,4,2.9a18.37,18.37,0,0,1-4-2.9Z"/><path class="cls-3" d="M115.63,128.11a28.16,28.16,0,0,1-4.09,3l0,0h.07v0l-.15.07c1.13-1.34,2.91-2,4.18-3Z"/><path class="cls-3" d="M112.69,126.19c-.88,1.31-.53,3.36-2,4.31,1-1.23,1-3.11,2-4.31Z"/><path class="cls-3" d="M117.49,132.63a29.21,29.21,0,0,1-5-1.24c-.2-.07-.57-.13-.68-.32,1.93.34,3.84,1.18,5.72,1.56Z"/><path class="cls-3" d="M108.68,135.91c.79-.71.54-2,1-2.89.13-.28.29-.74.56-.88,0,0,0,0,0,0s0,0,0,0h0s.06,0,0,0c-.32.59-.43,1.32-.74,1.93s-.25,1.59-.89,1.84Z"/><path class="cls-3" d="M113.88,136c-1-1.55-2.38-2.86-3.19-4.55a27.56,27.56,0,0,1,3.19,4.55Z"/><path class="cls-3" d="M110.29,137.15c13.22-.24,5.58-16.39-3.54-10-2.33,2-3.27,6-1,8.35a6.76,6.76,0,0,0,4.5,1.64v.1c-8.43,1.17-9-9.93-1.74-12,4.39-1.43,9.43,2.07,9.34,6.7,0,3.9-4.28,5.52-7.6,5.35v-.1Z"/><path class="cls-3" d="M165.22,139.37c13.22-.25,5.58-16.4-3.54-10-2.32,2-3.27,6-1,8.34a6.78,6.78,0,0,0,4.5,1.65v.1c-8.43,1.16-9-9.93-1.74-12.06,4.39-1.43,9.43,2.08,9.34,6.71,0,3.9-4.28,5.52-7.6,5.35v-.1Z"/><path class="cls-3" d="M170.84,132a52,52,0,0,1-5.69,1.13l-.19,0s-.18.06-.1,0v0s0,0-.05,0a1.85,1.85,0,0,1,.33-.12,36.38,36.38,0,0,1,5.7-1.06Z"/><path class="cls-3" d="M170.29,129.11c-1.4,1.27-3.3,3.29-4.93,4.17a24.62,24.62,0,0,1,2.44-2.11s2.49-2.15,2.49-2.06Z"/><path class="cls-3" d="M160.5,130c1.26,1.16,3,1.7,4.16,3.07l-.15-.07v0l.07,0a13.13,13.13,0,0,1-2.12-1.4c-.61-.53-1.53-.92-2-1.59Z"/><path class="cls-3" d="M163.44,128.09c.92,1.3,1,3.07,1.93,4.33-1.39-1-1.13-3-1.93-4.33Z"/><path class="cls-3" d="M158.62,134.52c1.95-.32,3.77-1.22,5.72-1.53-.1.19-.48.24-.68.32a26,26,0,0,1-5,1.21Z"/><path class="cls-3" d="M168.73,138c-.65-.37-.68-1.23-.89-1.86s-.42-1.34-.74-1.93c0,0,0,0,.05,0h0s0,0,0,0,0,0,0,0c.27.14.43.59.56.88.48.92.29,2.19,1,2.91Z"/><path class="cls-3" d="M162,138.65a27.59,27.59,0,0,1,3-4.19,28.41,28.41,0,0,1-3,4.19Z"/></g><g id="pupil"><path class="cls-4" d="M108.85,133.19l-1.41-.79a4,4,0,0,1,3.21-3.5c1.55-.17,2.67,1.13,2.47,2.88a4,4,0,0,1-3.2,3.5,2.24,2.24,0,0,1-1.31-.24Z"/><path class="cls-4" d="M164.63,135.38l.7,1.45a4,4,0,0,0,3.7-3c.27-1.55-1-2.74-2.72-2.64a4,4,0,0,0-3.7,3,2.18,2.18,0,0,0,.16,1.32Z"/><path class="cls-4" d="M108.85,133.19l-1.41-.79a4,4,0,0,1,3.21-3.5c1.55-.17,2.67,1.13,2.47,2.88a4,4,0,0,1-3.2,3.5,2.24,2.24,0,0,1-1.31-.24Z"/><path class="cls-4" d="M164.63,135.38l.7,1.45a4,4,0,0,0,3.7-3c.27-1.55-1-2.74-2.72-2.64a4,4,0,0,0-3.7,3,2.18,2.18,0,0,0,.16,1.32Z"/><path class="cls-5" d="M108.85,133.19l-1.41-.79a4,4,0,0,1,3.21-3.5c1.55-.17,2.67,1.13,2.47,2.88a4,4,0,0,1-3.2,3.5,2.24,2.24,0,0,1-1.31-.24Z"/><path class="cls-5" d="M164.63,135.38l.7,1.45a4,4,0,0,0,3.7-3c.27-1.55-1-2.74-2.72-2.64a4,4,0,0,0-3.7,3,2.18,2.18,0,0,0,.16,1.32Z"/></g><g id="spec"><path class="cls-6" d="M114.33,127.9c-1.56,1.26.88,3.2,2.62,3.08a2,2,0,0,0,1.93-1.56c.13-1.8-3.12-2.61-4.5-1.57C114.37,127.87,114.35,127.88,114.33,127.9Z"/><path class="cls-6" d="M168.69,131.63c-1.4-1.44,1.26-3.09,3-2.78a2,2,0,0,1,1.72,1.77c-.08,1.81-3.41,2.25-4.65,1Z"/></g><g id="outline"><path class="cls-3" d="M93.4,134c1.2-3.66,2.93-7.32,6-9.87a20.59,20.59,0,0,1,10.67-5c5.72-.32,12.69.53,16.16,5.65a10.36,10.36,0,0,1,1.5,5.61l-.25,0a10,10,0,0,0-2-5.13c-4.36-5.36-14.51-5-20.47-2.81-5.59,2.08-9.12,6.15-11.38,11.59L93.4,134Z"/><path class="cls-3" d="M100.73,139.94c3.36-1.38,6.91-2.62,10.62-2.58a20.88,20.88,0,0,1,5.44.81c1.76.51,3.49,1.12,5.21,1.75l0,0h0c-1.77-.49-3.5-1.07-5.27-1.52a22.29,22.29,0,0,0-5.38-.86c-3.66-.1-7.22,1.07-10.6,2.4h0Z"/><path class="cls-3" d="M95.49,130.2a4.55,4.55,0,0,0,.41,3.27,10.09,10.09,0,0,0,1.95,2.73,10.9,10.9,0,0,0,2.68,2,4.35,4.35,0,0,0,3.2.56h0a0,0,0,0,1,0,0,4.11,4.11,0,0,1-3.33-.35,10.63,10.63,0,0,1-4.61-4.92,4.52,4.52,0,0,1-.33-3.32h0S95.49,130.19,95.49,130.2Z"/><path class="cls-3" d="M126.32,125.1a7,7,0,0,1,.84,4.56,13.53,13.53,0,0,1-1.43,4.5,11.31,11.31,0,0,1-2.93,3.7,5.71,5.71,0,0,1-2.12,1.09,3.4,3.4,0,0,1-2.33-.25l0,0h0a3.5,3.5,0,0,0,2.28.11,5.84,5.84,0,0,0,2-1.11,12.12,12.12,0,0,0,2.9-3.61,13.25,13.25,0,0,0,1.5-4.41,6.94,6.94,0,0,0-.75-4.54s0,0,0,0S126.31,125.08,126.32,125.1Z"/><path class="cls-3" d="M128.53,116.67a13.82,13.82,0,0,1-1.11,2.37,9.05,9.05,0,0,1-.72,1.1,6.81,6.81,0,0,1-.93.93h0a0,0,0,0,1,0,0c.24-.36.5-.71.75-1.06s.51-.7.75-1a14.06,14.06,0,0,0,1.26-2.28h0A0,0,0,0,1,128.53,116.67Z"/><path class="cls-3" d="M116.12,113l-.39,2.47c-.07.41-.12.82-.22,1.23a10.86,10.86,0,0,1-.35,1.2h0c0-.42.08-.83.13-1.24s.18-.82.27-1.22l.57-2.43h0Z"/><path class="cls-3" d="M106,113.38a16.46,16.46,0,0,1,1.19,2.28,10.44,10.44,0,0,1,.47,1.21,6,6,0,0,1,.23,1.27,0,0,0,0,1,0,0h0l-.45-1.2-.42-1.21a16.24,16.24,0,0,0-1-2.34v0Z"/><path class="cls-3" d="M98.9,118l1,2c.16.34.33.67.46,1a8.22,8.22,0,0,1,.35,1.06h0a7.78,7.78,0,0,1-.55-1c-.17-.33-.29-.68-.43-1l-.81-2.07h0Z"/><path class="cls-3" d="M92.12,123.91a16.15,16.15,0,0,0,1.46,1.41c.26.21.54.38.81.58a9.75,9.75,0,0,1,.8.64v0h0a5.59,5.59,0,0,1-.92-.45,5.48,5.48,0,0,1-.8-.64,16.46,16.46,0,0,1-1.35-1.55h0Z"/><path class="cls-3" d="M96.81,139.07A4.12,4.12,0,0,0,98,142a3.08,3.08,0,0,0,1.33.84,2.42,2.42,0,0,0,1.57-.06s0,0,0,0h0a2.14,2.14,0,0,1-1.66.28,2.85,2.85,0,0,1-1.41-.94,4.25,4.25,0,0,1-1-3.11h0Z"/><path class="cls-3" d="M125.65,113.78a8.86,8.86,0,0,0,2.12-3.44,11,11,0,0,0,.45-2,12.32,12.32,0,0,0,.12-2v0a0,0,0,0,1,0,0,6.8,6.8,0,0,1,.11,2.06,7.71,7.71,0,0,1-.51,2,9.06,9.06,0,0,1-2.29,3.39h0S125.64,113.78,125.65,113.78Z"/><path class="cls-3" d="M183.48,136c-5.32-12.18-14.29-18.47-27.39-13.24a11,11,0,0,0-6.66,8.7h-.25a10.43,10.43,0,0,1,1.61-5.86c4.76-7,15.44-8.59,22.55-4.33,5.31,3.22,8.42,9,10.37,14.65l-.23.09Z"/><path class="cls-3" d="M176.38,141.88c-3.39-1.33-6.95-2.5-10.61-2.41a23.4,23.4,0,0,0-5.38.86c-1.77.46-3.5,1-5.27,1.53h0a0,0,0,0,1,0,0c1.73-.63,3.45-1.24,5.21-1.75a20.48,20.48,0,0,1,5.44-.82c3.71,0,7.26,1.2,10.62,2.59,0,0,0,0,0,0Z"/><path class="cls-3" d="M181.36,131.74a4.42,4.42,0,0,1-.19,3.47,11,11,0,0,1-1.89,3,8.55,8.55,0,0,1-2.82,2.2,4.38,4.38,0,0,1-3.51.18s0,0,0,0h0a4.77,4.77,0,0,0,3.4-.38,9.22,9.22,0,0,0,2.77-2.12,10.64,10.64,0,0,0,1.93-2.93,4.33,4.33,0,0,0,.28-3.41s0,0,0,0S181.35,131.73,181.36,131.74Z"/><path class="cls-3" d="M149.82,128.76a23.74,23.74,0,0,0,.8,4.08,23.24,23.24,0,0,0,1.46,3.88,10.92,10.92,0,0,0,2.35,3.34,3.86,3.86,0,0,0,1.75,1,3.45,3.45,0,0,0,2-.21h0a3.22,3.22,0,0,1-2.05.36,4.07,4.07,0,0,1-1.88-1,10.38,10.38,0,0,1-2.37-3.45,24.75,24.75,0,0,1-1.38-3.93,23.9,23.9,0,0,1-.72-4.11v0Z"/><path class="cls-3" d="M149.3,115.86a15.19,15.19,0,0,0,1.25,2.27c.24.36.51.7.76,1.05s.51.7.75,1.07h0a6.36,6.36,0,0,1-.93-.94,9.86,9.86,0,0,1-.73-1.09,15,15,0,0,1-1.11-2.37h0A0,0,0,0,1,149.3,115.86Z"/><path class="cls-3" d="M158.42,113.8l.57,2.43c.09.41.2.81.26,1.22a10.38,10.38,0,0,1,.13,1.25h0a10.26,10.26,0,0,1-.35-1.2c-.1-.4-.15-.82-.22-1.23l-.39-2.46a0,0,0,0,1,0,0Z"/><path class="cls-3" d="M169.43,114a11.71,11.71,0,0,0-.82,1.85l-.31,1c-.12.31-.22.63-.36.95h0a4.4,4.4,0,0,1,.14-1,5.88,5.88,0,0,1,.36-1,11.89,11.89,0,0,1,1-1.78h0Z"/><path class="cls-3" d="M177.34,118.07l-.82,2.07c-.13.34-.26.69-.42,1a9.29,9.29,0,0,1-.55,1h0a7.29,7.29,0,0,1,.34-1.06c.13-.35.31-.68.47-1l1-2h0Z"/><path class="cls-3" d="M185,125.84a15.18,15.18,0,0,1-1.35,1.54,4.55,4.55,0,0,1-.8.65,6.52,6.52,0,0,1-.92.45h0a8,8,0,0,1,.8-.64c.27-.2.55-.38.81-.59a16.15,16.15,0,0,0,1.46-1.41,0,0,0,0,1,0,0A0,0,0,0,1,185,125.82Z"/><path class="cls-3" d="M180.32,141a4.23,4.23,0,0,1-1,3.11,2.8,2.8,0,0,1-1.41.95,2.14,2.14,0,0,1-1.66-.28v0h0a2.49,2.49,0,0,0,1.57.06,3.18,3.18,0,0,0,1.33-.84,4.13,4.13,0,0,0,1.14-3h0Z"/><path class="cls-3" d="M151.27,111.7a2.53,2.53,0,0,1-1.32-1.09,4.73,4.73,0,0,1-.61-1.63,5.64,5.64,0,0,1-.06-1.74,6.42,6.42,0,0,1,.45-1.68h0a16.7,16.7,0,0,0-.23,1.69,8.68,8.68,0,0,0,0,1.69,4.58,4.58,0,0,0,.5,1.61,2.58,2.58,0,0,0,1.23,1.12h0A0,0,0,0,1,151.27,111.7Z"/><path class="cls-3" d="M127.57,130.44a10.36,10.36,0,0,0-1.76-5.35,10.11,10.11,0,0,0-4.46-3.42,24.1,24.1,0,0,0-11.2-1.37,20.91,20.91,0,0,0-10.35,4.4A16.41,16.41,0,0,0,96,128.93a31.19,31.19,0,0,0-2.5,5.13h0A33.89,33.89,0,0,1,96,128.9a16.24,16.24,0,0,1,3.75-4.3,20.4,20.4,0,0,1,10.41-4.46,23.63,23.63,0,0,1,11.27,1.42,10.15,10.15,0,0,1,4.45,3.5,10.39,10.39,0,0,1,1.72,5.38Z"/><path class="cls-3" d="M93.4,134c.28.22.31-.15.42-.34l.29-.66c.21-.43.4-.87.64-1.29a23.53,23.53,0,0,1,1.49-2.45,18.75,18.75,0,0,1,4-4.15,18.44,18.44,0,0,1,5-2.73,25.82,25.82,0,0,1,5.62-1.26,20.79,20.79,0,0,1,11.29,1.5,9.31,9.31,0,0,1,4.2,3.87,10.11,10.11,0,0,1,1,2.71c0,.24.09.48.13.72l.05.35c0,.13,0,.07.09.08s0-.12,0-.24l0-.36c0-.24,0-.47,0-.71a9.17,9.17,0,0,0-2.18-5.17,12.2,12.2,0,0,0-4.65-3.23,20,20,0,0,0-5.56-1.31,27.34,27.34,0,0,0-5.72,0,20.93,20.93,0,0,0-10.19,5c-2.93,2.51-4.65,6.12-5.84,9.73h0c1.18-3.61,2.88-7.23,5.81-9.77a20.92,20.92,0,0,1,10.2-5,27.72,27.72,0,0,1,5.76,0,20,20,0,0,1,5.6,1.31,12.29,12.29,0,0,1,4.71,3.27,9.23,9.23,0,0,1,2.21,5.26q0,.36.06.72l0,.36v.39s0,0-.07,0l-.28,0c-.09,0,0-.21-.07-.23l0-.35c0-.24-.08-.47-.13-.7a9.89,9.89,0,0,0-1-2.68,9.17,9.17,0,0,0-4.12-3.79,20.85,20.85,0,0,0-11.21-1.53,26.16,26.16,0,0,0-5.6,1.22,18.3,18.3,0,0,0-9,6.81,22,22,0,0,0-1.5,2.45c-.24.42-.44.86-.65,1.28l-.29.66c-.1.2-.14.57-.42.34Z"/><path class="cls-3" d="M100.7,140a47,47,0,0,1,5.19-1.84,19,19,0,0,1,5.45-.74,20.39,20.39,0,0,1,5.44.86c1.77.5,3.5,1.13,5.24,1.7h0c-1.75-.55-3.5-1.12-5.27-1.58a22.56,22.56,0,0,0-5.41-.82,20.67,20.67,0,0,0-5.42.7A41.94,41.94,0,0,0,100.7,140Z"/><path class="cls-3" d="M100.73,139.94c3.28-1.24,6.92-2.53,10.6-2.44a22.44,22.44,0,0,1,5.43.84l1.85.52-1.85-.61a20.68,20.68,0,0,0-5.41-.83,26.89,26.89,0,0,0-10.62,2.52h0c3.37-1.39,6.91-2.65,10.62-2.64a20.06,20.06,0,0,1,5.45.79l5.29,1.86s-.07,0-.12,0l-.17,0-.34-.09-.67-.19-1.36-.37-2.69-.75a23.15,23.15,0,0,0-5.41-.88c-3.66-.14-7.32,1.08-10.6,2.32Z"/><path class="cls-3" d="M95.49,130.18a4.42,4.42,0,0,0,.41,3.28,10.75,10.75,0,0,0,1.93,2.75,10.91,10.91,0,0,0,2.68,2,3.72,3.72,0,0,0,.76.35,3.72,3.72,0,0,0,2.49.15h0a3.34,3.34,0,0,1-1.69.14,3.46,3.46,0,0,1-.83-.2,4.55,4.55,0,0,1-.79-.33,9.75,9.75,0,0,1-2.73-2,9.5,9.5,0,0,1-1.93-2.82,4.59,4.59,0,0,1-.31-3.33Z"/><path class="cls-3" d="M95.49,130.2s0,0,0,0h0a4.53,4.53,0,0,0,.34,3.29,10.39,10.39,0,0,0,1.9,2.78,10.18,10.18,0,0,0,2.66,2.05,4.22,4.22,0,0,0,3.21.45l.13,0,.24-.09-.22.13s0,0,0,0,0,0,0,0l0,0a4.46,4.46,0,0,1-3.25-.54,11,11,0,0,1-2.66-2,10.42,10.42,0,0,1-2-2.79,4.6,4.6,0,0,1-.4-3.31h0a4.5,4.5,0,0,0,.45,3.29,10.07,10.07,0,0,0,2,2.72,11.69,11.69,0,0,0,2.65,1.93,4.35,4.35,0,0,0,3.12.54h0a.09.09,0,0,1,0,.18h0l-.15.06a4.39,4.39,0,0,1-3.34-.45,9.8,9.8,0,0,1-2.67-2.12,10.33,10.33,0,0,1-1.86-2.84,4.58,4.58,0,0,1-.29-3.31h0s0,0,0,0Z"/><path class="cls-3" d="M126.3,125.08a7,7,0,0,1,.87,4.57,13,13,0,0,1-1.46,4.5,11.21,11.21,0,0,1-3,3.67,5.83,5.83,0,0,1-2.1,1.08,3.56,3.56,0,0,1-2.32-.22h0a3.38,3.38,0,0,0,2.3.16,5.64,5.64,0,0,0,2-1.11,12.14,12.14,0,0,0,2.9-3.66,14,14,0,0,0,1.47-4.44,6.79,6.79,0,0,0-.74-4.55Z"/><path class="cls-3" d="M126.32,125.1c-.06,0,0,.06,0,.08l.08.13a2.1,2.1,0,0,1,.13.26,5.31,5.31,0,0,1,.23.55,6.33,6.33,0,0,1,.28,1.14,8.48,8.48,0,0,1,0,2.36,13.25,13.25,0,0,1-1.47,4.49,12,12,0,0,1-3,3.67,5.6,5.6,0,0,1-2.1,1.11,3.73,3.73,0,0,1-1.2.1,4.21,4.21,0,0,1-.6-.11l-.29-.09-.07,0,0,0s0-.05,0-.07,0,0,0-.05h0l.07,0a3.38,3.38,0,0,0,2.26.17,6.17,6.17,0,0,0,2-1.08,11.44,11.44,0,0,0,2.89-3.66,13.29,13.29,0,0,0,1.46-4.46,6.87,6.87,0,0,0-.82-4.55h0a7.08,7.08,0,0,1,.86,4.56,13.59,13.59,0,0,1-1.39,4.51,11.19,11.19,0,0,1-2.9,3.72,5.92,5.92,0,0,1-2.1,1.12,3.58,3.58,0,0,1-2.37-.19l-.06,0,0,0s0,0-.06-.12.14-.05.14-.05h0l.07,0,.27.09a3.78,3.78,0,0,0,.57.1,3.73,3.73,0,0,0,1.15-.09,5.73,5.73,0,0,0,2-1.08,12.42,12.42,0,0,0,3-3.61,13.43,13.43,0,0,0,1.54-4.43,8.41,8.41,0,0,0,0-2.35,6.43,6.43,0,0,0-.28-1.15,5.25,5.25,0,0,0-.22-.55c0-.08-.08-.17-.13-.26l-.08-.13s-.09-.13,0-.08Z"/><path class="cls-3" d="M128.53,116.66a10.93,10.93,0,0,1-1.12,2.37,8.05,8.05,0,0,1-.77,1.07c-.28.34-.58.65-.88,1h0a11.28,11.28,0,0,0,.78-1l.73-1.08a22.06,22.06,0,0,0,1.25-2.29Z"/><path class="cls-3" d="M128.53,116.67s0,0,0,0h0a15.33,15.33,0,0,1-1.2,2.31c-.5.71-1,1.43-1.49,2.13v0a.06.06,0,0,0-.06-.07,10.81,10.81,0,0,0,.86-.9l.74-1.07a13.51,13.51,0,0,0,1.16-2.35h0a14.34,14.34,0,0,1-1.06,2.41l-.71,1.11a5,5,0,0,1-1,1,.1.1,0,0,1-.1-.1v0c.48-.73,1-1.42,1.52-2.11a13.53,13.53,0,0,0,1.31-2.24h0s0,0,0,0Z"/><path class="cls-3" d="M116.11,113c-.13.83-.22,1.66-.4,2.47-.08.41-.16.82-.26,1.23l-.3,1.21h0l.18-1.24c.06-.41.14-.82.23-1.23.13-.82.37-1.62.56-2.44Z"/><path class="cls-3" d="M116.12,113h0l-.51,2.44-.24,1.22,0,.41c.06-.17.09-.33.11-.39l.23-1.21.46-2.47h0l-.34,2.49c-.06.42-.12.83-.2,1.25s-.29.88-.46,1.23l.06-1.33.29-1.22.63-2.42h0Z"/><path class="cls-3" d="M106,113.38a12.09,12.09,0,0,1,1.18,2.29,10.38,10.38,0,0,1,.43,1.22c.11.42.2.84.28,1.26h0a10.23,10.23,0,0,0-.4-1.22l-.46-1.2c-.34-.78-.62-1.6-1-2.35Z"/><path class="cls-3" d="M106,113.38a0,0,0,0,0,0,0h0a18.22,18.22,0,0,1,1.08,2.33l.88,2.4,0,0a.08.08,0,0,0-.08,0v0l0,0h0a5.89,5.89,0,0,0-.23-1.24l-.44-1.2a15.12,15.12,0,0,0-1.14-2.32h0a17.89,17.89,0,0,1,1.25,2.27l.49,1.2a6.11,6.11,0,0,1,.23,1.29h0v0l0,0,0,0a.09.09,0,0,1-.12,0h0v0a22.91,22.91,0,0,1-.84-2.41,16.24,16.24,0,0,0-1-2.36h0s0,0,0,0Z"/><path class="cls-3" d="M98.89,118c.32.67.69,1.32,1,2,.15.34.3.68.43,1s.25.7.39,1h0q-.24-.5-.51-1c-.17-.33-.31-.67-.46-1-.32-.67-.55-1.39-.82-2.08Z"/><path class="cls-3" d="M98.9,118.05h0l.87,2,.44,1,.2.32a3.24,3.24,0,0,0-.12-.35l-.44-1-.93-2h0l1,2c.17.34.34.67.49,1s.23.8.27,1.15l-.66-1-.4-1-.76-2.1h0Z"/><path class="cls-3" d="M92.11,123.91c.47.49,1,1,1.45,1.42.26.22.53.42.8.62a9.71,9.71,0,0,0,.83.6h0l-.89-.5a4.55,4.55,0,0,1-.83-.61,9.87,9.87,0,0,1-1.35-1.54Z"/><path class="cls-3" d="M92.12,123.91s0,0,0,0h0l1.37,1.5.8.61.35.16-.28-.22-.79-.59-1.44-1.47h0l1.52,1.37c.28.2.56.38.84.59l.41.38.21.19.1.09s.09.1,0,.07c-.34-.14-.69-.28-1-.43l-.8-.66-1.3-1.59h0Z"/><path class="cls-3" d="M96.8,139.06a3.57,3.57,0,0,0,.29,1.61,4.86,4.86,0,0,0,.85,1.39,3.08,3.08,0,0,0,1.33.88,2.18,2.18,0,0,0,.8.1,3.15,3.15,0,0,0,.8-.21h0a2.72,2.72,0,0,1-.79.26,2.38,2.38,0,0,1-.84,0,2.78,2.78,0,0,1-1.42-.9,3.94,3.94,0,0,1-.85-1.45,4,4,0,0,1-.17-1.65Z"/><path class="cls-3" d="M96.81,139.07a4,4,0,0,0,1,3,3,3,0,0,0,1.32.92,2,2,0,0,0,1.55-.15l.14-.08,0,0s-.07.08,0,0h0l0,.07a2.61,2.61,0,0,1-1.59.07,3.15,3.15,0,0,1-1.34-.84,4.22,4.22,0,0,1-1.14-3.06h0A4,4,0,0,0,98,142a2.62,2.62,0,0,0,2.79.7h0a.1.1,0,0,1,.09.15v0h0l-.16.09a2.16,2.16,0,0,1-1.67.17,2.91,2.91,0,0,1-1.36-1,4.11,4.11,0,0,1-.91-3.1Z"/><path class="cls-3" d="M125.65,113.79a8.09,8.09,0,0,0,1.25-1.61,10.31,10.31,0,0,0,.89-1.83,11.13,11.13,0,0,0,.49-2,7.82,7.82,0,0,0,.07-2h0a9.45,9.45,0,0,1,.05,2.06,7.63,7.63,0,0,1-.46,2,8.44,8.44,0,0,1-.93,1.85,10.07,10.07,0,0,1-1.36,1.55Z"/><path class="cls-3" d="M125.65,113.78a8.3,8.3,0,0,0,2.23-3.35,7.12,7.12,0,0,0,.42-4v-.06h.13v.41l0,.51-.07,1a9.3,9.3,0,0,1-.46,2,9,9,0,0,1-2.19,3.46h0a8.67,8.67,0,0,0,2.07-3.5,10.46,10.46,0,0,0,.42-2l.06-1,0-.51,0-.25v-.13s0,0,0-.09.18.08.14.06l0,.06a6.92,6.92,0,0,1-.46,4.07,8.59,8.59,0,0,1-2.35,3.31Z"/><path class="cls-3" d="M149.3,131.48a10.53,10.53,0,0,1,1.89-5.6,12.81,12.81,0,0,1,4.5-3.86,19.66,19.66,0,0,1,11.63-2,16.25,16.25,0,0,1,5.66,1.89,18.07,18.07,0,0,1,4.63,3.76,34.18,34.18,0,0,1,6,10.27h0a33.53,33.53,0,0,0-6.07-10.19,19,19,0,0,0-4.62-3.7,16.11,16.11,0,0,0-5.6-1.87,20,20,0,0,0-11.55,1.92,12.65,12.65,0,0,0-4.52,3.79,10.34,10.34,0,0,0-1.92,5.56Z"/><path class="cls-3" d="M183.48,136c.37,0,.1-.34.06-.56l-.26-.71c-.18-.47-.36-.93-.55-1.39-.38-.93-.81-1.83-1.26-2.73a28.23,28.23,0,0,0-3.26-5,19.12,19.12,0,0,0-4.43-4,16.55,16.55,0,0,0-5.52-2.22,18.43,18.43,0,0,0-11.66,1.37,14.7,14.7,0,0,0-4.73,3.58,11,11,0,0,0-1.65,2.47,10.06,10.06,0,0,0-.84,2.85,12.14,12.14,0,0,0-.12,1.48c0,.12,0,.28,0,.25h.08s0,0,0,0v-.12c0-.25.06-.5.12-.74a10.13,10.13,0,0,1,1-2.83,11.57,11.57,0,0,1,4.16-4.29,14.33,14.33,0,0,1,1.34-.71l1.42-.5a24.4,24.4,0,0,1,2.89-.83,19.41,19.41,0,0,1,6-.44A16.87,16.87,0,0,1,177,126a24.5,24.5,0,0,1,3.73,4.69,40,40,0,0,1,2.8,5.3h0a39.45,39.45,0,0,0-2.82-5.29,24.8,24.8,0,0,0-3.75-4.66,16.71,16.71,0,0,0-10.6-5,19.16,19.16,0,0,0-5.94.46,24.09,24.09,0,0,0-2.87.83l-1.41.5c-.44.21-.88.44-1.31.7a11.4,11.4,0,0,0-4.1,4.23,9.91,9.91,0,0,0-1,2.78c-.06.24-.07.49-.11.73l0,.09c0,.06,0,.12,0,.14h-.28c-.16,0-.07-.19-.1-.21v-.19a12.63,12.63,0,0,1,.12-1.51,10.9,10.9,0,0,1,.85-2.89,11.67,11.67,0,0,1,1.67-2.51,14.88,14.88,0,0,1,4.79-3.61,18.37,18.37,0,0,1,11.75-1.35,16.49,16.49,0,0,1,5.54,2.26,19.35,19.35,0,0,1,4.43,4,27.74,27.74,0,0,1,3.24,5c.44.9.87,1.8,1.25,2.73.19.46.37.93.55,1.4l.25.7c.05.22.32.54-.06.57Z"/><path class="cls-3" d="M176.41,141.88a42,42,0,0,0-5.22-1.73,21.55,21.55,0,0,0-5.42-.7,23.08,23.08,0,0,0-5.41.83c-1.77.46-3.52,1-5.27,1.58h0c1.75-.57,3.47-1.2,5.24-1.71a20.8,20.8,0,0,1,5.44-.86,19.32,19.32,0,0,1,5.45.74,45.08,45.08,0,0,1,5.19,1.85Z"/><path class="cls-3" d="M176.38,141.88a26.48,26.48,0,0,0-10.55-2.54,20.65,20.65,0,0,0-5.41.81l-1.9.65c.21-.05.56-.17.73-.22l.83-.24.43-.12,1-.25a21,21,0,0,1,4.18-.56c3.71-.07,7.27,1.14,10.67,2.47h0a26.79,26.79,0,0,0-10.66-2.34,21.39,21.39,0,0,0-4.14.58l-1,.26-1.69.48-3.41,1a.48.48,0,0,0-.17,0h-.21s-.11,0,0,0l5.29-1.85a20.05,20.05,0,0,1,5.45-.78,27.62,27.62,0,0,1,10.54,2.67Z"/><path class="cls-3" d="M181.34,131.72a4.44,4.44,0,0,1-.17,3.48,10.09,10.09,0,0,1-1.9,3,8.61,8.61,0,0,1-2.84,2.17l-.85.3-.88.15-.9,0-.86-.21h0l.87.19h.88l.87-.19.82-.32a9.55,9.55,0,0,0,2.77-2.16,11.54,11.54,0,0,0,1.91-3,4.27,4.27,0,0,0,.28-3.42Z"/><path class="cls-3" d="M181.36,131.74s0,0,0,0h0a4.36,4.36,0,0,1-.26,3.41,10.58,10.58,0,0,1-1.89,3,9.4,9.4,0,0,1-2.78,2.15,4.76,4.76,0,0,1-3.47.39v0s0,0,0,0l0,0v-.05h0l.1,0a4.38,4.38,0,0,0,3.4-.25,8.66,8.66,0,0,0,2.77-2.16,10.8,10.8,0,0,0,1.9-3,4.33,4.33,0,0,0,.21-3.45h0a4.46,4.46,0,0,1-.17,3.47,11,11,0,0,1-1.85,3,8.4,8.4,0,0,1-2.79,2.23,4.56,4.56,0,0,1-3.53.25l-.1,0h0s-.08,0-.07-.12a.1.1,0,0,1,.11-.06h0a4.59,4.59,0,0,0,3.35-.38A9.46,9.46,0,0,0,179.1,138a11.05,11.05,0,0,0,2-2.89,4.3,4.3,0,0,0,.29-3.4h0s0,0,0,0Z"/><path class="cls-3" d="M149.8,128.74a23.41,23.41,0,0,0,.82,4.08,25.8,25.8,0,0,0,1.44,3.91,11.2,11.2,0,0,0,2.33,3.39,3.9,3.9,0,0,0,1.79,1,3.24,3.24,0,0,0,2-.27h0a3.42,3.42,0,0,1-2,.31,3.92,3.92,0,0,1-1.86-.94,10.14,10.14,0,0,1-2.4-3.42,23.68,23.68,0,0,1-2.11-8Z"/><path class="cls-3" d="M149.82,128.76a19.55,19.55,0,0,0,.7,4.05,23.16,23.16,0,0,0,1.41,3.92,10.38,10.38,0,0,0,2.32,3.4,4,4,0,0,0,1.78,1,3,3,0,0,0,2-.25l.12,0c0-.1.11.18,0,.12l-.25.09a3.3,3.3,0,0,1-.52.13,3.49,3.49,0,0,1-1.07,0,3.83,3.83,0,0,1-1.88-1,11,11,0,0,1-2.41-3.41,23.1,23.1,0,0,1-1.43-3.93,24.74,24.74,0,0,1-.79-4.1h0a24.08,24.08,0,0,0,2.33,8,11.15,11.15,0,0,0,2.41,3.34,3.61,3.61,0,0,0,1.8.92,3.42,3.42,0,0,0,1,0,4.05,4.05,0,0,0,.5-.12l.24-.09h0a.14.14,0,0,1,.1,0c.06,0,0,.12,0,.15h0l-.12.06a3.27,3.27,0,0,1-2.09.26,4.15,4.15,0,0,1-1.85-1,10.32,10.32,0,0,1-2.32-3.47,23.08,23.08,0,0,1-1.34-4c-.17-.67-.31-1.35-.43-2-.06-.34-.11-.69-.16-1l-.06-.52,0-.26v-.13s0-.14,0-.08Z"/><path class="cls-3" d="M149.28,115.86a22,22,0,0,0,1.26,2.28l.72,1.08c.25.36.51.71.79,1h0c-.3-.31-.6-.63-.89-1a9.89,9.89,0,0,1-.76-1.07,11.16,11.16,0,0,1-1.12-2.37Z"/><path class="cls-3" d="M149.3,115.86s0,0,0,0h0a13.63,13.63,0,0,0,1.15,2.33l.73,1.07a7.12,7.12,0,0,0,.9.92h0a.06.06,0,0,0-.08.06l0,0-1.47-2.1a15.21,15.21,0,0,1-1.22-2.33h0a13.47,13.47,0,0,0,1.32,2.26c.52.67,1,1.38,1.5,2.08l0,0v0a.1.1,0,0,1-.12.09h0l0,0a6.36,6.36,0,0,1-.93-.94l-.71-1.11a16.41,16.41,0,0,1-1.06-2.39h0s0,0,0,0Z"/><path class="cls-3" d="M158.41,113.8c.18.81.42,1.61.56,2.44.08.41.17.81.22,1.23l.18,1.24h0l-.3-1.22c-.1-.4-.18-.81-.26-1.22-.18-.81-.27-1.65-.4-2.47Z"/><path class="cls-3" d="M158.42,113.8s0,0,0,0h0l.45,2.45.24,1.22.13.39a3.46,3.46,0,0,0-.05-.4l-.24-1.21-.51-2.46h0c.22.84.43,1.64.63,2.44.1.4.2.81.29,1.23s.06.92,0,1.32l-.44-1.27-.2-1.24-.33-2.47h0s0,0,0,0Z"/><path class="cls-3" d="M169.43,114a20.29,20.29,0,0,0-.84,1.85l-.35,1a8.41,8.41,0,0,0-.31,1h0c.06-.34.11-.67.19-1a5.8,5.8,0,0,1,.32-1,8.24,8.24,0,0,1,1-1.79Z"/><path class="cls-3" d="M169.43,114h0a11.36,11.36,0,0,0-.93,1.8l-.34,1a4.73,4.73,0,0,0-.14,1v0l0,0a.07.07,0,0,0-.08,0l0,0c.24-.61.45-1.24.67-1.87a14.29,14.29,0,0,1,.89-1.85h0a9.94,9.94,0,0,0-.78,1.88,15.75,15.75,0,0,1-.65,1.9v0l0,0a.11.11,0,0,1-.13,0v-.08a3.87,3.87,0,0,1,.15-1l.38-1a13.44,13.44,0,0,1,1-1.75h0Z"/><path class="cls-3" d="M177.33,118.06c-.28.69-.5,1.4-.83,2.07-.14.34-.29.68-.46,1s-.34.66-.5,1h0c.14-.35.27-.7.4-1a10,10,0,0,1,.43-1c.27-.69.64-1.34,1-2Z"/><path class="cls-3" d="M177.33,118.07h0l-.92,2-.44,1-.1.35a1.72,1.72,0,0,0,.17-.32l.44-1,.87-2.06h0l-.77,2.11c-.13.35-.26.7-.41,1s-.44.71-.67,1l.3-1.16.49-1,1-2h0s0,0,0,0Z"/><path class="cls-3" d="M185,125.83a10.35,10.35,0,0,1-1.35,1.54,5.07,5.07,0,0,1-.83.61l-.89.49h0c.29-.19.56-.39.83-.6s.54-.4.8-.62c.48-.46,1-.93,1.45-1.42Z"/><path class="cls-3" d="M185,125.84c-.47.41-.95,1-1.43,1.44l-.81.61a2.88,2.88,0,0,0-.24.23l.3-.16.8-.62,1.38-1.5h0l-1.31,1.59-.8.67-1,.42a7,7,0,0,1,.78-.75l.85-.59c.5-.44,1-.94,1.51-1.34Z"/><path class="cls-3" d="M180.31,141a4.06,4.06,0,0,1-.17,1.66,3.94,3.94,0,0,1-.85,1.45,2.8,2.8,0,0,1-1.41.9,2.44,2.44,0,0,1-.85,0,3.49,3.49,0,0,1-.79-.26h0a2.8,2.8,0,0,0,.8.22,2.41,2.41,0,0,0,.8-.1,3.1,3.1,0,0,0,1.33-.89,4.68,4.68,0,0,0,.85-1.38,3.59,3.59,0,0,0,.29-1.62Z"/><path class="cls-3" d="M180.32,141a4.39,4.39,0,0,1-1.08,3,3.12,3.12,0,0,1-1.37.91,2.56,2.56,0,0,1-1.64-.06h.07v0h0l-.05,0h0l0-.06.12.07a2,2,0,0,0,1.55.18,2.92,2.92,0,0,0,1.32-.91,4.13,4.13,0,0,0,1-3.05h0a4.3,4.3,0,0,1-.95,3.13,2.85,2.85,0,0,1-1.37,1,2.17,2.17,0,0,1-1.67-.2l-.13-.07h0s-.06-.1,0-.13a.13.13,0,0,1,.07,0h0a2.65,2.65,0,0,0,2.87-.78,4.24,4.24,0,0,0,1.17-2.9Z"/><path class="cls-3" d="M151.28,111.69a2.55,2.55,0,0,1-1.33-1.07,4.05,4.05,0,0,1-.59-1.64,6,6,0,0,1,0-1.74,10.83,10.83,0,0,1,.41-1.68h0a8.83,8.83,0,0,0-.23,3.39,5.08,5.08,0,0,0,.53,1.61,2.46,2.46,0,0,0,1.23,1.13Z"/><path class="cls-3" d="M151.27,111.7a2.87,2.87,0,0,1-1.24-1.11,4.58,4.58,0,0,1-.55-1.62,8.24,8.24,0,0,1,0-1.72l.23-1.69v0s0,0,0,0h0l0-.06h0l.07,0h0l0,0a6,6,0,0,0-.37,3.34,4.43,4.43,0,0,0,.57,1.61,2.47,2.47,0,0,0,1.29,1.09h0a2.59,2.59,0,0,1-1.34-1.06,4.69,4.69,0,0,1-.64-1.61,5.72,5.72,0,0,1,.34-3.44l0,0s0,0,0,0,.12,0,.14,0h0v0l-.23,1.69a9.43,9.43,0,0,0,0,1.68,4.48,4.48,0,0,0,.48,1.61,2.78,2.78,0,0,0,1.19,1.14Z"/></g><g id="eyebrows"><path class="cls-7" d="M125.47,108.88c-1.86,0-3-.89-4.64-1.37-7.85-2.63-15.11-.92-21.37,4.55-2.39,2-4.9,4.27-7.49,6.39,2.44-10.31,17.67-18.68,27.73-15.25,2.5,1,5.29,2,6.5,4.72l-.73,1Z"/><path class="cls-7" d="M152.53,108.06c1-2.48,3.54-3.58,5.74-4.68,10.14-4.47,23.66,3.51,24.34,14.6-2.12-2.3-4.08-4.73-6-6.8-5.77-6.47-12.53-6.31-20-3.08-1.17.38-1.91,1-3.36.93l-.73-1Z"/></g></g></svg>