<svg id="artwork" xmlns="http://www.w3.org/2000/svg" viewBox="0 0 282 282"><defs><style>.cls-1{fill:#d9cec5;}.cls-2{fill:#824413;}.cls-3,.cls-4{fill:#2d2d2d;}.cls-4{fill-rule:evenodd;}.cls-5{fill:none;stroke:#2d2d2d;stroke-miterlimit:10;}.cls-6{fill:#f2eae4;}.cls-7{fill:#3a120e;}</style></defs><g id="eyes_thinking5"><g id="white"><path class="cls-1" d="M172.35,119.08c7.74,5.53,6.87,19.07-2.44,21.66-6.87,1.92-14.2,1-18.08-6.39-2.69-5.1.26-14.16,5.57-15.91C163.06,116.57,166.94,115.22,172.35,119.08Z"/><path class="cls-1" d="M105.89,119.22c-.43.2-.51,2-.88,2.2a10.52,10.52,0,0,0-4,5.22c-1.67,4.42-3.48,8.79,3.3,13.72,3.8,2.76,10.89,3,14.82.53,8.06-5,9.9-10.33,5.57-15.16-2.06-2.29-2.77-4.92-5.52-5.73C115.55,118.94,109.63,117.5,105.89,119.22Z"/></g><g id="iris"><path class="cls-2" d="M108.06,119.74c2-.23,4.73.5,5.39,2.83,1.09,3.87-5,8.61-8.59,7.58a3.9,3.9,0,0,1-2.35-3C101.55,123.22,104.55,120.15,108.06,119.74Z"/><path class="cls-2" d="M160,118c1.94-.21,4.72.54,5.36,2.88,1.06,3.87-5.07,8.57-8.65,7.5a3.91,3.91,0,0,1-2.33-3C153.48,121.39,156.5,118.35,160,118Z"/></g><g id="iris_outline"><path class="cls-3" d="M109.18,128.69a30.85,30.85,0,0,1-1.64-4.15,2.87,2.87,0,0,1-.14-.6,31.77,31.77,0,0,1,1.78,4.75Z"/><path class="cls-3" d="M105.93,129.85c.45-1.54.82-3.09,1.41-4.58a16.11,16.11,0,0,1-1.41,4.58Z"/><path class="cls-3" d="M103.27,128.93a30.49,30.49,0,0,1,3.61-3.88c-.91,1.54-2.5,2.59-3.61,3.88Z"/><path class="cls-3" d="M102.24,124c1.56.35,3.31-.41,4.76.49-1.5-.37-3.29,0-4.76-.49Z"/><path class="cls-3" d="M105.7,119a20.65,20.65,0,0,1,1.29,4c0,.16.15.49,0,.61-.6-1.45-.78-3.15-1.32-4.6Z"/><path class="cls-3" d="M112.8,124.86c-1-.42-2.07.06-3.1-.1-.27,0-.88-.07-1-.26,0,0,0,0,0,0h0s0,0,0,0c.67.08,1.39,0,2.07.11s1.55-.16,2,.28Z"/><path class="cls-3" d="M111.35,120.12a26.93,26.93,0,0,1-2.72,3.66,19,19,0,0,1,2.72-3.66Z"/><path class="cls-3" d="M105.29,120.89c-4.27,2.66-3,11.28,2.9,8.38,2.85-1.33,6.1-5,3.77-8a6.17,6.17,0,0,0-3-1.67v-.1c7.5.68,5.09,8.58-.39,10.54-6.85,3-8.26-6.71-3.25-9.15Z"/><path class="cls-3" d="M161.07,126.92a30,30,0,0,1-1.61-4.16,2.32,2.32,0,0,1-.13-.6,32.47,32.47,0,0,1,1.74,4.76Z"/><path class="cls-3" d="M157.8,128.05c.47-1.53.85-3.08,1.45-4.57a15.72,15.72,0,0,1-1.45,4.57Z"/><path class="cls-3" d="M155.15,127.12a31.11,31.11,0,0,1,3.64-3.86c-.92,1.53-2.52,2.57-3.64,3.86Z"/><path class="cls-3" d="M154.16,122.22c1.56.36,3.32-.39,4.76.52-1.5-.38-3.29-.06-4.76-.52Z"/><path class="cls-3" d="M157.67,117.25a20.53,20.53,0,0,1,1.25,4c0,.16.15.49,0,.61-.6-1.46-.76-3.15-1.28-4.6Z"/><path class="cls-3" d="M164.72,123.12c-1-.43-2.07,0-3.1-.13-.28,0-.88-.07-1-.27,0,0,0,0,0,0h0s0-.06,0,0c.68.08,1.4,0,2.08.12s1.55-.15,2.05.3Z"/><path class="cls-3" d="M163.31,118.37a26.27,26.27,0,0,1-2.76,3.63,19.43,19.43,0,0,1,2.76-3.63Z"/><path class="cls-3" d="M157.24,119.09c-4.29,2.63-3.1,11.25,2.83,8.4,2.86-1.31,6.14-4.95,3.84-8a6.15,6.15,0,0,0-3-1.71l0-.09c7.49.74,5,8.61-.48,10.54-6.87,2.9-8.21-6.78-3.17-9.18Z"/></g><g id="pupil"><path class="cls-4" d="M106.86,124.13l1.63-.87a2,2,0,0,1-1.12,2.23,1.45,1.45,0,0,1-2.14-.49,2,2,0,0,1,1.11-2.23,2,2,0,0,1,.84-.25Z"/><path class="cls-4" d="M158.78,122.34l1.64-.86a2,2,0,0,1-1.14,2.23,1.45,1.45,0,0,1-2.14-.51,2,2,0,0,1,1.13-2.22,2.08,2.08,0,0,1,.84-.25Z"/><path class="cls-4" d="M106.86,124.13l1.63-.87a2,2,0,0,1-1.12,2.23,1.45,1.45,0,0,1-2.14-.49,2,2,0,0,1,1.11-2.23,2,2,0,0,1,.84-.25Z"/><path class="cls-4" d="M158.78,122.34l1.64-.86a2,2,0,0,1-1.14,2.23,1.45,1.45,0,0,1-2.14-.51,2,2,0,0,1,1.13-2.22,2.08,2.08,0,0,1,.84-.25Z"/><path class="cls-5" d="M106.86,124.13l1.63-.87a2,2,0,0,1-1.12,2.23,1.45,1.45,0,0,1-2.14-.49,2,2,0,0,1,1.11-2.23,2,2,0,0,1,.84-.25Z"/><path class="cls-5" d="M158.78,122.34l1.64-.86a2,2,0,0,1-1.14,2.23,1.45,1.45,0,0,1-2.14-.51,2,2,0,0,1,1.13-2.22,2.08,2.08,0,0,1,.84-.25Z"/></g><g id="spec"><ellipse class="cls-6" cx="109.6" cy="122.1" rx="1.59" ry="1.24" transform="translate(-54.11 111.08) rotate(-44.23)"/><ellipse class="cls-6" cx="161.54" cy="120.34" rx="1.59" ry="1.24" transform="translate(-38.35 145.22) rotate(-43.78)"/></g><g id="outline"><path class="cls-3" d="M148.26,131a15.69,15.69,0,0,0,2.7,6.61,20,20,0,0,0,2.33,2.7,16.74,16.74,0,0,0,1.32,1.21c.23.19.46.39.7.56s.5.52.68.3h0l0,0c0,.19-.31.15-.43.07l-.41-.22a7.68,7.68,0,0,1-.78-.47A13.12,13.12,0,0,1,153,140.7a13.52,13.52,0,0,1-2.33-2.84,16.06,16.06,0,0,1-2.41-6.83s0,0,0,0S148.26,131,148.26,131Z"/><path class="cls-3" d="M95.1,135.36a16.28,16.28,0,0,1,1.07-7.8,14,14,0,0,1,1.92-3.5,12.13,12.13,0,0,1,2.9-2.73,0,0,0,0,1,0,0s0,0,0,0a22.37,22.37,0,0,0-2.53,3,20.47,20.47,0,0,0-2,3.36,16.16,16.16,0,0,0-1.38,7.65l0,0S95.1,135.37,95.1,135.36Z"/><path class="cls-3" d="M117.37,145.54a10,10,0,0,0,4.81-1.86,13.49,13.49,0,0,0,3.55-3.75,23.57,23.57,0,0,0,2.21-4.68c.62-1.63,1.08-3.31,1.61-5l0,0s0,0,0,0a30.51,30.51,0,0,1-1.19,5.13,18.46,18.46,0,0,1-2.35,4.75,14.08,14.08,0,0,1-3.75,3.71,10.15,10.15,0,0,1-4.94,1.72,0,0,0,0,1,0,0S117.35,145.54,117.37,145.54Z"/><path class="cls-3" d="M174.64,117.25a28.42,28.42,0,0,1,5.24,7.07,20.23,20.23,0,0,1,1.7,4.11,11.33,11.33,0,0,1,.36,4.41s0,0,0,0l0,0a16.6,16.6,0,0,0-.79-4.27,31.93,31.93,0,0,0-1.57-4.07,28.35,28.35,0,0,0-4.92-7.21,0,0,0,0,1,0,0A0,0,0,0,1,174.64,117.25Z"/><path class="cls-3" d="M150,128.92a19.25,19.25,0,0,1,2.07-5.09,27.79,27.79,0,0,1,3.21-4.51,12.33,12.33,0,0,1,4.51-3.49,10.08,10.08,0,0,1,1.43-.34c.46-.08.92-.15,1.39-.21a16.86,16.86,0,0,1,2.85-.12,12.53,12.53,0,0,1,5.61,1.55,15.46,15.46,0,0,1,4.39,3.72,14.75,14.75,0,0,1,2.71,5.06,9.39,9.39,0,0,1-.12,5.63l-.2,0a11.23,11.23,0,0,0-1-5.11,16.35,16.35,0,0,0-2.91-4.23,20.37,20.37,0,0,0-3.88-3.32,10.73,10.73,0,0,0-4.72-1.66,14.92,14.92,0,0,0-2.59,0c-.44,0-.88.07-1.32.13a8,8,0,0,0-1.24.21A11.43,11.43,0,0,0,156,120a23.85,23.85,0,0,0-5.81,9Z"/><path class="cls-3" d="M150.74,134.35a16.58,16.58,0,0,0,7,5.75,15.69,15.69,0,0,0,8.89,1,14.9,14.9,0,0,0,7.81-4.1,16.63,16.63,0,0,0,4.32-7.85l.1,0a13.64,13.64,0,0,1-12.1,12.72,16.13,16.13,0,0,1-9.22-1.39,16.48,16.48,0,0,1-6.88-6.14Z"/><path class="cls-3" d="M126.86,129.25a23.91,23.91,0,0,0-7.16-8,11.48,11.48,0,0,0-4.62-2.25,7.4,7.4,0,0,0-1.27,0c-.44,0-.89,0-1.33.07a15.75,15.75,0,0,0-2.58.4,11,11,0,0,0-4.46,2.33,20.2,20.2,0,0,0-3.37,3.87,15.78,15.78,0,0,0-2.27,4.62,11.09,11.09,0,0,0-.23,5.23l-.18.07a9.26,9.26,0,0,1-1-5.58,14.54,14.54,0,0,1,2-5.42,15.1,15.1,0,0,1,3.83-4.34,12.77,12.77,0,0,1,5.35-2.34,16.22,16.22,0,0,1,2.85-.3c.47,0,.94,0,1.41,0a8.8,8.8,0,0,1,1.47.12,12.46,12.46,0,0,1,5,2.77,27.53,27.53,0,0,1,3.89,4,19.16,19.16,0,0,1,2.85,4.73Z"/><path class="cls-3" d="M99.63,135.25a16.52,16.52,0,0,0,7,5.75,15.68,15.68,0,0,0,8.89,1,14.93,14.93,0,0,0,7.81-4.1,16.72,16.72,0,0,0,4.32-7.85l.1,0a13.67,13.67,0,0,1-12.11,12.72,16.11,16.11,0,0,1-9.21-1.39,16.57,16.57,0,0,1-6.89-6.14Z"/><path class="cls-3" d="M179.66,139.44c-.33-.3-.66-.57-1-.81s-.39-.18-.48-.36a1.41,1.41,0,0,1-.18-.74l.07-.08a1.12,1.12,0,0,1,.79.09,1.17,1.17,0,0,1,.4.57,3.79,3.79,0,0,1,.46,1.28Z"/><path class="cls-3" d="M177.29,142.57a6.89,6.89,0,0,1-1.77-1,2.32,2.32,0,0,1-.77-.69,1.87,1.87,0,0,1-.24-1.07l.08-.06a2.55,2.55,0,0,1,.93.49,3.25,3.25,0,0,1,.56.76,13.45,13.45,0,0,0,1.27,1.48Z"/><path class="cls-3" d="M173.71,145.71a10.21,10.21,0,0,1-1.62-1.79,3.26,3.26,0,0,1-.63-1,2.51,2.51,0,0,1,0-1.28l.1,0a3.35,3.35,0,0,1,.84.9,5.44,5.44,0,0,1,.42,1.06c.29.71.62,1.42,1,2.12Z"/><path class="cls-3" d="M107.23,145.44a9.58,9.58,0,0,0,.15-1.26c0-.21-.06-.42,0-.6A1.49,1.49,0,0,1,108,143h.1a1.08,1.08,0,0,1,.36.72,1.15,1.15,0,0,1-.26.64,3.84,3.84,0,0,1-.83,1.08Z"/><path class="cls-3" d="M103.32,145.16a7.26,7.26,0,0,1-.13-2,2.36,2.36,0,0,1,.17-1,1.8,1.8,0,0,1,.77-.78l.09,0a2.44,2.44,0,0,1,.09,1,3.77,3.77,0,0,1-.33.88,14.93,14.93,0,0,0-.56,1.86Z"/><path class="cls-3" d="M98.73,143.86a10,10,0,0,1,.62-2.33,3.27,3.27,0,0,1,.54-1.09,2.37,2.37,0,0,1,1.06-.71l.08.06a3.46,3.46,0,0,1-.3,1.19,5.11,5.11,0,0,1-.67.93c-.44.63-.85,1.29-1.24,2Z"/></g><g id="eyebrows"><path class="cls-7" d="M146.39,107.92c1.63-1.16,3.29-1.17,5-1.53s3.41-.63,5.16-.93c8.65-1.33,20.27-3.71,26.55,4.46a10.83,10.83,0,0,1,1.34,2.65c.15,1,1,1.76-.38,3.07a2.21,2.21,0,0,1-1.16-.35c-.59-.37-.71-1-1.08-1.55-2.81-5.68-8.4-6.23-14.29-5.7-5.11.42-10.33,1.83-15.53,2.45-1.78.17-3.63.6-5.53-.42l-.08-2.15Z"/><path class="cls-7" d="M125.82,113.94a4.81,4.81,0,0,1-2.49-1.07,25.85,25.85,0,0,0-6.52-3.31c-10.08-2.67-14.4-1.29-20.13,7.56a19.62,19.62,0,0,1-3.64,4.1l-.08,0c.59-1.75,1.05-3.42,1.61-5.12,3.26-10.34,10.38-13.61,20.65-11a20,20,0,0,1,10.12,5.15,4.56,4.56,0,0,1,1.67,2.24l-1.19,1.46Z"/></g></g></svg>