<svg id="artwork" xmlns="http://www.w3.org/2000/svg" viewBox="0 0 282 282"><defs><style>.cls-1{fill:#bfa68f;fill-rule:evenodd;}.cls-2{fill:#2d2d2d;}</style></defs><g id="mouth_neutral4"><g id="lip_colour" data-name="lip colour"><path class="cls-1" d="M153.56,181.67c-1.81-1.31-3.7-3.26-6.32-4.1s-6.65,2.08-8.82,1.86c-2.91-.28-6.22-2.44-8.34-1.69-1.43.5-3.87,3.36-5,4.33-1.53,1.34-2.51,2.93-4.77,3,.3.17,5.23,0,5.21.07a4.81,4.81,0,0,0,3.66,5.29A80.59,80.59,0,0,0,140,191.87c2.53.17,9.86-2.12,11.78-3.38s1-3.61,1-3.61,2.21-.58,4.53-1.16C156.56,183.27,154.25,182.18,153.56,181.67Z"/></g><g id="outine"><path class="cls-2" d="M157.54,183.68a20.12,20.12,0,0,1-4.7-2.42,36.39,36.39,0,0,0-4.31-3,5.18,5.18,0,0,0-2.47-.44,12.85,12.85,0,0,0-2.55.28,14.73,14.73,0,0,0-2.47.78,8.67,8.67,0,0,1-2.62.84,18.58,18.58,0,0,1-2.66-.58c-.85-.22-1.7-.45-2.55-.64a7,7,0,0,0-2.5-.26,5,5,0,0,0-2.29.93,34,34,0,0,0-3.78,3.64,10,10,0,0,1-2.09,1.64,4.66,4.66,0,0,1-2.55.59h0a4.49,4.49,0,0,0,2.5-.66,9,9,0,0,0,2-1.72,35.85,35.85,0,0,1,3.64-3.88,5.36,5.36,0,0,1,2.5-1.14,7.48,7.48,0,0,1,2.73.23c.87.19,1.73.42,2.58.64a20.22,20.22,0,0,0,2.5.58,8.84,8.84,0,0,0,2.37-.8,14.47,14.47,0,0,1,2.57-.81,11.71,11.71,0,0,1,2.7-.25,5.55,5.55,0,0,1,2.67.6,36,36,0,0,1,4.23,3.23,17.85,17.85,0,0,0,4.58,2.59Z"/><path class="cls-2" d="M126.06,184.87q3.16.1,6.33.1c2.11,0,4.22-.09,6.33-.11s4.22.08,6.33.07,4.22-.06,6.33-.13q-3.16.1-6.32.35a8.83,8.83,0,0,0-3.16,1,6.1,6.1,0,0,1-3.17.63c-2.12-.06-4.24-1.1-6.34-1.36a61.54,61.54,0,0,0-6.33-.59Z"/><path class="cls-2" d="M125.54,185.15a4.69,4.69,0,0,0,1.06,3.5,7.29,7.29,0,0,0,3.33,1.57,47.2,47.2,0,0,0,7.44,1.26,29.87,29.87,0,0,0,7.49-.5,23.2,23.2,0,0,0,3.65-1,25,25,0,0,0,3.46-1.57h0a32.82,32.82,0,0,1-3.38,1.76,24.23,24.23,0,0,1-3.61,1.29,22.68,22.68,0,0,1-7.65.65,31.52,31.52,0,0,1-7.53-1.43,7.55,7.55,0,0,1-3.36-1.89,3.93,3.93,0,0,1-.8-1.75,5.3,5.3,0,0,1-.1-1.9Z"/><path class="cls-2" d="M151.69,188.67a2.68,2.68,0,0,0,.52-.93c.11-.33.29-.6.41-.91s.14-.61.21-.92a1.54,1.54,0,0,0-.08-1h0c.1.14.23.28.33.45a3.28,3.28,0,0,1,.24.54,1.71,1.71,0,0,1-.11,1.18,2.09,2.09,0,0,1-.61,1c-.29.25-.62.44-.91.65Z"/><path class="cls-2" d="M147.88,184.9a14.74,14.74,0,0,0,2.88-.36c.94-.2,1.9-.32,2.85-.48s1.91-.36,2.88-.44,1.95-.16,2.91-.26h0c-1,.19-1.89.47-2.83.74a23,23,0,0,1-2.86.59,17.64,17.64,0,0,1-2.91.33c-1,0-2,0-2.93-.12Z"/><path class="cls-2" d="M117.88,185c.86,0,1.71-.08,2.56-.15s1.7,0,2.55-.06a23.93,23.93,0,0,1,2.54,0c.86.07,1.71.14,2.56.14h0c-.85.08-1.69.23-2.54.35a15.63,15.63,0,0,1-2.56.12,14.62,14.62,0,0,1-2.56-.09c-.85-.1-1.7-.25-2.55-.33Z"/></g></g></svg>