<svg id="artwork" xmlns="http://www.w3.org/2000/svg" viewBox="0 0 282 282"><defs><style>.cls-1{fill:#bfa68f;}.cls-1,.cls-3,.cls-4{fill-rule:evenodd;}.cls-2,.cls-3{fill:#2d2d2d;}.cls-3,.cls-4{stroke:#2d2d2d;stroke-miterlimit:10;}.cls-4{fill:#d7d7ce;}</style></defs><g id="mouth_shocked2"><g id="lip_colour" data-name="lip colour"><path class="cls-1" d="M157,180.83c-5.84-6.65-6.48-6.54-9.46-8.25-3.08-.27-6.94,2.18-10.33,1.78s-6.05-2.12-8.54-1.19-4.41,3.09-5.24,3.84a15.9,15.9,0,0,1-2.23,2.6c-.28.67-.57,1.34-.86,2l-.44,1c-.06.14-.12.27-.17.4l-.09.21c-.06.14-.11.28-.16.42.19.44-1.18,1.63.14,1.5,2.73.44,3.13-1.47,3.13-1.2,0,3.3-.24,6.85,3.54,9.66,2.28.19,8.22,1.4,11.12,1.59s11.61-.74,14.29-3.57a21.08,21.08,0,0,0,2.87-3.6,9.75,9.75,0,0,0,.21-1,4.22,4.22,0,0,1,.17-.86,3.38,3.38,0,0,1,.34-.75,3,3,0,0,1,.92-.91A3.51,3.51,0,0,1,158,184l.21,0C157.79,183,157.37,181.91,157,180.83Z"/></g><g id="outine"><path class="cls-2" d="M158.24,183.84a16.65,16.65,0,0,0-3.38-5.33,25,25,0,0,0-4.73-4.17,11.71,11.71,0,0,0-2.77-1.37,5.48,5.48,0,0,0-3-.07c-2,.44-3.89,1.64-6.14,1.78a20,20,0,0,1-3.23-.23l-3.16-.38a17.28,17.28,0,0,0-3.11-.15,6.19,6.19,0,0,0-2.83,1,11.43,11.43,0,0,0-2.37,2,18.07,18.07,0,0,0-1.94,2.49,22.62,22.62,0,0,0-2.79,5.69h0a25.47,25.47,0,0,1,2.61-5.81,19,19,0,0,1,1.86-2.61,11.75,11.75,0,0,1,2.36-2.2,6.44,6.44,0,0,1,3.05-1.22,15.86,15.86,0,0,1,3.24.1c1.06.11,2.12.24,3.17.37a17.5,17.5,0,0,0,3.1.25c2.05-.11,3.9-1.29,6.05-1.77a5.89,5.89,0,0,1,3.3.13,11.48,11.48,0,0,1,2.87,1.54,25.2,25.2,0,0,1,4.62,4.43,17.9,17.9,0,0,1,3.22,5.47Z"/><path class="cls-2" d="M122.6,185.3a4.35,4.35,0,0,0,0,2.45,9.92,9.92,0,0,0,.88,2.31,6.76,6.76,0,0,0,3.47,3.26,39.61,39.61,0,0,0,4.81,1.12,44.85,44.85,0,0,0,4.91.64,35.4,35.4,0,0,0,4.94,0,23.28,23.28,0,0,0,4.84-.86,13.4,13.4,0,0,0,4.38-2.21,11,11,0,0,0,3-3.91h0a11.74,11.74,0,0,1-2.86,4.08,13.75,13.75,0,0,1-4.36,2.51,24.66,24.66,0,0,1-10,1.07,37.55,37.55,0,0,1-9.87-1.94,7.17,7.17,0,0,1-3.48-3.62,11.32,11.32,0,0,1-.78-2.39,4.64,4.64,0,0,1,0-2.48Z"/><path class="cls-2" d="M152.1,190.92a4.92,4.92,0,0,0,1-1.54c.24-.57.54-1.09.79-1.65a18.11,18.11,0,0,1,.75-1.69,15.62,15.62,0,0,0,.8-1.71h0c-.13.61-.22,1.24-.34,1.86a7.47,7.47,0,0,1-.63,1.79,6.17,6.17,0,0,1-1,1.66,8.52,8.52,0,0,1-1.42,1.28Z"/><path class="cls-2" d="M160.87,184.51a16,16,0,0,0-2,.05c-.65.05-1.29,0-1.92,0a14,14,0,0,0-1.85.19,15.18,15.18,0,0,0-1.87.55h0c.6-.28,1.09-.7,1.71-1a4.23,4.23,0,0,1,2-.36,8.15,8.15,0,0,1,2,.16c.64.14,1.28.32,1.92.43Z"/><path class="cls-2" d="M117.36,185.15a15.12,15.12,0,0,0,1.89-.19,11.72,11.72,0,0,1,1.88-.11,5.6,5.6,0,0,1,1.91.23c.62.2,1.21.43,1.82.6h0a14.83,14.83,0,0,0-1.88-.12c-.63,0-1.23-.07-1.84-.08a9.88,9.88,0,0,1-1.88,0c-.64-.08-1.26-.22-1.89-.29Z"/><path class="cls-3" d="M126.19,181.22A34.85,34.85,0,0,1,137,180c4.16.3,9.49-.41,13.49-.45,3.38,0,1.82,3,4.7,4.65a24.84,24.84,0,0,1-13.33,4.31c-6.35.2-11,.06-13.37-1.33s-7.17-2.24-7.17-2.24S127,181,126.19,181.22Z"/></g><path class="cls-4" d="M151.66,179.89c-2.81-.17-20.76-.33-23.9.66a15.16,15.16,0,0,0-5.63,3.65s12.2-.34,14.85-.34,9.51,0,12.81-.2S151.66,179.89,151.66,179.89Z"/></g></svg>