<svg id="artwork" xmlns="http://www.w3.org/2000/svg" xmlns:xlink="http://www.w3.org/1999/xlink" viewBox="0 0 282 282"><defs><style>.cls-1{fill:none;stroke:#2d2d2d;stroke-miterlimit:10;}.cls-2{clip-path:url(#clip-path);}.cls-3{fill:#87813b;}.cls-4{fill:#253635;}.cls-5{opacity:0.29;}.cls-6{fill:#824413;}.cls-7{fill:#c0bd85;}.cls-8{fill:#2d2d2d;}.cls-9{fill:#5d2526;}.cls-10{fill:#ad9582;}.cls-11{opacity:0.35;}.cls-12{fill:#bfa68f;}</style><clipPath id="clip-path"><rect id="face_clip" class="cls-1" x="1" y="1" width="280" height="280" rx="140"/></clipPath></defs><g class="cls-2"><g id="torso_holding_baby"><g id="torso_neutral_colour" data-name="torso neutral colour"><path class="cls-3" d="M261.23,444.82c.11-.47-.25-6.63-.31-7.11-3.29-25.95-24.87-152.27-27-160.23s-6-10.39-12.59-10c-8.36.43-22.74-2.81-33-7.06-7-2.89-21-8.92-23.44-9.93a4.13,4.13,0,0,0-1.87-.31L116.31,253a14.24,14.24,0,0,0-3.55,1.52c-6.16,4.1-24.88,17.44-36.44,17.82a2.43,2.43,0,0,0-.38,0c-10.14,1.45-18.54,3-25.8,5.94s-10,19-10.68,32.17c-.62,11.47-5.12,96.5-6,123.4a4,4,0,0,0,5.72,3.8l.12-.06c8.78-3.89,14.34-2.74,20.19-.55s3.36,2.65,6.32,3.22c2,.38,2.35,8,1.94,10.69-.92,6-4.37,14.14-6.59,23.44C57.74,488.55,49.67,522,48,528.62c-2.48,10,0,22.73,0,22.73s14.44,12.16,21.43,15.59c19.5,6.67,24.29-5.11,31.33-9.24,2.54-1.49,8.68-2,11.65-1.49,11.94,2,31.26,5,47.69,8.23,20.67,4,39.93,9.89,53.34,13.46,2.95.79,8.4-.78,10.75-2.17.85-.5,4.35-3.91,5-5.64a5.13,5.13,0,0,0,.3-3.49,6.72,6.72,0,0,0-1.25-1.93s1.42-30.11,1.44-32.94l-.83-29.33a4.07,4.07,0,0,1,1.07-2.82l15.9-17.19s5.65-3.26,6.9-5c1.83-2.5,3.4-6.36,4.45-8.57C259.82,463.32,261.23,444.82,261.23,444.82Z"/><path class="cls-4" d="M82.06,270.8S80.48,260.38,65.29,266c-7.41,2.74-5.11,16.07-5.11,21.18s0,11,.73,19,.25,14.25,2.19,26.3c1.1,11.81,12.78,48.11,21.15,62.83,6.6,9.9,13.67,25.72,16.83,37.24,4,14.54,10.59,40.18,7.54,44.24-11,14.61-19.22,21.66-32.6,20.53-14.14-1.2-16.9-16-16.9-16a3.11,3.11,0,0,0-3.11-.76c-3.4,1.31-8,4.08-1.56,19.49,4,9.58,16.68,27.51,27.64,34.08s41.64,21.18,59.9,17.53,88.57-26.26,90.36-37.29c.47-2.86.27-3.77-.3-5.22-4.05-10.37-33,10.22-37.47-7.68-1.8-7.17-6-27.16-11-39.66,2-14.31,5.1-38.66,6.56-52.54,1.2-9.76,8.37-14.94,16.81-35.84a373.56,373.56,0,0,0,16.07-57.71c2.93-16.07,2.19-43.83,1.46-48.21s-9-12.76-17.69-1.42a16,16,0,0,0,6,.82S215,305.46,207,320.8s-21.91,46-40.9,57.71S138.59,391.74,124.46,396c-6.59,2-48.26-60.32-50.81-72.29-7.93-37.21-3.17-50.54-3.17-50.54a62.69,62.69,0,0,0,6.88-.59A47.08,47.08,0,0,0,82.06,270.8Z"/></g><g id="torso_shading_dark" class="cls-5"><path class="cls-6" d="M56.42,277.61c-12.93,1.08,6.12,97.92,7.75,108.28,4.23,26.92-3.05,50.67-3.05,50.67S68,443,71.57,442c4.06-1.12,11.58,4.39,11.58,4.39a22.61,22.61,0,0,1,1.52-9c1.81-4.27,5.45-6.54,8.3-5.93s8.11,1.11,8.11,1.11L97.7,422.15s-.45,6.36-8.64,4.12c-4-1.1-5.77-4.12-6.75-9.77a35.31,35.31,0,0,1-.22-9.41A38.22,38.22,0,0,1,85,396.2s-11.82-22.37-14.55-30.47C56.42,324.26,62.64,277.1,56.42,277.61Z"/></g><g id="torso_shading_light"><path class="cls-7" d="M107.52,264.41c2.4-1.49,9.3-6.4,9.3-6.4s-2.47-.94-2.89-1.66a6.14,6.14,0,0,1,0-2.29s-17.33,10.6-23.1,14c-3.48,2-6.15,2.34-10,3.53a52.56,52.56,0,0,1-9.62,1.77,27.19,27.19,0,0,0,10.85,1.83C89,274.71,101.65,268.05,107.52,264.41Z"/><path class="cls-7" d="M43.78,283.34c-1,4.62-2.3,9.16-3.23,13.78a1.47,1.47,0,0,1-.08.25c-1.5,24.55-6,96.35-6,101.51,0,5.95-.84,42.79-.84,42.79l6.29-5.13s1-26.76,1.49-35.18,2-100.09,3-105,5-17.34,5-17.34C47.34,282,45.33,282.46,43.78,283.34Z"/><path class="cls-7" d="M168.84,253.82c-.32.35-.87.37-1.41,1.09a3.66,3.66,0,0,1-2.17,1.12s9.4,3.74,11.56,4.4c6,1.85,11.93,4.15,18,6.07,3,1,6,1.83,9.07,2.49,1.54.34,3.1.55,4.66.75l4.42.51-.31-3.37-3.34-.18a24.87,24.87,0,0,1-7-1.53c-10.9-3.31-20.77-7.92-31.25-12.41-.89-.38-3.27-1-4.16-1.37C167.58,251.68,169.27,253.34,168.84,253.82Z"/><path class="cls-7" d="M260.37,432c-2.85-18.67-4.82-30.61-7.25-49.35-.54-2.76-1.1-5.62-1.66-8.55-1.52-7.43-3.13-14.85-4.92-22.23a1.09,1.09,0,0,1,.41-1.17c-6-31.11-11.24-63.57-12.2-69.22-.85-4.93-3.2-10.41-6.13-13-1.09-1-4.09-1-4.09-1l.92,5.9s3.25.5,4.68,7.15c1.26,5.86,7.1,56.25,10.3,71.05,5.78,26.82,14.31,83.83,13.41,97.86-.77,11.84-7,13.81-18.12,12.28,1,.94,5.72,5.52,6.55,6.4,3.35,3.54,4.62,13.49,4.62,13.49s7.59-2.48,11.48-16.13c1.49-5.21,2.28-14.38,2.52-16.75.14-1.26,0-3.86,0-5.13C260.64,442.05,260.61,433.6,260.37,432Z"/></g><g id="outline"><path class="cls-8" d="M121.32,395.6c-7.59-8.81-15.18-17.64-22.25-26.9a193.68,193.68,0,0,1-18.88-29.37,110.76,110.76,0,0,1-11.12-33.09c-1.81-11.53-1.4-23.53,2.11-34.67l.09,0a82.24,82.24,0,0,0-1.21,34.49A117.53,117.53,0,0,0,80.91,339,195,195,0,0,0,99.47,368.4c7,9.32,14.44,18.23,21.93,27.13Z"/><path class="cls-8" d="M123.15,398.2a120.3,120.3,0,0,0,70.31-49.61,121.42,121.42,0,0,0,17-40.23,123.64,123.64,0,0,0,2-43.69l.09,0a115.18,115.18,0,0,1-1.1,43.93A117.16,117.16,0,0,1,194.12,349a120.15,120.15,0,0,1-70.95,49.26Z"/><path class="cls-8" d="M155.2,429.2c24.28-18.78,43.16-44.14,55.07-72.3a190.7,190.7,0,0,0,12.55-44,182.61,182.61,0,0,0,1.56-45.77h.1a165.52,165.52,0,0,1-.67,45.93A180.31,180.31,0,0,1,211,357.21c-12.13,28.21-31.28,53.51-55.75,72.07Z"/><path class="cls-8" d="M246.53,482a19.49,19.49,0,0,0,8.86-9.14,36,36,0,0,0,2.42-6,56.76,56.76,0,0,0,1.59-6.29,79.46,79.46,0,0,0,1-25.86c-.95-8.61-2.72-17.12-4.19-25.68l-4.46-25.66c-2.93-17.11-5.84-34.23-8.61-51.37l-8.31-51.41.1,0c3.29,17.05,6.29,34.15,9.19,51.27s5.59,34.27,8.42,51.4l4.32,25.68c1.42,8.56,3.13,17.08,4,25.74a79.76,79.76,0,0,1-1.21,26,57.91,57.91,0,0,1-1.64,6.31,36.45,36.45,0,0,1-2.49,6,23,23,0,0,1-3.74,5.33,17.78,17.78,0,0,1-5.26,3.8Z"/><path class="cls-8" d="M71.26,396.82l3.32,32.46.42,4.06a26.51,26.51,0,0,1,.24,4.09,5.19,5.19,0,0,1-1.59,3.79,3.85,3.85,0,0,1-1.92.88,5,5,0,0,1-2.1-.17c-2.72-.75-4.82-2.67-7.17-3.93a23.4,23.4,0,0,0-7.63-2.52,25.66,25.66,0,0,0-15.67,2.58,23.41,23.41,0,0,0-3.38,2.17,6,6,0,0,0-.78.64l-1,.92-.61.54c0,.05,0,0,0,0v-.7l0-1.44.15-8.15q.32-16.32.87-32.63c.72-21.75,1.67-43.49,3.09-65.2q1.05-16.29,2.38-32.56c.44-5.38.9-11,3.31-16a18,18,0,0,1,5.11-6.38,12.47,12.47,0,0,1,7.59-2.75v.1a12.32,12.32,0,0,0-7.41,2.88,17.74,17.74,0,0,0-4.89,6.34c-2.26,4.93-2.63,10.44-3,15.84Q39.42,318,38.46,334.24C37.18,356,36,377.67,35.18,399.41q-.61,16.3-1,32.61L34,440.18l0,.6c0,.06,0,.16,0,.19l.15-.13.49-.43a7.1,7.1,0,0,1,.8-.65,24.91,24.91,0,0,1,3.48-2.21,26.18,26.18,0,0,1,16-2.56,24.09,24.09,0,0,1,7.78,2.62l1.76,1.07,1.69,1.12a14.44,14.44,0,0,0,3.6,1.75,3.87,3.87,0,0,0,3.68-.62,4.83,4.83,0,0,0,1.47-3.52,26.12,26.12,0,0,0-.21-4l-.39-4.06-3.12-32.48Z"/><path class="cls-8" d="M212,320.21c3.14-12.09,6.64-24.15,8.28-36.52.44-3.09.67-6.2.84-9.3,0-1.56.14-3.11.11-4.66v-2.34l-.07-2.33,0-1v0c-.65-.49-1.1-1-1.67-1.38-.27-.22-.56-.38-.85-.58s-.59-.33-.9-.45a6.11,6.11,0,0,0-4-.29c-2.69.71-4.91,2.71-6.84,4.78l-.08-.06c1.76-2.24,3.85-4.44,6.74-5.36a6.73,6.73,0,0,1,4.45.15,13,13,0,0,1,3.65,2.41c.14.15.29.3.43.47l.06,1.32.12,2.35v2.36c0,1.58-.1,3.14-.16,4.71-.23,3.14-.54,6.26-1,9.36-1.84,12.43-5.57,24.42-9,36.44Z"/><path class="cls-8" d="M63,280.93a25.59,25.59,0,0,1-.49-8.86A11.27,11.27,0,0,1,64,267.81a7.39,7.39,0,0,1,3.43-3,12.6,12.6,0,0,1,4.47-.94,13.14,13.14,0,0,1,4.53.55,9.7,9.7,0,0,1,4,2.27,5.63,5.63,0,0,1,1.71,4.14H82a5.85,5.85,0,0,0-2.08-3.62,10.07,10.07,0,0,0-3.78-1.83,15.82,15.82,0,0,0-4.23-.52,11.8,11.8,0,0,0-4.18.69,6.6,6.6,0,0,0-3.18,2.64,10.59,10.59,0,0,0-1.54,4,25.72,25.72,0,0,0,.1,8.75Z"/><path class="cls-8" d="M73.08,272.87A48.46,48.46,0,0,0,84.4,270.2a86.23,86.23,0,0,0,10.67-4.64c3.45-1.78,6.77-3.8,10.05-5.87s6.45-4.29,9.54-6.68l.07.07a58.47,58.47,0,0,1-9.07,7.45,80.21,80.21,0,0,1-10.23,5.75,83.86,83.86,0,0,1-10.88,4.39A47.75,47.75,0,0,1,73.08,273Z"/><path class="cls-8" d="M212.8,266.93A43.94,43.94,0,0,1,200,264.71c-4.17-1.27-8.23-2.88-12.26-4.53s-8-3.3-12-5-8-3.42-12-5.06l0-.1a111.87,111.87,0,0,1,12.36,4.24c4,1.62,8,3.48,12,5.22s8,3.42,12.09,4.81a44.77,44.77,0,0,0,12.69,2.58Z"/><path class="cls-8" d="M164.26,250.48a10.49,10.49,0,0,1,3.88,1.83l.42.33a.82.82,0,0,1,.37.47,1.33,1.33,0,0,1-.39,1.07,5.8,5.8,0,0,1-1.77,1.28,33.27,33.27,0,0,1-8.08,2.93,83.6,83.6,0,0,1-17,2.24,107.42,107.42,0,0,1-17.2-.22,41.5,41.5,0,0,1-4.27-.76,17.55,17.55,0,0,1-4.11-1.47,6,6,0,0,1-1.82-1.31,2.67,2.67,0,0,1-.87-2.11,1.79,1.79,0,0,1,.55-1,3.41,3.41,0,0,1,.94-.62,8.5,8.5,0,0,1,2.08-.59l0,.1a8.35,8.35,0,0,0-2,.75c-.58.34-1.16.83-1.17,1.46a2.23,2.23,0,0,0,.84,1.65,5.55,5.55,0,0,0,1.71,1.09,27.15,27.15,0,0,0,8.18,1.86,142.62,142.62,0,0,0,17.06.42,86.23,86.23,0,0,0,17-1.91,33.54,33.54,0,0,0,8-2.73,5.61,5.61,0,0,0,1.71-1.18,1.19,1.19,0,0,0,.37-.85c0-.14-.13-.23-.29-.35l-.41-.34a10.57,10.57,0,0,0-3.77-1.9Z"/><path class="cls-8" d="M236.15,288.78c-.3-2.07-.75-4.1-1.22-6.13s-.92-4-1.54-6a21.28,21.28,0,0,0-2.79-5.45,9.38,9.38,0,0,0-4.88-3.61h0a10.22,10.22,0,0,1,5.27,3.31,15.88,15.88,0,0,1,3,5.57,38,38,0,0,1,1.41,6.12c.3,2.07.53,4.14.75,6.22Z"/><path class="cls-8" d="M121.21,395.43c-7.54-8.81-15.08-17.64-22.09-26.89a193.83,193.83,0,0,1-18.75-29.31,112.18,112.18,0,0,1-11-32.94,78.12,78.12,0,0,1,1.83-34.54c0-.1.06-.18.07-.17a.5.5,0,0,1,0,.19,80.71,80.71,0,0,0-1.39,34.44,115.9,115.9,0,0,0,10.9,32.84A193.4,193.4,0,0,0,99.3,368.4c7,9.28,14.45,18.15,22,27,.07.09.12.16.11.17A.7.7,0,0,1,121.21,395.43Z"/><path class="cls-8" d="M121.19,395.32c-7.46-8.85-14.92-17.72-21.86-27A194.74,194.74,0,0,1,80.79,339a117.43,117.43,0,0,1-10.89-32.9,82.24,82.24,0,0,1,1.18-34.53l.14.24-.1,0,.25-.13-.08.26c-3.42,11.08-3.77,23-2,34.38a111.93,111.93,0,0,0,11,32.81A193.56,193.56,0,0,0,99,368.37c7,9.25,14.54,18.09,22.06,26.94a1.24,1.24,0,0,1,.22.29l-.26-.26c-7.63-8.75-15.23-17.54-22.3-26.76A192,192,0,0,1,79.9,339.3a110.17,110.17,0,0,1-11.07-33,77,77,0,0,1,2.08-34.57l.08-.26.05-.19.19.06.1,0,.19,0,0,.19A82.18,82.18,0,0,0,70.2,306,117.54,117.54,0,0,0,81,338.88a194.59,194.59,0,0,0,18.45,29.37c6.91,9.29,14.35,18.17,21.79,27l.18.23v0h0l-.09.05s0,0,.07-.08v0A1.58,1.58,0,0,1,121.19,395.32Z"/><path class="cls-8" d="M123.39,398.16a118.49,118.49,0,0,0,87.28-89.64,121.24,121.24,0,0,0,1.82-43.63c0-.14,0-.24,0-.23a1.22,1.22,0,0,1,0,.22,117.32,117.32,0,0,1-1.38,43.75A118.36,118.36,0,0,1,194,348.92a120.39,120.39,0,0,1-70.56,49.29l-.24,0S123.26,398.19,123.39,398.16Z"/><path class="cls-8" d="M123.55,398.17A120.15,120.15,0,0,0,194.05,349a117.12,117.12,0,0,0,17.17-40.17,115.33,115.33,0,0,0,1.19-43.65l-.07-.44.23.16h-.1l.16-.22a123.73,123.73,0,0,1-1.88,43.53,121.23,121.23,0,0,1-16.84,40.18A120,120,0,0,1,123.6,398.1a2.31,2.31,0,0,1-.45.1,3.28,3.28,0,0,1,.43-.15,120.66,120.66,0,0,0,69.91-50,122,122,0,0,0,16.77-40,123.3,123.3,0,0,0,2-43.37l0-.19.2,0,.09,0,.2,0,0,.2.07.45a115.33,115.33,0,0,1-1.27,43.77,117.17,117.17,0,0,1-17.3,40.23,120.24,120.24,0,0,1-70.67,49.15l-.39.09h0c0-.07,0-.1,0-.1l0,.09h0Z"/><path class="cls-8" d="M155.42,429.06a174.25,174.25,0,0,0,32.14-32.52A185.42,185.42,0,0,0,210.46,357,188.4,188.4,0,0,0,223.05,313a177.79,177.79,0,0,0,1.37-45.68.62.62,0,0,1,0-.25.69.69,0,0,1,0,.24,169.5,169.5,0,0,1-.93,45.77,182.78,182.78,0,0,1-12.71,44,185.5,185.5,0,0,1-23.09,39.55,174.27,174.27,0,0,1-32.29,32.43c-.11.09-.21.16-.22.14A1.11,1.11,0,0,1,155.42,429.06Z"/><path class="cls-8" d="M155.58,429c24.33-18.6,43.33-43.84,55.37-71.93a180.1,180.1,0,0,0,12.69-43.94,166.17,166.17,0,0,0,.68-45.7l0-.31.22.18h-.1l.18-.22a187.65,187.65,0,0,1-13.92,89.53c-11.92,28.2-30.8,53.59-55.07,72.3a1.9,1.9,0,0,1-.39.28,4.36,4.36,0,0,1,.36-.32c24.08-18.92,42.83-44.29,54.64-72.45a188.86,188.86,0,0,0,14-89.3l0-.2.2,0h.1l.2,0,0,.19,0,.31a165.66,165.66,0,0,1-.77,45.79,179.87,179.87,0,0,1-12.79,44c-12.1,28.1-31.16,53.32-55.54,71.88l-.34.25h0a.44.44,0,0,1-.05-.09.3.3,0,0,1,.07.08h0Z"/><path class="cls-8" d="M246.8,481.84a16.38,16.38,0,0,0,5.13-3.88,21.57,21.57,0,0,0,2-2.54,32.33,32.33,0,0,0,1.62-2.8,37.17,37.17,0,0,0,2.39-6,56.68,56.68,0,0,0,1.57-6.29,87,87,0,0,0,1.56-12.86,90.33,90.33,0,0,0-.54-12.95c-1-8.6-2.7-17.09-4.15-25.63L252,383.28q-4.35-25.61-8.55-51.24l-8.49-51.24c0-.16,0-.28,0-.27a1.45,1.45,0,0,1,.07.26c3.15,17,6.06,34.1,8.94,51.17l8.44,51.25,4.33,25.61c1.43,8.53,3.15,17,4.07,25.65a80.27,80.27,0,0,1-1.1,25.87,57.55,57.55,0,0,1-1.6,6.3,35.55,35.55,0,0,1-2.42,6,30.19,30.19,0,0,1-1.63,2.81,23.44,23.44,0,0,1-2,2.54,16.66,16.66,0,0,1-5.17,3.88l-.27.11A.88.88,0,0,1,246.8,481.84Z"/><path class="cls-8" d="M247,481.81a17.93,17.93,0,0,0,5.12-3.91,23.74,23.74,0,0,0,3.61-5.37,47.93,47.93,0,0,0,4-12.31,88.58,88.58,0,0,0,1.6-12.87,90.45,90.45,0,0,0-.5-13c-.92-8.62-2.64-17.12-4.06-25.66l-4.33-25.62L244,331.83,238.06,299l5.28,32.57,8.6,51.25,4.41,25.61c1.45,8.53,3.21,17,4.18,25.65a92.41,92.41,0,0,1,.6,13A86.12,86.12,0,0,1,259.62,460a48.89,48.89,0,0,1-3.91,12.38,20.08,20.08,0,0,1-8.69,9.38,2.16,2.16,0,0,1-.49.22l.47-.26a20.06,20.06,0,0,0,8.58-9.41,48.85,48.85,0,0,0,3.81-12.35,87.25,87.25,0,0,0,1.45-12.88,91.74,91.74,0,0,0-.66-12.94c-1-8.6-2.78-17.08-4.25-25.62l-4.48-25.59-8.59-51.26L238.74,306l-3.56-22.1-.11-.71-.06-.34v-.17l0-.28-.05-.64-.05-.7,0-.38,0-.19v-.1s0,0,0-.05,0,0,.07,0l.41,1.7.22.95.11.5,0,.12,0,.07.05.3.25,1.41,3.72,20.79,4.56,25.58,8.35,51.29,4.29,25.63c1.41,8.54,3.11,17.05,4,25.67a92.26,92.26,0,0,1,.48,13,88.72,88.72,0,0,1-1.63,12.89,48,48,0,0,1-4,12.32,24.56,24.56,0,0,1-3.63,5.38,18.09,18.09,0,0,1-5.15,3.92l-.45.2h0a.31.31,0,0,1,0-.09l.05.08h0A3.67,3.67,0,0,1,247,481.81Z"/><path class="cls-8" d="M71.27,397.19l3.26,32.38.4,4a21.38,21.38,0,0,1,.19,4.08,4.81,4.81,0,0,1-1.73,3.61,4.32,4.32,0,0,1-4,.46c-2.64-.83-4.72-2.71-7.1-4a23.89,23.89,0,0,0-7.67-2.49A25.81,25.81,0,0,0,39,438c-.6.3-1.16.68-1.74,1s-1.1.79-1.65,1.18a7.92,7.92,0,0,0-.77.64l-.84.75-.29.26-.15.13s0,0,0,0v-.1l0-.78,0-1,.15-8.13q.34-16.28.9-32.54c.75-21.68,1.75-43.36,3.12-65q1-16.25,2.31-32.47c.42-5.37.82-10.93,3.12-15.92a17.94,17.94,0,0,1,4.94-6.44,12.6,12.6,0,0,1,7.45-3c.2,0,.36,0,.34,0l-.34,0a12.56,12.56,0,0,0-7.36,3,17.8,17.8,0,0,0-4.82,6.41c-2.23,5-2.59,10.48-3,15.86q-1.19,16.23-2.16,32.47-2,32.48-3.22,65-.6,16.26-1,32.52l-.18,8.14,0,1v.24c0,.07,0,0,.05,0l.09-.07.68-.61a8,8,0,0,1,.79-.65c.56-.39,1.08-.83,1.67-1.19s1.15-.72,1.76-1a26,26,0,0,1,15.86-2.66,23.79,23.79,0,0,1,7.74,2.53c2.4,1.27,4.46,3.15,7.05,4a4.15,4.15,0,0,0,3.81-.43A4.61,4.61,0,0,0,75,437.67a21.9,21.9,0,0,0-.17-4l-.4-4.05-3.17-32.39a1.1,1.1,0,0,1,0-.37A1.79,1.79,0,0,1,71.27,397.19Z"/><path class="cls-8" d="M71.24,397.46l2.09,21.59,1,10.79.51,5.4a12.92,12.92,0,0,1,0,2.71,5,5,0,0,1-.95,2.53,3.51,3.51,0,0,1-2.36,1.3,5.45,5.45,0,0,1-2.67-.45,27.4,27.4,0,0,1-4.69-2.72A23.38,23.38,0,0,0,54.13,435a26.16,26.16,0,0,0-10.7.86,24.9,24.9,0,0,0-5,2.06,24.4,24.4,0,0,0-2.29,1.43c-.37.26-.73.54-1.08.82l-.52.43-.63.56a3.11,3.11,0,0,1,0-.78l0-.67,0-1.34.06-2.68.13-5.37.33-10.74.68-21.48,2.13-42.92,1.07-21.46,1.36-21.45.69-10.72a66.31,66.31,0,0,1,1.31-10.68,26.81,26.81,0,0,1,1.72-5.12,18.07,18.07,0,0,1,3-4.51,13.39,13.39,0,0,1,9.46-4.78l-.19.2v-.1l.2.19a11.46,11.46,0,0,0-1.65.13,13.43,13.43,0,0,0-7,3.62,18.26,18.26,0,0,0-4.44,6.64c-2,5-2.35,10.51-2.78,15.9l-2.34,32.46c-1.37,21.66-2.31,43.34-3,65L34,421.58l-.3,10.54-.1,5.28,0,2.63,0,1.32v.54s0,0,.06,0l.86-.77c.33-.3.7-.6,1.06-.89a21,21,0,0,1,2.28-1.58,25.16,25.16,0,0,1,5-2.31,26.34,26.34,0,0,1,10.94-1.14,23.56,23.56,0,0,1,10.35,3.64,25.48,25.48,0,0,0,4.74,2.72,5.92,5.92,0,0,0,2.61.47,3.79,3.79,0,0,0,2.36-1.11A4.6,4.6,0,0,0,75,438.52a11.16,11.16,0,0,0,.13-2.71c-.14-1.82-.35-3.65-.52-5.47l-1.1-10.95L71.3,397.5a3.49,3.49,0,0,1,0-.68s0,.32.09.67l2.31,21.88,1.14,10.94c.18,1.83.41,3.64.55,5.48a10.81,10.81,0,0,1-.12,2.78A4.94,4.94,0,0,1,74,441.08a4.06,4.06,0,0,1-2.52,1.19,6.15,6.15,0,0,1-2.75-.47,26.68,26.68,0,0,1-4.8-2.73,23.06,23.06,0,0,0-10.22-3.56,25.92,25.92,0,0,0-10.78,1.16A24.31,24.31,0,0,0,38,439a20.37,20.37,0,0,0-2.24,1.56c-.35.28-.7.56-1,.88l-1.19,1.06c-.29.18-.38.12-.41-.26v-.85l0-1.31,0-2.64.09-5.28.27-10.54.54-21.1c.69-21.69,1.64-43.38,3-65L39.53,303c.43-5.38.76-10.92,2.83-16a18.69,18.69,0,0,1,4.55-6.78,13.82,13.82,0,0,1,7.24-3.71,10.85,10.85,0,0,1,1.71-.13h.19v.49h-.2a13.09,13.09,0,0,0-9.19,4.64,18.29,18.29,0,0,0-2.91,4.42,26.32,26.32,0,0,0-1.7,5.05,66.16,66.16,0,0,0-1.32,10.62L40,312.26,38.65,333.7l-1.1,21.45-2.19,42.92-.71,21.47-.34,10.74-.14,5.37-.06,2.68,0,1.35v.91c0,.05,0,.2,0,.18l.38-.33L35,440c.35-.29.71-.56,1.08-.82a26.2,26.2,0,0,1,2.31-1.44,25.27,25.27,0,0,1,5-2.07,26.43,26.43,0,0,1,10.76-.85,23.64,23.64,0,0,1,10.13,3.69,27.2,27.2,0,0,0,4.66,2.71,5.41,5.41,0,0,0,2.62.45,3.4,3.4,0,0,0,2.28-1.25,4.89,4.89,0,0,0,.94-2.48,13.53,13.53,0,0,0,0-2.7l-.51-5.39-1-10.8-2.06-21.59a5.12,5.12,0,0,1,0-.63h0A6,6,0,0,1,71.24,397.46Z"/><path class="cls-8" d="M212,320.12c1.61-6,3.3-12,4.79-18.09a170.52,170.52,0,0,0,3.64-18.32c.45-3.08.7-6.18.89-9.29s.2-6.21,0-9.32l0-1.17c0-.1,0-.05,0-.07h0l-.1,0-.13-.1-.46-.39a13.57,13.57,0,0,0-1.83-1.39,6.36,6.36,0,0,0-4.33-.95,9.34,9.34,0,0,0-4.16,1.84c-.64.44-1.19,1-1.79,1.49L206.92,266c0,.05-.08.07-.08.06s0-.05,0-.09c.51-.58,1-1.18,1.55-1.76s1.11-1.1,1.75-1.56a9.53,9.53,0,0,1,4.24-2,6.81,6.81,0,0,1,4.62.93A13.36,13.36,0,0,1,221,263l.44.36.11.07,0,0,.12.07c.21,0,.16.33.17.41l.06,1.17a86.14,86.14,0,0,1,0,9.37c-.22,3.12-.51,6.23-1,9.32A173.15,173.15,0,0,1,217,302.09c-1.55,6-3.29,12-5,18,0,.06,0,.1-.05.09S212,320.17,212,320.12Z"/><path class="cls-8" d="M212.08,320.12c3.38-12,7.07-24,8.86-36.33.48-3.08.79-6.18,1-9.29a88.17,88.17,0,0,0,0-9.34l-.07-1.16v-.24l-.16-.17a2.94,2.94,0,0,0-.4-.39,20.41,20.41,0,0,0-1.84-1.41,7,7,0,0,0-4.32-1.24,8.43,8.43,0,0,0-4.22,1.61,16.77,16.77,0,0,0-3.35,3.17l-.66.82,0-.28.08.07h-.28a17.43,17.43,0,0,1,5.78-4.46,7,7,0,0,1,3.67-.55,5.8,5.8,0,0,1,1.79.54c.29.15.53.24.85.44l.76.53h0a10.74,10.74,0,0,1,.89.72l.42.36.21.18s.28.15.26.33a110.73,110.73,0,0,1-.82,19.54C218.84,296,215.32,308,212.05,320c0,.11-.06.19-.07.18a.41.41,0,0,1,0-.19c3-12.11,6.44-24.15,8-36.52a117.26,117.26,0,0,0,.83-19.35l-.3-.25-.43-.37a10.86,10.86,0,0,0-.85-.7h0l-.74-.51c-.18-.12-.51-.26-.75-.4a5.62,5.62,0,0,0-1.68-.51,6.35,6.35,0,0,0-3.43.5,17,17,0,0,0-5.66,4.33l-.13.14-.14-.12-.08-.07-.15-.13.12-.15.67-.82a17.29,17.29,0,0,1,3.44-3.23,8.75,8.75,0,0,1,4.42-1.65,7.27,7.27,0,0,1,4.52,1.31,20.44,20.44,0,0,1,1.86,1.44,3,3,0,0,1,.44.43l.24.25V264l.06,1.17a88.76,88.76,0,0,1-.08,9.37c-.24,3.12-.56,6.22-1.05,9.31-1.86,12.37-5.6,24.32-9,36.31l0,.1v0h0c-.06,0-.09,0-.09-.05s0,0,.1,0h0Z"/><path class="cls-8" d="M63,280.88a25.33,25.33,0,0,1-.37-8.81,11,11,0,0,1,1.49-4.18A7.19,7.19,0,0,1,67.51,265a12.66,12.66,0,0,1,4.38-.88,13.57,13.57,0,0,1,4.44.55,9.75,9.75,0,0,1,3.93,2.14,5.6,5.6,0,0,1,1.82,4s0,.05,0,.05,0,0,0,0A5.77,5.77,0,0,0,80,267a9.71,9.71,0,0,0-3.82-1.92,14.8,14.8,0,0,0-4.29-.53,12.23,12.23,0,0,0-4.25.75,6.88,6.88,0,0,0-3.24,2.72,10.81,10.81,0,0,0-1.53,4.06,25.29,25.29,0,0,0,.2,8.76s0,.05,0,.05S63,280.91,63,280.88Z"/><path class="cls-8" d="M63.09,280.92a26.23,26.23,0,0,1-.18-8.57,11.38,11.38,0,0,1,1.45-4.05,6.9,6.9,0,0,1,3.21-2.83,11.62,11.62,0,0,1,4.24-.77,15.92,15.92,0,0,1,4.29.48A10.26,10.26,0,0,1,80,267a6.06,6.06,0,0,1,2.18,3.74l-.2-.16h.1l-.19.19a5,5,0,0,0-.06-.94,5.68,5.68,0,0,0-2.19-3.55,10.49,10.49,0,0,0-3.89-1.84,13.58,13.58,0,0,0-4.31-.34,12.31,12.31,0,0,0-4.2,1A7.27,7.27,0,0,0,64.15,268a11,11,0,0,0-1.44,4.08,26.14,26.14,0,0,0,.32,8.77c0,.05,0,.09,0,.09s0,0,0-.08a24.34,24.34,0,0,1-.61-8.84,11.41,11.41,0,0,1,1.41-4.25,7.74,7.74,0,0,1,3.27-3.09,12.52,12.52,0,0,1,4.37-1.07,14,14,0,0,1,4.47.38,11.07,11.07,0,0,1,4,2,6.14,6.14,0,0,1,2.3,3.84,4.86,4.86,0,0,1,.06,1V271h-.46l0-.18a5.71,5.71,0,0,0-2-3.53A9.86,9.86,0,0,0,76,265.48a15.72,15.72,0,0,0-4.21-.52,11.58,11.58,0,0,0-4.17.71,6.67,6.67,0,0,0-3.14,2.73,10.86,10.86,0,0,0-1.46,4,26,26,0,0,0,.09,8.53c-.09.07-.11,0-.12,0S63.08,280.87,63.09,280.92Z"/><path class="cls-8" d="M73.15,272.89a47.42,47.42,0,0,0,11.32-2.58,84.61,84.61,0,0,0,10.69-4.57c3.46-1.76,6.81-3.73,10.07-5.82a98.07,98.07,0,0,0,9.4-6.85s.06,0,.06,0,0,0,0,0a68.11,68.11,0,0,1-9.16,7.24,89.07,89.07,0,0,1-10.16,5.76,87.45,87.45,0,0,1-10.8,4.43,48.38,48.38,0,0,1-11.39,2.41s-.07,0-.07,0S73.11,272.89,73.15,272.89Z"/><path class="cls-8" d="M73.12,272.94a47,47,0,0,0,11.41-2.34,84.28,84.28,0,0,0,10.8-4.4,67.05,67.05,0,0,0,19.13-13.13l.12-.13v.28l-.07-.08.27,0q-4.56,3.56-9.44,6.68c-3.25,2.06-6.54,4.08-10,5.84a85,85,0,0,1-10.76,4.62,46.51,46.51,0,0,1-11.4,2.57c-.07,0-.13,0-.12,0s0,0,.12,0A50.45,50.45,0,0,0,84.48,270a88.73,88.73,0,0,0,10.65-4.73c3.4-1.78,6.68-3.78,9.94-5.82s6.42-4.24,9.47-6.58l.15-.11.12.13.07.08.12.14-.13.13-.13.13a67.19,67.19,0,0,1-19.31,13,83.28,83.28,0,0,1-10.86,4.33A47.14,47.14,0,0,1,73.12,273h-.06v0c0-.06,0-.1,0-.1s0,0,0,.1l0,0Z"/><path class="cls-8" d="M212.73,266.9A44.89,44.89,0,0,1,200,264.58c-4.14-1.31-8.17-2.92-12.18-4.59l-12-5.06c-4-1.71-8-3.34-12.06-4.85,0,0-.06,0-.05-.05h.07c4.16,1.24,8.21,2.81,12.23,4.44s8,3.44,11.95,5.16,8,3.38,12.09,4.73a44.17,44.17,0,0,0,12.7,2.49s.07,0,.07,0S212.77,266.9,212.73,266.9Z"/><path class="cls-8" d="M212.75,266.85a44.31,44.31,0,0,1-12.36-2.44c-4-1.32-7.91-2.93-11.78-4.59l-11.6-5c-1.93-.84-3.91-1.56-5.89-2.28-1.81-.66-4.65-1.56-4.47-1.48a1.39,1.39,0,0,0-.31-.06h0l21.41,8.94c4,1.67,8,3.28,12.18,4.59a45.69,45.69,0,0,0,12.74,2.38c.08,0,.14,0,.13,0s-.06,0-.13,0a43,43,0,0,1-12.85-2.1c-4.17-1.25-8.23-2.83-12.26-4.46l-12-5-6-2.55-3.3-1.4-1.34-.57-.67-.29-.33-.14-.05,0-.41-.36h0l0,0c.07-.1.14,0,.21-.07l.24,0c1.41.38,3.64,1.07,4.3,1.3,1,.33,2,.68,3,1,2,.73,4,1.46,5.88,2.32l11.57,5.1c3.86,1.68,7.75,3.32,11.74,4.66a43.72,43.72,0,0,0,12.33,2.52h.07v0c0,.06,0,.1,0,.1s0,0,0-.1l0,0Z"/><path class="cls-8" d="M164.35,250.53a10.42,10.42,0,0,1,3.82,1.88l.42.33a.62.62,0,0,1,.29.47,1.41,1.41,0,0,1-.45,1,6.28,6.28,0,0,1-1.76,1.23,34,34,0,0,1-8.06,2.86,85,85,0,0,1-17,2.15,113.81,113.81,0,0,1-17.12-.27,38.3,38.3,0,0,1-4.24-.72,18,18,0,0,1-4.07-1.39,5.94,5.94,0,0,1-1.8-1.23,2.63,2.63,0,0,1-.92-2,2.14,2.14,0,0,1,1.33-1.66,8.27,8.27,0,0,1,2-.64c.05,0,.1,0,.09,0s0,0-.08,0a8.16,8.16,0,0,0-2,.72,2,2,0,0,0-1.18,1.55,2.45,2.45,0,0,0,.9,1.74,5.78,5.78,0,0,0,1.75,1.13,17.94,17.94,0,0,0,4,1.28,42.15,42.15,0,0,0,4.2.65,132.62,132.62,0,0,0,17,.36,84.61,84.61,0,0,0,16.93-2,33.83,33.83,0,0,0,8-2.76,6.21,6.21,0,0,0,1.74-1.18,1.4,1.4,0,0,0,.44-.9c0-.33-.42-.5-.67-.74a10.51,10.51,0,0,0-3.77-1.91c-.06,0-.1,0-.09,0S164.3,250.51,164.35,250.53Z"/><path class="cls-8" d="M164.33,250.57a10.38,10.38,0,0,1,3.74,1.91l.41.33a.58.58,0,0,1,.28.46,1.64,1.64,0,0,1-.52.92,7.59,7.59,0,0,1-1.78,1.14,33.83,33.83,0,0,1-8,2.67,85.37,85.37,0,0,1-16.71,1.94,147.86,147.86,0,0,1-16.84-.34,29.26,29.26,0,0,1-8.25-1.73,6.84,6.84,0,0,1-1.88-1.05,2.83,2.83,0,0,1-1.16-1.86,1.53,1.53,0,0,1,.4-1.09,3.53,3.53,0,0,1,.87-.69,8.67,8.67,0,0,1,2-.77l-.14.23,0-.1.23.16c-.35.06-.69.13-1,.22a4.34,4.34,0,0,0-1.83.88,1.58,1.58,0,0,0-.49,1.72,3.79,3.79,0,0,0,1.19,1.61,7.91,7.91,0,0,0,1.77,1.08,28,28,0,0,0,8.21,2,114.38,114.38,0,0,0,17.07.17,84.49,84.49,0,0,0,16.91-2.18,33,33,0,0,0,8-2.88,5.12,5.12,0,0,0,1.69-1.23,1.25,1.25,0,0,0,.37-.9c0-.31-.4-.49-.66-.72a10.43,10.43,0,0,0-3.77-1.91c-.11,0-.18-.07-.17-.08a.37.37,0,0,1,.18,0,10.31,10.31,0,0,1,3.85,1.84c.25.23.67.37.74.82a1.49,1.49,0,0,1-.39,1,5.32,5.32,0,0,1-1.72,1.31,32.56,32.56,0,0,1-8,3,83.07,83.07,0,0,1-17,2.35,107.94,107.94,0,0,1-17.15-.18,28.14,28.14,0,0,1-8.34-2.08,5.6,5.6,0,0,1-3.17-3,2.11,2.11,0,0,1,0-1.17,2.05,2.05,0,0,1,.64-1,4.7,4.7,0,0,1,2-1c.35-.09.7-.15,1-.22l.2,0,0,.19,0,.1,0,.18-.17,0a8.64,8.64,0,0,0-1.92.72c-.58.33-1.15.81-1.1,1.43a2.47,2.47,0,0,0,1,1.6,6.57,6.57,0,0,0,1.77,1,28.92,28.92,0,0,0,8.15,1.74,144.88,144.88,0,0,0,16.8.42,84.3,84.3,0,0,0,16.69-1.84,33.8,33.8,0,0,0,8-2.63,7,7,0,0,0,1.76-1.11,1.55,1.55,0,0,0,.5-.87.5.5,0,0,0-.25-.4l-.41-.33a10.52,10.52,0,0,0-3.7-1.91l-.09,0h0v0c0-.06,0-.1,0-.09s0,0,0,.1l0,0Z"/><path class="cls-8" d="M236.12,288.75c-.28-2.06-.65-4.11-1.07-6.14a53.67,53.67,0,0,0-1.55-6,19.2,19.2,0,0,0-2.89-5.39,10.35,10.35,0,0,0-4.86-3.6.05.05,0,0,1,0,0h0a9.36,9.36,0,0,1,5.24,3.33,16.8,16.8,0,0,1,2.88,5.59,53.76,53.76,0,0,1,1.39,6.1c.36,2.05.67,4.1.9,6.17,0,0,0,0,0,0Z"/><path class="cls-8" d="M236.12,288.72l-.79-6.19a37,37,0,0,0-1.44-6,15.85,15.85,0,0,0-2.93-5.4,10.19,10.19,0,0,0-5.07-3.27l-.22-.05.25-.15h0l-.14-.24a9.59,9.59,0,0,1,5,3.61,20.57,20.57,0,0,1,2.83,5.49c.62,2,1,4,1.48,6.07s.74,4.11,1.08,6.16c0,0,0,.07,0,.07s0,0,0-.06c-.48-2-.93-4.06-1.37-6.08s-1-4.06-1.62-6a21.72,21.72,0,0,0-2.76-5.35,9.12,9.12,0,0,0-4.7-3.52l-.19-.05.06-.19h0l.05-.2.19.05.22.07a10.4,10.4,0,0,1,5.21,3.45,16.1,16.1,0,0,1,2.91,5.54,38.54,38.54,0,0,1,1.36,6.09l.7,6.2a.16.16,0,0,1,0,.07h0A.16.16,0,0,1,236.12,288.72Z"/></g></g><g id="head_neutral"><g id="head_neutral_colour"><path class="cls-9" d="M221.36,130.12c-.3-5-1.47-8-2.16-12.9-.73-5.22-.14-9.33-.54-14.34-.19-2.37-.43-4.91-.79-7.25s-.61-4.83-1.16-7.11c-.61-2.54-1.24-5.82-1.94-8.33-1.86-6.65-4.44-12.29-7-18.7a62.45,62.45,0,0,0-7.85-14.24c-5.25-8.84-20.26-28.5-36.62-27.19-18.51,1.47-29.73,15.53-32.57,17.39-2.58,1.7-7.87,5.52-8.79,6.19a.32.32,0,0,1-.3,0l-21.57-10c-.24-.1-17.14-6.6-28.49,4-8.57,8-12.48,25.18-11.92,56,.56,30.2-6.88,27.78-2.1,46.58,5.54,18.21,11.57,27.9,11.49,37.26-.33,6.58-1.28,7.47-3.08,7.58-1.64.11-3.37.24-2.78.39s1.61,2.76,4,2.65c2.07-.1,3.88-1.09,4.48-5.29s1.08-10.78.63-14.36c-.16-1.92,7.89,11.88,8.93,15.76s4.91,16.41,3,21.7-2,5.37-3.4,6.89c-3.2,3.32,5-.82,8.25-4.71s1.46-7.25,1.61-12.23,2-10.78,2.95-11.4,1.83,1,1.83,1-.75,9.79,1,13.52,3.2,11.53,2.39,16.35-2.08,8.05-4.17,10.23a6.46,6.46,0,0,0-1.93,3.1.29.29,0,0,0,.32.33A6.83,6.83,0,0,0,96,227.4c2.54-2,7.09-6.93,7.84-11.75s.44-9.47.59-12.42,1.18-7.66,2-9.11a1.59,1.59,0,0,1,2-.55.27.27,0,0,1,.16.25,19.38,19.38,0,0,0,.43,2.57c.75,3.57,2.54,9.32,3.29,15.23s.15,10.87-1,13.2.52,1.14,2.16-1.19,2.87-6.09,4.05-10.86a35.25,35.25,0,0,0,1.26-8.15c.19-2,4.2,8,6.92,15.14a.28.28,0,0,0,.46.1c1.4-1.3,2.9-2.49,4.37-3.67,2.86-2.3,1.35,4.26,4.31,2.08,3.37-2.89,5.25-1.53,8.7-4.32,1.44-1.3,6-2.23,7.68-3.11,1.13-.59,6.37-12.14,5.49-11.42a35.06,35.06,0,0,0,.92,16c1.58,4.84,3.69,5.61,6.62,9.8l.57,0a25.63,25.63,0,0,1-.73-9.38c.32-5.5,1.94-11.33,2.83-16.92.12-.79,1.46-.56,1.83-.25a7.26,7.26,0,0,1,1.34,2.76,15.79,15.79,0,0,1,.78,4.69c.15,1.78,0,3.54.12,5.31s.31,3.44.43,5.16A19.15,19.15,0,0,0,175,226.3c.59.8,5.17,4.66,6.31,5.74a.29.29,0,0,0,.37,0l.91-.65a.29.29,0,0,0,.07-.39c-3.73-5.81-4.9-12.63-4.67-19.44a95.51,95.51,0,0,1,1.23-10.37,80.38,80.38,0,0,0,.87-10.87c0-.47,1.06-.89,1.84.14a6.85,6.85,0,0,1,1.14,1.85,23.83,23.83,0,0,1,.64,2.52c.28,1.62.27,3.53.41,5.17.28,3.25.21,6.46,1.51,9.49,1.87,4.38,5.08,6,8.84,7.24a.3.3,0,0,0,.36-.42c-1.26-2.34-2.45-8.18-2.69-10a37.22,37.22,0,0,1,.81-13.09c1.76-7.77,5.18-15.14,8.33-22.42.43-1,2.88-4.83,2.2-2.11-1.74,7-2.1,15.76.27,22.73,1.06,3.11,4.29,6,7,7.23.37.17.41-1,0-1.11-.84-.25-2.71-2.84-3-4.51a42,42,0,0,1,.5-16.86c1.36-6.42,3.9-10.17,6.85-16,1.17-2.31,2.7-7,3.78-9.37,0,0,0,0,0,0,1.28-4.31,1.78-6,2.81-10.37v-.07C221.78,138.59,221.46,131.79,221.36,130.12Z"/><path class="cls-10" d="M202.82,119.79a13.63,13.63,0,0,1-2.12.64c-5,.38-7.89-4.79-9.42-8.87-1.85-4.93-2.64-10.2-3.54-15.39a103.45,103.45,0,0,1-1.6-17.12,45.4,45.4,0,0,1,.58-8.16c-3-5.77-3.12-5.48-9.78-6-2.16-.19-9.54,2.53-11.52,3.24a55.37,55.37,0,0,1-13.54,3.25,51.76,51.76,0,0,1-7.56.46c-2.47-.15-4,.13-6.5.12-1.62,0-3.26,0-4.89-.06-.55,0-4.94-.57-4.94-.57a15.84,15.84,0,0,0-1.9-3.68c-1.09-1.5-2.7-2.67-3.23-2.58-.06.6.13,7.23,0,7.82a8.13,8.13,0,0,1-.83,2.07,12.64,12.64,0,0,1-1.77,2c-.12.12-.58.43-.77.59-.51.41-1.2,1.1-2,1.72-1.9,1.57-3.87,3-5.81,4.54-5.14,4-10.62,7.51-15.6,11.73a72.07,72.07,0,0,1-10,7.41c.52,1.47.72,3.93,1.07,5.5a28.48,28.48,0,0,1,.53,6.64c-.24,5.22-.56,9.42-4.09,13.32-1.41,1.55-3.32,3.14-5.46,3.25a3,3,0,0,1-.53,0h-.08l-.45-.07a2.78,2.78,0,0,1-.38-.12,3.25,3.25,0,0,1-.43-.18A3.07,3.07,0,0,1,76,131l-.35-.26-.16-.14c-.27-.23-1.8-2.46-2-2.75,1,6.6,1.38,14.94,1.79,21.44A45.78,45.78,0,0,0,89,179.7c4.07,4,11.72,7.76,16.42,10.93,2.6,1.75,15.15,10.08,15.15,10.08,0,10.55-1.11,20.19-2,30.73-.38,4.26-.64,8.95-1,13.22-.34,3.66-.42,6.71-.46,9.25,0,.8-.13,4-.17,4.1a37,37,0,0,0,10.81,1.66,170.47,170.47,0,0,0,22-.48,42.52,42.52,0,0,0,10-1.68c1.83-.55,5.56-1.34,6.79-2.6-2-4.42-6.29-13.66-7.55-18.35-1.34-5-1.88-10.1-2.87-15.18s-2.51-18.08-2.21-18.39c0-.09,2.17-1,2.16-1.07l.74-.39,0,0a1.33,1.33,0,0,1,.44-.23c1.21-.64,3.11-1.67,4.76-2.61,11.3-6.4,21.23-12.67,28.32-23.68,10.49-17.92,13.34-32,13.38-46.19C203.68,125.93,203.69,122.53,202.82,119.79Z"/><path class="cls-10" d="M216.53,124.88a39.22,39.22,0,0,0-.69-4.08c-1.49-3.67-1.32-7.89-5.26-8.45-1.39-.2-2-.29-2.79.17a7.36,7.36,0,0,1-1.09.46,5.59,5.59,0,0,1-.84,3.43c-.86,1.32-1.89,2.66-2.89,2.88.74,5.84-.75,15.29.32,20.84.54,2.8-.92,8.53.39,11.11a4.85,4.85,0,0,0,4.06,2.49c1.35-.06,4.17-2.47,4.84-3.69s3-6.12,3.25-7.5A66.25,66.25,0,0,0,216.53,124.88Z"/><path class="cls-10" d="M73.72,127.87a14.71,14.71,0,0,1-1.11-2.21c-2-3.3-3.43-8-4.52-11.78a7.53,7.53,0,0,0-2.32.32c-1.93.48-3.78,3.58-4.17,4.88a68.08,68.08,0,0,0-1.6,9.29c.2,6.81,1.2,13,3.2,17.26a45.79,45.79,0,0,0,5.29,7.45c3.25,3.85,6.42.24,6.42.24s.07-8-.18-13.08S73.72,127.87,73.72,127.87Z"/></g><g id="head_neutral_shading_dark" class="cls-11"><path class="cls-6" d="M125.83,202.63c-6.32-4.85-8.91-7.75-15-12.85-10.32-8.59-20.6-17.24-25.79-30.12a47.2,47.2,0,0,1-1.29-31.07,5.64,5.64,0,0,1-9.94-.22c.34,9.78.94,19.77,2.81,29.36a32.48,32.48,0,0,0,3.74,10.47c3,5.61,8,10.87,12.74,15,10.41,7.34,23.89,13.67,30.82,19.61a31,31,0,0,0,4.14,2.75c1.38.85,3.91,2.57,5.69,2.35C133,207.31,129.4,205.37,125.83,202.63Z"/><path class="cls-6" d="M121.29,259.43s.51-13.21.75-17.1c.28-4.83.94-13.4,1.44-18,1.57-14.44,11.35-16.18,11.35-16.18s-2.5-.42-3.41-.72a10,10,0,0,1-4.92-2.8c-1.43-1.45-6-3.94-6-3.94s-.33,4.64-.41,11c-.16,11.45-1.94,16.69-2.1,21.47-.19,6-.72,11.56-.91,17.6,0,.23-.27,7.06-.28,7.29A28.51,28.51,0,0,0,121.29,259.43Z"/><path class="cls-6" d="M68.31,126.17a32.18,32.18,0,0,0-1.54,10.9c0,1.93.18,6.29,2,7.91,8.95-1.37,6-9.32,5.65-12.75-.17-1.72-1-5.48-1-5.48S71.28,124,70.76,124a1.81,1.81,0,0,0-1.06.33,3.35,3.35,0,0,0-1.39,1.8Z"/><path class="cls-6" d="M209.59,125.5a25.16,25.16,0,0,1,1.3,7.69c.06,1.93-.19,7.63-1.9,9.35-9-.87-6.74-9.29-6.58-12.73.08-1.73-.25-6.13-.25-6.13s1.68-2.45,2.54-2.87a3.44,3.44,0,0,1,2,0,4.43,4.43,0,0,1,1.63,1.41A18.33,18.33,0,0,1,209.59,125.5Z"/></g><g id="head_neutral_shading_light"><path class="cls-12" d="M210,118.56c1.63,1.29,3.71,6.18,4.18,11.7a90.21,90.21,0,0,1-.65,17.26s2.52-6.24,2.72-7.82c1.14-9.17.84-21.29-2.83-25.39-2.3-2.57-4.52-.65-4.73,0A4.26,4.26,0,0,0,210,118.56Z"/><path class="cls-12" d="M186.29,79.15c0-.41,0-1.92,0-2.56,0-.16.24-1.29.24-1.5-.07-.56.31-4,.16-4.53a7.28,7.28,0,0,0-3.31-4.62c-2-1.56-4.79-1.76-7.66-1.36-1.37.2-3.6,1.17-4,1.19a15.19,15.19,0,0,1-2.34,1.11c-.41.39-.57,3-.76,3.83a31.15,31.15,0,0,1-1.15,3.82c2.93,2.82,5.89,2.7,9.69,6.49,2.7,2.7,7.22,9,10,12.3A138.72,138.72,0,0,1,186.29,79.15Z"/><path class="cls-12" d="M203,119.49a5.62,5.62,0,0,1-1.66.67c-2.19.27-4.43.49-6.13-2.21,3.26,5.16-.38,17.68-1.53,23.17-2.57,12.23-6.91,24.92-15,34.62-4.33,5.17-9.18,9.85-13.85,14.68-1.29,1.33-2.58,2.64-3.89,3.94a82.25,82.25,0,0,1-9.9,10.19c9-4.71,21.79-10.87,31.2-20.17s18.31-28.66,20-41.59C203.74,130.75,204.07,128.72,203,119.49Z"/><path class="cls-12" d="M156,244.94c.08.33.15.65.22,1,.48,2.25,1,4.49,1.45,6.73.27,1.32.31,5.24,2,4.86a34.81,34.81,0,0,0,7-2.47c-1.44-3-4.7-8.22-5.4-11.45-3.14-6.82-3.58-14.12-4.81-21.55-1-5.94-1.73-12.23-2.63-19-1.59,1-3.76,2.19-3.76,2.19a165.28,165.28,0,0,0,3.36,27.24C154.25,236.61,155.14,240.77,156,244.94Z"/><path class="cls-12" d="M66.77,118.25c-3,3.27-2.86,10.09-2.93,13.34-.06,2.93-.62,12.4-2,8.82s-1.42-9.54-1.56-12.85,1.56-9.1,1.56-9.1a3,3,0,0,1,2.65-1.95A2.35,2.35,0,0,1,66.77,118.25Z"/></g><g id="head_neutral_outline"><path class="cls-8" d="M153.9,203.14c.55,4.42,1.36,8.8,2.08,13.21s1.18,8.85,2,13.22a95.88,95.88,0,0,0,3.43,12.83,116.12,116.12,0,0,0,5.1,12.31l-.09,0a65,65,0,0,1-5.95-12,69.67,69.67,0,0,1-3.28-13c-.7-4.43-1-8.87-1.66-13.28s-1.28-8.83-1.69-13.27Z"/><path class="cls-8" d="M120.53,201.25c-.09,9.44-.54,18.87-1.17,28.29-.3,4.7-.58,9.42-1,14.11s-1,9.38-1.58,14.07h-.1c.08-4.73.36-9.44.68-14.14s.83-9.4,1.24-14.09c.8-9.4,1.48-18.8,1.86-28.23Z"/><path class="cls-8" d="M137.65,208.17a22.83,22.83,0,0,0,7.64-.85,31.58,31.58,0,0,0,3.5-1.62q1.72-.88,3.42-1.83c2.26-1.24,4.49-2.55,6.73-3.85l6.71-3.89a90.29,90.29,0,0,0,12.72-8.76A61.72,61.72,0,0,0,188.74,176c6-8.36,9.83-18.13,12.19-28.11A102.67,102.67,0,0,0,203,133.73a109.4,109.4,0,0,0-.1-14.37l.2,0,.22,2.18-.1,0-.32-2.17.2,0a92.68,92.68,0,0,1,.63,14.43,95.25,95.25,0,0,1-1.82,14.36,75.16,75.16,0,0,1-12.52,28.35,62,62,0,0,1-10.6,11.4,90.13,90.13,0,0,1-12.9,8.68l-6.75,3.81c-2.25,1.27-4.5,2.55-6.79,3.77-1.14.61-2.29,1.21-3.45,1.78a29.07,29.07,0,0,1-3.55,1.59,22.56,22.56,0,0,1-7.71.76Z"/><path class="cls-8" d="M137.65,208.27a16.74,16.74,0,0,1-6.93-1.14,30.2,30.2,0,0,1-6.15-3.45c-1.94-1.34-3.79-2.78-5.73-4.09s-3.94-2.53-6-3.73c-8-4.78-16.51-9.06-23.71-15.23A45.77,45.77,0,0,1,79.85,170a37,37,0,0,1-4.55-13.43c-1.34-9.41-.4-18.83-1.63-28.14l.1,0c1.77,9.27,1.06,18.8,2.51,28a38.85,38.85,0,0,0,4.42,13.09,44.72,44.72,0,0,0,9,10.57c7,6.16,15.44,10.53,23.45,15.42,2,1.22,4,2.48,5.93,3.82s3.77,2.81,5.67,4.17a30.54,30.54,0,0,0,6.06,3.51,16.5,16.5,0,0,0,6.84,1.23Z"/><path class="cls-8" d="M203.32,139.47c.13,2.83-.16,5.65-.09,8.45a8.66,8.66,0,0,0,.26,2.05,6.15,6.15,0,0,0,.91,1.83,3.73,3.73,0,0,0,3.42,1.66,5.89,5.89,0,0,0,3.34-2.13,18.31,18.31,0,0,0,2.37-3.4,26.24,26.24,0,0,0,2.66-7.87,50.69,50.69,0,0,0-.12-16.67c-.23-1.37-.51-2.74-.85-4.1a15.45,15.45,0,0,0-1.42-3.85,6,6,0,0,0-2.88-2.73,4,4,0,0,0-3.91.22l-.06-.08a4.2,4.2,0,0,1,4.14-.56,6.43,6.43,0,0,1,3.31,2.79,15.57,15.57,0,0,1,1.67,4c.39,1.37.72,2.76,1,4.16a45.79,45.79,0,0,1-.07,17,26.86,26.86,0,0,1-2.88,8,19.45,19.45,0,0,1-2.52,3.47,6.34,6.34,0,0,1-3.7,2.23,4.13,4.13,0,0,1-3.8-1.92,6.2,6.2,0,0,1-.93-2,8.65,8.65,0,0,1-.22-2.14c0-2.83.35-5.64.29-8.45Z"/><path class="cls-8" d="M66.93,113.92a6.13,6.13,0,0,0-2.83,1.39,7.94,7.94,0,0,0-1.83,2.57,17.7,17.7,0,0,0-1,3c-.14.52-.26,1-.38,1.56l-.17.79a4.44,4.44,0,0,0-.08.77,62.72,62.72,0,0,0-.13,6.43,45.43,45.43,0,0,0,.58,6.38,31.42,31.42,0,0,0,4.4,11.83,24.44,24.44,0,0,0,4.06,4.85,3.71,3.71,0,0,0,2.67,1.18,3.85,3.85,0,0,0,2.67-1.41l.08.06a4,4,0,0,1-2.71,1.8,4.11,4.11,0,0,1-3.17-1.1,22.36,22.36,0,0,1-4.43-4.83A28.53,28.53,0,0,1,60.28,137a44.16,44.16,0,0,1-.45-6.49,63.6,63.6,0,0,1,.3-6.48,5.24,5.24,0,0,1,.11-.84l.2-.78c.13-.52.27-1.05.42-1.57a17.8,17.8,0,0,1,1.14-3,7.93,7.93,0,0,1,2-2.59,6.06,6.06,0,0,1,3-1.33Z"/><path class="cls-8" d="M68,184.25A15.89,15.89,0,0,0,69.11,178a33.36,33.36,0,0,0-.74-6.37,86.83,86.83,0,0,0-3.76-12.3c-1.44-4.06-3.08-8-4.63-12a59.42,59.42,0,0,1-3.57-12.42,44.74,44.74,0,0,1,.15-12.92c.57-4.27,1.42-8.49,1.91-12.75,1-8.51.79-17.12.82-25.72s.32-17.28,2.35-25.72a50.59,50.59,0,0,1,4.52-12.18,30.14,30.14,0,0,1,8.2-10.1A21.91,21.91,0,0,1,86.6,31.16a34,34,0,0,1,12.82,1.95,87.32,87.32,0,0,1,11.82,5.23l11.46,5.92,0,.09L111,38.75a88.77,88.77,0,0,0-11.84-5A33.71,33.71,0,0,0,86.66,32,21.09,21.09,0,0,0,75,36.25,29.75,29.75,0,0,0,67.07,46,51,51,0,0,0,62.6,58c-2.05,8.3-2.44,16.93-2.51,25.5s.1,17.22-1,25.79c-.52,4.29-1.4,8.5-2,12.75a44.45,44.45,0,0,0-.25,12.77,59.92,59.92,0,0,0,3.46,12.34c1.52,4,3.14,8,4.55,12.07a87.38,87.38,0,0,1,3.67,12.37,32.19,32.19,0,0,1,.69,6.42,16.08,16.08,0,0,1-1.17,6.32Z"/><path class="cls-8" d="M69.75,187.09a8.7,8.7,0,0,0,1.63-3.67,28.69,28.69,0,0,0,.61-4,69.25,69.25,0,0,0,.17-8.15c-.1-2.72-.35-5.43-.53-8.14s-.39-5.43-.64-8.15l.09,0A46.27,46.27,0,0,1,72.62,163a70.53,70.53,0,0,1,.34,8.22,66.26,66.26,0,0,1-.48,8.21,26.89,26.89,0,0,1-.81,4.05,8.65,8.65,0,0,1-1.85,3.66Z"/><path class="cls-8" d="M210.94,197.68a5.9,5.9,0,0,1-2.18-2,8.84,8.84,0,0,1-1.06-2.79A30.9,30.9,0,0,1,207,187a45.46,45.46,0,0,1,.21-6,27.9,27.9,0,0,1,1.14-5.85c2.43-7.59,6.33-14.54,9.27-21.85.74-1.82,1.41-3.67,2-5.55a38.93,38.93,0,0,0,1.33-5.7,47.14,47.14,0,0,0,0-11.69c-.86-7.8-2.89-15.56-3-23.51h.1c.64,7.89,2.87,15.5,3.88,23.4a43.16,43.16,0,0,1,0,12,39.61,39.61,0,0,1-1.45,5.82c-.61,1.9-1.32,3.76-2.09,5.59-3.05,7.33-7,14.21-9.54,21.69a27.1,27.1,0,0,0-1.21,5.75,44.52,44.52,0,0,0-.3,5.89,30.46,30.46,0,0,0,.61,5.87,8.73,8.73,0,0,0,1,2.74,5.78,5.78,0,0,0,2.1,2Z"/><path class="cls-8" d="M209.67,198.16a10.23,10.23,0,0,1-3.75-2.94,15.08,15.08,0,0,1-2.31-4.22,31.27,31.27,0,0,1-1.7-9.44,52,52,0,0,1,.36-9.58,53,53,0,0,1,2.08-9.34l.09,0c-.46,3.15-.88,6.29-1.18,9.43a87.91,87.91,0,0,0-.55,9.45,31.77,31.77,0,0,0,1.36,9.3,14.82,14.82,0,0,0,2.09,4.19,10.06,10.06,0,0,0,3.56,3Z"/><path class="cls-8" d="M81.07,212.74a14.17,14.17,0,0,0,3.08-5.88,16.52,16.52,0,0,0,.39-6.6,110.88,110.88,0,0,0-2.61-13.18,27.39,27.39,0,0,0-2.35-6.18c-1.08-1.94-2.32-3.81-3.47-5.74a52.85,52.85,0,0,1-3.2-6,11.38,11.38,0,0,1-1.12-6.65h.1a12.13,12.13,0,0,0,1.66,6.34c1,2,2.2,3.87,3.41,5.76s2.43,3.78,3.49,5.8a28.59,28.59,0,0,1,2.26,6.45A107.87,107.87,0,0,1,85,200.2a15.91,15.91,0,0,1-3.89,12.61Z"/><path class="cls-8" d="M95.74,224.78a32.1,32.1,0,0,0,2.93-9.59,25.55,25.55,0,0,0-.42-9.9c-.88-3.22-2-6.42-2.66-9.76a26.09,26.09,0,0,1-.27-10.15h.1a36.81,36.81,0,0,0,1.15,9.93c.76,3.25,1.67,6.48,2.46,9.78a25.8,25.8,0,0,1,.12,10.17,31.52,31.52,0,0,1-3.32,9.55Z"/><path class="cls-8" d="M111.16,225.67a22.73,22.73,0,0,0,1.38-7.94,41.06,41.06,0,0,0-1-8c-.56-2.64-1.29-5.26-1.81-7.94a47.94,47.94,0,0,1-1-8.12h.1c.58,2.67,1.25,5.28,1.89,7.92s1.16,5.31,1.61,8a38.68,38.68,0,0,1,.67,8.18,22.48,22.48,0,0,1-1.77,8Z"/><path class="cls-8" d="M95.49,227.64A21.2,21.2,0,0,0,104.23,211c.06-3.28-.06-6.58.25-9.88a28,28,0,0,1,.81-4.94,7.25,7.25,0,0,1,1-2.33,1.83,1.83,0,0,1,1.13-.72,1.76,1.76,0,0,1,1.23.36l0,.09a1.67,1.67,0,0,0-1.12-.17,1.51,1.51,0,0,0-.82.7,7.55,7.55,0,0,0-.73,2.24,38.71,38.71,0,0,0-.5,4.84L105,211a21.32,21.32,0,0,1-9.48,16.74Z"/><path class="cls-8" d="M81.16,213.26c5.23-1.94,10.42-6.43,9.29-12.56a40.82,40.82,0,0,0,.12-4.27c0-.71-.08-1.4-.1-2.17a16.59,16.59,0,0,1,.17-2.22,22.49,22.49,0,0,1,3.13-8.13l.09.05a33.57,33.57,0,0,0-2.22,8.21c-.08.7-.12,1.4-.13,2.09s0,1.42,0,2.15a39.23,39.23,0,0,1-.32,4.36l-.2,2.14c-.07.72-.05,1.39-.19,2.19a8.4,8.4,0,0,1-2.3,3.79,18.55,18.55,0,0,1-3.41,2.71,14.35,14.35,0,0,1-4,1.76Z"/><path class="cls-8" d="M118.82,204.62a39.3,39.3,0,0,1-1.76,11.17,29.54,29.54,0,0,1-1.92,5.36,20.53,20.53,0,0,1-1.46,2.47,6.48,6.48,0,0,1-2.1,2l-.06-.08a15.72,15.72,0,0,0,2.72-4.78c.71-1.71,1.45-3.42,2.06-5.18a43.55,43.55,0,0,0,2.42-10.93Z"/><path class="cls-8" d="M195.25,217a25.57,25.57,0,0,1-2.46-6.26,34.93,34.93,0,0,1-1.09-6.66,62.6,62.6,0,0,1,.84-13.46,26.12,26.12,0,0,1,1.9-6.55c1-2.06,2.08-4,3.18-6a63.94,63.94,0,0,0,3.09-5.91,12.17,12.17,0,0,0,1.35-6.39l.09,0a11.34,11.34,0,0,1-.78,6.67,51.12,51.12,0,0,1-2.87,6.13c-1.05,2-2.19,3.91-3.17,5.89a25.43,25.43,0,0,0-2,6.28,64.28,64.28,0,0,0-1.14,13.29,36.1,36.1,0,0,0,.89,6.61,26.45,26.45,0,0,0,2.25,6.28Z"/><path class="cls-8" d="M182.52,230.86a37.88,37.88,0,0,1-4-9.73,34.26,34.26,0,0,1-1.17-10.53,80.4,80.4,0,0,1,1.6-10.44,37.64,37.64,0,0,0,.91-10.37h.1a27,27,0,0,1,0,10.55c-.54,3.49-1.46,6.88-1.78,10.33A34.73,34.73,0,0,0,179,221a38.35,38.35,0,0,0,3.65,9.8Z"/><path class="cls-8" d="M164.76,225.24a14.67,14.67,0,0,1-1.14-3.2,13.91,13.91,0,0,1-.27-3.41c.1-2.29.47-4.49.65-6.75a38,38,0,0,1,1.32-6.67,66.24,66.24,0,0,0,1.58-6.54h.1a24.53,24.53,0,0,1-.71,6.77c-.49,2.21-1.17,4.33-1.5,6.54s-.74,4.46-.95,6.67a13.76,13.76,0,0,0,.09,3.33,14.52,14.52,0,0,0,.92,3.21Z"/><path class="cls-8" d="M181.73,232.08a23.57,23.57,0,0,1-7.41-6.58,17.91,17.91,0,0,1-3.35-9.37c-.28-3.3-.47-6.6-.71-9.87a43.7,43.7,0,0,0-.55-4.87,8.58,8.58,0,0,0-.71-2.27,1.58,1.58,0,0,0-.78-.75,1.47,1.47,0,0,0-1.1.18l-.06-.08a1.58,1.58,0,0,1,1.23-.38,1.87,1.87,0,0,1,1.09.79,7.85,7.85,0,0,1,1,2.35,32.15,32.15,0,0,1,.87,4.94c.37,3.3.34,6.62.51,9.91a17.56,17.56,0,0,0,3,9.15,23.84,23.84,0,0,0,7.05,6.77Z"/><path class="cls-8" d="M195.28,217a14.18,14.18,0,0,1-4.06-1.54,18,18,0,0,1-3.56-2.52,9.73,9.73,0,0,1-2.6-3.58,23.31,23.31,0,0,1-1-4.27,40.09,40.09,0,0,1-.38-4.36c0-1.47,0-2.86-.16-4.27a28.27,28.27,0,0,0-2.18-8.22l.08-.05a19.6,19.6,0,0,1,3.09,8.15,25.86,25.86,0,0,1,.16,4.38,38,38,0,0,0,.19,4.27,21.8,21.8,0,0,0,.86,4.16,9,9,0,0,0,2.31,3.43,17.57,17.57,0,0,0,3.38,2.62A14.41,14.41,0,0,0,195.3,217Z"/><path class="cls-8" d="M156.78,201.48c-.05,1.1-.14,2.19-.17,3.29s-.06,2.2,0,3.29a26.68,26.68,0,0,0,1.06,6.42,19.79,19.79,0,0,0,2.9,5.7c1.21,1.76,2.89,3.21,4.23,5l-.08.07a30.23,30.23,0,0,1-4.94-4.48A15.51,15.51,0,0,1,157,214.7a25.69,25.69,0,0,1-.78-6.63c0-1.11.09-2.21.13-3.32s.26-2.19.39-3.28Z"/><path class="cls-8" d="M66.89,109.89a140.15,140.15,0,0,0,5.43,14.44A31.07,31.07,0,0,0,74,127.76a8.89,8.89,0,0,0,2.43,2.79,3.66,3.66,0,0,0,3.37.47,7.49,7.49,0,0,0,2.89-2.2,17.69,17.69,0,0,0,3.51-6.6,27.64,27.64,0,0,0,1.08-7.47c.09-5.08-1-10.14-1.93-15.2l.1,0c1.46,4.93,2.78,10,2.83,15.24a24.59,24.59,0,0,1-1.14,7.75,18.29,18.29,0,0,1-3.86,6.84A8,8,0,0,1,80,131.71a4.35,4.35,0,0,1-4-.62c-2.21-1.67-3.2-4.23-4.19-6.57a135.51,135.51,0,0,1-5.07-14.6Z"/><path class="cls-8" d="M127.94,71.23a8.39,8.39,0,0,0-1.64-3.57,8.76,8.76,0,0,0-1.42-1.37,7.78,7.78,0,0,0-.8-.58l-.42-.26-.33-.19-.3-.16v.35l0,.88,0,2,.08,4a4,4,0,0,1-.46,2,7.46,7.46,0,0,1-1.3,1.62c-1,.95-2,1.86-3,2.73-2,1.75-4.17,3.38-6.28,5C108,87,103.77,90.33,99.47,93.51s-8.62,6.31-13,9.32l-.06-.08c4.09-3.44,8.28-6.76,12.5-10s8.54-6.41,12.83-9.6c2.14-1.59,4.28-3.18,6.33-4.87,1-.85,2-1.72,3-2.64a6.59,6.59,0,0,0,1.24-1.47,3.51,3.51,0,0,0,.44-1.8V64.56l.57.32.53.32.43.28c.27.19.55.39.81.61a8.8,8.8,0,0,1,1.41,1.45A8.46,8.46,0,0,1,128,71.22Z"/><path class="cls-8" d="M186.73,71.52a6,6,0,0,0-1.27-3.64,8.16,8.16,0,0,0-3.05-2.41,9.27,9.27,0,0,0-3.76-.93,13.77,13.77,0,0,0-3.87.51,58.84,58.84,0,0,0-7.37,2.88,52.11,52.11,0,0,1-7.62,2.47,70.35,70.35,0,0,1-15.89,1.81A138.66,138.66,0,0,1,128,71.27v-.1c5.31,0,10.61.21,15.9,0a86.22,86.22,0,0,0,15.72-1.59,53.83,53.83,0,0,0,7.55-2.29,56.38,56.38,0,0,1,7.5-2.75,13.87,13.87,0,0,1,4-.44,9.51,9.51,0,0,1,3.88,1,8.4,8.4,0,0,1,3.07,2.57,6.16,6.16,0,0,1,1.21,3.76Z"/><path class="cls-8" d="M206.75,113a7.09,7.09,0,0,1-4.41,6.71,5.93,5.93,0,0,1-4.23.23,8.33,8.33,0,0,1-3.49-2.47,17,17,0,0,1-2.35-3.56,34.33,34.33,0,0,1-1.73-3.87,50.41,50.41,0,0,1-2.24-8.17c-.54-2.77-.94-5.56-1.27-8.36s-.63-5.58-.8-8.39a54.91,54.91,0,0,1,1.14-16.82l.1,0A70.33,70.33,0,0,0,187.23,85c.23,2.79.52,5.58.79,8.37s.59,5.56,1.06,8.31a50.81,50.81,0,0,0,2.08,8.09,33.19,33.19,0,0,0,1.62,3.84,17,17,0,0,0,2.21,3.5,8,8,0,0,0,3.25,2.41,5.56,5.56,0,0,0,4-.14,6.89,6.89,0,0,0,4.42-6.42Z"/><path class="cls-8" d="M218.51,125.19A132,132,0,0,0,214.72,81a119.7,119.7,0,0,0-7.81-20.82,111.86,111.86,0,0,0-11.76-18.84,87.55,87.55,0,0,0-15.6-15.71,25.31,25.31,0,0,0-4.61-2.89,29.55,29.55,0,0,0-5.26-1.49,31.51,31.51,0,0,0-21.26,3.49,65.71,65.71,0,0,0-9.19,6.19c-5.83,4.56-11.39,9.66-17.93,13.28l0-.09c6.39-3.84,11.76-9,17.54-13.74A64.73,64.73,0,0,1,148,23.94a32.82,32.82,0,0,1,10.59-3.83,31.9,31.9,0,0,1,11.28.09,30,30,0,0,1,5.46,1.56,25.67,25.67,0,0,1,4.81,3,87.79,87.79,0,0,1,15.64,16,111.53,111.53,0,0,1,11.72,19,117.69,117.69,0,0,1,7.69,21,130.92,130.92,0,0,1,3.41,44.35Z"/><path class="cls-8" d="M145.69,159.69a10.4,10.4,0,0,0-4.49.79,12.33,12.33,0,0,1-4.58,1.05A16.42,16.42,0,0,1,132,161a4.7,4.7,0,0,1-.57-.25,4.16,4.16,0,0,1-.49-.36,4.11,4.11,0,0,0-1-.6,7.28,7.28,0,0,0-2.23-.48h0a9.54,9.54,0,0,1,2.31.28,4.88,4.88,0,0,1,1.08.52,2.54,2.54,0,0,0,1,.42,33.6,33.6,0,0,0,4.52.39,19.19,19.19,0,0,0,4.44-.88,12.28,12.28,0,0,1,4.63-.33Z"/><path class="cls-8" d="M142.19,159.78a1.65,1.65,0,0,0,1.06,1.17,3.47,3.47,0,0,0,1.6.15,9.2,9.2,0,0,0,1.58-.31c.13,0,.26-.07.39-.12a.5.5,0,0,0,.19-.08c.05,0,.16-.07.1-.1h0a.45.45,0,0,0-.18,0,2.51,2.51,0,0,1-.28-.08l-.39-.1c-.52-.13-1.05-.23-1.59-.31a12.12,12.12,0,0,0-3.35-.05h0a18.83,18.83,0,0,1,3.38-.44,8.1,8.1,0,0,1,1.7.17l.42.1.52.16c.49.17.93.36,1.45.55l-.05,0a9.32,9.32,0,0,1-2.12.95,5.67,5.67,0,0,1-1.74.18,3.85,3.85,0,0,1-1.7-.46,1.94,1.94,0,0,1-1-1.36Z"/><path class="cls-8" d="M130.16,159.82a4.93,4.93,0,0,1-2.16,1.51,4.13,4.13,0,0,1-1.35.2c-.23,0-.46,0-.69-.08s-.69-.15-1-.25l-.28-.09.8-.82c.17-.14.22-.2.31-.26l.25-.2a3.78,3.78,0,0,1,1.15-.54,5.11,5.11,0,0,1,2.64.12h0a4,4,0,0,0-2.47.34,5.09,5.09,0,0,0-.93.6l-.22.17-.15.13a.27.27,0,0,0-.1.06s0,0,0,0l.14.06c.2,0,.4.05.6.07a7.11,7.11,0,0,0,1.22,0,3.84,3.84,0,0,0,2.26-1Z"/><path class="cls-8" d="M148.43,154.85a7.62,7.62,0,0,1,2.6,1.55,3.33,3.33,0,0,1,1.05,2.95,3.19,3.19,0,0,1-2,2.38,3.9,3.9,0,0,1-3,0h0a3.31,3.31,0,0,0,2.78-.44,3.4,3.4,0,0,0,1.62-2,3.51,3.51,0,0,0-.8-2.52,5.85,5.85,0,0,0-2.22-1.86Z"/><path class="cls-8" d="M79.34,59.36c.33,2.46.81,4.91,1.31,7.34s1,4.86,1.53,7.29L84,81.22c.59,2.41,1.23,4.82,2,7.18h0c-.85-2.34-1.7-4.68-2.47-7.06s-1.38-4.79-1.91-7.22-1.07-4.87-1.39-7.35-.58-5-.84-7.42Z"/><path class="cls-8" d="M85.59,50.94c.3,2.43.74,4.83,1.22,7.22s.93,4.78,1.45,7.15S89.42,70,90,72.41s1.2,4.73,2,7h0c-.84-2.29-1.68-4.59-2.43-6.91a72.69,72.69,0,0,1-1.87-7.1,70.3,70.3,0,0,1-1.32-7.21c-.31-2.43-.52-4.86-.74-7.29Z"/><path class="cls-8" d="M97.68,71.51c-.31-1.57-.7-3.13-1.09-4.69s-.68-3.13-1-4.69-.76-3.1-1.09-4.67a41.77,41.77,0,0,0-1.24-4.64h0c.6,1.48,1.19,3,1.71,4.51A37.6,37.6,0,0,1,96.19,62c.35,1.57.69,3.14.89,4.74s.37,3.19.61,4.78Z"/><path class="cls-8" d="M102.81,49.51c.38,1.59.83,3.17,1.26,4.74s.76,3.18,1.1,4.78.71,3.19,1,4.81.49,3.23.79,4.84h0c-.39-1.59-.84-3.16-1.27-4.74s-.77-3.18-1.09-4.78-.72-3.18-1-4.8-.49-3.24-.79-4.84Z"/><path class="cls-8" d="M130.56,45.35c.58,1.34,1.21,2.67,1.77,4a35.87,35.87,0,0,1,1.41,4.17,35.19,35.19,0,0,1,1.06,4.28c.25,1.45.44,2.91.66,4.35h0c-.3-1.43-.72-2.84-1.14-4.24s-.79-2.8-1.19-4.21-.87-2.78-1.25-4.19-.81-2.82-1.32-4.19Z"/><path class="cls-8" d="M138.46,40.54c.81,1.66,1.62,3.32,2.35,5a43.81,43.81,0,0,1,1.81,5.24,40,40,0,0,1,1.27,5.4c.3,1.82.5,3.66.71,5.49h0a55.11,55.11,0,0,0-1.19-5.39c-.47-1.77-.9-3.55-1.4-5.32s-1.11-3.49-1.66-5.25a51,51,0,0,0-1.89-5.18Z"/><path class="cls-8" d="M148.67,33.6c.9,2,1.82,3.94,2.65,5.95a59.71,59.71,0,0,1,2.13,6.16A56.66,56.66,0,0,1,155.07,52c.42,2.13.74,4.28,1.07,6.42h0c-.41-2.12-1-4.22-1.54-6.31l-1.75-6.24c-.63-2.07-1.34-4.11-2-6.17s-1.37-4.12-2.2-6.12Z"/><path class="cls-8" d="M162.63,30.32c.78,2.07,1.56,4.13,2.24,6.24A58.62,58.62,0,0,1,166.55,43a57.84,57.84,0,0,1,1.12,6.53c.24,2.2.39,4.4.54,6.6h0c-.23-2.19-.61-4.36-1-6.52s-.81-4.32-1.26-6.48-1-4.27-1.52-6.41-1.08-4.27-1.78-6.36Z"/><path class="cls-8" d="M125.11,161a1.92,1.92,0,0,1-2.14.36,2.48,2.48,0,0,1-1.43-1.84,3.38,3.38,0,0,1,.23-2.33,4.77,4.77,0,0,1,1.47-1.68l.08.05c-.16.75-.44,1.39-.63,2a4.84,4.84,0,0,0-.36,1.82,1.93,1.93,0,0,0,.86,1.53,1.7,1.7,0,0,0,1.85,0Z"/><path class="cls-8" d="M70.52,107.58a30.5,30.5,0,0,0,2.63,8.31c.66,1.27,1.23,2.71,2.28,3.5a3.07,3.07,0,0,0,3.67-.4,7.45,7.45,0,0,0,2-3.61,43.37,43.37,0,0,0,1-4.23,31.76,31.76,0,0,0,.45-8.71h0a36.4,36.4,0,0,1,0,8.79,27.93,27.93,0,0,1-.88,4.33,7.73,7.73,0,0,1-2.23,3.92,4.42,4.42,0,0,1-2.13,1,3.13,3.13,0,0,1-2.33-.53,5,5,0,0,1-1.43-1.81c-.34-.67-.64-1.34-.92-2a35.05,35.05,0,0,1-2.19-8.51Z"/><path class="cls-8" d="M77,96.94c.42,1.62.91,3.22,1.18,4.89a11.34,11.34,0,0,1-.23,5.08,6.5,6.5,0,0,1-.45,1.25,1.75,1.75,0,0,1-.51.59,1.09,1.09,0,0,1-.86.14,3.07,3.07,0,0,1-1.16-.78,5.72,5.72,0,0,1-.83-1A7.21,7.21,0,0,1,73,102.24h0a6.45,6.45,0,0,0,1.53,4.56,7.49,7.49,0,0,0,.84.85,3,3,0,0,0,.9.59c.25.07.46-.09.64-.41a6.45,6.45,0,0,0,.41-1.1,15.13,15.13,0,0,0,.36-4.85A31.93,31.93,0,0,0,77,97Z"/><path class="cls-8" d="M203.37,109.64a9.8,9.8,0,0,1-1.19,2.86,3.33,3.33,0,0,1-2.67,1.53,4.64,4.64,0,0,1-3-1,6.63,6.63,0,0,1-1.9-2.52,39.61,39.61,0,0,1-1.77-5.94c-.49-2-.92-4-1.31-6a97,97,0,0,1-1.66-12.24,84.83,84.83,0,0,1,.1-12.35h.1c.19,4.11.41,8.2.8,12.27s.78,8.14,1.45,12.18c.34,2,.72,4,1.16,6a39.24,39.24,0,0,0,1.58,5.89,6.26,6.26,0,0,0,1.7,2.41,4.3,4.3,0,0,0,2.71,1,3.06,3.06,0,0,0,2.51-1.34,9.39,9.39,0,0,0,1.25-2.77Z"/><path class="cls-8" d="M201.67,105.43a2.58,2.58,0,0,1-1.42,1.77,1.15,1.15,0,0,1-1.18-.22,2.12,2.12,0,0,1-.48-1.1c-.34-1.48-.67-3-1-4.46q-.92-4.47-1.6-9c-.47-3-.92-6-1.12-9.06a77.41,77.41,0,0,1-.15-9.14h.1c.4,3,.7,6,1,9.06s.56,6,.92,9,.8,6,1.3,9c.24,1.5.51,3,.79,4.49a1.84,1.84,0,0,0,.36,1,.94.94,0,0,0,.95.2c.71-.18,1.09-.94,1.38-1.61Z"/></g></g></g><rect id="face_clip-2" data-name="face_clip" class="cls-1" x="1" y="1" width="280" height="280" rx="140"/></svg>