<svg id="artwork" xmlns="http://www.w3.org/2000/svg" viewBox="0 0 291 673"><defs><style>.cls-1{fill:#d9cec5;}.cls-2{fill:#647d55;}.cls-3,.cls-4{fill:#2d2d2d;}.cls-4{fill-rule:evenodd;}.cls-5{fill:none;stroke:#2d2d2d;stroke-miterlimit:10;}.cls-6{fill:#f2eae4;}.cls-7{fill:#36302c;}</style></defs><g id="eyes_right2"><g id="white"><path class="cls-1" d="M142.49,122.35c-5.39,1-7.27,1.36-11,3.24-13,6.62,5.63,13.89,13.48,14.11a17.72,17.72,0,0,0,12.66-5.95c2.38-3,3.91-11.74-.2-11.9C153.53,121.71,149.13,121.19,142.49,122.35Z"/><path class="cls-1" d="M190.12,122.56c-5.28,2.12-11.94,6.23-9.73,10.7,4,8.2,13.46,10.34,21.14,8,5.23-1.58,9.21-6.1,8.12-10.48a10.78,10.78,0,0,0-3.38-5,16.23,16.23,0,0,0-4.92-3.16,15.81,15.81,0,0,0-10.19-.42C190.81,122.31,190.46,122.43,190.12,122.56Z"/></g><g id="iris"><path class="cls-2" d="M156.81,134.42c2.83-2.17,4-10.21,2.92-13-3-.22-7.62,0-10.64.07-2.29,2.07-.8,7.14.19,8.93C150.81,133.22,156.33,134.64,156.81,134.42Z"/><path class="cls-2" d="M211.05,129.18c-.47-2.28-3.43-6.22-5.78-6.3-4-.13-5.4,5.9-5.73,8.24-.37,2.52,2,5.9,6.69,6.18,2.1.13,3.45-2.93,4.05-4.19A15.47,15.47,0,0,0,211.05,129.18Z"/></g><g id="iris_outline"><path class="cls-3" d="M153,133.14c1.11-1.83,2.38-3.57,3.66-5.28l.13-.18s.13-.16.05-.08v0a.11.11,0,0,1,.05,0s0,.12-.05.17a43.75,43.75,0,0,1-3.83,5.43Z"/><path class="cls-3" d="M149.15,122.06a21.79,21.79,0,0,1,6.36,1.67c-2.12-.51-4.28-1.21-6.36-1.67Z"/><path class="cls-3" d="M149.63,130.3a52.91,52.91,0,0,1,5.89-3.55,51.13,51.13,0,0,1-5.89,3.55Z"/><path class="cls-3" d="M147.92,124.82a39.66,39.66,0,0,0,3.94.68c1.33.17,2.64.67,3.93.84a40.85,40.85,0,0,1-5.93-1l-1-.2c-.3-.06-.77-.06-1-.29Z"/><path class="cls-3" d="M156.81,134.4c-6.06.72-11.79-6.63-8.21-12.06l.09,0c-1.31,6.09,1.88,11.45,8.12,12Z"/><path class="cls-3" d="M207.52,137.12c-3.91,1.11-7.76-.62-8.29-4.91-.61-3.56,1.1-8,4.79-9.1l0,.09c-2.91,1.93-4.19,5.56-4,8.91a5.24,5.24,0,0,0,4.84,5,11.15,11.15,0,0,0,2.64-.1l0,.09Z"/><path class="cls-3" d="M202.48,136.41l1.83-1.42a9,9,0,0,1,.93-.69,6.41,6.41,0,0,1,1-.52l0,0h0a6.47,6.47,0,0,1-.86.8,10.75,10.75,0,0,1-1,.63l-2,1.2h0Z"/><path class="cls-3" d="M208.87,129.64c-1.49.46-3,1-4.42,1.49-.73.27-1.45.57-2.18.82s-1.48.49-2.24.68h0s0,0,0,0a18.62,18.62,0,0,1,2.12-1c.72-.3,1.47-.52,2.21-.75,1.5-.46,3-.87,4.51-1.25,0,0,0,0,0,0S208.88,129.64,208.87,129.64Z"/><path class="cls-3" d="M200,129.5l2.8-.31c.47-.05.93-.12,1.4-.13a11.37,11.37,0,0,1,1.42.08v0a8.49,8.49,0,0,1-1.39.26c-.47.05-.94,0-1.41.05l-2.82,0h0A0,0,0,0,1,200,129.5Z"/><path class="cls-3" d="M200.2,125.8l2.5.16a10.36,10.36,0,0,1,1.24.1,7.53,7.53,0,0,1,1.22.31,0,0,0,0,1,0,0v0a6.66,6.66,0,0,1-1.26,0,10.29,10.29,0,0,1-1.24-.18l-2.46-.41a0,0,0,0,1,0,0Z"/></g><g id="pupil"><path class="cls-4" d="M159,129.78a21.56,21.56,0,0,0,1.05-8.67c-.57-.19-2.57.5-3.16.57-2.18.24-1.9,1.3-1.19,2.2a2,2,0,0,1-.17,2.53,1.81,1.81,0,0,0-.16,2.44C157.34,131.77,158.79,130.28,159,129.78Z"/><path class="cls-4" d="M209.15,134.06c.82-.5,1.34-1.2,1.54-3.27.34-3.34-4.26-8.37-6-4.61-.78,1.7,3.14,3.71,3.14,3.71a6.92,6.92,0,0,1-2.19,3.57C204.65,134.42,207.4,135.12,209.15,134.06Z"/><path class="cls-4" d="M159,129.78a21.56,21.56,0,0,0,1.05-8.67c-.57-.19-2.57.5-3.16.57-2.18.24-1.9,1.3-1.19,2.2a2,2,0,0,1-.17,2.53,1.81,1.81,0,0,0-.16,2.44C157.34,131.77,158.79,130.28,159,129.78Z"/><path class="cls-4" d="M209.15,134.06c.82-.5,1.34-1.2,1.54-3.27.34-3.34-4.26-8.37-6-4.61-.78,1.7,3.14,3.71,3.14,3.71a6.92,6.92,0,0,1-2.19,3.57C204.65,134.42,207.4,135.12,209.15,134.06Z"/><path class="cls-5" d="M159,129.78a21.56,21.56,0,0,0,1.05-8.67c-.57-.19-2.57.5-3.16.57-2.18.24-1.9,1.3-1.19,2.2a2,2,0,0,1-.17,2.53,1.81,1.81,0,0,0-.16,2.44C157.34,131.77,158.79,130.28,159,129.78Z"/><path class="cls-5" d="M209.15,134.06c.82-.5,1.34-1.2,1.54-3.27.34-3.34-4.26-8.37-6-4.61-.78,1.7,3.14,3.71,3.14,3.71a6.92,6.92,0,0,1-2.19,3.57C204.65,134.42,207.4,135.12,209.15,134.06Z"/></g><g id="spec"><path class="cls-6" d="M146.84,123.73a2.21,2.21,0,0,0-.44.64,2.53,2.53,0,0,0,1.4,3.22,2.39,2.39,0,0,0,3.26-1.06,2.45,2.45,0,0,0-.71-2.76C149.18,123.74,148,123.72,146.84,123.73Z"/><path class="cls-6" d="M199.27,127.19a1.28,1.28,0,0,0,.23,1.8,4.39,4.39,0,0,0,2.41,1,2.66,2.66,0,0,0,1.37,0,1.65,1.65,0,0,0,.95-1.81C203.8,125.41,200.29,125.84,199.27,127.19Z"/></g><g id="outline"><path class="cls-3" d="M162.12,120.66c-.81.12-1.6.3-2.4.44l-2.38.34c-1.59.22-3.18.43-4.77.57-3.19.32-6.43.24-9.52.71a45.27,45.27,0,0,0-9,2.65,33.41,33.41,0,0,0-4.19,1.91c-1.37.74-2.79,1.56-4.27,2.27l-.09-.12A34.41,34.41,0,0,1,129,125.9a17.54,17.54,0,0,1,4.25-2.68,35.38,35.38,0,0,1,9.57-2.4c1.62-.23,3.26-.41,4.85-.56s3.21-.29,4.82-.35,3.22,0,4.84.08c.81.05,1.62.1,2.42.2s1.62.28,2.42.44Z"/><path class="cls-3" d="M127.12,131.47a22.2,22.2,0,0,0,8.32,6.11,23.42,23.42,0,0,0,10.07,1.86,17.58,17.58,0,0,0,9.58-3.28,11.61,11.61,0,0,0,3.28-3.92,11.2,11.2,0,0,0,1.18-5h0a11.67,11.67,0,0,1-4.16,9.34,16.35,16.35,0,0,1-9.86,3.53,21.27,21.27,0,0,1-10.3-2.05,23.88,23.88,0,0,1-8.13-6.55Z"/><path class="cls-3" d="M149.37,113.65a15.57,15.57,0,0,1,.36,2.74,5.88,5.88,0,0,1,0,1.39,4.66,4.66,0,0,1-.43,1.34h0a10.63,10.63,0,0,1,0-1.38c0-.45.1-.9.13-1.35a14.54,14.54,0,0,0,0-2.72l0,0Z"/><path class="cls-3" d="M145,114.86l.35,1.74a4.27,4.27,0,0,1,.14.87,2.86,2.86,0,0,1-.14.9h0a3.18,3.18,0,0,1-.31-.86,5.19,5.19,0,0,1,0-.88v-1.77h0Z"/><path class="cls-3" d="M139.05,115.74a12.56,12.56,0,0,1,.8,2,4.18,4.18,0,0,1,.23,1.06,3.39,3.39,0,0,1-.13,1.09h0a6.18,6.18,0,0,1-.32-1c-.07-.34-.08-.69-.12-1a13.44,13.44,0,0,0-.46-2.07l0,0Z"/><path class="cls-3" d="M132.91,117.53l.92,2.22a8.12,8.12,0,0,1,.42,1.13,4.76,4.76,0,0,1,.17,1.2l0,0h0a5.09,5.09,0,0,1-.59-1.07,7.56,7.56,0,0,1-.33-1.15l-.58-2.33h0Z"/><path class="cls-3" d="M126.63,119.75a17.92,17.92,0,0,0,1.29,2.64c.25.42.54.81.77,1.23s.47.86.66,1.33l0,0h0a5.12,5.12,0,0,1-1-1.09,7.25,7.25,0,0,1-.7-1.32,17.94,17.94,0,0,1-1-2.8l0,0Z"/><path class="cls-3" d="M144.56,146a22.63,22.63,0,0,0,8.15-5.07,25.12,25.12,0,0,0,3.1-3.66,21.84,21.84,0,0,0,2.35-4.2s0,0,0,0,0,0,0,0a14.8,14.8,0,0,1-2,4.47,18.63,18.63,0,0,1-3.25,3.67,22.51,22.51,0,0,1-8.4,4.82s0,0,0,0S144.55,146,144.56,146Z"/><path class="cls-3" d="M134.92,139.56a16.51,16.51,0,0,1-4.49-2.59,10.85,10.85,0,0,1-1.87-1.84,9.13,9.13,0,0,1-1.31-2.26s0,0,0,0h0c.56.67,1.08,1.35,1.65,2s1.12,1.28,1.75,1.86a16.57,16.57,0,0,0,4.25,2.85s0,0,0,0S134.93,139.57,134.92,139.56Z"/><path class="cls-3" d="M180.27,132.58a13.85,13.85,0,0,0,1.58,4.32,21.45,21.45,0,0,0,2.64,3.77,22,22,0,0,0,3.38,3.09,13.37,13.37,0,0,0,4,2.13,0,0,0,0,1,0,0,0,0,0,0,1,0,0,10.14,10.14,0,0,1-4.32-1.78,16,16,0,0,1-3.39-3.23,21.72,21.72,0,0,1-2.54-3.92,14.22,14.22,0,0,1-1.43-4.42s0,0,0,0S180.27,132.57,180.27,132.58Z"/><path class="cls-3" d="M206.22,117.56a16.53,16.53,0,0,1,6.63,6.63,11.86,11.86,0,0,1,1.33,4.58,12.74,12.74,0,0,1-.57,4.72l0,0s0,0,0,0a18.23,18.23,0,0,0,.12-4.66,13.79,13.79,0,0,0-1.19-4.45,16.34,16.34,0,0,0-6.29-6.77s0,0,0,0S206.21,117.55,206.22,117.56Z"/><path class="cls-3" d="M178.05,130.43a52.81,52.81,0,0,1,7.84-6.39,36,36,0,0,1,4.51-2.5c.4-.19.78-.36,1.21-.53s.9-.31,1.34-.44a19.65,19.65,0,0,1,2.68-.49,27.42,27.42,0,0,1,5.36-.17,15.7,15.7,0,0,1,2.73.45,9.8,9.8,0,0,1,1.41.48,11.24,11.24,0,0,1,3.61,2.51,9.23,9.23,0,0,1,1.59,2.46,12.28,12.28,0,0,1,1,5.28l-.39.11a34.34,34.34,0,0,0-3-3.87,8.29,8.29,0,0,0-3.37-2.27l-1-.39-1-.31c-.68-.2-1.42-.36-2.16-.52a23.83,23.83,0,0,0-4.62-.57,18.8,18.8,0,0,0-2.27.16c-.36.06-.72.12-1.06.21s-.76.22-1.14.34a38.38,38.38,0,0,0-4.51,1.78,63,63,0,0,0-8.55,5Z"/><path class="cls-3" d="M179.8,129.89a11.64,11.64,0,0,0,1.5,5,12.1,12.1,0,0,0,3.53,3.8,17.63,17.63,0,0,0,9.83,3,19.41,19.41,0,0,0,9.9-2.57,14.72,14.72,0,0,0,3.93-3.28,15.36,15.36,0,0,0,2.6-4.52l.09,0a12.92,12.92,0,0,1-2.13,4.92,14.09,14.09,0,0,1-4,3.71,19.34,19.34,0,0,1-20.53-.88A12.5,12.5,0,0,1,181,135a11.76,11.76,0,0,1-1.34-5.14Z"/><path class="cls-3" d="M181.13,120.17l.5,2a7.26,7.26,0,0,1,.22,1,3.9,3.9,0,0,1-.06,1.07h0a3.84,3.84,0,0,1-.39-1,7.19,7.19,0,0,1-.11-1l-.16-2.1h0Z"/><path class="cls-3" d="M184.49,118.29l.41,1.85a4.76,4.76,0,0,1,.16.93,3.21,3.21,0,0,1-.1,1h-.05a3.2,3.2,0,0,1-.34-.9,5,5,0,0,1-.07-.94l-.06-1.9h0S184.49,118.29,184.49,118.29Z"/><path class="cls-3" d="M187.57,115.66a11.92,11.92,0,0,0,.09,2.07c0,.34.13.68.14,1a6.34,6.34,0,0,1,0,1.06h0a3,3,0,0,1-.4-1,4.27,4.27,0,0,1-.05-1.07,12.3,12.3,0,0,1,.26-2.1h0Z"/><path class="cls-3" d="M191.66,114.9l.17,2.06a5.12,5.12,0,0,1,0,1,3.87,3.87,0,0,1-.22,1h0a3.89,3.89,0,0,1-.23-1,7.18,7.18,0,0,1,.05-1l.18-2.06h0Z"/><path class="cls-3" d="M195.06,113a7.36,7.36,0,0,1,.81,2.92,5.68,5.68,0,0,1,0,1.54,3.92,3.92,0,0,1-.56,1.43,0,0,0,0,1,0,0h0l.1-1.49c0-.48.11-1,.13-1.46A7.26,7.26,0,0,0,195,113h.05Z"/></g><g id="eyebrows"><path class="cls-7" d="M160.39,101c-1,2-2.68,2.51-4.34,3.53-1.44.69-3.35,1.77-4.81,2.33-3.28,1.35-6.64,2.46-9.86,3.85s-6.22,3.21-9.29,4.9a32.92,32.92,0,0,1-4.78,2.32,26.34,26.34,0,0,1-5.34,1.63,26.18,26.18,0,0,1,7.88-7.67c3.05-2,6.33-3.6,9.55-5.27,4.78-2.58,9.57-5.13,14.8-6.6,1.89-.45,3.47-1.28,5.55-.55l.64,1.53Z"/><path class="cls-7" d="M177.09,117c2.45-10.51,12.68-20.12,24-19.12a11.33,11.33,0,0,1,9.11,6.06,15.19,15.19,0,0,0-9.18-1.74c-9.58,1.53-16.7,8.57-23.94,14.8Z"/></g></g></svg>