<svg id="artwork" xmlns="http://www.w3.org/2000/svg" viewBox="0 0 291 673"><defs><style>.cls-1{fill:#d9cec5;}.cls-2{fill:#647d55;}.cls-3,.cls-4{fill:#2d2d2d;}.cls-4{fill-rule:evenodd;}.cls-5{fill:none;stroke:#2d2d2d;stroke-miterlimit:10;}.cls-6{fill:#f2eae4;}.cls-7{fill:#36302c;}</style></defs><g id="eyes_shocked3"><g id="white"><path class="cls-1" d="M138.22,124.88c-3.46.82-8.09,3.2-10.25,6.32-1.86,2.68.88,6.83,3.72,8.76,3.39,2.29,4.24-1.1,11.25-1,10.49,1.09,12.58,5,14.88-3a7.84,7.84,0,0,0-1.88-8.91c-1.18-1.18-5.63-2.6-7.28-2.81A32.44,32.44,0,0,0,138.22,124.88Z"/><path class="cls-1" d="M197.58,124.19c8.49,2.47,10.16,6.93,11.37,10.11.7,1.82.07,4.82-2.76,6.77-3.79,2.6-7.94-1.22-13.07-.7-9.14,1.79-10.24,3.2-13.45-4.08-1.11-3.41-2.47-6.22.1-8.79,1.18-1.18,4.8-4.08,6.45-4.29A40,40,0,0,1,197.58,124.19Z"/></g><g id="iris"><path class="cls-2" d="M141,137.72a9.5,9.5,0,0,0,2.72.11,8.69,8.69,0,0,0,4.85-1.92c1.79-1.62,1.8-3.28,1.09-5.59a6.13,6.13,0,0,0-2.44-3c-2.27-1.8-5.8-1.4-8.12.08a5.43,5.43,0,0,0-2.43,6.07,4.16,4.16,0,0,0,.91,2.11,4.11,4.11,0,0,0,2.07,1.73C139.81,137.39,140.83,137.66,141,137.72Z"/><path class="cls-2" d="M191.52,139.26a9.51,9.51,0,0,0,2.72.11,8.57,8.57,0,0,0,4.85-1.92c1.8-1.62,1.8-3.28,1.1-5.59a6.25,6.25,0,0,0-2.45-3c-2.26-1.8-5.79-1.4-8.11.08a5.43,5.43,0,0,0-2.44,6.07,4.33,4.33,0,0,0,.91,2.12,4.18,4.18,0,0,0,2.07,1.72C190.33,138.94,191.35,139.21,191.52,139.26Z"/></g><g id="iris_outline"><path class="cls-3" d="M136.77,132.5a53.29,53.29,0,0,1,6.37,1.19s.53.14.32.16v0a65.29,65.29,0,0,1-6.69-1.32Z"/><path class="cls-3" d="M138.39,128.22c1.16.87,2.93,1.88,4,2.86a18.4,18.4,0,0,1-4-2.86Z"/><path class="cls-3" d="M148.28,128.29c-1.15.85-2.65,2.59-4.27,3.57a9.55,9.55,0,0,1,2.12-1.89,14.85,14.85,0,0,1,2.15-1.68Z"/><path class="cls-3" d="M144.78,126.32a23.71,23.71,0,0,1-1.94,4.24,10.42,10.42,0,0,1,.88-2.16s1-2.16,1.06-2.08Z"/><path class="cls-3" d="M150,133.31a29.32,29.32,0,0,1-5-1.22c-.2-.08-.56-.13-.66-.32,1.9.33,3.77,1.16,5.63,1.54Z"/><path class="cls-3" d="M140.77,137.47a19.34,19.34,0,0,0,1.42-3.55,2.6,2.6,0,0,1,.67-1.1h0s0,0,0,0h0v0h0s.06,0,0,0v0a24.78,24.78,0,0,1-2.12,4.62Z"/><path class="cls-3" d="M146.77,137c-1.1-1.66-2.62-3-3.51-4.8a31.08,31.08,0,0,1,3.51,4.8Z"/><path class="cls-3" d="M142.87,137.78c13-.24,5.49-16.19-3.49-9.86-2.27,2-3.2,5.93-.94,8.23a6.69,6.69,0,0,0,4.43,1.63v.1c-8.3,1.15-8.85-9.81-1.72-11.91,4.33-1.42,9.29,2.06,9.2,6.62,0,3.85-4.21,5.46-7.48,5.29v-.1Z"/><path class="cls-3" d="M193.21,139.45c13-.24,5.49-16.18-3.48-9.85-2.28,2-3.21,5.93-.94,8.22a6.64,6.64,0,0,0,4.42,1.63v.1c-8.31,1.16-8.86-9.81-1.73-11.9,4.34-1.42,9.3,2.06,9.2,6.62,0,3.84-4.2,5.45-7.48,5.28v-.1Z"/><path class="cls-3" d="M198.75,132.16a50.86,50.86,0,0,1-5.6,1.11l-.19,0s-.18.05-.1,0v0s0,0-.05,0a1.73,1.73,0,0,1,.32-.11,35.6,35.6,0,0,1,5.62-1.05Z"/><path class="cls-3" d="M198.21,129.32c-1.38,1.25-3.26,3.26-4.86,4.12a22.92,22.92,0,0,1,2.41-2.08s2.45-2.12,2.45-2Z"/><path class="cls-3" d="M188.57,130.21c1.24,1.15,3,1.68,4.09,3l-.14-.07v0h.07a13.12,13.12,0,0,1-2.09-1.37c-.59-.53-1.5-.91-1.93-1.58Z"/><path class="cls-3" d="M191.46,128.32c.91,1.29,1,3,1.9,4.27-1.37-.94-1.11-3-1.9-4.27Z"/><path class="cls-3" d="M186.72,134.67c1.92-.32,3.71-1.21,5.63-1.52-.11.19-.47.25-.67.32a26,26,0,0,1-5,1.2Z"/><path class="cls-3" d="M196.87,139c-.7-1.5-1.05-3.16-1.8-4.63,0,0,0-.06,0,0s0,0,0,0,0,0,0,0h0c1.15,1.22,1.15,3.19,1.77,4.66Z"/><path class="cls-3" d="M190,138.74a26.71,26.71,0,0,1,2.93-4.13,26.33,26.33,0,0,1-2.93,4.13Z"/></g><g id="pupil"><path class="cls-4" d="M141.21,133.46l-1.13-1.11a4,4,0,0,1,3.95-2.51c1.53.24,2.26,1.76,1.62,3.37a4,4,0,0,1-4,2.5,2.23,2.23,0,0,1-1.19-.55Z"/><path class="cls-4" d="M192.63,135.52l.7,1.42A4,4,0,0,0,197,134c.26-1.52-1-2.7-2.68-2.6a4,4,0,0,0-3.63,3,2.19,2.19,0,0,0,.15,1.3Z"/><path class="cls-4" d="M141.21,133.46l-1.13-1.11a4,4,0,0,1,3.95-2.51c1.53.24,2.26,1.76,1.62,3.37a4,4,0,0,1-4,2.5,2.23,2.23,0,0,1-1.19-.55Z"/><path class="cls-4" d="M192.63,135.52l.7,1.42A4,4,0,0,0,197,134c.26-1.52-1-2.7-2.68-2.6a4,4,0,0,0-3.63,3,2.19,2.19,0,0,0,.15,1.3Z"/><path class="cls-5" d="M141.21,133.46l-1.13-1.11a4,4,0,0,1,3.95-2.51c1.53.24,2.26,1.76,1.62,3.37a4,4,0,0,1-4,2.5,2.23,2.23,0,0,1-1.19-.55Z"/><path class="cls-5" d="M192.63,135.52l.7,1.42A4,4,0,0,0,197,134c.26-1.52-1-2.7-2.68-2.6a4,4,0,0,0-3.63,3,2.19,2.19,0,0,0,.15,1.3Z"/></g><g id="spec"><path class="cls-6" d="M147.15,130.64c-1.36,1.43,1.28,3,3,2.68a1.92,1.92,0,0,0,1.68-1.76c-.11-1.78-3.4-2.16-4.6-1Z"/><path class="cls-6" d="M197.35,133.47c-1.13-1.62,1.72-2.8,3.33-2.21a1.9,1.9,0,0,1,1.4,2c-.36,1.75-3.67,1.64-4.69.27Z"/></g><g id="outline"><path class="cls-3" d="M126.56,134.55c-.07-5.63,5.48-9.55,10.27-11.34,5.78-1.87,16.28-.69,20.18,4.4a8.26,8.26,0,0,1,1.6,5h-.25a8.48,8.48,0,0,0-6.1-7.21c-7.75-2.47-17.47-1.41-23.34,4.64a7.7,7.7,0,0,0-2.11,4.46Z"/><path class="cls-3" d="M132.47,141.51c3.31-1.36,6.8-2.58,10.45-2.54a19.81,19.81,0,0,1,5.36.8c1.74.5,3.43,1.11,5.13,1.73a0,0,0,0,1,0,0h0c-1.74-.48-3.45-1.06-5.19-1.51a22.54,22.54,0,0,0-5.29-.84c-3.6-.1-7.11,1.06-10.44,2.37h0Z"/><path class="cls-3" d="M127.58,132.26a3.65,3.65,0,0,0,.21,2.89,12,12,0,0,0,1.52,2.56,12.28,12.28,0,0,0,2.09,2.11,3.67,3.67,0,0,0,2.69,1h0s0,0,0,0a3.44,3.44,0,0,1-2.85-.81,10.38,10.38,0,0,1-2.1-2.19,11.75,11.75,0,0,1-1.46-2.64,3.68,3.68,0,0,1-.13-2.94h0Z"/><path class="cls-3" d="M158.59,132.19a11.62,11.62,0,0,1-.33,3.27,12.63,12.63,0,0,1-1.12,3.1,5.84,5.84,0,0,1-2.2,2.47,3.34,3.34,0,0,1-3.23-.08s0,0,0,0,0,0,0,0a3.45,3.45,0,0,0,3.1-.1,6.22,6.22,0,0,0,2.14-2.35,12.64,12.64,0,0,0,1.19-3,11.39,11.39,0,0,0,.41-3.24v0A0,0,0,0,1,158.59,132.19Z"/><path class="cls-3" d="M159.84,118.55a14.52,14.52,0,0,1-1.09,2.33A7.9,7.9,0,0,1,158,122a6.59,6.59,0,0,1-.91.92,0,0,0,0,1,0,0h0c.24-.36.5-.7.73-1.06s.51-.68.75-1a14.83,14.83,0,0,0,1.24-2.24,0,0,0,0,1,0,0Z"/><path class="cls-3" d="M147.62,114.88l-.38,2.44c-.07.4-.12.81-.22,1.21a9.39,9.39,0,0,1-.34,1.18h0a10.05,10.05,0,0,1,.13-1.23c.06-.41.17-.8.26-1.2l.56-2.4h0Z"/><path class="cls-3" d="M137.66,115.3a16.58,16.58,0,0,1,1.18,2.25,10.09,10.09,0,0,1,.46,1.19,6,6,0,0,1,.23,1.26h0a0,0,0,0,1,0,0l-.44-1.18-.41-1.2a16.32,16.32,0,0,0-1-2.31,0,0,0,0,1,0,0Z"/><path class="cls-3" d="M130.68,119.9l1,2c.16.33.33.66.46,1a7.16,7.16,0,0,1,.34,1h0a10.18,10.18,0,0,1-.54-1c-.16-.33-.28-.68-.42-1l-.79-2h0Z"/><path class="cls-3" d="M124,125.69a17,17,0,0,0,1.43,1.39c.26.21.54.38.8.58a7.68,7.68,0,0,1,.78.63h0a5.92,5.92,0,0,1-.91-.45,4.37,4.37,0,0,1-.79-.63A14.78,14.78,0,0,1,124,125.7h0Z"/><path class="cls-3" d="M128.62,140.66a4.07,4.07,0,0,0,1.12,2.93,3.25,3.25,0,0,0,1.31.83,2.43,2.43,0,0,0,1.55-.06h0s0,0,0,0a2.07,2.07,0,0,1-1.63.28,2.79,2.79,0,0,1-1.39-.94,4.16,4.16,0,0,1-1-3.07,0,0,0,0,1,0,0Z"/><path class="cls-3" d="M157,115a3.28,3.28,0,0,0,1.94-1,4.88,4.88,0,0,0,1.19-1.81,6.67,6.67,0,0,0,.43-2.12,7.64,7.64,0,0,0-.23-2.17s0,0,0,0h0a5.43,5.43,0,0,1,.45,2.19,5.72,5.72,0,0,1-.49,2.19,5.37,5.37,0,0,1-1.3,1.82,3.48,3.48,0,0,1-2,.89,0,0,0,0,1,0,0Z"/><path class="cls-3" d="M209.53,138c-.69-7-7.11-12.78-13.84-13.79a28.77,28.77,0,0,0-10.29.63c-3.34.9-6.41,3.2-6.94,6.84l-.25,0a7.79,7.79,0,0,1,1.94-5.19c2.57-2.89,6.51-4.07,10.22-4.47A17.85,17.85,0,0,1,205.66,128c2.4,2.78,4.24,6.32,4.12,10.06Z"/><path class="cls-3" d="M204.19,142.92c-3.33-1.31-6.83-2.47-10.44-2.37a22.62,22.62,0,0,0-5.29.84c-1.74.45-3.45,1-5.18,1.51h0s0,0,0,0c1.69-.62,3.39-1.23,5.12-1.73a19.87,19.87,0,0,1,5.36-.8c3.65,0,7.14,1.18,10.45,2.55,0,0,0,0,0,0Z"/><path class="cls-3" d="M209.09,135.13a3.51,3.51,0,0,1-.24,2.83,8.12,8.12,0,0,1-1.74,2.34,7.66,7.66,0,0,1-2.43,1.62,3.59,3.59,0,0,1-2.87.08s0,0,0,0h0a3.89,3.89,0,0,0,2.76-.29,9.1,9.1,0,0,0,2.4-1.54,8,8,0,0,0,1.77-2.24,3.41,3.41,0,0,0,.31-2.77s0,0,0,0Z"/><path class="cls-3" d="M178.25,130.54a22.78,22.78,0,0,0,2.11,7.78,8,8,0,0,0,2.51,3.05,4,4,0,0,0,.88.44,7.45,7.45,0,0,0,1,.22l1,0,1-.23h0l-1,.32c-.34,0-.69.07-1,.1a8.73,8.73,0,0,1-1-.19,4.48,4.48,0,0,1-.94-.44,7.52,7.52,0,0,1-2.56-3.17,22.88,22.88,0,0,1-2-7.87s0,0,0,0A0,0,0,0,1,178.25,130.54Z"/><path class="cls-3" d="M177.54,117.23a14.36,14.36,0,0,0,1.24,2.24c.24.36.5.69.75,1s.49.69.73,1v0h0a6.09,6.09,0,0,1-.91-.92,8.45,8.45,0,0,1-.72-1.08,14.62,14.62,0,0,1-1.09-2.34h0S177.54,117.23,177.54,117.23Z"/><path class="cls-3" d="M186.52,115.2l.56,2.4c.09.4.2.8.26,1.2a10.26,10.26,0,0,1,.13,1.23h0c-.14-.39-.24-.79-.34-1.19s-.15-.81-.21-1.21l-.39-2.43h0S186.52,115.2,186.52,115.2Z"/><path class="cls-3" d="M197.36,115.38a11,11,0,0,0-.81,1.82l-.31,1c-.11.31-.21.62-.35.93h0a3.85,3.85,0,0,1,.14-1,5,5,0,0,1,.35-.94,11.16,11.16,0,0,1,1-1.76s0,0,0,0Z"/><path class="cls-3" d="M205.14,119.41l-.8,2c-.14.34-.26.68-.42,1a9.06,9.06,0,0,1-.54,1h0a9.15,9.15,0,0,1,.33-1c.13-.34.31-.66.46-1l1-2h0Z"/><path class="cls-3" d="M212.68,127.08a13.57,13.57,0,0,1-1.31,1.53,4.82,4.82,0,0,1-.8.63,5.5,5.5,0,0,1-.91.45h0a9,9,0,0,1,.78-.63c.27-.2.55-.37.8-.58a17.16,17.16,0,0,0,1.44-1.39h0Z"/><path class="cls-3" d="M208.07,142a4.16,4.16,0,0,1-1,3.07,2.79,2.79,0,0,1-1.39.94,2.07,2.07,0,0,1-1.63-.28h0a2.43,2.43,0,0,0,1.55.06,3.25,3.25,0,0,0,1.31-.83,4.07,4.07,0,0,0,1.12-2.93h0Z"/><path class="cls-3" d="M178.49,112.36a2.45,2.45,0,0,1-1.3-1.07,4.49,4.49,0,0,1-.6-1.61,5.52,5.52,0,0,1-.06-1.72,6.38,6.38,0,0,1,.45-1.66h0a0,0,0,0,1,0,0,15.91,15.91,0,0,0-.22,1.67,8.47,8.47,0,0,0,0,1.67,4.41,4.41,0,0,0,.49,1.58,2.46,2.46,0,0,0,1.21,1.11h0A0,0,0,0,1,178.49,112.36Z"/><path class="cls-3" d="M158.49,132.65a8.41,8.41,0,0,0-1.82-4.77,10.6,10.6,0,0,0-4.21-2.92,20.2,20.2,0,0,0-5-1.26,32,32,0,0,0-5.18-.26,18.78,18.78,0,0,0-9.79,3,15.38,15.38,0,0,0-3.9,3.38,8,8,0,0,0-1.88,4.74h0a8.08,8.08,0,0,1,1.84-4.77,15.43,15.43,0,0,1,3.88-3.46,18.37,18.37,0,0,1,9.85-3,25.55,25.55,0,0,1,10.25,1.56,10.63,10.63,0,0,1,4.2,3,8.51,8.51,0,0,1,1.78,4.8Z"/><path class="cls-3" d="M126.56,134.55h.25v-.08c0-.1,0-.21,0-.32a4.53,4.53,0,0,1,.13-.64,7.18,7.18,0,0,1,.44-1.23,8.89,8.89,0,0,1,1.46-2.17,18.32,18.32,0,0,1,4.15-3.18,22.55,22.55,0,0,1,10-2.75,27,27,0,0,1,5.24.28,20.64,20.64,0,0,1,5.07,1.35,9,9,0,0,1,3.94,3.42,8,8,0,0,1,1,2.44,5,5,0,0,1,.1.66l0,.25h.07s0,0,0,0a9.44,9.44,0,0,0-.1-1.28,7.77,7.77,0,0,0-2.31-4.54,13.54,13.54,0,0,0-4.41-2.71,25.58,25.58,0,0,0-10.26-1.54,17.39,17.39,0,0,0-5.11,1,21.65,21.65,0,0,0-4.59,2.48,14.15,14.15,0,0,0-3.67,3.69,9,9,0,0,0-1.52,4.93h0a9,9,0,0,1,1.5-4.94,14.19,14.19,0,0,1,3.65-3.72,21.64,21.64,0,0,1,4.6-2.52,16.94,16.94,0,0,1,5.13-1,25.41,25.41,0,0,1,10.33,1.51,13.51,13.51,0,0,1,4.46,2.74,8,8,0,0,1,2.36,4.64,9.56,9.56,0,0,1,.1,1.33v.14h-.39a2.91,2.91,0,0,1-.05-.39c0-.22-.06-.43-.11-.64a7.69,7.69,0,0,0-1-2.4,8.82,8.82,0,0,0-3.87-3.35,20.58,20.58,0,0,0-5-1.35,27.53,27.53,0,0,0-5.21-.31,22.42,22.42,0,0,0-10,2.68,18,18,0,0,0-4.16,3.14,8.78,8.78,0,0,0-1.47,2.16,7.53,7.53,0,0,0-.45,1.23c0,.21-.09.42-.13.64s0,.22,0,.32a.28.28,0,0,1,0,.09h-.25Z"/><path class="cls-3" d="M132.45,141.54a44.21,44.21,0,0,1,5.1-1.82,18.41,18.41,0,0,1,5.37-.73,19.48,19.48,0,0,1,5.36.85c1.74.49,3.43,1.11,5.15,1.67h0c-1.72-.54-3.44-1.11-5.19-1.56a21.82,21.82,0,0,0-5.32-.81,21,21,0,0,0-5.34.68,40.6,40.6,0,0,0-5.13,1.71Z"/><path class="cls-3" d="M132.47,141.52c3.23-1.23,6.81-2.5,10.44-2.42a22.2,22.2,0,0,1,5.34.84l1.82.51-1.82-.6a20.41,20.41,0,0,0-5.32-.82,26.31,26.31,0,0,0-10.46,2.49h0c3.33-1.36,6.81-2.61,10.46-2.61a19.93,19.93,0,0,1,5.37.79l5.2,1.84s-.07,0-.11,0l-.17-.05-.34-.09-.66-.18-1.33-.36-2.66-.74a22.92,22.92,0,0,0-5.32-.87c-3.6-.14-7.21,1.06-10.44,2.28Z"/><path class="cls-3" d="M127.58,132.24a3.59,3.59,0,0,0,.21,2.9,14,14,0,0,0,1.5,2.59,12.39,12.39,0,0,0,2.08,2.14,3.78,3.78,0,0,0,.61.44,3.44,3.44,0,0,0,.66.34,2.4,2.4,0,0,0,1.47.17h0a2.42,2.42,0,0,1-1.48-.12,2.89,2.89,0,0,1-.69-.32,3.31,3.31,0,0,1-.64-.41,10.15,10.15,0,0,1-2.14-2.15,10.71,10.71,0,0,1-1.48-2.64,3.76,3.76,0,0,1-.11-2.94Z"/><path class="cls-3" d="M127.58,132.26s0,0,0,0h0a3.61,3.61,0,0,0,.15,2.91,11.87,11.87,0,0,0,1.46,2.6,10.46,10.46,0,0,0,2.06,2.14,3.55,3.55,0,0,0,2.71.89l.13,0h0v.05s0,0,0,0v.06a3.72,3.72,0,0,1-2.73-1,12.4,12.4,0,0,1-2.07-2.09,12,12,0,0,1-1.52-2.62,3.7,3.7,0,0,1-.2-2.93h0a3.66,3.66,0,0,0,.25,2.91,11.81,11.81,0,0,0,1.57,2.56,13.31,13.31,0,0,0,2.07,2,3.59,3.59,0,0,0,2.61,1h0a.09.09,0,0,1,0,.18h0l-.14,0a3.68,3.68,0,0,1-2.84-.92,10.06,10.06,0,0,1-2.07-2.2,11.63,11.63,0,0,1-1.41-2.65,3.69,3.69,0,0,1-.1-2.93h0a0,0,0,1,1,0,0Z"/><path class="cls-3" d="M158.57,132.17a12.05,12.05,0,0,1-.3,3.28,11.46,11.46,0,0,1-1.15,3.1A5.79,5.79,0,0,1,154.9,141a7.38,7.38,0,0,1-.78.3,8,8,0,0,1-.83.07,7,7,0,0,1-.82-.13l-.77-.29h0l.78.27c.26.06.54.06.81.1a3.05,3.05,0,0,0,1.55-.43,6.25,6.25,0,0,0,2.14-2.39,13.81,13.81,0,0,0,1.17-3.06,11.12,11.12,0,0,0,.42-3.25Z"/><path class="cls-3" d="M158.59,132.19a14.06,14.06,0,0,1-.4,3.18,12.79,12.79,0,0,1-1.13,3.06,6.2,6.2,0,0,1-2.17,2.43,3.54,3.54,0,0,1-3.2.14l0-.05s0,0,0,0l0,0,.11.06a3.23,3.23,0,0,0,3.09,0,5.92,5.92,0,0,0,2.14-2.4,12.91,12.91,0,0,0,1.15-3.07,11.28,11.28,0,0,0,.35-3.27h0a12.09,12.09,0,0,1-.31,3.28,13,13,0,0,1-1.08,3.12,5.85,5.85,0,0,1-2.17,2.48,3.33,3.33,0,0,1-3.24,0l-.12-.06h0a.1.1,0,0,1,0-.12.11.11,0,0,1,.12-.05h0a3.37,3.37,0,0,0,3.06-.13,6.29,6.29,0,0,0,2.14-2.35,13.3,13.3,0,0,0,1.64-6.18Z"/><path class="cls-3" d="M159.83,118.53a10.64,10.64,0,0,1-1.1,2.34,7.81,7.81,0,0,1-.75,1.06c-.28.33-.57.64-.87.95h0a9.86,9.86,0,0,0,.77-1l.72-1.06a21.45,21.45,0,0,0,1.23-2.26Z"/><path class="cls-3" d="M159.84,118.55s0,0,0,0h0a16.35,16.35,0,0,1-1.19,2.27c-.49.7-1,1.41-1.46,2.1v0a.05.05,0,0,0-.06-.06c.23-.23.59-.58.85-.89l.72-1.06a13.18,13.18,0,0,0,1.15-2.32h0a15.08,15.08,0,0,1-1,2.37l-.71,1.1a4.87,4.87,0,0,1-1,1,.1.1,0,0,1-.1-.1v0l0,0c.46-.72,1-1.41,1.49-2.09a13.42,13.42,0,0,0,1.28-2.2h0s0,0,0,0Z"/><path class="cls-3" d="M147.61,114.87c-.13.82-.21,1.64-.39,2.44-.08.41-.15.81-.26,1.21l-.3,1.2h0l.18-1.22c.06-.41.14-.82.22-1.22.13-.81.37-1.6.55-2.41Z"/><path class="cls-3" d="M147.62,114.88h0l-.5,2.41-.24,1.2,0,.41a2.44,2.44,0,0,0,.1-.39l.23-1.19c.15-.8.3-1.6.45-2.44h0l-.33,2.46c-.07.41-.12.82-.21,1.23s-.28.88-.46,1.22l.06-1.32.29-1.21.62-2.38h0Z"/><path class="cls-3" d="M137.65,115.3a11.26,11.26,0,0,1,1.17,2.26,10,10,0,0,1,.42,1.2c.11.41.2.83.28,1.24h0a9.93,9.93,0,0,0-.4-1.2l-.45-1.18c-.34-.78-.61-1.58-1-2.32Z"/><path class="cls-3" d="M137.66,115.3h0a17.65,17.65,0,0,1,1.07,2.29l.87,2.37,0,0a.06.06,0,0,0-.08,0h0v0h0a6.36,6.36,0,0,0-.23-1.23l-.44-1.19a15.05,15.05,0,0,0-1.12-2.28h0a18.64,18.64,0,0,1,1.24,2.23l.48,1.19a5.93,5.93,0,0,1,.23,1.27h0V120l0,0a.09.09,0,0,1-.12,0h0v0a25.06,25.06,0,0,1-.84-2.39,14.24,14.24,0,0,0-1-2.33h0s0,0,0,0Z"/><path class="cls-3" d="M130.67,119.9c.31.66.68,1.3,1,2,.15.33.3.67.42,1s.25.7.39,1h0c-.16-.33-.33-.66-.5-1s-.31-.67-.46-1c-.31-.66-.54-1.36-.81-2Z"/><path class="cls-3" d="M130.68,119.9h0l.85,2,.44,1,.19.31c0-.15-.1-.29-.11-.34l-.44-1-.91-2h0l1,2c.17.33.33.66.48,1a9.61,9.61,0,0,1,.26,1.14l-.64-1-.4-1-.75-2.07h0s0,0,0,0Z"/><path class="cls-3" d="M124,125.69c.46.49,1,1,1.43,1.4.25.22.52.41.78.62s.53.4.81.59h0l-.88-.49a4.79,4.79,0,0,1-.82-.6,9.6,9.6,0,0,1-1.33-1.52Z"/><path class="cls-3" d="M124,125.69s0,0,0,0h0l1.35,1.48.79.6.34.16a2.57,2.57,0,0,0-.27-.21l-.78-.59L124,125.69h0c.49.46,1,.91,1.49,1.35.28.2.56.37.83.59l.4.38.21.18.1.09s.08.1,0,.06c-.34-.14-.68-.27-1-.42l-.78-.65L124,125.7h0s0,0,0,0Z"/><path class="cls-3" d="M128.61,140.64a3.57,3.57,0,0,0,.28,1.59,4.81,4.81,0,0,0,.84,1.37,3.17,3.17,0,0,0,1.31.88,2.32,2.32,0,0,0,.79.1,3,3,0,0,0,.78-.21h0a3.33,3.33,0,0,1-.77.26,2.38,2.38,0,0,1-.84,0,2.79,2.79,0,0,1-1.39-.89,3.89,3.89,0,0,1-.83-1.43,4,4,0,0,1-.17-1.64Z"/><path class="cls-3" d="M128.62,140.66a4,4,0,0,0,1,3,3,3,0,0,0,1.28.91,2,2,0,0,0,1.53-.15l.15-.09,0,0s-.07.08.06,0h0l0,.06a2.48,2.48,0,0,1-1.57.08,3.16,3.16,0,0,1-1.32-.83,4.17,4.17,0,0,1-1.12-3h0a4,4,0,0,0,1.21,2.93,2.58,2.58,0,0,0,2.74.69h0c.09,0,.15.09.1.15h0l-.16.09a2.07,2.07,0,0,1-1.65.16,2.81,2.81,0,0,1-1.34-1,4.09,4.09,0,0,1-.89-3.06Z"/><path class="cls-3" d="M157,115a3.19,3.19,0,0,0,1.94-1,5.42,5.42,0,0,0,1.22-1.8,6.52,6.52,0,0,0,.47-2.13,5,5,0,0,0,0-1.1,6.85,6.85,0,0,0-.24-1.09h0a10.17,10.17,0,0,1,.3,1.08,5.88,5.88,0,0,1,.1,1.11,5.49,5.49,0,0,1-.44,2.19,4.84,4.84,0,0,1-1.29,1.84,3.48,3.48,0,0,1-2,.87Z"/><path class="cls-3" d="M157,115a3.14,3.14,0,0,0,2-.85,5.14,5.14,0,0,0,1.27-1.79,5.37,5.37,0,0,0,.1-4.27l0-.06,0,0h0l.06,0h0s.12,0,.06,0h0v0l0,.06.06.28.09.55a6.07,6.07,0,0,1,.05,1.13,6.65,6.65,0,0,1-.42,2.2,5.16,5.16,0,0,1-1.24,1.85,3.39,3.39,0,0,1-2,1h0a3.28,3.28,0,0,0,1.94-1,5,5,0,0,0,1.16-1.86,6.91,6.91,0,0,0,.38-2.16,6.76,6.76,0,0,0-.06-1.1c0-.18-.05-.36-.08-.54l-.06-.27,0-.07v0s0,0,0-.06.06-.08.11-.06,0,0,.07.07v0l0,.07a5.31,5.31,0,0,1-.14,4.38A5.23,5.23,0,0,1,159,114.2a3.2,3.2,0,0,1-2,.81Z"/><path class="cls-3" d="M178.33,131.69a7.79,7.79,0,0,1,2.19-4.85,11.39,11.39,0,0,1,4.6-2.81,20.57,20.57,0,0,1,5.32-1,23.51,23.51,0,0,1,5.43.21,17.08,17.08,0,0,1,9.39,5.15,17.84,17.84,0,0,1,3.08,4.46,12.62,12.62,0,0,1,1.31,5.22h0a12.36,12.36,0,0,0-1.36-5.2,17.87,17.87,0,0,0-3.12-4.39,17.34,17.34,0,0,0-9.33-5.08,23.68,23.68,0,0,0-5.39-.21,21.7,21.7,0,0,0-5.29,1,11.26,11.26,0,0,0-4.6,2.72,7.77,7.77,0,0,0-2.23,4.82Z"/><path class="cls-3" d="M209.53,138h.17s.07,0,.08,0v-.43c0-.23,0-.45,0-.68a10.18,10.18,0,0,0-.18-1.35,13.1,13.1,0,0,0-.79-2.61,18.38,18.38,0,0,0-2.86-4.62,17.24,17.24,0,0,0-9-5.73,18.81,18.81,0,0,0-5.39-.58,22.58,22.58,0,0,0-5.34.94,13.66,13.66,0,0,0-4.78,2.49,9.53,9.53,0,0,0-1.82,2,7.46,7.46,0,0,0-1,2.48,7.35,7.35,0,0,0-.19,1.33c0,.11,0,.23,0,.34s0,0,0,0h.07l.12-.61a7,7,0,0,1,1.14-2.49,9.61,9.61,0,0,1,4.33-3.27,20,20,0,0,1,5.34-1.16,31.23,31.23,0,0,1,5.47,0,16.85,16.85,0,0,1,9.77,4.47,15.06,15.06,0,0,1,5,9.47h0a15,15,0,0,0-5-9.43,16.77,16.77,0,0,0-9.75-4.39,31.87,31.87,0,0,0-5.44,0,20.33,20.33,0,0,0-5.3,1.16,9.56,9.56,0,0,0-4.26,3.21,7.21,7.21,0,0,0-1.12,2.44,3.07,3.07,0,0,1-.17.7h-.25s-.12,0-.11,0v-.14c0-.12,0-.23,0-.35a7.81,7.81,0,0,1,.19-1.36,8,8,0,0,1,1.07-2.53,9.61,9.61,0,0,1,1.85-2,13.94,13.94,0,0,1,4.84-2.53,22.88,22.88,0,0,1,5.39-.93,18.36,18.36,0,0,1,5.42.62,17.22,17.22,0,0,1,9.06,5.81,18.14,18.14,0,0,1,2.84,4.64,14.09,14.09,0,0,1,.78,2.62,10.17,10.17,0,0,1,.17,1.35c0,.23,0,.45,0,.68V138s-.05,0-.08,0Z"/><path class="cls-3" d="M204.22,142.92a40.08,40.08,0,0,0-5.13-1.71,21,21,0,0,0-5.34-.68,21.82,21.82,0,0,0-5.32.81c-1.75.45-3.46,1-5.19,1.56h0c1.72-.56,3.42-1.19,5.16-1.68a19.35,19.35,0,0,1,5.35-.85,18.71,18.71,0,0,1,5.37.73,43.55,43.55,0,0,1,5.1,1.82Z"/><path class="cls-3" d="M204.19,142.92a26,26,0,0,0-10.38-2.51,20,20,0,0,0-5.32.8l-1.88.64c.21,0,.56-.16.72-.21l.82-.24.42-.12,1-.25a20.31,20.31,0,0,1,4.11-.54c3.65-.08,7.16,1.12,10.5,2.43h0a26.34,26.34,0,0,0-10.5-2.31,20.8,20.8,0,0,0-4.07.58l-1,.25-1.66.48-3.35,1a.48.48,0,0,0-.17,0h-.2s-.12,0,0,0l5.2-1.83a19.57,19.57,0,0,1,5.37-.76,26.84,26.84,0,0,1,10.38,2.63Z"/><path class="cls-3" d="M209.07,135.12a3.46,3.46,0,0,1-.21,2.83,7.59,7.59,0,0,1-1.76,2.33,7.89,7.89,0,0,1-2.45,1.59,4.72,4.72,0,0,1-1.43.33,3,3,0,0,1-1.42-.22h0a3,3,0,0,0,1.42.17,4.46,4.46,0,0,0,1.38-.4,9.11,9.11,0,0,0,2.39-1.58,8.82,8.82,0,0,0,1.76-2.27,3.4,3.4,0,0,0,.32-2.78Z"/><path class="cls-3" d="M209.08,135.13s0,0,0,0h0a3.41,3.41,0,0,1-.28,2.77,8.07,8.07,0,0,1-1.75,2.27,8.76,8.76,0,0,1-2.4,1.58,3.94,3.94,0,0,1-2.84.29l0-.05s0,0,0,0l0,0,.1,0a3.61,3.61,0,0,0,2.77-.15,7.88,7.88,0,0,0,2.38-1.59,8,8,0,0,0,1.74-2.3,3.4,3.4,0,0,0,.25-2.8h0a3.55,3.55,0,0,1-.21,2.83,8.4,8.4,0,0,1-1.7,2.36,7.83,7.83,0,0,1-2.41,1.65,3.77,3.77,0,0,1-2.89.15l-.11-.05h0a.08.08,0,0,1-.06-.12.11.11,0,0,1,.11,0h0a3.82,3.82,0,0,0,2.73-.29,9.18,9.18,0,0,0,2.38-1.52,7.87,7.87,0,0,0,1.78-2.2,3.37,3.37,0,0,0,.33-2.75h0s0,0,0,0Z"/><path class="cls-3" d="M178.24,130.51a25.59,25.59,0,0,0,.72,4,21.5,21.5,0,0,0,1.38,3.82,8,8,0,0,0,2.5,3.09,4.24,4.24,0,0,0,.9.46,7.74,7.74,0,0,0,1,.21c.34,0,.68,0,1-.05l1-.27h0l-1,.28c-.34.05-.68.06-1,.09a6.67,6.67,0,0,1-1-.19,4.37,4.37,0,0,1-.93-.43,7.43,7.43,0,0,1-2.58-3.13,17.72,17.72,0,0,1-1.36-3.86,28.59,28.59,0,0,1-.6-4Z"/><path class="cls-3" d="M178.25,130.54a21.66,21.66,0,0,0,2,7.79,7.77,7.77,0,0,0,2.48,3.12,3.14,3.14,0,0,0,.9.44,3.35,3.35,0,0,0,1,.21,5.57,5.57,0,0,0,1,0,6.2,6.2,0,0,0,1-.28l.12,0h0c0,.07,0,0,0,0s0,0,0,0,0,0,0,.07h0l-.25.06-.5.12a6,6,0,0,1-1,.08,1.26,1.26,0,0,1-.27,0l-.25,0a5,5,0,0,1-.5-.11,5.77,5.77,0,0,1-.95-.43,8,8,0,0,1-2.61-3.12,23.58,23.58,0,0,1-2.07-7.85h0a21.8,21.8,0,0,0,2.19,7.8,8,8,0,0,0,2.58,3,6,6,0,0,0,.9.4,3.88,3.88,0,0,0,.49.11l.25.05a1,1,0,0,0,.24,0,5.31,5.31,0,0,0,1-.07l.5-.11.25-.06h0s.06-.05.13.07-.11.09-.11.12l-.12,0a6.4,6.4,0,0,1-1,.28,5,5,0,0,1-1,.06,3.59,3.59,0,0,1-1-.22,3.08,3.08,0,0,1-.93-.45,7.65,7.65,0,0,1-2.5-3.21,22.84,22.84,0,0,1-1.85-7.85Z"/><path class="cls-3" d="M177.53,117.23a21.31,21.31,0,0,0,1.23,2.25l.72,1.07a12.53,12.53,0,0,0,.77,1h0q-.45-.47-.87-1a7.71,7.71,0,0,1-.75-1.05,10.4,10.4,0,0,1-1.1-2.34Z"/><path class="cls-3" d="M177.54,117.23h0a13.3,13.3,0,0,0,1.14,2.3l.72,1a5.9,5.9,0,0,0,.89.91l0,0,0,0s-.08,0-.07.06v0l-1.45-2.08a16.75,16.75,0,0,1-1.2-2.3h0a13.16,13.16,0,0,0,1.31,2.23c.51.67,1,1.36,1.47,2.06l0,0v0a.1.1,0,0,1-.11.09h0l0,0h0a6.73,6.73,0,0,1-.92-.93l-.7-1.1a15.91,15.91,0,0,1-1-2.36h0s0,0,0,0Z"/><path class="cls-3" d="M186.51,115.2c.18.8.42,1.59.55,2.4.09.41.17.81.22,1.22l.18,1.22h0l-.3-1.2c-.1-.4-.18-.8-.26-1.21-.18-.8-.26-1.62-.39-2.43Z"/><path class="cls-3" d="M186.52,115.2h0l.45,2.42.23,1.2.13.39a3.46,3.46,0,0,0-.05-.4l-.24-1.19-.5-2.43h0l.63,2.4c.09.41.19.81.28,1.22s.06.91,0,1.3l-.45-1.24-.19-1.23-.32-2.44h0s0,0,0,0Z"/><path class="cls-3" d="M197.35,115.37c-.33.58-.55,1.22-.82,1.82l-.35.94a9.75,9.75,0,0,0-.3,1h0c.05-.33.11-.67.18-1a6.76,6.76,0,0,1,.32-1,7.73,7.73,0,0,1,1-1.76Z"/><path class="cls-3" d="M197.36,115.38h0a10.26,10.26,0,0,0-.92,1.77l-.33.94a4.06,4.06,0,0,0-.14,1v0l0,0a.07.07,0,0,0-.08,0l0,0c.23-.61.45-1.22.66-1.84l.88-1.83h0l-.76,1.87a16.51,16.51,0,0,1-.64,1.87v0h0a.1.1,0,0,1-.13,0v-.07a4.24,4.24,0,0,1,.14-1l.38-1a11.51,11.51,0,0,1,1-1.72h0s0,0,0,0Z"/><path class="cls-3" d="M205.13,119.4c-.27.68-.49,1.39-.81,2-.14.34-.29.67-.46,1s-.34.65-.49,1h0c.14-.34.26-.69.39-1s.27-.68.42-1c.27-.68.64-1.32,1-2Z"/><path class="cls-3" d="M205.13,119.41h0l-.9,2-.44,1-.09.35c.08-.13.14-.26.17-.31l.42-1,.86-2h0l-.75,2.08c-.13.35-.26.7-.41,1s-.43.71-.66,1l.29-1.16.49-1,1-1.95h0Z"/><path class="cls-3" d="M212.68,127.07a9.6,9.6,0,0,1-1.33,1.52,4.72,4.72,0,0,1-.81.6l-.89.49h0c.28-.18.55-.38.82-.59s.53-.4.78-.62c.47-.45,1-.91,1.43-1.4Z"/><path class="cls-3" d="M212.68,127.08c-.47.41-.94,1-1.41,1.43l-.79.6a2,2,0,0,0-.24.22l.29-.16.79-.6,1.36-1.49h0l-1.29,1.58-.79.65-1,.42a9.16,9.16,0,0,1,.77-.75l.84-.57c.49-.43,1-.94,1.49-1.33Z"/><path class="cls-3" d="M208.06,142a3.94,3.94,0,0,1-.17,1.63,3.68,3.68,0,0,1-.83,1.43,2.75,2.75,0,0,1-1.39.89,2.33,2.33,0,0,1-.83,0,3.41,3.41,0,0,1-.78-.26h0a3,3,0,0,0,.78.21,2.41,2.41,0,0,0,.8-.1A3.14,3.14,0,0,0,207,145a5,5,0,0,0,.83-1.37,3.55,3.55,0,0,0,.28-1.58Z"/><path class="cls-3" d="M208.07,142A4.34,4.34,0,0,1,207,145a3.07,3.07,0,0,1-1.34.9,2.56,2.56,0,0,1-1.62-.05h.08l0,0h0l0-.06.11.07a2,2,0,0,0,1.53.17,2.92,2.92,0,0,0,1.3-.9,4.08,4.08,0,0,0,1-3h0a4.29,4.29,0,0,1-.94,3.09,2.81,2.81,0,0,1-1.34,1,2.18,2.18,0,0,1-1.66-.19l-.12-.08h0s-.05-.1,0-.12a.13.13,0,0,1,.07-.05h0a2.59,2.59,0,0,0,2.82-.77,4.23,4.23,0,0,0,1.16-2.86Z"/><path class="cls-3" d="M178.5,112.36a2.65,2.65,0,0,1-1.32-1.06,4.29,4.29,0,0,1-.57-1.63,5.76,5.76,0,0,1,0-1.71,10.3,10.3,0,0,1,.4-1.66h0a8,8,0,0,0-.27,1.67,7.85,7.85,0,0,0,.05,1.68,5.15,5.15,0,0,0,.52,1.58,2.36,2.36,0,0,0,1.21,1.12Z"/><path class="cls-3" d="M178.49,112.36a2.75,2.75,0,0,1-1.22-1.1,4.46,4.46,0,0,1-.54-1.6,8,8,0,0,1,0-1.69l.22-1.67v0s0,0,0,0h0l0-.06h0l.07,0h0l0,.05a5.91,5.91,0,0,0-.36,3.3,4.27,4.27,0,0,0,.56,1.58,2.41,2.41,0,0,0,1.27,1.08h0a2.54,2.54,0,0,1-1.32-1,4.38,4.38,0,0,1-.63-1.59,5.57,5.57,0,0,1,.34-3.39l0,0s0,0,0-.05.12,0,.14.05h0v0l-.22,1.66a8.48,8.48,0,0,0,0,1.67,4.24,4.24,0,0,0,.47,1.59,2.69,2.69,0,0,0,1.17,1.12Z"/></g><g id="eyebrows"><path class="cls-7" d="M156.68,111c-1.52.23-2.66-.35-4-.7a26.28,26.28,0,0,0-3.6-.79,29.72,29.72,0,0,0-12.47.6c-6.87,2.17-11.84,7.51-16.62,12.55-.2-8.59,7.85-14.23,15.14-16.85,6.48-2.63,14.79-3.29,20.71,1.21a4.49,4.49,0,0,1,1.88,2.65l-1,1.33Z"/><path class="cls-7" d="M180.37,109c.53-2.23,2.72-3.33,4.6-4.25,5.79-2.7,12.7-1.29,18,1.59s10.45,6.8,12.33,12.61a15.36,15.36,0,0,1,.73,5.89c-1.29-1.33-2.32-3.1-3.53-4.38-3.34-3.92-6.67-8-11.49-10-5.92-2.49-12.17-1.94-18.08-.14a4.45,4.45,0,0,1-1.56,0l-1-1.32Z"/></g></g></svg>