<svg id="artwork" xmlns="http://www.w3.org/2000/svg" viewBox="0 0 291 673"><defs><style>.cls-1{fill:#d9cec5;}.cls-2{fill:#7e8c64;}.cls-3,.cls-4{fill:#2d2d2d;}.cls-4{fill-rule:evenodd;}.cls-5,.cls-8{fill:none;}.cls-5{stroke:#2d2d2d;stroke-miterlimit:10;}.cls-6{fill:#f2eae4;}.cls-7{fill:#36302c;}</style></defs><g id="eyes_left1"><g id="white"><path class="cls-1" d="M196.22,122.64c5.67.94,7.65,1.35,11.52,3.2,13.69,6.54-5.92,13.72-14.18,13.94-4.36.12-10.42-2.46-13.31-5.88-2.5-3-4.11-11.6.21-11.75C184.61,122,189.24,121.49,196.22,122.64Z"/><path class="cls-1" d="M147.11,121.88c5.56,2.09,12.55,6.14,10.24,10.56-4.26,8.1-14.17,10.21-22.24,7.93-5.5-1.56-9.69-6-8.53-10.35a10.51,10.51,0,0,1,3.55-5,17.23,17.23,0,0,1,5.17-3.12,17.59,17.59,0,0,1,10.72-.41A10.69,10.69,0,0,1,147.11,121.88Z"/></g><g id="iris"><path class="cls-2" d="M181.16,134.57c-3-2.15-4.24-10.09-3.06-12.82,3.14-.21,8,0,11.18.07,2.41,2,.84,7.05-.2,8.82C187.48,133.38,181.67,134.78,181.16,134.57Z"/><path class="cls-2" d="M125.1,128.41c.49-2.25,3.61-6.14,6.08-6.22,4.16-.13,5.67,5.82,6,8.14.38,2.49-2.09,5.82-7,6.1-2.2.13-3.63-2.89-4.25-4.14A14.4,14.4,0,0,1,125.1,128.41Z"/></g><g id="iris_outline"><path class="cls-3" d="M185.2,133.31a50.08,50.08,0,0,1-4-5.38l-.05-.09s0,0,0-.07,0,0,.05,0l0,0c-.08-.08,0,0,.06.08l.13.17a56.07,56.07,0,0,1,3.84,5.23Z"/><path class="cls-3" d="M189.23,122.38c-2.27.39-4.45,1.15-6.7,1.62a22.35,22.35,0,0,1,6.7-1.62Z"/><path class="cls-3" d="M188.7,130.51a53.69,53.69,0,0,1-6.16-3.55,56.88,56.88,0,0,1,6.16,3.55Z"/><path class="cls-3" d="M190.52,125.1a10.55,10.55,0,0,1-2.05.47,39.63,39.63,0,0,1-6.22,1c1.4-.11,2.72-.66,4.13-.82s2.84-.38,4.14-.64Z"/><path class="cls-3" d="M181.16,134.44c6.2,0,10.11-6,8.55-11.77l.09,0c3.83,5.64-2.77,12.91-8.64,11.81Z"/><path class="cls-3" d="M128.84,136.16c3.54.69,7.54-.76,7.87-4.74a9.69,9.69,0,0,0-4.26-8.91l0-.09c4.73,1.23,6.59,7.86,3.95,11.76-1.66,2.47-5,2.72-7.62,2.08l0-.1Z"/><path class="cls-3" d="M134.09,135.59,132,134.4a9.55,9.55,0,0,1-1-.62,6.88,6.88,0,0,1-.91-.79v0h0a6.74,6.74,0,0,1,1.09.5,11.37,11.37,0,0,1,1,.68l1.93,1.41s0,0,0,0Z"/><path class="cls-3" d="M127.4,128.83c1.59.37,3.17.77,4.73,1.23.78.22,1.57.44,2.33.73a22.39,22.39,0,0,1,2.24,1,0,0,0,0,1,0,0h0c-.8-.19-1.57-.44-2.35-.67s-1.53-.54-2.3-.81q-2.29-.79-4.64-1.47s0,0,0,0Z"/><path class="cls-3" d="M136.69,128.76l-3,0c-.5,0-1,0-1.48-.05a9.44,9.44,0,0,1-1.47-.26,0,0,0,0,1,0,0h0a10.64,10.64,0,0,1,1.49-.09c.49,0,1,.08,1.47.13l2.95.3a0,0,0,0,1,0,0Z"/><path class="cls-3" d="M136,125.33l-2.35.3a9.25,9.25,0,0,1-1.18.12,6,6,0,0,1-1.19-.08v0a7,7,0,0,1,1.17-.25,11.84,11.84,0,0,1,1.19,0l2.37,0v0Z"/></g><g id="pupil"><path class="cls-4" d="M178.89,130c-1.06-2.69-1.45-7.17-1.1-8.57.6-.18,2.7.5,3.33.56,2.29.24,2,1.29,1.25,2.18a1.89,1.89,0,0,0,.17,2.5,1.71,1.71,0,0,1,.17,2.41C180.61,132,179.09,130.47,178.89,130Z"/><path class="cls-4" d="M127.1,133.23c-.87-.49-1.4-1.18-1.62-3.23-.36-3.3,4.48-8.26,6.27-4.55.82,1.68-3.3,3.66-3.3,3.66a6.67,6.67,0,0,0,2.3,3.52C131.83,133.58,129,134.28,127.1,133.23Z"/><path class="cls-4" d="M178.89,130c-1.06-2.69-1.45-7.17-1.1-8.57.6-.18,2.7.5,3.33.56,2.29.24,2,1.29,1.25,2.18a1.89,1.89,0,0,0,.17,2.5,1.71,1.71,0,0,1,.17,2.41C180.61,132,179.09,130.47,178.89,130Z"/><path class="cls-4" d="M127.1,133.23c-.87-.49-1.4-1.18-1.62-3.23-.36-3.3,4.48-8.26,6.27-4.55.82,1.68-3.3,3.66-3.3,3.66a6.67,6.67,0,0,0,2.3,3.52C131.83,133.58,129,134.28,127.1,133.23Z"/><path class="cls-5" d="M178.89,130c-1.06-2.69-1.45-7.17-1.1-8.57.6-.18,2.7.5,3.33.56,2.29.24,2,1.29,1.25,2.18a1.89,1.89,0,0,0,.17,2.5,1.71,1.71,0,0,1,.17,2.41C180.61,132,179.09,130.47,178.89,130Z"/><path class="cls-5" d="M127.1,133.23c-.87-.49-1.4-1.18-1.62-3.23-.36-3.3,4.48-8.26,6.27-4.55.82,1.68-3.3,3.66-3.3,3.66a6.67,6.67,0,0,0,2.3,3.52C131.83,133.58,129,134.28,127.1,133.23Z"/></g><g id="spec"><path class="cls-6" d="M191.65,124a2,2,0,0,1,.46.62,2.46,2.46,0,0,1-1.47,3.19,2.58,2.58,0,0,1-3.42-1,2.31,2.31,0,0,1,.74-2.72C189.19,124,190.42,124,191.65,124Z"/><path class="cls-6" d="M137.48,126.44a1.22,1.22,0,0,1-.23,1.79,4.92,4.92,0,0,1-2.54,1,2.93,2.93,0,0,1-1.44,0,1.62,1.62,0,0,1-1-1.79C132.73,124.69,136.42,125.11,137.48,126.44Z"/></g><g id="outline"><path class="cls-3" d="M175.58,120.94c.84-.16,1.68-.34,2.53-.44s1.69-.15,2.53-.2c1.69-.1,3.38-.14,5.06-.08s3.36.19,5,.34,3.39.31,5.07.54a39,39,0,0,1,10,2.33,18.89,18.89,0,0,1,4.51,2.65,34.56,34.56,0,0,1,3.7,3.55l-.08.12c-1.56-.71-3.06-1.52-4.52-2.26A35.35,35.35,0,0,0,205,125.6a50.82,50.82,0,0,0-9.45-2.6c-3.24-.45-6.63-.37-10-.69-1.67-.13-3.33-.34-5-.56l-2.5-.34c-.83-.14-1.66-.32-2.51-.44Z"/><path class="cls-3" d="M212.4,131.66a25.16,25.16,0,0,1-8.59,6.48,23.38,23.38,0,0,1-10.63,2,18,18,0,0,1-10.28-3.33,11.56,11.56,0,0,1-3.48-4.16,11.22,11.22,0,0,1-1.14-5.24h0a10.54,10.54,0,0,0,1.32,5.14,11.25,11.25,0,0,0,3.59,3.86,19.51,19.51,0,0,0,10,3.09,26.39,26.39,0,0,0,10.42-1.84,23.37,23.37,0,0,0,8.77-6Z"/><path class="cls-3" d="M189,114.05a14.33,14.33,0,0,0,0,2.7c0,.44.12.88.14,1.32a12.52,12.52,0,0,1,0,1.37h0a4.59,4.59,0,0,1-.45-1.32,6.36,6.36,0,0,1,0-1.38A14.6,14.6,0,0,1,189,114h0Z"/><path class="cls-3" d="M193.6,115.25l0,1.75a4.2,4.2,0,0,1,0,.87,3,3,0,0,1-.32.84h-.05a3.14,3.14,0,0,1-.13-.89,5,5,0,0,1,.14-.86l.37-1.72h0Z"/><path class="cls-3" d="M199.89,116.13a11.19,11.19,0,0,0-.48,2c-.06.35-.06.7-.14,1a6.08,6.08,0,0,1-.32,1h0a3.08,3.08,0,0,1-.13-1.08,4.31,4.31,0,0,1,.25-1.06,10.67,10.67,0,0,1,.83-2h0Z"/><path class="cls-3" d="M206.34,117.9l-.62,2.3a8.38,8.38,0,0,1-.35,1.14,4.63,4.63,0,0,1-.61,1,0,0,0,0,1,0,0s0,0,0,0a4.7,4.7,0,0,1,.18-1.2,7.54,7.54,0,0,1,.44-1.11l.95-2.19h.05Z"/><path class="cls-3" d="M213,120.09a16.8,16.8,0,0,1-1,2.79,7.68,7.68,0,0,1-.75,1.3,5.07,5.07,0,0,1-1.06,1.06h0a0,0,0,0,1,0,0,11.63,11.63,0,0,1,.69-1.31c.24-.42.55-.81.81-1.22a16.1,16.1,0,0,0,1.35-2.61h0Z"/><path class="cls-3" d="M194,146a24.31,24.31,0,0,1-8.73-4.68,19.1,19.1,0,0,1-3.45-3.62,14.2,14.2,0,0,1-2.15-4.51s0,0,0,0,0,0,0,0a20.81,20.81,0,0,0,2.51,4.22,25.14,25.14,0,0,0,3.3,3.62A24.17,24.17,0,0,0,194,146s0,0,0,0Z"/><path class="cls-3" d="M204.16,139.6a17.94,17.94,0,0,0,4.45-2.79c.66-.57,1.25-1.21,1.85-1.84s1.16-1.29,1.75-2h0s0,0,0,0a9.72,9.72,0,0,1-1.42,2.27,11.32,11.32,0,0,1-2,1.82,17.81,17.81,0,0,1-4.68,2.52s0,0,0,0A0,0,0,0,1,204.16,139.6Z"/><path class="cls-3" d="M157.52,131.78a13.35,13.35,0,0,1-1.56,4.45,21.24,21.24,0,0,1-2.72,3.89,16.77,16.77,0,0,1-3.56,3.16,10.69,10.69,0,0,1-4.44,1.68s0,0,0,0l0,0a14.5,14.5,0,0,0,4.18-2,23.16,23.16,0,0,0,3.54-3,21,21,0,0,0,2.82-3.73,13.38,13.38,0,0,0,1.7-4.35s0,0,0,0S157.52,131.76,157.52,131.78Z"/><path class="cls-3" d="M130.21,117a16.76,16.76,0,0,0-6.58,6.57,13.06,13.06,0,0,0-1.3,4.44,17,17,0,0,0,.13,4.67s0,0,0,0,0,0,0,0a12,12,0,0,1-.58-4.74,11.3,11.3,0,0,1,1.45-4.57,17,17,0,0,1,6.9-6.43s0,0,0,0S130.22,117,130.21,117Z"/><path class="cls-3" d="M159.55,130a66.06,66.06,0,0,0-9-4.92,40.36,40.36,0,0,0-4.71-1.74c-.39-.12-.81-.24-1.19-.33a9.9,9.9,0,0,0-1.11-.21,20.5,20.5,0,0,0-2.37-.16,26.74,26.74,0,0,0-4.81.54c-.79.14-1.56.32-2.29.51a18.74,18.74,0,0,0-2.11.65,8.79,8.79,0,0,0-3.62,2.2,28.18,28.18,0,0,0-3.13,3.91l-.39-.12a12.05,12.05,0,0,1,1.22-5.41,9.28,9.28,0,0,1,1.79-2.45,10.55,10.55,0,0,1,2.49-1.78,11,11,0,0,1,2.76-1,16,16,0,0,1,2.79-.4,30.61,30.61,0,0,1,5.5.2,20.63,20.63,0,0,1,2.75.49,10.43,10.43,0,0,1,1.38.43c.44.16.84.33,1.25.51a38.39,38.39,0,0,1,4.72,2.46,55.67,55.67,0,0,1,8.3,6.34Z"/><path class="cls-3" d="M158.06,129.12a10.85,10.85,0,0,1-1.51,5.24,12.74,12.74,0,0,1-3.79,4,21.49,21.49,0,0,1-21.21.82,14.51,14.51,0,0,1-4.23-3.64,12.6,12.6,0,0,1-2.36-5l.1,0a14.72,14.72,0,0,0,2.79,4.55,15.38,15.38,0,0,0,4.18,3.22,21.64,21.64,0,0,0,10.26,2.46,19.57,19.57,0,0,0,10.2-2.82,12.52,12.52,0,0,0,3.8-3.73,10.89,10.89,0,0,0,1.67-5.09Z"/><path class="cls-3" d="M156.61,119.52l-.17,2.07a6,6,0,0,1-.12,1,4.3,4.3,0,0,1-.4,1h0a4.21,4.21,0,0,1-.05-1.06,5.9,5.9,0,0,1,.23-1l.51-2h.05Z"/><path class="cls-3" d="M153.09,117.66l-.08,1.87a4.13,4.13,0,0,1-.08.93,3.14,3.14,0,0,1-.34.89s0,0,0,0h0a3.17,3.17,0,0,1-.1-1,5.61,5.61,0,0,1,.17-.91l.43-1.83h.05Z"/><path class="cls-3" d="M149.84,115.05a11.84,11.84,0,0,1,.27,2.07,4.19,4.19,0,0,1-.05,1.06,3,3,0,0,1-.42,1,0,0,0,0,1,0,0h0a5.23,5.23,0,0,1,0-1c0-.34.1-.67.15-1a10.76,10.76,0,0,0,.08-2h.05Z"/><path class="cls-3" d="M145.54,114.3l.18,2a5.81,5.81,0,0,1,.05,1,3.75,3.75,0,0,1-.23,1h0a4.14,4.14,0,0,1-.22-1,5.81,5.81,0,0,1,0-1l.17-2h0Z"/><path class="cls-3" d="M142,112.44a6.59,6.59,0,0,0-.49,2.87c0,.49.09,1,.13,1.44s.09,1,.12,1.47a0,0,0,0,1,0,0h0a4,4,0,0,1-.57-1.42,5.53,5.53,0,0,1,0-1.52,6.82,6.82,0,0,1,.84-2.88h0Z"/></g><g id="eyebrows"><path class="cls-7" d="M176.25,100.85c1.88-1,3.46-.39,5.31-.2,5.09.75,9.88,2.63,14.66,4.53,6.48,2.42,13.35,4.7,17.76,10.39-6.78-.27-12.81-4.16-19.24-6.09-4.77-1.38-9.84-2.2-14.47-4.13-1.69-.78-3.36-1.08-4.47-2.9l.45-1.6Z"/><path class="cls-7" d="M160.36,115.08c-9.7-7.11-22.27-17.51-34.53-10.55a11.76,11.76,0,0,1,8.8-6.61c11.3-1.84,22.38,6.74,25.73,17.16Z"/></g></g><rect class="cls-8" width="291" height="673" rx="12"/></svg>