<svg id="artwork" xmlns="http://www.w3.org/2000/svg" viewBox="0 0 291 673"><defs><style>.cls-1{fill:#d9cec5;}.cls-2{fill:#647d55;}.cls-3,.cls-4{fill:#2d2d2d;}.cls-4{fill-rule:evenodd;}.cls-5{fill:none;stroke:#2d2d2d;stroke-miterlimit:10;}.cls-6{fill:#f2eae4;}.cls-7{fill:#36302c;}</style></defs><g id="eyes_thinking5"><g id="white"><path class="cls-1" d="M203.15,122.32c7.42,5.22,5.77,17.53-3.14,20-6.57,1.8-14.12.79-17.68-5.26-2.76-4.7-.09-11.13,5.7-15.76C192.46,117.74,198,118.69,203.15,122.32Z"/><path class="cls-1" d="M137.54,120.87c-.41.19-.49,1.86-.84,2.08a10,10,0,0,0-3.81,4.92c-1.6,4.16-3.33,8.28,3.16,12.93,3.64,2.6,10.42,2.81,14.18.5,7.72-4.75,9.48-9.74,5.34-14.29a43.89,43.89,0,0,0-5.28-5.4C147.5,119.31,141.12,119.25,137.54,120.87Z"/></g><g id="iris"><path class="cls-2" d="M139.62,121.36c1.86-.21,4.53.47,5.16,2.67,1,3.65-4.79,8.12-8.23,7.14a3.69,3.69,0,0,1-2.25-2.82C133.39,124.64,136.25,121.75,139.62,121.36Z"/><path class="cls-2" d="M190.54,120.83c1.86-.2,4.52.5,5.13,2.71,1,3.65-4.85,8.08-8.28,7.07a3.66,3.66,0,0,1-2.22-2.84C184.28,124.05,187.17,121.19,190.54,120.83Z"/></g><g id="iris_outline"><path class="cls-3" d="M141.2,128.45a17.52,17.52,0,0,1-2.3-1.89c-.11-.12-.41-.42-.51-.55s-.2-.23-.07-.2c-.06,0,.25.25.31.31a18,18,0,0,1,2.57,2.33Z"/><path class="cls-3" d="M138.06,130.35a27.16,27.16,0,0,1,.8-3.79,11,11,0,0,1-.8,3.79Z"/><path class="cls-3" d="M135.89,129.48a14.07,14.07,0,0,1,2.54-3l-.05,0v0l.1-.1c-.56,1.25-1.79,2.09-2.58,3.11Z"/><path class="cls-3" d="M143.43,125.65a14.37,14.37,0,0,1-3.93,0l0,0v0h-.15c1.32-.38,2.75,0,4,0Z"/><path class="cls-3" d="M134,125.42c1.5.32,3.18-.4,4.57.45-1.44-.32-3.16,0-4.57-.45Z"/><path class="cls-3" d="M137.37,120.71a18.9,18.9,0,0,1,1.22,3.75c0,.14.15.47,0,.58-.59-1.37-.75-3-1.26-4.33Z"/><path class="cls-3" d="M142.77,121.73a25,25,0,0,1-2.6,3.44,16.47,16.47,0,0,1,2.6-3.44Z"/><path class="cls-3" d="M137,122.45c-4.11,2.54-2.83,10.61,2.77,7.87,2.7-1.25,5.83-4.69,3.59-7.51a6,6,0,0,0-2.89-1.58v-.1c7.2.6,4.91,8.12-.37,10-6.56,2.79-7.94-6.35-3.11-8.65Z"/><path class="cls-3" d="M191.54,129.27a28,28,0,0,1-1.54-3.92,2.65,2.65,0,0,1-.12-.57,28.32,28.32,0,0,1,1.66,4.49Z"/><path class="cls-3" d="M188.42,130.34A45.05,45.05,0,0,1,189.8,126a14.38,14.38,0,0,1-1.38,4.31Z"/><path class="cls-3" d="M186.57,128.8a27.88,27.88,0,0,1,3.49-3.65c-.88,1.46-2.42,2.44-3.49,3.65Z"/><path class="cls-3" d="M186.09,124.83c1.11.29,2.41-.26,3.4.5a23.81,23.81,0,0,1-3.4-.5Z"/><path class="cls-3" d="M188.29,120.15a18.39,18.39,0,0,1,1.2,3.77c0,.14.14.47,0,.57-.58-1.37-.73-3-1.23-4.34Z"/><path class="cls-3" d="M194.29,125.6c-1.36-.15-2.9.09-4.14-.52a34.68,34.68,0,0,1,4.14.52Z"/><path class="cls-3" d="M193.69,121.21a23.87,23.87,0,0,1-2.64,3.43,17.22,17.22,0,0,1,2.64-3.43Z"/><path class="cls-3" d="M187.88,121.89c-4.36,2.75-2.67,10.93,3.09,7.71,2.57-1.25,6.08-5.3,2.85-7.63a8.32,8.32,0,0,0-3.28-1.09v-.1c7.81-.38,6.51,7.19.81,9.6-6.53,3.22-8.66-5.56-3.52-8.58l0,.09Z"/></g><g id="pupil"><path class="cls-4" d="M138.47,125.5l1.56-.82a1.85,1.85,0,0,1-1.07,2.1,1.4,1.4,0,0,1-2.05-.46,1.86,1.86,0,0,1,1.06-2.1,2,2,0,0,1,.81-.24Z"/><path class="cls-4" d="M189.35,125l1.57-.81a1.85,1.85,0,0,1-1.08,2.1c-.86.44-1.79.23-2.05-.48a1.84,1.84,0,0,1,1.08-2.09,1.87,1.87,0,0,1,.8-.23Z"/><path class="cls-4" d="M138.47,125.5l1.56-.82a1.85,1.85,0,0,1-1.07,2.1,1.4,1.4,0,0,1-2.05-.46,1.86,1.86,0,0,1,1.06-2.1,2,2,0,0,1,.81-.24Z"/><path class="cls-4" d="M189.35,125l1.57-.81a1.85,1.85,0,0,1-1.08,2.1c-.86.44-1.79.23-2.05-.48a1.84,1.84,0,0,1,1.08-2.09,1.87,1.87,0,0,1,.8-.23Z"/><path class="cls-5" d="M138.47,125.5l1.56-.82a1.85,1.85,0,0,1-1.07,2.1,1.4,1.4,0,0,1-2.05-.46,1.86,1.86,0,0,1,1.06-2.1,2,2,0,0,1,.81-.24Z"/><path class="cls-5" d="M189.35,125l1.57-.81a1.85,1.85,0,0,1-1.08,2.1c-.86.44-1.79.23-2.05-.48a1.84,1.84,0,0,1,1.08-2.09,1.87,1.87,0,0,1,.8-.23Z"/></g><g id="spec"><ellipse class="cls-6" cx="142.76" cy="122.65" rx="1.51" ry="1.18" transform="translate(-45.37 128.38) rotate(-42.41)"/><ellipse class="cls-6" cx="192.93" cy="121.72" rx="1.51" ry="1.18" transform="translate(-31.92 160.2) rotate(-41.96)"/></g><g id="outline"><path class="cls-3" d="M179.29,133.14a14.67,14.67,0,0,0,2.59,6.24,20.05,20.05,0,0,0,2.24,2.54,13.42,13.42,0,0,0,1.25,1.13c.22.19.44.37.67.54s.47.48.64.28h0l0,0c0,.18-.3.14-.42.07l-.39-.2c-.26-.13-.5-.29-.74-.44a13.07,13.07,0,0,1-1.39-1.06,12.66,12.66,0,0,1-2.23-2.67,15,15,0,0,1-2.31-6.47l0,0Z"/><path class="cls-3" d="M127.21,136.09a15.3,15.3,0,0,1,1-7.38,13.06,13.06,0,0,1,1.85-3.3,11.37,11.37,0,0,1,2.77-2.55,0,0,0,0,1,0,0s0,0,0,0a21.31,21.31,0,0,0-2.4,2.82,19.28,19.28,0,0,0-1.88,3.15,15,15,0,0,0-1.34,7.22s0,0,0,0Z"/><path class="cls-3" d="M148.53,145.68a9.72,9.72,0,0,0,4.58-1.73,12.94,12.94,0,0,0,3.39-3.53,22.5,22.5,0,0,0,2.13-4.42c.6-1.54,1.05-3.13,1.56-4.72l0,0a0,0,0,0,1,0,0,27.64,27.64,0,0,1-1.14,4.88,17.34,17.34,0,0,1-2.27,4.48,13.1,13.1,0,0,1-3.6,3.48,9.71,9.71,0,0,1-4.7,1.6,0,0,0,0,1,0,0S148.51,145.68,148.53,145.68Z"/><path class="cls-3" d="M204.54,120.15a26.82,26.82,0,0,1,5,6.65,18,18,0,0,1,1.62,3.87,10.21,10.21,0,0,1,.34,4.18s0,0,0,0a0,0,0,0,1,0,0,15,15,0,0,0-.77-4,27.14,27.14,0,0,0-1.5-3.83,26.65,26.65,0,0,0-4.69-6.79,0,0,0,0,1,0,0S204.53,120.14,204.54,120.15Z"/><path class="cls-3" d="M180.92,131.16a22.31,22.31,0,0,1,5.08-9.1,11.54,11.54,0,0,1,4.32-3.28,9.38,9.38,0,0,1,1.36-.32c.44-.08.88-.15,1.32-.2a16.3,16.3,0,0,1,2.71-.12,12.21,12.21,0,0,1,5.36,1.43,14.31,14.31,0,0,1,4.22,3.5,13.79,13.79,0,0,1,2.62,4.8,8.67,8.67,0,0,1-.13,5.36l-.19,0a10.45,10.45,0,0,0-1-4.83,15.27,15.27,0,0,0-2.8-4,20.28,20.28,0,0,0-3.71-3.11,10.65,10.65,0,0,0-4.48-1.55,16.8,16.8,0,0,0-2.46,0c-.42,0-.83.07-1.25.12a8.49,8.49,0,0,0-1.18.2,10.78,10.78,0,0,0-4,2.71,22.4,22.4,0,0,0-5.59,8.47Z"/><path class="cls-3" d="M181.66,136.27a15.73,15.73,0,0,0,6.71,5.41,15.35,15.35,0,0,0,8.46,1,14.41,14.41,0,0,0,7.46-3.84,15.6,15.6,0,0,0,4.19-7.41l.1,0a13.13,13.13,0,0,1-3.58,8.1,13.6,13.6,0,0,1-8.05,3.92,15.62,15.62,0,0,1-15.37-7.13Z"/><path class="cls-3" d="M157.61,130.33a22.74,22.74,0,0,0-6.87-7.53,11.21,11.21,0,0,0-4.4-2.1,7.64,7.64,0,0,0-1.19,0c-.43,0-.85,0-1.27.06a15.42,15.42,0,0,0-2.45.38,10.38,10.38,0,0,0-4.24,2.17A19.62,19.62,0,0,0,134,126.9a14.86,14.86,0,0,0-2.2,4.35,10.18,10.18,0,0,0-.25,4.95l-.19.07a8.6,8.6,0,0,1-.94-5.3,13.68,13.68,0,0,1,1.9-5.16,14.42,14.42,0,0,1,3.7-4.09,12.4,12.4,0,0,1,5.13-2.17,16.59,16.59,0,0,1,2.71-.27c.45,0,.89,0,1.34,0a8,8,0,0,1,1.4.12,11.87,11.87,0,0,1,4.79,2.61,22.38,22.38,0,0,1,6.45,8.23Z"/><path class="cls-3" d="M131.55,136a15.8,15.8,0,0,0,6.71,5.41,15.35,15.35,0,0,0,8.46,1,14.41,14.41,0,0,0,7.46-3.84,15.6,15.6,0,0,0,4.19-7.41l.1,0a13.13,13.13,0,0,1-3.58,8.1,13.6,13.6,0,0,1-8,3.92A15.64,15.64,0,0,1,131.46,136Z"/><path class="cls-3" d="M209.34,141.07c-.32-.28-.64-.52-1-.75s-.37-.16-.46-.33a1.38,1.38,0,0,1-.15-.72l.06-.08a1,1,0,0,1,.77.07c.2.1.28.34.38.53a3.53,3.53,0,0,1,.43,1.24Z"/><path class="cls-3" d="M207.07,144a6.67,6.67,0,0,1-1.7-.92,2.22,2.22,0,0,1-.74-.65,1.71,1.71,0,0,1-.22-1l.08-.06a2.28,2.28,0,0,1,.91.45,3,3,0,0,1,.53.72,15.48,15.48,0,0,0,1.2,1.41Z"/><path class="cls-3" d="M203.64,147a9.51,9.51,0,0,1-1.56-1.67,3,3,0,0,1-.61-1,2.2,2.2,0,0,1,0-1.22l.09,0a3.12,3.12,0,0,1,.82.85,4.18,4.18,0,0,1,.4,1c.27.67.59,1.33.94,2Z"/><path class="cls-3" d="M138.82,145.59a10.8,10.8,0,0,0,.14-1.2c0-.19-.07-.39,0-.56a1.3,1.3,0,0,1,.53-.51h.09a1,1,0,0,1,.36.69c0,.22-.14.41-.25.6a3.51,3.51,0,0,1-.81,1Z"/><path class="cls-3" d="M135.08,145.32a6.48,6.48,0,0,1-.14-1.92,2.23,2.23,0,0,1,.16-1,1.68,1.68,0,0,1,.76-.73l.09,0a2.26,2.26,0,0,1,.1,1,3,3,0,0,1-.32.82,13.73,13.73,0,0,0-.55,1.75Z"/><path class="cls-3" d="M130.68,144.09a9.42,9.42,0,0,1,.59-2.2,3.06,3.06,0,0,1,.51-1,2.23,2.23,0,0,1,1-.65l.08.06a2.94,2.94,0,0,1-.28,1.14,3.83,3.83,0,0,1-.64.87,20.37,20.37,0,0,0-1.19,1.86Z"/></g><g id="eyebrows"><path class="cls-7" d="M176,113.2c.07-2.37,1.81-3.71,3.48-5a27.51,27.51,0,0,1,16.73-4.91c5.91,0,12.25,2.75,15.83,7.71a10.74,10.74,0,0,1,1.72,4.22,1.32,1.32,0,0,1-.19.84,3.22,3.22,0,0,1-1,1,3.25,3.25,0,0,1-1.53-.22,1.11,1.11,0,0,1-.6-.43c-.64-1-1.3-2-2-2.85-5.76-7.7-18.65-5.16-25.79-.67-1.44.9-2.59,2-4.4,2.15L176,113.2Z"/><path class="cls-7" d="M159.07,116c-2-.38-2.89-1.5-4.4-2.52a27.31,27.31,0,0,0-4.22-2.39c-5.78-2.74-13.08-3.22-18.64.21-2.07,1.3-3.48,3.39-4.94,5.33-.48.51-.65,1.21-1.42,1.44a4.37,4.37,0,0,1-1.4.16,2.14,2.14,0,0,1-1.11-2,12.07,12.07,0,0,1,1.91-4.15,20.93,20.93,0,0,1,16-8.56c6.69-.25,13.57,1.83,18.46,6.5a5.63,5.63,0,0,1,2.17,4.28l-2.4,1.72Z"/></g></g></svg>