<svg id="artwork" xmlns="http://www.w3.org/2000/svg" viewBox="0 0 291 673"><defs><style>.cls-1{fill:#d9cec5;}.cls-2{fill:#c9b29d;}.cls-2,.cls-5{fill-rule:evenodd;}.cls-3{fill:#647d55;}.cls-4,.cls-5{fill:#2d2d2d;}.cls-6{fill:none;stroke:#2d2d2d;stroke-miterlimit:10;}.cls-7{fill:#f2eae4;}.cls-8{fill:#36302c;}</style></defs><g id="eyes_sad4"><g id="white"><path class="cls-1" d="M138.85,117.73a32.47,32.47,0,0,0-4.53,1.63c-2.6,2-5.62,3.1-6.47,5.42-2.2,6.06,1.18,11.66,1.18,11.66s10.11,6.23,18.55,5.13c4.3-.56,11.61-5.76,11.61-5.76s1.88-9.8-1-13a16.41,16.41,0,0,0-8.91-5.24A24.48,24.48,0,0,0,138.85,117.73Z"/><path class="cls-1" d="M203.31,117.54a6.88,6.88,0,0,0,1.54.49c2.78.48,4.92,3.16,6.19,5.27a11.28,11.28,0,0,1,.47,10.56,8.5,8.5,0,0,1-2.36,2.63c-2.65,1.33-10.08,4.56-16.84,3.68-4.28-.56-11-3.5-12.76-6.72-1.91-3.51-2.32-11.84.52-15,2.29-2.53,10.48-4.3,14.1-3.9C198.37,115,199.15,115.63,203.31,117.54Z"/></g><g id="eyelids"><path class="cls-2" d="M178.26,122.75s9.13-2.25,10.67-2.4a57.43,57.43,0,0,1,15.11.3c4,1.3,7.75,4.18,7.65,3.7-.29-1.48-2-3.07-3-4.1a13.84,13.84,0,0,0-6.34-3.6c-8.36-2-14.57-3.22-21.65,1C179.85,118.14,178.26,122.75,178.26,122.75Z"/><path class="cls-2" d="M127.58,125.87s6.77-2.64,9.75-3a55.91,55.91,0,0,1,14.5-.25c.73.11,6.86,1.54,6.7,1.07-.49-1.43-.47-2.41-1.62-3.3C155,118.89,149.2,117,146.82,117c-8.1.28-11.16,1.07-17.65,6.22C128.4,123.87,126.81,125.87,127.58,125.87Z"/></g><g id="iris"><path class="cls-3" d="M143.16,141.82a9.87,9.87,0,0,1-7.16-6c-1.78-5,7.12-8.74,12.51-6.22a8.06,8.06,0,0,1,3.75,4.74C153.85,139.31,148.39,142.6,143.16,141.82Z"/><path class="cls-3" d="M201,139c-2.15,1.58-7,1.81-10.53.4-5.83-2.34-3.78-10.54,1.87-12.27a9.84,9.84,0,0,1,6.39.72C204.44,130.32,204.83,136.12,201,139Z"/></g><g id="iris_outline"><path class="cls-4" d="M136.79,134.57a54.45,54.45,0,0,1,7.52,1.29c0,.06,0,0-.05,0v0c-2.47-.41-5.09-.67-7.47-1.3Z"/><path class="cls-4" d="M138.68,129.49l3.08,2.25a32.64,32.64,0,0,1,3.06,2.26,38.75,38.75,0,0,1-6.14-4.51Z"/><path class="cls-4" d="M150.92,131.57a38.57,38.57,0,0,1-5.1,3.24l0,0h.09s0,0-.17.09c1.48-1.45,3.61-2.09,5.2-3.28Z"/><path class="cls-4" d="M147.25,129.51c-1.08,1.38-.76,3.7-2.43,4.63,1.23-1.24,1.28-3.37,2.43-4.63Z"/><path class="cls-4" d="M153.25,136.44A43.6,43.6,0,0,1,147,135.1c-.27-.08-.69-.13-.86-.34,2.36.37,4.82,1.28,7.14,1.68Z"/><path class="cls-4" d="M140.56,140.15a34.85,34.85,0,0,1,3.66-4.23,33.56,33.56,0,0,1-3.66,4.23Z"/><path class="cls-4" d="M149,141c-1.07-1.61-2.69-2.94-3.67-4.62A22.41,22.41,0,0,1,149,141Z"/><path class="cls-4" d="M147.09,141.54c6.71-1.43,6.75-8.17,1.19-11.23a10.16,10.16,0,0,0-9.8.27c-3,2.07-2,6.41.43,8.58a9.27,9.27,0,0,0,4.63,2.32v.1c-7.47-.11-11.85-10.79-3-12.92,4.48-1.09,9.87.65,11.75,5.1,1.73,4-1.29,7.25-5.17,7.88l0-.1Z"/><path class="cls-4" d="M191.8,139.56a47.52,47.52,0,0,1,2.12-5.93s.21-.49.21-.28h0c0-.08,0,.07-.05.11l-.08.19a51.94,51.94,0,0,1-2.18,5.91Z"/><path class="cls-4" d="M186.76,132.53c2.26.65,5.63,1.33,7.75,2a41.58,41.58,0,0,1-7.75-2Z"/><path class="cls-4" d="M195.67,126.93a32.73,32.73,0,0,1,0,5.6h0l0-.07s0,.05,0,.16c-.47-1.86.17-3.85,0-5.68Z"/><path class="cls-4" d="M190.89,128.09c.3,1.85,2.24,3.34,1.83,5.31-.11-1.86-1.66-3.49-1.83-5.31Z"/><path class="cls-4" d="M200.9,129.22a17,17,0,0,1-5.05,3.09c.44-.22.79-.61,1.23-.82a27.68,27.68,0,0,0,3.82-2.27Z"/><path class="cls-4" d="M198.24,139.7c0-.87-.89-1.37-1.4-2s-1.22-1.39-1.29-2.15c0,0,0,0,0,0s0,0,0,0v0s0,0,0,0c.36.75,1,1.33,1.42,2.06s1.41,1.31,1.25,2.12Z"/><path class="cls-4" d="M203,133.65a65,65,0,0,1-6.95.61,42.54,42.54,0,0,1,6.95-.61Z"/><path class="cls-4" d="M203,136.45c2.19-6-5.15-10-10.3-8.6-3.19.72-6.64,4.3-5.32,7.65,2.41,4.73,9.83,5.9,14.15,2.94l.07.08c-4.25,3.81-12.66,2.72-15.17-2.64-1.49-4,2.41-8,6.12-8.7s8.08.51,10.15,3.82a6.1,6.1,0,0,1,.39,5.48l-.09,0Z"/></g><g id="pupil"><path class="cls-5" d="M145.94,137.64l-.65,1.37a3.86,3.86,0,0,1-3.51-2.85,2.19,2.19,0,0,1,2.56-2.5,3.86,3.86,0,0,1,3.5,2.86,2.1,2.1,0,0,1-.14,1.25Z"/><path class="cls-5" d="M197.78,135.1l.56,1.42a5.07,5.07,0,0,1-5.2.67c-1.63-.77-2-2.34-.76-3.47a5,5,0,0,1,5.19-.67,2.83,2.83,0,0,1,1.15.92Z"/><path class="cls-5" d="M145.94,137.64l-.65,1.37a3.86,3.86,0,0,1-3.51-2.85,2.19,2.19,0,0,1,2.56-2.5,3.86,3.86,0,0,1,3.5,2.86,2.1,2.1,0,0,1-.14,1.25Z"/><path class="cls-5" d="M197.78,135.1l.56,1.42a5.07,5.07,0,0,1-5.2.67c-1.63-.77-2-2.34-.76-3.47a5,5,0,0,1,5.19-.67,2.83,2.83,0,0,1,1.15.92Z"/><path class="cls-6" d="M145.94,137.64l-.65,1.37a3.86,3.86,0,0,1-3.51-2.85,2.19,2.19,0,0,1,2.56-2.5,3.86,3.86,0,0,1,3.5,2.86,2.1,2.1,0,0,1-.14,1.25Z"/><path class="cls-6" d="M197.78,135.1l.56,1.42a5.07,5.07,0,0,1-5.2.67c-1.63-.77-2-2.34-.76-3.47a5,5,0,0,1,5.19-.67,2.83,2.83,0,0,1,1.15.92Z"/></g><g id="spec"><path class="cls-7" d="M148.6,133.9c-2.07,1.41.45,3.67,2.51,3.57a2.74,2.74,0,0,0,2.55-1.74c.49-2-3.19-3-5-1.88Z"/><ellipse class="cls-7" cx="201.32" cy="135.07" rx="2.13" ry="3.02" transform="translate(45.87 321.11) rotate(-83.98)"/><path class="cls-4" d="M175.86,97.81a3.57,3.57,0,0,1-.64-2.42,6,6,0,0,1,.7-2.48,4.07,4.07,0,0,1,1.83-2,3.22,3.22,0,0,1,1.36-.28,3.75,3.75,0,0,1,.67.11,5.46,5.46,0,0,1,.6.27l0,.1-.61.08c-.19,0-.37.1-.55.14a4.55,4.55,0,0,0-1,.46,5.92,5.92,0,0,0-1.61,1.48,5.76,5.76,0,0,0-.9,2.13,3.39,3.39,0,0,0,.23,2.3Z"/><path class="cls-4" d="M160.76,98.16a4.23,4.23,0,0,0,.11-2.28,4.49,4.49,0,0,0-1-1.95,6.94,6.94,0,0,0-1.74-1.27l-.47-.25-.51-.22q-.27-.07-.54-.18c-.19,0-.38-.1-.58-.16v-.1a4.86,4.86,0,0,1,.61-.19,6.33,6.33,0,0,1,.64-.06c.22,0,.43,0,.65.07l.63.18a4.31,4.31,0,0,1,2,1.69,4.85,4.85,0,0,1,.87,2.37,4.17,4.17,0,0,1-.5,2.39Z"/></g><g id="outline"><path class="cls-4" d="M133.27,144.17a29.48,29.48,0,0,1-4.4-3.57,17.42,17.42,0,0,1-1.91-2.12,14.29,14.29,0,0,1-1.47-2.43,0,0,0,0,1,0,0,0,0,0,0,1,0,0c.63.71,1.21,1.45,1.82,2.15s1.18,1.45,1.81,2.15a30.44,30.44,0,0,0,4.13,3.81,0,0,0,0,1,0,0S133.27,144.18,133.27,144.17Z"/><path class="cls-4" d="M204.78,145a18.74,18.74,0,0,0,7.29-5.18,22.16,22.16,0,0,0,2.55-3.68,23.68,23.68,0,0,0,1.85-4.1l0,0s0,0,0,0a14.57,14.57,0,0,1-1.46,4.33,16.44,16.44,0,0,1-2.69,3.71A18.89,18.89,0,0,1,204.8,145a0,0,0,0,1,0,0A0,0,0,0,1,204.8,145Z"/><path class="cls-4" d="M159.94,122.6a20.79,20.79,0,0,0-8.3-4.19,23.63,23.63,0,0,0-9.25-.34,31.12,31.12,0,0,0-8.77,2.92l-2.05,1.1-2,1.24-1.89,1.39-1.8,1.51-.07-.07,1.57-1.78,1.76-1.61,1.93-1.43,2-1.24a25.7,25.7,0,0,1,9.12-2.82,23.74,23.74,0,0,1,9.49.66,20.62,20.62,0,0,1,8.24,4.58Z"/><path class="cls-4" d="M127.84,136c2.66,1.16,5.29,2.39,8,3.45a26.19,26.19,0,0,0,8.35,2.07,17.83,17.83,0,0,0,8.3-1.75,43.68,43.68,0,0,0,7.38-4.49,0,0,0,0,1,.05,0s0,0,0,0a32.85,32.85,0,0,1-7.2,4.91,16.91,16.91,0,0,1-8.54,1.69,26.49,26.49,0,0,1-8.4-2.26c-2.68-1.12-5.29-2.4-7.92-3.61,0,0,0,0,0,0S127.82,136,127.84,136Z"/><path class="cls-4" d="M179.74,118.57a16.55,16.55,0,0,1,8.25-3.91,25.79,25.79,0,0,1,9.23.11,26.39,26.39,0,0,1,8.75,3.06,17.06,17.06,0,0,1,3.72,2.84,7.21,7.21,0,0,1,2.19,4.07l-.1,0a7.83,7.83,0,0,0-2.57-3.58,20.08,20.08,0,0,0-3.72-2.48,33.51,33.51,0,0,0-8.42-3.15,25.94,25.94,0,0,0-9-.4,16.44,16.44,0,0,0-8.26,3.5Z"/><path class="cls-4" d="M212,135.16c-2.6,1.25-5.18,2.55-7.85,3.7a25.86,25.86,0,0,1-8.41,2.33,16.48,16.48,0,0,1-8.63-1.66,15.66,15.66,0,0,1-1.92-1.07,15.2,15.2,0,0,1-1.82-1.22,33.32,33.32,0,0,1-3.34-2.81l.07-.08c1.24.76,2.4,1.61,3.65,2.3a20.26,20.26,0,0,0,1.87,1,18.57,18.57,0,0,0,1.91.92,18.2,18.2,0,0,0,8.16,1.77,25.91,25.91,0,0,0,8.28-2c2.69-1,5.33-2.21,8-3.33Z"/><path class="cls-4" d="M185,143.94a27.72,27.72,0,0,1-5.11-5.1,15.67,15.67,0,0,1-2-3.07,2.72,2.72,0,0,1-.17-2.05,1.78,1.78,0,0,1,.67-.81,1.14,1.14,0,0,1,1-.14l0,.1a1.18,1.18,0,0,0-1,1,2.38,2.38,0,0,0,.4,1.42c.58,1,1.13,2,1.77,3a32.49,32.49,0,0,0,4.53,5.49Z"/><path class="cls-4" d="M154,144.51c.79-.93,1.68-1.74,2.54-2.58s1.74-1.67,2.54-2.54a9.92,9.92,0,0,0,1.05-1.36,10.48,10.48,0,0,0,.69-1.49,2,2,0,0,0,0-1.45,1.43,1.43,0,0,0-1.16-1l0-.09a1.59,1.59,0,0,1,1.79.7,2.53,2.53,0,0,1,.31,2.06,5.06,5.06,0,0,1-.83,1.77,10.11,10.11,0,0,1-1.3,1.38c-.9.84-1.84,1.6-2.78,2.35s-1.92,1.46-2.8,2.28Z"/><path class="cls-4" d="M157.52,120.79a22.51,22.51,0,0,1,2.44,7.35,15,15,0,0,1,.25,3.91,12.92,12.92,0,0,1-.34,1.94,8.9,8.9,0,0,1-.69,1.84l-.1,0,.1-1.92c0-.63,0-1.26,0-1.88,0-1.25.06-2.51,0-3.77a25.49,25.49,0,0,0-1.74-7.4Z"/><path class="cls-4" d="M129.25,136.69a11,11,0,0,1-1.72-2.72,11.14,11.14,0,0,1-.85-3.15,9.76,9.76,0,0,1,0-3.28,9,9,0,0,1,1.24-3l.09,0c-.09,1.08-.25,2.11-.34,3.13a26.08,26.08,0,0,0-.22,3.06,11.25,11.25,0,0,0,.51,3,11.51,11.51,0,0,0,1.34,2.84Z"/><path class="cls-4" d="M179.82,118.63a24.48,24.48,0,0,0-1.25,4,18.91,18.91,0,0,0-.45,4.09,17.82,17.82,0,0,0,.6,4,14.72,14.72,0,0,0,.63,1.91l.42.95c.16.3.32.61.47.93l-.08.07c-.26-.24-.52-.49-.77-.75s-.44-.57-.66-.86a9.38,9.38,0,0,1-1-2,10.88,10.88,0,0,1-.45-4.31,17.42,17.42,0,0,1,.78-4.19,20.59,20.59,0,0,1,1.63-3.9Z"/><path class="cls-4" d="M209.8,136a8,8,0,0,0,1.78-2.69,9,9,0,0,0,.66-3.09,13.37,13.37,0,0,0-.4-3.1c-.1-.52-.24-1-.39-1.54s-.35-1-.53-1.55l.08-.06a6.56,6.56,0,0,1,1.08,1.32,7.4,7.4,0,0,1,.73,1.56,7.82,7.82,0,0,1,.23,3.43,9,9,0,0,1-1,3.25,8,8,0,0,1-2.15,2.55Z"/><path class="cls-4" d="M212,125.44a1.36,1.36,0,0,0-.52-.89,6.09,6.09,0,0,0-.87-.64c-.63-.38-1.29-.73-1.93-1.08a19.81,19.81,0,0,0-4.06-1.63,32.36,32.36,0,0,0-8.68-.91,56.59,56.59,0,0,0-8.73.71c-2.89.41-5.76,1-8.64,1.68l0-.09a40.39,40.39,0,0,1,8.51-2.57,38,38,0,0,1,8.9-.53,31.79,31.79,0,0,1,8.82,1.24,20.6,20.6,0,0,1,4.06,1.83c.64.39,1.27.75,1.89,1.17a7.29,7.29,0,0,1,.87.71,1.46,1.46,0,0,1,.51,1Z"/><path class="cls-4" d="M127.26,126.72a2.81,2.81,0,0,1,1.36-1.48,17.19,17.19,0,0,1,1.9-.67c1.27-.41,2.56-.76,3.86-1.08a54.52,54.52,0,0,1,7.94-1.29,44.18,44.18,0,0,1,8.05-.11c1.34.12,2.67.31,4,.56a37.11,37.11,0,0,1,3.9,1l0,.1c-1.34-.13-2.66-.28-4-.39s-2.64-.21-4-.26c-2.64-.12-5.28-.22-7.93-.09a58.08,58.08,0,0,0-7.88,1c-1.3.26-2.6.55-3.89.89a18.84,18.84,0,0,0-1.89.57,2.63,2.63,0,0,0-1.36,1.33Z"/></g><g id="eyebrows"><path class="cls-8" d="M125.44,114.73c6-1.94,12.29-3.92,17.71-7.14a18.17,18.17,0,0,0,4.93-4.65c2.24-3.63,5.18-6.38,9.54-7.49l.41.36a13.08,13.08,0,0,1-4.69,8.94l-2.07,1.5c-4.66,3.7-10.46,5.83-16.11,7.18-3.19.77-6.39,1.34-9.6,1.84l-.12-.54Z"/><path class="cls-8" d="M212.54,110.28c-7.23.87-14.66-.48-21.52-2.8a17.9,17.9,0,0,1-7.72-4.22c-2.17-2.16-4-5-4-8.15l.51-.22a50.26,50.26,0,0,0,7.62,4.69c2.57,1.32,5,3.3,7.59,4.55a71,71,0,0,0,8.49,3.42,53.16,53.16,0,0,0,9.06,2.17v.56Z"/></g></g></svg>