<svg id="artwork" xmlns="http://www.w3.org/2000/svg" viewBox="0 0 291 673"><defs><style>.cls-1{fill:#c9b29d;fill-rule:evenodd;}.cls-2{fill:#2d2d2d;}</style></defs><g id="mouth_neutral4"><g id="lip_colour" data-name="lip colour"><path class="cls-1" d="M153.86,188.92a11.94,11.94,0,0,0,4.19,3.77c2,1.2,9.32,1.07,12.15,1.15,6.71.19,9.74-.44,11.8-1.33,2.83-1.21,2.46-1.42,3.25-3.71.25-.7,3.94-.76,2.73-1.6-2.29-1.59-7.51-5.94-9.24-6.1-3-.29-6.16,1.15-9.33,1.41-4.14-.53-7.43-2.25-10.37-1.15-3.27,1.22-3.83,3.32-5.57,5.75C153,187.77,153.86,188.92,153.86,188.92Z"/></g><g id="outine"><path class="cls-2" d="M158.69,192.73a34,34,0,0,0,6.29.79c2.1.09,4.23.15,6.32.06s4.16-.52,6.25-.81,4.19-.63,6.33-.72l0,.1c-2,.62-4.09,1.18-6.18,1.61a33.27,33.27,0,0,1-6.39.62,61.57,61.57,0,0,1-6.39-.37,32.52,32.52,0,0,1-6.28-1.18Z"/><path class="cls-2" d="M188.33,187.77a35,35,0,0,0-3.89-3.2,38.7,38.7,0,0,0-4.19-2.75,2.44,2.44,0,0,0-1.11-.34,10,10,0,0,0-1.23-.07,18.93,18.93,0,0,0-2.48.18,40.82,40.82,0,0,0-4.9,1l-.6.17-.32.09c-.09,0-.18.08-.27,0l-.22-.05-1.23-.23c-.83-.15-1.65-.29-2.48-.42s-1.65-.24-2.47-.32c-.41,0-.81-.06-1.21-.07a7.7,7.7,0,0,0-1.15.11,9.12,9.12,0,0,0-4.23,2.17,29,29,0,0,0-3.35,3.71l-.08,0a19.36,19.36,0,0,1,3-4.17,9.18,9.18,0,0,1,4.51-2.64,8.45,8.45,0,0,1,1.35-.16,11.26,11.26,0,0,1,1.31.07c.86.09,1.7.22,2.53.38s1.67.33,2.49.51l1.24.29.09,0h0l.3-.08.62-.14a38.69,38.69,0,0,1,5-.85,19.86,19.86,0,0,1,2.56-.11,9.38,9.38,0,0,1,1.29.12,3.65,3.65,0,0,1,.67.14c.22.09.41.19.6.29a36.14,36.14,0,0,1,4.15,3,34.37,34.37,0,0,1,3.77,3.37Z"/><path class="cls-2" d="M149.5,187.71c7,.36,14,.61,21,.58,3.51,0,7-.19,10.5-.31a89.47,89.47,0,0,0,10.45-.9l0,.09A44.8,44.8,0,0,1,181.1,189c-3.52.25-7,.19-10.56.11-7-.15-14-.63-21-1.28Z"/></g></g></svg>