<svg id="artwork" xmlns="http://www.w3.org/2000/svg" viewBox="0 0 291 673"><defs><style>.cls-1{fill:#c9b29d;fill-rule:evenodd;}.cls-2{fill:#2d2d2d;}.cls-3{fill:none;}</style></defs><g id="mouth_sad2"><g id="lip_colour" data-name="lip colour"><path class="cls-1" d="M152.65,185.33c.83,1.48,3.69,5.44,6,5.65s7-1.58,9.87-1.37,7.5,1.5,9.57.45,5.82-3.28,6.44-5-4-4.31-7.06-4.61S167,182,167,182s-6.59-2.35-9.07-1.3a9,9,0,0,0-3.84,2.89A14.61,14.61,0,0,0,152.65,185.33Z"/></g><g id="outline"><path class="cls-2" d="M152.25,185.12c1.7-1.24,2.83-3.15,4.75-4.15,3-1.46,7.95-.31,10.21.4,8.54-2.5,12.2-3.32,18.88,3.52L186,185c-1.41-1-2.78-2-4.23-2.77-4.43-3-9.72-1.15-14.49-.06-3.79-1-8.52-2.61-11.82.35a34.53,34.53,0,0,1-3.18,2.72l-.06-.08Z"/><path class="cls-2" d="M191.47,187.51c-1.71-.91-3.39-2.19-5.32-2.51-4-.24-7.91.31-11.9.22-3.5-.06-8.45-.13-11.91,0-5.83-.06-12.07-.07-16.81,3.88l-.06-.07c4.21-4.62,11-5.05,16.87-4.8,3.45,0,8.43.25,11.93.39,3.95.19,8-.18,11.92.16,2,.39,3.6,1.7,5.34,2.68l-.06.09Z"/><path class="cls-2" d="M184.48,184.93a5.07,5.07,0,0,1-1.36,1.83c-1.66,1.54-3.42,3.13-5.69,3.73-3,.83-6-.71-9-.46-4.58.44-9.19,3.17-13.23-.69a6.91,6.91,0,0,1-2.4-3.88l.1,0a7.4,7.4,0,0,0,2.7,3.4c3.85,3.17,8.25.5,12.8.39,3.16-.15,6,1.5,8.93.82,2.51-.56,4.65-2.43,6.45-4.22a2.41,2.41,0,0,0,.6-.91Z"/></g></g><rect class="cls-3" width="291" height="673" rx="12"/></svg>