<svg id="artwork" xmlns="http://www.w3.org/2000/svg" viewBox="0 0 233 650"><defs><style>.cls-1{fill:#d9cec5;}.cls-2{fill:#824413;}.cls-3,.cls-4{fill:#2d2d2d;}.cls-4{fill-rule:evenodd;}.cls-5{fill:none;stroke:#2d2d2d;stroke-miterlimit:10;}.cls-6{fill:#f2eae4;}.cls-7{fill:#3a120e;}</style></defs><g id="eyes_right2"><g id="white"><path class="cls-1" d="M78.81,125.28a51.16,51.16,0,0,0-11,3.27c-11.64,5.39,6.92,13.4,13.38,12.89,4-.31,9.54-2.07,12.19-5.35,2.29-2.84,3.77-11.13-.19-11.28C89.43,124.67,85.2,124.18,78.81,125.28Z"/><path class="cls-1" d="M130.77,123.4c-5.09,2-11.14,6.72-9,11,3.89,7.78,14,8.32,21.36,6.13,5-1.5,7.51-5.12,6.45-9.27a10.18,10.18,0,0,0-3.25-4.77,15.71,15.71,0,0,0-4.73-3,15.46,15.46,0,0,0-9.81-.4C131.43,123.16,131.1,123.27,130.77,123.4Z"/></g><g id="iris"><path class="cls-2" d="M92.42,137.13c3.11-1.39,4-10.08,3-12.7-2.87-.21-7.2.51-10.1.61-2.21,2-.9,6.22,0,7.92C86.81,135.6,92,137.34,92.42,137.13Z"/><path class="cls-2" d="M150.64,129.79c-.29-1.63-1.63-4.57-3.67-5.54-2.76-1.3-4.78,2.13-5.11,4.35-.35,2.39,1.28,7.38,4.73,7.88,1.63,1.18,3-1.88,3.57-3.08A7.25,7.25,0,0,0,150.64,129.79Z"/></g><g id="iris_outline"><path class="cls-3" d="M88.88,135.51a59.93,59.93,0,0,1,3.52-5l.12-.17s.13-.15.06-.08h0c0-.07.11-.05,0,.12a38.64,38.64,0,0,1-3.68,5.14Z"/><path class="cls-3" d="M93.2,125.46c-.94,1-2,2.06-2.85,3.08.49-1.35,1.88-2.17,2.85-3.08Z"/><path class="cls-3" d="M87.54,125.06a11.89,11.89,0,0,1,3,1.27,5,5,0,0,1-1.55-.54s-1.55-.7-1.48-.73Z"/><path class="cls-3" d="M86.59,132.72a34.64,34.64,0,0,1,4.32-3.6,34.36,34.36,0,0,1-4.32,3.6Z"/><path class="cls-3" d="M84.68,128.62c1.1,0,2.18-.47,3.29-.54s2.3-.17,3.33-.25a12.7,12.7,0,0,1-3.31.45c-1.07,0-2.3.47-3.31.34Z"/><path class="cls-3" d="M145.68,135.86c.88-1.5,2.19-3.09,3.12-4.37,0,0,0,0,0,.06a2.53,2.53,0,0,1-.12.23,26.7,26.7,0,0,1-3,4.08Z"/><path class="cls-3" d="M145.59,124a11.69,11.69,0,0,1,3,1.27,4.84,4.84,0,0,1-1.55-.54s-1.55-.7-1.48-.73Z"/><path class="cls-3" d="M142.84,132.46a35.89,35.89,0,0,1,5.37-1.91,34.67,34.67,0,0,1-5.37,1.91Z"/><path class="cls-3" d="M142.08,126.56c1,.35,2.21.31,3.27.62s2.21.64,3.21.91a12.2,12.2,0,0,1-3.25-.71c-1-.37-2.33-.35-3.23-.82Z"/><path class="cls-3" d="M91.87,136.78c-5.2-.22-10.56-6.58-7.19-11.5l.09,0c-1.16,5.54,1.85,10,7.1,11.46Z"/><path class="cls-3" d="M148.39,136.71c-7.2,1.43-9.63-11.59-2.83-13.43l0,.09c-5,3.28-4,13.6,2.8,13.34Z"/></g><g id="pupil"><path class="cls-4" d="M93.77,128.56a.77.77,0,0,0-.66-1.15,7.59,7.59,0,0,0-2.21.42c0-1.93.53-3.06,1.28-3.53,2-1.25,5.34,1.91,3.21,6.39-.76,1.6-2.2,1.95-3.26.8h0C92.68,130.52,93.27,129.56,93.77,128.56Z"/><path class="cls-4" d="M148.39,131.08a.77.77,0,0,0-.66-1.15,7.45,7.45,0,0,0-2.2.41c0-1.93.52-3,1.28-3.53,2-1.24,5.33,1.92,3.2,6.4-.75,1.59-2.19,1.95-3.25.8h0C147.31,133,147.89,132.08,148.39,131.08Z"/><path class="cls-4" d="M93.77,128.56a.77.77,0,0,0-.66-1.15,7.59,7.59,0,0,0-2.21.42c0-1.93.53-3.06,1.28-3.53,2-1.25,5.34,1.91,3.21,6.39-.76,1.6-2.2,1.95-3.26.8h0C92.68,130.52,93.27,129.56,93.77,128.56Z"/><path class="cls-4" d="M148.39,131.08a.77.77,0,0,0-.66-1.15,7.45,7.45,0,0,0-2.2.41c0-1.93.52-3,1.28-3.53,2-1.24,5.33,1.92,3.2,6.4-.75,1.59-2.19,1.95-3.25.8h0C147.31,133,147.89,132.08,148.39,131.08Z"/><path class="cls-5" d="M93.77,128.56a.77.77,0,0,0-.66-1.15,7.59,7.59,0,0,0-2.21.42c0-1.93.53-3.06,1.28-3.53,2-1.25,5.34,1.91,3.21,6.39-.76,1.6-2.2,1.95-3.26.8h0C92.68,130.52,93.27,129.56,93.77,128.56Z"/><path class="cls-5" d="M148.39,131.08a.77.77,0,0,0-.66-1.15,7.45,7.45,0,0,0-2.2.41c0-1.93.52-3,1.28-3.53,2-1.24,5.33,1.92,3.2,6.4-.75,1.59-2.19,1.95-3.25.8h0C147.31,133,147.89,132.08,148.39,131.08Z"/></g><g id="spec"><path class="cls-6" d="M83.13,127.83a1.47,1.47,0,0,0-.7,1.26c0,3.26,5.77.58,3.16-1.21A2.37,2.37,0,0,0,83.13,127.83Z"/><path class="cls-6" d="M142.63,127.06a2.08,2.08,0,0,0-1.85.83,1.66,1.66,0,0,0,1.3,2.37,1.71,1.71,0,0,0,1.93-2.44A1.65,1.65,0,0,0,142.63,127.06Z"/></g><g id="outline"><path class="cls-3" d="M98,124.06c-.77.12-1.54.31-2.31.43s-1.53.21-2.29.32c-1.53.21-3.06.4-4.59.52s-3.07.2-4.61.27a30.62,30.62,0,0,0-4.5.44A73.2,73.2,0,0,0,71,128.58a23.5,23.5,0,0,0-4,1.74c-1.31.72-2.68,1.51-4.11,2.18l-.09-.13A32.69,32.69,0,0,1,66.05,129a14.19,14.19,0,0,1,4.16-2.56,48,48,0,0,1,9.16-2.24c1.55-.27,3.15-.47,4.69-.61s3.09-.27,4.64-.3,3.1,0,4.65.12c.78.06,1.56.12,2.33.22s1.55.3,2.32.45Z"/><path class="cls-3" d="M63.88,133.7a21,21,0,0,0,9.37,6.14,23.5,23.5,0,0,0,11.09,1,14,14,0,0,0,9.33-5.54,11.8,11.8,0,0,0,2-5.2,17.65,17.65,0,0,0-.23-5.66h0a19.35,19.35,0,0,1,.44,5.68,12.37,12.37,0,0,1-1.75,5.45,11.53,11.53,0,0,1-4.18,4,16.44,16.44,0,0,1-5.46,1.9,21.46,21.46,0,0,1-11.36-1.16,22.11,22.11,0,0,1-9.22-6.6Z"/><path class="cls-3" d="M85.42,117a14.15,14.15,0,0,1,.36,2.6,5.29,5.29,0,0,1,0,1.32,4.13,4.13,0,0,1-.42,1.27h0a9.62,9.62,0,0,1,0-1.31c0-.43.09-.85.13-1.28a13.09,13.09,0,0,0,0-2.58h0A0,0,0,0,1,85.42,117Z"/><path class="cls-3" d="M81.26,118.18l.34,1.65a3.8,3.8,0,0,1,.14.82,2.92,2.92,0,0,1-.14.86h0a2.51,2.51,0,0,1-.31-.81,4.57,4.57,0,0,1,0-.83v-1.68h.05Z"/><path class="cls-3" d="M75.49,119a12.63,12.63,0,0,1,.78,1.9,3.88,3.88,0,0,1,.22,1,2.84,2.84,0,0,1-.13,1h0a5.54,5.54,0,0,1-.31-1,8.36,8.36,0,0,1-.12-1,11.41,11.41,0,0,0-.44-2l0,0Z"/><path class="cls-3" d="M69.59,120.72l.89,2.1a8,8,0,0,1,.41,1.06A4.83,4.83,0,0,1,71,125h0a5.15,5.15,0,0,1-.58-1,6.9,6.9,0,0,1-.31-1.1l-.56-2.21h0S69.59,120.72,69.59,120.72Z"/><path class="cls-3" d="M63.54,122.82a17,17,0,0,0,1.25,2.49c.24.4.52.77.75,1.17s.44.81.62,1.27l0,0h0a4.65,4.65,0,0,1-1-1,6.58,6.58,0,0,1-.68-1.25,17.22,17.22,0,0,1-.95-2.66s0,0,0,0Z"/><path class="cls-3" d="M82.12,144.4a22.72,22.72,0,0,0,7.57-4.1,18.7,18.7,0,0,0,2.9-3.13,19.36,19.36,0,0,0,2.15-3.73h0s0,0,0,0a12.41,12.41,0,0,1-1.79,4,14.56,14.56,0,0,1-3.06,3.16,23.06,23.06,0,0,1-7.8,3.82s0,0,0,0S82.11,144.4,82.12,144.4Z"/><path class="cls-3" d="M71.52,141.61A22.61,22.61,0,0,1,67.36,139a13.78,13.78,0,0,1-1.82-1.68,10.55,10.55,0,0,1-1.4-2s0,0,0,0h0L65.91,137c.57.57,1.11,1.17,1.71,1.71a21.79,21.79,0,0,0,3.92,2.89,0,0,0,0,1,0,0Z"/><path class="cls-3" d="M122.62,136.35a12.83,12.83,0,0,0,1.53,4.11A20.13,20.13,0,0,0,126.7,144,20.39,20.39,0,0,0,130,147a13.18,13.18,0,0,0,3.86,2s0,0,0,0,0,0,0,0a9.76,9.76,0,0,1-4.14-1.66,15.32,15.32,0,0,1-3.26-3.07,19.93,19.93,0,0,1-2.45-3.72,13.44,13.44,0,0,1-1.38-4.21s0,0,0,0Z"/><path class="cls-3" d="M147.37,120.12a15.82,15.82,0,0,1,6.38,6.26,10.91,10.91,0,0,1,1.29,4.36,11.94,11.94,0,0,1-.55,4.49l0,0,0,0a18.37,18.37,0,0,0,.11-4.44,13.26,13.26,0,0,0-1.16-4.22,15.63,15.63,0,0,0-6-6.4,0,0,0,0,1,0,0S147.36,120.11,147.37,120.12Z"/><path class="cls-3" d="M120.49,130.54a56.84,56.84,0,0,1,7.22-6.11,22.22,22.22,0,0,1,4.33-2.34,20.85,20.85,0,0,1,4.87-1.18,22.1,22.1,0,0,1,5.09-.17,12.49,12.49,0,0,1,2.63.56,9.61,9.61,0,0,1,1.29.55l.63.36.52.35a11.16,11.16,0,0,1,3.67,3.9,7,7,0,0,1,.28,5.22h-.4a9.52,9.52,0,0,0-2.2-3.65,14,14,0,0,0-3.41-2l-.5-.24-.4-.18c-.28-.12-.56-.24-.86-.34-.59-.23-1.24-.4-1.89-.58a18.28,18.28,0,0,0-4.23-.54,19,19,0,0,0-4.28.48,21.5,21.5,0,0,0-4.15,1.54,71.13,71.13,0,0,0-8,4.72Z"/><path class="cls-3" d="M121.27,132.68a11.22,11.22,0,0,0,6.16,6.73,19.77,19.77,0,0,0,9.07,1.91,17.54,17.54,0,0,0,8.78-2.53,12.36,12.36,0,0,0,3.38-3.07,13.89,13.89,0,0,0,2.11-4.15l.1,0a11.56,11.56,0,0,1-1.63,4.53,11.88,11.88,0,0,1-3.41,3.51,16.32,16.32,0,0,1-9.32,2.49,20,20,0,0,1-9.3-2.27,11.4,11.4,0,0,1-6-7.14Z"/><path class="cls-3" d="M122.12,121.13l.49,1.94a5.42,5.42,0,0,1,.21,1,3.56,3.56,0,0,1-.07,1h0a3.67,3.67,0,0,1-.39-.95,6.52,6.52,0,0,1-.11-1l-.14-2h.05Z"/><path class="cls-3" d="M125.35,119.35l.4,1.75a4.4,4.4,0,0,1,.16.88,2.61,2.61,0,0,1-.11.91h0a3,3,0,0,1-.34-.86,4.4,4.4,0,0,1-.07-.89l0-1.8h0Z"/><path class="cls-3" d="M128.32,116.85a10.8,10.8,0,0,0,.09,2c0,.32.13.64.14,1a5.84,5.84,0,0,1-.05,1h-.05a2.92,2.92,0,0,1-.4-1,3.8,3.8,0,0,1,0-1,11.06,11.06,0,0,1,.26-2h0Z"/><path class="cls-3" d="M132.25,116.13l.18,2a6.37,6.37,0,0,1,0,1,3.8,3.8,0,0,1-.23,1h-.05a3.4,3.4,0,0,1-.22-1,4.57,4.57,0,0,1,.05-1l.17-2h.05Z"/><path class="cls-3" d="M135.52,114.32a7,7,0,0,1,.79,2.77,5.1,5.1,0,0,1,0,1.46,3.8,3.8,0,0,1-.54,1.36h0l0,0,.1-1.41c0-.46.1-.91.12-1.38a6.7,6.7,0,0,0-.44-2.76l0,0Z"/></g><g id="eyebrows"><path class="cls-7" d="M99.71,105.3c-1.28,1.67-3.1,2.19-4.84,3.1-5.05,2.42-10.43,4-15.6,6.13-6.94,2.85-13.14,7.2-20.43,9.18,5.19-5.8,12.19-9,19.09-12.2a103.05,103.05,0,0,1,15.68-6.42c1.9-.47,3.59-1.3,5.67-.92l.43,1.13Z"/><path class="cls-7" d="M118.23,118.09c3.08-9.63,12.47-18.33,23.11-17.65a11.18,11.18,0,0,1,8.76,5.26c-11.87-6.93-23.79,4.41-31.87,12.39Z"/></g></g></svg>