<svg id="artwork" xmlns="http://www.w3.org/2000/svg" viewBox="0 0 233 650"><defs><style>.cls-1{fill:#d9cec5;}.cls-2{fill:#824413;}.cls-3,.cls-4{fill:#2d2d2d;}.cls-4,.cls-7{fill-rule:evenodd;}.cls-5,.cls-7{fill:none;stroke:#2d2d2d;stroke-miterlimit:10;}.cls-6{fill:#f2eae4;}.cls-8{fill:#3a120e;}</style></defs><g id="eyes_tired6"><g id="white"><path class="cls-1" d="M75.27,123.13c-3.31,1.79-6.17,3.45-6.88,4.68s0,3.54.5,5,5.08,3.51,7.94,4.07,7.59-.54,10-1.09,5.63-2.91,6.56-3.66,3.58-3,3.74-4.79a5.92,5.92,0,0,0-.6-3.78c-.63-1.43-3.9-3.29-7.14-2.66S75.27,123.13,75.27,123.13Z"/><path class="cls-1" d="M146.27,124.21c3.78,1.54,6.52,3.42,7.41,4.6s.84,3.17.46,4.68-5.24,4-8.32,4.81-8.37.1-11.08-.26-6.45-2.47-7.53-3.15-4.2-2.7-4.54-4.55-1-5.77-.46-7.28,5.43-2.27,9-1.91S146.27,124.21,146.27,124.21Z"/></g><g id="iris"><path class="cls-2" d="M85.94,120.06a1.63,1.63,0,0,0-.41-.1c-3,1.05-6.12,2-9.1,3.25a6.45,6.45,0,0,0-.12,5.42,6.84,6.84,0,0,0,6.42,2.78c2.42-.44,5.3-1.24,5.82-2.86s.92-3.47.35-4.76S86.87,120.42,85.94,120.06Z"/><path class="cls-2" d="M141.32,122.91c-2.95-1.09-6.13-1.06-9.26-1.39a10.18,10.18,0,0,0-2.44,3.66c-.48,1.31.1,3.08.79,4.62s3.8,2.07,6.39,2.31a7.4,7.4,0,0,0,6.5-3.24c.66-1.2.51-3.71-.75-5.51Z"/></g><g id="iris_outline"><path class="cls-3" d="M82.2,125.25s0,0,.06,0a.08.08,0,0,1,0,.06l0,.09,0,.18,0,.37.1.73.2,1.47a12,12,0,0,1,.14,1.46,7.51,7.51,0,0,1-.15,1.48h-.05a7.43,7.43,0,0,1-.3-1.46,12.19,12.19,0,0,1,0-1.48l0-1.46,0-.74v-.55s0-.18,0-.1h0Z"/><path class="cls-3" d="M82.94,125.81c.61.64,1.2,1.29,1.82,1.91.31.3.67.56,1,.9a4.17,4.17,0,0,1,.74,1.13s0,0,0,0h0a10.81,10.81,0,0,1-1-.81,7.64,7.64,0,0,1-.9-1c-.55-.71-1-1.44-1.57-2.15,0,0,0,0,0,0Z"/><path class="cls-3" d="M83.48,125.26h-.07v-.06a24.66,24.66,0,0,0,2.64.53c.45.1.89.12,1.35.25a3.18,3.18,0,0,1,1.27.64,0,0,0,0,1,0,0s0,0,0,0c-.46-.08-.89-.14-1.35-.2a6.49,6.49,0,0,1-1.34-.36c-.84-.29-1.74-.47-2.57-.85l-.11-.06h.19a0,0,0,0,1,0,0Z"/><path class="cls-3" d="M82.91,124.71a6.3,6.3,0,0,1,1.51-1.78,8.64,8.64,0,0,1,.87-.75c.31-.21.61-.43,1-.63l0,0a0,0,0,0,1,0,0,2.74,2.74,0,0,1-.68,1,5.69,5.69,0,0,1-1,.68A6.42,6.42,0,0,0,83,124.73h0Z"/><path class="cls-3" d="M82.21,125.09l-.4-1.42a3.13,3.13,0,0,1-.17-.72,2.26,2.26,0,0,1,.11-.76h0a2.33,2.33,0,0,1,.34.69,3,3,0,0,1,.06.74l.06,1.48h-.05Z"/><path class="cls-3" d="M81.21,126v0h0s0,0,0,0h0a5.43,5.43,0,0,1-.89,1l-1,.94a11.71,11.71,0,0,1-1.07.85,5.3,5.3,0,0,0-1,.83h0l0,0a2.23,2.23,0,0,1,.76-1.21,10.37,10.37,0,0,1,1.14-.77l1.06-.79a5.56,5.56,0,0,0,1-.88h0s0,0,0,0v0h-.05Z"/><path class="cls-3" d="M80.94,125.18c-.59-.16-1.17-.36-1.74-.57a5.05,5.05,0,0,1-.84-.33,3.73,3.73,0,0,1-.74-.55v0l0,0a2.62,2.62,0,0,1,.93.14,4.73,4.73,0,0,1,.8.43c.52.31,1,.62,1.59.88a.08.08,0,0,1,0,0A0,0,0,0,1,80.94,125.18Z"/><path class="cls-3" d="M76.53,123.87a6,6,0,0,0-.5,3.37A4.29,4.29,0,0,0,77.92,130a7.47,7.47,0,0,0,3.2,1.14,8.65,8.65,0,0,0,3.4-.2,6.86,6.86,0,0,0,3-1.57,4.76,4.76,0,0,0,1.46-2.9,6.63,6.63,0,0,0-2.65-5.95s0,0,0-.05,0,0,0,0a6.46,6.46,0,0,1,3.13,6,5,5,0,0,1-1.62,3.2,7.25,7.25,0,0,1-3.19,1.6,9.18,9.18,0,0,1-3.54.12,7.67,7.67,0,0,1-3.29-1.27,4.46,4.46,0,0,1-1.9-2.91,6.16,6.16,0,0,1,.59-3.41s0,0,0,0S76.54,123.85,76.53,123.87Z"/><path class="cls-3" d="M136.75,126.07c0-.08,0,.06,0,.09v.18l0,.36,0,.72.1,1.43a14.11,14.11,0,0,1,.09,1.45,7,7,0,0,1-.18,1.44h-.05a7.34,7.34,0,0,1-.27-1.43,11.55,11.55,0,0,1,0-1.44l.08-1.45,0-.72,0-.36,0-.18v-.09a.08.08,0,0,1,0-.06c.1,0,0,0,.06,0h-.05Z"/><path class="cls-3" d="M136.11,126.69l-.72,1.12c-.25.37-.48.75-.75,1.12a7.73,7.73,0,0,1-.86,1,12.14,12.14,0,0,1-1,.87h0l0,0a4.57,4.57,0,0,1,.69-1.17,10.45,10.45,0,0,1,.93-1c.3-.32.58-.67.87-1l.86-1h0S136.11,126.69,136.11,126.69Z"/><path class="cls-3" d="M135.47,126.12h.2l-.12.07a26.67,26.67,0,0,1-2.63,1,7,7,0,0,1-1.38.46c-.47.09-.92.18-1.4.3,0,0,0,0,0,0a0,0,0,0,1,0,0,3.29,3.29,0,0,1,1.29-.74c.47-.16.93-.22,1.39-.36.93-.26,1.86-.38,2.73-.72l0,0h-.08s0,0,0,0A0,0,0,0,1,135.47,126.12Z"/><path class="cls-3" d="M136,125.61A6.72,6.72,0,0,0,134,124.3a6.25,6.25,0,0,1-1-.58,2.84,2.84,0,0,1-.82-.9,0,0,0,0,1,0,0h0c.38.16.71.35,1.06.53a9.77,9.77,0,0,1,1,.65,6.59,6.59,0,0,1,1.75,1.62,0,0,0,0,1,0,0Z"/><path class="cls-3" d="M136.73,125.9l-.06-1.45a2.89,2.89,0,0,1,0-.72,2,2,0,0,1,.29-.7,0,0,0,0,1,0,0h0a2,2,0,0,1,.16.74,2.9,2.9,0,0,1-.1.71l-.29,1.43h-.05Z"/><path class="cls-3" d="M137.87,126.76v0s0,0,0,0,0,0,.05,0h0v0a5.56,5.56,0,0,0,1.12.77l1.18.68a12.44,12.44,0,0,1,1.25.65,2.27,2.27,0,0,1,.92,1.13,0,0,0,0,1,0,0h0a5.13,5.13,0,0,0-1.14-.73,11.53,11.53,0,0,1-1.19-.73l-1.11-.84a5.35,5.35,0,0,1-1-.93h0v0s0,0,0,0v0h0Z"/><path class="cls-3" d="M138.1,125.84c.68-.36,1.33-.77,2-1.18a6.7,6.7,0,0,1,1-.57,3.71,3.71,0,0,1,1.16-.27,0,0,0,0,1,0,0v0a7.45,7.45,0,0,1-1,.67,9.1,9.1,0,0,1-1,.48c-.71.3-1.42.61-2.15.86l0,0Z"/><path class="cls-3" d="M142.47,123.86a6.07,6.07,0,0,1,1.15,3.31,4.31,4.31,0,0,1-1.56,3.13,7.8,7.8,0,0,1-3.18,1.61,10.15,10.15,0,0,1-3.56.32,8.87,8.87,0,0,1-3.46-1,5.23,5.23,0,0,1-2.36-2.75,5.58,5.58,0,0,1,.08-3.61,6.51,6.51,0,0,1,2.1-2.85s0,0,0,0a.09.09,0,0,1,0,0,7,7,0,0,0-1.81,2.92,5.27,5.27,0,0,0,.06,3.33,5.1,5.1,0,0,0,2.14,2.49,8.36,8.36,0,0,0,3.25,1,9.72,9.72,0,0,0,3.44-.23,7.45,7.45,0,0,0,3.11-1.47,4.11,4.11,0,0,0,1.57-3,5.91,5.91,0,0,0-1-3.28,0,0,0,0,1,0,0Z"/></g><g id="pupil"><path class="cls-4" d="M82.54,125.93l1.63,1.1a2,2,0,1,1-.52-2.75,1.93,1.93,0,0,1,.64.72Z"/><path class="cls-4" d="M136.51,126.75l-1.62,1.2a2.21,2.21,0,0,0,2.94.32,1.85,1.85,0,0,0,.3-2.72,2.23,2.23,0,0,0-2.94-.33,1.88,1.88,0,0,0-.61.76Z"/><path class="cls-4" d="M82.54,125.93l1.63,1.1a2,2,0,1,1-.52-2.75,1.93,1.93,0,0,1,.64.72Z"/><path class="cls-4" d="M136.51,126.75l-1.62,1.2a2.21,2.21,0,0,0,2.94.32,1.85,1.85,0,0,0,.3-2.72,2.23,2.23,0,0,0-2.94-.33,1.88,1.88,0,0,0-.61.76Z"/><path class="cls-5" d="M82.54,125.93l1.63,1.1a2,2,0,1,1-.52-2.75,1.93,1.93,0,0,1,.64.72Z"/><path class="cls-5" d="M136.51,126.75l-1.62,1.2a2.21,2.21,0,0,0,2.94.32,1.85,1.85,0,0,0,.3-2.72,2.23,2.23,0,0,0-2.94-.33,1.88,1.88,0,0,0-.61.76Z"/></g><g id="spec"><ellipse class="cls-6" cx="86.82" cy="123.55" rx="2.12" ry="1.89" transform="translate(-44.6 197.91) rotate(-84.41)"/><ellipse class="cls-6" cx="142.27" cy="125.86" rx="1.99" ry="2.09" transform="translate(-41.92 79.44) rotate(-27.35)"/></g><g id="outline"><path class="cls-3" d="M98.18,123.49a21,21,0,0,0-9.07-1.87,23.59,23.59,0,0,0-4.56.42,25,25,0,0,0-4.32,1.4c-1.41.61-2.78,1.35-4.16,2.09L74,126.61l-2,1a83.77,83.77,0,0,1-8.55,4.16l-.17-.24a36,36,0,0,1,7.21-6.5,17,17,0,0,1,2.16-1.24c.76-.37,1.46-.66,2.21-1q2.23-.91,4.59-1.65a25.28,25.28,0,0,1,4.85-1.09,23.86,23.86,0,0,1,4.93,0,20.75,20.75,0,0,1,9.14,3.08Z"/><path class="cls-3" d="M68.44,131.62A5.9,5.9,0,0,0,71.3,135a13.31,13.31,0,0,0,4.29,1.51,21.22,21.22,0,0,0,9-.47A24.52,24.52,0,0,0,92.68,132,27.69,27.69,0,0,0,96,129a34.84,34.84,0,0,0,2.84-3.62l.08,0a21,21,0,0,1-2.38,4,21.84,21.84,0,0,1-3.27,3.39,21.09,21.09,0,0,1-8.48,4.05,21.44,21.44,0,0,1-9.33.17,13.67,13.67,0,0,1-4.35-1.73,6,6,0,0,1-2.79-3.64Z"/><path class="cls-3" d="M92.66,114.13a12.19,12.19,0,0,1,.57,2.31,6.05,6.05,0,0,1,.08,1.2,4.83,4.83,0,0,1-.23,1.18h0c-.07-.4-.07-.79-.1-1.18s0-.77,0-1.16a13.15,13.15,0,0,0-.3-2.33h0Z"/><path class="cls-3" d="M86.28,115.76l.46,1.45a3.76,3.76,0,0,1,.2.73,2.91,2.91,0,0,1,0,.78h0s0,0,0,0a2.48,2.48,0,0,1-.33-.7,3.7,3.7,0,0,1-.13-.74l-.2-1.51h0Z"/><path class="cls-3" d="M77.8,117a10.59,10.59,0,0,1,.89,1.62,3.62,3.62,0,0,1,.31.89,3,3,0,0,1,0,.94h0a6.66,6.66,0,0,1-.34-.86c-.1-.28-.15-.58-.23-.88a9.75,9.75,0,0,0-.65-1.7l0,0Z"/><path class="cls-3" d="M70.86,119.2l1,1.8a8,8,0,0,1,.49.91,4.64,4.64,0,0,1,.3,1,0,0,0,0,1,0,0h0a5.15,5.15,0,0,1-.61-.86,8.92,8.92,0,0,1-.42-.94l-.79-1.91,0,0Z"/><path class="cls-3" d="M65.2,121.47a14,14,0,0,0,1.42,2.12c.27.33.56.64.82,1a11.57,11.57,0,0,1,.76,1v0h0a4.73,4.73,0,0,1-1-.81,7.24,7.24,0,0,1-.78-1,14.27,14.27,0,0,1-1.22-2.28h0Z"/><path class="cls-3" d="M66.83,127.77a37.07,37.07,0,0,1,13.64-7.26,45.16,45.16,0,0,1,7.58-1.8,39.7,39.7,0,0,1,7.78-.33v.1c-2.56.38-5.1.75-7.62,1.22s-5,.91-7.51,1.58a38.66,38.66,0,0,0-13.81,6.56Z"/><path class="cls-3" d="M81.69,141.52a12.46,12.46,0,0,1-9-1.06,16.45,16.45,0,0,1-3.85-2.64,21.22,21.22,0,0,1-3.06-3.5,0,0,0,0,1,0,0h0c1.11,1.09,2.18,2.18,3.36,3.16a22.47,22.47,0,0,0,3.7,2.65,12.27,12.27,0,0,0,8.85,1.37s0,0,0,0S81.7,141.51,81.69,141.52Z"/><path class="cls-3" d="M87.93,140.13c2.13-2.17,4.6-4,6.61-6.25A16.46,16.46,0,0,0,97,130.16a14,14,0,0,0,1.24-4.3,0,0,0,0,1,0,0s0,0,0,0a10.2,10.2,0,0,1-.84,4.51,13,13,0,0,1-2.65,3.78c-2.13,2.22-4.66,3.93-6.87,6,0,0,0,0,0,0A0,0,0,0,1,87.93,140.13Z"/><path class="cls-3" d="M120.54,121a59.42,59.42,0,0,1,10.44-.9,30.36,30.36,0,0,1,10.46,2,49.23,49.23,0,0,1,9.67,4.18,30.37,30.37,0,0,1,8,6.89l-.19.24c-3.2-1.53-6.21-3.05-9.29-4.49s-6-3.16-9.14-4.6a30.63,30.63,0,0,0-9.67-2.72,67.86,67.86,0,0,0-10.3-.27Z"/><path class="cls-3" d="M154.63,132.26a6.21,6.21,0,0,1-2.86,4,15.27,15.27,0,0,1-4.6,2.07,25.12,25.12,0,0,1-10,.6,24.18,24.18,0,0,1-9.55-3.3,23.36,23.36,0,0,1-4-3.16,22.41,22.41,0,0,1-3.1-4l.08,0a36.15,36.15,0,0,0,3.49,3.51,27.6,27.6,0,0,0,4,2.82,28.16,28.16,0,0,0,9.16,3.37,25,25,0,0,0,9.79-.29A14.93,14.93,0,0,0,151.6,136a6,6,0,0,0,2.93-3.77Z"/><path class="cls-3" d="M159.9,132a29.49,29.49,0,0,1-5.23-4c-1.6-1.49-3.08-3.11-4.63-4.61a20.71,20.71,0,0,0-5.13-3.73,17,17,0,0,0-6.16-1.58V118a12,12,0,0,1,6.59.77,16.12,16.12,0,0,1,5.27,4.07c1.52,1.6,2.91,3.27,4.42,4.83a31.11,31.11,0,0,0,4.93,4.23Z"/><path class="cls-7" d="M154,132.4c-8.53-7.66-12.66-9.34-26.09-11.73"/><path class="cls-3" d="M145.76,140.4a41.16,41.16,0,0,0,4.36-2.77l2.06-1.57c.7-.49,1.38-1,2.12-1.49,0,0,0,0,0,0s0,0,0,0a14.06,14.06,0,0,1-1.85,1.85,19.89,19.89,0,0,1-2.13,1.5,38.84,38.84,0,0,1-4.57,2.48s0,0,0,0S145.75,140.4,145.76,140.4Z"/><path class="cls-3" d="M87.2,150.41a43.14,43.14,0,0,0,8.23-10.23,51.09,51.09,0,0,0,2.89-5.9,60.12,60.12,0,0,0,2.23-6.2,0,0,0,0,1,0,0s0,0,0,0a33.1,33.1,0,0,1-1.8,6.38,38.19,38.19,0,0,1-3,5.91,43.38,43.38,0,0,1-8.54,10.06s0,0,0,0S87.19,150.42,87.2,150.41Z"/><path class="cls-3" d="M118,125.86a44.42,44.42,0,0,0,7.18,14.66,55.92,55.92,0,0,0,5.34,6.15,36.58,36.58,0,0,0,6.28,5.19l0,.09a22.65,22.65,0,0,1-6.94-4.56,36.5,36.5,0,0,1-5.3-6.41,42.52,42.52,0,0,1-6.61-15.09Z"/><path class="cls-3" d="M121.61,117.16a3.51,3.51,0,0,0,.22,1.21c.07.19.17.37.23.56a4.81,4.81,0,0,1,.13.62,0,0,0,0,1,0,0h0a1.5,1.5,0,0,1-.45-.49,1.79,1.79,0,0,1-.17-.64,3.72,3.72,0,0,1,0-1.29h0Z"/><path class="cls-3" d="M124.82,115a6.76,6.76,0,0,0-.39,2c0,.34,0,.67,0,1s0,.67,0,1h0a3,3,0,0,1-.31-1,4.12,4.12,0,0,1,.06-1,6.73,6.73,0,0,1,.66-2h0A0,0,0,0,1,124.82,115Z"/><path class="cls-3" d="M127.67,115l0,1.62a5.37,5.37,0,0,1,0,.8,2.9,2.9,0,0,1-.25.79h0a0,0,0,0,1,0,0,3.32,3.32,0,0,1-.09-.82,4.42,4.42,0,0,1,.12-.8l.29-1.59h0Z"/><path class="cls-3" d="M132,113.94l-.2,2a8.45,8.45,0,0,1-.13,1,5,5,0,0,1-.33,1h0a5,5,0,0,1,0-1,8.43,8.43,0,0,1,.2-1l.46-2h0Z"/></g><g id="eyebrows"><path class="cls-8" d="M91.6,98.09c.52.93,0,1.22-.22,1.64A35.61,35.61,0,0,1,84.29,106c-2.83,2.11-5.87,3.87-8.67,6s-5.24,4.63-8,6.69-5.47,4.18-8.37,6.32l-.25-.2a30.6,30.6,0,0,1,6.55-8.53c2.56-2.51,5.72-4.25,8.56-6.33s5.59-4.31,8.47-6.29c2.07-1.44,4.26-3,6.3-4.52.32-.26.66-.5,1-.76s.39-.63,1.47-.38l.26.18Z"/><path class="cls-8" d="M121.16,97.45c1.1-.19,1.15.2,1.46.47a50.29,50.29,0,0,0,7.12,5.06c2.93,1.73,5.86,3.59,9,5.09,6.51,2.74,12.84,5.07,18.67,9.35l-.12.3c-7.13-.92-13.51-3.9-19.67-7.37-5.52-2.74-11.53-5.25-15.74-10a7.42,7.42,0,0,1-.85-1.13c-.22-.43-.69-.74-.12-1.62l.27-.17Z"/><path class="cls-3" d="M101.28,103.61a9.8,9.8,0,0,0,1.06-3.89,8.11,8.11,0,0,0-.41-1.93c-.18-.64-.45-1.26-.65-1.94l0,0h0a7.12,7.12,0,0,1,1.08,1.8,5,5,0,0,1,.34,2.1,5.73,5.73,0,0,1-.51,2c-.27.64-.6,1.24-.91,1.86h0S101.27,103.61,101.28,103.61Z"/><path class="cls-3" d="M113.66,102.44c-.64-1.08-1.48-2-2.22-3a3.66,3.66,0,0,1-.75-1.79,3.9,3.9,0,0,1,.32-1.89h0s0,0,0,0a10.66,10.66,0,0,0,.12,1.81,5.3,5.3,0,0,0,.59,1.64c.62,1,1.4,2.06,1.93,3.18a0,0,0,0,1,0,0Z"/></g></g></svg>