<svg id="artwork" xmlns="http://www.w3.org/2000/svg" viewBox="0 0 233 650"><defs><style>.cls-1{fill:#d9cec5;}.cls-2{fill:#aa7975;}.cls-2,.cls-5{fill-rule:evenodd;}.cls-3{fill:#824413;}.cls-4,.cls-5{fill:#2d2d2d;}.cls-6{fill:none;stroke:#2d2d2d;stroke-miterlimit:10;}.cls-7{fill:#f2eae4;}.cls-8{fill:#3a120e;}</style></defs><g id="eyes_sad4"><g id="white"><path class="cls-1" d="M75.6,118.53c-.46.21-3.59.71-4.06.79-2.74.46-5.05,1.84-5.91,4.07-1.84,4.77.82,10.65.82,10.65s10,6.36,18.3,5.29c4.2-.54,10.79-5.69,10.79-5.69s1.78-10.42-1-13.5c-2.24-2.47-5.69-2.13-8.69-3C81.84,116,79.69,116.68,75.6,118.53Z"/><path class="cls-1" d="M147.55,118.3c.44.2,1.77,1.69,2.43,2.17,1.5,1.11,4.93,2.6,5.76,4.75,1.76,4.57-1.88,10.29-1.88,10.29s-8.78,5-16.7,4c-2.95-.38-7.71-2.67-10.18-4.26a5.94,5.94,0,0,1-2-3.45c-.56-3.18-1.4-9.73.61-11.93,2.15-2.37,5.2-2.87,8.73-3C138.26,116.79,143.62,116.52,147.55,118.3Z"/></g><g id="eyelids"><path class="cls-2" d="M124.33,122.84s10.1-1.53,11.56-1.67a33.61,33.61,0,0,1,12.5.63c.67.19,8.91,3.87,8.82,3.42-.27-1.38-2.72-3.31-3.68-4.28a22.22,22.22,0,0,0-27.2-3.65C125.54,117.76,124.33,122.84,124.33,122.84Z"/><path class="cls-2" d="M64,123.52c.28.47.45.32,1.52.07,2.93-.69,8.27-2,9.35-2.28,4.31-1,9.46-.4,13.8.24.72.1,7.11,0,7-.46-.48-1.38-.57-1.35-1.69-2.21a14.81,14.81,0,0,0-6.42-2.75c-8.11-1.42-14-.87-20.4,4.12C66.38,120.84,63.65,122.9,64,123.52Z"/></g><g id="iris"><path class="cls-3" d="M80.28,139.5a9.65,9.65,0,0,1-7-5.85c-1.74-4.81,7-8.46,12.24-6a7.06,7.06,0,0,1,3.55,4.25C90.61,136.72,85.39,140.25,80.28,139.5Z"/><path class="cls-3" d="M145.32,138.36c-2,1.48-6.61,1.69-9.94.37-5.52-2.19-3.57-9.86,1.77-11.49a9.42,9.42,0,0,1,6,.68C148.62,130.26,149,135.69,145.32,138.36Z"/></g><g id="iris_outline"><path class="cls-4" d="M74.05,132.47a53.61,53.61,0,0,1,7.36,1.25c0,.06,0,0-.06,0v0c-2.42-.39-5-.64-7.3-1.26Z"/><path class="cls-4" d="M75.9,127.55l3,2.17a32.88,32.88,0,0,1,3,2.2,36.78,36.78,0,0,1-6-4.37Z"/><path class="cls-4" d="M87.88,129.57a38.52,38.52,0,0,1-5,3.14l0,0,.09,0v0l-.17.07c1.45-1.42,3.53-2,5.1-3.18Z"/><path class="cls-4" d="M84.28,127.56c-1,1.34-.75,3.6-2.38,4.5,1.2-1.21,1.26-3.28,2.38-4.5Z"/><path class="cls-4" d="M90.15,134.28a34,34,0,0,1-7-1.6c.26,0,.59.1.89.11,1.94.43,4.2,1.16,6.11,1.49Z"/><path class="cls-4" d="M77.74,137.88a32.17,32.17,0,0,1,3.58-4.1,33.38,33.38,0,0,1-3.58,4.1Z"/><path class="cls-4" d="M86.62,139.29a60.07,60.07,0,0,1-4.22-5.1,38.23,38.23,0,0,1,4.22,5.1Z"/><path class="cls-4" d="M84.13,139.23c6.55-1.39,6.6-7.92,1.14-10.88a10,10,0,0,0-9.55.27c-3,2-2,6.21.42,8.3a9.19,9.19,0,0,0,4.51,2.25v.09c-7.31-.08-11.62-10.48-2.93-12.53,4.37-1,9.62.61,11.49,4.94,1.72,3.93-1.28,7.05-5,7.66l0-.1Z"/><path class="cls-4" d="M136.68,138.91a42.22,42.22,0,0,1,2-5.55s.2-.46.2-.26h0c0-.08,0,.06-.05.1l-.07.18a47.3,47.3,0,0,1-2.06,5.53Z"/><path class="cls-4" d="M131.91,132.33c2.11.6,5.31,1.23,7.33,1.91a38.59,38.59,0,0,1-7.33-1.91Z"/><path class="cls-4" d="M140.33,127.09a29.48,29.48,0,0,1,0,5.23h0l0-.07s0,.05,0,.16c-.46-1.75.15-3.61,0-5.32Z"/><path class="cls-4" d="M135.82,128.17c.29,1.74,2.13,3.13,1.73,5-.12-1.74-1.57-3.27-1.73-5Z"/><path class="cls-4" d="M146.06,128.88a30.6,30.6,0,0,1-4.8,3c-.21.11-.53.35-.76.29,1.71-1.2,3.86-2.07,5.56-3.24Z"/><path class="cls-4" d="M142.77,139c0-.81-.85-1.28-1.33-1.86a5.66,5.66,0,0,1-1.24-2v0s.06,0,.05,0c.35.69,1,1.24,1.35,1.92s1.33,1.23,1.18,2Z"/><path class="cls-4" d="M147.21,133.38a58.08,58.08,0,0,1-6.56.57,38.91,38.91,0,0,1,6.56-.57Z"/><path class="cls-4" d="M147.29,136c2.08-5.62-4.94-9.42-9.72-8-3,.67-6.26,4-5,7.15,2.32,4.4,9.25,5.47,13.34,2.74l.06.08c-4.24,4.23-15.84,1.84-14.52-5.33,1.36-4.67,7-6.6,11.32-5,2.52.84,4.9,3,5.06,5.76a6.44,6.44,0,0,1-.44,2.61l-.1,0Z"/></g><g id="pupil"><path class="cls-5" d="M83.36,135l-.17,1.47A3.76,3.76,0,0,1,79,135c-.71-1.26,0-2.66,1.56-3.11a3.8,3.8,0,0,1,4.16,1.48,2.13,2.13,0,0,1,.27,1.19Z"/><path class="cls-5" d="M142.33,134.74l.52,1.33a4.82,4.82,0,0,1-4.9.62c-1.55-.72-1.87-2.19-.72-3.25a4.79,4.79,0,0,1,4.9-.62,2.72,2.72,0,0,1,1.09.85Z"/><path class="cls-5" d="M83.36,135l-.17,1.47A3.76,3.76,0,0,1,79,135c-.71-1.26,0-2.66,1.56-3.11a3.8,3.8,0,0,1,4.16,1.48,2.13,2.13,0,0,1,.27,1.19Z"/><path class="cls-5" d="M142.33,134.74l.52,1.33a4.82,4.82,0,0,1-4.9.62c-1.55-.72-1.87-2.19-.72-3.25a4.79,4.79,0,0,1,4.9-.62,2.72,2.72,0,0,1,1.09.85Z"/><path class="cls-6" d="M83.36,135l-.17,1.47A3.76,3.76,0,0,1,79,135c-.71-1.26,0-2.66,1.56-3.11a3.8,3.8,0,0,1,4.16,1.48,2.13,2.13,0,0,1,.27,1.19Z"/><path class="cls-6" d="M142.33,134.74l.52,1.33a4.82,4.82,0,0,1-4.9.62c-1.55-.72-1.87-2.19-.72-3.25a4.79,4.79,0,0,1,4.9-.62,2.72,2.72,0,0,1,1.09.85Z"/></g><g id="spec"><path class="cls-7" d="M86.89,128.63c-2.44-.13-1.86,3.08-.19,4.22a2.69,2.69,0,0,0,3,.16c1.62-1.28-.63-4.21-2.74-4.37Z"/><ellipse class="cls-7" cx="146.34" cy="129.72" rx="2" ry="2.85" transform="translate(2.37 262.06) rotate(-84.14)"/><path class="cls-4" d="M121.61,99.83a3.36,3.36,0,0,1-.61-2.27,5.73,5.73,0,0,1,.67-2.34,3.83,3.83,0,0,1,1.73-1.83,2.91,2.91,0,0,1,1.29-.25,3.19,3.19,0,0,1,.63.11c.2.08.39.17.57.26l0,.1-.57.09c-.18,0-.35.1-.52.14a3.74,3.74,0,0,0-.9.43,5.6,5.6,0,0,0-1.52,1.37,5.33,5.33,0,0,0-.86,2,3.23,3.23,0,0,0,.2,2.16Z"/><path class="cls-4" d="M97.5,97.18A4.07,4.07,0,0,0,97.6,95a4.34,4.34,0,0,0-1-1.89,7.17,7.17,0,0,0-1.7-1.22l-.47-.24-.49-.21-.53-.18c-.18,0-.36-.1-.56-.16V91a5.8,5.8,0,0,1,.59-.19q.31,0,.63-.06t.63.06l.62.17a4.25,4.25,0,0,1,1.92,1.63,4.79,4.79,0,0,1,.86,2.31,4,4,0,0,1-.49,2.33Z"/></g><g id="outline"><path class="cls-4" d="M70.6,141.78a28.58,28.58,0,0,1-4.3-3.46,15.8,15.8,0,0,1-1.87-2A13,13,0,0,1,63,133.9s0,0,0,0h0c.62.69,1.18,1.41,1.79,2.09S66,137.37,66.58,138a29.65,29.65,0,0,0,4,3.7,0,0,0,0,1,0,0Z"/><path class="cls-4" d="M149,144a17.63,17.63,0,0,0,6.86-4.84,21.12,21.12,0,0,0,2.41-3.45,22.33,22.33,0,0,0,1.77-3.84s0,0,0,0,0,0,0,0a13.28,13.28,0,0,1-1.37,4.08,15.53,15.53,0,0,1-2.55,3.47A17.82,17.82,0,0,1,149,144s0,0,0,0S148.93,144,149,144Z"/><path class="cls-4" d="M96.7,120.87a21.66,21.66,0,0,0-8.06-4.15,23.86,23.86,0,0,0-9-.62,29.32,29.32,0,0,0-8.61,2.57l-2,1-1.94,1.17-1.85,1.32-1.76,1.46-.08-.07L65,121.85l1.74-1.55,1.9-1.36,2-1.16a25.18,25.18,0,0,1,18.17-1.53,21.42,21.42,0,0,1,8,4.54Z"/><path class="cls-4" d="M65.29,133.88c2.6,1.12,5.18,2.31,7.81,3.34a25.83,25.83,0,0,0,8.16,2,17.7,17.7,0,0,0,8.12-1.69,43.08,43.08,0,0,0,7.23-4.35s0,0,0,0a.08.08,0,0,1,0,0,31.92,31.92,0,0,1-7,4.77,16.74,16.74,0,0,1-8.35,1.63,25.87,25.87,0,0,1-8.22-2.2c-2.62-1.08-5.17-2.32-7.75-3.49,0,0,0,0,0-.05Z"/><path class="cls-4" d="M125.48,118a15.77,15.77,0,0,1,8.16-3.9,21.33,21.33,0,0,1,9.12.7,27,27,0,0,1,8.31,3.89c.62.45,1.22.93,1.83,1.4s1.14,1,1.7,1.54,1.05,1.12,1.56,1.69.93,1.21,1.37,1.82l-.07.06-1.63-1.57-1.7-1.48-1.77-1.37-1.85-1.26a34.11,34.11,0,0,0-8-4,21.12,21.12,0,0,0-8.82-1,15.71,15.71,0,0,0-8.16,3.48Z"/><path class="cls-4" d="M155.75,134.8c-2.46,1.17-4.9,2.39-7.41,3.47a24.67,24.67,0,0,1-8,2.19,15.64,15.64,0,0,1-8.16-1.54,17.93,17.93,0,0,1-1.82-1,14.31,14.31,0,0,1-1.72-1.15,29.64,29.64,0,0,1-3.15-2.65l.06-.08c1.18.7,2.29,1.49,3.47,2.14a18,18,0,0,0,1.77,1,21.35,21.35,0,0,0,9.5,2.51,24.6,24.6,0,0,0,7.81-1.85c2.54-1,5-2.06,7.56-3.1Z"/><path class="cls-4" d="M130.25,143a25.66,25.66,0,0,1-4.84-4.76,14.24,14.24,0,0,1-1.92-2.87,2.6,2.6,0,0,1-.15-1.95,1.35,1.35,0,0,1,1.58-.88v.1a1.1,1.1,0,0,0-.9,1,2.21,2.21,0,0,0,.38,1.3c.55.9,1.07,1.92,1.67,2.84a31.18,31.18,0,0,0,4.26,5.15Z"/><path class="cls-4" d="M90.86,142.1c.77-.9,1.65-1.69,2.49-2.5S95,138,95.83,137.14a10,10,0,0,0,1-1.32,11.16,11.16,0,0,0,.68-1.45,1.91,1.91,0,0,0,0-1.39,1.39,1.39,0,0,0-1.13-.93l0-.1a1.57,1.57,0,0,1,1.76.68,2.48,2.48,0,0,1,.31,2,5,5,0,0,1-.82,1.73,10.13,10.13,0,0,1-1.28,1.33c-.87.81-1.8,1.54-2.72,2.27s-1.87,1.42-2.74,2.2Z"/><path class="cls-4" d="M94.73,120a18.55,18.55,0,0,1,2.2,6.71,12.63,12.63,0,0,1,.1,3.58,13.13,13.13,0,0,1-.38,1.76,9.92,9.92,0,0,1-.69,1.65l-.1,0c0-.6.06-1.18.09-1.76l.09-1.72c0-1.13.14-2.27.1-3.42a20.47,20.47,0,0,0-1.5-6.73Z"/><path class="cls-4" d="M66.87,135a10.68,10.68,0,0,1-1.73-2.74,11.82,11.82,0,0,1-.89-3.15,9.63,9.63,0,0,1,0-3.3,11,11,0,0,1,.44-1.59,8.14,8.14,0,0,1,.75-1.47l.1,0c0,.55-.11,1.07-.16,1.6s-.1,1-.14,1.55A26.53,26.53,0,0,0,65,129a12.4,12.4,0,0,0,.56,3.06A11.1,11.1,0,0,0,67,134.92Z"/><path class="cls-4" d="M126.27,117.33a22.73,22.73,0,0,0-1.24,4.35,26.17,26.17,0,0,0-.45,4.48,23.89,23.89,0,0,0,.43,4.41l.23,1.08.31,1,.4,1,.5,1-.07.06c-.28-.27-.56-.55-.82-.84s-.45-.65-.66-1-.35-.71-.5-1.07-.25-.75-.37-1.13a13.8,13.8,0,0,1-.25-4.66,24.14,24.14,0,0,1,.77-4.56,20.87,20.87,0,0,1,1.63-4.28Z"/><path class="cls-4" d="M153.31,135.64a9.72,9.72,0,0,0,2.6-5.74,14.08,14.08,0,0,0-.15-3.12c-.07-.51-.18-1-.3-1.53l-.23-.77c-.09-.26-.18-.52-.26-.79l.08,0c.2.19.39.4.58.62s.32.47.48.72a7.69,7.69,0,0,1,.63,1.61,7.89,7.89,0,0,1,0,3.42,9.44,9.44,0,0,1-3.32,5.7Z"/><path class="cls-4" d="M156.41,126.43a2.16,2.16,0,0,0-1.16-1.62,21.08,21.08,0,0,0-1.88-1,28.46,28.46,0,0,0-4-1.54,33.47,33.47,0,0,0-8.37-1.34,49.72,49.72,0,0,0-8.44.61c-2.81.38-5.59,1-8.4,1.58l0-.1a39,39,0,0,1,8.27-2.47,34.25,34.25,0,0,1,8.64-.42,32.22,32.22,0,0,1,8.48,1.68,27.17,27.17,0,0,1,3.95,1.73,19.32,19.32,0,0,1,1.86,1.1,2.28,2.28,0,0,1,1.14,1.79Z"/><path class="cls-4" d="M64.22,124.87a2.87,2.87,0,0,1,1.48-1.33,18.29,18.29,0,0,1,1.88-.67c1.26-.42,2.54-.76,3.82-1.08a52.18,52.18,0,0,1,7.86-1.3,43.31,43.31,0,0,1,8-.13,37.7,37.7,0,0,1,4,.55,31.58,31.58,0,0,1,3.86,1l0,.1c-1.32-.13-2.63-.27-3.94-.38s-2.61-.2-3.92-.25c-2.61-.1-5.23-.2-7.85-.07a57.11,57.11,0,0,0-7.81,1c-1.29.26-2.58.54-3.84.89a18.84,18.84,0,0,0-1.89.57,2.74,2.74,0,0,0-1.47,1.18Z"/></g><g id="eyebrows"><path class="cls-8" d="M65.87,111c6-2,12.51-3,17.63-6.71a16.63,16.63,0,0,0,3.44-4.76,7.33,7.33,0,0,1,1.15-1.71,10.57,10.57,0,0,1,6.31-3.29l.46.41a12.18,12.18,0,0,1-.76,4.85,7.46,7.46,0,0,1-2.61,3.62,31.58,31.58,0,0,1-16.86,7.18c-2.9.42-5.77.64-8.62,1l-.14-.6Z"/><path class="cls-8" d="M160.94,116.9c-7.06-.77-13.67-3.58-20.08-6.49-1.59-.75-3.23-1.43-4.85-2.18a23.8,23.8,0,0,1-8.34-6.72c-1.15-1.56-2.4-3.2-2.52-5.27l.57-.22c2.93,1.65,6.21,2.72,9.15,4.39,4.46,2.48,8.18,6.11,12.65,8.6a77.88,77.88,0,0,0,13.54,7.3l-.12.59Z"/></g></g></svg>