<svg id="artwork" xmlns="http://www.w3.org/2000/svg" viewBox="0 0 233 650"><defs><style>.cls-1{fill:#d9cec5;}.cls-2{fill:#824413;}.cls-3,.cls-4{fill:#2d2d2d;}.cls-4{fill-rule:evenodd;}.cls-5{fill:none;stroke:#2d2d2d;stroke-miterlimit:10;}.cls-6{fill:#f2eae4;}.cls-7{fill:#3a120e;}</style></defs><g id="white"><path class="cls-1" d="M137.05,125.28a51.16,51.16,0,0,1,11,3.27c11.64,5.39-6.92,13.4-13.38,12.89-4-.31-9.54-2.07-12.19-5.35-2.29-2.84-3.76-11.13.19-11.28S130.66,124.18,137.05,125.28Z"/><path class="cls-1" d="M85.09,123.4c5.09,2,11.14,6.72,9,11-3.89,7.78-14,8.32-21.35,6.13-5-1.5-7.52-5.12-6.46-9.27a10.18,10.18,0,0,1,3.25-4.77,15.71,15.71,0,0,1,4.73-3,15.46,15.46,0,0,1,9.81-.4C84.43,123.16,84.76,123.27,85.09,123.4Z"/></g><g id="iris"><path class="cls-2" d="M123.44,137.13c-3.11-1.39-4-10.08-3-12.7,2.87-.21,7.2.51,10.1.61,2.21,2,.9,6.22,0,7.92C129.05,135.6,123.91,137.34,123.44,137.13Z"/><path class="cls-2" d="M65.23,129.79c.28-1.63,1.62-4.57,3.66-5.54,2.76-1.3,4.79,2.13,5.11,4.35.35,2.39-1.28,7.38-4.73,7.88-1.63,1.18-3-1.88-3.57-3.08A7.13,7.13,0,0,1,65.23,129.79Z"/></g><g id="iris_outline"><path class="cls-3" d="M127,135.53a46.32,46.32,0,0,1-3.66-5.16c0-.05-.09-.12,0-.16s0,0,0,0h0c-.07-.07,0,0,.06.08l.12.17a48.1,48.1,0,0,1,3.5,5Z"/><path class="cls-3" d="M122.68,125.44c.93,1,2.43,1.75,2.8,3.12-.84-1.11-2-2.06-2.8-3.12Z"/><path class="cls-3" d="M128.33,125.08a11.83,11.83,0,0,1-3.05,1.23,5.31,5.31,0,0,1,1.48-.71s1.59-.59,1.57-.52Z"/><path class="cls-3" d="M129.43,132.74a35,35,0,0,1-4.91-2.9,36,36,0,0,1,4.91,2.9Z"/><path class="cls-3" d="M131.92,127.64c-1.08.22-2.23,0-3.33.17a12,12,0,0,1-3.33.1c1-.08,2.22-.3,3.32-.3s2.29.11,3.34,0Z"/><path class="cls-3" d="M70.16,135.88a29.8,29.8,0,0,1-3.07-4.25l0-.08s0,0,0-.06l0,0v0c-.07,0,0,0,0,.07l.1.13a33.1,33.1,0,0,1,2.93,4.14Z"/><path class="cls-3" d="M70.28,124a11.83,11.83,0,0,1-3,1.23,5.23,5.23,0,0,1,1.49-.71s1.58-.59,1.56-.52Z"/><path class="cls-3" d="M73,132.49a36.53,36.53,0,0,1-5.35-2,34.57,34.57,0,0,1,5.35,2Z"/><path class="cls-3" d="M73.8,126.59c-1,.41-2.19.43-3.25.79a12.2,12.2,0,0,1-3.25.71c1-.27,2.12-.71,3.21-.91s2.27-.32,3.29-.59Z"/><path class="cls-3" d="M124,136.68a9.27,9.27,0,0,0,7.11-11.36l.09,0c3.43,4.82-2.19,11.59-7.2,11.4Z"/><path class="cls-3" d="M67.49,136.61c6.84.53,7.69-10.17,2.78-13.24l0-.09c6.91,1.78,4.14,15.18-2.82,13.33Z"/></g><g id="pupil"><path class="cls-4" d="M122.09,128.56a.77.77,0,0,1,.66-1.15,7.52,7.52,0,0,1,2.21.42c0-1.93-.52-3.06-1.28-3.53-2-1.25-5.34,1.91-3.21,6.39.76,1.6,2.2,1.95,3.26.8h0C123.18,130.52,122.59,129.56,122.09,128.56Z"/><path class="cls-4" d="M67.47,131.08a.77.77,0,0,1,.66-1.15,7.45,7.45,0,0,1,2.2.41c0-1.93-.52-3-1.27-3.53-2-1.24-5.34,1.92-3.21,6.4.76,1.59,2.19,1.95,3.25.8h0C68.55,133,68,132.08,67.47,131.08Z"/><path class="cls-4" d="M122.09,128.56a.77.77,0,0,1,.66-1.15,7.52,7.52,0,0,1,2.21.42c0-1.93-.52-3.06-1.28-3.53-2-1.25-5.34,1.91-3.21,6.39.76,1.6,2.2,1.95,3.26.8h0C123.18,130.52,122.59,129.56,122.09,128.56Z"/><path class="cls-4" d="M67.47,131.08a.77.77,0,0,1,.66-1.15,7.45,7.45,0,0,1,2.2.41c0-1.93-.52-3-1.27-3.53-2-1.24-5.34,1.92-3.21,6.4.76,1.59,2.19,1.95,3.25.8h0C68.55,133,68,132.08,67.47,131.08Z"/><path class="cls-5" d="M122.09,128.56a.77.77,0,0,1,.66-1.15,7.52,7.52,0,0,1,2.21.42c0-1.93-.52-3.06-1.28-3.53-2-1.25-5.34,1.91-3.21,6.39.76,1.6,2.2,1.95,3.26.8h0C123.18,130.52,122.59,129.56,122.09,128.56Z"/><path class="cls-5" d="M67.47,131.08a.77.77,0,0,1,.66-1.15,7.45,7.45,0,0,1,2.2.41c0-1.93-.52-3-1.27-3.53-2-1.24-5.34,1.92-3.21,6.4.76,1.59,2.19,1.95,3.25.8h0C68.55,133,68,132.08,67.47,131.08Z"/></g><g id="spec"><path class="cls-6" d="M132.73,127.45a1.44,1.44,0,0,1,.7,1.26c0,3.26-5.77.57-3.16-1.21A2.34,2.34,0,0,1,132.73,127.45Z"/><path class="cls-6" d="M73.23,127.06a2.08,2.08,0,0,1,1.85.83,1.66,1.66,0,0,1-1.29,2.37,1.72,1.72,0,0,1-1.94-2.44A1.65,1.65,0,0,1,73.23,127.06Z"/></g><g id="outline"><path class="cls-3" d="M117.86,124c.77-.15,1.54-.34,2.32-.45s1.55-.16,2.33-.22c1.55-.11,3.11-.16,4.66-.12s3.09.16,4.63.3,3.14.34,4.69.61a48,48,0,0,1,9.16,2.24,14.19,14.19,0,0,1,4.16,2.56,32.69,32.69,0,0,1,3.25,3.42l-.09.13c-1.43-.67-2.8-1.46-4.11-2.18a23.5,23.5,0,0,0-4-1.74,73.2,73.2,0,0,0-8.69-2.54,30.62,30.62,0,0,0-4.5-.44c-1.54-.07-3.07-.14-4.61-.27s-3.06-.31-4.59-.52c-.76-.11-1.53-.19-2.29-.32s-1.54-.31-2.31-.43Z"/><path class="cls-3" d="M152,133.7a22.11,22.11,0,0,1-9.22,6.6,21.46,21.46,0,0,1-11.36,1.16,16.44,16.44,0,0,1-5.46-1.9,11.61,11.61,0,0,1-4.18-4,12.37,12.37,0,0,1-1.75-5.45,19.35,19.35,0,0,1,.44-5.68h0a17.65,17.65,0,0,0-.23,5.66,12,12,0,0,0,2,5.2,14,14,0,0,0,9.33,5.54,23.5,23.5,0,0,0,11.09-1A20.93,20.93,0,0,0,152,133.7Z"/><path class="cls-3" d="M130.49,117a13.9,13.9,0,0,0,0,2.58c0,.43.12.85.13,1.28a8.24,8.24,0,0,1,0,1.31h-.05a4.41,4.41,0,0,1-.42-1.27,5.82,5.82,0,0,1,0-1.32,14.15,14.15,0,0,1,.36-2.6,0,0,0,0,1,0,0Z"/><path class="cls-3" d="M134.65,118.19v1.68a4.57,4.57,0,0,1,0,.83,2.51,2.51,0,0,1-.31.81h-.05a2.92,2.92,0,0,1-.14-.86,3.8,3.8,0,0,1,.14-.82l.34-1.65h.05Z"/><path class="cls-3" d="M140.42,119a11.41,11.41,0,0,0-.44,2,8.36,8.36,0,0,1-.12,1,4.82,4.82,0,0,1-.31,1h-.05a2.84,2.84,0,0,1-.13-1,3.88,3.88,0,0,1,.22-1,12.63,12.63,0,0,1,.78-1.9h0Z"/><path class="cls-3" d="M146.32,120.73l-.56,2.21a6.9,6.9,0,0,1-.31,1.1,5.15,5.15,0,0,1-.58,1h0s0,0,0,0a4.83,4.83,0,0,1,.14-1.15,8,8,0,0,1,.41-1.06l.89-2.1s0,0,0,0Z"/><path class="cls-3" d="M152.37,122.84a17.22,17.22,0,0,1-1,2.66,6.58,6.58,0,0,1-.68,1.25,4.65,4.65,0,0,1-1,1h0l0,0c.18-.46.41-.85.62-1.27s.51-.77.75-1.17a17,17,0,0,0,1.25-2.49h0S152.37,122.84,152.37,122.84Z"/><path class="cls-3" d="M133.72,144.44a23.06,23.06,0,0,1-7.8-3.82,14.56,14.56,0,0,1-3.06-3.16,12.18,12.18,0,0,1-1.78-4,0,0,0,0,1,0,0h0a19.36,19.36,0,0,0,2.15,3.73,18.7,18.7,0,0,0,2.9,3.13,22.72,22.72,0,0,0,7.57,4.1s0,0,0,0S133.74,144.45,133.72,144.44Z"/><path class="cls-3" d="M144.32,141.56a21.79,21.79,0,0,0,3.92-2.89c.6-.54,1.14-1.14,1.71-1.71l1.73-1.73h0s0,0,0,0a10.55,10.55,0,0,1-1.4,2A13.78,13.78,0,0,1,148.5,139a22.61,22.61,0,0,1-4.16,2.63l0,0A0,0,0,0,1,144.32,141.56Z"/><path class="cls-3" d="M93.29,136.36a13.19,13.19,0,0,1-1.38,4.21,19.93,19.93,0,0,1-2.45,3.72,15.32,15.32,0,0,1-3.26,3.07A9.7,9.7,0,0,1,82.06,149s0,0,0,0,0,0,0,0a13.18,13.18,0,0,0,3.86-2A20.39,20.39,0,0,0,89.16,144a20.13,20.13,0,0,0,2.55-3.57,12.83,12.83,0,0,0,1.53-4.11l0,0S93.29,136.34,93.29,136.36Z"/><path class="cls-3" d="M68.51,120.16a15.63,15.63,0,0,0-6,6.4,13,13,0,0,0-1.15,4.22,17.87,17.87,0,0,0,.1,4.44s0,0,0,0l0,0a11.94,11.94,0,0,1-.55-4.49,11.07,11.07,0,0,1,1.29-4.36,15.82,15.82,0,0,1,6.38-6.26s0,0,0,0A0,0,0,0,1,68.51,120.16Z"/><path class="cls-3" d="M95.12,130.85a71.13,71.13,0,0,0-8-4.72A21.5,21.5,0,0,0,83,124.59a19,19,0,0,0-4.28-.48,18.2,18.2,0,0,0-4.22.54,19.28,19.28,0,0,0-1.9.58c-.3.1-.58.22-.86.34l-.4.18-.5.24a14.2,14.2,0,0,0-3.41,2,9.52,9.52,0,0,0-2.2,3.65h-.4a7,7,0,0,1,.28-5.22,11.09,11.09,0,0,1,3.68-3.9c.17-.12.32-.23.51-.35l.63-.36a9.2,9.2,0,0,1,1.3-.55,12.27,12.27,0,0,1,2.62-.56,22.1,22.1,0,0,1,5.09.17,20.85,20.85,0,0,1,4.87,1.18,22.22,22.22,0,0,1,4.33,2.34,56.84,56.84,0,0,1,7.22,6.11Z"/><path class="cls-3" d="M94.69,132.71a11.42,11.42,0,0,1-6,7.14,20.07,20.07,0,0,1-9.31,2.27A16.32,16.32,0,0,1,70,139.63a11.88,11.88,0,0,1-3.41-3.51A11.54,11.54,0,0,1,65,131.59l.09,0a13.89,13.89,0,0,0,2.11,4.15,12.36,12.36,0,0,0,3.38,3.07,17.54,17.54,0,0,0,8.78,2.53,19.77,19.77,0,0,0,9.07-1.91,11.22,11.22,0,0,0,6.16-6.73Z"/><path class="cls-3" d="M93.79,121.14l-.14,2a6.52,6.52,0,0,1-.11,1,4,4,0,0,1-.38.95h0a3.56,3.56,0,0,1-.07-1,5.42,5.42,0,0,1,.21-1l.49-1.94h.05Z"/><path class="cls-3" d="M90.56,119.35l0,1.8a4.4,4.4,0,0,1-.07.89,2.93,2.93,0,0,1-.33.86h0A2.61,2.61,0,0,1,90,122a4.4,4.4,0,0,1,.16-.88l.4-1.75h0Z"/><path class="cls-3" d="M87.59,116.84a11.06,11.06,0,0,1,.26,2,3.8,3.8,0,0,1,0,1,2.92,2.92,0,0,1-.4,1h0a7,7,0,0,1,0-1c0-.32.1-.64.14-1a11.77,11.77,0,0,0,.1-2h0Z"/><path class="cls-3" d="M83.66,116.13l.18,2a6.37,6.37,0,0,1,0,1,3.8,3.8,0,0,1-.23,1h0a3.4,3.4,0,0,1-.22-1,4.57,4.57,0,0,1,0-1l.17-2h0Z"/><path class="cls-3" d="M80.39,114.34A6.7,6.7,0,0,0,80,117.1c0,.47.1.92.12,1.38l.1,1.41a0,0,0,0,1,0,0h0a3.8,3.8,0,0,1-.54-1.36,5.1,5.1,0,0,1,0-1.46,7,7,0,0,1,.79-2.77h0Z"/></g><g id="eyebrows"><path class="cls-7" d="M116.59,104.17c2.06-.38,3.76.45,5.66.92a103.05,103.05,0,0,1,15.68,6.42c6.9,3.2,13.91,6.4,19.09,12.2-7.29-2-13.48-6.33-20.43-9.18-5.17-2.08-10.55-3.71-15.6-6.13-1.74-.91-3.56-1.42-4.84-3.1l.44-1.13Z"/><path class="cls-7" d="M97.63,118.09c-8.08-8-20-19.32-31.87-12.39a11.18,11.18,0,0,1,8.76-5.26c10.64-.68,20,8,23.11,17.65Z"/></g></svg>