<svg id="artwork" xmlns="http://www.w3.org/2000/svg" viewBox="0 0 233 650"><defs><style>.cls-1{fill:#d9cec5;}.cls-2{fill:#824413;}.cls-3,.cls-4{fill:#2d2d2d;}.cls-4{fill-rule:evenodd;}.cls-5{fill:none;stroke:#2d2d2d;stroke-miterlimit:10;}.cls-6{fill:#f2eae4;}.cls-7{fill:#3a120e;}</style></defs><g id="eyes_neutral7"><g id="white"><path class="cls-1" d="M73,123.58c-4,1.73-7.12,2.52-8.08,3.87s-.78,5-.39,6.72,1.54,2.89,4.81,3.85,8.51,1.94,11.4,1.55,11.31-1.55,12.47-2.32,3.56-2,3.56-2,.71-5,.13-6.78-1.2-6.58-5.05-6.19S73,123.58,73,123.58Z"/><path class="cls-1" d="M128.65,121.46s-7.16.84-8.12,2.19-1.15,6.56-.76,8.29,1.16,2.32,5.24,3.48A58.43,58.43,0,0,0,138.27,137c2.77-.12,9.86-1.33,11-2.1a5.44,5.44,0,0,0,2.54-3.91,12.62,12.62,0,0,0-.3-6.07C151,123.17,150,121,150,121Z"/></g><g id="iris"><path class="cls-2" d="M76.68,123.77c-3.65,1.21-4.36,6.58-3.34,8.64a7.89,7.89,0,0,0,7.11,3.76c2.82-.25,6.17-1,6.94-2.78s1.34-3.34.82-4.88-2-4.49-3.06-5S79.76,122.74,76.68,123.77Z"/><path class="cls-2" d="M132.56,121.79c-3.65,1.21-4.87,6.93-3.85,9s3.76,4.26,6.68,4,5.68-1.25,6.81-2.8a7.82,7.82,0,0,0,1.51-5c-.15-1.62-1.65-4.89-2.68-5.4S135.64,120.76,132.56,121.79Z"/></g><g id="iris_outline"><path class="cls-3" d="M80.32,129.08s0-.06.06-.06a.12.12,0,0,1,0,.07l0,.11v.21l0,.43,0,.84.06,1.71a13.61,13.61,0,0,1,0,1.69,9.85,9.85,0,0,1-.29,1.68s0,0,0,0h0a9.87,9.87,0,0,1-.16-1.7c0-.57.07-1.14.1-1.7l.23-3.28h-.05Z"/><path class="cls-3" d="M81.1,129.79,82,131c.31.4.61.81.93,1.19s.71.72,1,1.14a5.14,5.14,0,0,1,.75,1.36l0,0h0c-.4-.34-.74-.7-1.1-1.06a11.09,11.09,0,0,1-.93-1.21c-.29-.43-.54-.88-.8-1.31l-.79-1.31,0,0Z"/><path class="cls-3" d="M81.77,129.21h-.08l0-.05a26.83,26.83,0,0,0,3,.9c.5.18,1,.26,1.52.45a3.77,3.77,0,0,1,1.4.83,0,0,0,0,1,0,0l0,0a14.85,14.85,0,0,0-1.52-.4,9.1,9.1,0,0,1-1.51-.55,29.67,29.67,0,0,1-2.86-1.23l-.11-.06h.2a0,0,0,0,1,0,0S81.78,129.21,81.77,129.21Z"/><path class="cls-3" d="M81.19,128.52a7.39,7.39,0,0,1,1.93-1.85,9.61,9.61,0,0,1,1.08-.76c.38-.22.74-.44,1.15-.65h0a0,0,0,0,1,0,0,3.71,3.71,0,0,1-.91,1,7.4,7.4,0,0,1-1.15.68,7.29,7.29,0,0,0-2.1,1.55h0A0,0,0,0,1,81.19,128.52Z"/><path class="cls-3" d="M80.34,128.9c-.16-.48-.07-1-.18-1.42L80,126.06a8.66,8.66,0,0,1-.12-1.44,4.44,4.44,0,0,1,.29-1.43h0c.08.49.11,1,.16,1.42a13.41,13.41,0,0,1,0,1.42l0,1.43a13.26,13.26,0,0,0,0,1.41l0,0Z"/><path class="cls-3" d="M79.1,129.88v0h0v0h0A6,6,0,0,1,78,130.92l-1.22,1c-.43.31-.88.59-1.31.85a5.29,5.29,0,0,0-1.24.88h0l0,0a2.63,2.63,0,0,1,1-1.27,11.92,11.92,0,0,1,1.38-.77l1.3-.82a5.79,5.79,0,0,0,1.22-.91h0s0,0,0,0v0H79.1Z"/><path class="cls-3" d="M78.88,128.86a6.49,6.49,0,0,1-1.25-.58l-1.23-.62c-.41-.22-.85-.34-1.24-.58l-.58-.37a1.46,1.46,0,0,1-.54-.48,0,0,0,0,1,0,0h0a4.47,4.47,0,0,0,.65.2c.23.07.44.16.66.24a7.2,7.2,0,0,1,1.21.68l1.15.77a7.15,7.15,0,0,0,1.15.73,0,0,0,0,1,0,0A0,0,0,0,1,78.88,128.86Z"/><path class="cls-3" d="M136.11,127s0,0,.06,0a.08.08,0,0,1,0,.06l0,.11v.21l0,.43,0,.85.05,1.7a13.61,13.61,0,0,1,0,1.69,10.1,10.1,0,0,1-.28,1.69H136a9.8,9.8,0,0,1-.17-1.7c0-.57.07-1.14.1-1.7l.23-3.28h0Z"/><path class="cls-3" d="M136.89,127.68l.93,1.21c.31.4.61.81.93,1.19s.71.72,1,1.14a5.14,5.14,0,0,1,.75,1.36l0,0h0c-.4-.34-.74-.7-1.09-1.06a10,10,0,0,1-.94-1.21c-.29-.43-.54-.88-.8-1.31l-.79-1.31,0,0Z"/><path class="cls-3" d="M137.57,127.1h-.08v-.06a29.19,29.19,0,0,0,3,.91c.5.17,1,.25,1.52.44a3.67,3.67,0,0,1,1.4.84v0l0,0c-.52-.16-1-.29-1.52-.4a8.56,8.56,0,0,1-1.51-.55,27.37,27.37,0,0,1-2.86-1.23l-.11-.06h.2a.1.1,0,0,1,0,0Z"/><path class="cls-3" d="M137,126.42a7.42,7.42,0,0,1,1.93-1.86,13.15,13.15,0,0,1,1.08-.76c.38-.21.74-.44,1.15-.65l0,0v0a3.55,3.55,0,0,1-.91,1,8.86,8.86,0,0,1-1.14.69,7,7,0,0,0-2.11,1.55h0S137,126.42,137,126.42Z"/><path class="cls-3" d="M136.14,126.79a10,10,0,0,1-.18-1.42l-.19-1.42a9.74,9.74,0,0,1-.12-1.43,4.45,4.45,0,0,1,.29-1.44H136c.08.49.11,1,.16,1.42s0,.94,0,1.42v1.43c0,.47-.09,1,0,1.41l0,0Z"/><path class="cls-3" d="M134.89,127.77v0s0,0,0,0,0,0,0,0h0a6.29,6.29,0,0,1-1.13,1.06l-1.22,1c-.44.31-.88.6-1.32.85a5.29,5.29,0,0,0-1.24.88s0,0,0,0l0,0a2.61,2.61,0,0,1,1-1.28,13.63,13.63,0,0,1,1.38-.77l1.3-.81a6.2,6.2,0,0,0,1.22-.92h0s0,0,.05,0,0,0,0,0v0s0,0,0,0S134.89,127.78,134.89,127.77Z"/><path class="cls-3" d="M134.67,126.75a6.78,6.78,0,0,1-1.25-.58l-1.23-.62c-.41-.21-.85-.34-1.24-.58l-.58-.37a1.46,1.46,0,0,1-.54-.48,0,0,0,0,1,0,0h0a2.88,2.88,0,0,0,.65.2c.23.07.44.16.66.24a7.2,7.2,0,0,1,1.21.68l1.15.77a6.52,6.52,0,0,0,1.15.73,0,0,0,0,1,0,0Z"/><path class="cls-3" d="M76.75,123.57a13.42,13.42,0,0,0-3.06,3.93,5.88,5.88,0,0,0-.25,4.8,5.7,5.7,0,0,0,1.44,2,12.14,12.14,0,0,0,1,.69,9.39,9.39,0,0,0,1.12.51,10.53,10.53,0,0,0,4.89.44,8.26,8.26,0,0,0,4.46-1.83,5.46,5.46,0,0,0,1.77-4.31,7.84,7.84,0,0,0-1.67-4.52,6.38,6.38,0,0,0-4.12-2.51s-.06,0,0,0,0,0,0,0A6.22,6.22,0,0,1,86.74,125a8,8,0,0,1,1.9,4.72,5.75,5.75,0,0,1-1.94,4.69A8.67,8.67,0,0,1,82,136.3a10.85,10.85,0,0,1-5-.54,8.76,8.76,0,0,1-1.16-.55,12.3,12.3,0,0,1-1-.74,9.68,9.68,0,0,1-.86-1,5.13,5.13,0,0,1-.62-1.12,6.07,6.07,0,0,1,.34-4.95,13.4,13.4,0,0,1,3.15-3.91s0,0,.06,0S76.78,123.55,76.75,123.57Z"/><path class="cls-3" d="M133.34,121a13.3,13.3,0,0,0-3.48,3.29,7,7,0,0,0-1.36,4.47,5.73,5.73,0,0,0,2.2,4A8.22,8.22,0,0,0,135,134.6a8,8,0,0,0,7.78-4.19,6.27,6.27,0,0,0,.5-4.54,9.77,9.77,0,0,0-2.41-4.06s0,0,0-.06,0,0,.05,0a9.33,9.33,0,0,1,2.71,4,6.59,6.59,0,0,1-.4,4.85A8.22,8.22,0,0,1,135,135a8.67,8.67,0,0,1-4.48-1.92,6,6,0,0,1-2.21-4.26,7.11,7.11,0,0,1,1.47-4.57,13.5,13.5,0,0,1,3.56-3.26s.05,0,.06,0A.09.09,0,0,1,133.34,121Z"/></g><g id="pupil"><path class="cls-4" d="M80.63,129.26l1.75,1.42a2.26,2.26,0,1,1-.3-3.21,2.41,2.41,0,0,1,.66.89Z"/><path class="cls-4" d="M136,127.13l1.76,1.43a2.26,2.26,0,1,1-.31-3.21,2.17,2.17,0,0,1,.66.89Z"/><path class="cls-4" d="M80.63,129.26l1.75,1.42a2.26,2.26,0,1,1-.3-3.21,2.41,2.41,0,0,1,.66.89Z"/><path class="cls-4" d="M136,127.13l1.76,1.43a2.26,2.26,0,1,1-.31-3.21,2.17,2.17,0,0,1,.66.89Z"/><path class="cls-5" d="M80.63,129.26l1.75,1.42a2.26,2.26,0,1,1-.3-3.21,2.41,2.41,0,0,1,.66.89Z"/><path class="cls-5" d="M136,127.13l1.76,1.43a2.26,2.26,0,1,1-.31-3.21,2.17,2.17,0,0,1,.66.89Z"/></g><g id="spec"><ellipse class="cls-6" cx="86.95" cy="125.4" rx="2.18" ry="2.44" transform="translate(-45.13 201.81) rotate(-85.31)"/><ellipse class="cls-6" cx="142.37" cy="123.22" rx="2.44" ry="2.18"/></g><g id="outline"><path class="cls-3" d="M120.83,133.87a3.22,3.22,0,0,1-1.25-2.32,14.19,14.19,0,0,1-.3-2.68,11.12,11.12,0,0,1,.23-2.7,9.13,9.13,0,0,1,1-2.52s0,0,0,0a0,0,0,0,1,0,0c-.2.88-.42,1.73-.55,2.6a24.94,24.94,0,0,0-.32,2.6,13.7,13.7,0,0,0,.12,2.64,3.08,3.08,0,0,0,1.06,2.31v0Z"/><path class="cls-3" d="M149.32,134.83a4.63,4.63,0,0,0,2-2.84,11.07,11.07,0,0,0,.43-3.53,19.14,19.14,0,0,0-.51-3.53,23.87,23.87,0,0,0-1.05-3.44l0,0h0a11.81,11.81,0,0,1,1.49,3.34,13.6,13.6,0,0,1,.42,3.65,11.3,11.3,0,0,1-.62,3.6,4.8,4.8,0,0,1-2.22,2.82s0,0,0,0A0,0,0,0,1,149.32,134.83Z"/><path class="cls-3" d="M152,133.94a39.27,39.27,0,0,1-15.64,3.36,36.15,36.15,0,0,1-8-.78,33,33,0,0,1-7.6-2.65s0,0,0,0,0,0,0,0a46.32,46.32,0,0,0,7.68,2.2,44,44,0,0,0,7.93.87,39,39,0,0,0,15.62-3s0,0,0,0S152,133.93,152,133.94Z"/><path class="cls-3" d="M89.33,114.79l.34,2.35a6.76,6.76,0,0,1,.13,1.18,4.52,4.52,0,0,1-.14,1.2h0a4.84,4.84,0,0,1-.3-1.16,7.89,7.89,0,0,1,0-1.19V114.8h0Z"/><path class="cls-3" d="M83.51,115.62a8.39,8.39,0,0,1,.69,1.89,3.47,3.47,0,0,1,.14,1,2.74,2.74,0,0,1-.26,1h0a6,6,0,0,1-.19-1c0-.32,0-.64,0-1a8,8,0,0,0-.33-1.93h0Z"/><path class="cls-3" d="M77.65,116.18l.6,1.91a6.49,6.49,0,0,1,.26,1,3.87,3.87,0,0,1,0,1h0a0,0,0,0,1,0,0,3.49,3.49,0,0,1-.43-.92,5.41,5.41,0,0,1-.16-1l-.26-2h.05Z"/><path class="cls-3" d="M71.14,117.47l1,2a8.13,8.13,0,0,1,.44,1,5,5,0,0,1,.18,1.1l0,0h0a4.52,4.52,0,0,1-.6-.94,7.47,7.47,0,0,1-.35-1l-.61-2.11h0Z"/><path class="cls-3" d="M124.47,114.89l.18,2.22a8.47,8.47,0,0,1,0,1.12,4.39,4.39,0,0,1-.23,1.11h0a4.37,4.37,0,0,1-.22-1.11,6,6,0,0,1,0-1.12l.17-2.22h0Z"/><path class="cls-3" d="M141.18,113.12c0,1,0,1.91,0,2.86,0,.47.07,1,.05,1.42a8.72,8.72,0,0,1-.17,1.43h0a5.94,5.94,0,0,1-.28-1.43,7.71,7.71,0,0,1,0-1.44c.07-1,.19-1.91.34-2.85h.05Z"/><path class="cls-3" d="M135.42,113.68a8.27,8.27,0,0,1,.35,2.16,3.75,3.75,0,0,1-.06,1.11,2.8,2.8,0,0,1-.46,1s0,0,0,0h0a9.6,9.6,0,0,1,0-1.08c0-.35.11-.69.15-1a8.51,8.51,0,0,0,0-2.14h0Z"/><path class="cls-3" d="M130.47,112.85a27.47,27.47,0,0,1,.17,3,8.5,8.5,0,0,1-.08,1.51,6.25,6.25,0,0,1-.42,1.46h0l0,0a10.77,10.77,0,0,1,0-1.5c0-.5.11-1,.17-1.48a29.8,29.8,0,0,0,.18-3h.05Z"/><path class="cls-3" d="M65.72,136.55a11.16,11.16,0,0,1-1.51-3.79A8,8,0,0,1,64,130.7a6.26,6.26,0,0,1,.46-2h0l0,0c0,.69,0,1.35,0,2s0,1.32.09,2a10.83,10.83,0,0,0,1.15,3.82s0,0,0,0Z"/><path class="cls-3" d="M96.45,136.38a16.56,16.56,0,0,0,.39-6.82,23.3,23.3,0,0,0-.81-3.32,27.79,27.79,0,0,0-1.24-3.2s0,0,0,0,0,0,0,0a11.87,11.87,0,0,1,1.67,3.07,13.91,13.91,0,0,1,.74,3.43,16.52,16.52,0,0,1-.75,6.88s0,0,0,0S96.44,136.39,96.45,136.38Z"/><path class="cls-3" d="M65.67,136.37a16.89,16.89,0,0,0,3.82,1.86,25.71,25.71,0,0,0,4.15,1,38.34,38.34,0,0,0,8.5.13,53.91,53.91,0,0,0,8.37-1.47,17.28,17.28,0,0,0,7.59-3.6s0,0,.05,0,0,0,0,.05c-2,2.15-4.76,3.28-7.5,4.05a44.15,44.15,0,0,1-8.47,1.38,38.29,38.29,0,0,1-8.56-.31,25.57,25.57,0,0,1-4.16-1,17.34,17.34,0,0,1-3.81-2s0,0,0,0S65.64,136.36,65.67,136.37Z"/><path class="cls-3" d="M62.8,128.64A25.52,25.52,0,0,1,70.31,124a41.35,41.35,0,0,1,8.58-2.43,31.1,31.1,0,0,1,8.84-.74,38.1,38.1,0,0,1,4.36.72,22.34,22.34,0,0,1,4.27,1.38v.28a25,25,0,0,1-4.37,1c-1.44.22-2.86.36-4.28.5-2.83.27-5.62,0-8.43.09A43,43,0,0,0,71,126a36,36,0,0,0-7.92,3Z"/><path class="cls-3" d="M152.35,121.09c-1.35.19-2.68.23-4,.33s-2.66.24-4,.37c-2.65.26-5.29.6-7.91,1A75.52,75.52,0,0,1,128.6,124c-1.33.07-2.66.1-4,.06a20.42,20.42,0,0,1-2-.15c-.69-.07-1.39-.15-2.08-.25l-.06-.27a27.7,27.7,0,0,1,3.76-1.83,34.59,34.59,0,0,1,3.93-1.16,37.25,37.25,0,0,1,8.11-.5c2.7-.06,5.41,0,8.1.15,1.35.07,2.69.17,4,.29a36.16,36.16,0,0,1,4,.49Z"/><path class="cls-3" d="M124.68,138.81A12.67,12.67,0,0,1,120,136a10.06,10.06,0,0,1-1.8-2.11,8.78,8.78,0,0,1-1-2.56l0,0h0a23.92,23.92,0,0,0,1.41,2.3,18.68,18.68,0,0,0,1.66,2.1,12.32,12.32,0,0,0,4.44,3s0,0,0,0A0,0,0,0,1,124.68,138.81Z"/><path class="cls-3" d="M89.77,143.33a6.89,6.89,0,0,0,3.68-1,11.53,11.53,0,0,0,2.94-2.45,23.93,23.93,0,0,0,2.21-3.14,33.6,33.6,0,0,0,1.84-3.4h0s0,0,0,0a15.17,15.17,0,0,1-3.81,6.79,11.65,11.65,0,0,1-3.12,2.38,7,7,0,0,1-3.79.81s0,0,0,0S89.76,143.33,89.77,143.33Z"/><path class="cls-3" d="M70.32,141.74a19.4,19.4,0,0,1-4.51-2.93,13.93,13.93,0,0,1-1.9-1.94,11.13,11.13,0,0,1-1.37-2.33s0,0,0,0h0c.59.69,1.13,1.39,1.72,2s1.15,1.34,1.78,2a19.05,19.05,0,0,0,4.26,3.19s0,0,0,0Z"/><path class="cls-3" d="M145.69,141.39a12.81,12.81,0,0,0,6-4,16.05,16.05,0,0,0,1.95-3,16.42,16.42,0,0,0,1.3-3.38s0,0,0,0,0,0,0,0a9.84,9.84,0,0,1-.9,3.59,11.49,11.49,0,0,1-2.1,3.06,13.16,13.16,0,0,1-6.24,3.8s0,0,0,0A0,0,0,0,1,145.69,141.39Z"/></g><g id="eyebrows"><path class="cls-7" d="M98.35,113.86c-3.61-.72-7-2.47-10.62-3.08a82.49,82.49,0,0,0-8.44-.48c-3.23,0-6.32,1.2-9.41,2.46a46.89,46.89,0,0,1-9.8,3.22,22.49,22.49,0,0,1,4-3.57,35,35,0,0,1,20.37-5.87,23.29,23.29,0,0,1,10.45,2.94c1.54.88,3.24,1.61,4.29,3.46l-.79.92Z"/><path class="cls-7" d="M154,113.33c-8.35-3.28-18-7.47-26.72-3.39a34.41,34.41,0,0,1-6,2c-1.7.31-3.35.33-5.07.77a5.29,5.29,0,0,1,1.62-2.35c2.18-2.23,5.18-3.18,8-4a24.33,24.33,0,0,1,9.36-1.57c3.58.11,6.93,1.46,10.19,2.74a96.07,96.07,0,0,1,9.12,4.61l-.59,1.23Z"/></g></g></svg>