<svg id="artwork" xmlns="http://www.w3.org/2000/svg" viewBox="0 0 233 650"><defs><style>.cls-1{fill:#bfa68f;fill-rule:evenodd;}.cls-2{fill:#2d2d2d;}</style></defs><g id="mouth_sad1"><g id="lip_colour" data-name="lip colour"><path class="cls-1" d="M117,175.92c-2.38.12-5.65,1.75-8,1.61-2.66-.14-6.46-1.65-9.17-1.17-1.77.32-3.87,2.75-5.53,4.71-1.42,1.66-2.54,2.91-2.54,2.91s1.32-.41,1.73-.52a4.55,4.55,0,0,1,1.64.13,2.23,2.23,0,0,0-.26,1.08c0,.41.23,1.16.28,1.56a14.74,14.74,0,0,0,.92,2.26,1.9,1.9,0,0,0,1.09,1.06,24.15,24.15,0,0,0,6.17,1,46.92,46.92,0,0,0,12.65-.22,38,38,0,0,0,7.9-2.92c2.41-1.54.83-4.34.83-4.34l1.43,0S124.57,175.54,117,175.92Z"/></g><g id="outine"><path class="cls-2" d="M126.11,183.08a9.58,9.58,0,0,0-2.49-4.51,8.23,8.23,0,0,0-4.53-2.24,15.53,15.53,0,0,0-5.12.27c-1.71.3-3.39.74-5.17,1a9,9,0,0,1-2.7-.14l-2.58-.45a20.73,20.73,0,0,0-2.56-.3,7,7,0,0,0-2.45.42,9.94,9.94,0,0,0-3.73,3.46,23,23,0,0,1-1.69,2A11.2,11.2,0,0,1,91,184.2h0a10.36,10.36,0,0,0,2-1.69,24.69,24.69,0,0,0,1.59-2.07,10.21,10.21,0,0,1,3.69-3.78,6.83,6.83,0,0,1,2.66-.57,17.77,17.77,0,0,1,2.66.25l2.59.45a8.3,8.3,0,0,0,2.52.16c1.69-.22,3.4-.69,5.13-1a14.19,14.19,0,0,1,5.32-.12,8.59,8.59,0,0,1,4.59,2.58,10.08,10.08,0,0,1,2.35,4.66Z"/><path class="cls-2" d="M96.57,183.72l6.37-.11,6.37-.16c2.12,0,4.25.09,6.37.08s4.25,0,6.36-.21c-2.11.17-4.23.27-6.36.43a9,9,0,0,0-3.18,1,6.15,6.15,0,0,1-3.18.62c-2.13-.05-4.26-1.08-6.38-1.3A43.92,43.92,0,0,0,96.57,183.72Z"/><path class="cls-2" d="M95,184.28a3,3,0,0,0,.23,2c.24.65.54,1.26.79,1.92a4.16,4.16,0,0,1,.16.5c0,.21.07.25.21.35a3,3,0,0,0,.9.38,16.85,16.85,0,0,0,2,.4,57.56,57.56,0,0,0,8.2.58,60.39,60.39,0,0,0,8.2-.24,26.65,26.65,0,0,0,4-1c1.31-.43,2.6-.9,3.89-1.39h0l-3.83,1.58a25.45,25.45,0,0,1-4,1.29,37.91,37.91,0,0,1-8.3.39,37.06,37.06,0,0,1-8.27-.74,16.44,16.44,0,0,1-2-.54,3.79,3.79,0,0,1-1-.49A.78.78,0,0,1,96,189a1.12,1.12,0,0,1-.08-.28,3.89,3.89,0,0,0-.12-.49c-.2-.66-.47-1.3-.68-2a3.16,3.16,0,0,1-.15-2Z"/><path class="cls-2" d="M123.52,187.78a2.3,2.3,0,0,0,.82-1.06,8.41,8.41,0,0,0,.42-1.19,7.31,7.31,0,0,0,0-1.24,1.51,1.51,0,0,0-.13-.63,1.18,1.18,0,0,0-.4-.54h0a2,2,0,0,1,.57.43,1.92,1.92,0,0,1,.43.62,2.22,2.22,0,0,1,.09,1.5,2.41,2.41,0,0,1-.64,1.34,3.66,3.66,0,0,1-1.21.79Z"/><path class="cls-2" d="M120.48,183.4a32.49,32.49,0,0,1,3.71-.54,10.49,10.49,0,0,1,3.77.47,9.32,9.32,0,0,1,3.39,1.73,11.33,11.33,0,0,1,1.37,1.31c.45.44.82.95,1.23,1.41h0a14.82,14.82,0,0,0-1.36-1.27,12.09,12.09,0,0,0-1.52-1.05,15.3,15.3,0,0,0-3.28-1.53,18.67,18.67,0,0,0-3.59-.58,19.18,19.18,0,0,0-3.71,0Z"/><path class="cls-2" d="M86.21,187.05a8.6,8.6,0,0,1,2.55-2.32,9.62,9.62,0,0,1,3.29-1.14,13.7,13.7,0,0,1,3.44-.26c1.15.07,2.28.22,3.41.36h0a22.65,22.65,0,0,0-3.4.13c-1.12.12-2.24.2-3.34.39a18.47,18.47,0,0,0-3.18.95,6.94,6.94,0,0,0-2.76,1.88Z"/></g></g></svg>