<svg id="artwork" xmlns="http://www.w3.org/2000/svg" viewBox="0 0 233 650"><defs><style>.cls-1{fill:#bfa68f;fill-rule:evenodd;}.cls-2{fill:#2d2d2d;}</style></defs><g id="mouth_happy3"><g id="lip_colour" data-name="lip colour"><path class="cls-1" d="M90.23,180s0,4.18,6.51,6.77c2.29.9,7.35,2.69,10.45,2.76,7.36.18,11.74-2.22,14-3,6-2.1,4.27-5,4.27-5l1-.42a38.88,38.88,0,0,1-4.26-3.67c-2.31-2.31-3.66-3.34-4.71-3.42-3.28-.25-6.28,2.63-9.9,2.9-1.45.1-6.42-4-10.34-2.37-2.46,1-2.89,2-5,4a5,5,0,0,1-3,1Z"/></g><g id="outine"><path class="cls-2" d="M134.13,177.37c-1.82,1.18-3.91,1.88-5.72,3.08a14.56,14.56,0,0,1-3,1.23c-3.12,1.09-6.44.84-9.65,1.46-10.48,1.38-23.21,1.94-30.7-6.88l.07-.07c8.19,7.64,20.12,7.29,30.54,6.29,3.19-.54,6.52-.17,9.64-1.16,2.15-.46,3.91-1.78,5.92-2.58,1-.44,1.95-.93,2.89-1.46l0,.09Z"/><path class="cls-2" d="M89,179.36A4.65,4.65,0,0,0,93.27,177a8.25,8.25,0,0,1,4.29-3,3.7,3.7,0,0,1,2.7.12l2.47.84,4.91,1.74h-.33c3.45-1.53,6.93-3.63,10.85-3.33,2,.64,3.18,2.19,4.53,3.61,1.07,1.15,2.44,3.21,3.75,4.05l0,.09c-1.51-.63-3-2.56-4.24-3.65s-2.62-2.69-4.22-3.11c-3.58-.11-7.17,1.81-10.44,3.17l-.16-.06-4.85-1.89-2.44-.91a3.06,3.06,0,0,0-2.35-.17,8,8,0,0,0-4.13,2.77A4.87,4.87,0,0,1,89,179.46v-.1Z"/><path class="cls-2" d="M125.39,181.28c2.29,3.48-4.62,5.72-6.93,6.81-8.37,3.53-18.93,2.53-25.87-3.57-1.26-1.24-2.67-2.81-2.52-4.7h.1c0,1.81,1.43,3.25,2.7,4.38,7,5.62,17,6.1,25.36,3.25a35.13,35.13,0,0,0,4.92-2.13,5.64,5.64,0,0,0,2.09-1.55,2.14,2.14,0,0,0,.07-2.44l.08-.06Z"/><path class="cls-2" d="M79.75,179a5.4,5.4,0,0,0,2.62-1.87,6.23,6.23,0,0,0,.65-1.44c.2-.5.32-1,.52-1.57h0a4.93,4.93,0,0,1-.09,1.71,3.81,3.81,0,0,1-.81,1.54A5.58,5.58,0,0,1,79.77,179s0,0,0,0Z"/></g></g></svg>