<svg id="artwork" xmlns="http://www.w3.org/2000/svg" viewBox="0 0 300 630"><defs><style>.cls-1{fill:#d9cec5;}.cls-2{fill:#f5d6c0;}.cls-2,.cls-5{fill-rule:evenodd;}.cls-3{fill:#9b7942;}.cls-4,.cls-5{fill:#2d2d2d;}.cls-6{fill:none;stroke:#2d2d2d;stroke-miterlimit:10;}.cls-7{fill:#f2eae4;}.cls-8{fill:#462e13;}</style></defs><g id="eyes_sad4"><g id="white"><path class="cls-1" d="M109.78,111.73a6.51,6.51,0,0,1-1.53.5c-2.77.48-5.51,3.4-6.71,5.55-2.86,5.15.88,12.5.88,12.5s9.88,6,18.23,4.88c4.25-.56,11.88-6,11.88-6s.43-11.49-2.4-14.66c-2.27-2.54-4.77-3.09-7.8-4A17.82,17.82,0,0,0,109.78,111.73Z"/><path class="cls-1" d="M185.84,111.8a5.65,5.65,0,0,0,1.46.47c2.62.46,6.41,4.86,7.24,7,1.76,4.65-2.91,10.16-2.91,10.16s-9.51,5.13-17.43,4.09c-4-.53-10.48-6.25-10.48-6.25s-2.24-11.87.44-14.87c2.16-2.41,6.38-3.26,9.26-4.1C177.25,107.22,181.91,110,185.84,111.8Z"/></g><g id="eyelids"><path class="cls-2" d="M162.84,116.33s9.56-2,11-2.13a34.62,34.62,0,0,1,12.83,1.08c.67.19,7.29,3.12,7.19,2.66a4.86,4.86,0,0,0-2.06-3.45c-2.12-1.21-3.84-2.64-5.8-3.71a21.71,21.71,0,0,0-21.82.42C163.42,111.67,162.84,116.33,162.84,116.33Z"/><path class="cls-2" d="M100.7,119.05c.29.5,7.35-1.73,8.85-2.08a40.54,40.54,0,0,1,14.26-.72c.73.11,8.14,1.27,8,.8a8,8,0,0,0-2.68-3.52,10.53,10.53,0,0,0-5.53-2.17c-8.2-1.46-14.35-1.13-20.77,4C102.05,116,100.05,118,100.7,119.05Z"/></g><g id="iris"><path class="cls-3" d="M117.4,135.56c-3.6-.09-7.18-3.31-8.24-6.3-1.76-4.95,6.55-8.39,11.88-5.88a7.69,7.69,0,0,1,4.09,4.05C126.7,132.42,122.63,135.69,117.4,135.56Z"/><path class="cls-3" d="M183.61,132.2c-2,1.51-6.61,1.72-9.94.38-5.52-2.23-3.58-10,1.76-11.68a9.32,9.32,0,0,1,6,.69C186.91,124,187.27,129.49,183.61,132.2Z"/></g><g id="iris_outline"><path class="cls-4" d="M110.41,129.28a54.05,54.05,0,0,1,7.51-.81c0,.06,0,0,0,.05v0c-2.47.29-5,.75-7.46.79Z"/><path class="cls-4" d="M112.15,124.29l2.72,2.63a32,32,0,0,1,2.69,2.65,38,38,0,0,1-5.41-5.28Z"/><path class="cls-4" d="M121.39,124.78a38.11,38.11,0,0,1-3.18,5.07l0,0,.08-.05s0,.05-.12.16c.71-1.94,2.34-3.42,3.26-5.16Z"/><path class="cls-4" d="M116.94,123.61A21,21,0,0,1,117,128a9.08,9.08,0,0,1-.14-2.2s0-2.26.07-2.21Z"/><path class="cls-4" d="M125,129.31c-1.92.27-3.94,1-5.84.88a45,45,0,0,1,5.84-.88Z"/><path class="cls-4" d="M113.68,133.72a33.62,33.62,0,0,1,3.62-4.22,34,34,0,0,1-3.62,4.22Z"/><path class="cls-4" d="M121.55,134.24a59.18,59.18,0,0,1-4.27-5.24,40.53,40.53,0,0,1,4.27,5.24Z"/><path class="cls-4" d="M120.14,135.11c6.71-1.45,6.64-8.23,1.09-11.24a9.77,9.77,0,0,0-9.73.46c-2.86,2.17-2,6.47.44,8.72a8.89,8.89,0,0,0,4.58,2.38l0,.09c-7.37-.11-11.55-10.93-3-13.2,4.45-1.19,9.88.54,11.78,5,1.77,4-1.21,7.27-5.09,7.91l0-.1Z"/><path class="cls-4" d="M173.51,131a44.54,44.54,0,0,1,4.36-4.11s.39-.32.3-.14l0,0c.07-.05-.06,0-.09.08l-.14.13a48,48,0,0,1-4.41,4.06Z"/><path class="cls-4" d="M178.1,132.77a44.24,44.24,0,0,1-.24-6c0-.05,0-.51.08-.32h0c0-.09,0,.07,0,.11v.2a48,48,0,0,1,.18,6Z"/><path class="cls-4" d="M170.2,126.07c2.12.61,5.33,1.26,7.32,1.94a38,38,0,0,1-7.32-1.94Z"/><path class="cls-4" d="M178.46,121.77a29.55,29.55,0,0,1,0,5.32h0l0-.07h0l0,.15c-.46-1.78.15-3.67,0-5.41Z"/><path class="cls-4" d="M175,123c.28,1.76,2.13,3.19,1.72,5.06-.12-1.76-1.57-3.33-1.72-5.06Z"/><path class="cls-4" d="M182.72,122.4a23.82,23.82,0,0,1-3.3,5.55c.93-1.92,2.39-3.65,3.3-5.55Z"/><path class="cls-4" d="M181.06,132.59c-.66-1-1.36-1.92-2.09-2.87-.15-.33-.49-.73-.46-1.08,0,0,0,0,0,0s0,0,0,0v0s.05,0,.06,0a37.27,37.27,0,0,1,2.52,4Z"/><path class="cls-4" d="M185.35,128.35c-1.21,0-2.35.05-3.54.12-.36-.05-.89,0-1.16-.22,0,0,0,0,0,0s0,0,0,0v0s0-.06,0,0a36.63,36.63,0,0,1,4.7.14Z"/><path class="cls-4" d="M184.19,131.7c7.59-10.69-13.12-15.56-13.26-3.68a5.49,5.49,0,0,0,2.92,4,9.9,9.9,0,0,0,10.35-.31l.06.07c-4.78,4.94-17.11,1.29-13.77-6.63,4.17-9.83,21.47-2.66,13.7,6.56Z"/></g><g id="pupil"><path class="cls-5" d="M119.37,130.79l-.17,1.5a3.83,3.83,0,0,1-4.21-1.56,2.18,2.18,0,0,1,1.58-3.18,3.84,3.84,0,0,1,4.21,1.57,2.15,2.15,0,0,1,.28,1.22Z"/><path class="cls-5" d="M180.62,128.52l.52,1.35a4.76,4.76,0,0,1-4.9.64c-1.55-.74-1.87-2.23-.73-3.31a4.75,4.75,0,0,1,4.91-.63,2.75,2.75,0,0,1,1.09.87Z"/><path class="cls-5" d="M119.37,130.79l-.17,1.5a3.83,3.83,0,0,1-4.21-1.56,2.18,2.18,0,0,1,1.58-3.18,3.84,3.84,0,0,1,4.21,1.57,2.15,2.15,0,0,1,.28,1.22Z"/><path class="cls-5" d="M180.62,128.52l.52,1.35a4.76,4.76,0,0,1-4.9.64c-1.55-.74-1.87-2.23-.73-3.31a4.75,4.75,0,0,1,4.91-.63,2.75,2.75,0,0,1,1.09.87Z"/><path class="cls-6" d="M119.37,130.79l-.17,1.5a3.83,3.83,0,0,1-4.21-1.56,2.18,2.18,0,0,1,1.58-3.18,3.84,3.84,0,0,1,4.21,1.57,2.15,2.15,0,0,1,.28,1.22Z"/><path class="cls-6" d="M180.62,128.52l.52,1.35a4.76,4.76,0,0,1-4.9.64c-1.55-.74-1.87-2.23-.73-3.31a4.75,4.75,0,0,1,4.91-.63,2.75,2.75,0,0,1,1.09.87Z"/></g><g id="spec"><path class="cls-7" d="M121.74,124.94c-2,1.51.63,3.63,2.67,3.42a2.68,2.68,0,0,0,2.43-1.85c.38-2.07-3.31-2.87-5-1.62Z"/><ellipse class="cls-7" cx="185.35" cy="124.77" rx="2.03" ry="2.85" transform="translate(41.43 295.68) rotate(-83.85)"/><path class="cls-4" d="M159.9,93a3.35,3.35,0,0,1-.61-2.3,5.83,5.83,0,0,1,.65-2.37,3.87,3.87,0,0,1,1.73-1.87,3,3,0,0,1,1.29-.26,3.29,3.29,0,0,1,.64.11,6.29,6.29,0,0,1,.58.26l0,.1-.58.09c-.18,0-.35.1-.52.14a4,4,0,0,0-.91.44,5.86,5.86,0,0,0-1.51,1.4,5.59,5.59,0,0,0-.86,2A3.28,3.28,0,0,0,160,93Z"/><path class="cls-4" d="M132.9,93.32a3.89,3.89,0,0,0,.09-2.16,4.38,4.38,0,0,0-1-1.85,6.77,6.77,0,0,0-1.64-1.2l-.45-.24-.48-.21-.51-.18-.55-.16v-.1A5.62,5.62,0,0,1,129,87a6.2,6.2,0,0,1,.62-.06l.62.06.6.17a4.11,4.11,0,0,1,1.85,1.62,4.7,4.7,0,0,1,.82,2.26,4,4,0,0,1-.48,2.28Z"/></g><g id="outline"><path class="cls-4" d="M106.46,137.73a29.17,29.17,0,0,1-4.36-3.57,17.93,17.93,0,0,1-1.89-2.1,14.18,14.18,0,0,1-1.45-2.43s0,0,0,0h0c.63.71,1.19,1.45,1.8,2.15s1.17,1.44,1.79,2.14a29.55,29.55,0,0,0,4.1,3.8,0,0,0,0,1,0,0S106.46,137.74,106.46,137.73Z"/><path class="cls-4" d="M187.24,137.91a12,12,0,0,0,7.12-4.63,22,22,0,0,0,2.24-3.69,32.87,32.87,0,0,0,1.67-4s0,0,0,0,0,0,0,0a16.66,16.66,0,0,1-1.26,4.22,16.38,16.38,0,0,1-2.39,3.72,13.72,13.72,0,0,1-3.32,2.9,11.19,11.19,0,0,1-4.1,1.53s0,0,0,0S187.23,137.91,187.24,137.91Z"/><path class="cls-4" d="M132.85,116.23a21.49,21.49,0,0,0-8.13-4.27,23.55,23.55,0,0,0-9.11-.64,29.17,29.17,0,0,0-8.72,2.65l-2,1-2,1.21L101,117.59l-1.78,1.49-.07-.07,1.55-1.76,1.75-1.58,1.91-1.4,2-1.2a24.48,24.48,0,0,1,9.08-2.55,23.79,23.79,0,0,1,9.34,1,21.45,21.45,0,0,1,8.06,4.66Z"/><path class="cls-4" d="M101.09,129.61c2.57,1.32,5.14,2.65,7.8,3.75a22.73,22.73,0,0,0,8.31,2,18.31,18.31,0,0,0,8.24-1.93,45.37,45.37,0,0,0,7.32-4.52s.05,0,.05,0,0,0,0,.05a33.6,33.6,0,0,1-7.13,4.94,17.29,17.29,0,0,1-8.47,1.86,23,23,0,0,1-8.39-2.16c-2.65-1.16-5.19-2.54-7.73-3.91,0,0,0,0,0,0S101.07,129.6,101.09,129.61Z"/><path class="cls-4" d="M162.81,112.45a16.63,16.63,0,0,1,8.29-4.1,22.64,22.64,0,0,1,9.34.34,27.43,27.43,0,0,1,8.65,3.61c.66.43,1.28.92,1.92,1.37s1.19,1,1.78,1.54,1.09,1.13,1.62,1.7,1,1.24,1.41,1.86l-.08.07-1.65-1.62c-.6-.49-1.16-1-1.76-1.48s-1.21-.93-1.84-1.36-1.27-.84-1.92-1.23a33.89,33.89,0,0,0-8.33-3.68,22.72,22.72,0,0,0-9.06-.64,16.62,16.62,0,0,0-8.3,3.7Z"/><path class="cls-4" d="M194,128.58c-2.46,1.19-4.9,2.43-7.41,3.52a24.22,24.22,0,0,1-8,2.23A18.3,18.3,0,0,1,167,130.56a29.68,29.68,0,0,1-3.13-2.68l.06-.08c1.18.72,2.28,1.52,3.46,2.18.58.34,1.15.7,1.76,1s1.18.65,1.81.88a17.28,17.28,0,0,0,7.7,1.68,24.18,24.18,0,0,0,7.82-1.88c2.54-1,5-2.1,7.55-3.16Z"/><path class="cls-4" d="M168.54,136.93a25.9,25.9,0,0,1-4.85-4.85,14.6,14.6,0,0,1-1.92-2.92,2.67,2.67,0,0,1-.15-2,1.72,1.72,0,0,1,.65-.78,1.06,1.06,0,0,1,.94-.12l0,.09a1.13,1.13,0,0,0-.89,1,2.21,2.21,0,0,0,.38,1.33c.55.92,1.06,2,1.66,2.89a31.37,31.37,0,0,0,4.27,5.24Z"/><path class="cls-4" d="M127,138.06c.78-.92,1.67-1.73,2.52-2.57s1.72-1.66,2.51-2.53a9,9,0,0,0,1-1.36,10.37,10.37,0,0,0,.69-1.48,2,2,0,0,0,0-1.44,1.41,1.41,0,0,0-1.15-1v-.09a1.56,1.56,0,0,1,1.77.71,2.47,2.47,0,0,1,.31,2,5,5,0,0,1-.82,1.76,10,10,0,0,1-1.28,1.38c-.89.83-1.83,1.59-2.76,2.34s-1.9,1.46-2.77,2.27Z"/><path class="cls-4" d="M130.87,115.33a19.28,19.28,0,0,1,2.22,6.9,11.52,11.52,0,0,1-.29,5.48,9.75,9.75,0,0,1-.7,1.71l-.09,0c0-.62.06-1.21.1-1.81s.06-1.18.08-1.76c0-1.17.15-2.34.1-3.52a21.64,21.64,0,0,0-1.51-6.93Z"/><path class="cls-4" d="M102.68,130.74a11.55,11.55,0,0,1-1.75-2.83,12.46,12.46,0,0,1-.89-3.24,10.09,10.09,0,0,1-.05-3.38,10.37,10.37,0,0,1,.45-1.63,8.17,8.17,0,0,1,.75-1.51l.1,0c-.05.56-.11,1.1-.17,1.64s-.1,1.07-.14,1.6a27.92,27.92,0,0,0-.15,3.17,13,13,0,0,0,.57,3.15,11.7,11.7,0,0,0,1.36,2.94Z"/><path class="cls-4" d="M164.21,111.62a21,21,0,0,0-1.17,4.24,23.75,23.75,0,0,0-.35,4.36,24.24,24.24,0,0,0,.57,4.27l.25,1,.33,1c.14.32.28.66.41,1s.33.65.49,1l-.08.06c-.27-.26-.53-.53-.8-.81s-.44-.62-.65-.94l-.53-1-.39-1.08a13.36,13.36,0,0,1-.4-4.53,22.15,22.15,0,0,1,.67-4.45,19.28,19.28,0,0,1,1.56-4.18Z"/><path class="cls-4" d="M191.6,129.43a8.74,8.74,0,0,0,1.79-2.72,11,11,0,0,0,.81-3.12,14.44,14.44,0,0,0-.16-3.16,11.92,11.92,0,0,0-.3-1.56l-.22-.79c-.09-.25-.18-.52-.27-.79l.09-.06c.2.21.39.42.58.64s.32.48.48.73a7.94,7.94,0,0,1,.63,1.64,8.12,8.12,0,0,1,0,3.47,9.65,9.65,0,0,1-3.33,5.8Z"/><path class="cls-4" d="M194.7,120.07a2.17,2.17,0,0,0-1.15-1.63,17.73,17.73,0,0,0-1.87-1,27,27,0,0,0-4-1.57,32.62,32.62,0,0,0-8.37-1.37,48,48,0,0,0-8.46.61c-2.81.39-5.59,1-8.4,1.61l0-.09a38.18,38.18,0,0,1,8.27-2.51,34,34,0,0,1,8.66-.42,31.77,31.77,0,0,1,8.48,1.7,26.44,26.44,0,0,1,3.95,1.77,16.54,16.54,0,0,1,1.85,1.12,2.3,2.3,0,0,1,1.13,1.81Z"/><path class="cls-4" d="M100.84,119.41a15.69,15.69,0,0,1,3.62-1.43c1.25-.38,2.51-.72,3.78-1a57.49,57.49,0,0,1,7.73-1.19,43.68,43.68,0,0,1,7.84-.1c1.31.13,2.61.31,3.89.56a35.86,35.86,0,0,1,3.8,1l0,.1c-1.29-.13-2.58-.27-3.87-.38s-2.57-.2-3.85-.25c-2.57-.11-5.15-.22-7.72-.1a58.4,58.4,0,0,0-7.69.88c-1.27.22-2.54.5-3.79.81a16,16,0,0,0-3.67,1.23Z"/></g><g id="eyebrows"><path class="cls-8" d="M102.39,107c6.43-1.94,13.94-2.48,19-7.32,1.93-1.91,3-4.48,5.12-6.33A13.26,13.26,0,0,1,130,90.81l.22.2c-2.3,8.7-11.11,13.71-19.5,14.94-2.77.53-5.54.87-8.28,1.37l-.07-.29Z"/><path class="cls-8" d="M199.26,110.23c-6.93-1.23-13.32-4.43-19.56-7.54-4.73-2.35-9.41-5-13.1-8.84-1.23-1.32-2.58-2.7-3-4.53l.28-.11a19.74,19.74,0,0,0,4.07,3c4.34,2.52,8.8,5.62,13,8.39,5.87,3.58,11.85,7.24,18.43,9.34l-.06.29Z"/></g></g></svg>