<svg id="artwork" xmlns="http://www.w3.org/2000/svg" viewBox="0 0 300 630"><defs><style>.cls-1{fill:#d9cec5;}.cls-2{fill:#9b7942;}.cls-3,.cls-4{fill:#2d2d2d;}.cls-4,.cls-7{fill-rule:evenodd;}.cls-5,.cls-7{fill:none;stroke:#2d2d2d;stroke-miterlimit:10;}.cls-6{fill:#f2eae4;}.cls-8{fill:#462e13;}</style></defs><g id="eyes_tired6"><g id="white"><path class="cls-1" d="M110.55,116.23c-3.41,1.85-6.12,2.1-6.85,3.36s-.22,5.13.26,6.62,5.25,3.63,8.21,4.21,7.84-.56,10.35-1.13,5.82-3,6.78-3.77,3.7-3.06,3.87-5a6.08,6.08,0,0,0-.63-3.9c-.65-1.48-4-3.4-7.37-2.75S110.55,116.23,110.55,116.23Z"/><path class="cls-1" d="M187.83,116.92c3.56,1.55,5.94,3.39,6.78,4.58a6.6,6.6,0,0,1,.62,4.81c-.35,1.53-4,3.95-6.89,4.77s-8.8.21-11.34-.14-6.05-2.51-7.07-3.2-4-2.74-4.27-4.61-1-7-.46-8.52,5.13-1.17,8.53-.8S187.83,116.92,187.83,116.92Z"/></g><g id="iris"><path class="cls-2" d="M121.58,113.05a1.73,1.73,0,0,0-.42-.1c-3.15,1.09-6.33,2.07-9.41,3.36a6.68,6.68,0,0,0-.12,5.6,7.07,7.07,0,0,0,6.63,2.87c2.5-.46,5.48-1.29,6-3s1-3.59.36-4.92S122.54,113.42,121.58,113.05Z"/><path class="cls-2" d="M183.18,115.6c-2.76-1.11-5.76-1.08-8.69-1.42a10.4,10.4,0,0,0-2.3,3.72c-.45,1.32.1,3.12.75,4.67s3.56,2.11,6,2.35a6.78,6.78,0,0,0,6.11-3.28,6.44,6.44,0,0,0-.7-5.59Z"/></g><g id="iris_outline"><path class="cls-3" d="M117.72,118.42s0,0,.06-.06,0,0,0,.06l0,.1,0,.19,0,.38.1.75.2,1.52a9.64,9.64,0,0,1,.14,1.51,7.32,7.32,0,0,1-.14,1.53h0a7.67,7.67,0,0,1-.3-1.5c-.07-.51,0-1,0-1.53l0-1.51,0-.76v-.57s0-.18,0-.11h0Z"/><path class="cls-3" d="M118.48,119c.63.66,1.24,1.34,1.87,2a12.51,12.51,0,0,1,1,.93,4.21,4.21,0,0,1,.76,1.17,0,0,0,0,1,0,0h0c-.39-.27-.72-.56-1.07-.85a7.54,7.54,0,0,1-.94-1c-.56-.73-1.08-1.48-1.62-2.22l0,0Z"/><path class="cls-3" d="M119,118.42H119v-.05a27.45,27.45,0,0,0,2.73.54c.47.11.93.14,1.39.27a3.23,3.23,0,0,1,1.32.66,0,0,0,0,1,0,0v0c-.48-.09-.93-.15-1.4-.21a7,7,0,0,1-1.39-.37,26.52,26.52,0,0,1-2.65-.88l-.12-.06h.2a0,0,0,0,1,0,0Z"/><path class="cls-3" d="M118.45,117.85A6.84,6.84,0,0,1,120,116a9.18,9.18,0,0,1,.9-.77c.33-.22.63-.45,1-.65h0v0a3,3,0,0,1-.71,1,6.7,6.7,0,0,1-1,.71,6.35,6.35,0,0,0-1.76,1.54h0Z"/><path class="cls-3" d="M117.73,118.25l-.41-1.47a3.26,3.26,0,0,1-.17-.75,2.15,2.15,0,0,1,.1-.78h0a2.25,2.25,0,0,1,.34.72,3.16,3.16,0,0,1,.07.76l.07,1.53h0Z"/><path class="cls-3" d="M116.72,118.33v0s0,0,0,0,0,0,0,0h0a5.4,5.4,0,0,1-.92,1l-1,1a12.32,12.32,0,0,1-1.1.87,5.12,5.12,0,0,0-1,.87h0l0,0a2.36,2.36,0,0,1,.78-1.24,9.44,9.44,0,0,1,1.18-.8l1.09-.82a5.64,5.64,0,0,0,1-.91v0h0s0,0,0,0v.06h0S116.72,118.34,116.72,118.33Z"/><path class="cls-3" d="M116.42,118.34a18.92,18.92,0,0,1-1.8-.59,6.54,6.54,0,0,1-.87-.34,4,4,0,0,1-.77-.57.08.08,0,0,1,0,0,0,0,0,0,1,0,0,2.8,2.8,0,0,1,1,.16,4.4,4.4,0,0,1,.83.44c.54.32,1.08.63,1.64.9v0A0,0,0,0,1,116.42,118.34Z"/><path class="cls-3" d="M111.86,117a6.22,6.22,0,0,0-.53,3.49,4.46,4.46,0,0,0,2,2.84,7.77,7.77,0,0,0,3.31,1.19,9.08,9.08,0,0,0,3.52-.21,7.1,7.1,0,0,0,3-1.62,4.92,4.92,0,0,0,1.51-3,6.82,6.82,0,0,0-2.75-6.14s0,0,0,0,0,0,0,0a6.72,6.72,0,0,1,3.22,6.25,5.17,5.17,0,0,1-1.67,3.31,7.47,7.47,0,0,1-3.3,1.65,9.16,9.16,0,0,1-3.65.13,8.1,8.1,0,0,1-3.4-1.31,4.65,4.65,0,0,1-2-3,6.36,6.36,0,0,1,.61-3.54s0,0,0,0S111.86,117,111.86,117Z"/><path class="cls-3" d="M178.89,118.8c.05-.08,0,.06,0,.09v.19l0,.36.05.73.1,1.45a14.3,14.3,0,0,1,.09,1.46,7.22,7.22,0,0,1-.19,1.47h-.05a8.29,8.29,0,0,1-.26-1.46,10,10,0,0,1,0-1.45l.08-1.47,0-.73,0-.37,0-.18v-.09a.08.08,0,0,1,0-.06c.1,0,0,0,.06.05h-.05Z"/><path class="cls-3" d="M178.3,119.42c-.46.75-.89,1.51-1.37,2.26a7.78,7.78,0,0,1-.81,1,11.76,11.76,0,0,1-1,.89h0v0a4,4,0,0,1,.63-1.19c.26-.36.59-.64.88-1,.55-.66,1.08-1.35,1.63-2h0Z"/><path class="cls-3" d="M177.68,118.85h.2l-.12.07A26.42,26.42,0,0,1,175.3,120a7,7,0,0,1-1.3.47c-.45.09-.87.18-1.32.3,0,0,0,0,0,0a0,0,0,0,1,0,0,3.1,3.1,0,0,1,1.21-.74c.43-.17.87-.23,1.3-.37a26.47,26.47,0,0,0,2.58-.73v.05h-.07a0,0,0,0,1,0,0A0,0,0,0,0,177.68,118.85Z"/><path class="cls-3" d="M178.15,118.33a6.07,6.07,0,0,0-1.81-1.32,6.69,6.69,0,0,1-1-.6,2.8,2.8,0,0,1-.76-.91l0,0,0,0c.36.17.67.36,1,.54a11.3,11.3,0,0,1,.92.67,6.47,6.47,0,0,1,1.63,1.63s0,0,0,0Z"/><path class="cls-3" d="M178.87,118.63l-.07-1.47a3,3,0,0,1,0-.73,2.39,2.39,0,0,1,.28-.72h0a1.81,1.81,0,0,1,.17.74,3.06,3.06,0,0,1-.1.73l-.28,1.44h0Z"/><path class="cls-3" d="M179.94,119.5v0s0,0,0,0,0,0,.05,0h0a5.22,5.22,0,0,0,1.06.79l1.11.7a9.35,9.35,0,0,1,1.19.66,2.21,2.21,0,0,1,.85,1.14l0,0h0a5.18,5.18,0,0,0-1.08-.74,12.15,12.15,0,0,1-1.12-.75l-1-.85a5.27,5.27,0,0,1-1-.93h0v0h0v0s0,0,0,0Z"/><path class="cls-3" d="M180.16,118.56c.64-.36,1.24-.77,1.86-1.19a5.6,5.6,0,0,1,.94-.57,3.43,3.43,0,0,1,1.1-.28l0,0v0a6.11,6.11,0,0,1-.88.68,7,7,0,0,1-1,.48c-.67.31-1.34.63-2,.89l0,0Z"/><path class="cls-3" d="M184.26,116.56a6.58,6.58,0,0,1,1.1,3.26A4.33,4.33,0,0,1,184,123a7.28,7.28,0,0,1-3,1.72,8.71,8.71,0,0,1-3.48.34,7.72,7.72,0,0,1-3.35-1.1,5,5,0,0,1-2.12-2.85,6.29,6.29,0,0,1,2.11-6.38,0,0,0,0,1,0,0s0,0,0,0a6.44,6.44,0,0,0-1.66,6.2,4.85,4.85,0,0,0,1.91,2.58,7.31,7.31,0,0,0,3.12,1.11,8.41,8.41,0,0,0,3.35-.24,6.92,6.92,0,0,0,3-1.58,4.13,4.13,0,0,0,1.38-3,6.45,6.45,0,0,0-1-3.23s0,0,0,0S184.25,116.54,184.26,116.56Z"/></g><g id="pupil"><path class="cls-4" d="M118.06,119.12l-2,.44a2,2,0,1,1,2.43,1.57,1.85,1.85,0,0,1-1,0Z"/><path class="cls-4" d="M178.66,119.49l-1.52,1.21a2,2,0,1,0,.29-2.76,2,2,0,0,0-.58.77Z"/><path class="cls-4" d="M118.06,119.12l-2,.44a2,2,0,1,1,2.43,1.57,1.85,1.85,0,0,1-1,0Z"/><path class="cls-4" d="M178.66,119.49l-1.52,1.21a2,2,0,1,0,.29-2.76,2,2,0,0,0-.58.77Z"/><path class="cls-5" d="M118.06,119.12l-2,.44a2,2,0,1,1,2.43,1.57,1.85,1.85,0,0,1-1,0Z"/><path class="cls-5" d="M178.66,119.49l-1.52,1.21a2,2,0,1,0,.29-2.76,2,2,0,0,0-.58.77Z"/></g><g id="spec"><ellipse class="cls-6" cx="121.67" cy="116.43" rx="2.19" ry="1.96" transform="matrix(0.1, -1, 1, 0.1, -6.07, 226.17)"/><ellipse class="cls-6" cx="182.12" cy="118.03" rx="1.88" ry="2.1" transform="translate(-18.31 34.81) rotate(-10.4)"/></g><g id="outline"><path class="cls-3" d="M134.23,116.59a21.67,21.67,0,0,0-9.38-2,24.35,24.35,0,0,0-4.71.43,25,25,0,0,0-4.47,1.44c-1.46.63-2.88,1.39-4.31,2.15l-4.26,2.18a93.73,93.73,0,0,1-8.81,4.33l-.17-.24a37.76,37.76,0,0,1,7.47-6.68,17.44,17.44,0,0,1,2.23-1.28c.78-.38,1.5-.68,2.28-1,1.53-.63,3.12-1.2,4.74-1.71a26.19,26.19,0,0,1,5-1.14,25.52,25.52,0,0,1,5.1,0,21.49,21.49,0,0,1,9.45,3.17Z"/><path class="cls-3" d="M103.5,125a6.06,6.06,0,0,0,3,3.51,13.47,13.47,0,0,0,4.43,1.56,21.86,21.86,0,0,0,9.35-.47,25.09,25.09,0,0,0,8.32-4.19,27.34,27.34,0,0,0,3.47-3.16,36.88,36.88,0,0,0,2.92-3.75l.09,0a22.39,22.39,0,0,1-2.47,4.15,22.89,22.89,0,0,1-3.39,3.5,21.75,21.75,0,0,1-8.75,4.17,22.24,22.24,0,0,1-9.64.19,14,14,0,0,1-4.49-1.79A6.24,6.24,0,0,1,103.4,125Z"/><path class="cls-3" d="M126.67,105.16a12.92,12.92,0,0,1,.58,2.38,6.41,6.41,0,0,1,.08,1.24,4.56,4.56,0,0,1-.24,1.21h0a0,0,0,0,1,0,0c-.07-.41-.07-.81-.1-1.22s0-.8,0-1.2a12.25,12.25,0,0,0-.32-2.4l0,0Z"/><path class="cls-3" d="M121,107.82l.46,1.5a4,4,0,0,1,.21.75,3.55,3.55,0,0,1,0,.8h0a2.65,2.65,0,0,1-.33-.73,4,4,0,0,1-.14-.77l-.21-1.55h0Z"/><path class="cls-3" d="M113.16,109.38a10.15,10.15,0,0,1,.93,1.68,4.07,4.07,0,0,1,.31.91,2.93,2.93,0,0,1,0,1h0a7.46,7.46,0,0,1-.35-.89c-.1-.29-.15-.6-.24-.9a9.38,9.38,0,0,0-.67-1.76l0,0Z"/><path class="cls-3" d="M106.18,112.91l1,1.48a6.57,6.57,0,0,1,.46.75,3.59,3.59,0,0,1,.27.86,0,0,0,0,1,0,0h0a3.67,3.67,0,0,1-.57-.69,4.93,4.93,0,0,1-.39-.8l-.74-1.6,0,0Z"/><path class="cls-3" d="M100.51,116.38a7.61,7.61,0,0,0,1.41,1.19c.25.17.53.3.77.48a6.73,6.73,0,0,1,.73.59v0h0a3.14,3.14,0,0,1-.91-.3,3.82,3.82,0,0,1-.76-.56,7.32,7.32,0,0,1-1.26-1.41l0,0Z"/><path class="cls-3" d="M101.66,121.27a45,45,0,0,1,12.71-7.57,36,36,0,0,1,7.14-2.14,30.3,30.3,0,0,1,7.42-.44v.1c-2.45.37-4.86.77-7.24,1.32a65.2,65.2,0,0,0-7.06,1.91,48,48,0,0,0-12.92,6.9Z"/><path class="cls-3" d="M117.18,135.22a12.84,12.84,0,0,1-9.34-1.1,17.43,17.43,0,0,1-4-2.72,23,23,0,0,1-3.16-3.61,0,0,0,0,1,0,0h0c1.14,1.12,2.25,2.25,3.46,3.26a23.5,23.5,0,0,0,3.83,2.75,12.71,12.71,0,0,0,9.15,1.41s0,0,0,0S117.2,135.22,117.18,135.22Z"/><path class="cls-3" d="M123.63,133.79c2.21-2.24,4.77-4.12,6.84-6.46A16.27,16.27,0,0,0,133,123.5a14.21,14.21,0,0,0,1.28-4.46s0,0,0,0a0,0,0,0,1,0,0,10.57,10.57,0,0,1-.87,4.66,13.51,13.51,0,0,1-2.73,3.9c-2.2,2.3-4.82,4.07-7.1,6.23h0A0,0,0,0,1,123.63,133.79Z"/><path class="cls-3" d="M163.66,113.61a51.93,51.93,0,0,1,9.92-.89,28.9,28.9,0,0,1,5,.55,28.22,28.22,0,0,1,4.88,1.51,45.19,45.19,0,0,1,9.07,4.26,27.78,27.78,0,0,1,7.38,6.88l-.2.23-8.7-4.52c-2.86-1.46-5.6-3.19-8.52-4.65a26.81,26.81,0,0,0-9.07-2.79,58.93,58.93,0,0,0-9.78-.28Z"/><path class="cls-3" d="M195.69,125.07a6.23,6.23,0,0,1-2.56,4,13.82,13.82,0,0,1-4.33,2.15,22.17,22.17,0,0,1-9.62.63,21.9,21.9,0,0,1-9.07-3.43,22.47,22.47,0,0,1-3.67-3.21,21.6,21.6,0,0,1-2.8-3.93l.08,0a36.87,36.87,0,0,0,3.22,3.49,27.66,27.66,0,0,0,3.72,2.86,25.07,25.07,0,0,0,8.65,3.48,21.85,21.85,0,0,0,9.35-.31,13.68,13.68,0,0,0,4.28-1.93,6,6,0,0,0,2.65-3.75Z"/><path class="cls-3" d="M200.64,124.77a27.64,27.64,0,0,1-4.9-4c-1.5-1.5-2.87-3.11-4.31-4.61a21.14,21.14,0,0,0-4.78-3.82,14.57,14.57,0,0,0-5.88-1.64v-.1a10.6,10.6,0,0,1,6.35.85,16.11,16.11,0,0,1,4.91,4.17c1.4,1.59,2.68,3.25,4.07,4.81a30,30,0,0,0,4.61,4.26Z"/><path class="cls-7" d="M195.09,125.22c-8-7.77-11.9-9.47-24.52-11.9"/><path class="cls-3" d="M187.35,133.32a36.35,36.35,0,0,0,4.11-2.81l1.92-1.58c.66-.5,1.3-1,2-1.51h0s0,0,0,0a14.18,14.18,0,0,1-1.7,1.85,18.59,18.59,0,0,1-2,1.52,38.17,38.17,0,0,1-4.32,2.54l0,0Z"/><path class="cls-3" d="M122.89,144.41a44.72,44.72,0,0,0,8.51-10.57,53.58,53.58,0,0,0,3-6.09,59.53,59.53,0,0,0,2.29-6.41.05.05,0,0,1,0,0s0,0,0,0a34.59,34.59,0,0,1-1.87,6.59,39,39,0,0,1-3.11,6.11,44.63,44.63,0,0,1-8.82,10.4s0,0,0,0A0,0,0,0,1,122.89,144.41Z"/><path class="cls-3" d="M161.3,118.59A47,47,0,0,0,168,133.28a56.73,56.73,0,0,0,5,6.29,34.89,34.89,0,0,0,6,5.38l-.05.08a21.81,21.81,0,0,1-6.67-4.77,36.22,36.22,0,0,1-5-6.54,44.8,44.8,0,0,1-6.08-15.11Z"/><path class="cls-3" d="M164.66,109.76a4.24,4.24,0,0,0,.22,1.23c.06.19.16.37.22.57a5,5,0,0,1,.12.63h0a1.4,1.4,0,0,1-.43-.51,1.83,1.83,0,0,1-.16-.65,4,4,0,0,1,0-1.29s0,0,0,0Z"/><path class="cls-3" d="M167.68,107.6a7,7,0,0,0-.35,2c0,.34,0,.68,0,1s0,.68,0,1h0a2.85,2.85,0,0,1-.3-1,3.78,3.78,0,0,1,.06-1.06,7.16,7.16,0,0,1,.62-2h0Z"/><path class="cls-3" d="M170.36,107.58l0,1.64a5.56,5.56,0,0,1,0,.82,3,3,0,0,1-.25.8h0a0,0,0,0,1,0,0,2.94,2.94,0,0,1-.09-.83,4.5,4.5,0,0,1,.11-.81l.28-1.61h0Z"/><path class="cls-3" d="M174.45,106.5l-.17,2c0,.34-.05.68-.12,1a5.19,5.19,0,0,1-.32,1h0a5.17,5.17,0,0,1,0-1,7.17,7.17,0,0,1,.19-1l.44-2h0A0,0,0,0,1,174.45,106.5Z"/></g><g id="eyebrows"><path class="cls-8" d="M130.14,92.28c.44.92-.07,1.23-.35,1.66l-1,1.09c-4.75,4.64-10.68,7.79-16,11.58-3,2.16-5.71,4.79-8.69,7l-9,6.71-.23-.2c3.68-6.8,10.13-11.38,16.48-15.43,5.27-3.84,10.63-7.55,15.94-11.29l1.08-.81a1.28,1.28,0,0,1,1.5-.45l.24.18Z"/><path class="cls-8" d="M169.12,93.64c1-.09,1,.26,1.33.52a37.91,37.91,0,0,0,6.9,4.72c2.88,1.59,5.76,3.3,8.8,4.73,4.63,2,9.53,3.72,13.53,7a14.48,14.48,0,0,1,3.61,3.79l-.21.21c-2.94-1.66-6-2.79-9.05-4.17s-5.88-3.19-8.92-4.66-6.19-2.73-9.14-4.49c-2.6-1.57-5.39-3.27-7.07-5.91-.36-.52-.57-.92-.05-1.59l.27-.14Z"/><path class="cls-3" d="M134.88,94.35a6,6,0,0,0-.14-4.41,5.25,5.25,0,0,0-1.27-1.74,5.58,5.58,0,0,0-1.9-1.13s0,0,0,0a0,0,0,0,1,0,0,3.65,3.65,0,0,1,2.21.8,4.33,4.33,0,0,1,1.33,2,6.32,6.32,0,0,1-.19,4.57h0A0,0,0,0,1,134.88,94.35Z"/><path class="cls-3" d="M163.4,97.09a6.32,6.32,0,0,1,.09-4,3.72,3.72,0,0,1,1.35-1.61,5,5,0,0,1,1.9-.76l0,0s0,0,0,0c-.56.38-1.14.71-1.63,1.12a5,5,0,0,0-1.28,1.39,6.1,6.1,0,0,0-.4,3.84s0,0,0,0Z"/></g></g></svg>