<svg id="artwork" xmlns="http://www.w3.org/2000/svg" viewBox="0 0 300 630"><defs><style>.cls-1{fill:#d9cec5;}.cls-2{fill:#9b7942;}.cls-3,.cls-4{fill:#2d2d2d;}.cls-4{fill-rule:evenodd;}.cls-5{fill:none;stroke:#2d2d2d;stroke-miterlimit:10;}.cls-6{fill:#f2eae4;}.cls-7{fill:#462e13;}</style></defs><g id="eyes_neutral7"><g id="white"><path class="cls-1" d="M108.73,117.1c-4,1.73-7.51,2.62-8.47,4s-.39,4.89,0,6.63,1.31,2.06,4.41,3.48c3.66,1.67,11.34,2,14.23,1.59s8.88-1.22,10-2,3.21-1.93,3.21-1.93.66-5.46.08-7.19-1.79-6.2-5.64-5.81S108.73,117.1,108.73,117.1Z"/><path class="cls-1" d="M174.52,114.84c-4.29,1-7.16.83-8.12,2.18s-1.15,6.57-.76,8.3,1,2.22,4.27,3.19,12.48,2.23,15.37,1.85,8.3-1.08,9.45-1.85a8,8,0,0,0,2.93-4.84A15,15,0,0,0,197,117c-.57-1.73-1.44-3.36-5.29-3S178.73,113.91,174.52,114.84Z"/></g><g id="iris"><path class="cls-2" d="M112.6,117.47c-3.65,1.22-4.87,6.56-3.84,8.61a7.37,7.37,0,0,0,6.86,3.61c2.83-.26,6.44-1.12,7.21-2.92s1.29-3.65.78-5.19-2-4.1-3-4.61S115.68,116.44,112.6,117.47Z"/><path class="cls-2" d="M178.43,115.16c-3.65,1.22-4.87,6.93-3.85,9s3.76,4.26,6.68,4,5.68-1.1,6.69-2.79,2.29-3.77,1.78-5.31-1.8-4.62-2.83-5.14S181.51,114.13,178.43,115.16Z"/></g><g id="iris_outline"><path class="cls-3" d="M115.73,122.54s0-.05.07-.05,0,0,0,.06v.11l0,.21,0,.43,0,.85.06,1.7a15.86,15.86,0,0,1,0,1.69,10.1,10.1,0,0,1-.28,1.69h0a9.8,9.8,0,0,1-.17-1.7c0-.57.07-1.14.11-1.7l.22-3.28s0,0,0,0Z"/><path class="cls-3" d="M116.52,123.25l.92,1.21c.32.4.61.81.94,1.19s.7.72,1,1.14a5.14,5.14,0,0,1,.75,1.36l0,0h0c-.4-.34-.73-.7-1.09-1.06a11.17,11.17,0,0,1-.94-1.21c-.29-.43-.53-.88-.8-1.31l-.79-1.31,0,0Z"/><path class="cls-3" d="M117.19,122.67h-.08v-.06a29.19,29.19,0,0,0,3,.91c.5.17,1,.25,1.52.44a3.67,3.67,0,0,1,1.4.84v0l0,0c-.51-.16-1-.29-1.52-.4a8.56,8.56,0,0,1-1.51-.55,26.33,26.33,0,0,1-2.85-1.23l-.12-.06h.2l0,0Z"/><path class="cls-3" d="M116.6,122a7.42,7.42,0,0,1,1.93-1.86,13.15,13.15,0,0,1,1.08-.76c.38-.21.74-.44,1.16-.65l0,0a0,0,0,0,1,0,0,3.55,3.55,0,0,1-.91,1,8.86,8.86,0,0,1-1.14.69,7,7,0,0,0-2.11,1.55h0Z"/><path class="cls-3" d="M115.76,122.36a11.73,11.73,0,0,1-.18-1.42l-.19-1.42a9.74,9.74,0,0,1-.12-1.43,4.21,4.21,0,0,1,.3-1.44h.05c.07.49.1,1,.15,1.42a13.38,13.38,0,0,1,0,1.42v1.43c0,.47-.09,1,0,1.41a0,0,0,0,1,0,0A0,0,0,0,1,115.76,122.36Z"/><path class="cls-3" d="M115,123l0,0h0v0h0a5.46,5.46,0,0,1-1.13,1.07l-1.22,1a14.58,14.58,0,0,1-1.32.84,5.58,5.58,0,0,0-1.23.89h0s0,0,0,0a2.59,2.59,0,0,1,1-1.27,11.92,11.92,0,0,1,1.38-.77l1.3-.82a5.79,5.79,0,0,0,1.22-.91h0s0,0,0,0v0l0,0h0Z"/><path class="cls-3" d="M114.85,122.41a6.35,6.35,0,0,1-1.18-.54l-1.18-.54a9.06,9.06,0,0,1-1.19-.51,5,5,0,0,0-.55-.3,1.37,1.37,0,0,1-.54-.42,0,0,0,0,1,0,0h0a3.24,3.24,0,0,0,.62.12,3.27,3.27,0,0,1,.65.19,10.76,10.76,0,0,1,1.17.6l1.09.7a6.83,6.83,0,0,0,1.09.69v0Z"/><path class="cls-3" d="M182,120.34s0,0,.06,0a.12.12,0,0,1,0,.07l0,.1v.22l0,.42,0,.85.06,1.7a13.61,13.61,0,0,1,0,1.69,10,10,0,0,1-.29,1.69s0,0,0,0h0a10.75,10.75,0,0,1-.16-1.7c0-.57.07-1.14.1-1.7l.23-3.28h0Z"/><path class="cls-3" d="M182.76,121.06l.93,1.2c.31.4.61.82.93,1.2s.71.72,1,1.13a5.14,5.14,0,0,1,.75,1.36l0,0h0c-.4-.34-.74-.71-1.1-1.07a9.45,9.45,0,0,1-.93-1.21c-.29-.42-.54-.87-.8-1.31l-.79-1.31,0,0Z"/><path class="cls-3" d="M183.44,120.48h-.09l0,0c.95.41,2,.58,3,.9.5.17,1,.25,1.52.44a3.94,3.94,0,0,1,1.4.84,0,0,0,0,1,0,0h0c-.52-.16-1-.28-1.52-.4a7.6,7.6,0,0,1-1.51-.55,29.58,29.58,0,0,1-2.86-1.22l-.11-.07h.2a0,0,0,0,1,0,0Z"/><path class="cls-3" d="M182.85,119.79a7.42,7.42,0,0,1,1.93-1.86,13.15,13.15,0,0,1,1.08-.76c.38-.21.74-.44,1.15-.64h0a0,0,0,0,1,0,0,3.57,3.57,0,0,1-.91,1,7.45,7.45,0,0,1-1.15.69,7.29,7.29,0,0,0-2.1,1.55h0Z"/><path class="cls-3" d="M182,120.17a14.33,14.33,0,0,1-.18-1.43l-.18-1.42a8.45,8.45,0,0,1-.12-1.43,4.39,4.39,0,0,1,.29-1.43h.05c.08.49.11,1,.16,1.42a13.43,13.43,0,0,1,0,1.42l0,1.43a13.45,13.45,0,0,0,0,1.42H182Z"/><path class="cls-3" d="M180.76,121.14v0s0,0,0,0v0h0a5.72,5.72,0,0,1-1.14,1.06l-1.22,1a13.85,13.85,0,0,1-1.31.85,5.64,5.64,0,0,0-1.24.89h0l0,0a2.65,2.65,0,0,1,1-1.28c.44-.32.94-.51,1.38-.77l1.3-.81a5.79,5.79,0,0,0,1.22-.91v0h0s0,0,0,0v.06h0A0,0,0,0,1,180.76,121.14Z"/><path class="cls-3" d="M180.54,120.12a6.78,6.78,0,0,1-1.25-.58l-1.23-.61c-.41-.22-.85-.35-1.24-.59l-.58-.37a1.3,1.3,0,0,1-.54-.48v0h0a3.48,3.48,0,0,0,.65.19c.23.07.44.16.66.24a7.26,7.26,0,0,1,1.21.69l1.15.77a6.45,6.45,0,0,0,1.15.72v0Z"/><path class="cls-3" d="M112.17,117a13.09,13.09,0,0,0-3.06,3.93,5.84,5.84,0,0,0-.25,4.8,5.37,5.37,0,0,0,1.44,2,11.26,11.26,0,0,0,1,.69,7,7,0,0,0,1.12.51,10.53,10.53,0,0,0,4.89.44,8.24,8.24,0,0,0,4.47-1.83,5.39,5.39,0,0,0,1.76-4.3,7.68,7.68,0,0,0-1.67-4.52,6.4,6.4,0,0,0-4.12-2.52s-.05,0-.05,0,0,0,.05,0a6.22,6.22,0,0,1,4.39,2.35,8.07,8.07,0,0,1,1.9,4.72,5.73,5.73,0,0,1-1.93,4.69,8.79,8.79,0,0,1-4.75,1.86,10.79,10.79,0,0,1-5-.55,6.85,6.85,0,0,1-1.16-.55,9.47,9.47,0,0,1-1-.74,7.86,7.86,0,0,1-.86-1,4.87,4.87,0,0,1-.61-1.12,6.07,6.07,0,0,1,.33-4.95,13.7,13.7,0,0,1,3.15-3.91s.05,0,.06,0S112.19,117,112.17,117Z"/><path class="cls-3" d="M179.2,114.41a13.45,13.45,0,0,0-3.47,3.3,6.94,6.94,0,0,0-1.36,4.47,5.8,5.8,0,0,0,2.19,4,8.27,8.27,0,0,0,4.33,1.75,8,8,0,0,0,7.78-4.19,6.26,6.26,0,0,0,.5-4.54,9.9,9.9,0,0,0-2.41-4.06s0-.05,0-.05,0,0,0,0a9.17,9.17,0,0,1,2.72,4,6.61,6.61,0,0,1-.4,4.86,8.23,8.23,0,0,1-8.27,4.36,8.62,8.62,0,0,1-4.48-1.91,6,6,0,0,1-2.21-4.26,7.12,7.12,0,0,1,1.46-4.57,13.36,13.36,0,0,1,3.57-3.26,0,0,0,0,1,.06,0S179.23,114.39,179.2,114.41Z"/></g><g id="pupil"><path class="cls-4" d="M116,122.72l1.76,1.42a2.26,2.26,0,1,1-.31-3.21,2.27,2.27,0,0,1,.66.9Z"/><path class="cls-4" d="M181.85,120.51l1.76,1.42a2.26,2.26,0,1,1-.31-3.21,2.27,2.27,0,0,1,.66.9Z"/><path class="cls-4" d="M116,122.72l1.76,1.42a2.26,2.26,0,1,1-.31-3.21,2.27,2.27,0,0,1,.66.9Z"/><path class="cls-4" d="M181.85,120.51l1.76,1.42a2.26,2.26,0,1,1-.31-3.21,2.27,2.27,0,0,1,.66.9Z"/><path class="cls-5" d="M116,122.72l1.76,1.42a2.26,2.26,0,1,1-.31-3.21,2.27,2.27,0,0,1,.66.9Z"/><path class="cls-5" d="M181.85,120.51l1.76,1.42a2.26,2.26,0,1,1-.31-3.21,2.27,2.27,0,0,1,.66.9Z"/></g><g id="spec"><ellipse class="cls-6" cx="123" cy="119.81" rx="2.44" ry="2.18" transform="translate(-17.79 218.11) rotate(-79.17)"/><ellipse class="cls-6" cx="187.04" cy="118.09" rx="2.44" ry="2.18"/></g><g id="outline"><path class="cls-3" d="M166.7,127.24a3.17,3.17,0,0,1-1.25-2.32,14,14,0,0,1-.3-2.68,11.16,11.16,0,0,1,.23-2.7,9.13,9.13,0,0,1,1-2.52h0s0,0,0,0c-.19.88-.41,1.73-.54,2.6a22.68,22.68,0,0,0-.32,2.61,13.78,13.78,0,0,0,.12,2.64,3.09,3.09,0,0,0,1.05,2.31s0,0,0,0Z"/><path class="cls-3" d="M194.74,128.47a5.57,5.57,0,0,0,2.27-3,10.29,10.29,0,0,0,.65-3.75,20,20,0,0,0-.57-3.78,8.66,8.66,0,0,0-1.59-3.44,0,0,0,0,1,0,0,0,0,0,0,1,0,0,6.73,6.73,0,0,1,2,3.35,13.58,13.58,0,0,1,.49,3.91,10.51,10.51,0,0,1-.84,3.84,5.76,5.76,0,0,1-2.46,3h0S194.73,128.48,194.74,128.47Z"/><path class="cls-3" d="M197.82,127.31a39.1,39.1,0,0,1-15.64,3.36,36.75,36.75,0,0,1-8-.77,33,33,0,0,1-7.6-2.65.05.05,0,0,1,0,0h0a46.36,46.36,0,0,0,7.68,2.21,44.86,44.86,0,0,0,7.93.86,39,39,0,0,0,15.62-3s0,0,0,0S197.84,127.31,197.82,127.31Z"/><path class="cls-3" d="M124.74,108.26l.34,2.35a7.78,7.78,0,0,1,.14,1.17,5.46,5.46,0,0,1-.14,1.2h0a4.86,4.86,0,0,1-.31-1.16,7.85,7.85,0,0,1,0-1.19v-2.37h0Z"/><path class="cls-3" d="M118.93,109.08a8.27,8.27,0,0,1,.68,1.9,3.42,3.42,0,0,1,.14,1,2.47,2.47,0,0,1-.26,1h0a6,6,0,0,1-.19-1c0-.32,0-.64,0-1a8.69,8.69,0,0,0-.34-1.93h.05Z"/><path class="cls-3" d="M113.07,109.64l.59,1.91a5.34,5.34,0,0,1,.26,1,3.5,3.5,0,0,1,0,1h0a3.9,3.9,0,0,1-.43-.93,5.41,5.41,0,0,1-.16-1l-.25-2,0,0Z"/><path class="cls-3" d="M104.7,109.09l1,2.74a9.59,9.59,0,0,1,.46,1.37,7.13,7.13,0,0,1,.2,1.46l0,0h0a7.31,7.31,0,0,1-.63-1.33,11.66,11.66,0,0,1-.36-1.41l-.65-2.84h0S104.7,109.09,104.7,109.09Z"/><path class="cls-3" d="M170.34,108.26l.18,2.23a8.25,8.25,0,0,1,0,1.11,4.88,4.88,0,0,1-.23,1.11h-.05a4.37,4.37,0,0,1-.22-1.11,5.9,5.9,0,0,1,.05-1.11l.17-2.23h.05Z"/><path class="cls-3" d="M187.05,106.5c0,1,0,1.91,0,2.85,0,.48.08,1,.06,1.43a9,9,0,0,1-.17,1.43h-.05a5.86,5.86,0,0,1-.28-1.42,8.66,8.66,0,0,1,0-1.44c.08-1,.2-1.91.35-2.86h.05Z"/><path class="cls-3" d="M181.29,107.06a8.63,8.63,0,0,1,.35,2.16,3.7,3.7,0,0,1-.06,1.1,2.84,2.84,0,0,1-.46,1h0l0,0a9.6,9.6,0,0,1,0-1.08c0-.35.11-.69.15-1a8.44,8.44,0,0,0,0-2.13h0A0,0,0,0,1,181.29,107.06Z"/><path class="cls-3" d="M176.34,106.23a30,30,0,0,1,.17,3,8.4,8.4,0,0,1-.08,1.51,6.33,6.33,0,0,1-.42,1.47h0a10.91,10.91,0,0,1,0-1.51c0-.49.11-1,.17-1.48a29.6,29.6,0,0,0,.18-3h.05Z"/><path class="cls-3" d="M101.13,130a11.58,11.58,0,0,1-1.51-3.79,8.37,8.37,0,0,1-.19-2.06,6.54,6.54,0,0,1,.46-2s0,0,0,0l0,0c0,.69,0,1.35,0,2s0,1.33.09,2a11.11,11.11,0,0,0,1.16,3.83l0,0A0,0,0,0,1,101.13,130Z"/><path class="cls-3" d="M131.86,129.84a16.55,16.55,0,0,0,.4-6.82,22.36,22.36,0,0,0-.82-3.32,26.08,26.08,0,0,0-1.24-3.2,0,0,0,0,1,0,0s0,0,0,0a12,12,0,0,1,1.68,3.06,13.46,13.46,0,0,1,.73,3.43,16.66,16.66,0,0,1-.74,6.88s0,0,0,0Z"/><path class="cls-3" d="M101,129.24a18.43,18.43,0,0,0,3.82,1.91,26.77,26.77,0,0,0,4.14,1.07,38,38,0,0,0,8.52.43,45.18,45.18,0,0,0,8.42-1.34,17.41,17.41,0,0,0,7.61-3.6s.05,0,.06,0a.06.06,0,0,1,0,0c-2,2.16-4.78,3.29-7.53,4.06a39.8,39.8,0,0,1-17.1.64,26.75,26.75,0,0,1-4.14-1.16,18.7,18.7,0,0,1-3.81-2s0,0,0,0S101,129.23,101,129.24Z"/><path class="cls-3" d="M98.22,122.1a25.68,25.68,0,0,1,7.5-4.66,41.27,41.27,0,0,1,8.59-2.43,31,31,0,0,1,8.83-.73,37.72,37.72,0,0,1,4.36.71,22.12,22.12,0,0,1,4.27,1.38v.28a25.06,25.06,0,0,1-4.36,1c-1.44.22-2.87.36-4.29.5-2.82.27-5.62,0-8.42.09a43.8,43.8,0,0,0-8.29,1.24,36.33,36.33,0,0,0-7.92,3Z"/><path class="cls-3" d="M198.22,114.46c-1.35.19-2.68.23-4,.34s-2.66.23-4,.36c-2.65.26-5.29.61-7.91,1a75.52,75.52,0,0,1-7.84,1.23c-1.33.06-2.66.09-4,.05a16,16,0,0,1-2.05-.15l-2.08-.24-.05-.28a30.28,30.28,0,0,1,3.76-1.83,34,34,0,0,1,3.93-1.15,37.84,37.84,0,0,1,8.1-.51c2.71,0,5.42,0,8.11.15,1.35.08,2.69.18,4,.29a38.83,38.83,0,0,1,4,.49Z"/><path class="cls-3" d="M170.55,132.18a12.52,12.52,0,0,1-4.71-2.77,10.06,10.06,0,0,1-1.79-2.11,8.84,8.84,0,0,1-1-2.55s0,0,0,0,0,0,0,0a23.92,23.92,0,0,0,1.41,2.3,18.44,18.44,0,0,0,1.66,2.1,12.42,12.42,0,0,0,4.44,3s0,0,0,0Z"/><path class="cls-3" d="M125.18,136.79a6.91,6.91,0,0,0,3.69-1,11.48,11.48,0,0,0,2.93-2.45,23.56,23.56,0,0,0,2.21-3.13,34.88,34.88,0,0,0,1.84-3.41h0a0,0,0,0,1,0,0,15.23,15.23,0,0,1-1.46,3.64,15,15,0,0,1-2.35,3.15A11.49,11.49,0,0,1,129,136a7,7,0,0,1-3.79.81,0,0,0,0,1,0,0S125.17,136.79,125.18,136.79Z"/><path class="cls-3" d="M105.73,135.2a19.29,19.29,0,0,1-4.51-2.93,13.34,13.34,0,0,1-1.89-1.94A11.18,11.18,0,0,1,98,128s0,0,0,0h0c.58.69,1.12,1.39,1.71,2s1.15,1.34,1.78,2a19.32,19.32,0,0,0,4.26,3.18s0,0,0,0S105.74,135.21,105.73,135.2Z"/><path class="cls-3" d="M191.56,134.77a12.83,12.83,0,0,0,6-4,16,16,0,0,0,1.95-3,16.5,16.5,0,0,0,1.3-3.39h0s0,0,0,0a10,10,0,0,1-.9,3.59,11.54,11.54,0,0,1-2.1,3.07,13.07,13.07,0,0,1-6.24,3.79s0,0,0,0S191.55,134.77,191.56,134.77Z"/></g><g id="eyebrows"><path class="cls-7" d="M132.43,107.5c-3.66-.23-7.18-1.59-10.82-2-6.58-1-13.07,1-19.45,2.45a27.33,27.33,0,0,1-4.58.51,30.85,30.85,0,0,1,12.8-4.87c3.8-.69,7.7-1.57,11.62-1.07a43.19,43.19,0,0,1,6.73,1.84c1.42.59,2.94,1,4.13,2.28l-.43.81Z"/><path class="cls-7" d="M200.6,107.33c-7.62-1.86-15.45-3.25-23.29-2.79-3.09.26-5.85,1.76-8.85,2.47a45.3,45.3,0,0,1-4.87.66c2.15-2.72,5.25-4.06,8.48-4.91,9.63-2.67,19.69.5,28.82,3.59l-.29,1Z"/></g></g></svg>