<svg id="artwork" xmlns="http://www.w3.org/2000/svg" viewBox="0 0 300 630"><defs><style>.cls-1{fill:#d9cec5;}.cls-2{fill:#9b7942;}.cls-3,.cls-4{fill:#2d2d2d;}.cls-4{fill-rule:evenodd;}.cls-5{fill:none;stroke:#2d2d2d;stroke-miterlimit:10;}.cls-6{fill:#f2eae4;}.cls-7{fill:#462e13;}</style></defs><g id="eyes_thinking5"><g id="white"><path class="cls-1" d="M184.87,112.43c7.76,5.56,6.88,19.17-2.44,21.77-6.88,1.93-14.23,1-18.12-6.42-2.69-5.13.26-14.24,5.58-16C175.56,109.91,179.45,108.55,184.87,112.43Z"/><path class="cls-1" d="M110.32,112.57c-.43.19-.51,2-.88,2.21a10.57,10.57,0,0,0-4,5.24c-1.68,4.45-3.49,8.84,3.3,13.8,3.81,2.78,10.91,3,14.84.53,8.08-5.07,9.92-10.39,5.58-15.24-2.06-2.3-2.78-5-5.52-5.76C120,112.28,114.07,110.84,110.32,112.57Z"/></g><g id="iris"><path class="cls-2" d="M112.49,113.09c2-.23,4.74.5,5.4,2.85,1.09,3.88-5,8.65-8.6,7.61a3.89,3.89,0,0,1-2.36-3C106,116.58,109,113.5,112.49,113.09Z"/><path class="cls-2" d="M172.52,111.3c1.95.14,4.73.54,5.37,2.89,1.06,3.9-4,8.66-7.58,7.59-1.31-.4-3.12-1.82-3.42-3.07C166,114.74,169,111.05,172.52,111.3Z"/></g><g id="iris_outline"><path class="cls-3" d="M113.62,122.08a30.64,30.64,0,0,1-1.65-4.17,2.23,2.23,0,0,1-.13-.6,32.72,32.72,0,0,1,1.78,4.77Z"/><path class="cls-3" d="M117.32,116.75a31.63,31.63,0,0,1-4.42.75,3.25,3.25,0,0,1-.62,0,31.1,31.1,0,0,1,5-.76Z"/><path class="cls-3" d="M114.47,113.25a31.74,31.74,0,0,1-2.2,3.9,3.14,3.14,0,0,1-.37.49,30.32,30.32,0,0,1,2.57-4.39Z"/><path class="cls-3" d="M110.36,123.25c.45-1.55.82-3.11,1.41-4.6a16,16,0,0,1-1.41,4.6Z"/><path class="cls-3" d="M107.69,122.33a31,31,0,0,1,3.62-3.91c-.91,1.55-2.51,2.61-3.62,3.91Z"/><path class="cls-3" d="M107.39,117.66c1.57.35,3.32-.41,4.77.48-1.5-.36-3.3,0-4.77-.48Z"/><path class="cls-3" d="M110.38,114.78a20.28,20.28,0,0,1,1.05,4.07c0,.16.13.5,0,.61-.52-1.49-.6-3.2-1.05-4.68Z"/><path class="cls-3" d="M109.72,114.24c-4.27,2.67-3,11.35,2.9,8.43,2.87-1.34,6.11-5,3.79-8a6.26,6.26,0,0,0-3.06-1.69l0-.1c5.06.19,6.16,5.2,2.79,8.48-2.69,2.81-8.25,4.41-9.34-.66a6.32,6.32,0,0,1,2.84-6.5l.06.08Z"/><path class="cls-3" d="M174.24,119.94a31.27,31.27,0,0,1-2.78-3.51,2.75,2.75,0,0,1-.31-.54,30.91,30.91,0,0,1,3.09,4Z"/><path class="cls-3" d="M168.28,120a14.2,14.2,0,0,1,2.94-3.22c-.06-.06,0,0,0-.08l0,0,0-.06s0,0,0,0v0s0,.07,0,.13l0,0s0,.06,0,0c-.19.68-1,1.16-1.42,1.68s-1.06,1.08-1.5,1.58Z"/><path class="cls-3" d="M174.62,111.79a14.21,14.21,0,0,1-2.93,3.23c.07.07,0,0,0,.08l0,.06,0,0s0,.05,0,0v0s0-.07,0-.13l0,0s0-.06,0,0c.19-.68,1-1.16,1.41-1.68s1.06-1.08,1.5-1.59Z"/><path class="cls-3" d="M171.62,120.64a14.17,14.17,0,0,1-.56-4.33c-.09,0,0,0-.07,0l0,0,0,0s0,0,0,0h0s.06,0,.09.09l0,0s.06,0,0,0c.4.58.26,1.48.36,2.16s.15,1.51.24,2.18Z"/><path class="cls-3" d="M169.79,112.54c.45,1.17,1.13,2.5.92,3.76-.2-1.27-.67-2.55-.92-3.76Z"/><path class="cls-3" d="M170.32,111.69a8.37,8.37,0,0,0-2.89,3.2c-1.37,2.51-.25,6.17,2.79,6.55a7.1,7.1,0,0,0,6.91-3.7c1.53-2.68.75-5.54-2.49-6a14.68,14.68,0,0,0-4.34,0l0-.1c2.73-.84,6.95-1.22,8.31,2,1.16,3.13-1.21,6.47-4,7.83-8.28,3.76-11.34-6.12-4.31-9.72Z"/><path class="cls-3" d="M172.34,115.79a6.34,6.34,0,0,0,2.26.08c.38,0,.76-.05,1.14-.05a10.92,10.92,0,0,1,1.15.09h0a0,0,0,0,1,0,0,8.84,8.84,0,0,1-1.14.13,10.84,10.84,0,0,1-1.14,0,6.75,6.75,0,0,1-2.28-.25v0Z"/><path class="cls-3" d="M167.54,116.48a11.19,11.19,0,0,1,1.46-.65,2.65,2.65,0,0,1,.78-.21,1.9,1.9,0,0,1,.81.12,0,0,0,0,1,0,0v0a2.64,2.64,0,0,1-.74.32,4,4,0,0,1-.76.11,11.63,11.63,0,0,0-1.54.3s0,0,0,0Z"/></g><g id="pupil"><path class="cls-4" d="M111.29,117.5l1.4,1.22a2,2,0,0,1-2.5-.25,1.47,1.47,0,0,1-.3-2.19,2.18,2.18,0,0,1,3,1Z"/><path class="cls-4" d="M171.28,115.7l1.48,1.12a2,2,0,0,1-2.51-.07,1.45,1.45,0,0,1-.45-2.16,2.17,2.17,0,0,1,3.08.72Z"/><path class="cls-4" d="M111.29,117.5l1.4,1.22a2,2,0,0,1-2.5-.25,1.47,1.47,0,0,1-.3-2.19,2.18,2.18,0,0,1,3,1Z"/><path class="cls-4" d="M171.28,115.7l1.48,1.12a2,2,0,0,1-2.51-.07,1.45,1.45,0,0,1-.45-2.16,2.17,2.17,0,0,1,3.08.72Z"/><path class="cls-5" d="M111.29,117.5l1.4,1.22a2,2,0,0,1-2.5-.25,1.47,1.47,0,0,1-.3-2.19,2.18,2.18,0,0,1,3,1Z"/><path class="cls-5" d="M171.28,115.7l1.48,1.12a2,2,0,0,1-2.51-.07,1.45,1.45,0,0,1-.45-2.16,2.17,2.17,0,0,1,3.08.72Z"/></g><g id="spec"><ellipse class="cls-6" cx="117.25" cy="115.43" rx="1.96" ry="1.99" transform="translate(-30.38 42.78) rotate(-18.35)"/><ellipse class="cls-6" cx="178.4" cy="113.7" rx="1.82" ry="1.77" transform="translate(-21.77 45.23) rotate(-13.63)"/></g><g id="outline"><path class="cls-3" d="M160.74,124.43a15.8,15.8,0,0,0,2.7,6.65,20.23,20.23,0,0,0,2.34,2.72A16.9,16.9,0,0,0,167.1,135c.23.2.46.39.7.57s.5.52.68.3h0l0,0c0,.19-.32.15-.44.07l-.41-.22a7.77,7.77,0,0,1-.78-.48,13.23,13.23,0,0,1-1.46-1.13,13.64,13.64,0,0,1-2.33-2.86,16.18,16.18,0,0,1-2.41-6.86,0,0,0,0,1,0,0S160.74,124.42,160.74,124.43Z"/><path class="cls-3" d="M99.51,128.79a16.46,16.46,0,0,1,1.07-7.84,14.21,14.21,0,0,1,1.93-3.52,12.41,12.41,0,0,1,2.9-2.75h0a0,0,0,0,1,0,0,22.54,22.54,0,0,0-2.53,3,20.57,20.57,0,0,0-2,3.37,16.33,16.33,0,0,0-1.39,7.69,0,0,0,0,1,0,0S99.51,128.81,99.51,128.79Z"/><path class="cls-3" d="M121.81,139a9.89,9.89,0,0,0,4.83-1.86,13.78,13.78,0,0,0,3.56-3.78,23.55,23.55,0,0,0,2.21-4.71c.62-1.63,1.08-3.32,1.61-5,0,0,0,0,0,0s0,0,0,0a31.63,31.63,0,0,1-1.19,5.16,18.52,18.52,0,0,1-2.35,4.76,13.94,13.94,0,0,1-3.76,3.74,10.07,10.07,0,0,1-5,1.73s0,0,0,0S121.8,139,121.81,139Z"/><path class="cls-3" d="M187.17,110.59a28.48,28.48,0,0,1,5.25,7.11,19.59,19.59,0,0,1,1.69,4.13,11.06,11.06,0,0,1,.36,4.43s0,0,0,0l0,0a16.41,16.41,0,0,0-.79-4.3,29.32,29.32,0,0,0-1.57-4.08,28.39,28.39,0,0,0-4.93-7.26,0,0,0,0,1,0,0A0,0,0,0,1,187.17,110.59Z"/><path class="cls-3" d="M162.46,122.32a21.61,21.61,0,0,1,5.23-9.74,13.88,13.88,0,0,1,4.61-3.37,11.93,11.93,0,0,1,5.73-.91,13.69,13.69,0,0,1,5.58,1.77,17.49,17.49,0,0,1,4.46,3.65,14.71,14.71,0,0,1,3,5,8.91,8.91,0,0,1,0,5.68l-.2,0a10.36,10.36,0,0,0-1.12-5.11,16.8,16.8,0,0,0-3.12-4.15c-2.48-2.42-5.34-4.69-8.76-5.19a10.57,10.57,0,0,0-5.07.54,13.08,13.08,0,0,0-4.4,2.84,21.76,21.76,0,0,0-5.73,9.1Z"/><path class="cls-3" d="M163.22,127.77a16.5,16.5,0,0,0,7,5.78,15.76,15.76,0,0,0,8.91,1.06,14.88,14.88,0,0,0,7.82-4.14,16.65,16.65,0,0,0,4.32-7.88l.1,0a13.72,13.72,0,0,1-12.11,12.79A16.15,16.15,0,0,1,170,134a16.52,16.52,0,0,1-6.89-6.17Z"/><path class="cls-3" d="M131.32,122.65a22.76,22.76,0,0,0-7-8.2,11.73,11.73,0,0,0-4.77-2.09,15.4,15.4,0,0,0-5.21.19,10.32,10.32,0,0,0-4.38,2.52,20.56,20.56,0,0,0-3.42,3.91,16.11,16.11,0,0,0-2.29,4.67,11.26,11.26,0,0,0-.23,5.27l-.18.07a9.4,9.4,0,0,1-1-5.62,14.53,14.53,0,0,1,2-5.46,15.55,15.55,0,0,1,3.84-4.36A12.07,12.07,0,0,1,114,111a13.14,13.14,0,0,1,2.92-.21,17.67,17.67,0,0,1,2.86.29,12.43,12.43,0,0,1,5.13,2.6,22.58,22.58,0,0,1,6.63,8.9Z"/><path class="cls-3" d="M104.05,128.68a16.56,16.56,0,0,0,7,5.78,15.68,15.68,0,0,0,8.91,1,15,15,0,0,0,7.83-4.13,16.91,16.91,0,0,0,4.32-7.88h.1A13.74,13.74,0,0,1,120.1,136.3a16.11,16.11,0,0,1-9.24-1.39,16.7,16.7,0,0,1-6.9-6.18Z"/><path class="cls-3" d="M192.19,132.9a11.51,11.51,0,0,0-1-.82c-.18-.12-.39-.18-.49-.36a1.6,1.6,0,0,1-.17-.75l.07-.07a1,1,0,0,1,.79.09c.22.11.3.36.4.57a4,4,0,0,1,.47,1.29Z"/><path class="cls-3" d="M189.82,136a7.16,7.16,0,0,1-1.78-1,2.29,2.29,0,0,1-.76-.69,1.81,1.81,0,0,1-.25-1.08l.08-.06a2.61,2.61,0,0,1,.94.5,3.62,3.62,0,0,1,.56.77,15.68,15.68,0,0,0,1.26,1.48Z"/><path class="cls-3" d="M186.23,139.2a10.27,10.27,0,0,1-1.62-1.8,3.23,3.23,0,0,1-.63-1.05,2.31,2.31,0,0,1,0-1.28l.1,0a3.55,3.55,0,0,1,.84.91,5.54,5.54,0,0,1,.42,1.07,21.39,21.39,0,0,0,1,2.12Z"/><path class="cls-3" d="M111.66,138.93a11.91,11.91,0,0,0,.16-1.27,1.2,1.2,0,0,1,0-.6,1.49,1.49,0,0,1,.53-.55h.1a1.11,1.11,0,0,1,.35.72,1.18,1.18,0,0,1-.26.65,3.85,3.85,0,0,1-.83,1.09Z"/><path class="cls-3" d="M107.74,138.64a7,7,0,0,1-.12-2,2.36,2.36,0,0,1,.17-1,1.88,1.88,0,0,1,.77-.79l.09,0a2.5,2.5,0,0,1,.09,1.06,3.4,3.4,0,0,1-.34.88,15.62,15.62,0,0,0-.56,1.87Z"/><path class="cls-3" d="M103.14,137.34a10.51,10.51,0,0,1,.63-2.34,3.42,3.42,0,0,1,.54-1.1,2.47,2.47,0,0,1,1.06-.72l.08.06a3.36,3.36,0,0,1-.3,1.21,5.33,5.33,0,0,1-.67.93,20.85,20.85,0,0,0-1.24,2Z"/></g><g id="eyebrows"><path class="cls-7" d="M155.36,102a17.71,17.71,0,0,1,5.36-1.29l5.47-.94c7.49-1,15.42-2.86,22.82.23a11.75,11.75,0,0,1,6.4,6.31c.24,1,1,1.82,0,3.07a1.82,1.82,0,0,1-1.36-1c-2.13-4.67-6-7-11.1-7.19-7.33-.43-14.53,1.71-21.82,2.56-1.87.21-3.79.59-5.75-.15l-.06-1.61Z"/><path class="cls-7" d="M133,106a7,7,0,0,1-2.54-1.22,28.16,28.16,0,0,0-7.12-3.48c-7-1.7-13.88-2.63-19,3.49-2.42,2.65-4.1,6.27-6.9,8.7.55-1.68,1.45-3.49,2.09-5.23,3.24-8.61,9.82-12.77,19-11A29.35,29.35,0,0,1,127,99.61a26.63,26.63,0,0,1,4.91,3.18,6.19,6.19,0,0,1,2,2.11L133,106Z"/></g></g></svg>