<?xml version="1.0" encoding="UTF-8" standalone="no"?>
<svg
   xmlns:dc="http://purl.org/dc/elements/1.1/"
   xmlns:cc="http://creativecommons.org/ns#"
   xmlns:rdf="http://www.w3.org/1999/02/22-rdf-syntax-ns#"
   xmlns:svg="http://www.w3.org/2000/svg"
   xmlns="http://www.w3.org/2000/svg"
   xmlns:sodipodi="http://sodipodi.sourceforge.net/DTD/sodipodi-0.dtd"
   xmlns:inkscape="http://www.inkscape.org/namespaces/inkscape"
   id="artwork"
   viewBox="0 0 300 630"
   version="1.1"
   sodipodi:docname="eyes_right2figure_artboard.svg"
   inkscape:version="1.0.1 (3bc2e813f5, 2020-09-07)">
  <metadata
     id="metadata99">
    <rdf:RDF>
      <cc:Work
         rdf:about="">
        <dc:format>image/svg+xml</dc:format>
        <dc:type
           rdf:resource="http://purl.org/dc/dcmitype/StillImage" />
      </cc:Work>
    </rdf:RDF>
  </metadata>
  <sodipodi:namedview
     pagecolor="#ffffff"
     bordercolor="#666666"
     borderopacity="1"
     objecttolerance="10"
     gridtolerance="10"
     guidetolerance="10"
     inkscape:pageopacity="0"
     inkscape:pageshadow="2"
     inkscape:window-width="1920"
     inkscape:window-height="1017"
     id="namedview97"
     showgrid="false"
     inkscape:zoom="1.1666667"
     inkscape:cx="150"
     inkscape:cy="315"
     inkscape:window-x="-8"
     inkscape:window-y="-8"
     inkscape:window-maximized="1"
     inkscape:current-layer="artwork" />
  <defs
     id="defs4">
    <style
       id="style2">.cls-1{fill:#d9cec5;}.cls-2{fill:#9b7942;}.cls-3,.cls-4{fill:#2d2d2d;}.cls-4{fill-rule:evenodd;}.cls-5{fill:none;stroke:#2d2d2d;stroke-miterlimit:10;}.cls-6{fill:#f2eae4;}.cls-7{fill:#462e13;}</style>
  </defs>
  <g
     id="eyes_right2"
     transform="translate(0,8.0451717)">
    <g
       id="white">
      <path
         class="cls-1"
         d="m 117.56,115.44 a 44.52,44.52 0 0 0 -11.12,3.89 c -12.55,6 7.57,12.11 14,11.61 4,-0.31 9,-1.41 11.62,-4.7 2.27,-2.84 3.74,-11.13 -0.19,-11.28 -3.78,-0.14 -7.98,-0.63 -14.31,0.48 z"
         id="path6" />
      <path
         class="cls-1"
         d="m 172.91,112.73 c -5,2 -11,6.71 -8.94,11 3.86,7.79 12.5,9 19.83,6.8 5,-1.49 8.78,-5.78 7.73,-9.93 a 10.19,10.19 0 0 0 -3.22,-4.78 15.63,15.63 0 0 0 -4.68,-3 15.22,15.22 0 0 0 -9.73,-0.4 c -0.33,0.06 -0.66,0.18 -0.99,0.31 z"
         id="path8" />
    </g>
    <g
       id="iris">
      <path
         class="cls-2"
         d="m 130.62,126.92 c 3.09,-1.39 4.45,-9.72 3.38,-12.33 a 93.59,93.59 0 0 0 -9.46,0.24 c -2.19,2 -1.45,6.59 -0.51,8.29 1.46,2.63 6.13,4 6.59,3.8 z"
         id="path11" />
      <path
         class="cls-2"
         d="m 192.88,119 a 7.93,7.93 0 0 0 -3.91,-5.42 c -2.74,-1.3 -4.74,2.12 -5.07,4.35 -0.33,2.23 1.28,7.38 4.69,7.87 1.62,1.19 3,-1.87 3.55,-3.08 a 15.2,15.2 0 0 0 0.74,-3.72 z"
         id="path13" />
    </g>
    <g
       id="iris_outline">
      <path
         class="cls-3"
         d="m 127.54,125.67 a 57.6,57.6 0 0 1 3.5,-5 l 0.12,-0.17 c 0,0 0.12,-0.15 0.05,-0.07 v 0 c 0,0 0,0 0.05,0 0.05,0 0,0.11 0,0.16 a 40.23,40.23 0 0 1 -3.66,5.15 z"
         id="path16" />
      <path
         class="cls-3"
         d="m 131.32,122.92 a 9.76,9.76 0 0 1 -2.28,-3 35.67,35.67 0 0 1 2.28,3 z"
         id="path18" />
      <path
         class="cls-3"
         d="m 132.55,120.24 a 9.15,9.15 0 0 1 -3,-1 13.2,13.2 0 0 1 3,1 z"
         id="path20" />
      <path
         class="cls-3"
         d="m 131.82,115.61 c -0.93,1 -1.92,2.07 -2.81,3.09 0.47,-1.35 1.85,-2.18 2.81,-3.09 z"
         id="path22" />
      <path
         class="cls-3"
         d="m 126.22,115.21 a 11.36,11.36 0 0 1 3,1.28 5.15,5.15 0 0 1 -1.54,-0.55 c 0,0 -1.53,-0.69 -1.46,-0.73 z"
         id="path24" />
      <path
         class="cls-3"
         d="m 124.1,122.63 a 36.22,36.22 0 0 1 4.89,-2.86 34.3,34.3 0 0 1 -4.89,2.86 z"
         id="path26" />
      <path
         class="cls-3"
         d="m 122.74,117.78 c 1,0.34 2.19,0.31 3.24,0.61 1.05,0.3 2.2,0.64 3.19,0.92 a 12.38,12.38 0 0 1 -3.23,-0.72 c -1,-0.37 -2.33,-0.35 -3.2,-0.81 z"
         id="path28" />
      <path
         class="cls-3"
         d="m 130.51,126.94 c -5.19,-0.24 -10.47,-6.61 -7.13,-11.51 h 0.09 a 9.4,9.4 0 0 0 7,11.47 z"
         id="path30" />
      <path
         class="cls-3"
         d="m 190.38,126 c -7.17,1.41 -9.54,-11.57 -2.81,-13.42 v 0.09 c -4.9,3.26 -4,13.6 2.78,13.33 z"
         id="path32" />
    </g>
    <g
       id="pupil">
      <path
         class="cls-4"
         d="m 130.11,116.57 c 2,-1.25 5.29,1.91 3.18,6.39 -0.76,1.6 -2.18,2 -3.23,0.8 a 5.56,5.56 0 0 1 -1.22,-3.33 c -0.1,-2.14 0.47,-3.36 1.27,-3.86 z"
         id="path35" />
      <path
         class="cls-4"
         d="m 191.06,123.63 c 0.79,-0.47 1.28,-1.13 1.48,-3.1 0.32,-3.17 -3.44,-6 -5.07,-2.47 -0.74,1.62 0.56,1.26 1,2.17 1,2 -0.25,1.27 -0.95,3.25 -0.4,1.26 1.87,1.15 3.54,0.15 z"
         id="path37" />
      <path
         class="cls-4"
         d="m 130.11,116.57 c 2,-1.25 5.29,1.91 3.18,6.39 -0.76,1.6 -2.18,2 -3.23,0.8 a 5.56,5.56 0 0 1 -1.22,-3.33 c -0.1,-2.14 0.47,-3.36 1.27,-3.86 z"
         id="path39" />
      <path
         class="cls-4"
         d="m 191.06,123.63 c 0.79,-0.47 1.28,-1.13 1.48,-3.1 0.32,-3.17 -3.44,-6 -5.07,-2.47 -0.74,1.62 0.56,1.26 1,2.17 1,2 -0.25,1.27 -0.95,3.25 -0.4,1.26 1.87,1.15 3.54,0.15 z"
         id="path41" />
      <path
         class="cls-5"
         d="m 130.11,116.57 c 2,-1.25 5.29,1.91 3.18,6.39 -0.76,1.6 -2.18,2 -3.23,0.8 a 5.56,5.56 0 0 1 -1.22,-3.33 c -0.1,-2.14 0.47,-3.36 1.27,-3.86 z"
         id="path43" />
      <path
         class="cls-5"
         d="m 191.06,123.63 c 0.79,-0.47 1.28,-1.13 1.48,-3.1 0.32,-3.17 -3.44,-6 -5.07,-2.47 -0.74,1.62 0.56,1.26 1,2.17 1,2 -0.25,1.27 -0.95,3.25 -0.4,1.26 1.87,1.15 3.54,0.15 z"
         id="path45" />
    </g>
    <g
       id="spec">
      <path
         class="cls-6"
         d="m 123.18,118.38 a 1.45,1.45 0 0 0 -0.22,0.36 1.55,1.55 0 0 0 0.73,1.83 1.1,1.1 0 0 0 1.61,-0.58 1.52,1.52 0 0 0 -0.37,-1.56 c -0.58,-0.03 -1.17,-0.04 -1.75,-0.05 z"
         id="path48" />
      <path
         class="cls-6"
         d="m 185.46,115.77 a 0.79,0.79 0 0 0 -0.43,0.08 c -0.59,0.34 -0.72,1.52 -0.29,2.63 0.43,1.11 1.27,1.74 1.86,1.4 0.59,-0.34 0.7,-1.42 0.33,-2.49 a 16.26,16.26 0 0 0 -1.47,-1.62 z"
         id="path50" />
    </g>
    <g
       id="outline">
      <path
         class="cls-3"
         d="m 136.58,114.21 c -0.76,0.13 -1.53,0.31 -2.29,0.44 -0.76,0.13 -1.51,0.21 -2.27,0.32 -1.52,0.2 -3,0.39 -4.55,0.52 -1.55,0.13 -3,0.19 -4.57,0.26 a 31.63,31.63 0 0 0 -4.47,0.44 74.49,74.49 0 0 0 -8.61,2.55 23.38,23.38 0 0 0 -4,1.74 c -1.3,0.71 -2.65,1.51 -4.08,2.17 l -0.09,-0.12 a 33.34,33.34 0 0 1 3.21,-3.42 14.07,14.07 0 0 1 4.12,-2.56 47.2,47.2 0 0 1 9.09,-2.25 c 1.53,-0.26 3.11,-0.47 4.65,-0.6 1.54,-0.13 3.06,-0.27 4.59,-0.31 a 44.55,44.55 0 0 1 4.62,0.13 c 0.77,0.06 1.54,0.11 2.31,0.22 0.77,0.11 1.54,0.29 2.3,0.44 z"
         id="path53" />
      <path
         class="cls-3"
         d="m 102.76,123.85 a 21.44,21.44 0 0 0 8,5.81 23.28,23.28 0 0 0 9.59,1.84 17,17 0 0 0 9.18,-3 10.67,10.67 0 0 0 3.19,-3.68 10.41,10.41 0 0 0 1.15,-4.79 v 0 a 11.45,11.45 0 0 1 -1,4.89 11.17,11.17 0 0 1 -3.08,4 15.8,15.8 0 0 1 -9.46,3.23 20.64,20.64 0 0 1 -9.82,-2 22.91,22.91 0 0 1 -7.76,-6.24 z"
         id="path55" />
      <path
         class="cls-3"
         d="m 124.12,107.18 a 15.06,15.06 0 0 1 0.35,2.6 5.92,5.92 0 0 1 0,1.33 4.48,4.48 0 0 1 -0.43,1.26 v 0 c 0,0 0,0 0,0 a 9.62,9.62 0 0 1 0,-1.31 c 0,-0.43 0.1,-0.85 0.13,-1.27 a 14,14 0 0 0 0,-2.59 h 0.05 z"
         id="path57" />
      <path
         class="cls-3"
         d="m 120,108.33 0.34,1.65 a 3.89,3.89 0 0 1 0.14,0.83 2.85,2.85 0 0 1 -0.14,0.85 v 0 a 2.7,2.7 0 0 1 -0.31,-0.81 4.73,4.73 0 0 1 0,-0.84 v -1.68 0 z"
         id="path59" />
      <path
         class="cls-3"
         d="m 114.27,109.16 a 11.73,11.73 0 0 1 0.77,1.91 3.9,3.9 0 0 1 0.23,1 2.9,2.9 0 0 1 -0.14,1 v 0 a 6.51,6.51 0 0 1 -0.31,-1 c -0.07,-0.32 -0.07,-0.66 -0.12,-1 a 11.34,11.34 0 0 0 -0.42,-2 v 0 z"
         id="path61" />
      <path
         class="cls-3"
         d="m 108.42,110.87 0.89,2.1 a 8,8 0 0 1 0.4,1.06 4.9,4.9 0 0 1 0.15,1.15 v 0 0 a 4.42,4.42 0 0 1 -0.57,-1 7.09,7.09 0 0 1 -0.31,-1.09 l -0.55,-2.22 v 0 z"
         id="path63" />
      <path
         class="cls-3"
         d="m 102.43,113 a 16.16,16.16 0 0 0 1.24,2.5 c 0.24,0.39 0.52,0.76 0.74,1.17 a 12.23,12.23 0 0 1 0.61,1.26 v 0 0 a 4.78,4.78 0 0 1 -1,-1 6.36,6.36 0 0 1 -0.67,-1.26 16.81,16.81 0 0 1 -0.94,-2.66 v 0 z"
         id="path65" />
      <path
         class="cls-3"
         d="m 120.85,134.55 a 22.62,22.62 0 0 0 7.51,-4.1 19.43,19.43 0 0 0 2.87,-3.14 19.08,19.08 0 0 0 2.12,-3.71 c 0,0 0,0 0,0 0,0 0,0 0,0 a 12.29,12.29 0 0 1 -1.76,4 14.42,14.42 0 0 1 -3,3.16 23,23 0 0 1 -7.75,3.84 v 0 c 0,0 -0.01,-0.05 0.01,-0.05 z"
         id="path67" />
      <path
         class="cls-3"
         d="m 110.34,131.76 a 22,22 0 0 1 -4.13,-2.63 13,13 0 0 1 -1.8,-1.68 10.2,10.2 0 0 1 -1.39,-2 v 0 0 l 1.71,1.73 c 0.57,0.57 1.11,1.17 1.7,1.72 a 22.56,22.56 0 0 0 3.89,2.89 c 0,0 0,0 0,0 z"
         id="path69" />
      <path
         class="cls-3"
         d="m 164.83,125.68 a 12.85,12.85 0 0 0 1.52,4.1 20.19,20.19 0 0 0 2.52,3.57 21.19,21.19 0 0 0 3.22,2.92 13.34,13.34 0 0 0 3.84,2 c 0,0 0,0 0,0 0,0 0,0 0,0 a 9.63,9.63 0 0 1 -4.12,-1.66 15.69,15.69 0 0 1 -3.23,-3.07 20.19,20.19 0 0 1 -2.42,-3.73 13.28,13.28 0 0 1 -1.37,-4.2 c 0,0 0.04,0.05 0.04,0.07 z"
         id="path71" />
      <path
         class="cls-3"
         d="m 189.37,109.45 a 15.78,15.78 0 0 1 6.33,6.27 11.09,11.09 0 0 1 1.27,4.36 11.88,11.88 0 0 1 -0.55,4.48 c 0,0 0,0 0,0 a 18.2,18.2 0 0 0 0.11,-4.42 13.49,13.49 0 0 0 -1.14,-4.22 15.53,15.53 0 0 0 -6,-6.41 c 0,0 0,0 0,0 0,0 -0.03,-0.07 -0.02,-0.06 z"
         id="path73" />
      <path
         class="cls-3"
         d="m 162.72,119.76 a 66,66 0 0 1 6.89,-6.18 13.71,13.71 0 0 1 4.41,-2.25 37.61,37.61 0 0 1 4.68,-0.93 21.43,21.43 0 0 1 5,-0.24 11.77,11.77 0 0 1 2.63,0.56 9.74,9.74 0 0 1 2.33,1.27 15.12,15.12 0 0 1 2,1.65 6.84,6.84 0 0 1 1.52,2.37 14.1,14.1 0 0 1 0.81,4.82 l -0.38,0.14 c -1,-1.21 -2,-2.52 -2.85,-3.52 a 5.37,5.37 0 0 0 -1.37,-1.13 c -0.48,-0.28 -1.1,-0.57 -1.78,-0.89 -0.68,-0.32 -1.17,-0.58 -1.73,-0.81 a 16.59,16.59 0 0 0 -1.8,-0.55 18.19,18.19 0 0 0 -4.13,-0.48 42.19,42.19 0 0 0 -4.36,0.31 12.25,12.25 0 0 0 -3.93,1.35 90.36,90.36 0 0 0 -7.67,4.82 z"
         id="path75" />
      <path
         class="cls-3"
         d="m 163.5,122 a 11.38,11.38 0 0 0 6,6.81 18.82,18.82 0 0 0 9,2 17.31,17.31 0 0 0 8.7,-2.62 14.24,14.24 0 0 0 5.66,-7.13 h 0.1 a 12.49,12.49 0 0 1 -5.2,7.93 16.12,16.12 0 0 1 -9.25,2.59 19.14,19.14 0 0 1 -9.26,-2.32 11.55,11.55 0 0 1 -5.9,-7.22 z"
         id="path77" />
      <path
         class="cls-3"
         d="m 164.34,110.46 0.49,1.93 a 6.55,6.55 0 0 1 0.2,1 3.48,3.48 0 0 1 -0.06,1 v 0 a 3.44,3.44 0 0 1 -0.38,-0.94 5.56,5.56 0 0 1 -0.11,-1 l -0.14,-2 h 0.05 z"
         id="path79" />
      <path
         class="cls-3"
         d="m 167.54,108.67 0.4,1.75 a 4.4,4.4 0 0 1 0.16,0.88 3.3,3.3 0 0 1 -0.11,0.92 h -0.05 a 3.09,3.09 0 0 1 -0.34,-0.85 4.54,4.54 0 0 1 -0.06,-0.9 v -1.79 0 z"
         id="path81" />
      <path
         class="cls-3"
         d="m 170.48,106.18 a 11.6,11.6 0 0 0 0.09,2 8.09,8.09 0 0 1 0.14,1 4.86,4.86 0 0 1 -0.05,1 v 0 a 2.62,2.62 0 0 1 -0.39,-1 3.41,3.41 0 0 1 0,-1 11.05,11.05 0 0 1 0.25,-2 v 0 z"
         id="path83" />
      <path
         class="cls-3"
         d="m 174.38,105.46 0.17,2 a 4.64,4.64 0 0 1 0,1 3.46,3.46 0 0 1 -0.22,1 v 0 a 3.87,3.87 0 0 1 -0.23,-1 6.5,6.5 0 0 1 0.05,-1 l 0.18,-2 v 0 z"
         id="path85" />
      <path
         class="cls-3"
         d="m 177.62,103.65 a 6.91,6.91 0 0 1 0.78,2.76 5.49,5.49 0 0 1 0,1.46 3.78,3.78 0 0 1 -0.54,1.37 h -0.05 l 0.09,-1.41 c 0,-0.46 0.11,-0.92 0.12,-1.38 a 6.53,6.53 0 0 0 -0.43,-2.76 v 0 z"
         id="path87" />
    </g>
    <g
       id="eyebrows">
      <path
         class="cls-7"
         d="m 138.28,95.46 c -1.26,1.67 -3.07,2.18 -4.79,3.09 -5,2.42 -10.34,4 -15.47,6.14 -6.88,2.85 -13,7.19 -20.25,9.17 5.12,-5.79 12.06,-9 18.9,-12.19 a 101,101 0 0 1 15.55,-6.42 c 1.89,-0.48 3.57,-1.31 5.62,-0.92 z"
         id="path90" />
      <path
         class="cls-7"
         d="m 160.48,107.42 c 3,-9.59 12.3,-18.32 22.9,-17.66 a 11,11 0 0 1 8.69,5.24 c -11.8,-7 -23.59,4.46 -31.59,12.39 z"
         id="path92" />
    </g>
  </g>
</svg>
