<svg id="artwork" xmlns="http://www.w3.org/2000/svg" viewBox="0 0 300 630"><defs><style>.cls-1{fill:#d9b9b0;fill-rule:evenodd;}.cls-2{fill:#2d2d2d;}</style></defs><g id="mouth_happy3"><g id="lip_colour" data-name="lip colour"><path class="cls-1" d="M132.11,176.08s0,4.18,6.44,6.77c2.26.91,7.27,2.69,10.33,2.77,7.27.17,11.6-2.23,13.85-3,5.9-2.1,4.22-5,4.22-5l.94-.42a12,12,0,0,1-5.31-2.86,7.09,7.09,0,0,0-5.62-2.07c-3.24-.26-4.15.47-7.73.73-1.43.1-5-1.69-9.13-.73-2.51.59-4.72.21-6.8,2.22a4.33,4.33,0,0,1-2.18,1.14Z"/></g><g id="outine"><path class="cls-2" d="M175.52,173.49c-1.81,1.18-3.87,1.89-5.65,3.08a13.33,13.33,0,0,1-3,1.23c-3.08,1.1-6.37.85-9.55,1.46-10.36,1.4-23,1.92-30.35-6.88l.08-.07c8,7.63,19.87,7.31,30.19,6.3,3.15-.55,6.45-.17,9.53-1.16,2.13-.47,3.86-1.79,5.84-2.59,1-.44,1.93-.93,2.86-1.46l.06.09Z"/><path class="cls-2" d="M131.9,175.86a3.43,3.43,0,0,1,1.46-1.81,13.17,13.17,0,0,1,6.62-2.13,42.83,42.83,0,0,1,4.65.37l4.6.47c2.75-.42,6.68-1.13,9.94-.49a20.18,20.18,0,0,1,4.54,2.23l2.09,1.34a19.13,19.13,0,0,0,2.11,1.28l0,.1c-3.08-1.05-5.84-3.18-9-4-3.12-.5-6.6,0-9.79.34l-4.58-.61a42,42,0,0,0-4.54-.5,14.42,14.42,0,0,0-6.52,1.8A3.17,3.17,0,0,0,132,175.9l-.1,0Z"/><path class="cls-2" d="M166.87,177.41c2.26,3.47-4.51,5.7-6.83,6.81-8.29,3.55-18.78,2.52-25.62-3.59-1.24-1.24-2.62-2.81-2.46-4.68h.1c0,1.79,1.39,3.23,2.64,4.36,6.94,5.64,16.88,6.13,25.11,3.26a33.42,33.42,0,0,0,4.87-2.13,5.44,5.44,0,0,0,2-1.56,2.14,2.14,0,0,0,.06-2.42l.08-.06Z"/></g></g></svg>