<svg id="artwork" xmlns="http://www.w3.org/2000/svg" xmlns:xlink="http://www.w3.org/1999/xlink" viewBox="0 0 300 630"><defs><style>.cls-1{fill:none;}.cls-2{clip-path:url(#clip-path);}.cls-3,.cls-6{fill:#2d2d2d;}.cls-3,.cls-4{fill-rule:evenodd;}.cls-4{fill:#d9b9b0;}.cls-5{fill:#f2eae4;}</style><clipPath id="clip-path"><rect class="cls-1" y="1" width="300" height="630" rx="12"/></clipPath></defs><g class="cls-2"><g id="mouth_shocked1"><g id="Layer_88" data-name="Layer 88"><path class="cls-3" d="M169.08,173.82s-3.77,4.32-5,4.61-13.7,3.18-14.82,2.65-12.53-2.71-12.53-2.71l-3.77-2-.17-2.47,5.94-2.41,12.47-1,11.82.65Z"/></g><g id="lip_colour" data-name="lip colour"><path class="cls-4" d="M156.62,166c-3.18-.58-7.87,2.37-7.87,2.37s-4-2.67-6.79-1.84c-3,.88-7,4.08-8.1,5.19a21.22,21.22,0,0,0-2.79,4.78c1.66,2.14,5.18,7.62,7.46,7.92s7.88.33,10.78.63,9.92,0,12.13-1.34a20.86,20.86,0,0,0,8.22-9.87,15.91,15.91,0,0,0-5.19-5.14A22.36,22.36,0,0,0,156.62,166Zm7.09,11c-3.61,1.46-9.68,2.1-12.55,2.26a32.8,32.8,0,0,1-12.33-1.75,42,42,0,0,0-6.16-1.8,18.68,18.68,0,0,1,4-1.71,48.19,48.19,0,0,1,6.54-1.23c2.77-.33,5.45-.62,8.24-.82a78.05,78.05,0,0,1,10.65.77c3.61.47,6.69,1.18,6.69,1.18A29.12,29.12,0,0,1,163.71,177Z"/></g><g id="teeth"><path class="cls-5" d="M166.9,173.45a11.74,11.74,0,0,1-4.77,1.22c-.91.07-3.17.28-4.37.23s-5.69.18-6.84.18-7.27.17-8.17.12-4.85.13-4.85.13l-.14-1.61s13.86-1.67,15.31-1.75S165.32,172.92,166.9,173.45Z"/></g><g id="outine"><path class="cls-6" d="M174.38,173.91a23.75,23.75,0,0,1-2.91.22,10.17,10.17,0,0,1-1.46,0,7.33,7.33,0,0,1-1.44-.28v-.05a7.27,7.27,0,0,1,1.46-.17,14.28,14.28,0,0,1,1.45.09c1,.07,1.92.12,2.89.13Z"/><path class="cls-6" d="M125.52,177.16c1.43-.23,2.84-.54,4.25-.86.7-.16,1.4-.36,2.11-.48a14.37,14.37,0,0,1,2.18-.21v0a17.4,17.4,0,0,1-2.09.65c-.7.18-1.42.27-2.13.39-1.44.23-2.88.42-4.33.51Z"/><path class="cls-6" d="M131.08,176.22a12.16,12.16,0,0,1,2.95-4.74,20.84,20.84,0,0,1,4.33-3.6,12,12,0,0,1,5.31-2,1.56,1.56,0,0,1,.38,0,2.15,2.15,0,0,1,.42.07c.25.08.47.16.69.25.45.18.87.39,1.3.59l1.25.65,1,.57.23-.11.42-.21c.88-.44,1.76-.86,2.66-1.25a15.52,15.52,0,0,1,2.86-1,2.6,2.6,0,0,1,.88,0l.72.11,1.44.24a29.39,29.39,0,0,1,2.89.66,15.8,15.8,0,0,1,2.78,1.11,14.41,14.41,0,0,1,2.44,1.72,18.67,18.67,0,0,1,2.13,2,6.67,6.67,0,0,1,1.5,2.55l-.1,0a6.93,6.93,0,0,0-1.72-2.26,21.52,21.52,0,0,0-2.24-1.8,13.81,13.81,0,0,0-2.4-1.49,15.56,15.56,0,0,0-2.66-.94c-.92-.24-1.86-.42-2.8-.6l-1.43-.25-.72-.12-.17,0h-.12a1.37,1.37,0,0,0-.27,0,15.39,15.39,0,0,0-2.67.83c-.89.35-1.78.74-2.65,1.14l-1,.49-1.38-.81-1.22-.66c-.4-.22-.82-.42-1.23-.61l-.61-.24-.27-.06c-.08,0-.21,0-.32,0a11.62,11.62,0,0,0-5.1,1.76,21.06,21.06,0,0,0-4.36,3.4,12,12,0,0,0-3.06,4.56Z"/><path class="cls-6" d="M131,176.5a33.05,33.05,0,0,1,3.65,4.7,9.84,9.84,0,0,0,2,2.11,6,6,0,0,0,2.64,1.07,42.64,42.64,0,0,0,5.89.41c2,0,3.94,0,5.94,0s4,0,5.91-.14a13.62,13.62,0,0,0,5.35-1.89,15.49,15.49,0,0,0,4.24-3.88,23.59,23.59,0,0,0,2.92-5.1l.1,0a19.23,19.23,0,0,1-2.45,5.48,15.18,15.18,0,0,1-4.28,4.32,12.86,12.86,0,0,1-5.79,2c-2,.12-4,0-6-.05s-4,0-6-.09a44.68,44.68,0,0,1-6-.58,6.53,6.53,0,0,1-2.78-1.24,9.8,9.8,0,0,1-2-2.25,34.59,34.59,0,0,0-3.47-4.81Z"/><path class="cls-6" d="M130.92,176.18a3.39,3.39,0,0,1,2.38-.52c.83.09,1.63.27,2.44.44a38.93,38.93,0,0,1,4.65,1.67,12,12,0,0,0,2.38.52l2.45.37a19.49,19.49,0,0,0,4.87.33,47.22,47.22,0,0,0,9.75-1.11,26,26,0,0,0,4.62-1.59,29.22,29.22,0,0,0,4.29-2.41l0,0a23.66,23.66,0,0,1-4.16,2.69,25.21,25.21,0,0,1-4.66,1.76c-3.21.93-6.58.89-9.85,1a19.92,19.92,0,0,1-4.94-.4l-2.44-.42a12.5,12.5,0,0,1-2.42-.56,38.46,38.46,0,0,0-4.6-1.76,22.5,22.5,0,0,0-2.42-.48,3.3,3.3,0,0,0-2.34.45Z"/><path class="cls-6" d="M132,176.1a22.31,22.31,0,0,1,8.92-3.06c3.13-.5,6.26-.86,9.43-1.09a44.25,44.25,0,0,1,4.75-.09,47.11,47.11,0,0,1,4.75.28,60.06,60.06,0,0,1,9.32,1.76v0c-3.11-.58-6.23-1-9.36-1.31-1.57-.14-3.14-.24-4.71-.28a43.72,43.72,0,0,0-4.72,0c-3.14.19-6.3.5-9.41.93a22.32,22.32,0,0,0-8.94,2.87Z"/><path class="cls-6" d="M137.77,173.8l.17,1.47,13.86-.52c2.57-.09,5.14-.21,7.71-.25,1.29,0,2.55-.08,3.83-.14.64-.09,1.27-.18,1.9-.3.32-.07.63-.13.93-.22s.67-.18.77-.45H167c0,.2-.2.28-.33.37a2.53,2.53,0,0,1-.44.21,9.21,9.21,0,0,1-.93.31c-.62.17-1.25.31-1.88.43-1.28.12-2.59.24-3.88.29-2.57.1-5.15.11-7.72.15l-13.95.21-.14-1.56Z"/></g></g></g></svg>