<svg id="artwork" xmlns="http://www.w3.org/2000/svg" viewBox="0 0 300 630"><defs><style>.cls-1{fill:#d9bbb0;fill-rule:evenodd;}.cls-2{fill:#2d2d2d;}</style></defs><g id="mouth_neutral4"><path class="cls-1" d="M134.62,178.57c.83,1.41,4,6.56,6.29,6.76s6.92-.35,9.81-.15,10.58-.52,12.64-1.52,3.36-3.58,4.19-5.19-4.57-5.58-7.64-5.87-6.65,2.17-10,1.75-5.65-2.44-8.13-1.43a25,25,0,0,0-6.2,3.82A3.34,3.34,0,0,0,134.62,178.57Z"/><path class="cls-2" d="M172.94,177.87c-1.77.79-3.75.26-5.62.57-2.91-.24-5.25,1.16-8.35,1.23-4.41.14-9.73-.34-14.14-.19-5.46,0-11.47-1.09-16.92-1.11v-.09c5.61-.74,11.32.05,16.94.21,3.27,0,8,.37,11.3.55a22.07,22.07,0,0,0,5.57-.24c1.85-.29,3.75-1,5.6-.66,1.78-.22,3.88.32,5.57-.35l.06.08Z"/><path class="cls-2" d="M134.05,178c4.29-3.33,6.37-7.3,12.54-5a10.17,10.17,0,0,0,4.44,1c5.59-1.31,8.5-4.11,13.5.93l3.43,3.3-.06.08c-4.07-2.61-6.75-6.78-12.12-4.73a28.13,28.13,0,0,1-4.68,1.22,10.81,10.81,0,0,1-4.73-1.18c-2.11-.85-4.64-1.14-6.65.09-1.69,1-4.23,3.71-5.67,4.27Z"/><path class="cls-2" d="M165.66,181.76c-.43,1.2-2.11,1.77-3.15,2.37-3.56,2.07-7.87,1.47-11.72,1.35-2.69-.09-5.24.83-8,.42a12.18,12.18,0,0,1-5.59-2.39,3.19,3.19,0,0,1-.87-1.85l.1,0a3.78,3.78,0,0,0,2.75,2.36,19.51,19.51,0,0,0,3.75.91c2.54.27,5.23-.44,7.83-.23,4,.26,7.91,1,11.59-.82,1.07-.55,2.62-1,3.17-2.1Z"/></g></svg>