<svg id="speech_bubbles" xmlns="http://www.w3.org/2000/svg" viewBox="0 0 480 455"><defs><style>.cls-1{fill:#fffaee;}.cls-2{fill:#2d2d2d;}</style></defs><g id="large"><path class="cls-1" d="M14.25,76.72C13.11,61.31,8.51,25.26,8.51,25.26s36.61-2.68,47.15-4.13C101,14.89,138.81,13,184.44,10.2c21.4-1.32,41.48-2.57,65.44-3.16,23.17-.57,53.13-2.22,76.31-1.87,28.27.42,106.91-.48,135.18,0q6.25,129.63,2.24,259.5c-.24,7.78-1.17,41.21-1.17,41.21l-98.6.79c-43,.29-58.21-.06-100.49,3.1,1.82,61.57-6.61,75.79-29.61,125.28,5.31-61,5.66-71-10-136.11-17.57,2.64-178.18,15.42-187,15.75S14.25,76.72,14.25,76.72Z"/><path class="cls-2" d="M14.49,76.71c2.92,47,6.14,93.92,10,140.82,2,23.44,4.05,46.89,7,70.21.77,5.82,1.58,11.65,2.69,17.39.28,1.43.58,2.86.94,4.26.18.7.37,1.4.59,2.08a10,10,0,0,0,.7,1.74,1.31,1.31,0,0,0,.48.56c.24.1.5,0,.75,0l2.09-.13,4.39-.32,35.19-2.77,70.34-5.86,35.16-3.09c11.7-1.09,23.45-2.11,35.09-3.45l2.55-.32,1.61-.2.41-.05c.05,0,.17-.07.16,0l.05.2.19.79,1.2,5,2,8.6,2,8.6,1.88,8.64a285.73,285.73,0,0,1,5.59,35c.58,5.9.72,11.83.8,17.74s-.2,11.83-.54,17.72c-.65,11.78-1.69,23.51-2.68,35.24l-2.76-.74c5-10.82,10.12-21.56,14.78-32.45s8.72-22,11-33.57a194.23,194.23,0,0,0,3.58-35.18c.12-2.95.05-5.92.07-8.88s0-5.93-.11-8.9l-.11-5.24,0-1.87v-.12s.06,0,.09,0l.24,0,.46,0,.93-.07,3.12-.23,8.92-.64c11.88-.82,23.8-1.45,35.73-1.78s23.83-.4,35.73-.49l71.41-.64,26.57-.26,13.29-.14,2.17,0h.16c.06,0,0-.1,0-.14v-.32l.17-6.6L462,243.66q1.2-53.11.66-106.23T460,31.25L459,7.58l-11.43-.09H434.28l-53.14.11c-15.57,0-31.12.06-46.71-.07-7.82-.08-15.53-.25-23.29-.13s-15.52.28-23.29.51l-23.32.75c-7.78.27-15.59.41-23.34.62-15.53.44-31.05,1.23-46.57,2.1-31.07,1.83-62.16,3.24-93.13,5.88q-23.23,2-46.36,5c-7.78.89-15.53,1.45-23.29,2.06l-11.65.84-10.94.75L10.65,38l1.42,12.88c.89,8.58,1.8,17.17,2.4,25.79l-.44,0c-.75-8.59-1.8-17.16-2.85-25.72L9.54,38.18,7.76,24.65l12.31-1,11.62-1c7.74-.73,15.51-1.41,23.17-2.4q23.11-3.3,46.39-5.57c31-3,62.11-4.74,93.15-6.83,15.53-1,31.09-1.92,46.66-2.48l23.32-.78,23.33-.9c7.78-.28,15.57-.53,23.37-.66s15.65,0,23.38,0c15.54,0,31.1-.07,46.66-.16l53.15-.28h13.3l6.66,0,8.48.09h.83a1.47,1.47,0,0,1,.21,0v.62l.08,1.66L464,7.8l.15,3.32.31,6.64L465,31.05q2.13,53.15,2.44,106.35t-1.11,106.36l-1.61,53.14-.2,6.68-.09,3,0,.75c0,.22.08.6-.28.49h-1.5l-4.47,0-13.29.08-26.57.16-71.42.43c-11.9.05-23.79.08-35.66.38s-23.74.87-35.6,1.65l-8.89.61-1.33.09c-.11,0-.27,0-.34.05v.37l.07,3.67c.06,3,.12,6,.08,9s0,6-.11,9A196.58,196.58,0,0,1,261.34,369c-2.41,11.81-6.64,23.14-11.34,34.11s-9.92,21.69-14.94,32.48l-3.48,7.49.72-8.23c1-11.71,2-23.43,2.76-35.14.36-5.86.55-11.71.61-17.56s-.17-11.69-.73-17.51a282.32,282.32,0,0,0-5.39-34.7l-1.85-8.61-1.94-8.6-2-8.59-.84-3.58c.05-.57-.51-.27-.85-.28l-1.83.23c-11.75,1.3-23.45,2.26-35.18,3.3l-35.18,2.95q-35.19,2.88-70.38,5.57L44.28,315l-4.41.3-2.31.13a3.39,3.39,0,0,1-.71,0H36.5c-.11,0-.24,0-.33-.11a2.53,2.53,0,0,1-1-1,8.67,8.67,0,0,1-.6-1.24c-.14-.36-.27-.72-.38-1.08-.23-.73-.42-1.45-.61-2.18-.36-1.45-.66-2.9-.94-4.35-1.1-5.82-1.88-11.66-2.63-17.5-2.85-23.39-4.8-46.85-6.69-70.31C19.68,170.7,16.68,123.73,14,76.74Z"/><path class="cls-2" d="M30.12,318.54l95.66-8.1,47.8-4.45c8-.72,15.94-1.43,23.92-2.07,4-.32,8-.63,12-.89,2-.13,4-.25,6-.34l1.51-.05c.57,0,1.26,0,1.87,0a5.24,5.24,0,0,1,1.76.32c.16.05.2.21.24.35l.14.41.29.84,2.22,10.52,2.07,10.19c1.32,6.8,2.62,13.61,3.69,20.47a262.31,262.31,0,0,1,3.54,41.51c.08,6.95-.12,13.89-.36,20.82l-.37,9.24-.31,6.49-.15,3.12,0,.39v.19c0,.05,0,.06,0,0l0-.1.33-.74.65-1.49,2.59-6,1.32-3.09,1.86-4.5,2-4.79,1.88-4.82.94-2.4.88-2.43,1.75-4.86c1-3.27,2.21-6.51,3.08-9.83.45-1.65,1-3.29,1.36-5l1.19-5c.38-1.67.65-3.36,1-5l.47-2.53.37-2.54c2.07-13.56,2.36-27.38,2.31-41.17,0-3.45,0-6.91-.13-10.36l-.12-6.11,0-1.94c0-.11,0-.13.14-.13l.24,0,.48-.05,1-.1,3.56-.38c6.93-.83,13.85-1.27,20.78-1.8,13.85-.81,27.7-1.47,41.55-1.85,27.7-.85,55.4-1.22,83.1-1.37,13.85-.1,27.7,0,41.55,0l20.78.09c1.92.25,1.19-.21,1.49-4.57l.33-10.38q1.29-41.49,1.93-83c.18-13.83.27-27.66.13-41.47s-.71-27.62-1.16-41.45l-1.86-53.51L468.51,36l-.34-13.39L468,16l0-1.26c.07-.23-.21-.11-.34-.13l-25.79.24-26.75.34q-26.76.39-53.5,1C290.28,17.63,219,19.91,147.73,23.54c-24.21,1.3-48.41,2.65-72.59,4.42-6,.4-12.08.91-18.12,1.38L48,30.05c-1.51.12-3,.23-4.46.38s-2.94.36-4.42.56c-5.93.85-11.89,1.88-17.83,3l-8.92,1.67-4.06.79a.65.65,0,0,0-.49.7l2.94,35.12c.91,11.75,1.66,23.5,2.48,35.25L18,178c3.35,47,7.05,93.94,12.42,140.74l-.61.08c-6.55-46.67-11.31-93.59-15.42-140.53q-3.08-35.22-5.87-70.44c-1-11.74-1.87-23.48-2.91-35.21L2.28,37.36a5.89,5.89,0,0,1,1-3.84A5.78,5.78,0,0,1,6.4,31.17,9.32,9.32,0,0,1,7.33,31l.56-.12L9,30.6l2.24-.45,9-1.78c6-1.15,12-2.25,18-3.17,1.52-.23,3-.44,4.6-.62s3.09-.31,4.6-.44l9.08-.8c6-.52,12.1-1.08,18.16-1.52,24.21-2,48.45-3.51,72.69-5,71.32-4.07,142.72-6.21,214.11-7.39Q388.26,9,415,8.8l26.77-.18,27.74-.08h4.27c.1,0,0,.09.06.14v.2l0,1.55.08,5.43.11,6.69.25,13.37L475,62.64l1.56,53.5c.39,13.84.91,27.67,1,41.58s-.07,27.74-.31,41.59c-.5,27.71-1.32,55.4-2.3,83.08l-.39,10.38-.24,6.36-.08,2.14,0,.54H472.6l-4.19-.05-20.75-.19c-13.84-.12-27.68-.11-41.52-.11-27.67,0-55.35.22-83,.92-13.83.3-27.64.88-41.44,1.61-6.88.49-13.78.89-20.6,1.67l-1.61.16a2.31,2.31,0,0,0-.62.09v.65l.06,4.27c.07,3.47.08,6.94.07,10.41,0,13.87-.38,27.84-2.56,41.66l-.39,2.59-.5,2.58c-.35,1.71-.65,3.43-1.05,5.14l-1.24,5.09c-.39,1.7-.94,3.36-1.41,5-.91,3.38-2.11,6.65-3.18,10l-1.8,4.9-.9,2.45-1,2.42-1.93,4.85-2,4.8-1,2.4-1.14,2.67-2.8,6.41-5.72,12.95L229,440.39l-.72,1.62-.09.2c0,.12,0,.11,0,0l0-.45,0-.9.38-7.16.75-14.2.32-6.34.24-5.18c.27-6.91.51-13.81.47-20.7a259.58,259.58,0,0,0-3.26-41.19c-1-6.83-2.28-13.62-3.55-20.42l-2-10.17-2-9.81-.11-.53-.06-.27c0-.09,0-.2-.12-.22a5,5,0,0,0-1.09-.09h-1.12l-1.48,0c-2,.07-4,.18-6,.29q-6,.36-12,.82-12,.88-23.92,1.91l-23.91,2.06c-8,.68-15.93,1.46-23.92,2.05L30.15,319Z"/></g></svg>