<svg id="speech_bubbles" xmlns="http://www.w3.org/2000/svg" viewBox="0 0 976 331"><defs><style>.cls-1{fill:#2d2d2d;}.cls-2{fill:#fffaee;}</style></defs><g id="long"><path class="cls-1" d="M959,124.43c3.2-.23,6.41-.53,9.64-.52a22,22,0,0,1,2.43.11,7.76,7.76,0,0,1,1.24.19,2.81,2.81,0,0,1,1.21.5,1.19,1.19,0,0,1,.37.54l.29.59c.16.39.29.78.42,1.17a18,18,0,0,1,.47,2.41,44.74,44.74,0,0,1-.17,9.68c-.36,3.2-.65,6.38-.95,9.59-1.2,12.8-2.63,25.58-4.09,38.35-3,25.55-6.13,51.06-8.3,76.67-.56,6.4-1.22,12.88-3.22,19.09a20.59,20.59,0,0,1-4.89,8.52,32.38,32.38,0,0,1-8.23,5.26,68.71,68.71,0,0,1-18.73,5c-3.2.45-6.42.77-9.63,1s-6.43.37-9.64.55l-38.51,2.12c-12.83.72-25.68,1.29-38.52,1.95-25.67,1.33-51.36,2.38-77.05,3.54s-51.38,2.12-77.08,3c-51.39,1.88-102.79,3.36-154.2,4.71-102.81,2.65-205.64,4.42-308.47,6L59.15,326.61l-9.64.14c-3.21.06-6.44-.06-9.65-.08l-19.32-.25-4.82-.06-2.63,0-2.07,0-1,0H9.46c-.23.06-.07-.28-.12-.4l-.06-11.26-.07-19.28c0-12.84-.42-25.66-.86-38.5s-1-25.67-1.6-38.51Q5.91,200.43,5,182.54L2.84,144.63l70.3-.82,68.16-1c45.43-.74,90.87-1.56,136.28-2.72q34.07-.85,68.11-2.09c11.29-.47,22.64-1.19,34-1.87l34-2.15,17-1.11,1-.06h0l.47-.7,2.35-3.52c1.54-2.37,3.07-4.74,4.57-7.13,6-9.57,11.65-19.36,16.68-29.42,2.48-5,4.77-10.15,6.77-15.37s3.74-10.59,5.36-16a312.39,312.39,0,0,0,7.73-32.9c.31-1.7.59-3.4.87-5.11s.54-3.42.76-5.09l2.52-19.09L482,17.6c1.49,12.62,2.64,25.23,3.35,37.92.35,6.34.57,12.7.51,19.1a125.59,125.59,0,0,1-1.62,19.19c-1,6.33-2.33,12.58-3.86,18.76s-3.29,12.3-4.91,18.34c-.2.75-.39,1.5-.56,2.23l-.14.6,0,.16a.26.26,0,0,0,0,.15s.1,0,.15,0h.95l9.48-.23,19-.44c50.57-1,101.13-1.17,151.68-1.3q37.9-.1,75.81-.39c25.27-.27,50.53-.58,75.8-1.2q75.78-1.73,151.49-6.07l0,.48q-75.64,5.35-151.47,7.75c-25.26.86-50.54,1.38-75.81,1.85s-50.56.7-75.83.94c-50.55.47-101.09.93-151.6,2.15l-18.94.52-9.47.27-1.58,0a9.28,9.28,0,0,1-2.13-.06c-.15,0-.32-.05-.47-.09l-.34-.18a1.72,1.72,0,0,1-.66-.49,3,3,0,0,1-.62-1.64,8.84,8.84,0,0,1,.14-2.08c.06-.36.14-.72.2-1.08l.15-.64c.18-.8.37-1.59.57-2.36,1.63-6.18,3.36-12.2,4.83-18.3s2.77-12.22,3.7-18.39a120.33,120.33,0,0,0,1.5-18.55c0-6.24-.21-12.51-.57-18.79-.75-12.54-1.94-25.11-3.45-37.58H482c-.23,1.79-.49,3.5-.76,5.25s-.57,3.47-.87,5.2a313,313,0,0,1-7.77,33.45c-1.64,5.49-3.4,11-5.44,16.34s-4.41,10.67-6.94,15.82c-5.12,10.28-10.83,20.2-16.9,29.88-1.51,2.42-3.06,4.82-4.62,7.21l-2.38,3.58-.72,1.06-.6.88-.31.44-.15.21c-.05.07-.08.18-.19.16l-3.29.22L414,139l-34,2.14c-11.35.67-22.68,1.38-34.09,1.85q-34.1,1.22-68.18,2c-45.44,1.06-90.89,1.76-136.34,2.35l-68.17.78-66,.56,1.76,33.67,1.69,35.81c.57,12.85,1.11,25.7,1.53,38.56s.79,25.74.78,38.61l0,19.29,0,8c0,.08,0,.06.1.06h.51l2.19,0,4.81.07,19.25.29c3.21,0,6.42.15,9.63.1l9.64-.12,154.25-1.87C316.18,319.89,419,318.39,521.81,316q77.12-1.81,154.19-4.28c25.7-.79,51.39-1.82,77.08-2.75s51.38-2.06,77-3.31c12.84-.61,25.69-1.14,38.52-1.83l38.51-2c3.21-.18,6.43-.31,9.62-.53s6.39-.52,9.55-.95a67.63,67.63,0,0,0,18.43-4.83,31,31,0,0,0,8-5.05,19.65,19.65,0,0,0,4.61-8c2-6.05,2.66-12.47,3.24-18.85,2.25-25.62,5.51-51.13,8.54-76.66,1.51-12.77,3-25.54,4.22-38.33.31-3.19.62-6.4,1-9.59a44.34,44.34,0,0,0,.2-9.56,15.33,15.33,0,0,0-.45-2.32,6.19,6.19,0,0,0-.91-2,4.69,4.69,0,0,0-2.14-.59c-.78-.08-1.58-.1-2.38-.11-3.2,0-6.4.26-9.61.49Z"/><path class="cls-2" d="M16.47,208.16q1.74,55,3.5,110.06c296.43,2.21,571.4-14.08,866.39-23.56,9.56-.31,43.73-1.71,56.17-6.84,4.39-1.81,8-6.43,8.33-13.57,2.31-45.33,14.58-156.91,11.28-160.37-3.94-4.13-478.55,13.24-478.55,13.24s9.14-37.8,12.69-54.85C501.85,45.58,490,5,490,5s-5.7,39.57-15.91,73.49c-7.92,26.34-20.25,48.92-23.91,49.14C232.35,140.59,22.58,138,13.88,137.86,13.88,137.86,16.17,198.94,16.47,208.16Z"/><path class="cls-1" d="M16.36,208.17l-1.69-39.81-.82-19.9-.39-10.33,0-.71h2.07l2.73,0,5,0c26.55.19,53.11.13,79.67,0q79.67-.57,159.31-2.84T421.39,128l19.88-1.14,5-.28,2.49-.14,1.12-.07a1.1,1.1,0,0,0,.67-.26,5.93,5.93,0,0,0,.72-.64c.26-.26.51-.55.76-.85.5-.6,1-1.24,1.43-1.9.92-1.33,1.78-2.72,2.6-4.13a161.76,161.76,0,0,0,8.66-17.75q3.84-9.12,6.87-18.56c4-12.6,7.13-25.49,9.91-38.44s5.17-26,7.14-39.09l1-6.73,1.8,6.54a232.77,232.77,0,0,1,6.32,30.65c.75,5.16,1.16,10.38,1.44,15.61,0,2.63.18,5.25.05,7.88-.06,1.31,0,2.63-.16,3.94l-.35,3.95c-.11,1.31-.4,2.62-.59,3.93l-.32,2-.4,1.91-1.65,7.62-3.45,15.17-6.63,28.19,113.82-4.19,116-4q58-1.94,116-3.66l58-1.55c19.35-.43,38.68-.91,58.07-1,3.21,0,6.41,0,9.65.12.81,0,1.63.06,2.46.11.29,0,1.16.06,1.81.18a3.12,3.12,0,0,1,1,.23l.45.18.4.22c1.11.7,1.33,2.15,1.5,3.53l.06.83,0,.64,0,1.25c0,6.56-.4,12.91-.79,19.32-.84,12.77-1.9,25.51-3,38.24-2.14,25.46-4.46,50.9-6.36,76.33-.47,6.36-.91,12.72-1.27,19.07-.1,1.6-.11,3.1-.33,5a20.26,20.26,0,0,1-1.36,5.27,17,17,0,0,1-2.93,4.8,15.12,15.12,0,0,1-4.56,3.51,23.76,23.76,0,0,1-2.51,1l-1.22.43-1.21.34c-1.62.48-3.23.82-4.83,1.18-3.22.66-6.42,1.19-9.63,1.63-6.41.87-12.82,1.46-19.22,1.94s-12.82.79-19.24,1l-19.14.67-38.28,1.35C727,303.12,625,307.46,522.83,311.12c-51.05,1.82-102.11,3.53-153.19,4.86-25.54.74-51.08,1.24-76.62,1.85-25.54.43-51.08,1-76.63,1.24q-76.63,1.08-153.28.53l-38.32-.36-5.7-.06c-.1,0,0-.1-.05-.15v-.61l0-.8L19,316l-.07-2.5-.24-9.57-.49-19.16-1.93-76.6.49,0,3,76.58.73,19.14.36,9.57.09,2.29c0,.51,0,1.06.08,1.53l3.88,0,38.3-.08c51.08-.25,102.15-.78,153.22-1.89,25.53-.45,51.06-1.2,76.59-1.81,25.52-.78,51.05-1.45,76.57-2.35,51.05-1.66,102.09-3.63,153.13-5.62,102.08-4,204.17-8.24,306.29-11.68l38.3-1.23,19.15-.62q9.52-.29,19-.94c6.33-.44,12.65-1,18.89-1.83,3.13-.41,6.23-.92,9.27-1.53,1.51-.33,3-.65,4.47-1.08l1.1-.3,1-.36a20.63,20.63,0,0,0,2-.75,9.86,9.86,0,0,0,3-2.29,11.9,11.9,0,0,0,2-3.33,15.77,15.77,0,0,0,1-4c.17-1.31.21-3,.32-4.6.38-6.4.84-12.78,1.34-19.16,2-25.49,4.42-50.92,6.66-76.36,1.11-12.71,2.22-25.43,3.1-38.14.42-6.33.87-12.74.86-18.95l0-1.14,0-.56,0-.36c0-.16,0-.39-.15-.49l-.26,0-.56,0-2.32-.11c-3.14-.11-6.33-.13-9.51-.15-19.29,0-38.63.4-58,.79l-58,1.44q-58,1.56-116,3.4l-116,3.72-118.14,4,4.14-17.2,3.58-15.13,3.49-15.14,1.67-7.57.4-1.9.31-1.87c.19-1.25.46-2.48.58-3.75l.34-3.8c.14-1.26.11-2.54.17-3.82.13-2.54,0-5.11,0-7.67-.26-5.12-.65-10.24-1.37-15.34A231.74,231.74,0,0,0,488.65,5.4l2.82-.19q-3,19.77-7.29,39.26c-2.85,13-6.06,25.93-10.11,38.66q-3.1,9.53-7,18.76a160.53,160.53,0,0,1-8.86,18c-.85,1.46-1.74,2.89-2.72,4.29-.49.7-1,1.39-1.57,2.07-.28.34-.57.67-.9,1a7.48,7.48,0,0,1-1.15,1,4.81,4.81,0,0,1-.77.42,1.55,1.55,0,0,1-.42.12,2,2,0,0,1-.43.08l-1.36.08-2.48.13-5,.27-19.89,1.06q-79.59,4.14-159.27,6.06T102.89,138.7c-26.56.07-53.12,0-79.68-.27l-5-.06-2.26,0-1.1,0h-.55l0,.54.34,9.58.65,19.91,1.24,39.82Z"/></g></svg>