<svg id="speech_bubbles" xmlns="http://www.w3.org/2000/svg" viewBox="0 0 460 264"><defs><style>.cls-1{fill:#2d2d2d;}.cls-2{fill:#fffaee;}</style></defs><g id="meduim"><path class="cls-1" d="M351,16.82l4.55-.05H356a.75.75,0,0,1,0,.15l0,.59,0,1.19-.07,2.25c-.1,2.89-.12,5.77-.17,8.65-.05,5.77,0,11.54.06,17.3.2,11.54.64,23.07,1,34.61s.62,23.08.58,34.63q0,8.64.56,17.26a141.49,141.49,0,0,0,2,17.1,48.78,48.78,0,0,0,2.2,8.24,41.92,41.92,0,0,0,3.86,7.58,65.05,65.05,0,0,0,5.15,6.81c1.89,2.15,3.88,4.21,5.93,6.23,4.1,4,8.39,7.89,12.51,12,2.07,2,4.07,4.13,6.08,6.18s4.06,4.09,6.12,6.1c8.23,8.07,16.75,15.87,24.86,24.12a183.56,183.56,0,0,1,22.2,26.74l2.23,3.34-3.54-1.91-41.6-22.46-20.8-11.18a70.89,70.89,0,0,0-10.65-4.63,39.41,39.41,0,0,0-11.24-2.07,30.86,30.86,0,0,0-11.15,1.53,12.86,12.86,0,0,0-4.59,2.67,6.87,6.87,0,0,0-1.83,4.51,25.36,25.36,0,0,0,.3,5.59c.27,1.91.64,3.84.89,5.87a18.34,18.34,0,0,1,.15,3.18,6.19,6.19,0,0,1-1.15,3.55,4.31,4.31,0,0,1-1.67,1.3,8.69,8.69,0,0,1-.94.32l-.92.15c-1,.09-2,.14-3,.19-7.94.35-15.82.39-23.76.08s-15.73-.6-23.6-.78c-63-1.65-126,.29-188.89,3.68l-21.37,1.21L71,249.24l-5.35.32c-1.82.1-3.62.15-5.42.19-7.17.16-14.35.08-21.45.07-3.56,0-7.11.05-10.67.12l-5.34.13-7.45.22L15.1,233l-.24-15.11-.31-15.09L14.49,201c0-.58-.05-1.18-.11-1.82l-.3-3.74c-.24-2.49-.47-5-.75-7.48C11.17,168,8,148.05,6.2,127.83c-.43-5.08-.69-10.12-1-15.14L4.28,97.6c-.6-10.07-1.19-20.16-1.42-30.29S2.78,47.05,3.11,37l.26-7.57.18-4.74,0-.94V23c0-.06,0-.2.07-.17l1.86-.26L8.3,22.2c5-.71,10.05-1.27,15.09-1.79,13.66-1.33,27.36-2.05,41-2.36s27.33-.32,41-.58c6.82-.1,13.63-.29,20.43-.52L136,16.53c1.73-.06,3.45-.11,5.17-.11s3.43,0,5.15,0c13.7.18,27.33.86,41,1.33,6.82.24,13.63.44,20.43.5,3.4,0,6.8,0,10.19-.09,1.69,0,3.38-.11,5.06-.24s3.39-.24,5.09-.38c13.64-1.11,27.31-1.66,41-1.86s27.33-.09,41,.18l40.94,1v.41l-41-.18c-13.65,0-27.29.1-40.92.5s-27.25,1.15-40.8,2.42c-1.7.16-3.38.32-5.12.45s-3.44.24-5.16.31c-3.43.15-6.86.2-10.28.21-6.85,0-13.68-.11-20.51-.28-13.66-.32-27.3-.87-40.9-.92-1.7,0-3.4,0-5.09,0s-3.38.08-5.06.15l-10.23.5q-10.26.43-20.5.69c-13.66.33-27.31.52-40.92,1s-27.2,1.2-40.71,2.59c-5,.54-10,1.13-14.92,1.85l-1,.14a0,0,0,0,0,0,0v0l0,.91-.06,1.88-.24,7.55c-.29,10-.43,20.09-.18,30.11s.84,20.07,1.45,30.12l.92,15.1c.31,5,.56,10.07,1,15,1.72,20,4.86,39.91,7,60,.27,2.52.5,5,.72,7.57l.29,3.8c.06.62.09,1.28.12,2l.05,1.92.24,15.15.3,28.13,8.62-.18q5.37-.07,10.74-.06c7.18.05,14.27.17,21.38.06,1.77,0,3.54-.07,5.28-.16l5.34-.29,10.69-.6,21.4-1.1c63-3.15,126.09-4.83,189.16-2.89,7.88.21,15.76.57,23.64.88s15.7.31,23.51,0c1-.05,2-.11,2.88-.18a2.18,2.18,0,0,0,1.63-.72,3.56,3.56,0,0,0,.58-2,15.91,15.91,0,0,0-.13-2.72c-.42-3.78-1.47-7.72-1.13-12a12.19,12.19,0,0,1,.72-3.24,8.28,8.28,0,0,1,1.91-2.9,15.37,15.37,0,0,1,5.56-3.24A33.07,33.07,0,0,1,363.32,213c8.22.25,15.93,3.39,22.9,7.1L407,231.45l41.49,22.67-1.31,1.43A182.49,182.49,0,0,0,425.33,229c-8-8.24-16.5-16.08-24.71-24.22q-3.09-3-6.11-6.15c-2-2.08-4-4.17-6-6.19-4.06-4.06-8.33-7.95-12.45-12-2-2.05-4.06-4.15-6-6.34a66.66,66.66,0,0,1-5.25-7,44.25,44.25,0,0,1-3.94-7.84,50.66,50.66,0,0,1-2.22-8.48,143.35,143.35,0,0,1-2-17.26q-.51-8.67-.46-17.34c.11-11.54-.07-23.07-.37-34.61s-.66-23.07-.79-34.62c-.07-5.77-.05-11.54,0-17.32.08-2.88.11-5.77.23-8.65l.07-2.08,0-1,0-.49v-.12h-.36l-4.11,0Z"/><path class="cls-2" d="M14.11,106.81C14.3,139.25,30.94,178,24.42,246c82.78-4.49,146-.64,236.28-5.36,17.11-.89,52.9-.72,69.07-.53,9.26.1,2.72-15.3,6.35-22.86,2-4.13,10.8-3.44,16.64-1.15,30.87,12.1,57.51,25.35,90.23,37l-78.82-75c-4.56-4.35-9.19-8.76-11.61-13.73-2.34-4.78-2.54-9.84-2.72-14.83L344.53,5C238.89,6.81,117.71,11.28,12.07,13.09c-1.82,12.56-.26,33.44-.2,56.9Z"/><path class="cls-1" d="M13.93,106.82,12.52,86.55l-.66-10.14c-.22-3.38-.5-6.75-.46-10.15-.08-6.77-.28-13.53-.47-20.3s-.39-13.54-.29-20.33c0-3.42.16-6.75.51-10.25l.18-1.52.09-.77.05-.38c0-.12,0-.3.16-.25l3.08-.07,5.07-.11,20.31-.47L80.7,10.75,243.12,5.88q40.62-1.18,81.23-2.14l10.16-.22,5.08-.1,2.83-.06,2,0,1,0h.5a1,1,0,0,1,.24,0v.25L347,25.4,348.63,66l3.2,81.19a86.17,86.17,0,0,0,.7,9.87,20.92,20.92,0,0,0,3.23,8.62,46.33,46.33,0,0,0,6.29,7.36c2.36,2.33,4.86,4.64,7.31,7l29.5,27.92,45.87,43.33,8.56,8.09-11.14-3.89c-20.72-7.24-40.85-15.93-60.89-24.5-5-2.13-10-4.25-15.06-6.32l-7.56-3.07-3.79-1.51-1.89-.74c-.63-.25-1.29-.52-1.83-.7a24.7,24.7,0,0,0-7.12-1.39,12.68,12.68,0,0,0-3.29.27,3.42,3.42,0,0,0-1.84.9.37.37,0,0,1-.05.11l-.05,0-.06.15a5.05,5.05,0,0,0-.25.66,10.68,10.68,0,0,0-.37,1.55,24.26,24.26,0,0,0-.24,3.62c0,2.56.21,5.26.16,8.23a18,18,0,0,1-.66,4.85A8.34,8.34,0,0,1,336,240.4a7.14,7.14,0,0,1-2.84,2.14,8.83,8.83,0,0,1-3.06.57h-2.14l-4.08,0L307.48,243c-10.9,0-21.8,0-32.67.22-5.45.1-10.83.27-16.27.55l-16.38.72q-16.38.63-32.77.94-20.34.39-40.67.42H128.09c-27.08,0-54.14.15-81.17,1-3.38.12-6.76.2-10.14.35L26,247.7l-2.05.09-1,.05h-.26a.48.48,0,0,1-.12,0v-.13l.05-.52.33-4.1.45-5.19c.13-1.68.31-3.35.4-5l.25-5a317,317,0,0,0-.53-40.42c-1-13.45-2.93-26.84-5.08-40.2s-4.5-26.79-4.54-40.4h.49c.38,13.53,3.15,26.82,5.55,40.14s4.69,26.72,6,40.26A309.6,309.6,0,0,1,27.2,228l-.17,5.1c-.07,1.7-.22,3.39-.33,5.09l-.34,4.94-.05,1c-.09.23.19.11.32.12l.49,0,9.49-.54c3.38-.2,6.77-.33,10.16-.49,27.09-1.27,54.2-1.7,81.29-2s54.15-.6,81.19-1.36l16.33-.54,16.33-.65,16.33-.79c5.46-.29,11-.48,16.45-.58,10.95-.22,21.87-.25,32.8-.23l16.39.1,4.1,0h1.95a2.92,2.92,0,0,0,.95-.14,1,1,0,0,0,.38-.3,2.21,2.21,0,0,0,.41-.85,12.2,12.2,0,0,0,.4-3.23c.07-2.49-.16-5.25-.13-8.14a28.74,28.74,0,0,1,.34-4.53,16.18,16.18,0,0,1,.59-2.43,10.54,10.54,0,0,1,.48-1.24,3,3,0,0,1,.15-.32l.23-.39c.15-.26.32-.52.49-.76a8.73,8.73,0,0,1,1.21-1.22,9,9,0,0,1,1.32-.86,11,11,0,0,1,2.63-.94,18.06,18.06,0,0,1,4.84-.4,30.2,30.2,0,0,1,8.87,1.77c.75.27,1.35.52,2,.78l1.91.76,3.81,1.54,7.58,3.15c5.05,2.12,10.07,4.29,15.08,6.46,20,8.74,39.92,17.53,60.37,24.86l-2.57,4.2-45.55-43.66-29.36-28.09c-2.44-2.35-4.9-4.64-7.35-7.08a50.91,50.91,0,0,1-6.82-8.1,24.46,24.46,0,0,1-2.48-5,27.86,27.86,0,0,1-1.32-5.31,91.4,91.4,0,0,1-.7-10.38l-2.76-81.2-1.38-40.6-.63-18.74V6.72h-1l-2.24,0-5.08.08L324.42,7Q283.8,7.7,243.2,8.68c-54.15,1.26-108.3,2.7-162.46,3.83l-40.62.78-20.31.32-5.08.08-2,0c-.11,0-.09.08-.11.16l0,.25-.06.49-.13,1c-.34,3.24-.49,6.69-.56,10-.15,6.75,0,13.52.14,20.28s.29,13.55.32,20.32c-.07,3.38.19,6.76.38,10.14l.57,10.13L14.3,106.8Z"/></g></svg>