<svg id="speech_bubbles" xmlns="http://www.w3.org/2000/svg" viewBox="0 0 321 210"><defs><style>.cls-1{fill:#2d2d2d;}.cls-2{fill:#fffaee;}</style></defs><g id="small"><path class="cls-1" d="M287.88,36.46c5.57-4.66,10.92-9.6,16.25-14.55q4-3.73,7.91-7.51l3.9-3.82,1.91-1.93c.31-.33.63-.65.93-1l.45-.5.37-.47.62.65C310,12.9,299.58,18.17,289,23.08s-21.34,9.39-32.27,13.45-22.06,7.6-33.35,10.59l-4.24,1.07c-1.41.36-2.83.73-4.28,1-2.88.6-5.75,1.1-8.63,1.59l-8.62,1.41-9,1.36L187.52,53l-.78-.43-1.54-.8c-1-.53-2.08-1-3.14-1.5a54.89,54.89,0,0,0-6.46-2.45,32.78,32.78,0,0,0-3.32-.8c-1.13-.22-2.28-.41-3.43-.58-2.29-.33-4.6-.59-6.92-.73A131.77,131.77,0,0,0,134,47.21,211,211,0,0,0,80.28,62.77a205.52,205.52,0,0,0-24.82,13A115.88,115.88,0,0,0,33.35,92.58a71.15,71.15,0,0,0-8.67,10.68A89.51,89.51,0,0,0,18,115.38a130.41,130.41,0,0,0-5.05,13c-1.47,4.43-2.8,8.91-3.86,13.4-1.89,8.13-2.86,16.56-1.29,24.51a31.1,31.1,0,0,0,4.39,11.09A34.23,34.23,0,0,0,20.47,186C27,190.82,34.91,193.8,43,196.05a200.13,200.13,0,0,0,24.73,5.1,131.42,131.42,0,0,0,25.06,1.19,193.53,193.53,0,0,0,25.05-3.05c16.64-3.07,33.25-6.84,48.4-13.94,30.3-14,52.37-44.38,56.41-77.71l.53-6.25.07-6.28c0-2.09-.18-4.28,0-6.57a15.6,15.6,0,0,1,.69-3.46,12,12,0,0,1,1.63-3.23,24.08,24.08,0,0,1,4.79-4.78l5.07-3.95c3.41-2.6,6.88-5.11,10.39-7.56,7-4.88,14.24-9.47,21.32-14.19s14.05-9.64,20.76-14.9l.3.37c-6.51,5.52-13.29,10.75-20.25,15.7s-14,9.78-20.84,14.82c-3.41,2.54-6.78,5.12-10.09,7.78l-4.92,4a21.79,21.79,0,0,0-4.15,4.3,10.35,10.35,0,0,0-1.67,5.31c-.15,2,.06,4,.12,6.21s.06,4.34.06,6.52L226,108c-3.49,34.66-26,66.76-57.74,81.77a145.81,145.81,0,0,1-24.41,8.94c-8.34,2.29-16.75,4.05-25.2,5.58A193.51,193.51,0,0,1,93,207.36,135.9,135.9,0,0,1,67,206a206.2,206.2,0,0,1-25.31-5.45,97.34,97.34,0,0,1-12.33-4.39,56.82,56.82,0,0,1-11.52-6.62,38.47,38.47,0,0,1-9.21-9.86,35.17,35.17,0,0,1-4.86-12.6c-1.65-8.88-.48-17.79,1.54-26.2,1.13-4.67,2.52-9.22,4.05-13.72a133.11,133.11,0,0,1,5.28-13.32,93.92,93.92,0,0,1,7-12.58,75.08,75.08,0,0,1,9.2-11.16A119.23,119.23,0,0,1,53.72,72.9,207,207,0,0,1,79,59.89a213.58,213.58,0,0,1,54.62-15.36,133.26,133.26,0,0,1,28.45-1.32c2.38.16,4.75.44,7.12.81,1.18.17,2.35.39,3.53.62a34.58,34.58,0,0,1,3.54.89A58,58,0,0,1,183,48.14c1.08.5,2.16,1,3.22,1.57l1.58.85.77.42.46.27,8.25-1.18,8.61-1.32c2.87-.47,5.74-.94,8.56-1.5,1.41-.27,2.81-.62,4.22-1l4.23-1c11.24-2.87,22.34-6.32,33.28-10.23s21.69-8.34,32.29-13.11,21-9.94,31.3-15.38l1.94-1L320.4,7.18l-.47.6-.48.51c-.31.34-.63.67-.95,1l-1.94,1.93L312.61,15q-4,3.75-8,7.43c-5.38,4.9-10.78,9.79-16.42,14.41Z"/><path class="cls-2" d="M182.43,46.54c-34.49-8.6-66.59,3.81-98.78,18.58C59.26,76.32,34.89,90.36,20.52,112.5S5,166.74,24.45,184.88C36.81,196.42,54.69,200.32,71.77,202c36.73,3.5,75.58-1.85,106.12-22S228.71,123.17,222,88c-.44-2.27-1-4.69,0-6.81.79-1.79,2.48-3,4.09-4.18,31.75-22.7,63.9-44.72,92.12-72-40.54,23.67-85.61,39.89-131.79,50.09l-1.15-7.33Z"/><path class="cls-1" d="M182.51,46.37l2.22,1,.6.26a2.35,2.35,0,0,1,.14.62l.2,1.23L186.4,54l.09.51,0,.26c0,.06.15,0,.23,0l1-.24L190,54l4.62-1.08,9.21-2.31L213,48.11Q231.29,43,249.13,36.47A421.92,421.92,0,0,0,317.75,4.34l5.46-3.21-4.55,4.42c-15.23,14.8-31.75,28.2-48.69,41-8.48,6.38-17.06,12.6-25.67,18.78l-12.91,9.26-3.23,2.32c-1.06.78-2.18,1.54-3.13,2.31a5.76,5.76,0,0,0-2.38,6c.13,1.21.48,2.5.64,3.85l.59,4a33.91,33.91,0,0,1,.36,4l.22,4c0,1.35-.08,2.69-.12,4a38.55,38.55,0,0,1-.24,4,76.3,76.3,0,0,1-1.16,8A92.4,92.4,0,0,1,211.37,147a108.55,108.55,0,0,1-20.44,24.71,112.25,112.25,0,0,1-26.74,17.71,152.92,152.92,0,0,1-49.12,13.91A209.44,209.44,0,0,1,64,202.87a96.49,96.49,0,0,1-25-6.48,51.71,51.71,0,0,1-20.87-15.63A50.22,50.22,0,0,1,8.4,156.55a65.22,65.22,0,0,1,2-25.9,70.76,70.76,0,0,1,4.66-12.16c1-1.94,2-3.85,3.17-5.69.56-.94,1.17-1.83,1.8-2.71l1.85-2.66A103.62,103.62,0,0,1,39.88,89C53.31,78.28,68.59,70.4,84.05,63.47S115.31,50,132,46.24a118,118,0,0,1,25.31-3.05,96.52,96.52,0,0,1,25.22,3.18l-.09.35a96.92,96.92,0,0,0-25.11-2.43,119.23,119.23,0,0,0-24.93,3.62C116,52,100.47,58.78,85.16,65.9S54.93,81,42,91.58a101,101,0,0,0-17.24,18L23,112.09c-.6.85-1.17,1.71-1.69,2.59-1.09,1.75-2.06,3.57-3,5.42A67.7,67.7,0,0,0,14,131.65a62.1,62.1,0,0,0-1.78,24.4,46.58,46.58,0,0,0,9,22.37A48.07,48.07,0,0,0,40.5,192.91a93.6,93.6,0,0,0,24,6.33,207.67,207.67,0,0,0,50.2.77,149.37,149.37,0,0,0,48.21-13.29,108.88,108.88,0,0,0,26.16-17.13,106.22,106.22,0,0,0,20-24c10.79-17.86,15.83-39.43,11.24-60.19a9.07,9.07,0,0,1,.45-4.48,8.93,8.93,0,0,1,2.79-3.53c1.11-.89,2.2-1.61,3.27-2.39l3.25-2.29,13-9.19c8.63-6.12,17.24-12.28,25.74-18.59,17-12.61,33.53-25.85,48.8-40.49l.92,1.21A421.45,421.45,0,0,1,249.46,37.4q-17.91,6.41-36.27,11.38L204,51.19l-9.23,2.25-4.64,1-2.4.54-1.29.29-.16,0s-.14.07-.13,0l0-.33-.1-.65-.74-4.84-.17-1.12a1.93,1.93,0,0,0-.11-.5l-.49-.22-2.12-1Z"/></g></svg>