<svg id="artwork" xmlns="http://www.w3.org/2000/svg" viewBox="0 0 285 624"><defs><style>.cls-1{fill:#d9cec5;}.cls-2{fill:#806172;}.cls-3,.cls-4{fill:#2d2d2d;}.cls-4{fill-rule:evenodd;}.cls-5{fill:none;stroke:#2d2d2d;stroke-miterlimit:10;}.cls-6{fill:#f2eae4;}</style></defs><g id="eyes_neutral7"><g id="white"><path class="cls-1" d="M123.69,116.32c-4,1.7-7,1.7-7.9,3s-.76,5.64-.38,7.34,1.51,2.82,4.71,3.76,13.74.75,16.56.38,5.65-.38,6.78-1.13,3.13-1.86,3.13-1.86.57-5.93,0-7.62-1.33-5.71-5.09-5.34S123.69,116.32,123.69,116.32Z"/><path class="cls-1" d="M176.71,115.72c-5,.75-8.36,1.13-9.3,2.44s-1,6.86-.65,8.55,3.37,2.44,6.57,3.38a45.74,45.74,0,0,0,13.24.94c2.83-.37,6.76-.93,7.89-1.69s3.1-2.34,3.48-4.41a14.15,14.15,0,0,0-.2-6.35c-.56-1.7-1.88-4.71-5.65-4.33S176.71,115.72,176.71,115.72Z"/></g><g id="iris"><path class="cls-2" d="M127.41,116.66c-3.58,1.19-4.62,6.4-3.62,8.41a6.91,6.91,0,0,0,6.54,3.51c2.76-.25,6.45-1.06,7.2-2.82s1.19-3.46.69-5-1.82-3.68-2.83-4.18A14,14,0,0,0,127.41,116.66Z"/><path class="cls-2" d="M179.17,116.26c-3.57,1.19-4.77,6.77-3.76,8.78s4,4.28,6.84,4,5.7-1,6.46-2.76,2-3.77,1.5-5.27-1.75-4.52-2.76-5S182.18,115.25,179.17,116.26Z"/></g><g id="iris_outline"><path class="cls-3" d="M130.54,121.64s0,0,.07,0,0,0,0,.07V122l0,.42,0,.82.06,1.67a13,13,0,0,1,0,1.65,9.49,9.49,0,0,1-.28,1.65h0a10.27,10.27,0,0,1-.17-1.66c0-.55.07-1.11.11-1.66l.11-1.65.06-.83,0-.41v-.21s0-.2,0-.11h0S130.54,121.65,130.54,121.64Z"/><path class="cls-3" d="M131.31,122.34l.91,1.18c.31.39.59.79.91,1.16s.69.71,1,1.11a5.43,5.43,0,0,1,.73,1.34l0,0h0c-.39-.33-.72-.68-1.07-1a9.72,9.72,0,0,1-.91-1.18c-.28-.42-.52-.86-.79-1.28l-.76-1.28s0,0,0,0Z"/><path class="cls-3" d="M132,121.78h-.08v-.06a28,28,0,0,0,2.91.88c.49.17,1,.25,1.48.44a3.63,3.63,0,0,1,1.37.82.08.08,0,0,1,0,0h0c-.5-.15-1-.27-1.49-.39a7.4,7.4,0,0,1-1.47-.53,29.66,29.66,0,0,1-2.79-1.2l-.12-.07h.2a0,0,0,0,1,0,0S132,121.78,132,121.78Z"/><path class="cls-3" d="M131.39,121.1a7.28,7.28,0,0,1,1.89-1.82,10.51,10.51,0,0,1,1.05-.74c.38-.21.73-.43,1.14-.63l0,0s0,0,0,0a3.52,3.52,0,0,1-.88,1,7.63,7.63,0,0,1-1.13.67,7.17,7.17,0,0,0-2.06,1.51h0Z"/><path class="cls-3" d="M130.57,121.47a13.57,13.57,0,0,1-.18-1.39l-.19-1.39a9.33,9.33,0,0,1-.11-1.4,4.22,4.22,0,0,1,.29-1.4h0l0,0c.08.47.11.92.16,1.38a12.87,12.87,0,0,1,0,1.39v1.4c0,.46-.09,1,0,1.38l0,0Z"/><path class="cls-3" d="M129.88,122.08l0,0h0v0h0a6,6,0,0,1-1.1,1l-1.19,1c-.43.3-.86.58-1.29.83a5.3,5.3,0,0,0-1.22.86h0a0,0,0,0,1,0,0,2.52,2.52,0,0,1,1-1.25,13,13,0,0,1,1.35-.75l1.27-.8a5.58,5.58,0,0,0,1.2-.89h0s0,0,0,0,0,0,0,0v0h-.05Z"/><path class="cls-3" d="M129.87,121.77a6.89,6.89,0,0,1-1.23-.56l-1.2-.6c-.4-.22-.83-.34-1.21-.57l-.57-.37a1.39,1.39,0,0,1-.53-.47l0,0,0,0a3.28,3.28,0,0,0,.63.19c.23.07.43.16.65.24a7.57,7.57,0,0,1,1.18.66l1.12.76a6.61,6.61,0,0,0,1.13.71s0,0,0,0A0,0,0,0,1,129.87,121.77Z"/><path class="cls-3" d="M182.13,121.32s0,0,.07,0,0,0,0,.07v.31l0,.42,0,.83.06,1.66a13.12,13.12,0,0,1,0,1.66,9.54,9.54,0,0,1-.28,1.64s0,0,0,0h0a10.51,10.51,0,0,1-.17-1.67c0-.55.07-1.11.11-1.66l.11-1.65.06-.82,0-.42v-.2s0-.2,0-.11h0A0,0,0,0,1,182.13,121.32Z"/><path class="cls-3" d="M183.4,122l.91,1.18c.31.39.6.8.92,1.17s.68.7,1,1.11a4.91,4.91,0,0,1,.73,1.33l0,0h0c-.39-.34-.72-.69-1.07-1a9.9,9.9,0,0,1-.92-1.19c-.28-.41-.52-.85-.78-1.28l-.77-1.28,0,0Z"/><path class="cls-3" d="M183,121.46h-.08l0,0c.93.4,1.92.57,2.9.88.49.16,1,.24,1.49.43a3.6,3.6,0,0,1,1.36.82s0,0,0,0h0c-.51-.15-1-.27-1.49-.38a8.23,8.23,0,0,1-1.48-.54,28.24,28.24,0,0,1-2.79-1.2l-.11-.07h.2a0,0,0,0,1,0,0S183,121.46,183,121.46Z"/><path class="cls-3" d="M183.49,120.42a7.07,7.07,0,0,1,1.88-1.82,10.74,10.74,0,0,1,1.06-.75c.37-.2.72-.43,1.13-.63l0,0a0,0,0,0,1,0,0,3.39,3.39,0,0,1-.88,1,8.08,8.08,0,0,1-1.12.67,7,7,0,0,0-2.06,1.52h0A0,0,0,0,1,183.49,120.42Z"/><path class="cls-3" d="M182.61,121.63a13.57,13.57,0,0,1-.18-1.39l-.18-1.39a9.34,9.34,0,0,1-.12-1.4,4,4,0,0,1,.3-1.4h0s0,0,0,0c.08.47.11.92.16,1.38a12.86,12.86,0,0,1,0,1.39v1.4c.05.46-.09,1,0,1.38l0,0Z"/><path class="cls-3" d="M181.87,121.76v0s0,0,0,0v0h0a6.09,6.09,0,0,1-1.11,1l-1.19,1a14,14,0,0,1-1.29.83,5.57,5.57,0,0,0-1.21.86h0s0,0,0,0a2.52,2.52,0,0,1,1-1.25,13,13,0,0,1,1.35-.75l1.27-.8a5.52,5.52,0,0,0,1.19-.89h0s0,0,.05,0,0,0,0,0v0h0Z"/><path class="cls-3" d="M181.86,121.43a6.89,6.89,0,0,1-1.23-.56l-1.2-.6c-.4-.22-.84-.34-1.21-.57l-.57-.37a1.32,1.32,0,0,1-.53-.47l0,0s0,0,0,0a3.28,3.28,0,0,0,.63.19c.22.07.43.16.64.24a6.21,6.21,0,0,1,1.18.67l1.13.75a5.92,5.92,0,0,0,1.13.71v0A0,0,0,0,1,181.86,121.43Z"/><path class="cls-3" d="M127.06,116.26a12.94,12.94,0,0,0-3,3.84,5.7,5.7,0,0,0-.25,4.69,5.27,5.27,0,0,0,1.41,1.92,9.16,9.16,0,0,0,1,.68,7.75,7.75,0,0,0,1.1.5,10.32,10.32,0,0,0,4.78.43,8.11,8.11,0,0,0,4.36-1.79,5.32,5.32,0,0,0,1.73-4.2,7.56,7.56,0,0,0-1.64-4.42,6.2,6.2,0,0,0-4-2.46s-.06,0-.05,0,0,0,.05,0a6,6,0,0,1,4.29,2.29,7.88,7.88,0,0,1,1.87,4.62,5.65,5.65,0,0,1-1.9,4.59,8.42,8.42,0,0,1-4.64,1.81,10.5,10.5,0,0,1-4.94-.53,7.3,7.3,0,0,1-1.13-.54,11.91,11.91,0,0,1-1-.72,5.83,5.83,0,0,1-1.44-2,5.93,5.93,0,0,1,.33-4.84,13.39,13.39,0,0,1,3.08-3.82s0,0,.06,0S127.08,116.23,127.06,116.26Z"/><path class="cls-3" d="M179.92,115.53a12.83,12.83,0,0,0-3.39,3.22,6.78,6.78,0,0,0-1.33,4.37,5.66,5.66,0,0,0,2.14,3.95,8.13,8.13,0,0,0,4.23,1.71,7.81,7.81,0,0,0,7.6-4.09,6.16,6.16,0,0,0,.5-4.44,9.8,9.8,0,0,0-2.36-4s0,0,0-.06l0,0a9.12,9.12,0,0,1,2.65,3.92,6.47,6.47,0,0,1-.38,4.75,8.06,8.06,0,0,1-8.1,4.27,8.44,8.44,0,0,1-4.38-1.87,5.91,5.91,0,0,1-2.16-4.17,7,7,0,0,1,1.43-4.47,13.26,13.26,0,0,1,3.49-3.19s0,0,0,0S180,115.51,179.92,115.53Z"/></g><g id="pupil"><path class="cls-4" d="M130.84,121.82l1.72,1.39a2.22,2.22,0,1,1,.35-2.26Z"/><path class="cls-4" d="M182.51,121.48l1.72,1.4a2.21,2.21,0,1,1-.3-3.14,2.22,2.22,0,0,1,.64.87Z"/><path class="cls-4" d="M130.84,121.82l1.72,1.39a2.22,2.22,0,1,1,.35-2.26Z"/><path class="cls-4" d="M182.51,121.48l1.72,1.4a2.21,2.21,0,1,1-.3-3.14,2.22,2.22,0,0,1,.64.87Z"/><path class="cls-5" d="M130.84,121.82l1.72,1.39a2.22,2.22,0,1,1,.35-2.26Z"/><path class="cls-5" d="M182.51,121.48l1.72,1.4a2.21,2.21,0,1,1-.3-3.14,2.22,2.22,0,0,1,.64.87Z"/></g><g id="spec"><ellipse class="cls-6" cx="136.97" cy="120.68" rx="2.38" ry="2.13" transform="translate(-7.3 232.54) rotate(-79.17)"/><ellipse class="cls-6" cx="188.18" cy="120.53" rx="2.38" ry="2.13"/></g><g id="outline"><path class="cls-3" d="M167.7,128.07a3.13,3.13,0,0,1-1.23-2.27,15.12,15.12,0,0,1-.3-2.62,11.18,11.18,0,0,1,.23-2.64,9,9,0,0,1,1-2.46,0,0,0,0,1,0,0,0,0,0,0,1,0,0c-.19.86-.4,1.69-.53,2.54a24,24,0,0,0-.32,2.55,14.91,14.91,0,0,0,.12,2.58,3.06,3.06,0,0,0,1,2.26s0,0,0,0Z"/><path class="cls-3" d="M195,129.26a5.39,5.39,0,0,0,2.19-2.78A9.87,9.87,0,0,0,198,123a17.81,17.81,0,0,0-.47-3.55,24.46,24.46,0,0,0-1-3.46s0,0,0,0h0a12,12,0,0,1,1.49,3.37,12.94,12.94,0,0,1,.38,3.68,10.23,10.23,0,0,1-.92,3.57,5.59,5.59,0,0,1-2.38,2.74s0,0,0,0A0,0,0,0,1,195,129.26Z"/><path class="cls-3" d="M198.13,128.14a38.22,38.22,0,0,1-15.2,3.3,34.69,34.69,0,0,1-7.8-.76,31.57,31.57,0,0,1-7.38-2.59s0,0,0,0a0,0,0,0,1,.05,0,45.62,45.62,0,0,0,7.46,2.14,42.41,42.41,0,0,0,7.7.85,38.26,38.26,0,0,0,15.18-2.94h0S198.15,128.13,198.13,128.14Z"/><path class="cls-3" d="M139.35,107.68l.34,2.29a6.54,6.54,0,0,1,.13,1.16,4.35,4.35,0,0,1-.14,1.17h-.05a5.37,5.37,0,0,1-.31-1.14,7.46,7.46,0,0,1,0-1.16v-2.32h0Z"/><path class="cls-3" d="M133.67,108.49a8.33,8.33,0,0,1,.67,1.85,3.27,3.27,0,0,1,.14,1,2.59,2.59,0,0,1-.26,1s0,0,0,0h0a6,6,0,0,1-.19-1c0-.31,0-.63,0-1a8.15,8.15,0,0,0-.33-1.88l0,0Z"/><path class="cls-3" d="M127.94,109l.58,1.87a5.25,5.25,0,0,1,.26.94,3.73,3.73,0,0,1,0,1h-.05a3.52,3.52,0,0,1-.43-.9,5.2,5.2,0,0,1-.16-1l-.24-1.94,0,0Z"/><path class="cls-3" d="M119.75,108.49l1,2.68a10.54,10.54,0,0,1,.45,1.34,7.57,7.57,0,0,1,.19,1.43h0a7.27,7.27,0,0,1-.62-1.29,13.28,13.28,0,0,1-.35-1.38l-.64-2.77,0,0Z"/><path class="cls-3" d="M171.26,109.51l.17,2.18a5.69,5.69,0,0,1,0,1.09,4.31,4.31,0,0,1-.22,1.09h0a4.82,4.82,0,0,1-.23-1.09,8,8,0,0,1,.05-1.09l.18-2.18h0Z"/><path class="cls-3" d="M187.59,107.79c0,.93,0,1.86,0,2.79,0,.47.08.93.06,1.39a9.72,9.72,0,0,1-.17,1.4h-.05a5.53,5.53,0,0,1-.28-1.39,8.31,8.31,0,0,1,0-1.41c.08-.93.19-1.86.35-2.79h0Z"/><path class="cls-3" d="M182,108.33a8.77,8.77,0,0,1,.34,2.12,3.59,3.59,0,0,1-.06,1.08,2.86,2.86,0,0,1-.45,1h-.05a7.44,7.44,0,0,1,0-1.06c0-.35.11-.68.15-1a8.51,8.51,0,0,0,0-2.08l0,0Z"/><path class="cls-3" d="M177.12,107.52a26.34,26.34,0,0,1,.17,2.94,8.11,8.11,0,0,1-.07,1.48,6,6,0,0,1-.42,1.43h-.05a12.1,12.1,0,0,1,0-1.47c0-.49.12-1,.17-1.45a28.25,28.25,0,0,0,.18-2.92h.05Z"/><path class="cls-3" d="M116.27,129a11.11,11.11,0,0,1-1.48-3.71,7.54,7.54,0,0,1-.19-2,6.35,6.35,0,0,1,.45-2s0,0,0,0h0c0,.68,0,1.32,0,2s0,1.29.08,1.94a11,11,0,0,0,1.13,3.74s0,0,0,0S116.27,129,116.27,129Z"/><path class="cls-3" d="M146.22,128a15.17,15.17,0,0,0,.43-6.28,19.55,19.55,0,0,0-.79-3,29.65,29.65,0,0,0-1.17-3s0,0,0,0h0a11.11,11.11,0,0,1,1.6,2.8,11.49,11.49,0,0,1,.71,3.16,15.16,15.16,0,0,1-.78,6.35h0S146.21,128,146.22,128Z"/><path class="cls-3" d="M116.35,128.94a41.14,41.14,0,0,0,15.1,2.13c2.55,0,5.1-.3,7.64-.53a14.58,14.58,0,0,0,3.69-.81,13.56,13.56,0,0,0,3.41-1.69s0,0,.05,0a0,0,0,0,1,0,0,11.12,11.12,0,0,1-3.31,2,14.8,14.8,0,0,1-3.76,1,64,64,0,0,1-7.7.43A41.32,41.32,0,0,1,116.33,129s0,0,0,0S116.32,128.93,116.35,128.94Z"/><path class="cls-3" d="M113.41,121.21a24.76,24.76,0,0,1,7.34-4.57,39.5,39.5,0,0,1,8.4-2.39,29.72,29.72,0,0,1,8.64-.73,36.4,36.4,0,0,1,4.26.71,21.32,21.32,0,0,1,4.18,1.38v.28a24.12,24.12,0,0,1-4.27,1c-1.41.22-2.81.37-4.19.51-2.76.26-5.49,0-8.24.08a41.93,41.93,0,0,0-8.09,1.2,35.51,35.51,0,0,0-7.75,2.92Z"/><path class="cls-3" d="M198.32,115.2c-1.31.19-2.61.23-3.91.34s-2.61.23-3.9.36c-2.59.26-5.17.61-7.74,1a71.73,71.73,0,0,1-7.66,1.21c-1.3.06-2.6.08-3.92,0a17.18,17.18,0,0,1-2-.16c-.67-.07-1.35-.15-2-.25l-.05-.28a28.38,28.38,0,0,1,3.67-1.81,31.22,31.22,0,0,1,3.84-1.14,36.89,36.89,0,0,1,7.93-.49c2.65,0,5.29,0,7.93.16,1.31.08,2.63.18,3.94.29a37.14,37.14,0,0,1,3.92.49Z"/></g><g id="eyebrows"><path class="cls-3" d="M145,107.73c-3.35.06-6.51-1.33-9.81-1.61-6-1-11.78,1-17.55,2.2a20.12,20.12,0,0,1-4.24.28,24.09,24.09,0,0,1,3.54-2.38,30.23,30.23,0,0,1,8-2.49,47.23,47.23,0,0,1,8.48-1.22c3.62,0,7.09,1.35,10.34,2.82a4.77,4.77,0,0,1,1.76,1.47l-.52.93Z"/><path class="cls-3" d="M168,105.55a38.09,38.09,0,0,1,7.12-3.47,17.08,17.08,0,0,1,8.07-1.17c5.35.32,10.83.49,15,4.4-4.09.94-7.63-.15-11.48-.84a32.56,32.56,0,0,0-18.09,2.09l-.64-1Z"/></g></g></svg>