<svg id="artwork" xmlns="http://www.w3.org/2000/svg" viewBox="0 0 285 624"><defs><style>.cls-1{fill:#d9cec5;}.cls-2{fill:#806172;}.cls-3,.cls-4{fill:#2d2d2d;}.cls-4{fill-rule:evenodd;}.cls-5{fill:none;stroke:#2d2d2d;stroke-miterlimit:10;}.cls-6{fill:#f2eae4;}</style></defs><g id="eyes_left1"><g id="white"><path class="cls-1" d="M180,120.6a37.26,37.26,0,0,1,9.47,3.32c4.57,2.18,3.39,3.64,1.23,5.81-3.16,3.18-9.86,4.49-13,4.24-3.37-.26-7.82-1.36-10.06-4.16-1.94-2.42-3.18-9.49.16-9.62A49.55,49.55,0,0,1,180,120.6Z"/><path class="cls-1" d="M138.76,119.27c4.3,1.71,9.42,5.73,7.63,9.34-3.29,6.64-10.66,7.67-16.91,5.8-4.25-1.27-7.49-4.93-6.59-8.47a8.57,8.57,0,0,1,2.74-4.07,13.38,13.38,0,0,1,4-2.56,12.93,12.93,0,0,1,8.29-.33A8.33,8.33,0,0,1,138.76,119.27Z"/></g><g id="iris"><path class="cls-2" d="M168.83,130.38c-3.26-1.3-3.79-8.28-2.88-10.51,2.43-.18,6.35,0,8.8.13,1.86,1.67.5,5.7-.3,7.14C173.21,129.39,169.23,130.54,168.83,130.38Z"/><path class="cls-2" d="M121.74,124.62a6.74,6.74,0,0,1,3.33-4.62c2.33-1.11,4.05,1.81,4.32,3.7s-1.08,6.3-4,6.72c-1.37,1-2.54-1.6-3-2.62A13,13,0,0,1,121.74,124.62Z"/></g><g id="iris_outline"><path class="cls-3" d="M170.22,129.64a15.38,15.38,0,0,1-1.64-3l-.05-.17s0,0,0,0a18.82,18.82,0,0,1,1.67,3.25Z"/><path class="cls-3" d="M174,121.11a8.18,8.18,0,0,1-2.78.13,8.42,8.42,0,0,1,2.78-.13Z"/><path class="cls-3" d="M173.51,126.8a16.41,16.41,0,0,1-3.36-1.9,7.35,7.35,0,0,1,1.73.86s1.71,1,1.63,1Z"/><path class="cls-3" d="M175.62,123.59a5.39,5.39,0,0,1-1.13-.09c-1.11-.22-2.28,0-3.34-.43a17.85,17.85,0,0,1,4.47.52Z"/><path class="cls-3" d="M125.09,130.28a36.11,36.11,0,0,1-3-4.24c0-.07-.16-.24-.13-.29a38.45,38.45,0,0,1,3.14,4.53Z"/><path class="cls-3" d="M126.25,121.38a8.28,8.28,0,0,1-2.58,1,8.33,8.33,0,0,1,2.58-1Z"/><path class="cls-3" d="M128,127.71a25.78,25.78,0,0,1-4.14-2.48,10.6,10.6,0,0,1,2.12,1.15s2.1,1.3,2,1.33Z"/><path class="cls-3" d="M129.22,123.56c-.86.37-1.85.38-2.74.69a9.34,9.34,0,0,1-2.75.6,27.91,27.91,0,0,1,5.49-1.29Z"/><path class="cls-3" d="M168.92,130.31c4.46-.87,6.86-5.42,6-9.68l.09,0c3.07,4-1.85,10-6.09,9.72Z"/><path class="cls-3" d="M123.89,130.52c5.78.36,6.32-8.57,2.34-11.26l0-.1c6,1.42,3.53,13.06-2.38,11.36Z"/></g><g id="pupil"><path class="cls-4" d="M167.32,126.13c-.67-.4-1.29-1-1.31-2.88-.07-5.1,1.85-4.39,4.37-1.86,1.07,1.07-.48,1.07-.89,1.85-.87,1.66.22,1.08.81,2.76C170.68,127.08,168.75,127,167.32,126.13Z"/><path class="cls-4" d="M123.25,127.5c-.61-.36-1.17-.92-1.19-2.57-.06-4.55,1.68-3.92,4-1.67,1,1-.43,1-.8,1.66-.8,1.48.19,1,.73,2.46C126.29,128.34,124.54,128.26,123.25,127.5Z"/><path class="cls-4" d="M167.32,126.13c-.67-.4-1.29-1-1.31-2.88-.07-5.1,1.85-4.39,4.37-1.86,1.07,1.07-.48,1.07-.89,1.85-.87,1.66.22,1.08.81,2.76C170.68,127.08,168.75,127,167.32,126.13Z"/><path class="cls-4" d="M123.25,127.5c-.61-.36-1.17-.92-1.19-2.57-.06-4.55,1.68-3.92,4-1.67,1,1-.43,1-.8,1.66-.8,1.48.19,1,.73,2.46C126.29,128.34,124.54,128.26,123.25,127.5Z"/><path class="cls-5" d="M167.32,126.13c-.67-.4-1.29-1-1.31-2.88-.07-5.1,1.85-4.39,4.37-1.86,1.07,1.07-.48,1.07-.89,1.85-.87,1.66.22,1.08.81,2.76C170.68,127.08,168.75,127,167.32,126.13Z"/><path class="cls-5" d="M123.25,127.5c-.61-.36-1.17-.92-1.19-2.57-.06-4.55,1.68-3.92,4-1.67,1,1-.43,1-.8,1.66-.8,1.48.19,1,.73,2.46C126.29,128.34,124.54,128.26,123.25,127.5Z"/></g><g id="spec"><path class="cls-6" d="M176.36,121.72a1.18,1.18,0,0,1,.37,1.46c-.56,1.43-3,.83-2.5-.76A1.36,1.36,0,0,1,176.36,121.72Z"/><path class="cls-6" d="M129.42,121.45a.41.41,0,0,1,.11,0c1.22.1.94,1.27.74,1.7a1.35,1.35,0,0,1-1.67.75,1.2,1.2,0,0,1-.51-1.61A1.76,1.76,0,0,1,129.42,121.45Z"/></g><g id="outline"><path class="cls-3" d="M163.75,119.53c.65-.15,1.3-.34,2-.45s1.32-.16,2-.23a34.86,34.86,0,0,1,3.95-.15c1.31,0,2.62.13,3.92.26s2.66.31,4,.53a39.11,39.11,0,0,1,7.78,1.9,11.78,11.78,0,0,1,3.53,2.24,26,26,0,0,1,2.66,3l-.09.13c-1.24-.53-2.42-1.18-3.54-1.76a20.29,20.29,0,0,0-3.36-1.43,66.72,66.72,0,0,0-7.31-2.19,25.2,25.2,0,0,0-3.79-.36c-1.3-.06-2.6-.11-3.89-.23s-2.59-.29-3.88-.49c-.65-.1-1.29-.19-1.94-.31s-1.3-.32-1.95-.43Z"/><path class="cls-3" d="M192.59,127.78a18,18,0,0,1-7.73,5.52,17.8,17.8,0,0,1-9.56.82,12.13,12.13,0,0,1-8.16-4.93,10.32,10.32,0,0,1-1.57-4.56,14.93,14.93,0,0,1,.38-4.76h0a13.45,13.45,0,0,0-.17,4.73,9.9,9.9,0,0,0,1.76,4.3,12.63,12.63,0,0,0,7.86,4.59,19.78,19.78,0,0,0,9.29-.65,16.89,16.89,0,0,0,7.88-5.07Z"/><path class="cls-3" d="M174.42,113.57a12.44,12.44,0,0,0,0,2.2,9.91,9.91,0,0,1,.12,1.08,6.08,6.08,0,0,1-.05,1.12h0a3.21,3.21,0,0,1-.39-1.07,4.28,4.28,0,0,1,0-1.13,13.5,13.5,0,0,1,.33-2.22s0,0,0,0Z"/><path class="cls-3" d="M177.94,114.55l0,1.43a2.48,2.48,0,0,1,0,.72,1.94,1.94,0,0,1-.3.68h-.05a2.16,2.16,0,0,1-.15-.73,2.47,2.47,0,0,1,.13-.71l.31-1.4h.05Z"/><path class="cls-3" d="M182.81,115.27a9.6,9.6,0,0,0-.33,1.68,7.71,7.71,0,0,1-.1.84,3.62,3.62,0,0,1-.3.83H182a2.35,2.35,0,0,1-.15-.89,3.67,3.67,0,0,1,.2-.87,11,11,0,0,1,.69-1.61h0Z"/><path class="cls-3" d="M187.8,116.72l-.44,1.89a5.93,5.93,0,0,1-.26.94,3.81,3.81,0,0,1-.52.85h-.05a4,4,0,0,1,.09-1,4.7,4.7,0,0,1,.36-.9l.77-1.79h0Z"/><path class="cls-3" d="M192.91,118.51a14.22,14.22,0,0,1-.77,2.28,5.58,5.58,0,0,1-.57,1.08,3.78,3.78,0,0,1-.88.86h0v0a7.33,7.33,0,0,1,.49-1.1c.18-.35.43-.66.63-1a14,14,0,0,0,1.08-2.11s0,0,0,0Z"/><path class="cls-3" d="M177.15,136.94a19.41,19.41,0,0,1-6.62-3.26,11.81,11.81,0,0,1-2.59-2.69,10.1,10.1,0,0,1-1.48-3.42l0,0h0a16.44,16.44,0,0,0,1.84,3.15,16.61,16.61,0,0,0,2.43,2.67,19.2,19.2,0,0,0,6.39,3.52s0,0,0,0S177.16,136.94,177.15,136.94Z"/><path class="cls-3" d="M186.1,134.47a18.26,18.26,0,0,0,3.3-2.48c.5-.47.95-1,1.44-1.46s1-1,1.49-1.45c0,0,0,0,0,0s0,0,0,0a8.58,8.58,0,0,1-1.16,1.75,10.52,10.52,0,0,1-1.55,1.43,18.58,18.58,0,0,1-3.53,2.23,0,0,0,0,1,0,0A0,0,0,0,1,186.1,134.47Z"/><path class="cls-3" d="M146.41,128.64a11,11,0,0,1-1.25,3.62,17.19,17.19,0,0,1-2.2,3.16,12.94,12.94,0,0,1-2.89,2.58,8.5,8.5,0,0,1-3.62,1.33,0,0,0,0,1,0,0s0,0,0,0a12.08,12.08,0,0,0,3.36-1.7,18.94,18.94,0,0,0,2.87-2.43,17.13,17.13,0,0,0,2.29-3,11,11,0,0,0,1.4-3.52s0,0,0,0S146.41,128.63,146.41,128.64Z"/><path class="cls-3" d="M124.75,116.52a13.18,13.18,0,0,0-5.08,5.47,11.51,11.51,0,0,0-1,3.59,15.88,15.88,0,0,0,.06,3.77s0,0,0,0h0a10.09,10.09,0,0,1-.51-3.83,9.37,9.37,0,0,1,1.1-3.72,13.46,13.46,0,0,1,5.42-5.34h0S124.76,116.51,124.75,116.52Z"/><path class="cls-3" d="M147.22,125.55c-2.2-1.39-4.38-2.89-6.61-4a10.34,10.34,0,0,0-3.32-1.09c-1.2-.12-2.51-.21-3.71-.21a14.68,14.68,0,0,0-3.47.48,12.53,12.53,0,0,0-1.46.47c-.22.1-.44.18-.64.28l-.15.07-.22.11-.45.21c-.59.27-1.13.5-1.57.72a4.71,4.71,0,0,0-1.21.8,23.58,23.58,0,0,0-2.39,2.91l-.39-.1a8.37,8.37,0,0,1,.41-4.33,6.21,6.21,0,0,1,1.43-2.06,17.14,17.14,0,0,1,1.7-1.39l.4-.28.2-.13.27-.16a6.57,6.57,0,0,1,1.14-.54,9.18,9.18,0,0,1,2.31-.49,17.94,17.94,0,0,1,4.31.24,30.53,30.53,0,0,1,4,.84,11.91,11.91,0,0,1,3.82,2,56.64,56.64,0,0,1,5.83,5.38Z"/><path class="cls-3" d="M146.88,127.21a9.86,9.86,0,0,1-5,6.18,16.4,16.4,0,0,1-7.91,2,13.66,13.66,0,0,1-7.93-2.21,10.56,10.56,0,0,1-4.4-6.82l.1,0a12.3,12.3,0,0,0,4.86,6A14.85,14.85,0,0,0,134,134.6a16.09,16.09,0,0,0,7.67-1.64,9.68,9.68,0,0,0,5.15-5.78Z"/><path class="cls-3" d="M146.12,117.34l-.1,1.71a4.69,4.69,0,0,1-.08.84,2.6,2.6,0,0,1-.36.8h-.05a2.9,2.9,0,0,1-.09-.87,5,5,0,0,1,.19-.83l.44-1.65h.05Z"/><path class="cls-3" d="M143.39,115.82l0,1.53a3.29,3.29,0,0,1-.05.77,2,2,0,0,1-.32.72H143a2.2,2.2,0,0,1-.12-.79,3.3,3.3,0,0,1,.14-.75l.37-1.49h0Z"/><path class="cls-3" d="M140.88,113.68a9.54,9.54,0,0,1,.24,1.7,2.82,2.82,0,0,1,0,.87,2.08,2.08,0,0,1-.37.8h0a3.68,3.68,0,0,1-.08-.86,8.19,8.19,0,0,1,.13-.82,9.31,9.31,0,0,0,.1-1.67h0Z"/><path class="cls-3" d="M137.56,113.07l.17,1.67a3.39,3.39,0,0,1,.05.84,2.63,2.63,0,0,1-.22.83h-.05a2.65,2.65,0,0,1-.23-.83,4.74,4.74,0,0,1,.05-.84l.18-1.67h.05Z"/><path class="cls-3" d="M134.79,111.55a5.72,5.72,0,0,0-.34,2.35c0,.4.09.78.11,1.17s.05.79.05,1.21l0,0h0a2.91,2.91,0,0,1-.49-1.16,4,4,0,0,1,0-1.25,5.83,5.83,0,0,1,.7-2.36h0Z"/></g><g id="eyebrows"><path class="cls-3" d="M162.68,102.59c1.76-.35,3.19.36,4.8.76a84.89,84.89,0,0,1,13.26,5.47c5.77,2.75,11.94,5.46,16.07,10.48-6.24-1.84-11.37-5.35-17.25-7.83-2.91-1.18-5.88-2.21-8.84-3.33a68.82,68.82,0,0,1-6.48-3,4.92,4.92,0,0,1-1.94-1.59l.38-1Z"/><path class="cls-3" d="M149.36,114.75c-7-6.77-16.65-16.34-26.93-10.57a9.08,9.08,0,0,1,3.07-3.09c9.67-5.25,21.23,4.45,23.86,13.66Z"/></g></g></svg>