<svg id="artwork" xmlns="http://www.w3.org/2000/svg" viewBox="0 0 285 624"><defs><style>.cls-1{fill:#ddcab4;fill-rule:evenodd;}.cls-2{fill:#2d2d2d;}</style></defs><g id="mouth_sad1"><g id="lip_colour" data-name="lip colour"><path class="cls-1" d="M141.72,171.54c.26.46,1.86.55,1.86.55s1.19,4.75,2.57,4.87c2.11.19,8.91-.64,11.59-.45s6.32.83,8.4.32c2.78-.68,5.75-5.49,5.75-5.49l1-.29s-4.11-4.69-7-5-6.14,2.06-9.27,1.65-5.22-2.31-7.52-1.36a22.85,22.85,0,0,0-5.73,3.64C142.69,170.78,141.72,171.54,141.72,171.54Z"/></g><g id="outline"><path class="cls-2" d="M142.06,171.17c1.77-1.35,3.23-3,5-4.37a6.32,6.32,0,0,1,6.59-.14,4.5,4.5,0,0,0,1.88.8c5.62-.58,9.79-4.56,14.73.81l3.14,3.13-.06.08c-7.28-5.45-6.34-6-15.57-3.58a7,7,0,0,1-2.32.28,5.14,5.14,0,0,1-2.14-1,5.9,5.9,0,0,0-6-.08c-1.83,1.23-3.37,2.86-5.19,4.12l-.06-.08Z"/><path class="cls-2" d="M180.07,175.57a13.34,13.34,0,0,0-7.43-4.16,7.63,7.63,0,0,0-2.8.51,26.7,26.7,0,0,1-5.87-.13,193.21,193.21,0,0,0-23.21.49,26,26,0,0,0-5.66,1.14l0-.09a19.49,19.49,0,0,1,5.59-1.77c9.62-1.78,19.48-.23,29.11-.06a8,8,0,0,1,2.92-.4,13.92,13.92,0,0,1,1.42.42,13.12,13.12,0,0,1,6.05,4l-.08.07Z"/><path class="cls-2" d="M171.94,171.44a10.16,10.16,0,0,1-2.48,3.34,7.68,7.68,0,0,1-3.54,2.23c-2.73.84-5.56-.26-8.29-.1-3.92.1-8.8,2.21-12.42-.45a6,6,0,0,1-1.67-3.9l.09,0a6.59,6.59,0,0,0,2,3.35c3.62,2,7.91.09,11.94.22,2.87,0,5.54,1.15,8.2.48,2-.38,3.55-2,4.91-3.47a5.37,5.37,0,0,0,1.12-1.68Z"/></g></g></svg>