<svg id="artwork" xmlns="http://www.w3.org/2000/svg" xmlns:xlink="http://www.w3.org/1999/xlink" viewBox="0 0 282 282"><defs><style>.cls-1,.cls-2{fill:none;}.cls-1{stroke:#36302c;stroke-miterlimit:10;}.cls-3{clip-path:url(#clip-path);}.cls-4{isolation:isolate;}.cls-5{fill:#d9bfb0;}.cls-6{fill:#36302c;}.cls-7{opacity:0.33;}.cls-8{fill:#f2dfce;}.cls-9{fill:#e8d9d0;}.cls-10{fill:#c9b29d;}.cls-11{fill:#2d2d2d;}.cls-12{fill:#88cfdf;opacity:0.58;}.cls-13{opacity:0.5;}.cls-14{fill:#f0e5df;fill-rule:evenodd;}.cls-15{clip-path:url(#clip-path-2);}</style><clipPath id="clip-path"><rect id="face_clip" class="cls-1" x="1" y="1" width="280" height="280" rx="140"/></clipPath><clipPath id="clip-path-2"><path class="cls-2" d="M18.13,392.7C21.76,401,163.19,518.35,187.54,508.12c36.35-24,66.35-149.3,64.59-162.36-13.77-38.47-90.35-135-87.88-137.64.61-.66,3,44.09,2.7,43.53-.56-1.19-44.61.58-44.62.32-.11-3.58,1-41.62,1-41.62s1-7.06-.82-6.7S16.08,388.06,18.13,392.7Z"/></clipPath></defs><g class="cls-3"><g id="doctor_head_neutral" class="cls-4"><g id="doctor_head_skin_hair"><g id="skin"><path class="cls-5" d="M96.1,179.66c-2.53-11.81-2.2-17.47-4.27-24.73-2.13-7.43-2.24-12-4.57-24C85,119.46,95.38,97.37,104,83.79c9.24-14.57,20.37-17.12,27.95-21.3,8.23-4.53,16.63-10.91,21.88-5.14,5.95,6.53,18.55,20.22,26.65,30.3s20.22,26.82,19.88,52.7c-.16,12.59.71,20.56-.8,29.1a79,79,0,0,1-4,13.5,18.37,18.37,0,0,1-7.19,8.71c-9.15,6-31.83,18.9-40.89,19.09-13.23.28-20.86-3.84-30.21-9.39-11.64-6.9-13.88-8.42-16.13-11.43S96.1,179.66,96.1,179.66Z"/><path class="cls-5" d="M72.84,115c1.24,1.74,8.22,13.8,9.46,16.77s5.6,7,6.59,11.51,2.4,10.19,2.68,12.73c.17,1.5-1.29,12.1-8.38,10.42-3.5-.84-6.51-6.52-8.34-10.86s-5.82-15.28-6.07-19-.5-13.88.25-15.86S72.84,115,72.84,115Z"/><path class="cls-5" d="M209.06,128.33c-1.49,4.21-5.46,16.42-5.91,19.28-.5,3.17-1.83,6.39-1.83,7.14a7.47,7.47,0,0,0,1.13,5.31c1.68,2.47,3,3.1,7-.13s4.29-4.21,8-7.67,6.51-9.8,8-14.27,1.38-7.05.68-12.11c-.72-5.22-2.92-10.82-5.15-11.32s-6.13,1.67-7.87,5.14S209.06,128.33,209.06,128.33Z"/><path class="cls-5" d="M123.31,204.57c0,4.29-.5,40.28-.86,42.43-.09.52-3.58,3-1.53,7.63,3.63,8.26,20.24,21.75,23.18,21.37,4.65,0,7.08-4.95,13.76-11.28,2.78-3.28,8.66-9.63,11.13-12.28a2.49,2.49,0,0,0,.3-2.44c-.56-1.19-2.4-2.15-2.41-2.41-.12-3.57-3.45-42.09-3.45-42.09s-15.79.14-17.58.5S123.31,204.57,123.31,204.57Z"/></g><g id="hair"><path class="cls-6" d="M88.33,141.06s-13-20.52-14.13-22.79A46.53,46.53,0,0,1,69.38,95c.57-9.62-1.2-20.47.4-26.48s5.72-20.27,9.77-25.2c3.78-4.61,12.3-14.53,18.32-18.14s20-6.3,25.68-8.82c7.12-3.16,32.39-3.45,37.61-.25s3.31,3.46,7.32,7.87,2.81,4,9.23,4.41S192.56,28,199,32.81s9.63,5.61,12.44,14.84S222.54,72,224.55,79.25s-1.9,23.77-3.5,29.39a48,48,0,0,0-1.44,5.28,18.07,18.07,0,0,0-8.47,9.74c-2.81,7.22-5.74,16.27-6.95,20.29s-3.87,15.29-3.87,15.29-.34-12.65-.34-21.89a65.61,65.61,0,0,0-10.73-35.3c-4.47-6.92-10-13.16-15.07-19.35-4-4.93-7.6-9.43-10.52-13.19-5.62-7.24-15.25-12.38-15.25-12.38S129.83,65,124.17,67.7s-13,9.39-18.8,17.81a97.06,97.06,0,0,0-9,14.88c-3.11,6.43-6.34,13.36-7.72,19.56C87.81,123.81,88.33,141.06,88.33,141.06Z"/></g></g><g id="doctor_head_shading_light" class="cls-7"><path class="cls-8" d="M148.55,57.17c-3.32,1.66-3.42,6.91-1.38,9.56,4.94,6.43,11.22,9.79,16.43,16,6.53,7.83,13.88,17.63,18.88,26.59a102,102,0,0,1,10.17,28c1.14,5.21.55,10.06.09,15.29-1,10.66.16,20-6.79,28.94-5.69,7.33-13.72,12.35-21.09,17.8a14.47,14.47,0,0,0-5.6,7.83s24.09-10.94,31-17c4.48-4,7.93-12.65,9.24-23.18a138.31,138.31,0,0,0,.53-19.32c-.44-10.36.35-17.56-3-28.59-2.53-8.32-10.3-20.31-12.91-23.73-1.26-1.65-13.22-16.57-21.65-27A41,41,0,0,0,148.55,57.17Z"/><path class="cls-9" d="M163.44,205.41c-2.8,1.87-5.6,19-4.66,29s1.23,18.35-1.26,25.21.32,5,.32,5,9.33-7.54,9.34-10.29-1.25-18.43-1.25-20.92S163.44,205.41,163.44,205.41Z"/></g><g id="doctor_head_shading_dark"><path class="cls-10" d="M147.62,57.63s-14.19,11.45-16.11,12.93a114.34,114.34,0,0,0-16.32,15.7C105.73,96.94,92.71,108.19,92,121.65c-.57,10.84,6.59,29.53,8.34,40.23,1.52,9.25,3.64,18.47,10.31,25.49s7.14,8.48,15.53,12.86a120.66,120.66,0,0,1,14.94,9.53s-4.31-.37-13.14-3.69c-6.69-2.39-21.78-10-26.78-15.72C97.5,184.41,95,176.62,93.94,167c-1.7-9.35-4.9-22.26-6-31.46-1.26-10.46,1.86-21.22,6.31-30.35a172.51,172.51,0,0,1,12.47-21.59c2.3-3.08,13.05-13.73,17.21-15.51C127.73,66.44,147.62,57.63,147.62,57.63Z"/><path class="cls-10" d="M140.36,209.59c-4.81,1.86-8.19,5.14-10.53,12.35-3.29,10.18-.5,13.33-.68,21.07s.41,11.76.41,17v5.27s-6.89-6.08-7.3-9.73.41-9.32.41-11,.87-38.43.87-40C123.54,203.34,140.36,209.59,140.36,209.59Z"/></g><g id="doctor_head_outline"><path class="cls-11" d="M200.38,158.05c.11-8.65.31-17.34-.6-26a74.43,74.43,0,0,0-2.44-12.74,66.19,66.19,0,0,0-4.81-12,78.42,78.42,0,0,0-7.23-10.76c-2.65-3.43-5.42-6.76-8.15-10.12s-5.46-6.73-8.1-10.17a113.39,113.39,0,0,0-8.27-10,42,42,0,0,0-4.8-4.35c-1.76-1.24-3.59-2.41-5.41-3.58l-1.37-.87-.65-.41a2.07,2.07,0,0,0-.31.09l-.39.13-3.08,1c-2,.71-4,1.56-6.05,2.35A93.7,93.7,0,0,0,127,66.21a62.42,62.42,0,0,0-10.66,7.33,84.44,84.44,0,0,0-9,9.37,49.9,49.9,0,0,0-7.31,10.66c-1,1.9-1.94,3.86-2.92,5.8l-3,5.78a53.73,53.73,0,0,0-4.55,12.1A52.24,52.24,0,0,0,87.57,130a62.63,62.63,0,0,0,1.65,12.83l2.6,12.73,1.3,6.37c.45,2.11.87,4.25,1.17,6.4.63,4.29,1.09,8.61,2.53,12.68.76,2,1.51,4.06,2.41,6a13.58,13.58,0,0,0,4,4.95,61.79,61.79,0,0,0,5.27,3.74c1.81,1.19,3.64,2.33,5.5,3.44a67.91,67.91,0,0,0,11.57,5.78,126.53,126.53,0,0,0,12.37,3.86c2.1.53,4.21,1,6.33,1.39a19.93,19.93,0,0,0,6.4-.09c4.26-.68,8.11-2.81,12.07-4.55s7.85-3.66,11.68-5.66a129,129,0,0,0,11.22-6.52c1.8-1.19,3.61-2.4,5.28-3.76a14.83,14.83,0,0,0,2.27-2.28,14.51,14.51,0,0,0,1.56-2.81c.88-2,1.56-4,2.27-6.07s1.36-4.11,1.89-6.21a50.62,50.62,0,0,0,1.43-12.87,2.37,2.37,0,0,1,0-.54,4.46,4.46,0,0,1,0,.54,50.43,50.43,0,0,1-1.34,12.9c-.51,2.11-1.17,4.18-1.85,6.24s-1.37,4.11-2.24,6.11a14,14,0,0,1-1.58,2.86,15.29,15.29,0,0,1-2.29,2.33c-1.68,1.39-3.48,2.6-5.28,3.81-3.62,2.39-7.39,4.56-11.23,6.58s-7.75,3.89-11.68,5.71l-5.92,2.69a27.85,27.85,0,0,1-6.24,1.93,20.5,20.5,0,0,1-6.54.11c-2.16-.35-4.27-.86-6.37-1.39a126.69,126.69,0,0,1-12.44-3.84,68.07,68.07,0,0,1-11.65-5.81c-1.87-1.11-3.71-2.25-5.53-3.44a63.16,63.16,0,0,1-5.31-3.78A15.62,15.62,0,0,1,100.5,190a13.8,13.8,0,0,1-1.73-2.81c-.93-2-1.66-4-2.43-6.05-1.47-4.14-1.92-8.51-2.54-12.78-.3-2.14-.71-4.25-1.15-6.38l-1.29-6.37L88.79,142.9A62.26,62.26,0,0,1,87.15,130a52.22,52.22,0,0,1,2.11-12.84A54.7,54.7,0,0,1,93.85,105l3-5.78c1-1.93,1.91-3.89,2.94-5.8a62.07,62.07,0,0,1,3.33-5.6,64.28,64.28,0,0,1,4-5.11,84,84,0,0,1,9-9.39A63.89,63.89,0,0,1,126.86,66a92.77,92.77,0,0,1,11.76-5.55c2-.79,4-1.63,6.06-2.35l3.09-1,.39-.13a1.84,1.84,0,0,1,.45-.11l.72.46,1.38.87c1.82,1.17,3.64,2.35,5.41,3.6a42.7,42.7,0,0,1,4.82,4.38,113.32,113.32,0,0,1,8.27,10c2.63,3.44,5.34,6.82,8.08,10.17s5.49,6.7,8.13,10.14a78.22,78.22,0,0,1,7.23,10.8,65.44,65.44,0,0,1,4.8,12.07,73.84,73.84,0,0,1,2.42,12.76c.9,8.63.69,17.32.56,26a3.9,3.9,0,0,1,0,.58A3.75,3.75,0,0,1,200.38,158.05Z"/><path class="cls-11" d="M90,162.32a7.94,7.94,0,0,1-1.64,2.52c-.34.37-.71.71-1.07,1.06a3.32,3.32,0,0,1-1.26.82,4.71,4.71,0,0,1-3-.1,8.11,8.11,0,0,1-1.4-.58,6.88,6.88,0,0,1-1.15-1c-.71-.72-1.36-1.48-2-2.26a10.56,10.56,0,0,1-1.64-2.53c-.88-1.81-1.72-3.63-2.52-5.48a70.53,70.53,0,0,1-3.87-11.4,72.9,72.9,0,0,1-1.76-11.93,43.55,43.55,0,0,1-.17-6,18.38,18.38,0,0,1,1.33-5.92,21,21,0,0,1,1.39-2.71c.26-.43.55-.85.83-1.27l.54-.74.22-.31.06-.07,0,.08.09.16.32.55,3,5.23c3.94,7,7.74,14.06,12,20.89,0,.06.06.12,0,.12a.34.34,0,0,1-.09-.09c-4.46-6.69-8.34-13.73-12.36-20.68l-3-5.21-.06-.11h0l-.34.48c-.28.41-.57.81-.82,1.24a19.33,19.33,0,0,0-1.37,2.63,17.87,17.87,0,0,0-1.35,5.77,44.3,44.3,0,0,0,.13,6,73.06,73.06,0,0,0,1.66,11.88,70.52,70.52,0,0,0,3.78,11.4q1.17,2.76,2.48,5.48a9.9,9.9,0,0,0,1.6,2.51c.62.78,1.27,1.55,2,2.27a6.84,6.84,0,0,0,1.11,1,8.66,8.66,0,0,0,1.37.58,4.74,4.74,0,0,0,2.93.13,3.24,3.24,0,0,0,1.23-.8c.37-.35.73-.69,1.08-1.05a7.7,7.7,0,0,0,1.64-2.49c0-.07.07-.12.08-.11S90,162.25,90,162.32Z"/><path class="cls-11" d="M201.43,156.38a13.21,13.21,0,0,0,1,3.5,4.15,4.15,0,0,0,2.63,2.32,2.52,2.52,0,0,0,1.73-.35,7.67,7.67,0,0,0,1.42-1.13c.87-.85,1.67-1.78,2.61-2.58,1.88-1.56,3.81-3.06,5.61-4.71a23,23,0,0,0,4.62-5.61c1.06-2.19,2.24-4.35,3.22-6.57.23-.56.45-1.13.63-1.71s.27-1.17.4-1.77c.24-1.2.53-2.39.76-3.59a23.8,23.8,0,0,0,.12-7.25,29.5,29.5,0,0,0-1.54-7.1,10.1,10.1,0,0,0-4.25-5.58,2.05,2.05,0,0,0-1.6-.18,4,4,0,0,0-1.4,1c-.84.85-1.62,1.81-2.52,2.66a16.62,16.62,0,0,0-3.92,6c-.92,2.25-1.56,4.61-2.31,6.94-2.93,9.32-6.08,18.59-8.26,28.12,0,.09,0,.16-.06.14a.43.43,0,0,1,0-.15c1.91-9.6,5-18.92,7.83-28.26.73-2.33,1.37-4.7,2.31-7a16.93,16.93,0,0,1,4.06-6.17c.88-.82,1.65-1.76,2.53-2.64a4.43,4.43,0,0,1,1.58-1.09,2.54,2.54,0,0,1,1.95.22,10.55,10.55,0,0,1,4.43,5.84,30.28,30.28,0,0,1,1.51,7.2,23.85,23.85,0,0,1-.17,7.35c-.23,1.21-.53,2.39-.78,3.59-.13.59-.22,1.2-.41,1.79a16.27,16.27,0,0,1-.66,1.73c-1,2.25-2.17,4.38-3.26,6.58a22.92,22.92,0,0,1-4.7,5.63c-1.82,1.65-3.76,3.14-5.64,4.69-.93.78-1.74,1.71-2.62,2.55a7.59,7.59,0,0,1-1.45,1.14,2.64,2.64,0,0,1-1.8.35,4.24,4.24,0,0,1-2.67-2.38,13.44,13.44,0,0,1-1-3.52.36.36,0,0,1,0-.16S201.42,156.3,201.43,156.38Z"/><path class="cls-11" d="M219.66,113.4c1.28-6.66,3-13.22,4.32-19.86a45.5,45.5,0,0,0,1.28-10c-.08-3.41-1.42-6.61-2.79-9.68l-8.29-18.55c-1.4-3.09-2.72-6.21-4.28-9.21a33.63,33.63,0,0,0-5.76-8.29,18.58,18.58,0,0,0-4-3.09c-1.47-.83-3-1.61-4.48-2.39a28.76,28.76,0,0,0-9.5-3.31c-3.36-.38-6.71.51-10.12.48a13.73,13.73,0,0,1-2.55-.28,8.82,8.82,0,0,1-2.41-.92,6.11,6.11,0,0,1-1.9-1.75,17.35,17.35,0,0,1-1.37-2.15c-.84-1.48-1.56-3-2.53-4.39a11,11,0,0,0-3.76-3.24,25.11,25.11,0,0,0-9.69-2.52,76.79,76.79,0,0,0-20.19,1.08c-3.33.6-6.61,1.42-9.9,2.23s-6.54,1.74-9.75,2.8A70.67,70.67,0,0,0,93.81,29a53.52,53.52,0,0,0-14,14.47,62.78,62.78,0,0,0-8.18,18.42,72.64,72.64,0,0,0-2,9.93c-.14,1.68-.35,3.36-.41,5s-.16,3.38-.06,5.07c0,3.38.59,6.71.67,10.13s-.12,6.78,0,10.16a30.24,30.24,0,0,0,.55,5A28.22,28.22,0,0,0,72.1,112c1.3,3.12,2.76,6.18,4.29,9.2s3.14,6,4.86,8.92A60.6,60.6,0,0,0,87,138.52a2,2,0,0,1,.26.34,2.51,2.51,0,0,1-.3-.3,60,60,0,0,1-5.81-8.33c-1.75-2.9-3.38-5.88-4.94-8.89s-3-6.06-4.37-9.18a29.89,29.89,0,0,1-1.65-4.83,30.89,30.89,0,0,1-.59-5.07c-.14-3.39.06-6.78,0-10.16s-.75-6.73-.71-10.13c-.1-1.7,0-3.4,0-5.1s.26-3.39.4-5.08a73.58,73.58,0,0,1,1.94-10,62.6,62.6,0,0,1,8.23-18.57,53.83,53.83,0,0,1,14.1-14.6,70.75,70.75,0,0,1,18.35-8.72c3.23-1.06,6.5-2,9.79-2.79s6.58-1.62,9.93-2.22a77.53,77.53,0,0,1,20.29-1,25.53,25.53,0,0,1,9.83,2.59,11.58,11.58,0,0,1,3.86,3.34c1,1.41,1.7,3,2.53,4.42a17.41,17.41,0,0,0,1.35,2.13,5.85,5.85,0,0,0,1.8,1.67,8.86,8.86,0,0,0,2.32.9,13.85,13.85,0,0,0,2.49.27c3.36,0,6.73-.85,10.15-.46a29.11,29.11,0,0,1,9.58,3.36c1.51.79,3,1.56,4.49,2.4a19.38,19.38,0,0,1,4,3.14A33.87,33.87,0,0,1,210.08,46c1.56,3,2.88,6.14,4.26,9.23l8.25,18.58c1.37,3.07,2.71,6.29,2.78,9.72a45,45,0,0,1-1.3,10.07c-1.33,6.64-3.07,13.2-4.36,19.85a2.35,2.35,0,0,1-.12.45A2.63,2.63,0,0,1,219.66,113.4Z"/><path class="cls-11" d="M122.2,251.48c.24-3.91.3-7.82.4-11.73s.45-7.81.52-11.72.08-7.82.13-11.73.09-7.82.26-11.73c0,0,0-.07,0-.06s0,0,0,.06c.12,3.91.16,7.82.19,11.73s-.07,7.83-.23,11.74-.52,7.82-.7,11.72-.27,7.82-.57,11.72c0,0,0,.07,0,.06S122.19,251.51,122.2,251.48Z"/><path class="cls-11" d="M167,251.6l-.76-11.36c-.24-3.78-.49-7.57-.85-11.34l-1.13-11.32c-.33-3.78-.67-7.56-.84-11.36,0,0,0-.06,0-.06s0,0,0,.06l1.29,11.31c.41,3.77.73,7.55,1,11.33s.49,7.58.68,11.37l.58,11.36s0,.07,0,.07S167,251.63,167,251.6Z"/><path class="cls-11" d="M160,158.3a2.68,2.68,0,0,1-.47,2.32,5.65,5.65,0,0,1-1.74,1.7,4.15,4.15,0,0,1-2.33.71,12.6,12.6,0,0,1-2.38-.51c-1.58-.58-3,.44-4.49,1.09a10,10,0,0,1-4.76,1.07,11.89,11.89,0,0,1-4.75-1.22c-.74-.34-1.43-.8-2.14-1.08a4.65,4.65,0,0,0-2.26-.22c-1.55.18-3.23.64-4.87.21a4.63,4.63,0,0,1-2.1-1.32,4.23,4.23,0,0,1-.73-1,1.36,1.36,0,0,1-.08-1.21s0,0,0,0a.07.07,0,0,1,0,.05,1.31,1.31,0,0,0,.16,1.12,4.08,4.08,0,0,0,.76.9,4.55,4.55,0,0,0,2,1.14c1.55.34,3.11-.12,4.73-.37a5,5,0,0,1,2.51.24c.79.32,1.46.78,2.17,1.12a11.35,11.35,0,0,0,4.55,1.26,9.7,9.7,0,0,0,4.61-.95c.73-.34,1.46-.69,2.23-1a3.62,3.62,0,0,1,2.45,0,11.58,11.58,0,0,0,2.33.55,4.06,4.06,0,0,0,2.25-.65,5.39,5.39,0,0,0,1.73-1.63,2.63,2.63,0,0,0,.51-2.25s0-.06,0-.06S160,158.28,160,158.3Z"/><path class="cls-11" d="M133.61,162.11a4.92,4.92,0,0,0-1.8.39,1.08,1.08,0,0,0,1,.65,11.64,11.64,0,0,0,3.23-.1,2.36,2.36,0,0,0,1.24-.59,1.17,1.17,0,0,0-.94-.38c-.49,0-1.15-.06-1.63,0C134.72,162.05,133.9,162.07,133.61,162.11Z"/><path class="cls-11" d="M150.87,162.38a4.83,4.83,0,0,0-1.42.8c.06.17.26.22.44.25a10.36,10.36,0,0,0,3.38,0,4.3,4.3,0,0,0,1.48-.52c-.32-.14-.72-.19-1.26-.37a3.37,3.37,0,0,0-1.46-.25A7.8,7.8,0,0,0,150.87,162.38Z"/></g></g><g id="doctor_torso_neutral"><g id="doctor_torso_neutral_colour"><path class="cls-9" d="M265.08,492.14c-.63-11.22-7.59-66.95-10.08-80S239,313,235.43,303s-2.05-13.48-21.06-18-23-5.45-24.74-6.22-10.13-16.07-13.71-21.05c-2.53-3.52-8-9.71-8.85-10.86a2.43,2.43,0,0,0-.09.69l2.34,2.6a11.09,11.09,0,0,1-1.13,3.51c-1.84,2.42-8.16,8.88-10.35,11-1.68,2.27-3.32,3.41-5.27,5.42a56.75,56.75,0,0,1-6.24,5.46c-.67.52-2.93.39-3.73.11-3-1.08-6.58-4.53-8.37-6.13-2.48-2.21-3.74-2.42-5.9-4.94-.06-.07-1-.91-1.09-1a5.29,5.29,0,0,1-1-1,13.05,13.05,0,0,1-.84-1.06c-2.87-2.32-3.41-4.65-4.81-8a6.83,6.83,0,0,1-.37-2.3c.4-2.94,2.1-3.15,1.77-4.21-4,1.3-9.49,9.72-11.33,14.93l-5.14,10.44s-15.29,6.84-29.44,12.15c-11.5,4.32-20.7,6-22.41,8.11-1.89,2.33-4,8.46-4.74,10a49.87,49.87,0,0,0-2.77,7c-.62,2.33-2.49,8.36-3,13.66s-1.41,15-2.34,20.25S33.67,399,32.43,404.1s-8.63,46.79-11.06,56.31S9.54,514.51,7.85,520.85C6.21,527,2,547,2.11,551.17S-2.82,612.7-2.82,612.7s9.9-2.32,12.46-3.09c2.22-.66,6.5-3,12.23-5.38,9.49-4,22.43-9.15,22.43-9.15s.9-20.64,3.24-26.56,6.85-17.6,6.54-20.56-4.58-6.56-7-10.6c-.46-.77,4-21.34,4-21.34,1.4-5,4.83-16.51,6.39-22.74s12.85-36.43,15-39.7-2,46.38-2,55.39c0,4.77-.82,16.8-.82,16.8l20.89-8.6L95,633.81l-24.68,5.56L68.65,673H206s2.91-124.6.59-155.4c-3.47-45.9,4.61-118.36,4.61-118.36s4.55,37,6.07,49.36c4.09,33.28,7.5,28.58,7.5,28.58s-10.56,17.84-6,21c8.63,5-12,19-12.18,19.46-.59,1.4.87,58,.86,57.59,8.37-6.5,28.6-33.25,37.42-47C254.24,513.58,265.7,503.36,265.08,492.14Z"/><path class="cls-12" d="M119.28,251.82c-3.23,4.26-5.06,12.28-6,17.49a116.52,116.52,0,0,0-1.57,12.48c-.44,6.4,1.9,18.4,5.54,30.39a195.75,195.75,0,0,0,13.94,33.64c9.37,17.43,14.2,27.8,14.2,27.8s5.43-8.34,9.75-14.79c4-6,4.8-7,8.33-15.44s7.28-25.07,8.25-31.59c1.11-7.39,5-29.95,5-36.31,0-8-2.23-16.93-3.64-19.75a34.55,34.55,0,0,0-3.83-6,3.92,3.92,0,0,1-.72,3c-3.76,4.39-12.89,14.6-18.23,19.48-2.23,2-3.88,3.68-5.39,3.67-2.56,0-4,0-9.08-5.11-5.49-5.37-11.37-9.07-13.13-12.95a36.54,36.54,0,0,1-2.43-7.25Z"/></g><g id="doctor_torso_neutral_shading_light"><path class="cls-14" d="M188.25,278.18c2.38.95,30.88,7.05,33.17,7.94s8.3,1.41,10.59,7.94,5.47,21.35,6.18,25.23,7.06,36.71,8.64,45.36,12,71.82,12.89,78.53,6.29,48.46,5.94,52.69c-.38,5.1-18.3,30.25-22.36,34.48s-25.76,35.83-29.82,39.18-6.53,6.53-7.76,6.88,1.06-.53,0-3.88-3-7.77-3.89-10.41,17.3-16.77,17.3-16.77l37.07-49.59s-1.66-13.69-1.93-27c-.33-16.17-3.14-40.2-5.78-50.79s-9.23-42.1-10.29-47.57-8-40.17-9.64-47.56c-1.48-6.56-4.24-21.79-9-24.43S195,291.06,195,291.06l-6.28-12.4"/></g><g id="doctor_torso_neutral_outline"><path class="cls-11" d="M143.89,276a6,6,0,0,0-1.56.77,14.42,14.42,0,0,0-1.3,1.18,21.53,21.53,0,0,0-2.59,2.35c-1.4,1.86-3,3.62-4.58,5.35s-3.18,3.45-4.86,5.09-3.41,3.23-5.22,4.73c0,0,0,0,0,0s0,0,0,0c1.61-1.7,3.27-3.36,4.9-5.05l4.92-5c1.64-1.69,3.23-3.37,4.7-5.22a22.44,22.44,0,0,1,2.67-2.31,16.53,16.53,0,0,1,1.34-1.15,5.77,5.77,0,0,1,1.59-.74s0,0,0,0A.05.05,0,0,1,143.89,276Z"/><path class="cls-11" d="M145.3,275.86a5.41,5.41,0,0,1-2.59-.1,14.36,14.36,0,0,1-2.3-1.2,29,29,0,0,1-4.22-3c-2.54-2.34-5.25-4.48-7.81-6.81a30.43,30.43,0,0,1-6.66-8,19.74,19.74,0,0,1-1.07-2.4,7.35,7.35,0,0,1-.54-2.58,5.72,5.72,0,0,1,2.15-4.62s0,0,.06,0,0,0,0,.06a5.78,5.78,0,0,0-1.84,4.57,7,7,0,0,0,.59,2.44,20.39,20.39,0,0,0,1.11,2.31,33.32,33.32,0,0,0,6.49,7.93c2.5,2.36,5.19,4.55,7.7,6.93a29.82,29.82,0,0,0,4.13,3.09,16,16,0,0,0,2.26,1.23,5.36,5.36,0,0,0,2.55.13l.06,0S145.33,275.86,145.3,275.86Z"/><path class="cls-11" d="M169.42,250.1a23,23,0,0,1,4.21,7.07,36,36,0,0,1,1.27,3.93c.3,1.35.64,2.69.82,4a58.27,58.27,0,0,1,.74,8.23c.09,2.76,0,5.52-.17,8.27-.33,5.51-1.24,11-2,16.4s-1.7,10.89-2.74,16.3a182.22,182.22,0,0,1-8.8,31.85,47.07,47.07,0,0,1-3.56,7.49l-4.55,6.9-4.56,6.89c-1.55,2.28-3.13,4.53-4.47,6.94-.05.09-.1.15-.11.14a.57.57,0,0,1,.07-.16,79,79,0,0,1,4.32-7l4.46-7,4.47-6.94a45.73,45.73,0,0,0,3.46-7.44,191.62,191.62,0,0,0,8.87-31.74c1.07-5.4,2-10.83,2.83-16.27s1.75-10.88,2.1-16.38c.2-2.74.29-5.49.22-8.24a58.06,58.06,0,0,0-.69-8.22c-.18-1.36-.51-2.7-.8-4a39,39,0,0,0-1.25-3.93,23.1,23.1,0,0,0-4.15-7.07.38.38,0,0,1-.1-.16S169.36,250,169.42,250.1Z"/><path class="cls-11" d="M86.11,335.53A24.36,24.36,0,0,1,90,330c.74-.84,1.52-1.64,2.32-2.44l1.2-1.17.59-.58s.09-.07.09-.1l-.11-.11-.29-.3c-3.13-3.2-6-6.64-9.4-9.58l-.65-.54-.72-.56s0,0,0,0l0-.07.08-.13.12-.21.21-.36.43-.72,1.72-2.89c1.15-1.92,2.33-3.82,3.52-5.72,2.38-3.8,4.83-7.55,7.08-11.42a107.15,107.15,0,0,0,6-12c.45-1,.87-2.06,1.29-3.1s.83-2.08,1.22-3.12a33.62,33.62,0,0,1,1.27-3.13c.49-1,1-2,1.53-3l3.2-5.91c1.06-2,2.19-3.91,3.09-5.95a30.47,30.47,0,0,1,3.21-5.91,10.79,10.79,0,0,1,5.24-4.1c.08,0,.14-.05.14,0s-.06,0-.12.07a10.88,10.88,0,0,0-5.07,4.19,31.68,31.68,0,0,0-3.08,5.92c-.89,2.08-2,4-3,6L107.89,269c-.52,1-1,2-1.51,3s-.84,2-1.26,3.09-.8,2.1-1.23,3.13-.85,2.08-1.3,3.1a106.44,106.44,0,0,1-6.12,12c-2.28,3.87-4.75,7.61-7.15,11.39q-1.81,2.82-3.56,5.69L84,313.23l-.43.73a3.88,3.88,0,0,0-.34.6l.6.47.64.55c3.37,3,6.25,6.44,9.35,9.66l.3.3.19.19c0,.06-.11.12-.16.18l-.62.6-1.2,1.17c-.8.78-1.58,1.58-2.33,2.41a23.9,23.9,0,0,0-3.86,5.46c0,.08-.08.14-.09.13S86.08,335.61,86.11,335.53Z"/><path class="cls-11" d="M175.22,285.65a22.75,22.75,0,0,1-3.85,3.81c-1.43,1.12-2.79,2.31-4.18,3.47a43.28,43.28,0,0,1-4.36,3.25l-.35.22-.12.08s-.06-.06-.09-.09l-.18-.18-.46-.5c-.31-.33-.63-.66-.92-1-.6-.67-1.18-1.38-1.75-2.08-2.26-2.84-4.31-5.83-6.49-8.7a41.72,41.72,0,0,0-7.41-7.84s0-.05,0-.06,0,0,.06,0a35.36,35.36,0,0,1,7.78,7.57c2.25,2.85,4.2,5.9,6.41,8.76.55.71,1.11,1.42,1.7,2.1.29.35.59.68.89,1l.46.5c.1.13.08.08.33-.07a43.87,43.87,0,0,0,4.39-3.15c1.41-1.14,2.79-2.31,4.23-3.41a22.26,22.26,0,0,0,3.9-3.74s0,0,.06,0S175.24,285.62,175.22,285.65Z"/><path class="cls-11" d="M178,361.72c4.7-4.44,9.14-9.15,13.44-14,2.14-2.41,4.26-4.86,6.35-7.32l6.18-7.34-.63-.53-.72-.6q-.74-.58-1.5-1.14c-1-.73-2.07-1.42-3.15-2.05s-2.19-1.22-3.32-1.75c-.57-.26-1.15-.51-1.73-.75l-.87-.34-1.18-.43,2.6-1.57,2.31-1.43q2.31-1.44,4.57-2.94t4.5-3.05a5.25,5.25,0,0,0,1.82-1.84,3.06,3.06,0,0,0-.1-2.49c-1.25-2.86-2.7-5.66-4.22-8.42s-3.06-5.51-4.64-8.24c-3.15-5.45-6.39-10.85-9.67-16.24s-6.6-10.73-10-16q-2.55-4-5.17-7.91c-.9-1.29-1.76-2.61-2.68-3.89a15.65,15.65,0,0,0-3-3.62c-.1-.06-.18-.1-.16-.11a.42.42,0,0,1,.19.07,15.69,15.69,0,0,1,3.08,3.57c.94,1.27,1.83,2.57,2.74,3.85q2.68,3.9,5.28,7.85,5.19,7.92,10.15,16c3.3,5.37,6.54,10.79,9.67,16.26,1.57,2.73,3.12,5.48,4.61,8.26s2.94,5.59,4.2,8.5a3.43,3.43,0,0,1,.07,2.79,5.58,5.58,0,0,1-2,2q-2.24,1.54-4.52,3c-1.52,1-3.05,2-4.59,2.93l-2.32,1.42-2.07,1.23.6.22.87.35c.59.25,1.16.5,1.74.77,1.14.54,2.25,1.13,3.34,1.77s2.14,1.34,3.16,2.08l1.5,1.15.73.61.79.69-6.36,7.48q-3.15,3.68-6.39,7.3c-4.32,4.81-8.78,9.51-13.51,13.93-.08.08-.16.14-.17.12S177.9,361.8,178,361.72Z"/><path class="cls-11" d="M57.28,290.44a176.15,176.15,0,0,0,24.47-8.19c4-1.61,7.93-3.33,11.9-5s7.92-3.37,11.92-5h.08l-.06.05c-3.88,1.85-7.81,3.63-11.74,5.38s-7.94,3.36-11.95,4.93a177,177,0,0,1-24.61,7.86s-.07,0-.07,0S57.24,290.45,57.28,290.44Z"/><path class="cls-11" d="M228,288.72c-2.86-1.76-6.19-2.46-9.43-3.17l-9.79-2.15c-3.26-.72-6.53-1.41-9.77-2.19s-6.49-1.57-9.72-2.46c0,0-.05,0,0,0h.05c3.29.61,6.56,1.32,9.82,2s6.5,1.51,9.75,2.29l9.75,2.32c3.23.77,6.56,1.53,9.4,3.34,0,0,.05,0,0,.06S228,288.73,228,288.72Z"/><path class="cls-11" d="M144.69,275.91c.41-.09.83-.13,1.23-.24a2.69,2.69,0,0,0,1.07-.59l1.86-1.65c1.24-1.11,2.47-2.24,3.69-3.37,2.42-2.28,4.8-4.61,7.08-7s4.45-4.94,6.55-7.51c1-1.3,2.23-2.52,2.72-4.06a3.3,3.3,0,0,0-.15-2.33,2.76,2.76,0,0,0-1.65-1.69s-.05,0,0,0,0,0,0,0A2.82,2.82,0,0,1,169,249a3.57,3.57,0,0,1,.28,2.53c-.48,1.7-1.7,2.94-2.66,4.28a94.43,94.43,0,0,1-6.66,7.47c-2.33,2.39-4.75,4.67-7.22,6.91-1.24,1.11-2.49,2.22-3.75,3.31l-1.89,1.63a3,3,0,0,1-1.11.58c-.41.1-.83.14-1.24.22,0,0,0,0-.06,0Z"/><path class="cls-11" d="M120.28,250.7a14,14,0,0,0-2.22,3.44c-.61,1.23-1.15,2.49-1.65,3.77a72.26,72.26,0,0,0-2.61,7.81,67,67,0,0,0-2,16.32,77.89,77.89,0,0,0,.12,8.23,63.77,63.77,0,0,0,1.39,8.1,147.52,147.52,0,0,0,4.87,15.74c3.67,10.36,7.83,20.54,12.35,30.56s9.47,19.84,14.78,29.47a.35.35,0,0,1,.06.16s-.06-.06-.11-.13c-5.55-9.5-10.59-19.3-15.19-29.3s-8.65-20.24-12.27-30.63a146.73,146.73,0,0,1-4.79-15.8,64.15,64.15,0,0,1-1.36-8.15,81.29,81.29,0,0,1-.08-8.26,67.2,67.2,0,0,1,2.07-16.34,71.09,71.09,0,0,1,2.66-7.81c.51-1.28,1.05-2.55,1.67-3.77a13.89,13.89,0,0,1,2.26-3.45c.07-.07.14-.12.15-.11S120.35,250.63,120.28,250.7Z"/><path class="cls-11" d="M143.89,276a6,6,0,0,0-1.56.77,14.42,14.42,0,0,0-1.3,1.18,21.53,21.53,0,0,0-2.59,2.35c-1.4,1.86-3,3.62-4.58,5.35s-3.18,3.45-4.86,5.09-3.41,3.23-5.22,4.73c0,0,0,0,0,0s0,0,0,0c1.61-1.7,3.27-3.36,4.9-5.05l4.92-5c1.64-1.69,3.23-3.37,4.7-5.22a22.44,22.44,0,0,1,2.67-2.31,16.53,16.53,0,0,1,1.34-1.15,5.77,5.77,0,0,1,1.59-.74s0,0,0,0A.05.05,0,0,1,143.89,276Z"/><path class="cls-11" d="M143.9,276a5.69,5.69,0,0,0-1.58.74,14.18,14.18,0,0,0-1.32,1.14,23.47,23.47,0,0,0-2.64,2.31c-1.45,1.85-3.06,3.57-4.68,5.27q-4.92,5-9.78,10.13h0l-.1-.09h0a0,0,0,0,0,0,0v0h0l-.08-.1.08-.08.16-.15.32-.29.65-.6,1.29-1.19,2.59-2.38,4.85-5.07c1.61-1.71,3.19-3.44,4.64-5.28a18.29,18.29,0,0,1,2.64-2.36c.44-.37.85-.81,1.34-1.16a5.29,5.29,0,0,1,1.59-.76s.08,0,.08,0l-.06,0a5.63,5.63,0,0,0-1.52.84c-.46.36-.84.81-1.27,1.21a19.94,19.94,0,0,0-2.53,2.4,69,69,0,0,1-4.54,5.4c-1.61,1.71-3.24,3.42-4.88,5.1l-2.63,2.35-1.32,1.18-.65.59-.33.29-.17.15-.08.07a.23.23,0,0,1-.11.06.22.22,0,0,1-.19-.39q4.92-5,9.9-10c1.64-1.68,3.27-3.37,4.74-5.2a24.3,24.3,0,0,1,2.69-2.29,13.33,13.33,0,0,1,1.34-1.13,5.92,5.92,0,0,1,1.62-.73s0,.08,0,.08h0S143.92,275.93,143.9,276Z"/><path class="cls-11" d="M145.3,275.86a5.41,5.41,0,0,1-2.59-.1,14.36,14.36,0,0,1-2.3-1.2,29,29,0,0,1-4.22-3c-2.54-2.34-5.25-4.48-7.81-6.81a30.43,30.43,0,0,1-6.66-8,19.74,19.74,0,0,1-1.07-2.4,7.35,7.35,0,0,1-.54-2.58,5.72,5.72,0,0,1,2.15-4.62s0,0,.06,0,0,0,0,.06a5.78,5.78,0,0,0-1.84,4.57,7,7,0,0,0,.59,2.44,20.39,20.39,0,0,0,1.11,2.31,33.32,33.32,0,0,0,6.49,7.93c2.5,2.36,5.19,4.55,7.7,6.93a29.82,29.82,0,0,0,4.13,3.09,16,16,0,0,0,2.26,1.23,5.36,5.36,0,0,0,2.55.13l.06,0S145.33,275.86,145.3,275.86Z"/><path class="cls-11" d="M145.31,275.84a5.5,5.5,0,0,1-2.58-.13,14.71,14.71,0,0,1-2.28-1.23,29.3,29.3,0,0,1-4.18-3.09c-2.51-2.37-5.2-4.54-7.73-6.91a33,33,0,0,1-6.57-8l-1.14-2.35a7.42,7.42,0,0,1-.56-2.58,5.68,5.68,0,0,1,.54-2.6,5.8,5.8,0,0,1,.68-1.15l.43-.51.23-.23a.39.39,0,0,0,.11.08s.06,0,0,0a.25.25,0,0,0,0,.09l0,0h0l-.12.1a5.57,5.57,0,0,0-1.92,4.44,7.39,7.39,0,0,0,.55,2.44l1.06,2.34a31,31,0,0,0,6.55,7.86c2.53,2.34,5.24,4.5,7.77,6.86a29.57,29.57,0,0,0,4.14,3.07,16,16,0,0,0,2.25,1.24,5,5,0,0,0,2.53.19c.07,0,.12,0,.12,0s-.05,0-.11,0a5.17,5.17,0,0,1-2.59-.1,15.79,15.79,0,0,1-2.32-1.18,27.93,27.93,0,0,1-4.25-3c-2.57-2.31-5.3-4.43-7.87-6.75a29.83,29.83,0,0,1-6.66-8l-1.06-2.4a7.65,7.65,0,0,1-.55-2.6,6,6,0,0,1,2.09-4.75l.13-.1a.34.34,0,0,1,.18-.09s.21,0,.23.16a.2.2,0,0,1,0,.14.26.26,0,0,1-.07.1l-.22.22c-.14.16-.28.31-.41.48a6.11,6.11,0,0,0-.65,1.07,5.38,5.38,0,0,0-.53,2.43,7.22,7.22,0,0,0,.52,2.46l1.1,2.33a32.92,32.92,0,0,0,6.45,8c2.5,2.38,5.18,4.58,7.68,7a29.08,29.08,0,0,0,4.12,3.11,15.13,15.13,0,0,0,2.27,1.24,5.48,5.48,0,0,0,2.55.15s0,0,.06,0,0,0,0,.05h0S145.39,275.82,145.31,275.84Z"/><path class="cls-11" d="M169.42,250.1a23,23,0,0,1,4.21,7.07,36,36,0,0,1,1.27,3.93c.3,1.35.64,2.69.82,4a58.27,58.27,0,0,1,.74,8.23c.09,2.76,0,5.52-.17,8.27-.33,5.51-1.24,11-2,16.4s-1.7,10.89-2.74,16.3a182.22,182.22,0,0,1-8.8,31.85,47.07,47.07,0,0,1-3.56,7.49l-4.55,6.9-4.56,6.89c-1.55,2.28-3.13,4.53-4.47,6.94-.05.09-.1.15-.11.14a.57.57,0,0,1,.07-.16,79,79,0,0,1,4.32-7l4.46-7,4.47-6.94a45.73,45.73,0,0,0,3.46-7.44,191.62,191.62,0,0,0,8.87-31.74c1.07-5.4,2-10.83,2.83-16.27s1.75-10.88,2.1-16.38c.2-2.74.29-5.49.22-8.24a58.06,58.06,0,0,0-.69-8.22c-.18-1.36-.51-2.7-.8-4a39,39,0,0,0-1.25-3.93,23.1,23.1,0,0,0-4.15-7.07.38.38,0,0,1-.1-.16S169.36,250,169.42,250.1Z"/><path class="cls-11" d="M169.4,250.11a22.94,22.94,0,0,1,4.17,7.09,36,36,0,0,1,1.27,3.93l.8,4.06a59.73,59.73,0,0,1,.7,8.23c.07,2.75,0,5.51-.21,8.26-.86,11-3.09,21.81-4.9,32.68a192.65,192.65,0,0,1-8.86,31.81,43.39,43.39,0,0,1-3.51,7.5l-4.46,7-4.45,7a79.86,79.86,0,0,0-4.28,7,.84.84,0,0,0-.18,0s-.14-.15-.13-.14l0,0,.06-.1.13-.23.26-.45.52-.89c.36-.59.73-1.17,1.11-1.75.76-1.16,1.54-2.29,2.31-3.43l4.55-6.89,4.53-6.91a43.74,43.74,0,0,0,3.56-7.39,183.37,183.37,0,0,0,8.82-31.75c1.8-10.85,4-21.68,4.86-32.64.2-2.75.3-5.5.23-8.24a59.54,59.54,0,0,0-.66-8.22c-.24-1.35-.52-2.69-.78-4a33.76,33.76,0,0,0-1.2-3.94,23.73,23.73,0,0,0-4.05-7.14c-.13-.16-.23-.28-.2-.27a1.58,1.58,0,0,1,.24.24c3.63,4.21,5.35,9.71,6.22,15.12a59.78,59.78,0,0,1,.73,8.24c.08,2.76,0,5.52-.18,8.27-.82,11-3,21.84-4.72,32.72a178.5,178.5,0,0,1-8.85,31.83,43.61,43.61,0,0,1-3.62,7.47l-4.56,6.89-4.57,6.89c-.78,1.13-1.56,2.26-2.31,3.41-.38.58-.75,1.15-1.11,1.74l-.53.88-.25.45-.13.22-.07.13-.05.07s0,0-.13.08-.26-.28-.26-.22v0a73.05,73.05,0,0,1,4.34-7.1l4.47-6.95,4.48-6.94a44.24,44.24,0,0,0,3.5-7.43A191.65,191.65,0,0,0,171,314.31c1.84-10.84,4.1-21.66,5-32.64.2-2.74.3-5.5.23-8.25a59.55,59.55,0,0,0-.67-8.22l-.79-4.05a39,39,0,0,0-1.25-3.93,23,23,0,0,0-4.15-7.08l-.08-.13s0,0,0,0,0,0,.06,0l0,0c0,.06.06.09,0,.1l-.08-.08,0,0s0,0,0,0v0Z"/><path class="cls-11" d="M86.11,335.53A24.36,24.36,0,0,1,90,330c.74-.84,1.52-1.64,2.32-2.44l1.2-1.17.59-.58s.09-.07.09-.1l-.11-.11-.29-.3c-3.13-3.2-6-6.64-9.4-9.58l-.65-.54-.72-.56s0,0,0,0l0-.07.08-.13.12-.21.21-.36.43-.72,1.72-2.89c1.15-1.92,2.33-3.82,3.52-5.72,2.38-3.8,4.83-7.55,7.08-11.42a107.15,107.15,0,0,0,6-12c.45-1,.87-2.06,1.29-3.1s.83-2.08,1.22-3.12a33.62,33.62,0,0,1,1.27-3.13c.49-1,1-2,1.53-3l3.2-5.91c1.06-2,2.19-3.91,3.09-5.95a30.47,30.47,0,0,1,3.21-5.91,10.79,10.79,0,0,1,5.24-4.1c.08,0,.14-.05.14,0s-.06,0-.12.07a10.88,10.88,0,0,0-5.07,4.19,31.68,31.68,0,0,0-3.08,5.92c-.89,2.08-2,4-3,6L107.89,269c-.52,1-1,2-1.51,3s-.84,2-1.26,3.09-.8,2.1-1.23,3.13-.85,2.08-1.3,3.1a106.44,106.44,0,0,1-6.12,12c-2.28,3.87-4.75,7.61-7.15,11.39q-1.81,2.82-3.56,5.69L84,313.23l-.43.73a3.88,3.88,0,0,0-.34.6l.6.47.64.55c3.37,3,6.25,6.44,9.35,9.66l.3.3.19.19c0,.06-.11.12-.16.18l-.62.6-1.2,1.17c-.8.78-1.58,1.58-2.33,2.41a23.9,23.9,0,0,0-3.86,5.46c0,.08-.08.14-.09.13S86.08,335.61,86.11,335.53Z"/><path class="cls-11" d="M86.13,335.55c1.87-3.81,5-6.75,8-9.67h0c0-.05.08-.07.11-.11s0-.08-.06-.12l-.24-.25-.52-.53-1-1.08-2-2.18c-1.34-1.45-2.69-2.89-4.1-4.27-.71-.69-1.43-1.36-2.19-2-.18-.16-.37-.32-.57-.47l-.31-.26c-.12-.1.07-.29.1-.38l.76-1.27c1-1.7,2-3.38,3.1-5.06l6.28-10.05,3.14-5q1.5-2.55,2.84-5.19c1.81-3.51,3.38-7.14,4.83-10.81l1.07-2.77a22.71,22.71,0,0,1,1.18-2.73q1.32-2.65,2.72-5.27c1.8-3.52,3.81-6.94,5.29-10.6a24.8,24.8,0,0,1,3-5.17,12.57,12.57,0,0,1,2.11-2.14,9.52,9.52,0,0,1,1.26-.84,7.18,7.18,0,0,1,.68-.34l.35-.14.17-.07.08,0,0,0s0,0,.08.09.08,0,.06.07a.51.51,0,0,0,0,.17h0l-.09,0-.19.07a2.62,2.62,0,0,0-.39.15,7.12,7.12,0,0,0-.74.35,9.48,9.48,0,0,0-1.36.91,12.54,12.54,0,0,0-2.28,2.38,28.73,28.73,0,0,0-3.21,5.83c-.9,2.07-2,4-3.07,6l-3.19,5.91-1.52,3a26.23,26.23,0,0,0-1.28,3.08c-.8,2.09-1.63,4.18-2.51,6.24a103.93,103.93,0,0,1-6,12L89.68,303.9l-3.37,5.43-1.66,2.74-.83,1.37-.4.69-.21.35c0,.06-.07.08,0,.11a34.83,34.83,0,0,1,3,2.59c1,.92,1.88,1.87,2.79,2.84l2.7,2.91L93,324.38l.69.72.34.35a1.16,1.16,0,0,1,.2.24c.08.1,0,.18-.12.26-1.52,1.43-2.91,2.87-4.31,4.37a24.1,24.1,0,0,0-3.53,5c-.08.15-.14.26-.15.24a1.09,1.09,0,0,1,.11-.26c1.81-3.69,4.86-6.61,7.7-9.44,0,0,.11-.07.06-.11l-.12-.11-.35-.35-.69-.72-1.37-1.43-2.73-2.89c-.91-1-1.84-1.9-2.8-2.8a35.67,35.67,0,0,0-3-2.62c-.24-.13-.09-.34,0-.51l.2-.34.41-.69.81-1.38c.55-.92,1.08-1.84,1.65-2.75l3.34-5.46L96,292.76a107.08,107.08,0,0,0,6-12q1.31-3.09,2.5-6.23a32.17,32.17,0,0,1,1.3-3.12l1.54-3,3.21-5.9c1.07-2,2.18-3.91,3.08-5.95a29.73,29.73,0,0,1,3.28-5.91,13.34,13.34,0,0,1,2.36-2.45,10.37,10.37,0,0,1,1.43-.94,6.91,6.91,0,0,1,.78-.36l.4-.16.2-.07.11,0,.08,0h.09c0-.07.25.19.15.29a.14.14,0,0,1-.06.07,1.93,1.93,0,0,1-.4.19l-.33.13-.65.32a9.81,9.81,0,0,0-1.21.81,12.49,12.49,0,0,0-2,2.06,24.22,24.22,0,0,0-2.93,5.09c-1.5,3.67-3.52,7.09-5.33,10.6-.94,1.74-1.86,3.49-2.73,5.26a20.24,20.24,0,0,0-1.18,2.7l-1.09,2.76a118,118,0,0,1-4.87,10.82c-.9,1.76-1.86,3.5-2.87,5.2l-3.15,5-6.32,10c-1.06,1.67-2.09,3.35-3.11,5.05l-.77,1.27-.07.13s-.07.09,0,.12l.26.2c.2.15.39.31.57.47.76.65,1.48,1.33,2.19,2,1.41,1.39,2.76,2.84,4.09,4.3l2,2.18,1,1.08.52.54.26.28c0,.05.13.1.08.16a1.06,1.06,0,0,1-.15.15h0c-3,2.91-6.16,5.83-8,9.62a.41.41,0,0,1-.07.11s0,0,0,0,0,0,0-.05l0,0,0-.07s0,0,0,.09,0,.08,0,0Z"/><path class="cls-11" d="M175.22,285.65a22.75,22.75,0,0,1-3.85,3.81c-1.43,1.12-2.79,2.31-4.18,3.47a43.28,43.28,0,0,1-4.36,3.25l-.35.22-.12.08s-.06-.06-.09-.09l-.18-.18-.46-.5c-.31-.33-.63-.66-.92-1-.6-.67-1.18-1.38-1.75-2.08-2.26-2.84-4.31-5.83-6.49-8.7a41.72,41.72,0,0,0-7.41-7.84s0-.05,0-.06,0,0,.06,0a35.36,35.36,0,0,1,7.78,7.57c2.25,2.85,4.2,5.9,6.41,8.76.55.71,1.11,1.42,1.7,2.1.29.35.59.68.89,1l.46.5c.1.13.08.08.33-.07a43.87,43.87,0,0,0,4.39-3.15c1.41-1.14,2.79-2.31,4.23-3.41a22.26,22.26,0,0,0,3.9-3.74s0,0,.06,0S175.24,285.62,175.22,285.65Z"/><path class="cls-11" d="M175.21,285.62a23.14,23.14,0,0,1-3.89,3.77l-4.22,3.42a46,46,0,0,1-4.4,3.18l-.14.09-.09.06c-.06,0-.17,0-.18-.05s-.15-.17-.22-.25l-.46-.51c-.3-.34-.61-.67-.89-1L159,292.2c-2.21-2.88-4.18-5.92-6.45-8.73a41.74,41.74,0,0,0-3.61-4q-1-.94-2-1.8c-.35-.28-.71-.56-1.07-.82l-.55-.4-.28-.19,0,0h0s0,0,0,0h0s0-.08,0-.11,0,0,.07,0,0,0,.08-.07l0,0,.07.05a42.76,42.76,0,0,1,7.48,7.9l6.5,8.69,1.73,2.08.91,1,.46.49c0,.05,0,0,.26-.12a46.83,46.83,0,0,0,4.37-3.18l4.22-3.43a23.7,23.7,0,0,0,3.91-3.72c0-.05.09-.08.09-.07s0,.05-.06.1a21.8,21.8,0,0,1-3.81,3.87l-4.13,3.52a44.91,44.91,0,0,1-4.35,3.27l-.35.22c-.08,0-.17.1-.25.05s-.15-.13-.22-.2l-.47-.49-.93-1-1.77-2.07c-2.19-2.88-4.34-5.79-6.5-8.7a42.29,42.29,0,0,0-7.34-7.89,1,1,0,0,1-.17-.16.25.25,0,0,1,0-.1.25.25,0,0,1,0-.15.27.27,0,0,1,.15-.09.33.33,0,0,1,.17,0l.08.06.28.19.55.4c.37.28.73.56,1.08.85.7.58,1.37,1.19,2,1.83a45,45,0,0,1,3.61,4.08c2.25,2.85,4.2,5.91,6.38,8.79l1.69,2.12c.28.35.59.68.88,1l.46.51c.07.08.15.16.22.25-.1,0,.1-.07.17-.12A44.17,44.17,0,0,0,167,292.7l4.24-3.39a22.67,22.67,0,0,0,3.92-3.73s0,0,.07,0,0,.06,0,.07l0,0S175.26,285.55,175.21,285.62Z"/><path class="cls-11" d="M178,361.72c4.7-4.44,9.14-9.15,13.44-14,2.14-2.41,4.26-4.86,6.35-7.32l6.18-7.34-.63-.53-.72-.6q-.74-.58-1.5-1.14c-1-.73-2.07-1.42-3.15-2.05s-2.19-1.22-3.32-1.75c-.57-.26-1.15-.51-1.73-.75l-.87-.34-1.18-.43,2.6-1.57,2.31-1.43q2.31-1.44,4.57-2.94t4.5-3.05a5.25,5.25,0,0,0,1.82-1.84,3.06,3.06,0,0,0-.1-2.49c-1.25-2.86-2.7-5.66-4.22-8.42s-3.06-5.51-4.64-8.24c-3.15-5.45-6.39-10.85-9.67-16.24s-6.6-10.73-10-16q-2.55-4-5.17-7.91c-.9-1.29-1.76-2.61-2.68-3.89a15.65,15.65,0,0,0-3-3.62c-.1-.06-.18-.1-.16-.11a.42.42,0,0,1,.19.07,15.69,15.69,0,0,1,3.08,3.57c.94,1.27,1.83,2.57,2.74,3.85q2.68,3.9,5.28,7.85,5.19,7.92,10.15,16c3.3,5.37,6.54,10.79,9.67,16.26,1.57,2.73,3.12,5.48,4.61,8.26s2.94,5.59,4.2,8.5a3.43,3.43,0,0,1,.07,2.79,5.58,5.58,0,0,1-2,2q-2.24,1.54-4.52,3c-1.52,1-3.05,2-4.59,2.93l-2.32,1.42-2.07,1.23.6.22.87.35c.59.25,1.16.5,1.74.77,1.14.54,2.25,1.13,3.34,1.77s2.14,1.34,3.16,2.08l1.5,1.15.73.61.79.69-6.36,7.48q-3.15,3.68-6.39,7.3c-4.32,4.81-8.78,9.51-13.51,13.93-.08.08-.16.14-.17.12S177.9,361.8,178,361.72Z"/><path class="cls-11" d="M178,361.74c9.46-8.85,17.9-18.88,26.19-28.68l-.66-.57-.71-.59-1.48-1.14c-1-.7-2.07-1.37-3.11-2.05S196,327.54,195,327c-.55-.29-1.13-.51-1.69-.77s-1.08-.44-1.91-.75l2.77-1.66c.86-.54,1.73-1.06,2.58-1.61,1.71-1.1,3.44-2.16,5.11-3.31l2.53-1.7a8.52,8.52,0,0,0,2.29-1.92,3,3,0,0,0,.33-2.8c-.34-.93-.8-1.86-1.22-2.77C204,306,202,302.46,200,298.92s-4.06-7-6.13-10.52-4.13-7-6.28-10.43l-6.54-10.27c-1.09-1.71-2.16-3.43-3.28-5.13l-3.4-5c-1.12-1.7-2.29-3.35-3.48-5l-1.79-2.46a8.79,8.79,0,0,0-2-2.14l-.06,0c0-.05,0,.1,0-.2h0s0,0,.07-.06l.06-.09,0,0,.06,0,.13.1a2.23,2.23,0,0,1,.24.19,5.92,5.92,0,0,1,.45.41,9.52,9.52,0,0,1,.79.91c.49.63.91,1.3,1.37,1.93L172.9,255l5.18,7.89,10,16c6.37,10.84,13.23,21.41,18.56,32.86a3.55,3.55,0,0,1,.27,2.86,5.2,5.2,0,0,1-2,2.07l-4.59,3.1-4.66,3-2.36,1.45-2,1.2.49.18.89.35c.59.23,1.17.5,1.76.76,1.14.56,2.26,1.18,3.39,1.76s2.14,1.39,3.21,2.09c.52.36,1,.76,1.53,1.15l.74.6.86.74-6.3,7.43-6.3,7.21c-4.26,4.76-8.66,9.4-13.32,13.76a1.56,1.56,0,0,1-.3.26,1.7,1.7,0,0,1,.27-.29c4.6-4.42,9-9.09,13.17-13.88l6.25-7.25,6-7.21-.6-.5-.73-.59c-.51-.38-1-.77-1.52-1.13-1.07-.68-2.11-1.4-3.19-2.05s-2.23-1.19-3.37-1.74c-.58-.24-1.15-.51-1.74-.74l-.89-.34-1.3-.48,2.74-1.65,2.35-1.46,4.64-3,4.57-3.1a4.81,4.81,0,0,0,1.8-1.87,3.11,3.11,0,0,0-.28-2.47c-5.32-11.36-12.18-22-18.53-32.81l-10-16-5.16-7.89-2.66-3.88c-.47-.64-.89-1.31-1.36-1.92-.24-.31-.49-.6-.75-.88l-.42-.38c-.07-.07-.15-.12-.22-.18L167,248l-.06,0,0,0,0,0s-.19,0,0-.33h0a.35.35,0,0,1,.16,0h0l.07,0,.11.05a9.16,9.16,0,0,1,2.14,2.26l1.78,2.46c1.19,1.66,2.36,3.32,3.47,5l3.4,5.06c1.11,1.69,2.18,3.42,3.27,5.13l6.52,10.29c2.14,3.45,4.16,7,6.25,10.46s4.19,6.95,6.12,10.53,4,7.08,5.7,10.77c.42.93.87,1.83,1.23,2.8a4,4,0,0,1,.19,1.54,2.94,2.94,0,0,1-.56,1.46,9.08,9.08,0,0,1-2.36,2L201.92,319c-1.67,1.15-3.41,2.2-5.12,3.3-.85.55-1.72,1.07-2.59,1.6l-2.45,1.47c.34.13,1,.39,1.56.63s1.15.49,1.7.78c1.1.59,2.22,1.15,3.29,1.77s2.09,1.37,3.12,2.07l1.48,1.15.72.59.75.66L198,340.5l-6.42,7.32c-4.34,4.83-8.82,9.53-13.57,14l-.13.11s0,0-.05,0,0-.05,0-.07l0,0c.06-.05.1-.08.1-.07l-.08.1,0,.05s0,0,0,0h0Z"/><path class="cls-11" d="M57.28,290.44a176.15,176.15,0,0,0,24.47-8.19c4-1.61,7.93-3.33,11.9-5s7.92-3.37,11.92-5h.08l-.06.05c-3.88,1.85-7.81,3.63-11.74,5.38s-7.94,3.36-11.95,4.93a177,177,0,0,1-24.61,7.86s-.07,0-.07,0S57.24,290.45,57.28,290.44Z"/><path class="cls-11" d="M57.27,290.47a177.58,177.58,0,0,0,24.56-7.94l11.93-5,11.73-5.41s0,0,0,0,.11.12.11.1,0,.12,0,.16,0,0,0,0l-.18.08-.38.15-.74.32-1.49.62-3,1.26-5.95,2.5-11.91,5a163.58,163.58,0,0,1-24.57,8c-.08,0-.14,0-.14,0a.28.28,0,0,1,.13-.05A194.66,194.66,0,0,0,81.8,282l11.91-5,6-2.47,3-1.23,1.5-.62.74-.3.38-.16.18-.07.07,0h.07s0,0,.19.08a.23.23,0,0,1,0,.22s0,.05,0,.06l0,.05-.07,0-11.77,5.34-12,4.89a177,177,0,0,1-24.64,7.78.09.09,0,0,1-.07,0c0-.07,0-.06,0-.07h0S57.17,290.49,57.27,290.47Z"/><path class="cls-11" d="M228,288.72c-2.86-1.76-6.19-2.46-9.43-3.17l-9.79-2.15c-3.26-.72-6.53-1.41-9.77-2.19s-6.49-1.57-9.72-2.46c0,0-.05,0,0,0h.05c3.29.61,6.56,1.32,9.82,2s6.5,1.51,9.75,2.29l9.75,2.32c3.23.77,6.56,1.53,9.4,3.34,0,0,.05,0,0,.06S228,288.73,228,288.72Z"/><path class="cls-11" d="M228,288.7c-2.83-1.8-6.15-2.54-9.39-3.3l-9.76-2.28-9.76-2.24-9.82-2h0v-.1s0-.08,0-.08,0,0,0-.06l0,0h0c0-.12,0,0,0-.06h0l.15,0,.31.08.6.15,1.22.3,2.43.6,4.86,1.2,9.78,2.19,9.77,2.23c3.23.75,6.59,1.48,9.44,3.29,0,0,.09.07.07.08s-.05,0-.1,0c-2.91-1.67-6.23-2.3-9.49-3l-9.8-2.08-9.79-2.2-4.85-1.25-2.43-.62-1.21-.32-.61-.15-.3-.08-.16,0-.07,0-.07-.05a.2.2,0,0,1,0-.24c.14-.18.17-.11.21-.13h.08l9.81,2.06,9.75,2.33,9.74,2.37c3.23.78,6.56,1.56,9.4,3.4a0,0,0,0,1,0,.06s-.05,0-.06,0,0,0,0,0S228.07,288.74,228,288.7Z"/><path class="cls-11" d="M144.69,275.91c.41-.09.83-.13,1.23-.24a2.69,2.69,0,0,0,1.07-.59l1.86-1.65c1.24-1.11,2.47-2.24,3.69-3.37,2.42-2.28,4.8-4.61,7.08-7s4.45-4.94,6.55-7.51c1-1.3,2.23-2.52,2.72-4.06a3.3,3.3,0,0,0-.15-2.33,2.76,2.76,0,0,0-1.65-1.69s-.05,0,0,0,0,0,0,0A2.82,2.82,0,0,1,169,249a3.57,3.57,0,0,1,.28,2.53c-.48,1.7-1.7,2.94-2.66,4.28a94.43,94.43,0,0,1-6.66,7.47c-2.33,2.39-4.75,4.67-7.22,6.91-1.24,1.11-2.49,2.22-3.75,3.31l-1.89,1.63a3,3,0,0,1-1.11.58c-.41.1-.83.14-1.24.22,0,0,0,0-.06,0Z"/><path class="cls-11" d="M144.68,275.94l1.23-.23a2.66,2.66,0,0,0,1.08-.56l1.89-1.63,3.73-3.32,7.19-6.94a93.23,93.23,0,0,0,6.6-7.47c1-1.35,2.15-2.59,2.62-4.16a3.24,3.24,0,0,0-.15-2.31,3,3,0,0,0-1.54-1.66l-.14,0-.07,0h-.05c0-.13,0,0,0-.07h0s0-.08,0-.1,0,0,.05,0l0,0h0c0,.05,0-.09,0-.07h0a1,1,0,0,1,.16.06,2.32,2.32,0,0,1,.59.34,3.56,3.56,0,0,1,.82,1,3.7,3.7,0,0,1,.41,2.57c-.45,1.73-1.71,3-2.7,4.27q-3.25,3.79-6.58,7.55l-7.15,7L149,273.42l-1.9,1.63a2.94,2.94,0,0,1-1.09.64c-.41.09-.83.15-1.24.22h-.11s.05,0,.1,0c1.79,0,2.82-1.57,4.08-2.62l3.64-3.42,7-7.08,6.55-7.52c1-1.31,2.24-2.52,2.65-4.07a3.16,3.16,0,0,0-.35-2.26,2.92,2.92,0,0,0-.7-.92,2,2,0,0,0-.48-.29l-.13,0a.35.35,0,0,1-.13-.06.15.15,0,0,1-.07-.07.23.23,0,0,1,0-.28c.13-.08.15-.05.19-.05a1.62,1.62,0,0,1,.35.09,3.36,3.36,0,0,1,1.76,1.89,3.67,3.67,0,0,1,.14,2.57c-.52,1.67-1.74,2.91-2.71,4.24a92.44,92.44,0,0,1-6.69,7.44l-7.25,6.88L149,273.59,147,275.21a2.88,2.88,0,0,1-1.12.56l-1.23.22s-.05,0-.07,0,0,0,0-.06,0,0,0,0S144.61,276,144.68,275.94Z"/><path class="cls-11" d="M120.28,250.7a14,14,0,0,0-2.22,3.44c-.61,1.23-1.15,2.49-1.65,3.77a72.26,72.26,0,0,0-2.61,7.81,67,67,0,0,0-2,16.32,77.89,77.89,0,0,0,.12,8.23,63.77,63.77,0,0,0,1.39,8.1,147.52,147.52,0,0,0,4.87,15.74c3.67,10.36,7.83,20.54,12.35,30.56s9.47,19.84,14.78,29.47a.35.35,0,0,1,.06.16s-.06-.06-.11-.13c-5.55-9.5-10.59-19.3-15.19-29.3s-8.65-20.24-12.27-30.63a146.73,146.73,0,0,1-4.79-15.8,64.15,64.15,0,0,1-1.36-8.15,81.29,81.29,0,0,1-.08-8.26,67.2,67.2,0,0,1,2.07-16.34,71.09,71.09,0,0,1,2.66-7.81c.51-1.28,1.05-2.55,1.67-3.77a13.89,13.89,0,0,1,2.26-3.45c.07-.07.14-.12.15-.11S120.35,250.63,120.28,250.7Z"/><path class="cls-11" d="M120.27,250.67A13.71,13.71,0,0,0,118,254.1l-1.67,3.77a74,74,0,0,0-2.65,7.81,66.81,66.81,0,0,0-2,16.31,80.64,80.64,0,0,0,.08,8.23,63.85,63.85,0,0,0,1.36,8.13,145.85,145.85,0,0,0,4.79,15.76A339.85,339.85,0,0,0,145.39,374a1.49,1.49,0,0,0,.12.2s0,0-.08.08,0,.07-.11.07l-.12,0h0v0l-.05-.1-.25-.45-.5-.9-1-1.82-2-3.63c-1.29-2.43-2.55-4.88-3.79-7.33q-3.74-7.36-7.14-14.88c-4.55-10-8.74-20.21-12.41-30.59a154.6,154.6,0,0,1-4.89-15.77,66.2,66.2,0,0,1-1.44-8.15,67,67,0,0,1-.14-8.26,68.46,68.46,0,0,1,2-16.38,69.83,69.83,0,0,1,2.62-7.83c1.14-2.49,2-5.16,3.82-7.29a1.24,1.24,0,0,1,.25-.23,2.59,2.59,0,0,1-.21.27c-1.77,2.12-2.62,4.81-3.73,7.31a73.65,73.65,0,0,0-2.53,7.83A68.36,68.36,0,0,0,112,282.43a52.14,52.14,0,0,0,1.65,16.31,155.21,155.21,0,0,0,4.94,15.7C122.28,324.79,126.45,335,131,345q3.38,7.51,7.09,14.89c1.23,2.45,2.49,4.9,3.77,7.33l1.93,3.64,1,1.81.49.91.25.45.06.13a1,1,0,0,1,0,.11c-.05,0,.13,0-.16.24-.22,0-.15-.05-.19-.06a.14.14,0,0,1,0,0,2,2,0,0,1-.16-.25,340.41,340.41,0,0,1-27.36-60,146.58,146.58,0,0,1-4.76-15.8,64,64,0,0,1-1.34-8.14,81.1,81.1,0,0,1,0-8.25,66.67,66.67,0,0,1,2.09-16.34,73.92,73.92,0,0,1,2.67-7.8l1.68-3.77a13.42,13.42,0,0,1,2.27-3.44l.11-.1s0,0,.06,0,0,0,0,.05l0,0c-.05.05-.08.07-.09.07s0,0,.06-.1l0,0s0,0,0,0A.87.87,0,0,0,120.27,250.67Z"/></g></g><g id="doctor_stethoscope"><g class="cls-15"><path class="cls-11" d="M108.86,390.22a89.11,89.11,0,0,1-4.72-9.75c-1.43-3.3-2.78-6.62-4.11-10a117.66,117.66,0,0,1-6.09-20.78l-.55-2.66c-.18-.89-.26-1.79-.4-2.68L92.24,339c-.17-1.8-.29-3.61-.43-5.42l-.21-2.71-.06-2.72c0-1.81-.09-3.62-.09-5.44l.19-5.43c0-1.82.21-3.63.37-5.43s.26-3.63.52-5.42A169.83,169.83,0,0,1,96.63,285a162.06,162.06,0,0,1,7.17-20.64l2.31-5c.76-1.66,1.68-3.25,2.52-4.88a47.14,47.14,0,0,1,2.86-4.87,40,40,0,0,1,3.56-4.57,36.51,36.51,0,0,1,9.13-7.3A39.82,39.82,0,0,1,135,233.64a58.14,58.14,0,0,1,11.3-1.42,32.72,32.72,0,0,1,11.82,1.85,44,44,0,0,1,10.45,5.26,42,42,0,0,1,4.67,3.69,19.31,19.31,0,0,1,2.29,2.47l1.65,2.31a92.58,92.58,0,0,1,10.2,19.92q2,5.2,3.43,10.54t2.5,10.75c.68,3.61,1.24,7.24,1.63,10.9s.73,7.18,1,10.79c.59,7.21.87,14.48.84,21.7,0,3.61-.07,7.21-.19,10.8l-.2,5.49a31.87,31.87,0,0,1-1.07,5.6,34.23,34.23,0,0,1-2,5.28,25.58,25.58,0,0,1-3,4.77,19.43,19.43,0,0,1-8.89,6.44l-.2-.45a19.88,19.88,0,0,0,7.38-7.18,24.15,24.15,0,0,0,2.18-4.63,32.71,32.71,0,0,0,1.24-5,29.72,29.72,0,0,0,.41-5l-.35-5.26-.76-10.68c-.53-7.11-1.25-14.14-2.22-21.17-.48-3.51-1-7.06-1.55-10.55s-1.22-6.87-2-10.27S184,283.84,183,280.5s-2.09-6.63-3.31-9.87a94.69,94.69,0,0,0-9.06-18.39l-1.41-2.1a12.38,12.38,0,0,0-1.33-1.49,34,34,0,0,0-3.67-3.09,37.85,37.85,0,0,0-8.52-4.67,25.63,25.63,0,0,0-9.24-1.79,49.86,49.86,0,0,0-10,.94,31.32,31.32,0,0,0-17,9.14,33.23,33.23,0,0,0-3.14,3.82,42.22,42.22,0,0,0-2.68,4.32c-.84,1.54-1.76,3-2.53,4.6l-2.34,4.71a162.67,162.67,0,0,0-7.5,19.72A168.39,168.39,0,0,0,96.63,307c-.31,1.74-.45,3.5-.69,5.25s-.46,3.51-.54,5.28L95,322.81c-.06,1.77-.06,3.54-.1,5.31l0,2.65.11,2.65.23,5.31.53,5.29c.1.88.15,1.76.29,2.64l.43,2.62a118.91,118.91,0,0,0,5.18,20.63c1.19,3.37,2.4,6.74,3.69,10.07a105.66,105.66,0,0,0,4.18,9.8Z"/></g></g><rect class="cls-2" x="-25" width="291" height="673" rx="12"/></g><rect id="face_clip-2" data-name="face_clip" class="cls-1" x="1" y="1" width="280" height="280" rx="140"/></svg>