<?xml version="1.0" encoding="utf-8"?>
<!-- Generator: Adobe Illustrator 26.0.1, SVG Export Plug-In . SVG Version: 6.00 Build 0)  -->
<svg version="1.1" id="artwork" xmlns="http://www.w3.org/2000/svg" xmlns:xlink="http://www.w3.org/1999/xlink" x="0px" y="0px"
	 viewBox="0 0 291 673" style="enable-background:new 0 0 291 673;" xml:space="preserve">
<style type="text/css">
	.st0{fill:#D9BFB0;}
	.st1{fill:#36302C;}
	.st2{opacity:0.33;}
	.st3{fill:#F2DFCE;}
	.st4{fill:#E8D9D0;}
	.st5{fill:#C9B29D;}
	.st6{fill:#2D2D2D;}
	.st7{opacity:0.58;fill:#88CFDF;enable-background:new    ;}
	.st8{opacity:0.5;}
	.st9{fill-rule:evenodd;clip-rule:evenodd;fill:#D9BFB0;}
	.st10{fill-rule:evenodd;clip-rule:evenodd;fill:#D9CEC5;}
	.st11{fill-rule:evenodd;clip-rule:evenodd;fill:#F0E5DF;}
	.st12{clip-path:url(#SVGID_00000159431925416248930740000011185793805364965527_);}
	.st13{fill:#2D2D2D;stroke:#2D2D2D;stroke-miterlimit:10;}
	.st14{fill:none;}
</style>
<g id="doctor_head_neutral">
	<g id="doctor_head_skin_hair">
		<g id="skin">
			<path class="st0" d="M121.1,179.7c-2.5-11.8-2.2-17.5-4.3-24.7c-2.1-7.4-2.2-12-4.6-24c-2.3-11.5,8.1-33.6,16.7-47.1
				c9.2-14.6,20.4-17.1,27.9-21.3c8.2-4.5,16.6-10.9,21.9-5.1c5.9,6.5,18.6,20.2,26.6,30.3s20.2,26.8,19.9,52.7
				c-0.2,12.6,0.7,20.6-0.8,29.1c-0.9,4.6-2.3,9.1-4,13.5c-1.4,3.6-3.9,6.6-7.2,8.7c-9.1,6-31.8,18.9-40.9,19.1
				c-13.2,0.3-20.9-3.8-30.2-9.4c-11.6-6.9-13.9-8.4-16.1-11.4S121.1,179.7,121.1,179.7z"/>
			<path class="st0" d="M97.8,115c1.2,1.7,8.2,13.8,9.5,16.8s5.6,7,6.6,11.5s2.4,10.2,2.7,12.7c0.2,1.5-1.3,12.1-8.4,10.4
				c-3.5-0.8-6.5-6.5-8.3-10.9s-5.8-15.3-6.1-19s-0.5-13.9,0.2-15.9S97.8,115,97.8,115z"/>
			<path class="st0" d="M234.1,128.3c-1.5,4.2-5.5,16.4-5.9,19.3c-0.5,3.2-1.8,6.4-1.8,7.1c-0.3,1.8,0.1,3.7,1.1,5.3
				c1.7,2.5,3,3.1,7-0.1s4.3-4.2,8-7.7s6.5-9.8,8-14.3s1.4-7.1,0.7-12.1c-0.7-5.2-2.9-10.8-5.1-11.3s-6.1,1.7-7.9,5.1
				S234.1,128.3,234.1,128.3z"/>
			<path class="st0" d="M148.3,204.6c0,4.3-0.5,40.3-0.9,42.4c-0.1,0.5-3.6,3-1.5,7.6c3.6,8.3,20.2,21.8,23.2,21.4
				c4.6,0,7.1-5,13.8-11.3c2.8-3.3,8.7-9.6,11.1-12.3c0.5-0.7,0.6-1.6,0.3-2.4c-0.6-1.2-2.4-2.1-2.4-2.4c-0.1-3.6-3.4-42.1-3.4-42.1
				s-15.8,0.1-17.6,0.5S148.3,204.6,148.3,204.6z"/>
		</g>
		<g id="hair">
			<path class="st1" d="M113.3,141.1c0,0-13-20.5-14.1-22.8C95.6,111.1,94,103,94.4,95c0.6-9.6-1.2-20.5,0.4-26.5s5.7-20.3,9.8-25.2
				c3.8-4.6,12.3-14.5,18.3-18.1s20-6.3,25.7-8.8c7.1-3.2,32.4-3.4,37.6-0.2s3.3,3.5,7.3,7.9s2.8,4,9.2,4.4s14.8-0.4,21.3,4.4
				s9.6,5.6,12.4,14.8s11.1,24.3,13.1,31.6s-1.9,23.8-3.5,29.4c-0.6,1.7-1.1,3.5-1.4,5.3c-3.9,2.1-6.9,5.6-8.5,9.7
				c-2.8,7.2-5.7,16.3-6.9,20.3s-3.9,15.3-3.9,15.3s-0.3-12.6-0.3-21.9c-0.1-12.6-3.9-24.8-10.7-35.3c-4.5-6.9-10-13.2-15.1-19.3
				c-4-4.9-7.6-9.4-10.5-13.2c-5.6-7.2-15.2-12.4-15.2-12.4s-18.6,7.9-24.2,10.6s-12.9,9.4-18.8,17.8c-3.4,4.7-6.5,9.7-9,14.9
				c-3.1,6.4-6.3,13.4-7.7,19.6C112.8,123.8,113.3,141.1,113.3,141.1z"/>
		</g>
	</g>
	<g id="doctor_head_shading_light" class="st2">
		<path class="st3" d="M173.6,57.2c-3.3,1.7-3.4,6.9-1.4,9.6c4.9,6.4,11.2,9.8,16.4,16c6.5,7.8,13.9,17.6,18.9,26.6
			c4.7,8.8,8.2,18.2,10.2,28c1.1,5.2,0.6,10.1,0.1,15.3c-1,10.7,0.2,20-6.8,28.9c-5.7,7.3-13.7,12.4-21.1,17.8
			c-2.7,1.9-4.7,4.7-5.6,7.8c0,0,24.1-10.9,31-17c4.5-4,7.9-12.6,9.2-23.2c0.6-6.4,0.8-12.9,0.5-19.3c-0.4-10.4,0.4-17.6-3-28.6
			c-2.5-8.3-10.3-20.3-12.9-23.7c-1.3-1.7-13.2-16.6-21.6-27C183.7,63.7,179,59.8,173.6,57.2z"/>
		<path class="st4" d="M188.4,205.4c-2.8,1.9-5.6,19-4.7,29s1.2,18.4-1.3,25.2s0.3,5,0.3,5s9.3-7.5,9.3-10.3s-1.2-18.4-1.2-20.9
			S188.4,205.4,188.4,205.4z"/>
	</g>
	<g id="doctor_head_shading_dark">
		<path class="st5" d="M172.6,57.6c0,0-14.2,11.5-16.1,12.9c-5.9,4.7-11.4,9.9-16.3,15.7c-9.5,10.7-22.5,21.9-23.2,35.4
			c-0.6,10.8,6.6,29.5,8.3,40.2c1.5,9.2,3.6,18.5,10.3,25.5s7.1,8.5,15.5,12.9c5.2,2.8,10.2,6,14.9,9.5c0,0-4.3-0.4-13.1-3.7
			c-6.7-2.4-21.8-10-26.8-15.7c-3.7-5.9-6.2-13.7-7.3-23.4c-1.7-9.4-4.9-22.3-6-31.5c-1.3-10.5,1.9-21.2,6.3-30.3
			c3.6-7.5,7.8-14.7,12.5-21.6c2.3-3.1,13-13.7,17.2-15.5C152.7,66.4,172.6,57.6,172.6,57.6z"/>
		<path class="st5" d="M165.4,209.6c-4.8,1.9-8.2,5.1-10.5,12.4c-3.3,10.2-0.5,13.3-0.7,21.1s0.4,11.8,0.4,17v5.3
			c0,0-6.9-6.1-7.3-9.7s0.4-9.3,0.4-11s0.9-38.4,0.9-40C148.5,203.3,165.4,209.6,165.4,209.6z"/>
	</g>
	<g id="doctor_head_outline">
		<path class="st6" d="M225.4,158.1c0.1-8.6,0.3-17.3-0.6-26c-0.4-4.3-1.3-8.6-2.4-12.7c-1.2-4.1-2.8-8.2-4.8-12
			c-2.1-3.8-4.5-7.4-7.2-10.8c-2.6-3.4-5.4-6.8-8.1-10.1s-5.5-6.7-8.1-10.2c-2.6-3.5-5.3-6.8-8.3-10c-1.5-1.6-3.1-3-4.8-4.3
			c-1.8-1.2-3.6-2.4-5.4-3.6l-1.4-0.9l-0.6-0.4c-0.1,0-0.2,0-0.3,0.1l-0.4,0.1l-3.1,1c-2,0.7-4,1.6-6.1,2.3c-4,1.6-7.9,3.5-11.7,5.6
			c-3.8,2.1-7.4,4.5-10.7,7.3c-3.2,2.9-6.2,6-9,9.4c-2.9,3.2-5.4,6.8-7.3,10.7c-1,1.9-1.9,3.9-2.9,5.8l-3,5.8
			c-2,3.8-3.5,7.9-4.6,12.1c-1.2,4.2-1.9,8.4-2,12.8c0.1,4.3,0.7,8.6,1.7,12.8l2.6,12.7l1.3,6.4c0.4,2.1,0.9,4.2,1.2,6.4
			c0.6,4.3,1.1,8.6,2.5,12.7c0.8,2,1.5,4.1,2.4,6c0.9,2,2.3,3.7,4,5c1.7,1.3,3.4,2.6,5.3,3.7c1.8,1.2,3.6,2.3,5.5,3.4
			c3.7,2.3,7.5,4.2,11.6,5.8c4.1,1.5,8.2,2.8,12.4,3.9c2.1,0.5,4.2,1,6.3,1.4c2.1,0.3,4.3,0.3,6.4-0.1c4.3-0.7,8.1-2.8,12.1-4.6
			s7.9-3.7,11.7-5.7c3.8-2,7.6-4.2,11.2-6.5c1.8-1.2,3.6-2.4,5.3-3.8c0.8-0.7,1.6-1.4,2.3-2.3c0.6-0.9,1.1-1.8,1.6-2.8
			c0.9-2,1.6-4,2.3-6.1s1.4-4.1,1.9-6.2c1-4.2,1.5-8.5,1.4-12.9c0-0.2,0-0.4,0-0.5c0,0.2,0,0.4,0,0.5c0.1,4.3-0.3,8.7-1.3,12.9
			c-0.5,2.1-1.2,4.2-1.9,6.2s-1.4,4.1-2.2,6.1c-0.4,1-0.9,2-1.6,2.9c-0.7,0.9-1.4,1.6-2.3,2.3c-1.7,1.4-3.5,2.6-5.3,3.8
			c-3.6,2.4-7.4,4.6-11.2,6.6s-7.8,3.9-11.7,5.7l-5.9,2.7c-2,0.9-4.1,1.5-6.2,1.9c-2.2,0.4-4.4,0.4-6.5,0.1
			c-2.2-0.4-4.3-0.9-6.4-1.4c-4.2-1.1-8.4-2.4-12.4-3.8c-4.1-1.6-8-3.5-11.6-5.8c-1.9-1.1-3.7-2.2-5.5-3.4c-1.8-1.2-3.6-2.4-5.3-3.8
			c-0.9-0.7-1.6-1.5-2.3-2.4c-0.7-0.9-1.3-1.8-1.7-2.8c-0.9-2-1.7-4-2.4-6.1c-1.5-4.1-1.9-8.5-2.5-12.8c-0.3-2.1-0.7-4.2-1.2-6.4
			l-1.3-6.4l-2.6-12.7c-1-4.2-1.5-8.5-1.6-12.9c0.2-4.4,0.9-8.7,2.1-12.8c1-4.2,2.6-8.3,4.6-12.2l3-5.8c1-1.9,1.9-3.9,2.9-5.8
			c1-1.9,2.1-3.8,3.3-5.6c1.2-1.8,2.6-3.5,4-5.1c2.8-3.4,5.8-6.5,9-9.4c3.3-2.8,6.9-5.3,10.7-7.3c3.8-2.1,7.7-4,11.8-5.5
			c2-0.8,4-1.6,6.1-2.3l3.1-1l0.4-0.1c0.1-0.1,0.3-0.1,0.4-0.1l0.7,0.5l1.4,0.9c1.8,1.2,3.6,2.3,5.4,3.6c1.7,1.3,3.3,2.8,4.8,4.4
			c2.9,3.2,5.7,6.5,8.3,10c2.6,3.4,5.3,6.8,8.1,10.2s5.5,6.7,8.1,10.1c2.7,3.4,5.1,7,7.2,10.8c2,3.9,3.6,7.9,4.8,12.1
			c1.2,4.2,2,8.4,2.4,12.8C225.8,140.7,225.6,149.4,225.4,158.1c0.1,0.3,0.1,0.4,0.1,0.6C225.4,158.5,225.4,158.3,225.4,158.1z"/>
		<path class="st6" d="M115,162.3c-0.4,0.9-0.9,1.8-1.6,2.5c-0.3,0.4-0.7,0.7-1.1,1.1c-0.3,0.4-0.8,0.7-1.3,0.8c-1,0.3-2,0.3-3-0.1
			c-0.5-0.1-1-0.3-1.4-0.6c-0.4-0.3-0.8-0.6-1.2-1c-0.7-0.7-1.4-1.5-2-2.3c-0.7-0.8-1.2-1.6-1.6-2.5c-0.9-1.8-1.7-3.6-2.5-5.5
			c-1.6-3.7-2.9-7.5-3.9-11.4c-0.9-3.9-1.5-7.9-1.8-11.9c-0.2-2-0.2-4-0.2-6c0.1-2,0.6-4,1.3-5.9c0.4-0.9,0.9-1.8,1.4-2.7
			c0.3-0.4,0.6-0.8,0.8-1.3l0.5-0.7l0.2-0.3l0.1-0.1v0.1l0.1,0.2l0.3,0.6l3,5.2c3.9,7,7.7,14.1,12,20.9c0,0.1,0.1,0.1,0,0.1
			c0,0-0.1-0.1-0.1-0.1c-4.5-6.7-8.3-13.7-12.4-20.7l-3-5.2l-0.1-0.1l0,0l-0.3,0.5c-0.3,0.4-0.6,0.8-0.8,1.2c-0.5,0.8-1,1.7-1.4,2.6
			c-0.8,1.8-1.2,3.8-1.3,5.8c-0.1,2,0,4,0.1,6c0.2,4,0.8,8,1.7,11.9c0.9,3.9,2.2,7.7,3.8,11.4c0.8,1.8,1.6,3.7,2.5,5.5
			c0.4,0.9,0.9,1.8,1.6,2.5c0.6,0.8,1.3,1.6,2,2.3c0.3,0.4,0.7,0.7,1.1,1c0.4,0.2,0.9,0.4,1.4,0.6c0.9,0.4,2,0.4,2.9,0.1
			c0.5-0.2,0.9-0.4,1.2-0.8c0.4-0.4,0.7-0.7,1.1-1.1C114,164.2,114.5,163.3,115,162.3C114.9,162.3,115,162.3,115,162.3
			C115,162.3,115,162.2,115,162.3z"/>
		<path class="st6" d="M226.4,156.4c0.2,1.2,0.5,2.4,1,3.5c0.5,1.1,1.5,2,2.6,2.3c0.6,0.1,1.2,0,1.7-0.4c0.5-0.3,1-0.7,1.4-1.1
			c0.9-0.9,1.7-1.8,2.6-2.6c1.9-1.6,3.8-3.1,5.6-4.7c1.8-1.6,3.4-3.5,4.6-5.6c1.1-2.2,2.2-4.4,3.2-6.6c0.2-0.6,0.4-1.1,0.6-1.7
			s0.3-1.2,0.4-1.8c0.2-1.2,0.5-2.4,0.8-3.6c0.4-2.4,0.5-4.8,0.1-7.2c-0.2-2.4-0.7-4.8-1.5-7.1c-0.7-2.3-2.2-4.3-4.2-5.6
			c-0.5-0.3-1.1-0.3-1.6-0.2c-0.5,0.2-1,0.6-1.4,1c-0.8,0.8-1.6,1.8-2.5,2.7c-1.7,1.7-3.1,3.7-3.9,6c-0.9,2.2-1.6,4.6-2.3,6.9
			c-2.9,9.3-6.1,18.6-8.3,28.1c0,0.1,0,0.2-0.1,0.1c0,0,0-0.1,0-0.1c1.9-9.6,5-18.9,7.8-28.3c0.7-2.3,1.4-4.7,2.3-7
			c0.9-2.3,2.3-4.4,4.1-6.2c0.9-0.8,1.6-1.8,2.5-2.6c0.4-0.5,1-0.8,1.6-1.1c0.7-0.2,1.4-0.1,2,0.2c2.1,1.4,3.7,3.4,4.4,5.8
			c0.8,2.3,1.3,4.7,1.5,7.2c0.3,2.4,0.3,4.9-0.2,7.4c-0.2,1.2-0.5,2.4-0.8,3.6c-0.1,0.6-0.2,1.2-0.4,1.8c-0.2,0.6-0.4,1.2-0.7,1.7
			c-1,2.2-2.2,4.4-3.3,6.6c-1.3,2.1-2.8,4-4.7,5.6c-1.8,1.6-3.8,3.1-5.6,4.7c-0.9,0.8-1.7,1.7-2.6,2.6c-0.4,0.4-0.9,0.8-1.4,1.1
			c-0.5,0.3-1.2,0.5-1.8,0.4c-1.2-0.4-2.2-1.2-2.7-2.4C226.9,158.8,226.6,157.6,226.4,156.4c0-0.1,0-0.1,0-0.2
			C226.4,156.3,226.4,156.3,226.4,156.4z"/>
		<path class="st6" d="M244.7,113.4c1.3-6.7,3-13.2,4.3-19.9c0.8-3.3,1.2-6.6,1.3-10c-0.1-3.4-1.4-6.6-2.8-9.7l-8.3-18.5
			c-1.4-3.1-2.7-6.2-4.3-9.2c-1.5-3-3.4-5.8-5.8-8.3c-1.2-1.2-2.5-2.2-4-3.1c-1.5-0.8-3-1.6-4.5-2.4c-2.9-1.7-6.2-2.8-9.5-3.3
			c-3.4-0.4-6.7,0.5-10.1,0.5c-0.9,0-1.7-0.1-2.6-0.3c-0.8-0.2-1.7-0.5-2.4-0.9c-0.8-0.4-1.4-1-1.9-1.8c-0.5-0.7-1-1.4-1.4-2.1
			c-0.8-1.5-1.6-3-2.5-4.4c-1-1.4-2.3-2.5-3.8-3.2c-3-1.5-6.3-2.3-9.7-2.5c-6.7-0.5-13.5-0.2-20.2,1.1c-3.3,0.6-6.6,1.4-9.9,2.2
			s-6.5,1.7-9.8,2.8c-6.4,2-12.6,4.9-18.2,8.6c-5.5,3.9-10.3,8.8-14,14.5c-3.7,5.7-6.5,11.9-8.2,18.4c-0.9,3.3-1.6,6.6-2,9.9
			c-0.1,1.7-0.3,3.4-0.4,5s-0.2,3.4-0.1,5.1c0,3.4,0.6,6.7,0.7,10.1s-0.1,6.8,0,10.2c0,1.7,0.2,3.4,0.6,5c0.4,1.7,1,3.3,1.7,4.8
			c1.3,3.1,2.8,6.2,4.3,9.2s3.1,6,4.9,8.9c1.7,2.9,3.6,5.7,5.7,8.4c0.1,0.1,0.2,0.2,0.3,0.3c-0.1-0.1-0.2-0.2-0.3-0.3
			c-2.2-2.6-4.1-5.4-5.8-8.3c-1.8-2.9-3.4-5.9-4.9-8.9s-3-6.1-4.4-9.2c-0.7-1.6-1.2-3.2-1.7-4.8c-0.3-1.7-0.5-3.4-0.6-5.1
			c-0.1-3.4,0.1-6.8,0-10.2s-0.8-6.7-0.7-10.1c-0.1-1.7,0-3.4,0-5.1s0.3-3.4,0.4-5.1c0.4-3.4,1.1-6.7,1.9-10
			c1.7-6.6,4.5-12.9,8.2-18.6c3.7-5.7,8.5-10.7,14.1-14.6c5.7-3.8,11.8-6.7,18.3-8.7c3.2-1.1,6.5-2,9.8-2.8s6.6-1.6,9.9-2.2
			c6.7-1.2,13.5-1.6,20.3-1c3.4,0.2,6.8,1.1,9.8,2.6c1.5,0.8,2.8,2,3.9,3.3c1,1.4,1.7,3,2.5,4.4c0.4,0.7,0.9,1.5,1.4,2.1
			c0.5,0.7,1.1,1.2,1.8,1.7c0.7,0.4,1.5,0.7,2.3,0.9c0.8,0.2,1.7,0.3,2.5,0.3c3.4,0,6.7-0.9,10.1-0.5c3.4,0.6,6.6,1.7,9.6,3.4
			c1.5,0.8,3,1.6,4.5,2.4c1.5,0.9,2.8,1.9,4,3.1c2.3,2.5,4.3,5.3,5.8,8.4c1.6,3,2.9,6.1,4.3,9.2l8.2,18.6c1.4,3.1,2.7,6.3,2.8,9.7
			c-0.1,3.4-0.5,6.8-1.3,10.1C247.7,100.2,246,106.8,244.7,113.4c0,0.2,0,0.4-0.1,0.5C244.6,113.7,244.6,113.6,244.7,113.4z"/>
		<path class="st6" d="M147.2,251.5c0.2-3.9,0.3-7.8,0.4-11.7s0.4-7.8,0.5-11.7s0.1-7.8,0.1-11.7s0.1-7.8,0.3-11.7l0,0
			c0.1,3.9,0.2,7.8,0.2,11.7s-0.1,7.8-0.2,11.7s-0.5,7.8-0.7,11.7S147.5,247.6,147.2,251.5L147.2,251.5
			C147.2,251.5,147.2,251.5,147.2,251.5z"/>
		<path class="st6" d="M192,251.6l-0.8-11.4c-0.2-3.8-0.5-7.6-0.9-11.3l-1.1-11.3c-0.3-3.8-0.7-7.6-0.8-11.4l0,0l1.3,11.3
			c0.4,3.8,0.7,7.6,1,11.3s0.5,7.6,0.7,11.4L192,251.6L192,251.6C192,251.6,192,251.6,192,251.6z"/>
		<path class="st6" d="M185,158.3c0.2,0.8,0,1.7-0.5,2.3c-0.4,0.7-1,1.3-1.7,1.7c-0.7,0.5-1.5,0.7-2.3,0.7c-0.8-0.1-1.6-0.3-2.4-0.5
			c-1.6-0.6-3,0.4-4.5,1.1c-1.5,0.7-3.1,1.1-4.8,1.1c-1.7-0.1-3.3-0.5-4.8-1.2c-0.7-0.3-1.4-0.8-2.1-1.1c-0.7-0.3-1.5-0.3-2.3-0.2
			c-1.6,0.2-3.2,0.6-4.9,0.2c-0.8-0.2-1.5-0.7-2.1-1.3c-0.3-0.3-0.5-0.6-0.7-1c-0.2-0.4-0.2-0.8-0.1-1.2l0,0l0,0
			c-0.1,0.4-0.1,0.8,0.2,1.1c0.2,0.3,0.5,0.6,0.8,0.9c0.6,0.5,1.2,0.9,2,1.1c1.6,0.3,3.1-0.1,4.7-0.4c0.8-0.1,1.7-0.1,2.5,0.2
			c0.8,0.3,1.5,0.8,2.2,1.1c1.4,0.7,3,1.2,4.6,1.3c1.6,0.1,3.2-0.3,4.6-1c0.7-0.3,1.5-0.7,2.2-1c0.8-0.3,1.7-0.3,2.4,0
			c0.8,0.3,1.5,0.4,2.3,0.6c0.8,0,1.6-0.2,2.2-0.6c0.7-0.4,1.3-1,1.7-1.6c0.5-0.6,0.7-1.5,0.5-2.2v-0.1
			C184.9,158.2,185,158.3,185,158.3z"/>
		<path class="st6" d="M158.6,162.1c-0.6,0-1.2,0.2-1.8,0.4c0.2,0.4,0.6,0.7,1,0.6c1.1,0.1,2.2,0.1,3.2-0.1c0.5-0.1,0.9-0.3,1.2-0.6
			c-0.2-0.3-0.6-0.4-0.9-0.4c-0.5,0-1.1,0-1.6,0C159.3,162.1,159,162.1,158.6,162.1z"/>
		<path class="st6" d="M175.9,162.4c-0.5,0.2-1,0.4-1.4,0.8c0.1,0.2,0.3,0.2,0.4,0.2c1.1,0.2,2.3,0.2,3.4,0c0.5-0.1,1-0.3,1.5-0.5
			c-0.3-0.1-0.7-0.2-1.3-0.4c-0.5-0.2-1-0.3-1.5-0.2C176.6,162.3,176.3,162.3,175.9,162.4z"/>
	</g>
</g>
<g id="doctor_torso_neutral">
	<g id="doctor_torso_neutral_colour">
		<path class="st1" d="M116.4,514.9l-44.3,22.4l-71.8,42l2.4,85.1c0,0,57.3-16.1,68.6-19.4s49.4-11.1,49.4-11.1L116.4,514.9z"/>
		<path class="st4" d="M290.1,492.1c-0.6-11.2-7.6-67-10.1-80S264,313,260.4,303s-2-13.5-21.1-18s-23-5.5-24.7-6.2
			s-10.1-16.1-13.7-21c-2.5-3.5-8-9.7-8.9-10.9c-0.1,0.2-0.1,0.5-0.1,0.7l2.3,2.6c-0.2,1.2-0.6,2.4-1.1,3.5
			c-1.8,2.4-8.2,8.9-10.4,11c-1.7,2.3-3.3,3.4-5.3,5.4c-1.9,2-4,3.8-6.2,5.5c-0.7,0.5-2.9,0.4-3.7,0.1c-3-1.1-6.6-4.5-8.4-6.1
			c-2.5-2.2-3.7-2.4-5.9-4.9c-0.1-0.1-1-0.9-1.1-1c-0.4-0.3-0.7-0.6-1-1c-0.3-0.3-0.6-0.7-0.8-1.1c-2.9-2.3-3.4-4.6-4.8-8
			c-0.3-0.7-0.4-1.5-0.4-2.3c0.4-2.9,2.1-3.1,1.8-4.2c-4,1.3-9.5,9.7-11.3,14.9l-5.1,10.4c0,0-15.3,6.8-29.4,12.1
			c-11.5,4.3-20.7,6-22.4,8.1c-1.9,2.3-4,8.5-4.7,10c-1.1,2.3-2,4.6-2.8,7c-0.6,2.3-2.5,8.4-3,13.7s-1.4,15-2.3,20.2
			s-7.1,55.4-8.4,60.5s-8.6,46.8-11.1,56.3s-11.8,54.1-13.5,60.4c-1.6,6.2-5.8,26.2-5.7,30.3s-4.9,61.5-4.9,61.5s9.9-2.3,12.5-3.1
			c2.2-0.7,6.5-3,12.2-5.4c9.5-4,22.4-9.2,22.4-9.2s0.9-20.6,3.2-26.6s6.8-17.6,6.5-20.6s-4.6-6.6-7-10.6c-0.5-0.8,4-21.3,4-21.3
			c1.4-5,4.8-16.5,6.4-22.7s12.8-36.4,15-39.7s-2,46.4-2,55.4c0,4.8-0.8,16.8-0.8,16.8l20.9-8.6l4.5,116.6l-24.7,5.6L93.7,673H231
			c0,0,2.9-124.6,0.6-155.4c-3.5-45.9,4.6-118.4,4.6-118.4l6.1,49.4c4.1,33.3,7.5,28.6,7.5,28.6s-10.6,17.8-6,21
			c8.6,5-12,19-12.2,19.5c-0.6,1.4,0.9,58,0.9,57.6c8.4-6.5,28.6-33.2,37.4-47C279.2,513.6,290.7,503.4,290.1,492.1z"/>
		<path class="st7" d="M144.3,251.8c-3.2,4.3-5.1,12.3-6.1,17.5c-0.7,4.1-1.3,8.3-1.6,12.5c-0.4,6.4,1.9,18.4,5.5,30.4
			c3.6,11.6,8.3,22.9,13.9,33.6c9.4,17.4,14.2,27.8,14.2,27.8s5.4-8.3,9.8-14.8c4-6,4.8-7,8.3-15.4s7.3-25.1,8.2-31.6
			c1.1-7.4,5-30,5-36.3c0-8-2.2-16.9-3.6-19.8c-1.1-2.1-2.3-4.1-3.8-6c0.2,1.1-0.1,2.1-0.7,3c-3.8,4.4-12.9,14.6-18.2,19.5
			c-2.2,2-3.9,3.7-5.4,3.7c-2.6,0-4,0-9.1-5.1c-5.5-5.4-11.4-9.1-13.1-13c-1.1-2.3-1.9-4.8-2.4-7.2L144.3,251.8z"/>
		<path class="st6" d="M179.5,287c-4.9,0-21.7-1-21.7-1s-2.5,2.4-2.8,3.2s4.8,3.1,4.8,3.1s1.9,24,2.2,28.3s-6,22.6-6,25
			s14.3,28.6,14.3,28.6l13.8-21.9c0,0-2-6.3-4.2-14.3c-2.1-7.6-7.2-20.1-7.2-20.1l3.8-21.1l6.8-4.8L179.5,287z"/>
	</g>
	<g id="doctor_torso_neutral_shading_dark" class="st8">
		<path class="st9" d="M91.2,287.8c-6.6,2.1-12.4,1.4-16.9,13.7c-4.9,12.8-7.7,29.5-8.2,40.1s-8.3,66.1-9.7,72.2
			s-9.7,56.2-15.4,69.4s-13.4,59.5-14,67.9s-4.9,61.5-4.9,61.5s4.5-4.7,6.4-6.9s8-8.3,10.9-9.4s5.2-2.4,5.2-2.4s-9.9,0.9-13-5
			s-1.2-14.2-0.7-18.7s4.5-46,7.1-52s15.3-62.1,17-68.9s8-47,9.4-52.6s3.8-35.9,6.1-43.4s1.9-31.4,5.9-39.7s4.5-16.3,9.7-18.6
			c3-1.2,5-4.1,5-7.3"/>
		<path class="st10" d="M89.6,386.1c0.6,3,2.6,13,3.2,17.1s3.8,30.9,4,35.2s0.9,13.9,0.9,13.9l-7,17.2c0,0-10.6,31.5-11.9,34.9
			s-7.2,30.2-7.2,30.2l-6-7.5c0,0,5.7-15.3,7.3-19.4s7.9-22.6,9.8-29s6.8-19.4,8.5-24.7s2.3-23.4,1.7-28.1S89.6,386.1,89.6,386.1z"
			/>
	</g>
	<g id="doctor_torso_neutral_shading_light">
		<path class="st11" d="M213.2,278.2c2.4,1,30.9,7,33.2,7.9s8.3,1.4,10.6,7.9s5.5,21.4,6.2,25.2s7.1,36.7,8.6,45.4
			s12,71.8,12.9,78.5s6.3,48.5,5.9,52.7c-0.4,5.1-18.3,30.2-22.4,34.5s-25.8,35.8-29.8,39.2s-6.5,6.5-7.8,6.9s1.1-0.5,0-3.9
			s-3-7.8-3.9-10.4s17.3-16.8,17.3-16.8l37.1-49.6c0,0-1.7-13.7-1.9-27c-0.3-16.2-3.1-40.2-5.8-50.8s-9.2-42.1-10.3-47.6
			s-8-40.2-9.6-47.6c-1.5-6.6-4.2-21.8-9-24.4s-24.6-7.4-24.6-7.4l-6.3-12.4"/>
	</g>
	<g id="doctor_torso_neutral_skin">
		<path class="st0" d="M33.5,601.8c4,7.4,10.8,32.4,9.9,40.1s0.6,31,0.6,31h35.5c0,0-12.4-24.7-14.1-29.8s-6.2-23.5-6.2-29.6v-13.2
			l2.6-7.9c-5.1-0.4-10.3,0-15.2,1.3C39.2,595.2,33.5,601.8,33.5,601.8z"/>
		<path class="st0" d="M217.3,541.7c-1.4,1.1-19.6,18.6-22.1,21.1c-3.4,3.5-5.4,8.1-5.9,13c2.3,1.5,4.6,2.9,7.1,4
			c3.5,1.5,16.1,4.8,16.1,4.8s1.2-3,2.8-6.6c1.3-3,5.9-8.9,7.6-10.9c1.4-1.8,2.7-3.7,3.9-5.6C226.8,561.5,219.3,540.2,217.3,541.7z"
			/>
	</g>
	<g id="doctor_torso_neutral_outline">
		<path class="st6" d="M168.9,276c-0.6,0.2-1.1,0.4-1.6,0.8c-0.5,0.4-0.9,0.8-1.3,1.2c-0.9,0.7-1.8,1.5-2.6,2.4
			c-1.4,1.9-3,3.6-4.6,5.4s-3.2,3.5-4.9,5.1s-3.4,3.2-5.2,4.7l0,0c1.6-1.7,3.3-3.4,4.9-5l4.9-5c1.6-1.7,3.2-3.4,4.7-5.2
			c0.8-0.8,1.7-1.6,2.7-2.3c0.4-0.4,0.9-0.8,1.3-1.1C167.8,276.5,168.3,276.2,168.9,276L168.9,276L168.9,276z"/>
		<path class="st6" d="M138.1,283l5.2,6.1c0.9,1,1.7,2,2.6,3.1s1.6,2.1,2.3,3.2l0,0c-0.9-0.9-1.8-2-2.7-3s-1.7-2.1-2.5-3.1
			L138.1,283z"/>
		<path class="st6" d="M170.3,275.9c-0.9,0.2-1.7,0.1-2.6-0.1c-0.8-0.3-1.6-0.7-2.3-1.2c-1.5-0.9-2.9-1.9-4.2-3
			c-2.5-2.3-5.2-4.5-7.8-6.8c-2.7-2.3-4.9-5-6.7-8c-0.4-0.8-0.8-1.6-1.1-2.4c-0.3-0.8-0.5-1.7-0.5-2.6c0-1.8,0.7-3.5,2.1-4.6h0.1
			c0,0,0,0,0,0.1c-1.3,1.2-1.9,2.8-1.8,4.6c0.1,0.8,0.2,1.7,0.6,2.4c0.3,0.8,0.7,1.6,1.1,2.3c1.7,3,3.9,5.6,6.5,7.9
			c2.5,2.4,5.2,4.5,7.7,6.9c1.3,1.1,2.7,2.2,4.1,3.1c0.7,0.5,1.5,0.9,2.3,1.2C168.6,276,169.5,276,170.3,275.9L170.3,275.9
			L170.3,275.9z"/>
		<path class="st6" d="M194.4,250.1c1.8,2.1,3.2,4.5,4.2,7.1c0.5,1.3,0.9,2.6,1.3,3.9c0.3,1.4,0.6,2.7,0.8,4
			c0.4,2.7,0.7,5.5,0.7,8.2c0.1,2.8,0,5.5-0.2,8.3c-0.3,5.5-1.2,11-2,16.4s-1.7,10.9-2.7,16.3c-2,10.9-4.9,21.5-8.8,31.9
			c-1,2.6-2.2,5.1-3.6,7.5l-4.6,6.9l-4.6,6.9c-1.6,2.3-3.1,4.5-4.5,6.9c-0.1,0.1-0.1,0.1-0.1,0.1c0-0.1,0-0.1,0.1-0.2
			c1.3-2.4,2.8-4.7,4.3-7l4.5-7l4.5-6.9c1.4-2.4,2.5-4.9,3.5-7.4c3.9-10.3,6.8-20.9,8.9-31.7c1.1-5.4,2-10.8,2.8-16.3
			s1.8-10.9,2.1-16.4c0.2-2.7,0.3-5.5,0.2-8.2c0-2.8-0.3-5.5-0.7-8.2c-0.2-1.4-0.5-2.7-0.8-4c-0.3-1.3-0.8-2.6-1.2-3.9
			C197.6,254.6,196.2,252.2,194.4,250.1c-0.1,0-0.1-0.1-0.1-0.1C194.4,250,194.4,250,194.4,250.1z"/>
		<path class="st6" d="M111.1,335.5c1-2,2.3-3.9,3.9-5.5c0.7-0.8,1.5-1.6,2.3-2.4l1.2-1.2l0.6-0.6c0,0,0.1-0.1,0.1-0.1l-0.1-0.1
			l-0.3-0.3c-3.1-3.2-6-6.6-9.4-9.6l-0.7-0.5l-0.7-0.6l0,0v-0.1l0.1-0.1l0.1-0.2l0.2-0.4l0.4-0.7l1.7-2.9c1.2-1.9,2.3-3.8,3.5-5.7
			c2.4-3.8,4.8-7.5,7.1-11.4c2.2-3.9,4.3-7.9,6-12c0.4-1,0.9-2.1,1.3-3.1s0.8-2.1,1.2-3.1c0.4-1.1,0.8-2.1,1.3-3.1c0.5-1,1-2,1.5-3
			l3.2-5.9c1.1-2,2.2-3.9,3.1-6c0.9-2.1,1.9-4,3.2-5.9c1.3-1.9,3.1-3.3,5.2-4.1c0.1,0,0.1,0,0.1,0s-0.1,0-0.1,0.1
			c-2.1,0.8-3.9,2.3-5.1,4.2c-1.2,1.9-2.3,3.8-3.1,5.9c-0.9,2.1-2,4-3,6l-3.2,5.9c-0.5,1-1,2-1.5,3c-0.5,1-0.9,2-1.3,3.1
			c-0.4,1.1-0.8,2.1-1.2,3.1s-0.9,2.1-1.3,3.1c-1.8,4.1-3.8,8.1-6.1,12c-2.3,3.9-4.8,7.6-7.2,11.4c-1.2,1.9-2.4,3.8-3.6,5.7
			l-1.8,2.8l-0.4,0.7c-0.1,0.2-0.2,0.4-0.3,0.6l0.6,0.5l0.6,0.5c3.4,3,6.2,6.4,9.3,9.7l0.3,0.3l0.2,0.2c0,0.1-0.1,0.1-0.2,0.2
			l-0.6,0.6l-1.2,1.2c-0.8,0.8-1.6,1.6-2.3,2.4C113.5,331.7,112.2,333.6,111.1,335.5c0,0.1-0.1,0.2-0.1,0.2S111.1,335.6,111.1,335.5
			z"/>
		<path class="st6" d="M172.3,422c-1-9.1-3-18-5.9-26.7c-2.8-8.7-7.4-16.8-13.4-23.7c-6.1-6.8-12.8-13-20.1-18.5
			c-3.6-2.8-7.3-5.5-11.1-8.1s-7.6-5.1-11.1-8c-0.1-0.1-0.1-0.1-0.1-0.1c0,0,0.1,0,0.1,0.1c3.6,2.8,7.5,5.2,11.3,7.8s7.5,5.2,11.2,8
			c7.4,5.5,14.1,11.7,20.1,18.6c6,7,10.5,15.1,13.3,23.8C169.5,403.9,171.4,412.9,172.3,422c0.1,0.1,0.1,0.1,0.1,0.2
			C172.4,422.1,172.4,422.1,172.3,422z"/>
		<path class="st6" d="M171.1,657.3c-0.2-23.8,0.1-47.5,0.3-71.2l0.7-71.2c0.2-23.8,0.3-47.5,0.2-71.2c-0.1-5.9-0.1-11.9-0.2-17.8
			s-0.3-11.9-0.9-17.8c-0.2-3-0.2-5.9,0-8.9c0.1-1.5,0.1-3,0.1-4.5l-0.2-4.4c-0.2-5.9,0-11.9-0.7-17.8v-0.4c0,0.1,0.1,0.2,0.1,0.4
			c0.8,5.9,0.7,11.9,0.9,17.8l0.2,4.5v4.5c-0.2,3-0.2,5.9,0,8.9c0.6,5.9,0.9,11.9,1,17.8s0.2,11.9,0.3,17.8
			c0.1,23.8-0.1,47.5-0.4,71.2l-0.9,71.2C171.3,609.8,170.9,633.6,171.1,657.3c0,0.1,0,0.3,0,0.4C171,657.6,171,657.5,171.1,657.3z"
			/>
		<path class="st6" d="M200.2,285.6c-1.1,1.4-2.4,2.7-3.9,3.8c-1.4,1.1-2.8,2.3-4.2,3.5c-1.4,1.2-2.8,2.3-4.4,3.2l-0.4,0.2l-0.1,0.1
			l-0.1-0.1l-0.2-0.2l-0.5-0.5c-0.3-0.3-0.6-0.7-0.9-1c-0.6-0.7-1.2-1.4-1.8-2.1c-2.3-2.8-4.3-5.8-6.5-8.7c-2.1-2.9-4.6-5.6-7.4-7.8
			V276h0.1c3,2.1,5.6,4.7,7.8,7.6c2.2,2.9,4.2,5.9,6.4,8.8c0.6,0.7,1.1,1.4,1.7,2.1c0.3,0.4,0.6,0.7,0.9,1l0.5,0.5
			c0.1,0.1,0.1,0.1,0.3-0.1c1.5-1,3-2,4.4-3.1c1.4-1.1,2.8-2.3,4.2-3.4C197.8,288.2,199.1,287,200.2,285.6L200.2,285.6
			C200.3,285.6,200.2,285.6,200.2,285.6z"/>
		<path class="st6" d="M203,361.7c4.7-4.4,9.1-9.1,13.4-14c2.1-2.4,4.3-4.9,6.4-7.3l6.2-7.3l-0.6-0.5l-0.7-0.6
			c-0.5-0.4-1-0.8-1.5-1.1c-1-0.7-2.1-1.4-3.1-2c-1.1-0.6-2.2-1.2-3.3-1.8c-0.6-0.3-1.1-0.5-1.7-0.8l-0.9-0.3l-1.2-0.4l2.6-1.6
			l2.3-1.4c1.5-1,3.1-1.9,4.6-2.9c1.5-1,3-2,4.5-3c0.8-0.4,1.4-1.1,1.8-1.8c0.3-0.8,0.3-1.7-0.1-2.5c-1.2-2.9-2.7-5.7-4.2-8.4
			s-3.1-5.5-4.6-8.2c-3.1-5.5-6.4-10.9-9.7-16.2s-6.6-10.7-10-16c-1.7-2.7-3.4-5.3-5.2-7.9c-0.9-1.3-1.8-2.6-2.7-3.9
			c-0.8-1.4-1.8-2.6-3-3.6c-0.1-0.1-0.2-0.1-0.2-0.1c0.1,0,0.1,0,0.2,0.1c1.2,1,2.2,2.2,3.1,3.6c0.9,1.3,1.8,2.6,2.7,3.9
			c1.8,2.6,3.6,5.2,5.3,7.9c3.5,5.3,6.8,10.6,10.1,16c3.3,5.4,6.5,10.8,9.7,16.3c1.6,2.7,3.1,5.5,4.6,8.3s2.9,5.6,4.2,8.5
			c0.4,0.9,0.4,1.9,0.1,2.8c-0.5,0.8-1.2,1.5-2,2c-1.5,1-3,2-4.5,3c-1.5,1-3.1,2-4.6,2.9l-2.3,1.4l-2.1,1.2l0.6,0.2l0.9,0.4
			c0.6,0.2,1.2,0.5,1.7,0.8c1.1,0.5,2.2,1.1,3.3,1.8s2.1,1.3,3.2,2.1l1.5,1.1l0.7,0.6l0.8,0.7l-6.4,7.5c-2.1,2.5-4.2,4.9-6.4,7.3
			c-4.3,4.8-8.8,9.5-13.5,13.9c-0.1,0.1-0.2,0.1-0.2,0.1S202.9,361.8,203,361.7z"/>
		<path class="st6" d="M82.3,290.4c8.3-2.1,16.5-4.9,24.5-8.2c4-1.6,7.9-3.3,11.9-5s7.9-3.4,11.9-5h0.1l-0.1,0
			c-3.9,1.9-7.8,3.6-11.7,5.4s-7.9,3.4-11.9,4.9C98.9,285.8,90.7,288.5,82.3,290.4L82.3,290.4C82.2,290.5,82.3,290.4,82.3,290.4z"/>
		<path class="st6" d="M253,288.7c-2.9-1.8-6.2-2.5-9.4-3.2l-9.8-2.1c-3.3-0.7-6.5-1.4-9.8-2.2s-6.5-1.6-9.7-2.5h0.1
			c3.3,0.6,6.6,1.3,9.8,2s6.5,1.5,9.8,2.3l9.8,2.3C246.9,286.1,250.2,286.9,253,288.7C253.1,288.7,253.1,288.7,253,288.7
			C253,288.8,253,288.7,253,288.7z"/>
		<path class="st6" d="M249.8,287.4c2.2,0.3,4.2,1.5,5.6,3.3c1.3,1.8,2.4,3.7,3.1,5.8c0.7,2.1,1.3,4.2,1.7,6.4l1.4,6.5
			c1.9,8.6,3.7,17.3,5.4,25.9c3.5,17.3,6.7,34.7,9.6,52.1c2.9,17.4,5.6,34.9,8,52.4c1.1,8.8,2.3,17.5,3.3,26.3s2.1,17.5,2.6,26.4
			v0.3c0-0.1,0-0.2,0-0.3c-0.6-8.8-1.8-17.6-2.9-26.3s-2.2-17.5-3.4-26.3c-2.4-17.5-5-34.9-7.9-52.4s-6-34.8-9.4-52.1
			c-1.7-8.7-3.5-17.3-5.3-25.9l-1.5-6.5c-0.4-2.2-1-4.3-1.7-6.4c-0.7-2.1-1.7-4.1-3-5.8C254,288.9,252,287.7,249.8,287.4
			c0,0-0.1,0-0.2,0C249.6,287.3,249.7,287.3,249.8,287.4z"/>
		<path class="st6" d="M82.9,290.4c-1.4,0.4-2.6,1-3.7,1.9c-1,1-1.8,2.2-2.4,3.5c-0.6,1.3-1.1,2.6-1.7,3.9s-1.2,2.5-1.8,3.9
			c-1.1,2.6-2,5.3-2.8,8c-0.7,2.7-1.3,5.5-1.8,8.3c-0.9,5.6-1.4,11.2-2,16.9c-0.3,2.8-0.6,5.6-0.9,8.5l-1.1,8.4
			c-3,22.5-5.6,45-9.2,67.4c-1.8,11.2-3.7,22.4-6.5,33.4c-1.4,5.5-3.1,10.9-4.5,16.4s-2.9,11-4.3,16.4c-2.7,11-5.2,22.1-7.5,33.2
			c-2.2,11.1-4.3,22.3-5.8,33.5c0,0.2-0.1,0.4-0.1,0.3c0-0.1,0-0.2,0-0.3c1.4-11.2,3.4-22.4,5.5-33.6s4.7-22.2,7.3-33.2
			c1.4-5.5,2.8-11,4.3-16.5s3.1-10.9,4.6-16.4c2.8-11,4.8-22.1,6.6-33.3c3.6-22.4,6.3-44.9,9.3-67.4l1.2-8.4
			c0.3-2.8,0.7-5.6,0.9-8.5c0.6-5.6,1.1-11.3,2-16.9c0.5-2.8,1.1-5.6,1.8-8.3c0.8-2.7,1.7-5.4,2.8-8c0.6-1.3,1.2-2.6,1.8-3.8
			s1.2-2.6,1.7-3.9c0.5-1.3,1.3-2.5,2.4-3.5C80.1,291.4,81.4,290.7,82.9,290.4c0-0.1,0.1-0.1,0.3-0.1
			C83.1,290.3,83,290.4,82.9,290.4z"/>
		<path class="st6" d="M27.5,547.7c-0.8,5.3-0.6,10.8-1,16.2s-0.8,10.8-1.3,16.2s-1,10.8-1.6,16.1l-1.7,16.1l0,0
			c0.3-5.4,0.8-10.8,1.3-16.2s1.2-10.7,1.7-16.1s1.1-10.7,1.5-16.1S26.6,553.1,27.5,547.7L27.5,547.7
			C27.5,547.7,27.5,547.7,27.5,547.7z"/>
		<path class="st6" d="M36.4,609.3c-2.6,1.2-5.3,2.2-8.1,3c-1.4,0.3-2.9,0.5-4.3,0.4h-2l0.3-0.2l0.9-0.8l0.8-0.8c2.1-2,4.1-4,6.2-6
			s4.2-3.9,6.4-5.8c2.1-2,4.6-3.5,7.3-4.6c1.4-0.5,2.8-0.8,4.2-1c1.4-0.3,2.8-0.5,4.2-0.8c2.8-0.6,5.7-0.8,8.6-0.6
			c1.4,0.1,2.9,0.4,4.3,0.8c0.7,0.2,1.4,0.5,2,0.8c0.7,0.2,1.3,0.7,1.7,1.3v0.1l-0.1-0.1c-0.4-0.6-1-1-1.7-1.3
			c-0.6-0.3-1.3-0.5-2-0.7c-1.4-0.3-2.8-0.6-4.2-0.7c-2.9-0.1-5.7,0.1-8.5,0.7l-4.2,0.8c-1.4,0.2-2.8,0.5-4.2,1
			c-2.7,1-5.1,2.5-7.2,4.4c-2.2,1.9-4.2,3.9-6.5,5.7s-4.2,3.9-6.3,5.9l-1.5,1.4l-0.1,0.1H24c1.4,0.1,2.9,0,4.3-0.3
			c2.8-0.8,5.5-1.7,8.1-2.9h0.1C36.5,609.2,36.5,609.3,36.4,609.3z"/>
		<path class="st6" d="M61.8,522l12.5,15.8l3.1,4c1.1,1.3,2,2.7,2.7,4.3c0.5,1.7,0.3,3.4-0.3,5c-0.5,1.6-1.1,3.2-1.7,4.8
			c-2.3,6.3-5,12.5-6.3,19.1c-1.3,6.6-2.1,13.3-2.3,20v0.1c0,0,0-0.1,0-0.1c0-6.7,0.6-13.5,1.9-20.1c1.3-6.6,4.2-12.8,6.5-19.1
			c0.6-1.6,1.1-3.2,1.7-4.8c0.7-1.5,0.8-3.2,0.4-4.8c-0.6-1.5-1.5-2.9-2.7-4.1l-3.1-4L61.8,522c0,0-0.1-0.1,0-0.1L61.8,522z"/>
		<path class="st6" d="M97.9,452.6C92.5,465.9,87.4,479.3,83,493c-2.2,6.8-4.2,13.7-6,20.7c-1.8,6.9-3.5,13.9-5,21l0,0
			c1.2-7.1,2.8-14.1,4.5-21.1s3.9-13.8,6.1-20.7C87.2,479.3,92.4,465.9,97.9,452.6C97.9,452.6,97.9,452.5,97.9,452.6
			C98,452.5,97.9,452.5,97.9,452.6z"/>
		<path class="st6" d="M83.3,355c3,14,6,28.1,8.6,42.2c2.6,14.1,4.4,28.4,5.5,42.8c0.5,7.2,0.7,14.4,0.6,21.5s-0.4,14.4-0.8,21.5
			c-0.7,14.3-1.5,28.7-2.3,43v0.2c0-0.1,0-0.1,0-0.2c0.6-14.4,1.2-28.7,1.8-43c0.3-7.2,0.6-14.4,0.8-21.5s-0.1-14.4-0.5-21.5
			c-1-14.3-2.7-28.6-5.3-42.7C89.2,383.1,86.2,369,83.3,355c-0.1-0.1-0.1-0.2,0-0.2C83.2,354.8,83.2,354.8,83.3,355z"/>
		<path class="st6" d="M231.6,517.7c-1.7-27.2-1.6-54.4,0.3-81.6c1-13.6,2.3-27.1,4.2-40.6s4.2-26.9,7.1-40.2c0-0.1,0.1-0.2,0.1-0.2
			c0,0.1,0,0.1,0,0.2c-2.6,13.4-4.9,26.8-6.7,40.2s-3.3,27-4.3,40.6C230.4,463.3,230.1,490.5,231.6,517.7c0.1,0.1,0.1,0.1,0.1,0.2
			C231.7,517.9,231.6,517.8,231.6,517.7z"/>
		<path class="st6" d="M251.5,477.2c-0.8,0.4-1.8,0.4-2.6-0.1c-0.8-0.4-1.4-1.1-1.7-1.9c-0.4-0.8-0.6-1.7-0.8-2.5l-0.5-2.6
			c-0.7-3.4-1.3-6.9-2-10.3c-1.3-6.9-2.5-13.8-3.5-20.8c-1.1-6.9-2-13.9-2.8-20.9s-1.3-14-1.7-21l0,0c0.6,7,1.3,14,2.1,20.9
			s1.7,13.9,2.7,20.9s2.1,13.9,3.3,20.8c0.6,3.5,1.2,6.9,1.9,10.4l0.5,2.6c0.1,0.9,0.4,1.7,0.7,2.5c0.3,0.8,0.9,1.5,1.7,1.9
			C249.8,477.6,250.7,477.6,251.5,477.2L251.5,477.2L251.5,477.2z"/>
		<path class="st6" d="M210.7,534.2c6.3-5,12.8-9.6,19-14.7c3.1-2.5,6.1-5.2,8.9-8c1.4-1.4,2.8-2.9,4.1-4.4s2.8-3,3.2-4.9
			c0.2-0.9-0.1-1.9-0.8-2.6c-0.7-0.7-1.6-1.2-2.3-2c-0.7-0.8-0.9-1.9-0.7-3c0.2-1,0.5-2,0.9-2.9c1.4-3.8,3.1-7.4,5-11
			c3.7-7.1,8.3-13.7,13.6-19.8c0-0.1,0.1-0.1,0.1-0.1c0,0,0,0.1-0.1,0.1c-7.6,9.3-13.8,19.8-18.1,31c-0.4,0.9-0.7,1.8-0.9,2.8
			c-0.2,0.9,0,1.9,0.6,2.6c0.6,0.7,1.5,1.2,2.2,2c0.8,0.8,1.1,1.9,0.9,2.9c-0.5,2.1-2,3.6-3.3,5s-2.7,2.9-4.2,4.4
			c-2.9,2.8-5.9,5.4-9,8c-6.2,5-12.8,9.7-19.1,14.6l-0.1,0.1C210.7,534.4,210.7,534.2,210.7,534.2z"/>
		<path class="st6" d="M222.9,567.7c1.4,2,2.9,4,4.4,5.8c0.8,1,1.6,1.9,2.4,2.7c0.1,0.1,0.2,0.2,0.3,0.3l0.1,0.1c0,0,0.1,0.1,0.1,0
			l0.1-0.3l0.1-0.4c0.1-0.6,0.1-1.2,0.1-1.8c-0.1-2.4-1.1-4.7-1.8-7s-1.5-4.6-2.3-6.9c-1.5-4.6-3.4-9.1-5.6-13.4
			c-1.1-2.2-2.4-4.2-3.8-6.2c-1.5-2-3.1-3.8-4.9-5.4c0,0-0.1-0.1,0-0.1h0.1c1.9,1.6,3.6,3.3,5.1,5.3c1.5,1.9,2.8,4,4,6.2
			c2.3,4.4,4.1,8.9,5.6,13.6c0.8,2.3,1.5,4.6,2.2,7c0.9,2.3,1.5,4.7,1.7,7.1c0,0.6,0,1.2-0.1,1.8l-0.1,0.5l-0.2,0.5
			c0,0.2-0.1,0-0.2,0l-0.2-0.2c-0.1-0.1-0.2-0.2-0.4-0.3c-0.9-0.9-1.7-1.8-2.4-2.8c-1.5-1.9-2.9-3.9-4.3-5.9V567.7
			C222.9,567.7,222.8,567.6,222.9,567.7z"/>
		<path class="st6" d="M212.6,535.5c-0.4-0.4-1-0.8-1.6-0.9c-0.3-0.1-0.6-0.1-0.9-0.1h-0.1v0.6c-0.1,1.3,0,2.5,0.1,3.8
			c0.2,1.2,0.4,2.4,0.8,3.6c0.3,1.2,0.7,2.4,1.1,3.6l0,0c-0.7-1.1-1.3-2.2-1.7-3.4c-0.4-1.2-0.6-2.5-0.7-3.8c-0.1-1.3-0.1-2.5,0-3.8
			l0.1-0.5v-0.2c0,0,0-0.1,0.1-0.1h0.3c0.3,0,0.6,0.1,0.9,0.2C211.6,534.6,212.2,535,212.6,535.5L212.6,535.5L212.6,535.5z"/>
		<path class="st6" d="M290.1,491.3c0.8,2.1,0.8,4.4,0,6.5c-0.8,2.1-1.8,4-3.1,5.8c-2.4,3.7-4.9,7.3-7.3,10.9
			c-4.9,7.3-10,14.5-15.1,21.6c-5.1,7.1-10.3,14.2-15.6,21.2c-2.7,3.5-5.3,7-8.2,10.3c-2.9,3.4-6.2,6.3-10,8.6h-0.1
			c0,0,0-0.1,0.1-0.1c3.7-2.4,6.9-5.4,9.7-8.8c2.8-3.3,5.4-6.9,8-10.4c5.3-7,10.5-14,15.7-21.1s10.2-14.3,15.2-21.5
			c2.5-3.6,5-7.2,7.4-10.9c1.3-1.8,2.3-3.7,3.1-5.8C290.8,495.6,290.8,493.3,290.1,491.3l-0.1-0.2
			C290,491.2,290.1,491.3,290.1,491.3z"/>
		<path class="st6" d="M231,672.9c0.4-16.1,0.8-32.3,1-48.4l0.2-24.2l0.2-24.2v-0.1c0,0,0,0.1,0,0.1c0.2,8.1,0.2,16.1,0.3,24.2
			s-0.1,16.1-0.3,24.2C232,640.6,231.5,656.7,231,672.9c0,0,0,0.1,0,0.1C231,673,231,672.9,231,672.9z"/>
		<path class="st6" d="M223.7,656.7l-0.2-18.9l-0.5-18.9c-0.2-6.3-0.4-12.6-0.5-18.9s-0.2-12.6-0.2-18.9l0,0
			c0.3,6.3,0.4,12.6,0.6,18.9s0.2,12.6,0.4,18.9l0.3,18.9L223.7,656.7L223.7,656.7L223.7,656.7z"/>
		<path class="st6" d="M191.6,567.4c-2.5-0.7-5.1-1.1-7.7-1.1c-1.3,0-2.6,0.1-3.9,0.2c-0.3,0-0.7,0.1-0.8,0.1l0.2,0.3
			c0.1,0.1,0.1,0.3,0.2,0.4c0.3,0.6,0.7,1.1,1.1,1.6c1.8,1.9,3.7,3.6,5.9,5.1c2.1,1.5,4.4,2.8,6.8,3.9c4.8,2.1,9.7,3.9,14.7,5.3
			c2.5,0.8,5.1,1.2,7.6,1c2.6-0.2,5-1.5,6.7-3.5l0.1,0v0.1c-1.6,2.1-4,3.5-6.7,3.8c-2.6,0.3-5.3,0-7.8-0.8c-2.5-0.7-5-1.6-7.5-2.4
			c-2.5-0.9-4.9-1.9-7.3-3c-2.4-1.2-4.6-2.5-6.8-4c-2.2-1.5-4.2-3.2-5.9-5.2c-0.4-0.5-0.8-1.1-1.1-1.6l-0.2-0.4l-0.2-0.6
			c0.2,0,0.4-0.1,0.6-0.1l0.5-0.1c1.3-0.1,2.6-0.2,3.9-0.2C186.5,566.3,189.1,566.7,191.6,567.4l0.1,0L191.6,567.4z"/>
		<path class="st6" d="M216.1,577.5l2.5,1.4c0.4,0.2,0.8,0.5,1.2,0.8c0.4,0.3,0.8,0.6,1.1,1l0,0c-0.5-0.2-0.9-0.4-1.3-0.6
			c-0.4-0.3-0.8-0.5-1.2-0.8L216.1,577.5L216.1,577.5L216.1,577.5z"/>
		<path class="st6" d="M213.1,583.2c1.6-4,3.6-7.8,6-11.5c1.2-1.8,2.4-3.6,3.8-5.3c1.4-1.7,2.9-3.2,4.4-4.7l0,0
			c-1.4,1.6-2.8,3.3-4.1,5s-2.6,3.4-3.8,5.2C216.9,575.5,214.9,579.3,213.1,583.2L213.1,583.2C213.1,583.2,213.1,583.2,213.1,583.2z
			"/>
		<path class="st6" d="M189.2,575.8c0.5-3.8,2-7.3,4.4-10.3c2.3-3,4.8-5.8,7.6-8.4c2.7-2.7,5.4-5.3,8.1-7.9s5.5-5.2,8.3-7.7h0.1
			c0.1,0,0,0,0,0.1c-2.6,2.7-5.3,5.4-7.9,8s-5.4,5.2-8.1,7.8c-2.8,2.5-5.4,5.3-7.6,8.3C191.4,568.6,189.9,572.1,189.2,575.8
			L189.2,575.8C189.3,575.9,189.2,575.9,189.2,575.8z"/>
		<path class="st6" d="M179,566.7c-1.2,2.8-2,5.7-2.4,8.7c-0.4,3-0.6,6-0.8,9c-0.4,6-0.7,12-0.9,18.1s-0.2,12-0.2,18.1
			s0.1,12.1,0.2,18.1l0,0c-0.4-6-0.6-12-0.7-18.1s0.1-12.1,0.3-18.1s0.6-12,1-18.1c0.2-3,0.4-6,0.9-9
			C176.9,572.4,177.8,569.4,179,566.7c0-0.1,0-0.1,0-0.1C179,566.6,179,566.6,179,566.7z"/>
		<path class="st6" d="M43.9,672.9c-0.4-6-0.7-12-0.8-18c0-1.5,0-3,0.1-4.5s0-3,0-4.5c-0.1-3-0.3-6-0.5-9c-0.6-6-1.7-11.8-3.4-17.6
			c-1.6-5.8-3.6-11.4-5.6-17.1l0,0c2.2,5.6,4.3,11.2,6,17c1.7,5.8,2.8,11.7,3.3,17.7c0.2,3,0.3,6,0.4,9v4.5c0,1.5-0.1,3-0.1,4.5
			C43.4,660.9,43.7,666.9,43.9,672.9l0,0.1C44,673,43.9,673,43.9,672.9z"/>
		<path class="st6" d="M79.4,672.9c-3.1-6.3-6.1-12.7-9.4-18.9c-1.7-3.1-3.1-6.3-4.5-9.6c-1.2-3.3-2.3-6.7-3-10.2
			c-1.6-6.9-2.8-13.9-3.5-20.9c-0.3-3.5-0.4-7.1-0.1-10.6c0.2-3.5,1.1-7,2.6-10.2c0-0.1,0.1-0.1,0.1-0.1s0,0.1,0,0.1
			c-1.4,3.2-2.1,6.7-2.3,10.2c-0.2,3.5-0.1,7,0.2,10.5c0.7,7,1.9,14,3.4,20.8c0.7,3.4,1.7,6.8,2.9,10.1c1.3,3.3,2.7,6.5,4.4,9.6
			C73.5,660.1,76.4,666.5,79.4,672.9L79.4,672.9C79.5,673,79.4,673,79.4,672.9z"/>
		<path class="st6" d="M93.6,673c0.4-5.9,0.8-11.7,1.1-17.6l0.4-8.8c0.2-2.9,0.3-5.9,0.5-8.8l0,0c0.1,2.9,0,5.9,0,8.8
			s-0.3,5.9-0.5,8.8C94.7,661.3,94.2,667.1,93.6,673L93.6,673L93.6,673z"/>
		<path class="st6" d="M205.3,359.6c-6.8,6.2-13.7,12.3-20,19c-1.5,1.7-2.9,3.5-4.2,5.4l-1.9,2.9c-0.6,1-1.1,2-1.7,3
			c-2.2,4-4.2,8.2-6.4,12.2c-0.1,0.1-0.1-0.1,0,0l0,0c1.9-4.2,3.8-8.4,6-12.5c0.5-1,1.1-2,1.7-3s1.2-1.9,1.9-2.9
			c1.3-1.9,2.7-3.7,4.3-5.4C191.5,371.7,198.5,365.8,205.3,359.6l0.1,0C205.4,359.6,205.3,359.6,205.3,359.6z"/>
		<path class="st6" d="M176,297.2l3.3-2.6c0.6-0.4,1.1-0.9,1.6-1.3c0.6-0.4,1.2-0.7,1.8-1l0,0c-0.5,0.5-1,1-1.6,1.4
			c-0.5,0.4-1.1,0.8-1.7,1.2L176,297.2L176,297.2L176,297.2z"/>
		<path class="st6" d="M172.8,317.9c0.4-3.7,0.9-7.3,1.5-10.9c0.3-1.8,0.6-3.6,1.1-5.4s0.9-3.6,1.5-5.3l0,0
			c-0.3,1.8-0.7,3.6-1.1,5.4l-1.2,5.4C173.9,310.6,173.3,314.3,172.8,317.9L172.8,317.9z"/>
		<path class="st6" d="M183.5,351.5c-1.4-5.8-3-11.6-4.9-17.3c-0.9-2.8-2-5.6-3-8.5s-2.1-5.6-3.1-8.4v-0.1l0,0
			c1.3,2.7,2.4,5.5,3.5,8.3s2,5.6,2.9,8.5C180.7,339.8,182.2,345.6,183.5,351.5L183.5,351.5C183.5,351.5,183.5,351.6,183.5,351.5z"
			/>
		<path class="st6" d="M157.4,286.5c0.9-0.2,1.8-0.2,2.6,0.1c0.9,0.2,1.7,0.3,2.6,0.4c1.7,0.2,3.5,0.3,5.3,0.2
			c1.8-0.1,3.5-0.1,5.3-0.1s3.5-0.1,5.3,0l0,0c-1.8,0.2-3.5,0.3-5.3,0.5s-3.5,0-5.3,0c-1.8,0-3.5-0.1-5.3-0.4
			c-0.9-0.1-1.7-0.3-2.6-0.5C159.2,286.3,158.3,286.2,157.4,286.5L157.4,286.5C157.4,286.4,157.4,286.5,157.4,286.5z"/>
		<path class="st6" d="M160.1,292.5c-0.7-0.6-1.4-1.1-2.1-1.6c-0.4-0.2-0.8-0.5-1.1-0.7c-0.4-0.3-0.7-0.6-1-0.9l0,0
			c0.4,0.1,0.9,0.3,1.3,0.5c0.4,0.2,0.7,0.5,1.1,0.8C158.8,291.2,159.5,291.8,160.1,292.5L160.1,292.5z"/>
		<path class="st6" d="M162.4,323.1l-1.3-15.4c-0.2-2.6-0.5-5.1-0.6-7.7s-0.3-5.1-0.3-7.7l0,0c0.3,2.6,0.6,5.1,0.8,7.7
			s0.4,5.1,0.5,7.7L162.4,323.1L162.4,323.1L162.4,323.1z"/>
		<path class="st6" d="M156.5,345.8l2.9-12c0.5-2,1-4,1.5-6s1.1-4,1.8-5.9l0,0c-0.4,2-0.9,4-1.4,6s-1.1,4-1.6,6L156.5,345.8
			L156.5,345.8L156.5,345.8z"/>
		<path class="st6" d="M169.7,275.9c0.4-0.1,0.8-0.1,1.2-0.2c0.4-0.1,0.8-0.3,1.1-0.6l1.9-1.6c1.2-1.1,2.5-2.2,3.7-3.4
			c2.4-2.3,4.8-4.6,7.1-7s4.4-4.9,6.6-7.5c1-1.3,2.2-2.5,2.7-4.1c0.2-0.8,0.2-1.6-0.1-2.3c-0.3-0.8-0.9-1.4-1.6-1.7l0,0
			c0.8,0.2,1.5,0.8,1.9,1.5c0.4,0.8,0.5,1.7,0.3,2.5c-0.5,1.7-1.7,2.9-2.7,4.3c-2.1,2.6-4.3,5.1-6.7,7.5c-2.3,2.4-4.8,4.7-7.2,6.9
			c-1.2,1.1-2.5,2.2-3.8,3.3l-1.9,1.6c-0.3,0.3-0.7,0.5-1.1,0.6C170.6,275.8,170.2,275.9,169.7,275.9L169.7,275.9L169.7,275.9z"/>
		<path class="st6" d="M145.3,250.7c-0.9,1-1.7,2.2-2.2,3.4c-0.6,1.2-1.1,2.5-1.6,3.8c-1,2.6-1.9,5.2-2.6,7.8
			c-1.3,5.3-2,10.8-2,16.3c-0.1,2.7-0.1,5.5,0.1,8.2c0.3,2.7,0.8,5.4,1.4,8.1c1.3,5.3,3,10.6,4.9,15.7c3.7,10.4,7.8,20.5,12.4,30.6
			s9.5,19.8,14.8,29.5c0,0,0.1,0.1,0.1,0.2c0,0-0.1-0.1-0.1-0.1c-5.6-9.5-10.6-19.3-15.2-29.3s-8.6-20.2-12.3-30.6
			c-1.9-5.2-3.5-10.4-4.8-15.8c-0.6-2.7-1.1-5.4-1.4-8.1c-0.2-2.8-0.2-5.5-0.1-8.3c0-5.5,0.7-11,2.1-16.3c0.7-2.7,1.6-5.3,2.7-7.8
			c0.5-1.3,1-2.6,1.7-3.8C143.5,252.9,144.3,251.7,145.3,250.7c0-0.1,0.1-0.2,0.1-0.1S145.4,250.6,145.3,250.7z"/>
		<path class="st6" d="M168.9,276c-0.6,0.2-1.1,0.4-1.6,0.8c-0.5,0.4-0.9,0.8-1.3,1.2c-0.9,0.7-1.8,1.5-2.6,2.4
			c-1.4,1.9-3,3.6-4.6,5.4s-3.2,3.5-4.9,5.1s-3.4,3.2-5.2,4.7l0,0c1.6-1.7,3.3-3.4,4.9-5l4.9-5c1.6-1.7,3.2-3.4,4.7-5.2
			c0.8-0.8,1.7-1.6,2.7-2.3c0.4-0.4,0.9-0.8,1.3-1.1C167.8,276.5,168.3,276.2,168.9,276L168.9,276L168.9,276z"/>
		<path class="st6" d="M168.9,276c-0.6,0.2-1.1,0.4-1.6,0.7c-0.5,0.4-0.9,0.7-1.3,1.1c-0.9,0.7-1.8,1.5-2.6,2.3
			c-1.4,1.9-3.1,3.6-4.7,5.3c-3.3,3.3-6.5,6.7-9.8,10.1l0,0l-0.1-0.1h-0.1l-0.1-0.1l0.1-0.1l0.2-0.1l0.3-0.3l0.6-0.6l1.3-1.2
			l2.6-2.4l4.9-5.1c1.6-1.7,3.2-3.4,4.6-5.3c0.8-0.9,1.7-1.7,2.6-2.4c0.4-0.4,0.9-0.8,1.3-1.2C167.7,276.5,168.3,276.2,168.9,276
			L168.9,276c-0.6,0.3-1.1,0.6-1.6,0.9c-0.5,0.4-0.8,0.8-1.3,1.2c-0.9,0.7-1.8,1.5-2.5,2.4c-1.4,1.9-2.9,3.7-4.5,5.4
			c-1.6,1.7-3.2,3.4-4.9,5.1l-2.6,2.4l-1.3,1.2l-0.6,0.6l-0.3,0.3l-0.2,0.1l-0.1,0.1c0,0-0.1,0.1-0.1,0.1c-0.1,0-0.2,0-0.3-0.1
			c0,0,0,0,0,0c0-0.1,0-0.2,0.1-0.2c3.3-3.3,6.6-6.7,9.9-10c1.6-1.7,3.3-3.4,4.7-5.2c0.8-0.8,1.7-1.6,2.7-2.3
			c0.4-0.4,0.9-0.8,1.3-1.1C167.8,276.4,168.3,276.1,168.9,276L168.9,276L168.9,276C168.9,276.1,168.9,275.9,168.9,276z"/>
		<path class="st6" d="M138.1,283l5.2,6.1c0.9,1,1.7,2,2.6,3.1s1.6,2.1,2.3,3.2l0,0c-0.9-0.9-1.8-2-2.7-3s-1.7-2.1-2.5-3.1
			L138.1,283z"/>
		<path class="st6" d="M138.1,283c3.3,4.1,6.6,8.4,10.1,12.4l0,0l-0.1,0.1l0,0l-0.1-0.1l-0.1-0.2l-0.3-0.4l-0.6-0.8l-1.2-1.6
			l-2.6-3.1C141.5,287.3,139.8,285.2,138.1,283L138.1,283L138.1,283c1.9,2,3.7,4,5.4,6c0.9,1,1.7,2,2.6,3.1l1.2,1.6l0.6,0.8l0.3,0.4
			l0.1,0.2l0.1,0.1l0,0l0.1,0.1c0,0.1,0,0.2-0.1,0.3c-0.1,0-0.2,0-0.2-0.1l-2.7-3l-2.5-3.2C141.3,287.3,139.6,285.2,138.1,283
			L138.1,283L138.1,283z"/>
		<path class="st6" d="M170.3,275.9c-0.9,0.2-1.7,0.1-2.6-0.1c-0.8-0.3-1.6-0.7-2.3-1.2c-1.5-0.9-2.9-1.9-4.2-3
			c-2.5-2.3-5.2-4.5-7.8-6.8c-2.7-2.3-4.9-5-6.7-8c-0.4-0.8-0.8-1.6-1.1-2.4c-0.3-0.8-0.5-1.7-0.5-2.6c0-1.8,0.7-3.5,2.1-4.6h0.1
			c0,0,0,0,0,0.1c-1.3,1.2-1.9,2.8-1.8,4.6c0.1,0.8,0.2,1.7,0.6,2.4c0.3,0.8,0.7,1.6,1.1,2.3c1.7,3,3.9,5.6,6.5,7.9
			c2.5,2.4,5.2,4.5,7.7,6.9c1.3,1.1,2.7,2.2,4.1,3.1c0.7,0.5,1.5,0.9,2.3,1.2C168.6,276,169.5,276,170.3,275.9L170.3,275.9
			L170.3,275.9z"/>
		<path class="st6" d="M170.3,275.8c-0.9,0.2-1.7,0.1-2.6-0.1c-0.8-0.3-1.6-0.8-2.3-1.2c-1.5-0.9-2.9-1.9-4.2-3.1
			c-2.5-2.4-5.2-4.5-7.7-6.9c-2.6-2.3-4.8-5-6.6-8l-1.1-2.4c-0.3-0.8-0.5-1.7-0.6-2.6c0-0.9,0.2-1.8,0.5-2.6
			c0.2-0.4,0.4-0.8,0.7-1.1l0.4-0.5l0.2-0.2l0.1,0.1h0.1c0,0,0,0.1,0,0.1l0,0l-0.1,0.1c-1.3,1.1-2,2.7-1.9,4.4
			c0,0.8,0.2,1.7,0.6,2.4l1.1,2.3c1.7,3,3.9,5.6,6.6,7.9c2.5,2.3,5.2,4.5,7.8,6.9c1.3,1.1,2.7,2.2,4.1,3.1c0.7,0.5,1.5,0.9,2.2,1.2
			c0.8,0.3,1.7,0.3,2.5,0.2l0,0c-0.9,0.2-1.7,0.2-2.6-0.1c-0.8-0.3-1.6-0.7-2.3-1.2c-1.5-0.9-2.9-1.9-4.2-3
			c-2.6-2.3-5.3-4.4-7.9-6.8c-2.7-2.3-4.9-5-6.7-8l-1.1-2.4c-0.3-0.8-0.5-1.7-0.6-2.6c-0.1-1.8,0.7-3.6,2.1-4.8l0.1-0.1
			c0,0,0.1-0.1,0.2-0.1c0,0,0.2,0,0.2,0.2c0,0,0,0.1,0,0.1c0,0,0,0.1-0.1,0.1l-0.2,0.2c-0.1,0.2-0.3,0.3-0.4,0.5
			c-0.3,0.3-0.5,0.7-0.6,1.1c-0.4,0.8-0.5,1.6-0.5,2.4c0,0.8,0.2,1.7,0.5,2.5l1.1,2.3c1.7,3,3.9,5.7,6.4,8c2.5,2.4,5.2,4.6,7.7,7
			c1.3,1.2,2.7,2.2,4.1,3.1c0.7,0.5,1.5,0.9,2.3,1.2c0.8,0.2,1.7,0.3,2.6,0.1h0.1c0.1,0,0,0,0,0l0,0
			C170.3,275.7,170.4,275.8,170.3,275.8z"/>
		<path class="st6" d="M194.4,250.1c1.8,2.1,3.2,4.5,4.2,7.1c0.5,1.3,0.9,2.6,1.3,3.9c0.3,1.4,0.6,2.7,0.8,4
			c0.4,2.7,0.7,5.5,0.7,8.2c0.1,2.8,0,5.5-0.2,8.3c-0.3,5.5-1.2,11-2,16.4s-1.7,10.9-2.7,16.3c-2,10.9-4.9,21.5-8.8,31.9
			c-1,2.6-2.2,5.1-3.6,7.5l-4.6,6.9l-4.6,6.9c-1.6,2.3-3.1,4.5-4.5,6.9c-0.1,0.1-0.1,0.1-0.1,0.1c0-0.1,0-0.1,0.1-0.2
			c1.3-2.4,2.8-4.7,4.3-7l4.5-7l4.5-6.9c1.4-2.4,2.5-4.9,3.5-7.4c3.9-10.3,6.8-20.9,8.9-31.7c1.1-5.4,2-10.8,2.8-16.3
			s1.8-10.9,2.1-16.4c0.2-2.7,0.3-5.5,0.2-8.2c0-2.8-0.3-5.5-0.7-8.2c-0.2-1.4-0.5-2.7-0.8-4c-0.3-1.3-0.8-2.6-1.2-3.9
			C197.6,254.6,196.2,252.2,194.4,250.1c-0.1,0-0.1-0.1-0.1-0.1C194.4,250,194.4,250,194.4,250.1z"/>
		<path class="st6" d="M194.4,250.1c1.8,2.1,3.2,4.5,4.2,7.1c0.5,1.3,0.9,2.6,1.3,3.9l0.8,4.1c0.4,2.7,0.7,5.5,0.7,8.2
			c0.1,2.8,0,5.5-0.2,8.3c-0.9,11-3.1,21.8-4.9,32.7c-2,10.8-5,21.5-8.9,31.8c-0.9,2.6-2.1,5.1-3.5,7.5l-4.5,7l-4.4,7
			c-1.5,2.3-3,4.6-4.3,7h-0.2l-0.1-0.1l0,0l0.1-0.1l0.1-0.2l0.3-0.5l0.5-0.9c0.4-0.6,0.7-1.2,1.1-1.8c0.8-1.2,1.5-2.3,2.3-3.4
			l4.6-6.9l4.5-6.9c1.4-2.3,2.6-4.8,3.6-7.4c3.9-10.3,6.8-20.9,8.8-31.8c1.8-10.9,4-21.7,4.9-32.6c0.2-2.8,0.3-5.5,0.2-8.2
			c0-2.8-0.3-5.5-0.7-8.2c-0.2-1.4-0.5-2.7-0.8-4c-0.3-1.3-0.7-2.7-1.2-3.9c-0.9-2.6-2.3-5-4-7.1c-0.1-0.2-0.2-0.3-0.2-0.3
			c0.1,0.1,0.2,0.2,0.2,0.2c3.6,4.2,5.4,9.7,6.2,15.1c0.4,2.7,0.7,5.5,0.7,8.2c0.1,2.8,0,5.5-0.2,8.3c-0.8,11-3,21.8-4.7,32.7
			c-2,10.9-4.9,21.5-8.9,31.8c-1,2.6-2.2,5.1-3.6,7.5l-4.6,6.9l-4.6,6.9c-0.8,1.1-1.6,2.3-2.3,3.4c-0.4,0.6-0.8,1.1-1.1,1.7
			l-0.5,0.9l-0.2,0.5l-0.1,0.2l-0.1,0.1v0.1l-0.1,0.1c-0.1,0.1-0.3-0.3-0.3-0.2l0,0c1.3-2.4,2.8-4.8,4.3-7.1l4.5-7l4.5-6.9
			c1.4-2.4,2.6-4.9,3.5-7.4c3.9-10.4,6.9-21.1,8.9-32c1.8-10.8,4.1-21.7,5-32.6c0.2-2.7,0.3-5.5,0.2-8.2c0-2.8-0.3-5.5-0.7-8.2
			l-0.8-4c-0.3-1.3-0.8-2.6-1.2-3.9C197.6,254.7,196.2,252.3,194.4,250.1L194.4,250.1L194.4,250.1
			C194.4,250.1,194.5,250.1,194.4,250.1L194.4,250.1L194.4,250.1L194.4,250.1z"/>
		<path class="st6" d="M111.1,335.5c1-2,2.3-3.9,3.9-5.5c0.7-0.8,1.5-1.6,2.3-2.4l1.2-1.2l0.6-0.6c0,0,0.1-0.1,0.1-0.1l-0.1-0.1
			l-0.3-0.3c-3.1-3.2-6-6.6-9.4-9.6l-0.7-0.5l-0.7-0.6l0,0v-0.1l0.1-0.1l0.1-0.2l0.2-0.4l0.4-0.7l1.7-2.9c1.2-1.9,2.3-3.8,3.5-5.7
			c2.4-3.8,4.8-7.5,7.1-11.4c2.2-3.9,4.3-7.9,6-12c0.4-1,0.9-2.1,1.3-3.1s0.8-2.1,1.2-3.1c0.4-1.1,0.8-2.1,1.3-3.1c0.5-1,1-2,1.5-3
			l3.2-5.9c1.1-2,2.2-3.9,3.1-6c0.9-2.1,1.9-4,3.2-5.9c1.3-1.9,3.1-3.3,5.2-4.1c0.1,0,0.1,0,0.1,0s-0.1,0-0.1,0.1
			c-2.1,0.8-3.9,2.3-5.1,4.2c-1.2,1.9-2.3,3.8-3.1,5.9c-0.9,2.1-2,4-3,6l-3.2,5.9c-0.5,1-1,2-1.5,3c-0.5,1-0.9,2-1.3,3.1
			c-0.4,1.1-0.8,2.1-1.2,3.1s-0.9,2.1-1.3,3.1c-1.8,4.1-3.8,8.1-6.1,12c-2.3,3.9-4.8,7.6-7.2,11.4c-1.2,1.9-2.4,3.8-3.6,5.7
			l-1.8,2.8l-0.4,0.7c-0.1,0.2-0.2,0.4-0.3,0.6l0.6,0.5l0.6,0.5c3.4,3,6.2,6.4,9.3,9.7l0.3,0.3l0.2,0.2c0,0.1-0.1,0.1-0.2,0.2
			l-0.6,0.6l-1.2,1.2c-0.8,0.8-1.6,1.6-2.3,2.4C113.5,331.7,112.2,333.6,111.1,335.5c0,0.1-0.1,0.2-0.1,0.2S111.1,335.6,111.1,335.5
			z"/>
		<path class="st6" d="M111.1,335.5c1.9-3.8,5-6.8,8-9.7l0,0c0,0,0.1-0.1,0.1-0.1s0-0.1-0.1-0.1l-0.2-0.2l-0.5-0.5l-1-1.1l-2-2.2
			c-1.3-1.5-2.7-2.9-4.1-4.3c-0.7-0.7-1.4-1.4-2.2-2c-0.2-0.2-0.4-0.3-0.6-0.5l-0.3-0.3c-0.1-0.1,0.1-0.3,0.1-0.4l0.8-1.3
			c1-1.7,2-3.4,3.1-5.1l6.3-10l3.1-5c1-1.7,1.9-3.4,2.8-5.2c1.8-3.5,3.4-7.1,4.8-10.8l1.1-2.8c0.3-0.9,0.7-1.8,1.2-2.7
			c0.9-1.8,1.8-3.5,2.7-5.3c1.8-3.5,3.8-6.9,5.3-10.6c0.8-1.8,1.8-3.6,3-5.2c0.6-0.8,1.3-1.5,2.1-2.1c0.4-0.3,0.8-0.6,1.3-0.8
			c0.2-0.1,0.4-0.2,0.7-0.3l0.4-0.1l0.2-0.1h0.1l0.1,0.1c0.1,0.1,0.1,0,0.1,0.1c0,0.1,0,0.1,0,0.2h-0.1l-0.2,0.1
			c-0.1,0-0.3,0.1-0.4,0.1c-0.3,0.1-0.5,0.2-0.7,0.4c-0.5,0.3-0.9,0.6-1.4,0.9c-0.9,0.7-1.6,1.5-2.3,2.4c-1.3,1.8-2.4,3.8-3.2,5.8
			c-0.9,2.1-2,4-3.1,6l-3.2,5.9l-1.5,3c-0.5,1-0.9,2-1.3,3.1c-0.8,2.1-1.6,4.2-2.5,6.2c-1.7,4.1-3.7,8.1-6,12l-6.8,10.9l-3.4,5.4
			l-1.7,2.7l-0.8,1.4l-0.4,0.7l-0.2,0.4c0,0.1-0.1,0.1,0,0.1c1,0.8,2,1.7,3,2.6c1,0.9,1.9,1.9,2.8,2.8l2.7,2.9l1.3,1.5l0.7,0.7
			l0.3,0.4c0.1,0.1,0.1,0.2,0.2,0.2c0.1,0.1,0,0.2-0.1,0.3c-1.5,1.4-2.9,2.9-4.3,4.4c-1.4,1.5-2.6,3.2-3.5,5
			c-0.1,0.1-0.1,0.3-0.2,0.2c0-0.1,0.1-0.2,0.1-0.3c1.8-3.7,4.9-6.6,7.7-9.4c0,0,0.1-0.1,0.1-0.1l-0.1-0.1l-0.3-0.4l-0.7-0.7
			l-1.4-1.4l-2.7-2.9c-0.9-1-1.8-1.9-2.8-2.8c-1-0.9-2-1.8-3-2.6c-0.2-0.1-0.1-0.3,0-0.5l0.2-0.3l0.4-0.7l0.8-1.4
			c0.6-0.9,1.1-1.8,1.7-2.8l3.3-5.5l6.5-11c2.2-3.9,4.3-7.9,6-12c0.9-2.1,1.7-4.1,2.5-6.2c0.4-1.1,0.8-2.1,1.3-3.1l1.5-3l3.2-5.9
			c1.1-2,2.2-3.9,3.1-6c0.9-2.1,2-4.1,3.3-5.9c0.7-0.9,1.5-1.7,2.4-2.4c0.4-0.4,0.9-0.7,1.4-0.9c0.3-0.1,0.5-0.3,0.8-0.4l0.4-0.2
			l0.2-0.1h0.3c0-0.1,0.2,0.2,0.1,0.3c0,0,0,0.1-0.1,0.1c-0.1,0.1-0.3,0.1-0.4,0.2l-0.3,0.1l-0.6,0.3c-0.4,0.2-0.8,0.5-1.2,0.8
			c-0.7,0.6-1.4,1.3-2,2.1c-1.2,1.6-2.2,3.3-2.9,5.1c-1.5,3.7-3.5,7.1-5.3,10.6c-0.9,1.7-1.9,3.5-2.7,5.3c-0.5,0.9-0.9,1.8-1.2,2.7
			l-1.1,2.8c-1.4,3.7-3.1,7.3-4.9,10.8c-0.9,1.8-1.9,3.5-2.9,5.2l-3.2,5l-6.3,10c-1.1,1.7-2.1,3.4-3.1,5l-0.8,1.3l-0.1,0.1
			c0,0-0.1,0.1,0,0.1l0.3,0.2c0.2,0.1,0.4,0.3,0.6,0.5c0.8,0.6,1.5,1.3,2.2,2c1.4,1.4,2.8,2.8,4.1,4.3l2,2.2l1,1.1l0.5,0.5l0.3,0.3
			c0,0,0.1,0.1,0.1,0.2c0,0.1-0.1,0.1-0.2,0.1l0,0c-3,2.9-6.2,5.8-8,9.6C111.2,335.6,111.2,335.6,111.1,335.5L111.1,335.5
			L111.1,335.5L111.1,335.5L111.1,335.5L111.1,335.5L111.1,335.5z"/>
		<path class="st6" d="M172.3,422c-1-9.1-3-18-5.9-26.7c-2.8-8.7-7.4-16.8-13.4-23.7c-6.1-6.8-12.8-13-20.1-18.5
			c-3.6-2.8-7.3-5.5-11.1-8.1s-7.6-5.1-11.1-8c-0.1-0.1-0.1-0.1-0.1-0.1c0,0,0.1,0,0.1,0.1c3.6,2.8,7.5,5.2,11.3,7.8s7.5,5.2,11.2,8
			c7.4,5.5,14.1,11.7,20.1,18.6c6,7,10.5,15.1,13.3,23.8C169.5,403.9,171.4,412.9,172.3,422c0.1,0.1,0.1,0.1,0.1,0.2
			C172.4,422.1,172.4,422.1,172.3,422z"/>
		<path class="st6" d="M172.4,422c-1-9.1-2.9-18.1-5.8-26.8c-2.8-8.7-7.3-16.8-13.3-23.7c-6-6.9-12.8-13.1-20.1-18.5l-11.2-8
			c-3.8-2.6-7.7-4.9-11.3-7.8c0-0.1-0.1-0.1-0.2-0.1l0,0l0.1-0.1v-0.1l0.1-0.1l0,0l0.3,0.3l0.7,0.5c0.4,0.4,0.9,0.7,1.4,1
			c0.9,0.7,1.8,1.4,2.8,2l5.7,3.9l11.1,8c7.4,5.4,14.2,11.6,20.3,18.5c6.1,6.9,10.7,15,13.5,23.8c2.9,8.7,4.9,17.7,5.9,26.8
			c0,0.1,0,0.2,0,0.3c0-0.1-0.1-0.2-0.1-0.3c-1.1-9.1-3.1-18-6.1-26.6c-2.9-8.7-7.5-16.7-13.6-23.5c-6.1-6.8-12.9-13-20.2-18.4
			l-11.1-8l-5.6-3.9c-0.9-0.6-1.9-1.3-2.8-2c-0.5-0.3-0.9-0.7-1.4-1l-0.7-0.5l-0.3-0.3l-0.1-0.1v-0.1c0,0-0.1,0,0-0.2
			s0.2-0.1,0.2-0.1s0.1,0,0.1,0c0.1,0,0.1,0.1,0.2,0.1c3.6,2.8,7.5,5.2,11.3,7.8l11.2,8c7.3,5.5,14.1,11.7,20.1,18.7
			c6,7,10.5,15.1,13.3,23.9C169.5,404,171.5,412.9,172.4,422l0.1,0.1l0,0L172.4,422C172.4,422.1,172.4,422,172.4,422L172.4,422
			L172.4,422C172.4,422.1,172.4,422,172.4,422z"/>
		<path class="st6" d="M171.1,657.3c-0.2-23.8,0.1-47.5,0.3-71.2l0.7-71.2c0.2-23.8,0.3-47.5,0.2-71.2c-0.1-5.9-0.1-11.9-0.2-17.8
			s-0.3-11.9-0.9-17.8c-0.2-3-0.2-5.9,0-8.9c0.1-1.5,0.1-3,0.1-4.5l-0.2-4.4c-0.2-5.9,0-11.9-0.7-17.8v-0.4c0,0.1,0.1,0.2,0.1,0.4
			c0.8,5.9,0.7,11.9,0.9,17.8l0.2,4.5v4.5c-0.2,3-0.2,5.9,0,8.9c0.6,5.9,0.9,11.9,1,17.8s0.2,11.9,0.3,17.8
			c0.1,23.8-0.1,47.5-0.4,71.2l-0.9,71.2C171.3,609.8,170.9,633.6,171.1,657.3c0,0.1,0,0.3,0,0.4C171,657.6,171,657.5,171.1,657.3z"
			/>
		<path class="st6" d="M171.1,657.3l0.5-71.2l0.8-71.2l0.3-71.2c-0.3-11.9-0.1-23.8-1.4-35.6c-0.2-3-0.2-5.9,0-8.9v-4.4l-0.2-4.4
			c-0.2-5.9-0.1-11.9-0.9-17.8v-0.2l0,0c0.1,0-0.1,0.1,0.1-0.1c0-0.1,0.3,0,0.2,0v0.1l0.1,0.5l0.1,1.1c0.1,0.7,0.1,1.5,0.2,2.2
			c0.1,1.5,0.2,3,0.2,4.5l0.2,8.9l0.2,4.5c0.1,1.5,0,3,0,4.5c-0.1,3-0.3,5.9-0.1,8.9c1.2,11.8,1,23.7,1.2,35.6l-0.2,71.2l-0.8,71.2
			l-0.5,71.2C171.1,656.9,171.1,657.1,171.1,657.3l0-0.7l0.2-71.2l0.6-71.2l0.2-71.2c-0.2-11.9,0-23.8-1.2-35.6c-0.2-3,0-6,0.1-8.9
			c0-1.5,0.1-3,0-4.4l-0.2-4.5l-0.2-8.9c0-1.5-0.1-3-0.2-4.4c0-0.7-0.1-1.5-0.2-2.2l-0.1-1.1l-0.1-0.6v-0.2c0-0.1-0.3-0.1,0.4-0.1
			l0,0v0.1c0,0.1,0,0.2,0.1,0.4c0.8,5.9,0.7,11.9,0.9,17.8l0.2,4.5v4.5c-0.2,3-0.2,5.9,0,8.9c1.2,11.8,1,23.7,1.3,35.6l-0.4,71.3
			l-0.9,71.2l-0.6,71.2v0.4c-0.1,0,0,0-0.1,0v-0.1C171.1,657.5,171.1,657.5,171.1,657.3l0.1,0.4l0,0L171.1,657.3L171.1,657.3z"/>
		<path class="st6" d="M200.2,285.6c-1.1,1.4-2.4,2.7-3.9,3.8c-1.4,1.1-2.8,2.3-4.2,3.5c-1.4,1.2-2.8,2.3-4.4,3.2l-0.4,0.2l-0.1,0.1
			l-0.1-0.1l-0.2-0.2l-0.5-0.5c-0.3-0.3-0.6-0.7-0.9-1c-0.6-0.7-1.2-1.4-1.8-2.1c-2.3-2.8-4.3-5.8-6.5-8.7c-2.1-2.9-4.6-5.6-7.4-7.8
			V276h0.1c3,2.1,5.6,4.7,7.8,7.6c2.2,2.9,4.2,5.9,6.4,8.8c0.6,0.7,1.1,1.4,1.7,2.1c0.3,0.4,0.6,0.7,0.9,1l0.5,0.5
			c0.1,0.1,0.1,0.1,0.3-0.1c1.5-1,3-2,4.4-3.1c1.4-1.1,2.8-2.3,4.2-3.4C197.8,288.2,199.1,287,200.2,285.6L200.2,285.6
			C200.3,285.6,200.2,285.6,200.2,285.6z"/>
		<path class="st6" d="M200.2,285.6c-1.1,1.4-2.5,2.7-3.9,3.8l-4.2,3.4c-1.4,1.1-2.9,2.2-4.4,3.2l-0.1,0.1l-0.1,0.1
			c-0.1,0-0.2,0-0.2,0s-0.1-0.2-0.2-0.2l-0.5-0.5c-0.3-0.3-0.6-0.7-0.9-1l-1.7-2.1c-2.2-2.9-4.2-5.9-6.4-8.7c-1.1-1.4-2.3-2.7-3.6-4
			c-0.7-0.6-1.3-1.2-2-1.8c-0.4-0.3-0.7-0.6-1.1-0.8l-0.6-0.4l-0.3-0.2l0,0v-0.1c0,0,0,0,0.1,0s0,0,0.1-0.1l0,0l0.1,0
			c2.8,2.3,5.3,5,7.5,7.9l6.5,8.7l1.8,2.1l0.9,1l0.5,0.5c0,0,0,0,0.3-0.1c1.5-1,3-2,4.4-3.2l4.2-3.4c1.4-1.1,2.7-2.3,3.9-3.7
			c0,0,0.1-0.1,0.1-0.1s0,0-0.1,0.1c-1.1,1.4-2.4,2.7-3.8,3.9l-4.1,3.5c-1.4,1.2-2.8,2.3-4.4,3.3l-0.4,0.2c-0.1,0-0.2,0.1-0.2,0
			c-0.1-0.1-0.2-0.1-0.2-0.2l-0.5-0.5l-0.9-1l-1.8-2.1c-2.2-2.9-4.3-5.8-6.5-8.7c-2.1-2.9-4.6-5.6-7.3-7.9c-0.1,0-0.1-0.1-0.2-0.2
			c0,0,0-0.1,0-0.1c0,0,0-0.1,0-0.1c0.1,0,0.1,0,0.2,0h0.2l0.1,0.1l0.3,0.2l0.6,0.4c0.4,0.3,0.7,0.6,1.1,0.9c0.7,0.6,1.4,1.2,2,1.8
			c1.3,1.3,2.5,2.7,3.6,4.1c2.2,2.9,4.2,5.9,6.4,8.8l1.7,2.1c0.3,0.4,0.6,0.7,0.9,1l0.5,0.5c0.1,0.1,0.1,0.2,0.2,0.2
			c-0.1,0,0.1-0.1,0.2-0.1c1.5-1,3-2.1,4.4-3.3l4.2-3.4C197.7,288.2,199,287,200.2,285.6L200.2,285.6
			C200.3,285.6,200.2,285.6,200.2,285.6L200.2,285.6C200.2,285.6,200.3,285.5,200.2,285.6z"/>
		<path class="st6" d="M203,361.7c4.7-4.4,9.1-9.1,13.4-14c2.1-2.4,4.3-4.9,6.4-7.3l6.2-7.3l-0.6-0.5l-0.7-0.6
			c-0.5-0.4-1-0.8-1.5-1.1c-1-0.7-2.1-1.4-3.1-2c-1.1-0.6-2.2-1.2-3.3-1.8c-0.6-0.3-1.1-0.5-1.7-0.8l-0.9-0.3l-1.2-0.4l2.6-1.6
			l2.3-1.4c1.5-1,3.1-1.9,4.6-2.9c1.5-1,3-2,4.5-3c0.8-0.4,1.4-1.1,1.8-1.8c0.3-0.8,0.3-1.7-0.1-2.5c-1.2-2.9-2.7-5.7-4.2-8.4
			s-3.1-5.5-4.6-8.2c-3.1-5.5-6.4-10.9-9.7-16.2s-6.6-10.7-10-16c-1.7-2.7-3.4-5.3-5.2-7.9c-0.9-1.3-1.8-2.6-2.7-3.9
			c-0.8-1.4-1.8-2.6-3-3.6c-0.1-0.1-0.2-0.1-0.2-0.1c0.1,0,0.1,0,0.2,0.1c1.2,1,2.2,2.2,3.1,3.6c0.9,1.3,1.8,2.6,2.7,3.9
			c1.8,2.6,3.6,5.2,5.3,7.9c3.5,5.3,6.8,10.6,10.1,16c3.3,5.4,6.5,10.8,9.7,16.3c1.6,2.7,3.1,5.5,4.6,8.3s2.9,5.6,4.2,8.5
			c0.4,0.9,0.4,1.9,0.1,2.8c-0.5,0.8-1.2,1.5-2,2c-1.5,1-3,2-4.5,3c-1.5,1-3.1,2-4.6,2.9l-2.3,1.4l-2.1,1.2l0.6,0.2l0.9,0.4
			c0.6,0.2,1.2,0.5,1.7,0.8c1.1,0.5,2.2,1.1,3.3,1.8s2.1,1.3,3.2,2.1l1.5,1.1l0.7,0.6l0.8,0.7l-6.4,7.5c-2.1,2.5-4.2,4.9-6.4,7.3
			c-4.3,4.8-8.8,9.5-13.5,13.9c-0.1,0.1-0.2,0.1-0.2,0.1S202.9,361.8,203,361.7z"/>
		<path class="st6" d="M203,361.7c9.5-8.9,17.9-18.9,26.2-28.7l-0.7-0.6l-0.7-0.6l-1.5-1.1c-1-0.7-2.1-1.4-3.1-2s-2.2-1.2-3.2-1.7
			c-0.6-0.3-1.1-0.5-1.7-0.8s-1.1-0.4-1.9-0.8l2.8-1.7c0.9-0.5,1.7-1.1,2.6-1.6c1.7-1.1,3.4-2.2,5.1-3.3l2.5-1.7
			c0.9-0.5,1.6-1.1,2.3-1.9c0.6-0.8,0.7-1.9,0.3-2.8c-0.3-0.9-0.8-1.9-1.2-2.8c-1.8-3.7-3.8-7.3-5.8-10.8s-4.1-7-6.1-10.5
			s-4.1-7-6.3-10.4l-6.5-10.3c-1.1-1.7-2.2-3.4-3.3-5.1l-3.4-5c-1.1-1.7-2.3-3.4-3.5-5l-1.8-2.5c-0.5-0.8-1.2-1.5-2-2.1H192v-0.2
			l0,0l0.1-0.1l0.1-0.1h0.1l0.1,0.1l0.2,0.2c0.2,0.1,0.3,0.3,0.4,0.4c0.3,0.3,0.5,0.6,0.8,0.9c0.5,0.6,0.9,1.3,1.4,1.9l2.7,3.8
			l5.2,7.9l10,16c6.4,10.8,13.2,21.4,18.6,32.9c0.5,0.9,0.6,1.9,0.3,2.9c-0.5,0.9-1.2,1.6-2,2.1l-4.6,3.1l-4.7,3l-2.4,1.5l-2,1.2
			l0.5,0.2l0.9,0.4c0.6,0.2,1.2,0.5,1.8,0.8c1.1,0.6,2.3,1.2,3.4,1.8c1.1,0.6,2.2,1.3,3.2,2.1c0.5,0.4,1,0.8,1.5,1.1l0.7,0.6
			l0.9,0.7l-6.3,7.4l-6.3,7.2c-4.3,4.8-8.7,9.4-13.3,13.8C203.2,361.6,203.1,361.6,203,361.7c0-0.1,0.1-0.2,0.2-0.3
			c4.6-4.4,9-9.1,13.2-13.9l6.2-7.2l6-7.2l-0.6-0.5l-0.7-0.6c-0.5-0.4-1-0.8-1.5-1.1c-1.1-0.7-2.1-1.4-3.2-2s-2.2-1.2-3.4-1.7
			c-0.6-0.2-1.1-0.5-1.7-0.7l-0.9-0.3l-1.3-0.5l2.7-1.6l2.4-1.5l4.6-3l4.6-3.1c0.8-0.4,1.4-1.1,1.8-1.9c0.3-0.8,0.1-1.7-0.3-2.5
			c-5.3-11.4-12.2-22-18.5-32.8l-10-16l-5.2-7.9l-2.7-3.9c-0.5-0.6-0.9-1.3-1.4-1.9c-0.2-0.3-0.5-0.6-0.8-0.9l-0.4-0.4
			c-0.1-0.1-0.1-0.1-0.2-0.2l0,0H192c0,0-0.2,0,0-0.3h0.2l0.1,0.1c0.8,0.6,1.6,1.4,2.1,2.3l1.8,2.5c1.2,1.7,2.4,3.3,3.5,5l3.4,5.1
			c1.1,1.7,2.2,3.4,3.3,5.1l6.5,10.3c2.1,3.5,4.2,7,6.2,10.5s4.2,7,6.1,10.5s4,7.1,5.7,10.8c0.4,0.9,0.9,1.8,1.2,2.8
			c0.2,0.5,0.2,1,0.2,1.5c0,0.5-0.2,1-0.6,1.5c-0.7,0.8-1.5,1.5-2.4,2l-2.5,1.5c-1.7,1.1-3.4,2.2-5.1,3.3c-0.9,0.5-1.7,1.1-2.6,1.6
			l-2.4,1.5c0.3,0.1,1,0.4,1.6,0.6s1.1,0.5,1.7,0.8c1.1,0.6,2.2,1.1,3.3,1.8s2.1,1.4,3.1,2.1l1.5,1.1l0.7,0.6l0.8,0.7l-6.4,7.5
			l-6.4,7.3C212.2,352.6,207.8,357.4,203,361.7l-0.1,0.2l0,0c-0.1,0,0,0,0-0.1l0,0C202.9,361.8,203,361.8,203,361.7l-0.1,0.1v0l0,0
			L203,361.7z"/>
		<path class="st6" d="M82.3,290.4c8.3-2.1,16.5-4.9,24.5-8.2c4-1.6,7.9-3.3,11.9-5s7.9-3.4,11.9-5h0.1l-0.1,0
			c-3.9,1.9-7.8,3.6-11.7,5.4s-7.9,3.4-11.9,4.9C98.9,285.8,90.7,288.5,82.3,290.4L82.3,290.4C82.2,290.5,82.3,290.4,82.3,290.4z"/>
		<path class="st6" d="M82.3,290.5c8.4-2,16.6-4.7,24.6-7.9l11.9-5l11.7-5.4l0,0c0,0,0.1,0.1,0.1,0.1v0.2l0,0l-0.2,0.1l-0.4,0.1
			l-0.7,0.3l-1.5,0.6l-3,1.3l-6,2.5l-11.9,5c-8,3.3-16.2,6-24.6,8h-0.1c0,0,0.1,0,0.1,0c8.3-2.2,16.5-5,24.5-8.3l11.9-5l6-2.5l3-1.2
			l1.5-0.6l0.7-0.3l0.4-0.2l0.2-0.1h0.1l0.2,0.1c0,0.1,0,0.2,0,0.2c0,0,0,0.1-0.1,0.1v0h-0.1l-11.8,5.3l-12,4.9
			c-8,3.2-16.2,5.8-24.6,7.8h-0.1L82.3,290.5L82.3,290.5C82.2,290.5,82.2,290.5,82.3,290.5z"/>
		<path class="st6" d="M253,288.7c-2.9-1.8-6.2-2.5-9.4-3.2l-9.8-2.1c-3.3-0.7-6.5-1.4-9.8-2.2s-6.5-1.6-9.7-2.5h0.1
			c3.3,0.6,6.6,1.3,9.8,2s6.5,1.5,9.8,2.3l9.8,2.3C246.9,286.1,250.2,286.9,253,288.7C253.1,288.7,253.1,288.7,253,288.7
			C253,288.8,253,288.7,253,288.7z"/>
		<path class="st6" d="M253,288.7c-2.8-1.8-6.1-2.5-9.4-3.3l-9.8-2.3l-9.8-2.2l-9.8-2l0,0v-0.2l0,0v-0.1h0.1l0.3,0.1l0.6,0.1
			l1.2,0.3l2.4,0.6l4.9,1.2l9.8,2.2l9.8,2.2c3.2,0.8,6.6,1.5,9.4,3.3C252.8,288.6,252.9,288.7,253,288.7l-0.2,0
			c-2.9-1.7-6.2-2.3-9.5-3l-9.8-2.1l-9.8-2.2l-4.9-1.2l-2.4-0.6l-1.2-0.3l-0.6-0.1l-0.3-0.1h-0.2l-0.1,0c-0.1-0.1-0.1-0.2,0-0.2
			c0.1-0.2,0.2-0.1,0.2-0.1h0.1l9.8,2.1l9.8,2.3l9.7,2.4C246.8,286.2,250.2,286.9,253,288.7 M253,288.8L253,288.8
			c0,0,0.1-0.1,0.1-0.1L253,288.8z"/>
		<path class="st6" d="M249.8,287.4c2.2,0.3,4.2,1.5,5.6,3.3c1.3,1.8,2.4,3.7,3.1,5.8c0.7,2.1,1.3,4.2,1.7,6.4l1.4,6.5
			c1.9,8.6,3.7,17.3,5.4,25.9c3.5,17.3,6.7,34.7,9.6,52.1c2.9,17.4,5.6,34.9,8,52.4c1.1,8.8,2.3,17.5,3.3,26.3s2.1,17.5,2.6,26.4
			v0.3c0-0.1,0-0.2,0-0.3c-0.6-8.8-1.8-17.6-2.9-26.3s-2.2-17.5-3.4-26.3c-2.4-17.5-5-34.9-7.9-52.4s-6-34.8-9.4-52.1
			c-1.7-8.7-3.5-17.3-5.3-25.9l-1.5-6.5c-0.4-2.2-1-4.3-1.7-6.4c-0.7-2.1-1.7-4.1-3-5.8C254,288.9,252,287.7,249.8,287.4
			c0,0-0.1,0-0.2,0C249.6,287.3,249.7,287.3,249.8,287.4z"/>
		<path class="st6" d="M249.8,287.4c2.2,0.3,4.2,1.5,5.6,3.3c1.3,1.8,2.4,3.7,3,5.9c0.7,2.1,1.2,4.3,1.6,6.4l1.4,6.5l5.3,25.9
			l9.5,52.1l7.9,52.4l3.5,26.3c1.1,8.8,2.3,17.5,2.9,26.3v0.1l-0.1,0.1c-0.1,0.1,0,0-0.2,0h-0.1v-0.5l0-0.8l-0.1-1.6l-0.2-3.3
			c-0.2-2.2-0.4-4.4-0.6-6.6c-0.5-4.4-1-8.8-1.5-13.2l-3.3-26.3c-2.3-17.5-5-34.9-8-52.4l-9.5-52.1l-5.3-25.9l-1.4-6.5
			c-0.4-2.2-1-4.3-1.6-6.4c-0.7-2.1-1.6-4.1-2.9-5.9c-1.2-1.8-3.1-3.2-5.3-3.6C249.9,287.4,249.7,287.4,249.8,287.4
			c0.1,0,0.3,0,0.5,0.1c2.2,0.5,4.1,1.8,5.4,3.6c1.3,1.8,2.3,3.8,3,5.9c0.7,2.1,1.2,4.2,1.6,6.4l1.4,6.5l5.4,25.9l9.7,52.1
			c2.9,17.4,5.6,34.9,8,52.4l3.2,26.3c0.5,4.4,1,8.8,1.5,13.2c0.2,2.2,0.4,4.4,0.6,6.6l0.2,3.3l0.1,1.6l0,0.8v0.6
			c0.2-0.1-0.3,0.2-0.4,0.1c0-0.1-0.1-0.2-0.1-0.3c-0.6-8.9-1.8-17.6-2.9-26.4l-3.4-26.3l-7.8-52.4l-9.4-52.1l-5.3-26L260,303
			c-0.4-2.2-1-4.3-1.6-6.4c-0.7-2.1-1.7-4.1-3-5.8C254,289,252,287.8,249.8,287.4l-0.2,0h-0.1c0-0.1,0,0,0,0l0,0L249.8,287.4z"/>
		<path class="st6" d="M82.9,290.4c-1.4,0.4-2.6,1-3.7,1.9c-1,1-1.8,2.2-2.4,3.5c-0.6,1.3-1.1,2.6-1.7,3.9s-1.2,2.5-1.8,3.9
			c-1.1,2.6-2,5.3-2.8,8c-0.7,2.7-1.3,5.5-1.8,8.3c-0.9,5.6-1.4,11.2-2,16.9c-0.3,2.8-0.6,5.6-0.9,8.5l-1.1,8.4
			c-3,22.5-5.6,45-9.2,67.4c-1.8,11.2-3.7,22.4-6.5,33.4c-1.4,5.5-3.1,10.9-4.5,16.4s-2.9,11-4.3,16.4c-2.7,11-5.2,22.1-7.5,33.2
			c-2.2,11.1-4.3,22.3-5.8,33.5c0,0.2-0.1,0.4-0.1,0.3c0-0.1,0-0.2,0-0.3c1.4-11.2,3.4-22.4,5.5-33.6s4.7-22.2,7.3-33.2
			c1.4-5.5,2.8-11,4.3-16.5s3.1-10.9,4.6-16.4c2.8-11,4.8-22.1,6.6-33.3c3.6-22.4,6.3-44.9,9.3-67.4l1.2-8.4
			c0.3-2.8,0.7-5.6,0.9-8.5c0.6-5.6,1.1-11.3,2-16.9c0.5-2.8,1.1-5.6,1.8-8.3c0.8-2.7,1.7-5.4,2.8-8c0.6-1.3,1.2-2.6,1.8-3.8
			s1.2-2.6,1.7-3.9c0.5-1.3,1.3-2.5,2.4-3.5C80.1,291.4,81.4,290.7,82.9,290.4c0-0.1,0.1-0.1,0.3-0.1
			C83.1,290.3,83,290.4,82.9,290.4z"/>
		<path class="st6" d="M82.8,290.4c-1.4,0.4-2.6,1-3.7,1.9c-1,1-1.9,2.2-2.4,3.5l-1.7,3.9l-1.8,3.8c-1.1,2.6-2,5.3-2.8,8
			c-0.7,2.7-1.3,5.5-1.8,8.3c-0.9,5.6-1.5,11.2-2,16.9l-0.9,8.5l-1.1,8.4c-3,22.5-5.7,45-9.3,67.4c-1.8,11.2-3.8,22.4-6.6,33.4
			l-4.5,16.4l-4.3,16.5c-2.7,11-5.2,22.1-7.3,33.2c-2.2,11.1-4.1,22.3-5.5,33.5v0.2c0,0,0.1,0-0.2,0.1c-0.1-0.1-0.2-0.1-0.2-0.1l0,0
			l0.1-0.5l0.1-1l0.3-2.1l0.6-4.2c0.4-2.8,0.9-5.6,1.4-8.4c1-5.6,2-11.2,3.1-16.7c2.2-11.1,4.7-22.2,7.4-33.2l4.3-16.6l4.5-16.4
			c2.8-11,4.8-22.1,6.6-33.3c3.6-22.4,6.3-44.9,9.3-67.4l1.2-8.4c0.3-2.8,0.6-5.6,0.9-8.4c0.6-5.6,1.1-11.3,2-16.9
			c0.8-5.6,2.3-11.1,4.4-16.4c0.6-1.3,1.2-2.6,1.8-3.9s1.2-2.6,1.8-3.9c0.5-1.3,1.2-2.6,2.2-3.7c1-1,2.2-1.8,3.6-2.2
			C82.4,290.5,82.6,290.4,82.8,290.4l-0.7,0.3c-1.3,0.4-2.6,1.2-3.6,2.2c-0.9,1.1-1.6,2.3-2.1,3.6c-0.6,1.3-1.1,2.6-1.7,3.9
			s-1.2,2.5-1.8,3.9c-2.1,5.3-3.5,10.8-4.3,16.4c-0.9,5.6-1.4,11.2-1.9,16.9c-0.3,2.8-0.6,5.6-0.9,8.5l-1.1,8.4
			c-2.9,22.5-5.6,45-9.1,67.4c-1.8,11.2-3.7,22.4-6.6,33.4l-4.5,16.4L40.2,488c-2.7,11-5.2,22.1-7.5,33.2
			c-1.1,5.6-2.2,11.1-3.2,16.7c-0.5,2.8-1,5.6-1.4,8.4l-0.6,4.2l-0.3,2.1l-0.1,1l-0.1,0.5c0,0.1,0,0.1-0.1,0.2
			c-0.7-0.1-0.2,0-0.4-0.1v-0.5c1.4-11.3,3.4-22.4,5.5-33.6s4.7-22.2,7.4-33.2l4.3-16.5l4.6-16.4c2.8-11,4.8-22.1,6.6-33.3
			c3.6-22.4,6.3-44.9,9.4-67.4l1.2-8.4l0.9-8.5c0.6-5.6,1.1-11.3,2-16.9c0.5-2.8,1.1-5.6,1.8-8.3c0.8-2.7,1.7-5.4,2.8-8l1.8-3.8
			l1.7-3.9c0.5-1.3,1.3-2.5,2.4-3.5C80.1,291.4,81.4,290.7,82.8,290.4l0.2-0.1h0.1v0.1H83L82.8,290.4l0.2-0.1l0,0L82.8,290.4z"/>
		<path class="st6" d="M27.5,547.7c-0.8,5.3-0.6,10.8-1,16.2s-0.8,10.8-1.3,16.2s-1,10.8-1.6,16.1l-1.7,16.1l0,0
			c0.3-5.4,0.8-10.8,1.3-16.2s1.2-10.7,1.7-16.1s1.1-10.7,1.5-16.1S26.6,553.1,27.5,547.7L27.5,547.7
			C27.5,547.7,27.5,547.7,27.5,547.7z"/>
		<path class="st6" d="M27.5,547.7c-0.8,5.3-0.7,10.8-1.1,16.2L24.9,580l-1.7,16.1L22,612.3h-0.2l-0.1-0.1l0,0v-0.3l0-0.5l0.1-1
			l0.2-2l0.4-4l0.8-8l1.7-16.2l1.4-16.1c0.4-5.4,0.3-10.8,1.1-16.2l0,0c-0.7,5.4-0.5,10.8-0.8,16.2l-1.2,16.2l-1.6,16.1l-0.9,8
			l-0.4,4l-0.2,2l-0.1,1l-0.1,0.5v0.2c0,0.1,0,0.1,0,0.2c0,0,0,0-0.1,0.2c-0.1,0-0.1,0-0.2,0l0-0.1v-0.1c0,0,0-0.1,0-0.1L23,596
			l1.7-16l1.5-16.1C26.6,558.5,26.6,553.1,27.5,547.7L27.5,547.7C27.4,547.7,27.4,547.7,27.5,547.7L27.5,547.7L27.5,547.7z"/>
		<path class="st6" d="M36.4,609.3c-2.6,1.2-5.3,2.2-8.1,3c-1.4,0.3-2.9,0.5-4.3,0.4h-2l0.3-0.2l0.9-0.8l0.8-0.8c2.1-2,4.1-4,6.2-6
			s4.2-3.9,6.4-5.8c2.1-2,4.6-3.5,7.3-4.6c1.4-0.5,2.8-0.8,4.2-1c1.4-0.3,2.8-0.5,4.2-0.8c2.8-0.6,5.7-0.8,8.6-0.6
			c1.4,0.1,2.9,0.4,4.3,0.8c0.7,0.2,1.4,0.5,2,0.8c0.7,0.2,1.3,0.7,1.7,1.3v0.1l-0.1-0.1c-0.4-0.6-1-1-1.7-1.3
			c-0.6-0.3-1.3-0.5-2-0.7c-1.4-0.3-2.8-0.6-4.2-0.7c-2.9-0.1-5.7,0.1-8.5,0.7l-4.2,0.8c-1.4,0.2-2.8,0.5-4.2,1
			c-2.7,1-5.1,2.5-7.2,4.4c-2.2,1.9-4.2,3.9-6.5,5.7s-4.2,3.9-6.3,5.9l-1.5,1.4l-0.1,0.1H24c1.4,0.1,2.9,0,4.3-0.3
			c2.8-0.8,5.5-1.7,8.1-2.9h0.1C36.5,609.2,36.5,609.3,36.4,609.3z"/>
		<path class="st6" d="M36.4,609.3c-2.6,1.2-5.3,2.1-8,2.9c-1.4,0.3-2.8,0.5-4.2,0.4h-1.8l0.1-0.1c0.1-0.1,0.1-0.1,0.2-0.2l1.6-1.5
			l6.2-5.8l6.4-5.7c2.1-1.9,4.6-3.4,7.3-4.4c1.4-0.4,2.7-0.8,4.2-1l4.2-0.8c2.8-0.6,5.7-0.8,8.5-0.8c1.4,0.1,2.8,0.3,4.2,0.7
			c0.7,0.2,1.4,0.4,2,0.7c0.7,0.2,1.4,0.7,1.8,1.3l0,0c0,0-0.1,0.2-0.1,0.2h-0.2l-0.1-0.2c-0.1-0.1-0.1-0.2-0.2-0.3
			c-0.5-0.5-1.1-0.8-1.8-1.1c-0.7-0.3-1.3-0.5-2-0.7c-1.4-0.3-2.8-0.6-4.2-0.7c-2.9-0.1-5.7,0.1-8.5,0.7c-2.8,0.6-5.7,0.8-8.3,1.9
			c-2.6,1.1-5.1,2.7-7.1,4.6c-2.4,2.2-4.8,4.3-7.1,6.5l-3.5,3.3l-1.8,1.7l-0.9,0.8l-0.8,0.7l-0.1,0.1h3.4c1.2-0.1,2.4-0.3,3.6-0.6
			c2.3-0.7,4.7-1.6,6.9-2.6C36.4,609.3,36.5,609.2,36.4,609.3c0,0.1-0.1,0.1-0.1,0.1c-2.2,1-4.5,1.9-6.9,2.7
			c-1.2,0.4-2.4,0.6-3.6,0.7c-0.6,0-1.2,0-1.9,0h-1.8c-0.1,0-0.2,0-0.2-0.1h-0.1c-0.1,0,0,0,0-0.1l0.1-0.2l1-0.9l0.9-0.8l1.8-1.6
			l3.5-3.3c2.3-2.2,4.7-4.3,7.1-6.5c2.1-2,4.6-3.6,7.3-4.7c1.4-0.5,2.8-0.9,4.2-1.1l4.3-0.8c2.8-0.6,5.7-0.8,8.6-0.7
			c1.4,0.1,2.9,0.4,4.3,0.7c0.7,0.2,1.4,0.4,2.1,0.7c0.7,0.3,1.3,0.7,1.9,1.2c0.1,0.1,0.2,0.2,0.3,0.3l0.1,0.2v0.3
			c-0.1,0.1-0.2,0.1-0.2,0h-0.1v-0.1l0,0c-0.4-0.6-1-1-1.7-1.2c-0.6-0.3-1.3-0.5-2-0.7c-1.4-0.4-2.8-0.6-4.2-0.8
			c-2.8-0.1-5.7,0.1-8.4,0.7l-4.2,0.8c-1.4,0.2-2.8,0.6-4.1,1c-2.7,0.9-5.1,2.4-7.2,4.3l-6.4,5.7l-6.2,5.8l-1.5,1.4l-0.1,0.1
			l-0.1,0.1h1.6c1.4,0.1,2.8-0.1,4.2-0.4C31.1,611.3,33.8,610.3,36.4,609.3L36.4,609.3C36.5,609.2,36.5,609.3,36.4,609.3L36.4,609.3
			L36.4,609.3z"/>
		<path class="st6" d="M61.8,522l12.5,15.8l3.1,4c1.1,1.3,2,2.7,2.7,4.3c0.5,1.7,0.3,3.4-0.3,5c-0.5,1.6-1.1,3.2-1.7,4.8
			c-2.3,6.3-5,12.5-6.3,19.1c-1.3,6.6-2.1,13.3-2.3,20v0.1c0,0,0-0.1,0-0.1c0-6.7,0.6-13.5,1.9-20.1c1.3-6.6,4.2-12.8,6.5-19.1
			c0.6-1.6,1.1-3.2,1.7-4.8c0.7-1.5,0.8-3.2,0.4-4.8c-0.6-1.5-1.5-2.9-2.7-4.1l-3.1-4L61.8,522c0,0-0.1-0.1,0-0.1L61.8,522z"/>
		<path class="st6" d="M61.7,522l12.4,15.9l3.1,4c1.1,1.3,2,2.7,2.7,4.3c0.4,1.7,0.3,3.4-0.4,5l-1.7,4.8c-2.3,6.3-5.1,12.5-6.4,19.1
			c-0.7,3.3-1.1,6.6-1.4,9.9c-0.1,1.7-0.2,3.3-0.3,5l-0.1,2.5v2.5h-0.3v-1.2l0.1-1.3l0.2-2.5c0.1-1.7,0.2-3.4,0.4-5
			c0.3-3.4,0.8-6.7,1.5-10c1.4-6.6,4.1-12.9,6.4-19.2l1.7-4.8c0.6-1.5,0.8-3.2,0.4-4.8c-0.6-1.6-1.5-3-2.6-4.2l-3.1-4l-12.3-15.9
			C61.8,522.1,61.8,522,61.7,522c0.1,0.1,0.1,0.1,0.2,0.2l12.6,15.7l3.1,3.9c1.1,1.3,2.1,2.7,2.7,4.3c0.4,1.7,0.3,3.5-0.4,5.1
			l-1.6,4.7c-2.3,6.3-4.9,12.5-6.3,19.1c-0.7,3.3-1.2,6.6-1.6,9.9c-0.2,1.7-0.3,3.3-0.4,5l-0.2,2.5l-0.1,1.3v1.3c0,0,0,0.1,0,0.1
			c0,0,0,0-0.2,0.1c-0.1,0-0.2,0-0.2-0.1v-0.1c0-0.1,0-0.3,0-0.4v-2.3l0.1-2.5c0.1-1.7,0.2-3.4,0.3-5c0.3-3.4,0.7-6.7,1.4-10
			c1.3-6.6,4.2-12.8,6.5-19.1l1.7-4.7c0.7-1.5,0.8-3.2,0.4-4.9c-0.6-1.6-1.6-3-2.7-4.3l-3.1-4L61.7,522c-0.1,0-0.1-0.1-0.1-0.1
			 M61.6,521.9L61.6,521.9L61.6,521.9L61.6,521.9L61.6,521.9z"/>
		<path class="st6" d="M97.9,452.6C92.5,465.9,87.4,479.3,83,493c-2.2,6.8-4.2,13.7-6,20.7c-1.8,6.9-3.5,13.9-5,21l0,0
			c1.2-7.1,2.8-14.1,4.5-21.1s3.9-13.8,6.1-20.7C87.2,479.3,92.4,465.9,97.9,452.6C97.9,452.6,97.9,452.5,97.9,452.6
			C98,452.5,97.9,452.5,97.9,452.6z"/>
		<path class="st6" d="M97.9,452.5c-5.5,13.3-10.7,26.7-15.1,40.3c-4.6,13.6-8.1,27.6-10.6,41.7c0,0.1,0.1,0.1-0.2,0.1l-0.1-0.1l0,0
			v-0.1l0.1-0.3l0.1-0.7l0.3-1.3l0.6-2.6l1.2-5.2c0.8-3.5,1.7-7,2.6-10.5l6-20.7c4.4-13.7,9.5-27.1,15.1-40.4
			C97.7,452.7,97.8,452.6,97.9,452.5c0,0.1-0.1,0.2-0.1,0.3c-5.3,13.4-10.3,26.8-14.7,40.5l-6,20.7c-0.9,3.5-1.8,7-2.7,10.4
			l-1.2,5.2l-0.6,2.6l-0.3,1.3l-0.1,0.7l-0.1,0.3c0,0.1,0,0.2-0.1,0.2l-0.1,0.1c-0.1,0-0.2,0-0.2-0.1v-0.3
			c2.5-14.2,6.1-28.1,10.8-41.7C87.1,479.2,92.3,465.8,97.9,452.5L97.9,452.5L97.9,452.5L97.9,452.5L97.9,452.5L97.9,452.5z"/>
		<path class="st6" d="M83.3,355c3,14,6,28.1,8.6,42.2c2.6,14.1,4.4,28.4,5.5,42.8c0.5,7.2,0.7,14.4,0.6,21.5s-0.4,14.4-0.8,21.5
			c-0.7,14.3-1.5,28.7-2.3,43v0.2c0-0.1,0-0.1,0-0.2c0.6-14.4,1.2-28.7,1.8-43c0.3-7.2,0.6-14.4,0.8-21.5s-0.1-14.4-0.5-21.5
			c-1-14.3-2.7-28.6-5.3-42.7C89.2,383.1,86.2,369,83.3,355c-0.1-0.1-0.1-0.2,0-0.2C83.2,354.8,83.2,354.8,83.3,355z"/>
		<path class="st6" d="M83.2,355c6,28.1,12,56.3,13.8,85c0.4,7.2,0.6,14.4,0.5,21.5L96.8,483L95,526l0,0l-0.1,0.1
			c-0.1,0.1-0.1,0.1-0.1,0.1l-0.2-0.1V525l0.1-1.3l0.1-2.7l0.3-5.4l0.6-10.8l1.1-21.5l0.8-21.5c0.1-7.2-0.1-14.4-0.5-21.5
			c-1.8-28.7-7.8-56.9-13.7-84.9C83.3,355.2,83.3,355,83.2,355c0.1,0,0.1,0.2,0.2,0.3c6.2,28,12.3,56.2,14.2,84.9
			c0.5,7.2,0.7,14.4,0.6,21.5l-0.8,21.5l-1.2,21.5l-0.6,10.8l-0.3,5.4l-0.1,2.7l-0.1,1.3v1.2c0,0,0,0,0,0.1c-0.1,0.2-0.5,0-0.3,0
			c0-0.1,0-0.2,0-0.3l1.8-43l0.8-21.5c0.1-7.2,0-14.4-0.5-21.5C95,411.3,89.1,383,83.2,355l-0.1-0.2c0-0.1,0,0,0.1,0L83.2,355
			l-0.1-0.1v-0.1l0,0L83.2,355z"/>
		<path class="st6" d="M231.6,517.7c-1.7-27.2-1.6-54.4,0.3-81.6c1-13.6,2.3-27.1,4.2-40.6s4.2-26.9,7.1-40.2c0-0.1,0.1-0.2,0.1-0.2
			c0,0.1,0,0.1,0,0.2c-2.6,13.4-4.9,26.8-6.7,40.2s-3.3,27-4.3,40.6C230.4,463.3,230.1,490.5,231.6,517.7c0.1,0.1,0.1,0.1,0.1,0.2
			C231.7,517.9,231.6,517.8,231.6,517.7z"/>
		<path class="st6" d="M231.7,517.7c-1.6-27.2-1.4-54.4,0.6-81.6c2-27.1,5.7-54.1,10.9-80.8l0.1-0.1c0.1-0.1,0.1-0.1,0.1-0.1
			c0,0,0.1,0.1,0.1,0.1l0,0v0.1l-0.1,0.3l-0.1,0.6l-0.3,1.2l-0.5,2.5l-1,5c-0.6,3.3-1.3,6.7-1.9,10c-1.2,6.7-2.2,13.4-3.2,20.1
			c-1.9,13.5-3.3,27-4.2,40.6c-1.9,27.1-2.1,54.4-0.6,81.5C231.6,517.4,231.6,517.5,231.7,517.7c-0.1-0.2-0.1-0.4,0-0.5
			c-1.8-27.2-1.7-54.4,0.1-81.6c0.9-13.6,2.3-27.1,4.2-40.6c0.9-6.7,2-13.4,3.2-20c0.6-3.4,1.2-6.7,1.9-10l1-5l0.5-2.5l0.3-1.2
			l0.1-0.6l0.1-0.3v-0.1l0.1-0.1c0.5,0,0.2,0.1,0.3,0.1c0,0.1,0,0.2,0,0.3c-5.3,26.7-9,53.7-11.1,80.8
			C230.3,463.4,230.1,490.6,231.7,517.7c0,0.1,0,0.2,0,0.3l0,0l0,0v0c0,0,0-0.1,0-0.1v0.2l0,0v-0.2L231.7,517.7z"/>
		<path class="st6" d="M251.5,477.2c-0.8,0.4-1.8,0.4-2.6-0.1c-0.8-0.4-1.4-1.1-1.7-1.9c-0.4-0.8-0.6-1.7-0.8-2.5l-0.5-2.6
			c-0.7-3.4-1.3-6.9-2-10.3c-1.3-6.9-2.5-13.8-3.5-20.8c-1.1-6.9-2-13.9-2.8-20.9s-1.3-14-1.7-21l0,0c0.6,7,1.3,14,2.1,20.9
			s1.7,13.9,2.7,20.9s2.1,13.9,3.3,20.8c0.6,3.5,1.2,6.9,1.9,10.4l0.5,2.6c0.1,0.9,0.4,1.7,0.7,2.5c0.3,0.8,0.9,1.5,1.7,1.9
			C249.8,477.6,250.7,477.6,251.5,477.2L251.5,477.2L251.5,477.2z"/>
		<path class="st6" d="M251.5,477.2c-0.8,0.4-1.8,0.4-2.5-0.1c-0.8-0.4-1.4-1.2-1.7-2c-0.3-0.8-0.6-1.7-0.7-2.5L246,470l-1.9-10.4
			l-3.4-20.8l-2.6-20.9l-1.1-10.5l-0.6-5.2l-0.3-2.6l-0.1-1.3l-0.1-0.6v-0.6h0.3v1.2l0.1,1.3l0.2,2.6l0.4,5.2c0.3,3.5,0.6,7,1,10.5
			l2.7,20.9l3.4,20.8l1.9,10.3l0.5,2.6c0.1,0.9,0.4,1.7,0.7,2.5c0.3,0.8,0.9,1.5,1.6,2c0.7,0.5,1.7,0.6,2.5,0.3
			C251.4,477.3,251.5,477.3,251.5,477.2c-0.1,0.1-0.1,0.1-0.2,0.2c-0.8,0.3-1.8,0.2-2.6-0.3c-0.8-0.5-1.4-1.2-1.7-2
			c-0.3-0.8-0.6-1.7-0.8-2.5l-0.5-2.6l-2.1-10.3l-3.5-20.8c-1.7-13.9-4.3-27.8-3.9-41.9l2.1,21l2.6,20.9l3.3,20.8l1.8,10.3l0.5,2.6
			c0.1,0.9,0.4,1.7,0.7,2.5c0.3,0.8,0.9,1.5,1.7,1.9c0.8,0.5,1.7,0.5,2.5,0.1c0,0,0.1,0,0.1,0h-0.1l0.1,0l0,0L251.5,477.2z"/>
		<path class="st6" d="M210.7,534.2c6.3-5,12.8-9.6,19-14.7c3.1-2.5,6.1-5.2,8.9-8c1.4-1.4,2.8-2.9,4.1-4.4s2.8-3,3.2-4.9
			c0.2-0.9-0.1-1.9-0.8-2.6c-0.7-0.7-1.6-1.2-2.3-2c-0.7-0.8-0.9-1.9-0.7-3c0.2-1,0.5-2,0.9-2.9c1.4-3.8,3.1-7.4,5-11
			c3.7-7.1,8.3-13.7,13.6-19.8c0-0.1,0.1-0.1,0.1-0.1c0,0,0,0.1-0.1,0.1c-7.6,9.3-13.8,19.8-18.1,31c-0.4,0.9-0.7,1.8-0.9,2.8
			c-0.2,0.9,0,1.9,0.6,2.6c0.6,0.7,1.5,1.2,2.2,2c0.8,0.8,1.1,1.9,0.9,2.9c-0.5,2.1-2,3.6-3.3,5s-2.7,2.9-4.2,4.4
			c-2.9,2.8-5.9,5.4-9,8c-6.2,5-12.8,9.7-19.1,14.6l-0.1,0.1C210.7,534.4,210.7,534.2,210.7,534.2z"/>
		<path class="st6" d="M210.7,534.2c6.3-4.9,12.9-9.5,19.1-14.6c3.1-2.5,6.1-5.2,9-8l4.1-4.4c1.3-1.5,2.8-3,3.3-4.9
			c0.3-1,0-2-0.6-2.7c-0.6-0.7-1.5-1.2-2.2-2c-0.7-0.8-1.1-1.8-0.8-2.9c0.2-1,0.5-2,0.9-2.9c4.4-11.3,10.5-21.8,18.2-31.1l0,0
			l0.1,0.1h0l0.1,0.1l0,0l-0.1,0.1l-0.2,0.3l-0.5,0.6l-1,1.1c-0.6,0.8-1.3,1.5-1.9,2.3c-1.2,1.6-2.4,3.2-3.5,4.8
			c-2.3,3.3-4.3,6.7-6.2,10.3c-1.9,3.5-3.6,7.2-5,10.9c-0.4,0.9-0.7,1.9-1,2.8c-0.3,0.9-0.2,1.9,0.2,2.7c0.6,0.8,1.3,1.5,2.1,2
			c0.4,0.3,0.8,0.7,1,1.2c0.3,0.5,0.4,1,0.3,1.6c-0.2,1-0.6,2-1.2,2.9c-0.6,0.8-1.3,1.6-1.9,2.3l-4,4.5c-2.9,2.8-5.9,5.5-9,8
			c-6.2,5.1-12.8,9.7-19.1,14.6C210.8,534.1,210.7,534.2,210.7,534.2c0-0.1,0-0.2,0.1-0.2c6.3-5,12.8-9.7,18.9-14.8
			c3.1-2.5,6.1-5.2,8.9-8.1l4.1-4.4c0.7-0.7,1.3-1.5,1.9-2.3c0.6-0.8,1-1.7,1.1-2.6c0-0.5-0.1-0.9-0.3-1.3c-0.2-0.4-0.6-0.7-0.9-1
			c-0.9-0.6-1.6-1.3-2.2-2.1c-0.5-1-0.6-2.1-0.3-3.1c0.3-1,0.6-1.9,1-2.9c1.4-3.8,3.1-7.4,5-11c1.9-3.5,4-7,6.3-10.3
			c1.1-1.7,2.3-3.3,3.6-4.9c0.6-0.8,1.2-1.6,1.9-2.4l1-1.1l0.5-0.6l0.2-0.3l0.1-0.1c0,0,0.1-0.1,0.1-0.1c0.1,0,0.2,0,0.3,0.1
			c0,0,0,0.1,0,0.1v0l-0.1,0.1c-7.7,9.3-13.8,19.7-18.2,30.9c-0.4,0.9-0.7,1.9-0.9,2.8c-0.2,1,0.1,2,0.8,2.7c0.7,0.7,1.6,1.2,2.2,2
			c0.7,0.8,0.9,1.9,0.6,2.9c-0.5,2-2,3.5-3.3,5l-4.1,4.4c-2.9,2.8-5.9,5.4-9,7.9c-6.2,5-12.8,9.6-19.2,14.5l-0.1,0.1h0.1l-0.1,0.1
			l0,0L210.7,534.2z"/>
		<path class="st6" d="M222.9,567.7c1.4,2,2.9,4,4.4,5.8c0.8,1,1.6,1.9,2.4,2.7c0.1,0.1,0.2,0.2,0.3,0.3l0.1,0.1c0,0,0.1,0.1,0.1,0
			l0.1-0.3l0.1-0.4c0.1-0.6,0.1-1.2,0.1-1.8c-0.1-2.4-1.1-4.7-1.8-7s-1.5-4.6-2.3-6.9c-1.5-4.6-3.4-9.1-5.6-13.4
			c-1.1-2.2-2.4-4.2-3.8-6.2c-1.5-2-3.1-3.8-4.9-5.4c0,0-0.1-0.1,0-0.1h0.1c1.9,1.6,3.6,3.3,5.1,5.3c1.5,1.9,2.8,4,4,6.2
			c2.3,4.4,4.1,8.9,5.6,13.6c0.8,2.3,1.5,4.6,2.2,7c0.9,2.3,1.5,4.7,1.7,7.1c0,0.6,0,1.2-0.1,1.8l-0.1,0.5l-0.2,0.5
			c0,0.2-0.1,0-0.2,0l-0.2-0.2c-0.1-0.1-0.2-0.2-0.4-0.3c-0.9-0.9-1.7-1.8-2.4-2.8c-1.5-1.9-2.9-3.9-4.3-5.9V567.7
			C222.9,567.7,222.8,567.6,222.9,567.7z"/>
		<path class="st6" d="M222.8,567.7l3.8,5.1c0.6,0.9,1.3,1.7,2,2.5c0.4,0.4,0.7,0.8,1.1,1.1l0.6,0.5l0,0v-0.2l0.1-0.4
			c0.4-1.9,0.2-3.8-0.4-5.6c-0.5-1.8-1.1-3.7-1.7-5.5c-1.2-3.6-2.3-7.3-3.7-10.8c-1.3-3.6-3-7-5-10.3c-2-3.3-4.4-6.2-7.3-8.7
			l-0.4-0.3c0,0-0.1,0,0-0.1c0,0,0-0.1,0-0.1l0,0c0,0,0.1,0,0.1-0.1l0,0l0.2,0.2l0.7,0.6c0.4,0.4,0.9,0.9,1.3,1.3
			c0.8,0.9,1.6,1.8,2.4,2.8c1.5,1.9,2.8,4,4,6.2c2.3,4.3,4.2,8.8,5.8,13.5l2.7,8.3c0.5,1.4,0.9,2.8,1.2,4.2c0.2,0.7,0.3,1.5,0.3,2.2
			c0,0.4,0,0.7-0.1,1.1c0,0.2,0,0.4-0.1,0.6c0,0.2-0.1,0.4-0.2,0.6c-0.1,0.1-0.1,0.3-0.3,0.2c-0.1-0.1-0.3-0.2-0.4-0.3
			c-0.2-0.2-0.4-0.3-0.5-0.5c-0.4-0.3-0.7-0.7-1-1.1c-0.6-0.7-1.2-1.5-1.8-2.3L222.8,567.7c-0.1,0-0.2,0-0.2,0
			S222.7,567.6,222.8,567.7l3.5,4.7c0.6,0.8,1.2,1.5,1.9,2.3c0.3,0.4,0.7,0.7,1,1.1c0.2,0.2,0.4,0.3,0.5,0.5s0.2,0.2,0.2,0.1
			c0-0.1,0.1-0.3,0.1-0.4c0-0.2,0.1-0.3,0.1-0.5c0-0.4,0-0.7,0-1.1c0-0.7-0.1-1.4-0.3-2.1c-0.3-1.4-0.8-2.8-1.3-4.2l-2.8-8.3
			c-1.6-4.6-3.5-9.1-5.7-13.4c-1.1-2.1-2.4-4.2-3.9-6.1c-0.7-1-1.5-1.9-2.3-2.8c-0.4-0.4-0.8-0.9-1.3-1.3l-0.6-0.6l-0.2-0.2
			c0,0-0.1-0.1-0.1-0.2c0,0,0-0.1,0-0.1c0-0.1,0.2-0.2,0.2-0.2h0.1l0.1,0.1l0.4,0.3c2.9,2.5,5.4,5.5,7.4,8.8c2,3.3,3.7,6.7,5,10.3
			c1.4,3.6,2.5,7.2,3.6,10.9c0.6,1.8,1.2,3.6,1.7,5.5c0.6,1.8,0.7,3.8,0.3,5.7l-0.1,0.4v0.2c0,0,0,0.1-0.1,0.1c0,0-0.1,0-0.1-0.1
			l-0.6-0.5c-0.4-0.4-0.8-0.8-1.1-1.2c-0.7-0.8-1.4-1.6-2-2.5l-3.7-5.1c0,0,0,0,0-0.1c0-0.1,0.1,0,0.1,0l0,0
			C222.8,567.6,222.8,567.6,222.8,567.7z"/>
		<path class="st6" d="M212.6,535.5c-0.4-0.4-1-0.8-1.6-0.9c-0.3-0.1-0.6-0.1-0.9-0.1h-0.1v0.6c-0.1,1.3,0,2.5,0.1,3.8
			c0.2,1.2,0.4,2.4,0.8,3.6c0.3,1.2,0.7,2.4,1.1,3.6l0,0c-0.7-1.1-1.3-2.2-1.7-3.4c-0.4-1.2-0.6-2.5-0.7-3.8c-0.1-1.3-0.1-2.5,0-3.8
			l0.1-0.5v-0.2c0,0,0-0.1,0.1-0.1h0.3c0.3,0,0.6,0.1,0.9,0.2C211.6,534.6,212.2,535,212.6,535.5L212.6,535.5L212.6,535.5z"/>
		<path class="st6" d="M212.6,535.5c-0.4-0.4-0.9-0.7-1.4-0.9c-0.3-0.1-0.5-0.2-0.8-0.2h-0.6c-0.1,0,0,0.1-0.1,0.1
			c-0.6,3.9,0.2,7.8,2.2,11.1l0.1,0.2v0l0,0l-0.1,0.1l0,0c-0.4,0.1-0.1,0-0.2,0.1l0,0v-0.1l-0.2-0.4l-0.3-0.9l-0.6-1.8
			c-0.4-1.2-0.7-2.5-0.9-3.7c-0.2-1.3-0.2-2.5-0.1-3.8v-0.8c0-0.1,0.1-0.2,0.2-0.2c0.2,0,0.4,0,0.6,0c0.2,0,0.3,0.1,0.5,0.1
			c0.6,0.2,1.2,0.5,1.6,1h-0.1c-0.5-0.4-1-0.7-1.6-0.8c-0.1,0-0.3-0.1-0.4-0.1H210c-0.1,0,0,0.5-0.1,0.7c0,1.2,0.1,2.5,0.3,3.7
			c0.2,1.2,0.5,2.5,0.9,3.7l0.6,1.8l0.3,0.9l0.1,0.5v0.1l0,0c0,0,0,0.1,0,0.2c0,0.1-0.1,0.1-0.2,0.1h-0.1c-0.1,0-0.1-0.1-0.1-0.1
			l0,0l-0.1-0.2c-1-1.7-1.7-3.6-2-5.5c-0.3-1.9-0.3-3.9,0-5.9c0-0.1,0-0.2,0.1-0.2c0.1,0,0.2,0,0.2,0c0.1,0,0.3,0,0.4,0
			c0.3,0,0.6,0.1,0.8,0.2C211.8,534.6,212.2,535,212.6,535.5L212.6,535.5L212.6,535.5z"/>
		<path class="st6" d="M290.1,491.3c0.8,2.1,0.8,4.4,0,6.5c-0.8,2.1-1.8,4-3.1,5.8c-2.4,3.7-4.9,7.3-7.3,10.9
			c-4.9,7.3-10,14.5-15.1,21.6c-5.1,7.1-10.3,14.2-15.6,21.2c-2.7,3.5-5.3,7-8.2,10.3c-2.9,3.4-6.2,6.3-10,8.6h-0.1
			c0,0,0-0.1,0.1-0.1c3.7-2.4,6.9-5.4,9.7-8.8c2.8-3.3,5.4-6.9,8-10.4c5.3-7,10.5-14,15.7-21.1s10.2-14.3,15.2-21.5
			c2.5-3.6,5-7.2,7.4-10.9c1.3-1.8,2.3-3.7,3.1-5.8C290.8,495.6,290.8,493.3,290.1,491.3l-0.1-0.2
			C290,491.2,290.1,491.3,290.1,491.3z"/>
		<path class="st6" d="M290.1,491.3c0.8,2.1,0.8,4.4-0.1,6.4c-0.8,2.1-1.8,4-3.1,5.8l-7.4,10.9L264.3,536l-15.7,21.2
			c-2.6,3.5-5.2,7.1-8,10.4c-2.8,3.4-6.1,6.4-9.8,8.8c0.1,0.1-0.1-0.1-0.2-0.1s-0.1-0.3,0-0.2h0.1l0.2-0.1l0.3-0.2l0.7-0.5
			c0.5-0.3,0.9-0.6,1.4-0.9c0.9-0.6,1.7-1.3,2.6-2c1.7-1.4,3.2-3,4.6-4.6c2.9-3.3,5.5-6.8,8.1-10.3l15.6-21.2l15.1-21.5l7.4-10.9
			c1.3-1.8,2.3-3.7,3.1-5.8c0.9-2,1-4.3,0.3-6.4c-0.1-0.1-0.1-0.3-0.1-0.3c0.1,0.1,0.1,0.2,0.1,0.2c0.7,2.1,0.6,4.3-0.3,6.3
			c-0.8,2.1-1.8,4-3.1,5.8l-7.3,11l-15,21.6L249,557.6c-2.7,3.5-5.3,7-8.2,10.3c-1.4,1.7-3,3.2-4.7,4.7c-0.8,0.7-1.7,1.4-2.6,2
			c-0.4,0.3-0.9,0.6-1.4,0.9l-0.7,0.5l-0.4,0.2l-0.2,0.1l-0.1,0.1h-0.1l-0.2-0.1c-0.2-0.1,0-0.2,0-0.2l0,0c3.7-2.4,7-5.4,9.8-8.7
			c2.8-3.3,5.4-6.9,8.1-10.4l15.8-21.1l15.3-21.5l7.4-10.9c1.3-1.8,2.3-3.7,3.1-5.8C290.8,495.7,290.8,493.4,290.1,491.3
			L290.1,491.3L290.1,491.3C290,491.2,290,491.3,290.1,491.3L290.1,491.3C289.9,491.1,290,491.2,290.1,491.3L290.1,491.3z"/>
		<path class="st6" d="M231,672.9c0.4-16.1,0.8-32.3,1-48.4l0.2-24.2l0.2-24.2v-0.1c0,0,0,0.1,0,0.1c0.2,8.1,0.2,16.1,0.3,24.2
			s-0.1,16.1-0.3,24.2C232,640.6,231.5,656.7,231,672.9c0,0,0,0.1,0,0.1C231,673,231,672.9,231,672.9z"/>
		<path class="st6" d="M231,672.9l1.3-48.4l0.2-24.2l-0.3-24.2V576h0.2c0,0,0.2,0.1,0.2,0.1c0,0.1,0,0.1,0,0.2v11.6l-0.1,12.1
			l-0.2,24.2c-0.4,16.1-0.8,32.3-1.2,48.4C231.1,672.7,231.1,672.7,231,672.9c0.1-0.1,0.1-0.2,0.1-0.3c0.2-16.1,0.5-32.3,0.8-48.4
			L232,600l0.1-12.1l0.1-6.1V576l0,0l0.1-0.1c0.1-0.1,0.2,0,0.3,0.1v0.2l0.2,24.2l-0.4,24.2L231,672.9c0,0.1,0,0.1,0,0.2l0,0l0,0
			l0,0C231,673,231,672.9,231,672.9z"/>
		<path class="st6" d="M223.7,656.7l-0.2-18.9l-0.5-18.9c-0.2-6.3-0.4-12.6-0.5-18.9s-0.2-12.6-0.2-18.9l0,0
			c0.3,6.3,0.4,12.6,0.6,18.9s0.2,12.6,0.4,18.9l0.3,18.9L223.7,656.7L223.7,656.7L223.7,656.7z"/>
		<path class="st6" d="M223.7,656.7l-0.1-18.9l-0.4-18.9l-0.4-18.9l-0.7-18.9l0,0c0,0,0.1,0,0.1-0.1c0.1,0,0.1,0,0.2,0.1
			c0.1,0.1,0,0.1,0,0.1v4.4l0.1,4.7l0.1,9.5l0.4,18.9l0.4,18.9l0.1,18.9l0,0l-0.4-18.9l-0.6-18.9l-0.4-18.9l-0.1-9.5v-9.2
			c0-0.1,0-0.1,0-0.2l0.1-0.2c0.1,0,0.2,0,0.2,0l0.1,0.1v0.2l0.6,18.9l0.3,18.9l0.3,18.9L223.7,656.7
			C223.6,656.8,223.6,656.8,223.7,656.7C223.6,656.9,223.6,656.8,223.7,656.7L223.7,656.7L223.7,656.7L223.7,656.7z"/>
		<path class="st6" d="M191.6,567.4c-2.5-0.7-5.1-1.1-7.7-1.1c-1.3,0-2.6,0.1-3.9,0.2c-0.3,0-0.7,0.1-0.8,0.1l0.2,0.3
			c0.1,0.1,0.1,0.3,0.2,0.4c0.3,0.6,0.7,1.1,1.1,1.6c1.8,1.9,3.7,3.6,5.9,5.1c2.1,1.5,4.4,2.8,6.8,3.9c4.8,2.1,9.7,3.9,14.7,5.3
			c2.5,0.8,5.1,1.2,7.6,1c2.6-0.2,5-1.5,6.7-3.5l0.1,0v0.1c-1.6,2.1-4,3.5-6.7,3.8c-2.6,0.3-5.3,0-7.8-0.8c-2.5-0.7-5-1.6-7.5-2.4
			c-2.5-0.9-4.9-1.9-7.3-3c-2.4-1.2-4.6-2.5-6.8-4c-2.2-1.5-4.2-3.2-5.9-5.2c-0.4-0.5-0.8-1.1-1.1-1.6l-0.2-0.4l-0.2-0.6
			c0.2,0,0.4-0.1,0.6-0.1l0.5-0.1c1.3-0.1,2.6-0.2,3.9-0.2C186.5,566.3,189.1,566.7,191.6,567.4l0.1,0L191.6,567.4z"/>
		<path class="st6" d="M191.6,567.4c-2.5-0.7-5.1-1.1-7.7-1.1c-1.3,0-2.6,0-3.9,0.2l-0.9,0.1H179v0.1l0.1,0.2l0.2,0.4
			c0.3,0.6,0.6,1.1,1.1,1.7c1.7,2,3.7,3.7,5.8,5.2c2.1,1.5,4.4,2.8,6.7,4c2.3,1.1,4.8,2.2,7.2,3l7.4,2.4c2.5,0.8,5.1,1.2,7.7,1
			c2.6-0.2,5-1.4,6.7-3.3l0.2-0.3l0.1-0.2l0,0c0.1,0,0.1,0.1,0.2,0.1c0,0.1,0,0.1,0.1,0.1l0,0c-1.7,2-4.1,3.3-6.7,3.6
			c-2.6,0.2-5.2-0.1-7.6-0.9c-4.9-1.4-9.7-3.1-14.4-5.2c-2.4-1.1-4.7-2.4-6.8-3.9c-2.2-1.4-4.2-3.1-6-5c-0.4-0.5-0.8-1-1.2-1.6
			c-0.2-0.3-0.3-0.6-0.5-0.9l-0.2-0.3v-0.1h0.2l0.6-0.1c1.3-0.2,2.6-0.2,3.9-0.2c2.6,0,5.2,0.4,7.8,1.1
			C191.6,567.3,191.7,567.4,191.6,567.4l-0.1,0c-2.5-0.6-5.1-1-7.7-0.9c-1.3,0-2.6,0.1-3.9,0.3c-0.4,0.1-0.5,0-0.4,0.2
			c0.1,0.3,0.3,0.6,0.5,0.8c0.3,0.5,0.7,1.1,1.2,1.5c1.8,1.9,3.8,3.5,6,4.9c2.2,1.5,4.4,2.7,6.8,3.8c4.7,2,9.5,3.7,14.4,5.2
			c2.4,0.8,4.9,1.1,7.4,0.9c2.5-0.2,4.8-1.4,6.5-3.4l0,0v-0.1h0.1c0.1,0,0.2,0,0.2,0.1v0.3l-0.1,0.2c-0.1,0.1-0.1,0.2-0.2,0.3
			c-1.8,2-4.3,3.3-7,3.5c-2.6,0.2-5.3-0.2-7.8-1l-7.4-2.6c-2.5-0.9-4.9-1.9-7.2-3.1c-2.3-1.2-4.6-2.5-6.7-4.1
			c-2.2-1.5-4.2-3.2-5.9-5.2c-0.4-0.5-0.7-1.1-1-1.7c-0.1-0.1-0.1-0.3-0.2-0.4c0-0.1-0.1-0.2-0.1-0.3c0-0.1-0.1-0.1,0-0.1h0.1
			c0.4-0.1,0.7-0.1,1-0.1C183.9,566,187.9,566.3,191.6,567.4l0.1,0C191.8,567.5,191.7,567.4,191.6,567.4L191.6,567.4L191.6,567.4z"
			/>
		<path class="st6" d="M216.1,577.5l2.5,1.4c0.4,0.2,0.8,0.5,1.2,0.8c0.4,0.3,0.8,0.6,1.1,1l0,0c-0.5-0.2-0.9-0.4-1.3-0.6
			c-0.4-0.3-0.8-0.5-1.2-0.8L216.1,577.5L216.1,577.5L216.1,577.5z"/>
		<path class="st6" d="M216.1,577.6L216.1,577.6l2.4,1.7l1.2,0.8l0.6,0.3l0.3,0.1l0.2,0.1h0.1c-0.1,0-0.1,0.1-0.1,0.1v0.1
			c-0.3-0.3-0.7-0.6-1.1-0.9c-0.4-0.2-0.8-0.5-1.2-0.7C217.7,578.7,216.9,578.1,216.1,577.6L216.1,577.6c0.9,0.3,1.8,0.7,2.7,1.2
			c0.4,0.2,0.9,0.5,1.3,0.8c0.4,0.3,0.7,0.6,1.1,1v0.1c0,0.1-0.1,0.2-0.1,0.2h-0.3l-0.2-0.1l-0.4-0.2l-0.6-0.4l-1.2-0.9l-2.3-1.8
			l0,0v0L216.1,577.6L216.1,577.6z"/>
		<path class="st6" d="M213.1,583.2c1.6-4,3.6-7.8,6-11.5c1.2-1.8,2.4-3.6,3.8-5.3c1.4-1.7,2.9-3.2,4.4-4.7l0,0
			c-1.4,1.6-2.8,3.3-4.1,5s-2.6,3.4-3.8,5.2C216.9,575.5,214.9,579.3,213.1,583.2L213.1,583.2C213.1,583.2,213.1,583.2,213.1,583.2z
			"/>
		<path class="st6" d="M213.1,583.2c3.5-7.9,8.3-15.1,14.2-21.4l0,0c-0.1-0.1,0.1,0.1,0.1,0.1l0,0l-0.1,0.1l-0.1,0.1l-0.3,0.3
			l-0.6,0.6c-0.4,0.4-0.8,0.8-1.1,1.2c-0.7,0.8-1.4,1.6-2.1,2.4c-1.3,1.7-2.6,3.4-3.8,5.2c-2.4,3.6-4.4,7.4-6.1,11.3L213.1,583.2
			c0.1-0.1,0.1-0.1,0.1-0.2c1.5-4,3.5-7.9,5.8-11.6c1.1-1.8,2.4-3.6,3.8-5.3c0.7-0.8,1.4-1.6,2.2-2.4c0.4-0.4,0.8-0.8,1.1-1.2
			l0.6-0.6l0.3-0.3l0.1-0.1l0.1-0.1l0,0c0.1-0.1,0.1-0.1,0.2-0.1c0.1,0,0.2,0.1,0.2,0.2c0,0.1,0,0.1,0,0.2v0.1l-0.1,0.1l-0.1,0.2
			l-0.3,0.3l-0.5,0.6l-1,1.2l-2.1,2.5l-4,5.2C217.1,575.5,214.9,579.3,213.1,583.2L213.1,583.2C213.1,583.2,213.1,583.2,213.1,583.2
			z"/>
		<path class="st6" d="M189.2,575.8c0.5-3.8,2-7.3,4.4-10.3c2.3-3,4.8-5.8,7.6-8.4c2.7-2.7,5.4-5.3,8.1-7.9s5.5-5.2,8.3-7.7h0.1
			c0.1,0,0,0,0,0.1c-2.6,2.7-5.3,5.4-7.9,8s-5.4,5.2-8.1,7.8c-2.8,2.5-5.4,5.3-7.6,8.3C191.4,568.6,189.9,572.1,189.2,575.8
			L189.2,575.8C189.3,575.9,189.2,575.9,189.2,575.8z"/>
		<path class="st6" d="M189.2,575.9c0.6-3.7,2.1-7.3,4.5-10.3c2.3-3,4.9-5.8,7.6-8.3l8.1-7.9l4-4l2-2l1-1l0.5-0.5l0.2-0.2l0.1-0.1
			c0.1,0,0-0.1,0.2,0v0.1c0,0.1,0,0,0.1,0.1l-0.1,0.1l-0.1,0.1l-0.2,0.2l-0.5,0.5l-1,1l-2,1.9l-4.1,3.9l-8.1,7.9
			c-2.8,2.5-5.3,5.3-7.6,8.3c-2.3,3-3.9,6.5-4.5,10.2v0.1c0,0,0-0.1,0-0.1c0.5-3.8,2-7.3,4.3-10.4c2.2-3.1,4.7-5.9,7.5-8.5l8.1-7.9
			l4.1-3.8l2.1-1.9l1-1l0.5-0.5l0.3-0.2l0.1-0.1l0.1-0.1l0.1-0.1h0.1c0.1,0,0.1,0,0.1,0.1c0,0,0.1,0.1,0.1,0.2c0,0.1,0,0.1-0.1,0.2
			l-0.1,0.1l-0.1,0.1l-0.2,0.2l-0.5,0.5l-1,1l-2,2l-4,4l-8.2,7.8c-2.8,2.5-5.4,5.3-7.7,8.2c-2.4,3-3.9,6.5-4.5,10.2v0.1
			c0,0.1,0,0-0.1,0l0,0C189.3,576,189.2,576,189.2,575.9z"/>
		<path class="st6" d="M179,566.7c-1.2,2.8-2,5.7-2.4,8.7c-0.4,3-0.6,6-0.8,9c-0.4,6-0.7,12-0.9,18.1s-0.2,12-0.2,18.1
			s0.1,12.1,0.2,18.1l0,0c-0.4-6-0.6-12-0.7-18.1s0.1-12.1,0.3-18.1s0.6-12,1-18.1c0.2-3,0.4-6,0.9-9
			C176.9,572.4,177.8,569.4,179,566.7c0-0.1,0-0.1,0-0.1C179,566.6,179,566.6,179,566.7z"/>
		<path class="st6" d="M178.9,566.6c-1.2,2.8-2,5.7-2.4,8.7c-0.5,3-0.6,6-0.9,9l-1,18.1l-0.2,18.1l0.7,18.1c0,0.1,0.1,0-0.2,0.1
			c0,0-0.1,0-0.1-0.1l0,0v-4.3l-0.1-4.5l-0.1-9l0.2-18.1l0.9-18.1c0.2-3,0.4-6,0.9-9c0.4-3,1.3-5.9,2.4-8.7c0-0.1,0.1-0.2,0.1-0.2
			c0,0.1,0,0.1-0.1,0.2c-1.1,2.8-1.9,5.7-2.2,8.7c-0.4,3-0.5,6-0.7,9l-0.8,18.1l-0.3,18l0.1,9v4.5v4.4c0,0,0,0.1-0.1,0.1
			s-0.2-0.1-0.2-0.1l0,0v-0.2l-0.6-18.1l0.3-18.1l1.1-18.1c0.3-3,0.4-6,0.9-9C176.9,572.3,177.7,569.4,178.9,566.6
			C178.9,566.6,178.9,566.6,178.9,566.6C179,566.6,178.9,566.6,178.9,566.6L178.9,566.6L178.9,566.6L178.9,566.6z"/>
		<path class="st6" d="M43.9,672.9c-0.4-6-0.7-12-0.8-18c0-1.5,0-3,0.1-4.5s0-3,0-4.5c-0.1-3-0.3-6-0.5-9c-0.6-6-1.7-11.8-3.4-17.6
			c-1.6-5.8-3.6-11.4-5.6-17.1l0,0c2.2,5.6,4.3,11.2,6,17c1.7,5.8,2.8,11.7,3.3,17.7c0.2,3,0.3,6,0.4,9v4.5c0,1.5-0.1,3-0.1,4.5
			C43.4,660.9,43.7,666.9,43.9,672.9l0,0.1C44,673,43.9,673,43.9,672.9z"/>
		<path class="st6" d="M44,672.9l-0.6-18l0.1-4.5v-4.5L43,637c-0.9-12-4.9-23.5-9.4-34.5v-0.1l0,0c0,0,0.1-0.1,0.1-0.1h0.2l0.1,0.3
			l0.2,0.5l0.4,1.1l0.7,2.1l1.5,4.3c1,2.8,1.9,5.7,2.7,8.6c1.7,5.7,2.9,11.6,3.6,17.6l0.5,9v4.5l-0.1,4.5l0.6,18l0,0l-0.9-18v-9
			l-0.5-9c-0.7-5.9-1.8-11.8-3.5-17.5c-0.8-2.9-1.7-5.8-2.6-8.6l-1.4-4.3l-0.7-2.1l-0.4-1.1l-0.2-0.5l-0.1-0.3c0,0,0-0.1,0-0.1
			l0.1-0.2c0.1-0.1,0.1-0.1,0.2,0h0.1v0c0,0.1,0.1,0.1,0.1,0.2c2.2,5.6,4.3,11.2,6,17c1.7,5.8,2.8,11.7,3.2,17.8l0.4,9v4.5l-0.1,4.5
			L44,672.9v0.2l0,0V673v0.1l0,0C44,673,44,673,44,672.9z"/>
		<path class="st6" d="M79.4,672.9c-3.1-6.3-6.1-12.7-9.4-18.9c-1.7-3.1-3.1-6.3-4.5-9.6c-1.2-3.3-2.3-6.7-3-10.2
			c-1.6-6.9-2.8-13.9-3.5-20.9c-0.3-3.5-0.4-7.1-0.1-10.6c0.2-3.5,1.1-7,2.6-10.2c0-0.1,0.1-0.1,0.1-0.1s0,0.1,0,0.1
			c-1.4,3.2-2.1,6.7-2.3,10.2c-0.2,3.5-0.1,7,0.2,10.5c0.7,7,1.9,14,3.4,20.8c0.7,3.4,1.7,6.8,2.9,10.1c1.3,3.3,2.7,6.5,4.4,9.6
			C73.5,660.1,76.4,666.5,79.4,672.9L79.4,672.9C79.5,673,79.4,673,79.4,672.9z"/>
		<path class="st6" d="M79.4,672.9c-3.1-6.3-6-12.8-9.3-19c-1.6-3.1-3.1-6.3-4.4-9.6c-1.2-3.3-2.2-6.7-2.9-10.2
			c-1.6-6.9-2.7-13.9-3.5-20.9c-0.4-3.5-0.5-7.1-0.3-10.6c0.1-1.8,0.3-3.5,0.7-5.3c0.2-0.9,0.4-1.7,0.7-2.6c0.1-0.4,0.3-0.8,0.4-1.3
			l0.2-0.6l0.1-0.3l0.1-0.2v0h0.1c0.1,0,0,0,0.1,0.1l0.1,0.1l0,0v0.1l-0.1,0.2l-0.1,0.3l-0.3,0.6c-0.2,0.4-0.3,0.8-0.5,1.2
			c-0.3,0.8-0.5,1.7-0.7,2.5c-0.4,1.7-0.7,3.4-0.8,5.2c-0.2,3.5-0.2,7,0.1,10.5c0.7,7,1.9,14,3.5,20.9c0.7,3.4,1.7,6.8,2.9,10.1
			c1.3,3.3,2.8,6.5,4.4,9.6c3.3,6.2,6.3,12.6,9.3,19C79.4,672.8,79.4,672.9,79.4,672.9c-0.1,0-0.1-0.1-0.2-0.2
			c-3.2-6.3-6.2-12.7-9.6-18.9c-1.7-3.1-3.2-6.3-4.5-9.6c-1.2-3.3-2.3-6.7-3-10.2c-1.7-6.9-2.8-13.8-3.5-20.9
			c-0.3-3.5-0.3-7.1,0-10.6c0.2-3.6,1.1-7.1,2.7-10.3l0.2-0.1c0.3,0.1,0.2,0.2,0.2,0.2v0.2l-0.1,0.2l-0.1,0.3l-0.2,0.6
			c-0.2,0.4-0.3,0.8-0.4,1.2c-0.3,0.8-0.5,1.7-0.7,2.5c-0.4,1.7-0.6,3.5-0.7,5.2c-0.2,3.5-0.1,7,0.2,10.5c0.7,7,1.7,14,3.2,20.8
			c0.7,3.5,1.7,6.8,2.9,10.2c1.3,3.3,2.7,6.5,4.3,9.6C73.5,660.1,76.4,666.5,79.4,672.9C79.5,672.9,79.5,672.9,79.4,672.9
			L79.4,672.9L79.4,672.9L79.4,672.9L79.4,672.9z"/>
		<path class="st6" d="M93.6,673c0.4-5.9,0.8-11.7,1.1-17.6l0.4-8.8c0.2-2.9,0.3-5.9,0.5-8.8l0,0c0.1,2.9,0,5.9,0,8.8
			s-0.3,5.9-0.5,8.8C94.7,661.3,94.2,667.1,93.6,673L93.6,673L93.6,673z"/>
		<path class="st6" d="M93.7,673c0.8-11.7,2.2-23.5,1.8-35.2h0.2v2.1l-0.1,2.2l-0.2,4.4l-0.4,8.8c-0.4,5.9-0.8,11.8-1.3,17.6
			L93.7,673C93.6,673,93.6,672.9,93.7,673c0.2-6,0.5-11.9,0.8-17.7l0.4-8.8l0.3-4.4l0.1-2.2l0.1-1.1v-1c0,0,0-0.1,0.2-0.2
			s0.2,0.1,0.2,0.2v0.1C96.1,649.6,94.6,661.3,93.7,673L93.7,673L93.7,673z"/>
		<path class="st6" d="M205.3,359.6c-6.8,6.2-13.7,12.3-20,19c-1.5,1.7-2.9,3.5-4.2,5.4l-1.9,2.9c-0.6,1-1.1,2-1.7,3
			c-2.2,4-4.2,8.2-6.4,12.2c-0.1,0.1-0.1-0.1,0,0l0,0c1.9-4.2,3.8-8.4,6-12.5c0.5-1,1.1-2,1.7-3s1.2-1.9,1.9-2.9
			c1.3-1.9,2.7-3.7,4.3-5.4C191.5,371.7,198.5,365.8,205.3,359.6l0.1,0C205.4,359.6,205.3,359.6,205.3,359.6z"/>
		<path class="st6" d="M205.3,359.5c-6.8,6.2-13.8,12.2-20.2,18.8c-1.6,1.7-3,3.5-4.3,5.4l-1.8,2.9l-1.7,3l-5.9,12.5v0.1l-0.1-0.1
			c-0.1,0,0-0.1,0,0l0,0c0,0-0.1-0.1-0.1-0.1l0,0l6.3-12.2l1.7-3l1.9-2.9c1.2-1.9,2.6-3.8,4.2-5.5c6.4-6.7,13.3-12.7,20.2-18.9
			c0.1-0.1,0.1-0.1,0.1-0.1c0,0,0,0.1-0.1,0.1c-6.7,6.4-13.6,12.5-19.8,19.2c-1.5,1.7-2.9,3.5-4.1,5.4l-1.8,2.9l-1.7,3l-6.3,12.1
			l0,0l-0.1,0.1l0,0c0,0-0.1,0-0.1,0c-0.1-0.1-0.1-0.1-0.1-0.1c0,0,0-0.1,0-0.1c-0.1,0-0.1,0-0.2,0c0,0,0.1-0.1,0.1-0.1
			c0,0,0.1,0,0.1,0c0,0,0,0,0.1,0.1l-0.1-0.1h0.1c0.1,0,0.1,0.1,0.1,0.2c0,0,0,0.1,0,0.1h-0.1c-0.1,0-0.2-0.1-0.2-0.2V402l0,0v-0.1
			l6-12.5l1.7-3l1.9-2.9c1.3-1.9,2.7-3.7,4.3-5.4c6.4-6.6,13.5-12.6,20.3-18.7h0.1c0.1,0,0,0.1,0,0.1L205.3,359.5
			C205.3,359.5,205.4,359.5,205.3,359.5z"/>
		<path class="st6" d="M176,297.2l3.3-2.6c0.6-0.4,1.1-0.9,1.6-1.3c0.6-0.4,1.2-0.7,1.8-1l0,0c-0.5,0.5-1,1-1.6,1.4
			c-0.5,0.4-1.1,0.8-1.7,1.2L176,297.2L176,297.2L176,297.2z"/>
		<path class="st6" d="M176.1,297.2l3.4-2.4l1.7-1.2l0.8-0.7l0.4-0.4l0.2-0.2l0.1-0.1h0.1l0.1,0.1l0,0c-0.1-0.2,0.1,0.2,0.1,0.2
			h-0.1l-0.1,0.1l-0.2,0.1L182,293l-0.9,0.5c-0.6,0.4-1.1,0.9-1.6,1.3C178.4,295.6,177.2,296.5,176.1,297.2L176.1,297.2
			c1-0.9,2.1-1.8,3.1-2.7c0.6-0.4,1.1-0.9,1.7-1.3l0.9-0.5l0.5-0.3l0.2-0.1l0.1-0.1h0.1c0.1,0,0.1,0,0.2,0c0.1,0,0.1,0.2,0,0.3
			l-1.6,1.4l-1.7,1C178.4,295.7,177.3,296.5,176.1,297.2L176.1,297.2L176.1,297.2z"/>
		<path class="st6" d="M172.8,317.9c0.4-3.7,0.9-7.3,1.5-10.9c0.3-1.8,0.6-3.6,1.1-5.4s0.9-3.6,1.5-5.3l0,0
			c-0.3,1.8-0.7,3.6-1.1,5.4l-1.2,5.4C173.9,310.6,173.3,314.3,172.8,317.9L172.8,317.9z"/>
		<path class="st6" d="M172.9,317.9l1.7-10.9l1.1-5.4l0.5-2.7l0.3-1.4l0.1-0.7l0.1-0.3v-0.3h0.2l0.2,0l0,0v0.1l-0.1,0.2l-0.1,0.3
			l-0.2,0.7l-0.4,1.3l-0.7,2.6l-1,5.5C174,310.6,173.5,314.2,172.9,317.9L172.9,317.9c0.4-3.7,0.8-7.4,1.3-11
			c0.4-1.8,0.7-3.6,1.1-5.4l0.8-2.6l0.4-1.3l0.2-0.7l0.1-0.3v-0.2l0,0c0,0,0-0.1,0.1-0.1c0.1-0.1,0.3,0,0.4,0.1c0,0,0,0.1,0,0.1v0.3
			L177,297l-0.1,0.7l-0.2,1.3l-0.6,2.7l-1.2,5.4L172.9,317.9C172.8,318,172.8,317.9,172.9,317.9C173,318.1,172.9,317.9,172.9,317.9z
			"/>
		<path class="st6" d="M183.5,351.5c-1.4-5.8-3-11.6-4.9-17.3c-0.9-2.8-2-5.6-3-8.5s-2.1-5.6-3.1-8.4v-0.1l0,0
			c1.3,2.7,2.4,5.5,3.5,8.3s2,5.6,2.9,8.5C180.7,339.8,182.2,345.6,183.5,351.5L183.5,351.5C183.5,351.5,183.5,351.6,183.5,351.5z"
			/>
		<path class="st6" d="M183.5,351.6c-1.3-5.9-2.8-11.6-4.6-17.4l-2.9-8.5l-3.6-8.2h0.1v0h0.2v0.1l0.1,0.3l0.2,0.5l0.4,1l0.8,2.1
			l1.6,4.2l3,8.5c1.9,5.7,3.4,11.5,4.7,17.4v0.1l-0.1-0.1c-1.5-5.8-3.2-11.5-5.1-17.2l-3-8.5l-1.5-4.2l-0.8-2.1l-0.4-1l-0.2-0.5
			l-0.1-0.3v-0.1c0,0,0-0.1,0-0.1c0-0.1,0-0.1,0.1-0.1c0.1,0,0.2,0,0.2,0c0.1,0,0.1,0.1,0.1,0.1l3.5,8.3l2.9,8.5
			C180.8,339.9,182.3,345.7,183.5,351.6C185.4,360.4,183.5,351.6,183.5,351.6L183.5,351.6C183.5,351.6,183.5,351.6,183.5,351.6z"/>
		<path class="st6" d="M157.4,286.5c0.9-0.2,1.8-0.2,2.6,0.1c0.9,0.2,1.7,0.3,2.6,0.4c1.7,0.2,3.5,0.3,5.3,0.2
			c1.8-0.1,3.5-0.1,5.3-0.1s3.5-0.1,5.3,0l0,0c-1.8,0.2-3.5,0.3-5.3,0.5s-3.5,0-5.3,0c-1.8,0-3.5-0.1-5.3-0.4
			c-0.9-0.1-1.7-0.3-2.6-0.5C159.2,286.3,158.3,286.2,157.4,286.5L157.4,286.5C157.4,286.4,157.4,286.5,157.4,286.5z"/>
		<path class="st6" d="M157.4,286.5c0.9-0.2,1.8-0.1,2.6,0.1l2.6,0.5c1.7,0.3,3.5,0.4,5.3,0.4l5.3-0.1l5.3-0.5l0,0v0.2l0,0v0.2h-5.2
			l-5.3,0.1c-1.8,0.1-3.6,0-5.3-0.3l-2.6-0.5C159.2,286.3,158.3,286.2,157.4,286.5L157.4,286.5c0.9-0.3,1.8-0.3,2.7-0.1l2.6,0.3
			c1.7,0.2,3.5,0.2,5.2,0.1c1.8-0.1,3.5-0.1,5.3-0.1h5.3c0.1,0.1,0.1,0.2,0.1,0.3l0,0c0,0.1-0.1,0.1-0.2,0.1l-5.3,0.4h-5.3
			c-1.8,0-3.5-0.1-5.3-0.4l-2.6-0.4C159.2,286.4,158.3,286.4,157.4,286.5C157.3,286.4,157.4,286.4,157.4,286.5
			C157.4,286.5,157.4,286.5,157.4,286.5z"/>
		<path class="st6" d="M160.1,292.5c-0.7-0.6-1.4-1.1-2.1-1.6c-0.4-0.2-0.8-0.5-1.1-0.7c-0.4-0.3-0.7-0.6-1-0.9l0,0
			c0.4,0.1,0.9,0.3,1.3,0.5c0.4,0.2,0.7,0.5,1.1,0.8C158.8,291.2,159.5,291.8,160.1,292.5L160.1,292.5z"/>
		<path class="st6" d="M160.1,292.5L160.1,292.5c-1.3-1.2-2.4-2.7-4.2-3.1h0.1c0.1,0,0.1-0.1,0.1-0.1v-0.1l1,0.8
			c0.4,0.2,0.7,0.5,1.1,0.7C158.8,291.2,159.5,291.8,160.1,292.5L160.1,292.5c-0.7-0.4-1.4-0.9-2.2-1.5c-0.4-0.2-0.7-0.5-1.1-0.8
			l-1-0.9l-0.1-0.1v-0.1c0-0.1,0-0.2,0.1-0.2h0.1c0.4,0.1,0.9,0.3,1.3,0.6c0.4,0.3,0.7,0.6,1,0.9L160.1,292.5L160.1,292.5
			L160.1,292.5z"/>
		<path class="st6" d="M162.4,323.1l-1.3-15.4c-0.2-2.6-0.5-5.1-0.6-7.7s-0.3-5.1-0.3-7.7l0,0c0.3,2.6,0.6,5.1,0.8,7.7
			s0.4,5.1,0.5,7.7L162.4,323.1L162.4,323.1L162.4,323.1z"/>
		<path class="st6" d="M162.5,323.1l-1-15.4l-0.6-7.7l-0.4-3.8l-0.2-1.9l-0.1-1v-1h0.3v1.9l0.1,1.9l0.2,3.9l0.6,7.7
			c0.4,5.1,0.8,10.3,1.1,15.5l0,0c-0.6-5.1-1-10.3-1.5-15.4l-0.6-7.7l-0.1-3.9l-0.1-1.9v-1.9c0,0-0.1-0.1,0.1-0.2
			c0.1-0.1,0.2-0.1,0.3,0c0,0,0,0,0,0c0,0,0,0.1,0.1,0.1l0.7,7.7l0.5,7.7l0.9,15.5C162.6,323.1,162.5,323.1,162.5,323.1L162.5,323.1
			C162.5,323.1,162.5,323.2,162.5,323.1z"/>
		<path class="st6" d="M156.5,345.8l2.9-12c0.5-2,1-4,1.5-6s1.1-4,1.8-5.9l0,0c-0.4,2-0.9,4-1.4,6s-1.1,4-1.6,6L156.5,345.8
			L156.5,345.8L156.5,345.8z"/>
		<path class="st6" d="M156.6,345.8c2.1-7.9,4.4-15.8,6.2-23.8l0,0l0.1,0l0,0v0.1l-0.1,0.2l-0.1,0.4l-0.2,0.7l-0.4,1.5l-0.9,3
			l-1.5,6C158.7,337.9,157.7,341.9,156.6,345.8L156.6,345.8C156.6,345.8,156.6,345.8,156.6,345.8c0.9-4.1,1.8-8.1,2.8-12.1
			c0.5-2,1-4,1.5-6l0.9-3l0.5-1.5l0.2-0.7l0.1-0.4l0.1-0.2v0c0-0.1,0.1-0.2,0.2-0.2c0.1,0,0.2,0.1,0.2,0.2c0,0,0,0,0,0l-1.4,6
			L160,334L156.6,345.8C156.5,345.9,156.6,345.8,156.6,345.8C156.6,345.8,156.6,345.9,156.6,345.8z"/>
		<path class="st6" d="M169.7,275.9c0.4-0.1,0.8-0.1,1.2-0.2c0.4-0.1,0.8-0.3,1.1-0.6l1.9-1.6c1.2-1.1,2.5-2.2,3.7-3.4
			c2.4-2.3,4.8-4.6,7.1-7s4.4-4.9,6.6-7.5c1-1.3,2.2-2.5,2.7-4.1c0.2-0.8,0.2-1.6-0.1-2.3c-0.3-0.8-0.9-1.4-1.6-1.7l0,0
			c0.8,0.2,1.5,0.8,1.9,1.5c0.4,0.8,0.5,1.7,0.3,2.5c-0.5,1.7-1.7,2.9-2.7,4.3c-2.1,2.6-4.3,5.1-6.7,7.5c-2.3,2.4-4.8,4.7-7.2,6.9
			c-1.2,1.1-2.5,2.2-3.8,3.3l-1.9,1.6c-0.3,0.3-0.7,0.5-1.1,0.6C170.6,275.8,170.2,275.9,169.7,275.9L169.7,275.9L169.7,275.9z"/>
		<path class="st6" d="M169.7,275.9l1.2-0.2c0.4-0.1,0.8-0.3,1.1-0.6l1.9-1.6l3.7-3.3l7.2-6.9c2.3-2.4,4.5-4.9,6.6-7.5
			c1.1-1.2,2-2.6,2.6-4.2c0.2-0.8,0.2-1.6-0.1-2.3c-0.3-0.7-0.8-1.3-1.5-1.7h-0.3v-0.1l0,0v-0.1c0,0,0,0,0.1,0l0,0v-0.1l0,0l0.2,0.1
			c0.2,0.1,0.4,0.2,0.6,0.3c0.3,0.3,0.6,0.6,0.8,1c0.4,0.8,0.6,1.7,0.4,2.6c-0.4,1.7-1.7,3-2.7,4.3c-2.2,2.5-4.4,5-6.6,7.6l-7.1,7
			l-3.7,3.2l-1.9,1.6c-0.3,0.3-0.7,0.5-1.1,0.6C170.6,275.8,170.2,275.8,169.7,275.9L169.7,275.9c1.9,0,2.9-1.6,4.2-2.6l3.6-3.4
			l7-7.1l6.6-7.5c1-1.3,2.2-2.5,2.6-4.1c0.2-0.8,0-1.6-0.4-2.3c-0.2-0.3-0.4-0.7-0.7-0.9c-0.1-0.1-0.3-0.2-0.5-0.3H192
			c0,0-0.1,0-0.1-0.1c0,0-0.1,0-0.1-0.1c-0.1-0.1-0.1-0.2,0-0.3c0.1-0.1,0.1,0,0.2,0c0.1,0,0.2,0,0.4,0.1c0.8,0.4,1.5,1,1.8,1.9
			c0.4,0.8,0.4,1.7,0.1,2.6c-0.5,1.7-1.7,2.9-2.7,4.2c-2.1,2.6-4.3,5.1-6.7,7.4l-7.2,6.9l-3.6,3.2l-2,1.6c-0.3,0.3-0.7,0.5-1.1,0.6
			L169.7,275.9L169.7,275.9C169.6,276,169.6,276,169.7,275.9L169.7,275.9C169.6,275.9,169.6,276,169.7,275.9z"/>
		<path class="st6" d="M145.3,250.7c-0.9,1-1.7,2.2-2.2,3.4c-0.6,1.2-1.1,2.5-1.6,3.8c-1,2.6-1.9,5.2-2.6,7.8
			c-1.3,5.3-2,10.8-2,16.3c-0.1,2.7-0.1,5.5,0.1,8.2c0.3,2.7,0.8,5.4,1.4,8.1c1.3,5.3,3,10.6,4.9,15.7c3.7,10.4,7.8,20.5,12.4,30.6
			s9.5,19.8,14.8,29.5c0,0,0.1,0.1,0.1,0.2c0,0-0.1-0.1-0.1-0.1c-5.6-9.5-10.6-19.3-15.2-29.3s-8.6-20.2-12.3-30.6
			c-1.9-5.2-3.5-10.4-4.8-15.8c-0.6-2.7-1.1-5.4-1.4-8.1c-0.2-2.8-0.2-5.5-0.1-8.3c0-5.5,0.7-11,2.1-16.3c0.7-2.7,1.6-5.3,2.7-7.8
			c0.5-1.3,1-2.6,1.7-3.8C143.5,252.9,144.3,251.7,145.3,250.7c0-0.1,0.1-0.2,0.1-0.1S145.4,250.6,145.3,250.7z"/>
		<path class="st6" d="M145.3,250.7c-0.9,1-1.7,2.2-2.3,3.4l-1.7,3.8c-1,2.6-1.9,5.2-2.6,7.8c-1.3,5.3-2,10.8-2,16.3
			c-0.1,2.7-0.1,5.5,0.1,8.2c0.3,2.7,0.7,5.5,1.4,8.1c1.3,5.3,2.9,10.6,4.8,15.8c7.2,20.8,16.4,40.9,27.5,59.9
			c0,0.1,0.1,0.1,0.1,0.2l-0.1,0.1c-0.1,0.1,0,0.1-0.1,0.1h-0.1v-0.1l-0.2-0.5l-0.5-0.9l-1-1.8l-2-3.6c-1.3-2.4-2.6-4.9-3.8-7.3
			c-2.5-4.9-4.9-9.9-7.1-14.9c-4.6-10-8.7-20.2-12.4-30.6c-1.9-5.2-3.5-10.4-4.9-15.8c-0.6-2.7-1.1-5.4-1.4-8.1
			c-0.2-2.7-0.3-5.5-0.1-8.3c0-5.5,0.7-11,2-16.4c0.7-2.7,1.6-5.3,2.6-7.8c1.1-2.5,2-5.2,3.8-7.3
			C145.2,250.9,145.2,250.8,145.3,250.7c0,0.2-0.1,0.3-0.2,0.3c-1.8,2.1-2.6,4.8-3.7,7.3c-1,2.6-1.8,5.2-2.5,7.8
			c-1.3,5.3-1.9,10.8-1.9,16.3c-0.3,5.5,0.2,11,1.6,16.3c1.4,5.3,3,10.6,4.9,15.7c3.7,10.4,7.9,20.6,12.4,30.6
			c2.3,5,4.6,10,7.1,14.9c1.2,2.5,2.5,4.9,3.8,7.3l1.9,3.6l1,1.8l0.5,0.9l0.2,0.5l0.1,0.1v0.1c-0.1,0,0.1,0-0.2,0.2
			c-0.2,0-0.1,0-0.2-0.1l0,0c-0.1-0.1-0.1-0.2-0.2-0.2c-11-19.1-20.2-39.2-27.4-60c-1.9-5.2-3.4-10.4-4.7-15.8
			c-0.6-2.7-1.1-5.4-1.3-8.1c-0.2-2.7-0.2-5.5-0.1-8.2c0-5.5,0.7-11,2.1-16.3c0.7-2.6,1.6-5.3,2.7-7.8l1.6-3.8
			C143.6,252.8,144.3,251.7,145.3,250.7l0.1-0.1h0.1c0.1,0,0,0,0,0.1l0,0C145.4,250.6,145.4,250.7,145.3,250.7c0.1,0,0.1,0,0.1-0.1
			l0,0L145.3,250.7z"/>
	</g>
</g>
<g id="doctor_stethoscope">
	<g>
		<defs>
			<path id="SVGID_1_" d="M43.1,392.7c3.6,8.3,145.1,125.7,169.4,115.4c36.4-24,66.4-149.3,64.6-162.4
				c-13.8-38.5-90.4-135-87.9-137.6c0.6-0.7,3,44.1,2.7,43.5c-0.6-1.2-44.6,0.6-44.6,0.3c-0.1-3.6,1-41.6,1-41.6s1-7.1-0.8-6.7
				S41.1,388.1,43.1,392.7z"/>
		</defs>
		<clipPath id="SVGID_00000056392875415050608620000006284629048400467622_">
			<use xlink:href="#SVGID_1_"  style="overflow:visible;"/>
		</clipPath>
		<g style="clip-path:url(#SVGID_00000056392875415050608620000006284629048400467622_);">
			<path class="st6" d="M133.9,390.2c-1.8-3.2-3.3-6.4-4.7-9.8c-1.4-3.3-2.8-6.6-4.1-10c-2.7-6.7-4.7-13.7-6.1-20.8l-0.6-2.7
				c-0.2-0.9-0.3-1.8-0.4-2.7l-0.8-5.4c-0.2-1.8-0.3-3.6-0.4-5.4l-0.2-2.7l-0.1-2.7c0-1.8-0.1-3.6-0.1-5.4l0.2-5.4
				c0-1.8,0.2-3.6,0.4-5.4s0.3-3.6,0.5-5.4c0.9-7.2,2.3-14.4,4.1-21.4c1.9-7,4.3-13.9,7.2-20.6l2.3-5c0.8-1.7,1.7-3.2,2.5-4.9
				c0.9-1.7,1.8-3.3,2.9-4.9c1.1-1.6,2.3-3.1,3.6-4.6c2.6-2.9,5.7-5.4,9.1-7.3c3.4-1.9,7-3.3,10.8-4.1c3.7-0.8,7.5-1.3,11.3-1.4
				c4-0.1,8,0.5,11.8,1.9c3.7,1.3,7.2,3,10.4,5.3c1.6,1.1,3.2,2.4,4.7,3.7c0.8,0.8,1.6,1.6,2.3,2.5l1.6,2.3
				c4.2,6.2,7.6,12.9,10.2,19.9c1.3,3.5,2.5,7,3.4,10.5c0.9,3.6,1.8,7.1,2.5,10.8c0.7,3.6,1.2,7.2,1.6,10.9s0.7,7.2,1,10.8
				c0.6,7.2,0.9,14.5,0.8,21.7c0,3.6-0.1,7.2-0.2,10.8l-0.2,5.5c-0.2,1.9-0.5,3.8-1.1,5.6c-0.5,1.8-1.2,3.6-2,5.3
				c-0.8,1.7-1.8,3.3-3,4.8c-2.3,3-5.4,5.2-8.9,6.4l-0.2-0.5c3-1.7,5.6-4.2,7.4-7.2c0.9-1.5,1.6-3,2.2-4.6c0.5-1.6,1-3.3,1.2-5
				c0.3-1.7,0.4-3.3,0.4-5l-0.4-5.3l-0.8-10.7c-0.5-7.1-1.2-14.1-2.2-21.2c-0.5-3.5-1-7.1-1.6-10.5s-1.2-6.9-2-10.3
				s-1.6-6.8-2.6-10.1s-2.1-6.6-3.3-9.9c-2.3-6.4-5.4-12.6-9.1-18.4l-1.4-2.1c-0.4-0.5-0.8-1-1.3-1.5c-1.1-1.1-2.4-2.1-3.7-3.1
				c-2.6-1.9-5.5-3.5-8.5-4.7c-2.9-1.2-6.1-1.8-9.2-1.8c-3.4,0-6.7,0.3-10,0.9c-6.5,1.2-12.4,4.4-17,9.1c-1.1,1.2-2.2,2.5-3.1,3.8
				c-1,1.4-1.9,2.8-2.7,4.3c-0.8,1.5-1.8,3-2.5,4.6l-2.3,4.7c-2.9,6.4-5.4,13-7.5,19.7c-2,6.8-3.5,13.7-4.6,20.6
				c-0.3,1.7-0.4,3.5-0.7,5.2s-0.5,3.5-0.5,5.3l-0.4,5.3c-0.1,1.8-0.1,3.5-0.1,5.3v2.6l0.1,2.6l0.2,5.3l0.5,5.3
				c0.1,0.9,0.2,1.8,0.3,2.6l0.4,2.6c1.1,7,2.8,13.9,5.2,20.6c1.2,3.4,2.4,6.7,3.7,10.1c1.2,3.3,2.6,6.6,4.2,9.8L133.9,390.2z"/>
			<path class="st6" d="M184.7,424.4c-2.4-9.9-2-20.3,0.9-30c1.5-5,3.7-9.7,6.6-14c1.5-2.2,3.2-4.3,5.1-6.1c1-1,2.1-1.9,3.2-2.7
				c0.3-0.2,0.6-0.4,0.9-0.6s0.7-0.4,1-0.6c0.3-0.2,0.7-0.4,1.1-0.5c0.2-0.1,0.5-0.2,0.8-0.3s0.5-0.1,0.8-0.2l0.7-0.2l0.7-0.1
				c0.5,0,1,0,1.5,0.1c0.5,0.1,1,0.3,1.5,0.5c0.5,0.2,0.9,0.5,1.4,0.8c0.2,0.2,0.4,0.3,0.7,0.5l0.5,0.4c1.1,0.9,2.1,1.9,3,3
				c1.6,2,3.1,4.1,4.5,6.3c2.7,4.2,4.8,8.8,6.4,13.5c1.6,4.9,2.8,9.9,3.5,15c0.3,2.6,0.4,5.2,0.3,7.8c-0.1,1.3-0.2,2.6-0.4,3.9
				c-0.3,1.3-0.6,2.5-1.1,3.7l-0.5-0.1c-0.6-4.8-1.8-9.5-3.7-14c-1.7-4.5-3.6-8.9-5.7-13.2c-2-4.2-3.9-8.4-6-12.4
				c-1-2-2.1-3.9-3.3-5.8c-0.5-0.8-1.1-1.6-1.8-2.3c-0.1-0.1-0.1-0.1-0.2-0.2c0-0.1-0.1-0.1-0.1-0.1c-0.1-0.1-0.2-0.2-0.3-0.2h-0.4
				c-0.2,0.1-0.4,0.2-0.6,0.2c-0.2,0.1-0.4,0.2-0.6,0.3c-0.2,0.1-0.4,0.2-0.6,0.4c-0.9,0.6-1.8,1.3-2.6,2c-1.7,1.5-3.3,3.1-4.7,4.9
				c-3,3.7-5.4,7.7-7.3,12.1c-3.7,9-5.1,18.7-4.1,28.4L184.7,424.4z"/>
			<path class="st6" d="M194.9,468.7c0.4,2,0.5,4.1,0.2,6.1c-0.1,1-0.3,2-0.5,3c-0.1,0.3-0.1,0.5-0.2,0.8s-0.2,0.6-0.3,0.9
				c-0.2,0.6-0.4,1.2-0.7,1.9l-0.3,0.3c-0.2,0.1-0.3,0.1-0.5,0.1c-0.3,0.1-0.7,0.1-1,0.1c-0.7,0-1.4-0.2-2-0.5
				c-0.7-0.3-1.2-0.8-1.7-1.4c-0.2-0.3-0.5-0.6-0.6-0.9c-0.2-0.3-0.3-0.6-0.4-0.9c-0.4-1.1-0.7-2.3-0.8-3.4l-0.3-3.1
				c-0.4-4.2-0.8-8.5-1.1-12.7c-0.6-6.2-1-12.4-1-18.7c0-3.1,0-6.2,0.2-9.4c0.1-1.6,0.2-3.1,0.4-4.7c0.1-1.6,0.3-3.1,0.6-4.7h0.3
				c0.4,1.5,0.6,3.1,0.9,4.6s0.5,3.1,0.6,4.6c0.4,3.1,0.6,6.2,0.8,9.3c0.6,6.2,0.5,12.4,0.7,18.6c0.2,4.2,0.4,8.5,0.5,12.7l0.1,3.2
				c0,1,0.1,1.9,0.4,2.8c0.1,0.2,0.1,0.4,0.2,0.6c0.1,0.1,0.1,0.3,0.2,0.4c0.2,0.3,0.4,0.5,0.6,0.7c0.3,0.2,0.6,0.3,0.9,0.4
				c0.2,0,0.3,0,0.5,0c0.1,0,0.2,0,0.2,0l0.1-0.2c0.1-0.3,0.3-0.6,0.4-0.9l0.2-0.5c0.1-0.2,0.2-0.5,0.2-0.7c0.3-0.9,0.6-1.8,0.8-2.8
				c0.4-1.9,0.6-3.9,0.6-5.8L194.9,468.7z"/>
			<path class="st6" d="M210.4,470.5c0,1.6,0,3.2-0.1,4.8c0,0.7,0,1.5,0.1,2.2c0.1,0.6,0.4,1.1,0.9,1.5c1,0.6,2.1,0.2,3.2-0.5
				c0.6-0.4,1.1-0.9,1.5-1.4c0.4-0.6,0.8-1.2,1.2-1.8c1.4-2.7,2.4-5.6,3-8.6c0.8-3,1.4-6.1,2-9.2c1.1-6.2,1.6-12.4,2.7-18.6l1.6-9.3
				c0.6-3.1,1.2-6.2,2-9.4h0.3c0.9,6.4,1.1,12.8,0.5,19.2c-0.6,6.4-1.8,12.7-3.6,18.9c-0.8,3.1-1.7,6.2-2.7,9.2
				c-0.5,1.5-1,3-1.6,4.6c-0.6,1.6-1.3,3.1-2.1,4.5c-0.4,0.7-1,1.4-1.6,2.1c-0.6,0.7-1.3,1.2-2.1,1.7c-0.8,0.5-1.8,0.8-2.7,0.9
				c-1,0.1-2.1-0.2-2.9-0.9c-0.7-0.7-1.2-1.6-1.2-2.6c-0.1-0.8,0-1.7,0.1-2.5c0.2-1.6,0.5-3.1,0.8-4.7L210.4,470.5z"/>
			<path class="st13" d="M120.5,375.4c-4.6,5.8-3.9,19.8,7.3,19.3c7.7-0.4,12.8-4.6,12.8-11.2C140.6,373.6,126.9,367.4,120.5,375.4z
				"/>
		</g>
	</g>
</g>
<path class="st14" d="M12,0h267c6.6,0,12,5.4,12,12v649c0,6.6-5.4,12-12,12H12c-6.6,0-12-5.4-12-12V12C0,5.4,5.4,0,12,0z"/>
</svg>
