<svg id="artwork" xmlns="http://www.w3.org/2000/svg" viewBox="0 0 245 730"><defs><style>.cls-1{fill:#d9cec5;}.cls-2{fill:#69564b;}.cls-3,.cls-4{fill:#2d2d2d;}.cls-4{fill-rule:evenodd;}.cls-5{fill:none;stroke:#2d2d2d;stroke-miterlimit:10;}.cls-6{fill:#f2eae4;}.cls-7{fill:#462e13;}</style></defs><g id="eyes_thinking5"><g id="white"><path class="cls-1" d="M169.45,110c8.37,6,7.42,20.65-2.63,23.46-7.43,2.07-15.35,1.08-19.55-6.92-2.9-5.53.28-15.34,6-17.23C159.41,107.29,163.61,105.82,169.45,110Z"/><path class="cls-1" d="M97.61,109c-.46.21-.55,2.13-1,2.38A11.42,11.42,0,0,0,92.37,117c-1.81,4.79-3.76,9.52,3.56,14.86,4.11,3,11.77,3.24,16,.58,8.71-5.47,10.7-11.19,6-16.42-2.22-2.49-3-5.34-6-6.21C108.05,108.7,101.66,107.14,97.61,109Z"/></g><g id="iris"><path class="cls-2" d="M100,109.57c2.1-.25,5.11.54,5.82,3.07,1.18,4.18-5.4,9.32-9.28,8.2A4.23,4.23,0,0,1,94,117.6C92.93,113.33,96.16,110,100,109.57Z"/><path class="cls-2" d="M156.12,108.79c2.11-.23,5.11.58,5.8,3.11,1.14,4.2-5.48,9.29-9.35,8.13a4.21,4.21,0,0,1-2.51-3.26C149.06,112.5,152.32,109.21,156.12,108.79Z"/></g><g id="iris_outline"><path class="cls-3" d="M101.18,119.26a31.84,31.84,0,0,1-1.92-5s0-.1,0-.14,0,0,0,0l0,0,.09.24a36,36,0,0,1,1.81,4.85Z"/><path class="cls-3" d="M97.66,120.52c.49-1.67.9-3.34,1.52-5a18.49,18.49,0,0,1-1.52,5Z"/><path class="cls-3" d="M94.78,119.53a35.22,35.22,0,0,1,3.9-4.21c-1,1.66-2.7,2.8-3.9,4.21Z"/><path class="cls-3" d="M93.67,114.23c1.69.38,3.57-.43,5.15.52-1.62-.41-3.56,0-5.15-.52Z"/><path class="cls-3" d="M97.42,108.81a23.58,23.58,0,0,1,1.37,4.32c0,.18.17.51,0,.66-.64-1.58-.84-3.41-1.42-5Z"/><path class="cls-3" d="M105.09,115.11c-1-.45-2.24.06-3.35-.12a2.61,2.61,0,0,1-1.1-.25s0,0,0,0,0,0,0,0h0s0-.06,0,0c.73.09,1.5,0,2.24.11s1.67-.17,2.22.3Z"/><path class="cls-3" d="M103.52,110a32,32,0,0,1-2.94,4,21.75,21.75,0,0,1,2.94-4Z"/><path class="cls-3" d="M97,110.81a6.53,6.53,0,0,0-2.61,6.8c1.23,4.82,6.4,2.77,8.8.1,1.63-1.7,2.79-4.51,1-6.5a6.66,6.66,0,0,0-3.31-1.8v-.1c8.06.78,5.45,9.25-.44,11.39-7.35,3.2-8.88-7.22-3.49-9.89Z"/><path class="cls-3" d="M157.26,118.49a32.12,32.12,0,0,1-1.87-5s0-.1,0-.14,0,0,.05,0h0c0-.08.09.22.1.24a36.48,36.48,0,0,1,1.76,4.87Z"/><path class="cls-3" d="M153.73,119.72c.51-1.66.93-3.34,1.57-5a18.42,18.42,0,0,1-1.57,5Z"/><path class="cls-3" d="M150.86,118.7a36.43,36.43,0,0,1,3.94-4.17c-1,1.65-2.73,2.77-3.94,4.17Z"/><path class="cls-3" d="M149.79,113.4c1.69.39,3.58-.4,5.15.56-1.62-.43-3.55-.07-5.15-.56Z"/><path class="cls-3" d="M153.58,108a22.64,22.64,0,0,1,1.35,4.33c0,.18.16.52,0,.66-.63-1.58-.81-3.41-1.39-5Z"/><path class="cls-3" d="M161.2,114.37c-1-.46-2.23,0-3.34-.15a2.48,2.48,0,0,1-1.1-.26h0s0,0,0,0h0s0-.06,0,0c.73.1,1.5,0,2.24.14s1.67-.17,2.21.31Z"/><path class="cls-3" d="M159.68,109.23a32.81,32.81,0,0,1-3,3.94,21.94,21.94,0,0,1,3-3.94Z"/><path class="cls-3" d="M153.12,110a6.53,6.53,0,0,0-2.66,6.79c1.19,4.83,6.38,2.82,8.79.17,1.65-1.69,2.83-4.49,1.1-6.49a6.56,6.56,0,0,0-3.3-1.83v-.1c8.06.84,5.38,9.29-.53,11.38-7.37,3.14-8.82-7.28-3.41-9.92Z"/></g><g id="pupil"><path class="cls-4" d="M98.66,114.32l1.76-.94a2.13,2.13,0,0,1-1.2,2.42,1.58,1.58,0,0,1-2.32-.54,2.13,2.13,0,0,1,1.2-2.41,2.26,2.26,0,0,1,.91-.27Z"/><path class="cls-4" d="M154.79,113.53l1.76-.93a2.14,2.14,0,0,1-1.22,2.41,1.57,1.57,0,0,1-2.31-.55,2.14,2.14,0,0,1,1.22-2.41,2.36,2.36,0,0,1,.91-.26Z"/><path class="cls-4" d="M98.66,114.32l1.76-.94a2.13,2.13,0,0,1-1.2,2.42,1.58,1.58,0,0,1-2.32-.54,2.13,2.13,0,0,1,1.2-2.41,2.26,2.26,0,0,1,.91-.27Z"/><path class="cls-4" d="M154.79,113.53l1.76-.93a2.14,2.14,0,0,1-1.22,2.41,1.57,1.57,0,0,1-2.31-.55,2.14,2.14,0,0,1,1.22-2.41,2.36,2.36,0,0,1,.91-.26Z"/><path class="cls-5" d="M98.66,114.32l1.76-.94a2.13,2.13,0,0,1-1.2,2.42,1.58,1.58,0,0,1-2.32-.54,2.13,2.13,0,0,1,1.2-2.41,2.26,2.26,0,0,1,.91-.27Z"/><path class="cls-5" d="M154.79,113.53l1.76-.93a2.14,2.14,0,0,1-1.22,2.41,1.57,1.57,0,0,1-2.31-.55,2.14,2.14,0,0,1,1.22-2.41,2.36,2.36,0,0,1,.91-.26Z"/></g><g id="spec"><ellipse class="cls-6" cx="101.63" cy="112.13" rx="1.72" ry="1.34" transform="translate(-49.45 103.42) rotate(-44.51)"/><ellipse class="cls-6" cx="157.77" cy="111.36" rx="1.72" ry="1.34" transform="translate(-33.05 141.05) rotate(-44.06)"/></g><g id="outline"><path class="cls-3" d="M143.42,122.94a17.21,17.21,0,0,0,2.9,7.17,22,22,0,0,0,2.52,2.93,17.64,17.64,0,0,0,1.43,1.3c.25.21.5.42.76.61s.54.56.74.32c0,0,0,0,0,0s0,0,0,0-.12.15-.21.15a.48.48,0,0,1-.26-.07l-.44-.24a8.29,8.29,0,0,1-.84-.52,13.09,13.09,0,0,1-1.56-1.22,14.84,14.84,0,0,1-2.52-3.07,17.45,17.45,0,0,1-2.61-7.39,0,0,0,0,1,0,0S143.42,122.92,143.42,122.94Z"/><path class="cls-3" d="M86,126.49A17.72,17.72,0,0,1,87.12,118a15.47,15.47,0,0,1,2.08-3.78,13.52,13.52,0,0,1,3.12-3,0,0,0,0,1,0,0,.06.06,0,0,1,0,0,22.56,22.56,0,0,0-2.74,3.22,21,21,0,0,0-2.12,3.65A17.51,17.51,0,0,0,86,126.48s0,0,0,0S86,126.5,86,126.49Z"/><path class="cls-3" d="M110,137.51a10.83,10.83,0,0,0,5.22-2,14.88,14.88,0,0,0,3.84-4.07,26.1,26.1,0,0,0,2.39-5.07c.67-1.76,1.17-3.59,1.72-5.4a.05.05,0,0,1,0,0s0,0,0,0a35.45,35.45,0,0,1-1.29,5.55,20.62,20.62,0,0,1-2.54,5.13,15.08,15.08,0,0,1-4.05,4,10.8,10.8,0,0,1-5.33,1.87l0,0A0,0,0,0,1,110,137.51Z"/><path class="cls-3" d="M171.92,108a30.72,30.72,0,0,1,5.66,7.67,22,22,0,0,1,1.82,4.44,12,12,0,0,1,.4,4.77s0,0,0,0,0,0,0,0a17.26,17.26,0,0,0-.83-4.63,31.73,31.73,0,0,0-1.7-4.4,30.62,30.62,0,0,0-5.33-7.81s0,0,0,0Z"/><path class="cls-3" d="M145.28,120.66a21.09,21.09,0,0,1,2.25-5.5A29.52,29.52,0,0,1,151,110.3a13.06,13.06,0,0,1,4.86-3.76,10,10,0,0,1,1.54-.37c.49-.08,1-.16,1.49-.22a17.52,17.52,0,0,1,3.08-.13,13.4,13.4,0,0,1,6,1.69,16.49,16.49,0,0,1,4.72,4,15.7,15.7,0,0,1,2.93,5.44,10.13,10.13,0,0,1-.09,6.07l-.19,0a12,12,0,0,0-1-5.55,17,17,0,0,0-3.13-4.61,21.53,21.53,0,0,0-4.21-3.62,11.65,11.65,0,0,0-5.14-1.8,16.46,16.46,0,0,0-2.81,0c-.48,0-1,.09-1.43.15a8,8,0,0,0-1.35.24,12.56,12.56,0,0,0-4.55,3.18,25.73,25.73,0,0,0-6.24,9.74Z"/><path class="cls-3" d="M146.09,126.54a18,18,0,0,0,7.57,6.24,17,17,0,0,0,9.62,1.15,16.06,16.06,0,0,0,8.46-4.46,18,18,0,0,0,4.64-8.52l.1,0a14.85,14.85,0,0,1-13.07,13.75,17.47,17.47,0,0,1-10-1.49,17.9,17.9,0,0,1-7.44-6.64Z"/><path class="cls-3" d="M120.28,119.86a25.88,25.88,0,0,0-7.72-8.69,12.74,12.74,0,0,0-5-2.46,8.69,8.69,0,0,0-1.37,0c-.49,0-1,0-1.45.07a16.32,16.32,0,0,0-2.8.43,11.89,11.89,0,0,0-4.85,2.53,21.81,21.81,0,0,0-3.67,4.21A17,17,0,0,0,91,121a11.9,11.9,0,0,0-.2,5.67l-.18.07a10.09,10.09,0,0,1-1-6,15.79,15.79,0,0,1,2.12-5.84,16.53,16.53,0,0,1,4.12-4.67,13.63,13.63,0,0,1,5.74-2.55,18,18,0,0,1,3.08-.33c.51,0,1,0,1.52,0a9.08,9.08,0,0,1,1.58.13,13.25,13.25,0,0,1,5.4,3,29.42,29.42,0,0,1,4.21,4.29,20.5,20.5,0,0,1,3.09,5.11Z"/><path class="cls-3" d="M90.85,126.37a17.92,17.92,0,0,0,7.56,6.24,17.09,17.09,0,0,0,9.62,1.15,16.06,16.06,0,0,0,8.46-4.46,17.86,17.86,0,0,0,4.64-8.52l.1,0a14.85,14.85,0,0,1-13.07,13.75,17.47,17.47,0,0,1-10-1.49,18,18,0,0,1-7.44-6.64Z"/><path class="cls-3" d="M177.35,132.05a10.61,10.61,0,0,0-1-.9c-.18-.13-.41-.2-.52-.4a1.51,1.51,0,0,1-.21-.77l.06-.08a1.19,1.19,0,0,1,.84.13,1.35,1.35,0,0,1,.44.6,4.06,4.06,0,0,1,.51,1.37Z"/><path class="cls-3" d="M174.79,135.43a7.71,7.71,0,0,1-1.9-1.1,2.64,2.64,0,0,1-.81-.75,2.11,2.11,0,0,1-.3-1.14l.09-.05a2.8,2.8,0,0,1,1,.56,4.27,4.27,0,0,1,.61.82,16.91,16.91,0,0,0,1.39,1.58Z"/><path class="cls-3" d="M170.92,138.84a10.64,10.64,0,0,1-1.72-2,3.74,3.74,0,0,1-.68-1.13,2.86,2.86,0,0,1-.06-1.37l.1,0a4,4,0,0,1,.88,1,7.26,7.26,0,0,1,.46,1.15,22.49,22.49,0,0,0,1.1,2.27Z"/><path class="cls-3" d="M99.07,137.41a11.38,11.38,0,0,0,.19-1.36,1.54,1.54,0,0,1,0-.65,1.63,1.63,0,0,1,.54-.6h.1a1.24,1.24,0,0,1,.35.77,1.34,1.34,0,0,1-.27.69,4.3,4.3,0,0,1-.87,1.19Z"/><path class="cls-3" d="M94.84,137.1a8,8,0,0,1-.11-2.19,2.93,2.93,0,0,1,.19-1.1,2.05,2.05,0,0,1,.8-.86l.09,0a2.76,2.76,0,0,1,.06,1.13,4.18,4.18,0,0,1-.35.95,15.92,15.92,0,0,0-.58,2Z"/><path class="cls-3" d="M89.88,135.69a10.94,10.94,0,0,1,.7-2.5,3.82,3.82,0,0,1,.58-1.18,2.69,2.69,0,0,1,1.12-.79l.08.06a3.7,3.7,0,0,1-.36,1.27,6.34,6.34,0,0,1-.71,1q-.71,1-1.32,2.16Z"/></g><g id="eyebrows"><path class="cls-7" d="M143.21,98.35c1.69-1,3.39-1,5.13-1.38l5.22-.93c7.11-1.11,15.41-3.22,22.1.8a12.82,12.82,0,0,1,5.42,6.86c.17.94.9,1.74-.21,3a1.79,1.79,0,0,1-1-.39c-.56-.43-.67-1.11-1-1.66-4.35-10.14-15.94-6.53-24.58-5-1.76.34-3.55.65-5.37.86s-3.67.57-5.56-.3l-.08-1.84Z"/><path class="cls-7" d="M119.54,100.89c-2-.14-3.18-1.73-4.8-2.46a15.16,15.16,0,0,0-4.53-1.56c-6.93-1.42-13.38-2-18.41,3.57-2.27,2.34-5.14,5.76-7.81,7.68l-.08-.06a53.58,53.58,0,0,1,2.22-5.13C90,94.77,96.32,90.56,105.44,92.08c4.77.68,9.94,1.44,13.49,5.1a4.59,4.59,0,0,1,1.73,2.24l-1.12,1.47Z"/></g></g></svg>