<svg id="artwork" xmlns="http://www.w3.org/2000/svg" viewBox="0 0 245 730"><defs><style>.cls-1{fill:#d9cec5;}.cls-2{fill:#69564b;}.cls-3,.cls-4{fill:#2d2d2d;}.cls-4{fill-rule:evenodd;}.cls-5{fill:none;stroke:#2d2d2d;stroke-miterlimit:10;}.cls-6{fill:#f2eae4;}.cls-7{fill:#462e13;}</style></defs><g id="eyes_right2"><g id="white"><path class="cls-1" d="M101.55,115.9a49.11,49.11,0,0,0-12.39,4.34c-14,6.69,7.92,13.82,15.07,13.26,4.4-.35,10.54-1.9,13.46-5.56,2.53-3.16,4.16-12.41-.21-12.57C113.28,115.21,108.61,114.66,101.55,115.9Z"/><path class="cls-1" d="M152.48,114c-5.62,2.24-12.31,7.49-10,12.22,4.3,8.68,13.93,10,22.1,7.58,5.56-1.67,9.79-6.45,8.62-11.08a11.31,11.31,0,0,0-3.59-5.32,17.42,17.42,0,0,0-5.22-3.34,16.9,16.9,0,0,0-10.84-.44C153.2,113.75,152.84,113.88,152.48,114Z"/></g><g id="iris"><path class="cls-2" d="M116.77,128.75c2.79-2.07,4.37-10.87,3.18-13.79-3.17-.23-8.26,0-11.47.08-2.44,2.19-.89,7.45.16,9.35C110.26,127.32,116.32,129.09,116.77,128.75Z"/><path class="cls-2" d="M174.73,121a8.81,8.81,0,0,0-4.36-6c-3.05-1.46-5.28,2.36-5.64,4.84-.39,2.66,1.42,8.23,5.23,8.78,1.8,1.32,3.32-2.09,3.94-3.43A16.51,16.51,0,0,0,174.73,121Z"/></g><g id="iris_outline"><path class="cls-3" d="M112.74,126.61c1.15-1.59,2.75-3.25,3.94-4.59,0,0-.15.25-.17.3a34.45,34.45,0,0,1-3.77,4.29Z"/><path class="cls-3" d="M168.93,128.39a11.39,11.39,0,0,1,2.41-3.45c-.69,1.22-1.66,2.33-2.41,3.45Z"/><path class="cls-3" d="M111.08,115.64a15.12,15.12,0,0,1,3.34,1.42,6.34,6.34,0,0,1-1.71-.61s-1.7-.77-1.63-.81Z"/><path class="cls-3" d="M166.36,117.2a14.23,14.23,0,0,1,3.34,1.42A6,6,0,0,1,168,118s-1.7-.77-1.63-.8Z"/><path class="cls-3" d="M109.82,123.41a28.32,28.32,0,0,1,4.35-2.68,12.86,12.86,0,0,1-2.12,1.42s-2.24,1.34-2.23,1.26Z"/><path class="cls-3" d="M165.61,125a45,45,0,0,1,5.45-3.19,43.31,43.31,0,0,1-5.45,3.19Z"/><path class="cls-3" d="M108.32,118.2c.9.11,1.84-.11,2.76,0a20.22,20.22,0,0,1,2.75.25,9.46,9.46,0,0,1-2.76,0,23.6,23.6,0,0,1-2.75-.17Z"/><path class="cls-3" d="M165.47,119.51c1.15.39,2.45.35,3.62.69s2.44.72,3.55,1a15.11,15.11,0,0,1-3.6-.81c-1.12-.41-2.56-.39-3.57-.89Z"/><path class="cls-3" d="M115.86,128.71c-5.83-.34-11.53-7.34-7.94-12.82l.09,0a10.37,10.37,0,0,0,7.85,12.78Z"/><path class="cls-3" d="M171.94,128.85c-8,1.52-10.53-12.82-3.13-14.95l0,.09c-5.57,3.54-4.45,15.25,3.09,14.86Z"/></g><g id="pupil"><path class="cls-4" d="M172.71,125.8c.87-.53,1.42-1.26,1.64-3.46.36-3.53-3.83-6.71-5.64-2.74-.83,1.8.62,1.4,1.16,2.42,1.14,2.17-.28,1.41-1.06,3.61C168.31,127,170.84,126.92,172.71,125.8Z"/><path class="cls-4" d="M118.07,122.56c.87-.53,1.19-1.3,1.64-3.46.64-3.07-.2-4.59-.2-4.59s-4.75.33-5.44,1.84c-.83,1.81.62,1.41,1.15,2.42,1.15,2.18-.28,1.42-1,3.62C113.67,123.79,116.2,123.68,118.07,122.56Z"/><path class="cls-4" d="M172.71,125.8c.87-.53,1.42-1.26,1.64-3.46.36-3.53-3.83-6.71-5.64-2.74-.83,1.8.62,1.4,1.16,2.42,1.14,2.17-.28,1.41-1.06,3.61C168.31,127,170.84,126.92,172.71,125.8Z"/><path class="cls-4" d="M118.07,122.56c.87-.53,1.19-1.3,1.64-3.46.64-3.07-.2-4.59-.2-4.59s-4.75.33-5.44,1.84c-.83,1.81.62,1.41,1.15,2.42,1.15,2.18-.28,1.42-1,3.62C113.67,123.79,116.2,123.68,118.07,122.56Z"/><path class="cls-5" d="M172.71,125.8c.87-.53,1.42-1.26,1.64-3.46.36-3.53-3.83-6.71-5.64-2.74-.83,1.8.62,1.4,1.16,2.42,1.14,2.17-.28,1.41-1.06,3.61C168.31,127,170.84,126.92,172.71,125.8Z"/><path class="cls-5" d="M118.07,122.56c.87-.53,1.19-1.3,1.64-3.46.64-3.07-.2-4.59-.2-4.59s-4.75.33-5.44,1.84c-.83,1.81.62,1.41,1.15,2.42,1.15,2.18-.28,1.42-1,3.62C113.67,123.79,116.2,123.68,118.07,122.56Z"/></g><g id="spec"><path class="cls-6" d="M105.79,117.42a1.07,1.07,0,0,0-.58.79,2.22,2.22,0,0,0,1.28,2.27,2,2,0,0,0,2.85-1.71C109.22,117.34,107.06,116.73,105.79,117.42Z"/><path class="cls-6" d="M163.85,117.25a1,1,0,0,0-.54.73,2,2,0,0,0,1.18,2.07,1.85,1.85,0,0,0,2.63-1.56C167,117.18,165,116.62,163.85,117.25Z"/></g><g id="outline"><path class="cls-3" d="M122.63,114.53c-.86.12-1.71.3-2.55.43l-2.54.33c-1.7.21-3.39.41-5.08.54s-3.39.22-5.09.3a35.89,35.89,0,0,0-5,.5,81,81,0,0,0-9.63,2.82,24.58,24.58,0,0,0-4.43,2c-1.44.81-2.93,1.72-4.49,2.49l-.09-.12a41.14,41.14,0,0,1,3.62-3.74,15.8,15.8,0,0,1,4.59-2.8,53.15,53.15,0,0,1,10.1-2.53c1.71-.29,3.47-.52,5.17-.67s3.41-.29,5.12-.34,3.43,0,5.15.11c.86.06,1.72.11,2.58.21s1.71.29,2.56.45Z"/><path class="cls-3" d="M84.44,125.42a23.93,23.93,0,0,0,10.4,7,24.49,24.49,0,0,0,12.4,1.12,15.86,15.86,0,0,0,10.33-6.47,15.25,15.25,0,0,0,2.36-5.79,22.07,22.07,0,0,0,.24-6.34h0a24.33,24.33,0,0,1,0,6.38,15.84,15.84,0,0,1-2.16,6,14.19,14.19,0,0,1-4.58,4.54,17.36,17.36,0,0,1-6,2.28,23,23,0,0,1-12.69-1.29,25,25,0,0,1-10.24-7.48Z"/><path class="cls-3" d="M108.73,106.69a16.57,16.57,0,0,1,.38,2.9,7.21,7.21,0,0,1,0,1.47,4.94,4.94,0,0,1-.45,1.41h0s0,0,0,0a14.06,14.06,0,0,1,0-1.45c0-.48.11-1,.15-1.43a16.31,16.31,0,0,0,0-2.88h0Z"/><path class="cls-3" d="M104.13,108l.36,1.83a4.18,4.18,0,0,1,.14.93,3.18,3.18,0,0,1-.12,1h-.05a2.86,2.86,0,0,1-.32-.9,4.9,4.9,0,0,1,0-.94V108h0Z"/><path class="cls-3" d="M97.76,108.9A13.1,13.1,0,0,1,98.6,111a5.32,5.32,0,0,1,.24,1.12,3.29,3.29,0,0,1-.13,1.16h0a7.79,7.79,0,0,1-.31-1.09c-.08-.37-.09-.74-.14-1.11a13.87,13.87,0,0,0-.5-2.19h.05Z"/><path class="cls-3" d="M91.24,110.8l1,2.35a9.05,9.05,0,0,1,.45,1.19,5.41,5.41,0,0,1,.18,1.27l0,0h0a6.27,6.27,0,0,1-.62-1.13,10,10,0,0,1-.35-1.22l-.63-2.46,0,0Z"/><path class="cls-3" d="M84.55,113.15a19,19,0,0,0,1.37,2.79c.26.44.57.86.82,1.31a15.23,15.23,0,0,1,.7,1.4s0,0,0,0h0a5.93,5.93,0,0,1-1.08-1.16,8.19,8.19,0,0,1-.75-1.4,17.41,17.41,0,0,1-1.06-3h0A0,0,0,0,1,84.55,113.15Z"/><path class="cls-3" d="M105.09,137.2a25.2,25.2,0,0,0,8.38-4.55A20.94,20.94,0,0,0,119,125a0,0,0,0,1,0,0,0,0,0,0,1,0,0,13.89,13.89,0,0,1-2,4.43,16.27,16.27,0,0,1-3.36,3.52,25.4,25.4,0,0,1-8.63,4.29,0,0,0,0,1,0,0S105.07,137.21,105.09,137.2Z"/><path class="cls-3" d="M93.37,134.09a24.83,24.83,0,0,1-4.58-3,16.19,16.19,0,0,1-2-1.87A13.29,13.29,0,0,1,85.22,127s0,0,0,0h0l1.89,1.94c.63.63,1.24,1.3,1.9,1.91A24,24,0,0,0,93.4,134v0S93.38,134.09,93.37,134.09Z"/><path class="cls-3" d="M143.47,128.46a14.66,14.66,0,0,0,1.67,4.58,23.14,23.14,0,0,0,2.81,4,22.6,22.6,0,0,0,3.59,3.26,14.34,14.34,0,0,0,4.3,2.24l0,0s0,0,0,0a10.9,10.9,0,0,1-4.58-1.88,17.39,17.39,0,0,1-3.6-3.41,23.13,23.13,0,0,1-2.71-4.15,14.88,14.88,0,0,1-1.52-4.67s0,0,0,0Z"/><path class="cls-3" d="M170.82,110.37a17.54,17.54,0,0,1,7,7,12.52,12.52,0,0,1,1.42,4.85,13.77,13.77,0,0,1-.59,5s0,0,0,0a0,0,0,0,1,0,0,20,20,0,0,0,.14-4.94,14.66,14.66,0,0,0-1.28-4.71,17.31,17.31,0,0,0-6.7-7.14s0,0,0,0S170.81,110.36,170.82,110.37Z"/><path class="cls-3" d="M141.13,121.88a75.43,75.43,0,0,1,7.72-6.81,15.39,15.39,0,0,1,4.89-2.45,41.87,41.87,0,0,1,5.2-1,23.8,23.8,0,0,1,5.5-.22,12.51,12.51,0,0,1,2.88.63,11,11,0,0,1,2.56,1.38,16.59,16.59,0,0,1,2.22,1.79,7.88,7.88,0,0,1,1.69,2.58,16.59,16.59,0,0,1,1,5.3l-.37.14c-1.11-1.38-2.08-2.85-3.07-4a6.57,6.57,0,0,0-1.53-1.32c-.56-.34-1.25-.67-2-1a21.26,21.26,0,0,0-2-.92,15.2,15.2,0,0,0-2-.62,20.62,20.62,0,0,0-4.66-.49,44.14,44.14,0,0,0-4.88.37,14,14,0,0,0-4.41,1.56,100.65,100.65,0,0,0-8.5,5.45Z"/><path class="cls-3" d="M142,124.37a13.47,13.47,0,0,0,6.89,7.91,20.5,20.5,0,0,0,10.34,2.36,17,17,0,0,0,9.81-3.48,14.9,14.9,0,0,0,3.52-3.9,21.7,21.7,0,0,0,2.24-4.89l.1,0a17.16,17.16,0,0,1-1.73,5.22,14.49,14.49,0,0,1-3.5,4.33,16.34,16.34,0,0,1-10.42,3.5,20.84,20.84,0,0,1-10.6-2.73,13.61,13.61,0,0,1-6.74-8.31Z"/><path class="cls-3" d="M142.91,111.49l.53,2.17a6.67,6.67,0,0,1,.22,1.08,4.31,4.31,0,0,1,0,1.13h-.05a4.27,4.27,0,0,1-.4-1.06,8.06,8.06,0,0,1-.13-1.1l-.17-2.22h0Z"/><path class="cls-3" d="M146.48,109.5l.43,2a5.43,5.43,0,0,1,.17,1,3.56,3.56,0,0,1-.09,1h-.05a3.18,3.18,0,0,1-.35-1,5.44,5.44,0,0,1-.08-1l-.08-2h0Z"/><path class="cls-3" d="M149.76,106.72a13.45,13.45,0,0,0,.09,2.2c0,.36.13.71.14,1.07a6,6,0,0,1,0,1.12h-.05a3.2,3.2,0,0,1-.41-1.06,4.74,4.74,0,0,1-.05-1.13,12.69,12.69,0,0,1,.26-2.22h0Z"/><path class="cls-3" d="M154.11,105.92l.17,2.18a5.69,5.69,0,0,1,.05,1.09,4.14,4.14,0,0,1-.22,1.09h-.05a4.16,4.16,0,0,1-.23-1.09,8,8,0,0,1,0-1.09l.18-2.18h.05Z"/><path class="cls-3" d="M157.72,103.9a7.71,7.71,0,0,1,.85,3.09,6.27,6.27,0,0,1,0,1.62,4.4,4.4,0,0,1-.58,1.52s0,0,0,0h0c0-.55.1-1.06.12-1.57s.12-1,.13-1.55a7.48,7.48,0,0,0-.49-3.07s0,0,0,0Z"/></g><g id="eyebrows"><path class="cls-7" d="M124.5,93.56c-1.47,1.75-3.48,2.34-5.39,3.32-5.61,2.64-11.54,4.51-17.25,6.86C94.19,107,87.42,111.53,79.4,114.2a39.86,39.86,0,0,1,9.89-7.8c3.62-2.12,7.43-3.89,11.22-5.68a111.53,111.53,0,0,1,20.33-8,7.14,7.14,0,0,1,3.22-.29l.44,1.13Z"/><path class="cls-7" d="M138.62,108.11c3.55-10.49,13.83-20.17,25.52-19.5a12.37,12.37,0,0,1,9.69,5.69c-13-8.12-26.58,4.74-35.21,13.81Z"/></g></g></svg>