<svg id="artwork" xmlns="http://www.w3.org/2000/svg" viewBox="0 0 245 730"><defs><style>.cls-1{fill:#d9cec5;}.cls-2{fill:#bfa68f;}.cls-2,.cls-5{fill-rule:evenodd;}.cls-3{fill:#69564b;}.cls-4,.cls-5{fill:#2d2d2d;}.cls-6{fill:none;stroke:#2d2d2d;stroke-miterlimit:10;}.cls-7{fill:#f2eae4;}.cls-8{fill:#462e13;}</style></defs><g id="eyes_sad4"><g id="white"><path class="cls-1" d="M115.31,115.71a44.1,44.1,0,0,0-6.17-.78,53.06,53.06,0,0,0-11,.68c-1.81.28-3.71.82-5.49,1.28-1.33.34-2.8.33-4,1a5.59,5.59,0,0,1-1.28.49c-1.41,5,1.38,10.83,1.38,10.83s10.38,6.85,19,5.72c4.4-.57,12.15-6.76,12.15-6.76s.4-7.6-.88-12.05C117.64,115.83,116.7,116,115.31,115.71Z"/><path class="cls-1" d="M171,115.11l0,0a43.64,43.64,0,0,0-16.5-.89,56.45,56.45,0,0,1-7.13,2.06.51.51,0,0,1-.57-.3c-.35.12-1.78.77-2.13.9-.06,2.85,0,4.46-.14,6.62s1.06,5.49,3,6.76c2.92,2,8.12,4.92,10.82,5.28,8.57,1.12,19-5.39,19-5.39s2.16-6.45,1-11.38C175.88,117.64,173.26,116.33,171,115.11Z"/></g><g id="eyelids"><path class="cls-2" d="M144.57,116.32S155.43,114,157,113.88a38.3,38.3,0,0,1,13.93,1.76c.72.21,9.06,3.38,9.06,3.38s-3.16-3.13-4.2-4.19c-1.68-1.73-5.44-3.84-7.57-5-7.56-4.14-14.53-3.4-21.77.94C145.61,111.28,144.57,116.32,144.57,116.32Z"/><path class="cls-2" d="M85,119.16s6.48-2.2,10-3A58.72,58.72,0,0,1,109.48,115c3,.14,11.52,1.14,11.52,1.14s-2.56-2.41-3.73-3.33c-1.91-1.5-9.11-4-11.53-4.35-8.81-1.17-10.67,0-17.31,5.32C87.65,114.36,85,119.16,85,119.16Z"/></g><g id="iris"><path class="cls-3" d="M103.22,135a10.13,10.13,0,0,1-7.32-6.21c-1.82-5.12,7.28-9,12.79-6.41a7.45,7.45,0,0,1,3.71,4.51C114,132,108.57,135.79,103.22,135Z"/><path class="cls-3" d="M167.12,133.68c-2.19,1.63-7.15,1.86-10.75.41-6-2.41-3.87-10.85,1.91-12.64a10,10,0,0,1,6.53.75C170.69,124.77,171.09,130.74,167.12,133.68Z"/></g><g id="iris_outline"><path class="cls-4" d="M96.72,127.52a68.67,68.67,0,0,1,7.26,1.2,2.92,2.92,0,0,1,.42.13c0,.06,0,0-.06,0v0c-2.28-.39-5.25-.7-7.62-1.34Z"/><path class="cls-4" d="M98.65,122.29c1.09.71,2.1,1.55,3.14,2.32a32.57,32.57,0,0,1,3.13,2.33,40.55,40.55,0,0,1-6.27-4.65Z"/><path class="cls-4" d="M111.16,124.44a41.61,41.61,0,0,1-5.22,3.33l0,0,.09,0c0,.05-.05,0-.17.1,1.52-1.49,3.69-2.15,5.32-3.37Z"/><path class="cls-4" d="M107.41,122.31c-1.11,1.42-.79,3.8-2.49,4.77,1.27-1.28,1.31-3.47,2.49-4.77Z"/><path class="cls-4" d="M112,129.24a17.91,17.91,0,0,1-2.9-.66,12.9,12.9,0,0,1-2.84-.86,51.45,51.45,0,0,1,5.74,1.52Z"/><path class="cls-4" d="M100.57,133.27a36.79,36.79,0,0,1,3.74-4.36,36.27,36.27,0,0,1-3.74,4.36Z"/><path class="cls-4" d="M108.54,133.16l-1.61-1.86a8.48,8.48,0,0,1-1.49-2,10.32,10.32,0,0,1,1.63,1.84s1.56,2,1.47,2Z"/><path class="cls-4" d="M107.24,134.7c6.87-1.47,6.9-8.41,1.23-11.57a10.35,10.35,0,0,0-10,.28c-3.07,2.14-2.06,6.6.45,8.84a9.52,9.52,0,0,0,4.74,2.39v.09c-7.62-.13-12.09-11.08-3.07-13.28,4.59-1.13,10.11.68,12,5.26,1.75,4.11-1.31,7.43-5.28,8.09l0-.1Z"/><path class="cls-4" d="M157.77,134.29a52.14,52.14,0,0,1,2.17-6.11s.22-.5.22-.28h0c0-.08,0,.07,0,.11l-.07.21a58.71,58.71,0,0,1-2.24,6.08Z"/><path class="cls-4" d="M152.62,127.05c2.31.66,5.79,1.38,7.92,2.1a44.29,44.29,0,0,1-7.92-2.1Z"/><path class="cls-4" d="M161.73,121.28a34.63,34.63,0,0,1,0,5.76h0l0-.07s0,0,0,.16c-.47-1.92.18-4,0-5.85Z"/><path class="cls-4" d="M156.85,122.48c.3,1.9,2.28,3.44,1.86,5.47-.1-1.92-1.69-3.6-1.86-5.47Z"/><path class="cls-4" d="M167.93,123.25a34,34,0,0,1-5.2,3.24c-.23.12-.56.38-.82.33,1.86-1.3,4.18-2.27,6-3.57Z"/><path class="cls-4" d="M164.36,134.43c0-.89-.91-1.41-1.43-2.05a6.57,6.57,0,0,1-1.34-2.2l0,0s0,0,0,0,0,0,0,0c.37.77,1,1.37,1.45,2.12s1.44,1.34,1.28,2.18Z"/><path class="cls-4" d="M169.17,128.2a67.81,67.81,0,0,1-7.1.63,45.69,45.69,0,0,1,7.1-.63Z"/><path class="cls-4" d="M169.26,131.08c2.25-6.16-5.22-10.35-10.52-8.86-3.29.77-6.77,4.35-5.46,7.88,2.43,4.88,10.06,6.1,14.49,3l.06.07c-4.34,3.92-13,2.77-15.5-2.74-1.49-4.08,2.46-8.15,6.26-8.93s8.28.55,10.38,4a6.33,6.33,0,0,1,.39,5.62l-.1,0Z"/></g><g id="pupil"><path class="cls-5" d="M106.07,130.69l-.67,1.41a4,4,0,0,1-3.59-2.94,2.25,2.25,0,0,1,2.62-2.57,3.94,3.94,0,0,1,3.58,2.94,2.24,2.24,0,0,1-.14,1.29Z"/><path class="cls-5" d="M163.89,129.7l.57,1.46a5.16,5.16,0,0,1-5.31.69c-1.67-.8-2-2.41-.78-3.58a5.15,5.15,0,0,1,5.31-.69,3,3,0,0,1,1.17,1Z"/><path class="cls-5" d="M106.07,130.69l-.67,1.41a4,4,0,0,1-3.59-2.94,2.25,2.25,0,0,1,2.62-2.57,3.94,3.94,0,0,1,3.58,2.94,2.24,2.24,0,0,1-.14,1.29Z"/><path class="cls-5" d="M163.89,129.7l.57,1.46a5.16,5.16,0,0,1-5.31.69c-1.67-.8-2-2.41-.78-3.58a5.15,5.15,0,0,1,5.31-.69,3,3,0,0,1,1.17,1Z"/><path class="cls-6" d="M106.07,130.69l-.67,1.41a4,4,0,0,1-3.59-2.94,2.25,2.25,0,0,1,2.62-2.57,3.94,3.94,0,0,1,3.58,2.94,2.24,2.24,0,0,1-.14,1.29Z"/><path class="cls-6" d="M163.89,129.7l.57,1.46a5.16,5.16,0,0,1-5.31.69c-1.67-.8-2-2.41-.78-3.58a5.15,5.15,0,0,1,5.31-.69,3,3,0,0,1,1.17,1Z"/></g><g id="spec"><path class="cls-7" d="M110.14,123.44c-2.56-.14-2,3.27-.21,4.48a2.79,2.79,0,0,0,3.15.18c1.69-1.37-.66-4.48-2.86-4.65Z"/><ellipse class="cls-7" cx="168.23" cy="124.17" rx="2.2" ry="3.09" transform="translate(26.74 278.13) rotate(-83.85)"/><path class="cls-4" d="M141.48,91.29a3.66,3.66,0,0,1-.65-2.48,6.18,6.18,0,0,1,.72-2.54,4.19,4.19,0,0,1,1.85-2,3.37,3.37,0,0,1,1.39-.29,3.82,3.82,0,0,1,.69.1c.22.09.43.18.62.28l0,.1-.62.08c-.2,0-.39.1-.57.13a4.2,4.2,0,0,0-1,.48,5.86,5.86,0,0,0-1.65,1.54,6.06,6.06,0,0,0-.91,2.19,3.53,3.53,0,0,0,.24,2.37Z"/><path class="cls-4" d="M121.22,90a4.25,4.25,0,0,0,.11-2.34,4.65,4.65,0,0,0-1-2,6.82,6.82,0,0,0-1.78-1.31L118,84.1l-.52-.22-.56-.19a4.73,4.73,0,0,1-.59-.16v-.1a6.36,6.36,0,0,1,.62-.19,4.89,4.89,0,0,1,.66,0c.22,0,.45,0,.67.07l.65.19a4.43,4.43,0,0,1,2,1.74,5,5,0,0,1,.89,2.42,4.31,4.31,0,0,1-.51,2.46Z"/></g><g id="outline"><path class="cls-4" d="M93.11,137.41a31.1,31.1,0,0,1-4.5-3.69,19.21,19.21,0,0,1-2-2.18,15.05,15.05,0,0,1-1.5-2.5s0,0,0,0h0l1.86,2.22c.61.74,1.2,1.5,1.84,2.21a30.39,30.39,0,0,0,4.24,3.93s0,0,0,0Z"/><path class="cls-4" d="M171.05,139.85a19,19,0,0,0,7.46-5.33,23.85,23.85,0,0,0,2.61-3.79,25.81,25.81,0,0,0,1.88-4.22,0,0,0,0,1,0,0s0,0,0,0a15,15,0,0,1-1.48,4.45,17.25,17.25,0,0,1-2.75,3.82,19.32,19.32,0,0,1-7.74,5.11s0,0,0,0A.05.05,0,0,1,171.05,139.85Z"/><path class="cls-4" d="M120.38,115.19a27.85,27.85,0,0,0-8.6-4.89,26.38,26.38,0,0,0-9.7-1.51,20.92,20.92,0,0,0-9.3,2.66c-.68.45-1.4.83-2,1.32s-1.29,1-1.87,1.58-1.15,1.17-1.68,1.8l-1.5,2-.09,0,1.23-2.2c.46-.7,1-1.35,1.54-2s1.21-1.19,1.83-1.78,1.39-1,2.08-1.49a19,19,0,0,1,9.78-2.6,26.1,26.1,0,0,1,9.9,1.85,27.52,27.52,0,0,1,8.5,5.28Z"/><path class="cls-4" d="M87.57,129c2.71,1.19,5.4,2.45,8.15,3.55a26.54,26.54,0,0,0,8.54,2.13,18.09,18.09,0,0,0,8.49-1.8,44.23,44.23,0,0,0,7.53-4.62s0,0,.06,0l0,0a33.92,33.92,0,0,1-7.36,5,17.19,17.19,0,0,1-8.73,1.74,27,27,0,0,1-8.6-2.32c-2.73-1.16-5.39-2.47-8.08-3.71,0,0,0,0,0,0S87.54,129,87.57,129Z"/><path class="cls-4" d="M145.66,111.29a17,17,0,0,1,8.83-4.26,22.84,22.84,0,0,1,9.89.79,29.41,29.41,0,0,1,9,4.3c.67.5,1.32,1,2,1.53s1.23,1.12,1.84,1.68,1.13,1.22,1.68,1.84,1,1.32,1.49,2l-.08.07-1.74-1.74-1.82-1.63-1.91-1.51-2-1.4a36.55,36.55,0,0,0-8.65-4.35,22.62,22.62,0,0,0-9.59-1.08,16.83,16.83,0,0,0-8.83,3.86Z"/><path class="cls-4" d="M178.41,129.76c-2.67,1.28-5.3,2.62-8,3.8a26.22,26.22,0,0,1-8.6,2.39,16.68,16.68,0,0,1-8.82-1.71,18,18,0,0,1-2-1.1,16.86,16.86,0,0,1-1.86-1.26,32.33,32.33,0,0,1-3.4-2.88l.06-.08c1.26.79,2.45,1.66,3.73,2.38.63.38,1.25.77,1.9,1.08a19.61,19.61,0,0,0,2,1,18.59,18.59,0,0,0,8.35,1.83,26.54,26.54,0,0,0,8.47-2.06c2.75-1.06,5.44-2.28,8.17-3.43Z"/><path class="cls-4" d="M150.83,138.79a28,28,0,0,1-5.23-5.26,16.28,16.28,0,0,1-2.06-3.15,2.84,2.84,0,0,1-.17-2.1,1.76,1.76,0,0,1,.68-.84,1.2,1.2,0,0,1,1-.15v.1a1.22,1.22,0,0,0-1,1.09,2.52,2.52,0,0,0,.4,1.47c.59,1,1.16,2.1,1.81,3.12a34.28,34.28,0,0,0,4.64,5.65Z"/><path class="cls-4" d="M114.28,137.76c.81-1,1.73-1.8,2.61-2.66s1.78-1.72,2.6-2.61a10.41,10.41,0,0,0,1.07-1.4,10.11,10.11,0,0,0,.71-1.54,2.16,2.16,0,0,0,0-1.5,1.43,1.43,0,0,0-1.2-1l0-.1a1.63,1.63,0,0,1,1.83.74,2.61,2.61,0,0,1,.31,2.1,5.32,5.32,0,0,1-.84,1.82,11.31,11.31,0,0,1-1.33,1.42c-.91.86-1.88,1.64-2.85,2.42s-1.95,1.51-2.85,2.35Z"/><path class="cls-4" d="M118.33,114.26a20.19,20.19,0,0,1,2.28,7.14,12,12,0,0,1-.3,5.65,10.39,10.39,0,0,1-.71,1.77l-.09,0c0-.63.06-1.25.11-1.86s.07-1.22.09-1.83c0-1.2.15-2.41.1-3.63a21.91,21.91,0,0,0-1.57-7.16Z"/><path class="cls-4" d="M88.92,129.55a11.82,11.82,0,0,1-2.82-5.35,7.42,7.42,0,0,1-.12-3.11,7.75,7.75,0,0,1,1.17-2.85l.09,0c-.06,1-.21,2-.27,3a16.06,16.06,0,0,0-.08,2.86A12.87,12.87,0,0,0,89,129.49Z"/><path class="cls-4" d="M146.51,110.54a25.13,25.13,0,0,0-1.36,4.79,29.22,29.22,0,0,0-.5,4.93,25.41,25.41,0,0,0,.46,4.86l.25,1.19.34,1.16.45,1.14.56,1.11-.08.07c-.29-.31-.59-.62-.87-.95s-.49-.71-.7-1.09-.38-.78-.54-1.18-.27-.82-.39-1.24a15.43,15.43,0,0,1-.28-5.11,27.31,27.31,0,0,1,.82-5,23.06,23.06,0,0,1,1.75-4.72Z"/><path class="cls-4" d="M175.77,130.69a9.58,9.58,0,0,0,2-2.94,11.79,11.79,0,0,0,.88-3.38,15.19,15.19,0,0,0-.15-3.44,16.85,16.85,0,0,0-.34-1.69l-.25-.84c-.11-.28-.21-.56-.3-.86l.08-.05c.21.22.42.45.62.7s.34.52.5.79a8.51,8.51,0,0,1,.67,1.76,8.73,8.73,0,0,1,0,3.74,11.37,11.37,0,0,1-1.23,3.48,9.34,9.34,0,0,1-2.33,2.81Z"/><path class="cls-4" d="M179.13,120.56a2.34,2.34,0,0,0-1.24-1.78,20.74,20.74,0,0,0-2-1.11,29.91,29.91,0,0,0-4.29-1.7,34.91,34.91,0,0,0-9.06-1.5,52,52,0,0,0-9.16.65c-3,.43-6.05,1.09-9.08,1.79l0-.1a42.53,42.53,0,0,1,8.95-2.67,36.7,36.7,0,0,1,9.36-.47,35,35,0,0,1,9.18,1.83,30.18,30.18,0,0,1,4.27,1.9,22.61,22.61,0,0,1,2,1.21,2.49,2.49,0,0,1,1.22,2Z"/><path class="cls-4" d="M86.44,119.44A3,3,0,0,1,88,118.05a16.54,16.54,0,0,1,2-.72c1.31-.44,2.65-.81,4-1.14a55.4,55.4,0,0,1,8.21-1.38,45.55,45.55,0,0,1,8.34-.13c1.38.12,2.76.32,4.13.57a36.73,36.73,0,0,1,4,1l0,.1c-1.38-.15-2.75-.3-4.12-.42s-2.73-.22-4.1-.27c-2.73-.12-5.47-.22-8.21-.07A59.3,59.3,0,0,0,94,116.67c-1.34.27-2.69.58-4,1a15.89,15.89,0,0,0-2,.6,2.94,2.94,0,0,0-1.54,1.25Z"/></g><g id="eyebrows"><path class="cls-8" d="M88.17,104.72c5.6-1.84,11.72-3,16.77-5.93A9.48,9.48,0,0,0,108,96.16c1.44-1.49,2.13-3.73,3.49-5.35A11.5,11.5,0,0,1,118,87.22l.47.4a13.12,13.12,0,0,1-.86,5,8.26,8.26,0,0,1-2.69,3.81,32.34,32.34,0,0,1-17.55,7.74c-3,.45-6,.7-9,1.12l-.14-.6Z"/><path class="cls-8" d="M177.72,107.73c-6.6-.59-12.83-3.26-18.7-6.19-2.63-1.33-6.47-3-8.53-5.12-2.39-2.43-5.08-5.45-5.16-9.09l.56-.21a16.29,16.29,0,0,0,2.09,1.2c2,1,4.25,2.17,6.18,3.34,4,2.51,7.19,6.09,11.25,8.52a61.07,61.07,0,0,0,12.42,7l-.11.59Z"/></g></g></svg>