<svg id="artwork" xmlns="http://www.w3.org/2000/svg" viewBox="0 0 245 730"><defs><style>.cls-1{fill:#d9cec5;}.cls-2{fill:#69564b;}.cls-3,.cls-4{fill:#2d2d2d;}.cls-4{fill-rule:evenodd;}.cls-5{fill:none;stroke:#2d2d2d;stroke-miterlimit:10;}.cls-6{fill:#f2eae4;}.cls-7{fill:#462e13;}</style></defs><g id="eyes_shocked3"><g id="white"><path class="cls-1" d="M99.5,111.13c-3.94.93-10.06,2.92-12.52,6.47-2.12,3.05-.17,8.54,3.18,10.57,5.27,3.2,7.75-1.27,13.51.07,11.68,2.71,12.31,2.5,16.69-5.43a8.31,8.31,0,0,0-1.18-9.69c-1.34-1.34-6.85-3.21-8.73-3.45C107.69,109.32,103.78,110.11,99.5,111.13Z"/><path class="cls-1" d="M164.8,109.52c3.94.93,11,6.1,13.48,9.65,2.12,3.06.17,8.54-3.17,10.57-5.27,3.2-7.76-1.27-13.52.07-11.68,2.71-12.3,2.5-16.69-5.42-1.37-2.49-1.73-7.75,1.19-10.67a16.24,16.24,0,0,1,6.83-3.43C155.67,109.94,160.53,108.5,164.8,109.52Z"/></g><g id="iris"><path class="cls-2" d="M100.53,127.86a10.7,10.7,0,0,0,3.1.13,9.85,9.85,0,0,0,5.52-2.18c2-1.85,2-3.74,1.24-6.37a7,7,0,0,0-2.78-3.39c-2.58-2.06-6.59-1.6-9.23.08a6.21,6.21,0,0,0-2.78,6.92,4.84,4.84,0,0,0,1.05,2.41,4.68,4.68,0,0,0,2.35,2C99.18,127.5,100.34,127.8,100.53,127.86Z"/><path class="cls-2" d="M158,129.62a11.07,11.07,0,0,0,3.1.13,9.83,9.83,0,0,0,5.51-2.19c2-1.84,2-3.73,1.25-6.36a7,7,0,0,0-2.78-3.4c-2.58-2-6.59-1.6-9.23.09a6.21,6.21,0,0,0-2.78,6.92,4.92,4.92,0,0,0,1,2.4,4.7,4.7,0,0,0,2.35,2C156.66,129.25,157.82,129.56,158,129.62Z"/></g><g id="iris_outline"><path class="cls-3" d="M96.64,122.07A53.2,53.2,0,0,1,103,123.3a2.29,2.29,0,0,1,.37.12c0,.07,0,0-.06,0v0c.06,0,0,0,0,0l-.32-.07a53.44,53.44,0,0,1-6.36-1.29Z"/><path class="cls-3" d="M97.57,117.05c1.32,1,3.31,2.16,4.52,3.25a22.7,22.7,0,0,1-4.52-3.25Z"/><path class="cls-3" d="M108.64,117.76a34.69,34.69,0,0,1-4.58,3.38l0,0h.08v0l-.16.07c1.28-1.48,3.26-2.2,4.67-3.42Z"/><path class="cls-3" d="M105.35,115.6c-1,1.47-.62,3.75-2.19,4.85,1.12-1.37,1.12-3.49,2.19-4.85Z"/><path class="cls-3" d="M110.73,122.84a34.3,34.3,0,0,1-5.65-1.4c-.23-.08-.63-.14-.76-.35,2.12.4,4.32,1.34,6.41,1.75Z"/><path class="cls-3" d="M100.86,126.53c.66-.47.6-1.39.79-2.11s.45-1.74,1-2.12c0,0,0,0,0,0h0s.06,0,0,0c-.37.65-.5,1.47-.84,2.17s-.28,1.77-1,2.06Z"/><path class="cls-3" d="M106.68,126.67c-1.14-1.74-2.64-3.24-3.57-5.12a33.52,33.52,0,0,1,3.57,5.12Z"/><path class="cls-3" d="M102.66,127.94c14.85-.23,6.31-18.53-4-11.28-2.63,2.23-3.69,6.82-1.07,9.45a7.55,7.55,0,0,0,5.07,1.83v.1c-11.31,1.09-9-14.58,1-13.83a8,8,0,0,1,7.47,7.82,5.59,5.59,0,0,1-2.92,4.81,11.35,11.35,0,0,1-5.57,1.2v-.1Z"/><path class="cls-3" d="M159.94,129.85c14.85-.23,6.3-18.53-4-11.29-2.63,2.24-3.68,6.83-1.07,9.46a7.57,7.57,0,0,0,5.08,1.83v.1c-11.3,1.09-9-14.58,1-13.83a8,8,0,0,1,7.47,7.81,5.58,5.58,0,0,1-2.92,4.82,11.31,11.31,0,0,1-5.56,1.2v-.1Z"/><path class="cls-3" d="M166.23,121.53c-2.09.56-4.24.91-6.37,1.27l-.32.06s-.06,0,0,0v0s-.05,0-.05,0a1.47,1.47,0,0,1,.37-.13,44.21,44.21,0,0,1,6.38-1.2Z"/><path class="cls-3" d="M165.62,118.3c-1.58,1.43-3.72,3.67-5.52,4.7a28.23,28.23,0,0,1,2.74-2.37s2.78-2.41,2.78-2.33Z"/><path class="cls-3" d="M154.65,119.32c1.41,1.3,3.37,1.93,4.65,3.44l-.16-.07v0l.08,0a18.07,18.07,0,0,1-2.37-1.58c-.69-.6-1.7-1-2.21-1.78Z"/><path class="cls-3" d="M157.94,117.16c1,1.47,1.07,3.47,2.17,4.86-1.54-1.09-1.26-3.4-2.17-4.86Z"/><path class="cls-3" d="M152.54,124.39c2.16-.36,4.27-1.35,6.41-1.72-.13.2-.53.26-.76.34a29.28,29.28,0,0,1-5.65,1.38Z"/><path class="cls-3" d="M163.86,128.24c-.72-.42-.74-1.38-1-2.09s-.47-1.51-.84-2.16c0,0,0,0,0,0h0s0,0,0,0h0c.56.43.73,1.42,1,2.11s.19,1.64.78,2.14Z"/><path class="cls-3" d="M156.31,129a35.62,35.62,0,0,1,3.34-4.71,34.21,34.21,0,0,1-3.34,4.71Z"/></g><g id="pupil"><path class="cls-4" d="M102.14,124.21l-1.79.26a4.51,4.51,0,0,1,.45-5.31c1.27-1.22,3.15-.84,4.17.85a4.54,4.54,0,0,1-.46,5.32,2.44,2.44,0,0,1-1.32.68Z"/><path class="cls-4" d="M159.28,125.35l.78,1.63a4.52,4.52,0,0,0,4.14-3.36c.3-1.74-1.08-3.07-3-3A4.48,4.48,0,0,0,157,124a2.4,2.4,0,0,0,.17,1.48Z"/><path class="cls-4" d="M102.14,124.21l-1.79.26a4.51,4.51,0,0,1,.45-5.31c1.27-1.22,3.15-.84,4.17.85a4.54,4.54,0,0,1-.46,5.32,2.44,2.44,0,0,1-1.32.68Z"/><path class="cls-4" d="M159.28,125.35l.78,1.63a4.52,4.52,0,0,0,4.14-3.36c.3-1.74-1.08-3.07-3-3A4.48,4.48,0,0,0,157,124a2.4,2.4,0,0,0,.17,1.48Z"/><path class="cls-5" d="M102.14,124.21l-1.79.26a4.51,4.51,0,0,1,.45-5.31c1.27-1.22,3.15-.84,4.17.85a4.54,4.54,0,0,1-.46,5.32,2.44,2.44,0,0,1-1.32.68Z"/><path class="cls-5" d="M159.28,125.35l.78,1.63a4.52,4.52,0,0,0,4.14-3.36c.3-1.74-1.08-3.07-3-3A4.48,4.48,0,0,0,157,124a2.4,2.4,0,0,0,.17,1.48Z"/></g><g id="spec"><path class="cls-6" d="M108.92,116.38c-1.76.69-.42,2.66,1.08,2.89a2.19,2.19,0,0,0,2.17-.86c.76-1.38-1.67-2.62-3.19-2.06Z"/><path class="cls-6" d="M166,120.11c-1.23-1.29,1-2.63,2.46-2.29a1.85,1.85,0,0,1,1.52,1.6c0,1.57-2.85,1.82-3.94.74Z"/></g><g id="outline"><path class="cls-3" d="M83.64,124.23c1.37-4.07,3.28-8.14,6.65-11,4.18-3.56,9.58-6,15.16-5.66,5.3.18,11.61.79,15,5.42a10.73,10.73,0,0,1,1.8,6.21l-.24,0a10.37,10.37,0,0,0-2.25-5.7c-4.4-5.37-17.35-4.68-23.28-2.3a20.5,20.5,0,0,0-9.64,7.51,39.21,39.21,0,0,0-3,5.58l-.23-.09Z"/><path class="cls-3" d="M91.83,130.89a49.86,49.86,0,0,1,5.8-2,22.39,22.39,0,0,1,6.09-.85,22.86,22.86,0,0,1,6.09.92c2,.57,3.91,1.26,5.84,2l0,0s0,0,0,0c-2-.56-3.92-1.22-5.9-1.74a25.63,25.63,0,0,0-6-1c-4.11-.1-8.09,1.22-11.88,2.72h0S91.82,130.9,91.83,130.89Z"/><path class="cls-3" d="M86.26,120.35a4.06,4.06,0,0,0,.12,3.15A12,12,0,0,0,88,126.33a12.56,12.56,0,0,0,2.26,2.29,3.93,3.93,0,0,0,3,1h0v0a3.71,3.71,0,0,1-3.1-.83,10.56,10.56,0,0,1-2.29-2.38,12.35,12.35,0,0,1-1.52-2.9,4.09,4.09,0,0,1,0-3.2h0S86.27,120.34,86.26,120.35Z"/><path class="cls-3" d="M121.41,117.16a13.48,13.48,0,0,1-.64,4.27,20.89,20.89,0,0,1-1.6,4,10.21,10.21,0,0,1-2.67,3.42,4.42,4.42,0,0,1-2,.87,3.56,3.56,0,0,1-2.13-.4s0,0,0,0,0,0,0,0a3.77,3.77,0,0,0,2.09.25,4.41,4.41,0,0,0,1.89-.9,11.17,11.17,0,0,0,2.65-3.32,20.9,20.9,0,0,0,1.67-4,13.66,13.66,0,0,0,.71-4.24,0,0,0,0,1,0,0S121.41,117.14,121.41,117.16Z"/><path class="cls-3" d="M123,104.73a15.71,15.71,0,0,1-1.25,2.66,9.66,9.66,0,0,1-.81,1.23,8.51,8.51,0,0,1-1,1s0,0,0,0a0,0,0,0,1,0,0l.85-1.2c.28-.39.58-.77.84-1.18a16.27,16.27,0,0,0,1.4-2.56,0,0,0,0,1,0,0Z"/><path class="cls-3" d="M109.07,100.56l-.46,2.77c-.07.46-.13.92-.24,1.38a12.91,12.91,0,0,1-.38,1.35h0c0-.48.09-.94.15-1.4s.2-.92.3-1.37l.62-2.74h0Z"/><path class="cls-3" d="M97.74,101a20.08,20.08,0,0,1,1.32,2.57,13.13,13.13,0,0,1,.52,1.36,6.74,6.74,0,0,1,.28,1.42h0L99.34,105l-.47-1.35A18.23,18.23,0,0,0,97.71,101a0,0,0,0,1,0,0Z"/><path class="cls-3" d="M89.79,106.27l1.08,2.26c.18.37.37.74.52,1.13a9.78,9.78,0,0,1,.4,1.19,0,0,0,0,1,0,0h0a9.88,9.88,0,0,1-.61-1.1c-.18-.37-.32-.77-.47-1.15l-.92-2.33a0,0,0,0,1,0,0Z"/><path class="cls-3" d="M82.2,112.87a18.69,18.69,0,0,0,1.62,1.59c.29.24.61.44.91.66s.61.45.9.71h0a7.64,7.64,0,0,1-1-.52,6.18,6.18,0,0,1-.9-.72,17.64,17.64,0,0,1-1.51-1.73h0S82.2,112.87,82.2,112.87Z"/><path class="cls-3" d="M87.45,129.91a4.6,4.6,0,0,0,1.27,3.35,3.55,3.55,0,0,0,1.49,1,2.77,2.77,0,0,0,1.77-.09h0s0,0,0,0a2.35,2.35,0,0,1-1.85.31,3.24,3.24,0,0,1-1.57-1.06,4.74,4.74,0,0,1-1.14-3.49h0Z"/><path class="cls-3" d="M119.74,101.48a10,10,0,0,0,2.38-3.87,12,12,0,0,0,.51-2.21,13.3,13.3,0,0,0,.12-2.28,0,0,0,0,1,0,0l0,0a8.12,8.12,0,0,1,.1,2.31,8.75,8.75,0,0,1-.57,2.25,9.91,9.91,0,0,1-2.56,3.81s0,0,0,0S119.73,101.48,119.74,101.48Z"/><path class="cls-3" d="M181.39,125.9c-5.91-13.73-15.94-21-30.73-15a12.43,12.43,0,0,0-7.42,9.87H143a11.84,11.84,0,0,1,1.83-6.55c5.33-7.84,17.24-9.55,25.18-4.81,5.94,3.6,9.41,10.08,11.62,16.38l-.23.09Z"/><path class="cls-3" d="M173.42,132.49c-3.79-1.5-7.77-2.82-11.87-2.72a25.14,25.14,0,0,0-6,1c-2,.51-3.92,1.17-5.89,1.73h0l0,0c1.93-.69,3.86-1.38,5.83-1.94a21.28,21.28,0,0,1,12.18-.08,46.94,46.94,0,0,1,5.8,2.05s0,0,0,0Z"/><path class="cls-3" d="M179,121.91a4,4,0,0,1,0,3.2,11.9,11.9,0,0,1-1.53,2.91,10.46,10.46,0,0,1-2.28,2.37,3.68,3.68,0,0,1-3.1.83,0,0,0,0,1,0,0h0a3.88,3.88,0,0,0,2.95-1,12.31,12.31,0,0,0,2.27-2.29,11.72,11.72,0,0,0,1.58-2.83,4,4,0,0,0,.12-3.14v0Z"/><path class="cls-3" d="M143.89,117.72a29.31,29.31,0,0,0,.82,4.47,25.82,25.82,0,0,0,1.52,4.27,11.51,11.51,0,0,0,2.53,3.68,4.07,4.07,0,0,0,1.94,1,3.86,3.86,0,0,0,2.19-.27s0,0,0,0l0,0a3.59,3.59,0,0,1-2.23.42,4.08,4.08,0,0,1-2.07-1,10.66,10.66,0,0,1-2.55-3.79,26.42,26.42,0,0,1-1.45-4.32,28.54,28.54,0,0,1-.74-4.5,0,0,0,0,1,0,0A0,0,0,0,1,143.89,117.72Z"/><path class="cls-3" d="M143.11,103.23a15.44,15.44,0,0,0,1.39,2.56c.27.41.57.79.85,1.19l.84,1.19h0a8.49,8.49,0,0,1-1-1.06,11,11,0,0,1-.82-1.23,17.43,17.43,0,0,1-1.25-2.66h0Z"/><path class="cls-3" d="M153.32,100.92l.62,2.74c.11.45.22.91.3,1.37a12.85,12.85,0,0,1,.16,1.39h0c-.16-.45-.26-.9-.38-1.35s-.17-.92-.24-1.39l-.45-2.76a0,0,0,0,1,0,0S153.32,100.92,153.32,100.92Z"/><path class="cls-3" d="M165.65,101.12a13.72,13.72,0,0,0-.94,2.07l-.34,1.08c-.13.35-.24.71-.39,1.07h0a5.42,5.42,0,0,1,.18-1.14,6.1,6.1,0,0,1,.4-1.08,13.48,13.48,0,0,1,1.1-2h0Z"/><path class="cls-3" d="M174.5,105.72l-.92,2.32c-.16.39-.3.78-.48,1.15a10.59,10.59,0,0,1-.6,1.1h0a9.78,9.78,0,0,1,.4-1.19c.15-.38.34-.75.52-1.13l1.08-2.25h0Z"/><path class="cls-3" d="M183.08,114.45a15.37,15.37,0,0,1-1.5,1.73,5.24,5.24,0,0,1-.91.72,6.53,6.53,0,0,1-1,.52,0,0,0,0,1,0,0h0c.29-.26.6-.48.9-.71s.62-.42.91-.66a16.2,16.2,0,0,0,1.62-1.59h0Z"/><path class="cls-3" d="M177.84,131.48A4.77,4.77,0,0,1,176.7,135a3.2,3.2,0,0,1-1.58,1.06,2.36,2.36,0,0,1-1.84-.3v0s0,0,0,0a2.76,2.76,0,0,0,1.77.08,3.61,3.61,0,0,0,1.49-1,4.58,4.58,0,0,0,1.26-3.34,0,0,0,0,1,0,0Z"/><path class="cls-3" d="M143.22,93.85a2.82,2.82,0,0,1-1.47-1.23,5,5,0,0,1-.67-1.83,6.78,6.78,0,0,1-.07-2A7.66,7.66,0,0,1,141.5,87h0v0a17.73,17.73,0,0,0-.27,1.9,8.62,8.62,0,0,0,0,1.9,4.91,4.91,0,0,0,.56,1.8,2.82,2.82,0,0,0,1.39,1.27s0,0,0,0Z"/><path class="cls-3" d="M122.15,119.22a10.72,10.72,0,0,0-2.05-5.94,10.92,10.92,0,0,0-5.22-3.46,24.47,24.47,0,0,0-6.25-1.1,42.19,42.19,0,0,0-6.36.09,23.37,23.37,0,0,0-11.54,5,18.52,18.52,0,0,0-4.19,4.76,35.64,35.64,0,0,0-2.78,5.73h0a36.16,36.16,0,0,1,2.74-5.76,18.28,18.28,0,0,1,4.15-4.83,22.94,22.94,0,0,1,11.6-5,41.32,41.32,0,0,1,6.39-.09,23.51,23.51,0,0,1,6.28,1.15,9.87,9.87,0,0,1,7.23,9.51Z"/><path class="cls-3" d="M83.64,124.23l.19.08s0,0,.06,0l0-.09.16-.36.34-.73.71-1.44a29.43,29.43,0,0,1,1.6-2.78,17.32,17.32,0,0,1,4.37-4.66,25,25,0,0,1,5.61-3.11,27.83,27.83,0,0,1,6.25-1.45,34.42,34.42,0,0,1,6.42-.2,21.58,21.58,0,0,1,6.29,1.26,9.63,9.63,0,0,1,5,3.92,10.78,10.78,0,0,1,1.18,3c.05.27.11.53.15.8l.06.4,0,.2v.09a0,0,0,0,1,0,0h.08s0,0,0-.08v-.4c0-.27,0-.53-.06-.8a9.52,9.52,0,0,0-2.49-5.73,12.38,12.38,0,0,0-5.4-3.25,27.28,27.28,0,0,0-6.29-1.1,27.77,27.77,0,0,0-6.38.06,23.31,23.31,0,0,0-11.38,5.54c-3.27,2.81-5.19,6.83-6.53,10.85h0c1.34-4,3.23-8.06,6.51-10.9a23.47,23.47,0,0,1,11.39-5.62,28.62,28.62,0,0,1,6.41-.08,27.17,27.17,0,0,1,6.33,1.09,12.52,12.52,0,0,1,5.47,3.3,9.67,9.67,0,0,1,2.53,5.83c0,.26,0,.53.06.8v.54c0,.06,0,.12-.07.1l-.31,0-.13-.86q-.06-.39-.15-.78a10.31,10.31,0,0,0-1.16-3,9.43,9.43,0,0,0-4.9-3.86,21.78,21.78,0,0,0-6.24-1.26,35.09,35.09,0,0,0-6.4.17,27.61,27.61,0,0,0-6.23,1.42,25,25,0,0,0-5.61,3.06,17.54,17.54,0,0,0-4.38,4.63,29.52,29.52,0,0,0-1.61,2.78c-.24.47-.48,1-.71,1.43l-.34.73-.17.36,0,.1s0,.06-.07,0l-.19-.08Z"/><path class="cls-3" d="M91.81,130.92a52,52,0,0,1,5.8-2.07,21.81,21.81,0,0,1,6.11-.83,22.85,22.85,0,0,1,6.09,1c2,.56,3.91,1.27,5.86,1.9h0c-2-.61-3.91-1.26-5.89-1.78a25.49,25.49,0,0,0-6.06-.93,23.59,23.59,0,0,0-6.08.79,45.84,45.84,0,0,0-5.83,1.95Z"/><path class="cls-3" d="M91.83,130.89c3.68-1.4,7.75-2.84,11.88-2.75a24.79,24.79,0,0,1,6.07,1l2.08.59-2.07-.68a23.49,23.49,0,0,0-6.06-.94c-4.12-.07-8.12,1.27-11.9,2.83h0c3.78-1.55,7.75-3,11.9-2.95a22.85,22.85,0,0,1,6.1.9l5.92,2.07c-1.93-.49-4-1.11-6-1.66a25.92,25.92,0,0,0-6.06-1c-4.09-.14-8.19,1.23-11.87,2.63Z"/><path class="cls-3" d="M86.26,120.33a4,4,0,0,0,.13,3.16A13.17,13.17,0,0,0,88,126.34a12.42,12.42,0,0,0,2.25,2.33,3.79,3.79,0,0,0,.67.46l.35.21.38.15a2.74,2.74,0,0,0,1.6.14h0a2.76,2.76,0,0,1-1.61-.09l-.4-.14-.36-.19a3.92,3.92,0,0,1-.7-.44,10.47,10.47,0,0,1-2.31-2.34,10.94,10.94,0,0,1-1.55-2.9,4.13,4.13,0,0,1,0-3.2Z"/><path class="cls-3" d="M86.26,120.35s0,0,0,0h0a4,4,0,0,0,.06,3.17,11.59,11.59,0,0,0,1.53,2.86,11,11,0,0,0,2.23,2.33,3.83,3.83,0,0,0,3,.91l.13,0,.37-.1-.35.15h0a0,0,0,0,0,0,0v0a4,4,0,0,1-3-1,12,12,0,0,1-3.83-5.15,4.14,4.14,0,0,1-.11-3.2h0a4,4,0,0,0,.16,3.18,11.78,11.78,0,0,0,1.63,2.81,12.07,12.07,0,0,0,2.24,2.22,3.82,3.82,0,0,0,2.87,1h0a.09.09,0,0,1,0,.18h0l-.15,0a3.92,3.92,0,0,1-3.09-.93,10.37,10.37,0,0,1-2.24-2.39,11.47,11.47,0,0,1-1.48-2.92,4.08,4.08,0,0,1,0-3.18h0s0,0,0,0Z"/><path class="cls-3" d="M121.39,117.13a13.62,13.62,0,0,1-.61,4.29,19.75,19.75,0,0,1-1.62,4,10.33,10.33,0,0,1-2.71,3.38,4.19,4.19,0,0,1-2,.86,3.59,3.59,0,0,1-2.11-.36h0a3.55,3.55,0,0,0,2.1.31,4.26,4.26,0,0,0,1.92-.9,11.31,11.31,0,0,0,2.65-3.37,23.91,23.91,0,0,0,1.64-4,13.09,13.09,0,0,0,.73-4.25Z"/><path class="cls-3" d="M121.41,117.16c0-.07,0,0,0,.07v.41a4.89,4.89,0,0,1,0,.54c0,.36-.08.72-.14,1.08-.13.71-.31,1.41-.51,2.11a21.25,21.25,0,0,1-1.65,4,10.94,10.94,0,0,1-2.7,3.39,4.34,4.34,0,0,1-2,.9,3.68,3.68,0,0,1-1.1,0,3,3,0,0,1-.54-.13l-.26-.09-.07,0,0,0c0-.05,0,0,0-.07s0,0,.05-.05l0,0,.06,0a3.51,3.51,0,0,0,2.06.33,4.39,4.39,0,0,0,1.93-.87,10.34,10.34,0,0,0,2.64-3.36,22.12,22.12,0,0,0,1.64-4,13.79,13.79,0,0,0,.65-4.27h0a14.17,14.17,0,0,1-.62,4.28,21.18,21.18,0,0,1-1.56,4,10.32,10.32,0,0,1-2.65,3.43,4.66,4.66,0,0,1-2,.9,3.59,3.59,0,0,1-2.16-.35l-.06,0,0,0s-.08,0,0-.14.14,0,.16,0l.06,0,.26.09a4.7,4.7,0,0,0,.51.12,3.43,3.43,0,0,0,1.06,0,4.1,4.1,0,0,0,1.92-.87,11.3,11.3,0,0,0,2.7-3.32,21.42,21.42,0,0,0,1.71-4,19,19,0,0,0,.53-2.1c.07-.36.12-.72.16-1.08l0-.54v-.41s0-.14,0-.07Z"/><path class="cls-3" d="M123,104.72a13.21,13.21,0,0,1-1.26,2.66,11.29,11.29,0,0,1-.85,1.2c-.32.38-.65.74-1,1.09h0a12.86,12.86,0,0,0,.89-1.17c.27-.4.55-.8.81-1.21a22.73,22.73,0,0,0,1.39-2.57Z"/><path class="cls-3" d="M123,104.73s0,0,0,0h0a16.86,16.86,0,0,1-1.35,2.6l-.83,1.2c-.11.18-.21.32-.25.4l.32-.36.83-1.2a15,15,0,0,0,1.3-2.63h0a17.55,17.55,0,0,1-1.21,2.69l-.8,1.25-1.14,1.06a14.29,14.29,0,0,1,.8-1.3l.87-1.17a15.57,15.57,0,0,0,1.45-2.54h0s0,0,0,0Z"/><path class="cls-3" d="M109.06,100.55c-.16.92-.26,1.86-.46,2.77-.09.46-.18.92-.29,1.38l-.33,1.37h0l.21-1.4c.06-.46.15-.92.25-1.38.15-.92.41-1.83.62-2.74Z"/><path class="cls-3" d="M109.07,100.56h0l-.56,2.75-.27,1.37,0,.47a4.64,4.64,0,0,0,.12-.45l.26-1.36.52-2.77h0c-.14,1-.27,1.87-.4,2.79-.07.47-.14.94-.23,1.4s-.31,1-.49,1.39l.09-1.49.32-1.37.68-2.73h0s0,0,0,0Z"/><path class="cls-3" d="M97.72,101A13.64,13.64,0,0,1,99,103.61a13.07,13.07,0,0,1,.48,1.37q.2.7.33,1.41h0A10.93,10.93,0,0,0,99.4,105l-.51-1.35A28.24,28.24,0,0,0,97.72,101Z"/><path class="cls-3" d="M97.73,101s0,0,0,0h0a21.26,21.26,0,0,1,1.21,2.61l1,2.71,0,0s-.06,0-.09,0a0,0,0,0,0,0,0v0h0A6.9,6.9,0,0,0,99.5,105L99,103.63a17,17,0,0,0-1.28-2.6h0a20.33,20.33,0,0,1,1.38,2.56l.54,1.35a6.92,6.92,0,0,1,.28,1.44h0v0l0,0a.09.09,0,0,1-.12,0h0v0A51.17,51.17,0,0,0,97.71,101h0Z"/><path class="cls-3" d="M89.78,106.27c.35.76.76,1.49,1.07,2.26.17.38.34.77.49,1.16l.44,1.17h0l-.56-1.12c-.19-.37-.35-.76-.51-1.14-.36-.76-.62-1.55-.94-2.33Z"/><path class="cls-3" d="M89.79,106.27s0,0,0,0h0l1,2.3.49,1.14.22.36c-.06-.18-.12-.33-.14-.39l-.5-1.12-1-2.3h0l1.14,2.24c.19.38.38.76.55,1.15s.26.89.32,1.28l-.71-1.14-.46-1.17-.86-2.35h0s0,0,0,0Z"/><path class="cls-3" d="M82.19,112.87c.52.56,1.07,1.09,1.62,1.6.28.25.59.47.89.7s.61.46.93.67h0l-1-.56a6.22,6.22,0,0,1-.93-.69,11.21,11.21,0,0,1-1.51-1.72Z"/><path class="cls-3" d="M82.2,112.87h0l1.55,1.68.89.69.38.18c-.1-.09-.26-.2-.31-.24l-.89-.67-1.6-1.65h0l1.68,1.57c.32.22.63.42.94.66l.47.42.23.2.11.1s.11.1,0,.07c-.38-.16-.76-.32-1.13-.5l-.89-.73-1.46-1.77h0a0,0,0,0,1,0,0Z"/><path class="cls-3" d="M87.44,129.9a4.15,4.15,0,0,0,.31,1.81,5.4,5.4,0,0,0,1,1.56,3.57,3.57,0,0,0,1.5,1l.44.09a3.53,3.53,0,0,0,.46,0c.15,0,.31,0,.46-.08l.43-.16h0l-.43.18c-.15.05-.3.08-.45.12s-.32,0-.48,0l-.47-.06a3.2,3.2,0,0,1-1.58-1,4.54,4.54,0,0,1-1.14-3.48Z"/><path class="cls-3" d="M87.45,129.91a4.49,4.49,0,0,0,1.13,3.4,3.31,3.31,0,0,0,1.47,1,2.28,2.28,0,0,0,1.75-.18l.14-.08,0,.06s0,0,0,0l0,.07a2.85,2.85,0,0,1-1.78.1,3.49,3.49,0,0,1-1.51-1,4.73,4.73,0,0,1-1.26-3.44h0a4.56,4.56,0,0,0,1.35,3.35,3.55,3.55,0,0,0,1.47.89,2.69,2.69,0,0,0,1.68-.09h0a.1.1,0,0,1,.07.18h0l-.15.09a2.42,2.42,0,0,1-1.88.19,3.24,3.24,0,0,1-1.52-1.11,4.66,4.66,0,0,1-1-3.48Z"/><path class="cls-3" d="M119.74,101.49a9.17,9.17,0,0,0,1.41-1.81,12.19,12.19,0,0,0,1-2.06,12,12,0,0,0,.55-2.22,8.85,8.85,0,0,0,.07-2.3h0a10.58,10.58,0,0,1,0,2.32,8.83,8.83,0,0,1-.52,2.26,8.93,8.93,0,0,1-1,2.07,11,11,0,0,1-1.51,1.75Z"/><path class="cls-3" d="M119.74,101.48a9.49,9.49,0,0,0,2.5-3.78,8.35,8.35,0,0,0,.47-4.5v0h.13v.47l0,.58a8.93,8.93,0,0,1-.1,1.16,12.55,12.55,0,0,1-.52,2.26,10.24,10.24,0,0,1-2.46,3.89h0a10,10,0,0,0,2.34-3.93,14.17,14.17,0,0,0,.48-2.24c0-.38.08-.76.1-1.15v-1s0-.1.08-.09.1,0,.1.07l0,.07a8,8,0,0,1-.52,4.57,9.76,9.76,0,0,1-2.61,3.74Z"/><path class="cls-3" d="M143.11,120.79a11.86,11.86,0,0,1,2.11-6.27,14.35,14.35,0,0,1,5-4.35,22,22,0,0,1,13-2.21,17.82,17.82,0,0,1,6.34,2.13,20.32,20.32,0,0,1,5.18,4.23,38.19,38.19,0,0,1,6.7,11.53h0a38.1,38.1,0,0,0-6.79-11.45,21,21,0,0,0-5.17-4.17,18,18,0,0,0-6.28-2.11,22.16,22.16,0,0,0-13,2.16,14.18,14.18,0,0,0-5.05,4.27,11.65,11.65,0,0,0-2.14,6.24Z"/><path class="cls-3" d="M181.39,125.9l.2-.08c.06,0,0-.12,0-.18l-.14-.39-.3-.79c-.2-.52-.4-1-.62-1.56-.43-1-.91-2.05-1.42-3.05a30.68,30.68,0,0,0-3.67-5.62,21.36,21.36,0,0,0-5-4.46,18.53,18.53,0,0,0-6.2-2.47,20.57,20.57,0,0,0-13.06,1.63,16.42,16.42,0,0,0-5.27,4,11,11,0,0,0-2.71,6,13.24,13.24,0,0,0-.12,1.66c0,.1,0,.06,0,.08s.07,0,.08,0l.05-.38a8,8,0,0,1,.14-.83,11.52,11.52,0,0,1,1.2-3.16,13,13,0,0,1,4.7-4.77,24.39,24.39,0,0,1,13-2.73,18.91,18.91,0,0,1,11.86,5.79,29.36,29.36,0,0,1,4.14,5.29,46.26,46.26,0,0,1,3.1,6h0a45.5,45.5,0,0,0-3.12-6,29.43,29.43,0,0,0-4.16-5.27,18.77,18.77,0,0,0-11.83-5.7,24.32,24.32,0,0,0-12.94,2.74,13,13,0,0,0-4.64,4.71,11.73,11.73,0,0,0-1.18,3.11,8,8,0,0,0-.14.83c0,.15,0,.23-.07.45s-.09,0-.14.05h0s0,.07,0-.07h0s-.05.15,0,.08h0c-.17.06-.09-.2-.11-.23A11.87,11.87,0,0,1,143,119a11.18,11.18,0,0,1,2.74-6.09,16.92,16.92,0,0,1,5.33-4.09,20.59,20.59,0,0,1,13.16-1.6,18.72,18.72,0,0,1,6.22,2.51,21.74,21.74,0,0,1,5,4.5,31.16,31.16,0,0,1,3.65,5.65c.5,1,1,2,1.41,3,.22.52.42,1,.62,1.57l.29.79.14.39c0,.06.1.15,0,.18l-.2.08Z"/><path class="cls-3" d="M173.46,132.49a48.19,48.19,0,0,0-5.84-2,23.58,23.58,0,0,0-6.07-.79,25.41,25.41,0,0,0-6.06.93c-2,.52-3.94,1.17-5.9,1.79h0c2-.63,3.89-1.33,5.87-1.9a22.78,22.78,0,0,1,6.08-1,21.71,21.71,0,0,1,6.11.83,51.41,51.41,0,0,1,5.81,2.07Z"/><path class="cls-3" d="M173.42,132.49c-3.61-1.55-7.72-2.91-11.81-2.85a23,23,0,0,0-6.06.91l-2.13.72c.25-.06.63-.18.83-.24l.92-.28.49-.13,1.14-.28a23.11,23.11,0,0,1,4.68-.63,22.53,22.53,0,0,1,6.11.8,50,50,0,0,1,5.83,2h0c-3.8-1.51-7.81-2.79-11.94-2.65a23.47,23.47,0,0,0-4.64.65l-1.14.29-1.89.55L150,132.45h-.2l-.14,0h-.12s0,0,0-.05l5.93-2a22.5,22.5,0,0,1,6.1-.89c4.12,0,8.2,1.43,11.81,3Z"/><path class="cls-3" d="M179,121.9a4.09,4.09,0,0,1,0,3.2,10.91,10.91,0,0,1-1.54,2.9,10.51,10.51,0,0,1-2.31,2.35,5.06,5.06,0,0,1-.7.43l-.37.2-.39.13a2.79,2.79,0,0,1-1.62.1h0a2.73,2.73,0,0,0,1.6-.14l.38-.15.35-.21a3.74,3.74,0,0,0,.67-.45,12.53,12.53,0,0,0,2.26-2.34,12.94,12.94,0,0,0,1.56-2.85,3.91,3.91,0,0,0,.12-3.16Z"/><path class="cls-3" d="M179,121.91s0,0,0,0h0a4,4,0,0,1-.09,3.14,11.59,11.59,0,0,1-1.55,2.85,12.1,12.1,0,0,1-2.26,2.32,4,4,0,0,1-3,1v-.05s0,0,0,0l0-.05.09,0a3.72,3.72,0,0,0,3-.88,10.37,10.37,0,0,0,2.25-2.33,11.51,11.51,0,0,0,1.54-2.87,4,4,0,0,0,.06-3.18h0a4.09,4.09,0,0,1,0,3.2,12.19,12.19,0,0,1-1.49,2.92,10.52,10.52,0,0,1-2.26,2.4,3.9,3.9,0,0,1-3.12.89l-.1,0h0a.09.09,0,0,1-.07-.12.12.12,0,0,1,.1-.07h0a3.87,3.87,0,0,0,2.9-1,12.51,12.51,0,0,0,2.27-2.27,11.78,11.78,0,0,0,1.59-2.78,4,4,0,0,0,.14-3.13h0s0,0,0,0Z"/><path class="cls-3" d="M143.87,117.7a30.39,30.39,0,0,0,2.34,8.77,11.87,11.87,0,0,0,2.52,3.73,4,4,0,0,0,2,1,3.71,3.71,0,0,0,2.22-.33h0a3.71,3.71,0,0,1-2.22.38,4.06,4.06,0,0,1-2-1,10.74,10.74,0,0,1-2.59-3.76,27.27,27.27,0,0,1-2.19-8.83Z"/><path class="cls-3" d="M143.89,117.72c0-.06,0,.06,0,.09V118l0,.28.06.57c.05.38.11.75.17,1.13.13.75.29,1.49.47,2.23a25.76,25.76,0,0,0,1.47,4.31,11.1,11.1,0,0,0,2.51,3.74,4.24,4.24,0,0,0,1.95,1,3.56,3.56,0,0,0,2.18-.31l.12-.07c.06,0,.08.15,0,.14l-.27.1a3.65,3.65,0,0,1-.57.14,3.76,3.76,0,0,1-1.16,0,4,4,0,0,1-2.06-1,11.22,11.22,0,0,1-2.61-3.75,25.35,25.35,0,0,1-1.49-4.32,28.36,28.36,0,0,1-.81-4.49h0a27.44,27.44,0,0,0,2.41,8.76,11.67,11.67,0,0,0,2.6,3.67,3.72,3.72,0,0,0,2,1,3.46,3.46,0,0,0,1.11,0,3.58,3.58,0,0,0,.54-.14l.26-.09s0,0,.09,0,.13.08.09.14,0,0-.07,0l-.12.07a3.72,3.72,0,0,1-2.27.33,4.28,4.28,0,0,1-2-1.07,10.77,10.77,0,0,1-2.51-3.81,25.64,25.64,0,0,1-1.4-4.35c-.17-.74-.32-1.49-.44-2.24-.06-.37-.12-.75-.16-1.13l-.06-.57,0-.28v-.14s0-.15,0-.09Z"/><path class="cls-3" d="M143.09,103.23a24.45,24.45,0,0,0,1.39,2.57l.82,1.22a14.26,14.26,0,0,0,.89,1.16h0c-.34-.35-.67-.71-1-1.09a10,10,0,0,1-.85-1.2,12.46,12.46,0,0,1-1.26-2.66Z"/><path class="cls-3" d="M143.1,103.23h0a15.59,15.59,0,0,0,1.3,2.62l.82,1.2.38.38c-.1-.16-.24-.34-.29-.41l-.83-1.18a18.06,18.06,0,0,1-1.36-2.62h0a14.63,14.63,0,0,0,1.46,2.55l.87,1.19.42.66.21.33.1.16s.12.15,0,.11c-.38-.35-.76-.71-1.12-1.07l-.81-1.24a18.85,18.85,0,0,1-1.19-2.68h0s0,0,0,0Z"/><path class="cls-3" d="M153.31,100.92c.2.91.46,1.81.61,2.74.1.46.19.92.26,1.38l.21,1.39h0l-.33-1.36c-.12-.46-.21-.92-.29-1.38-.21-.91-.31-1.85-.47-2.77Z"/><path class="cls-3" d="M153.32,100.92s0,0,0,0h0l.51,2.76.27,1.37.14.44c0-.21-.05-.38-.06-.46l-.27-1.35-.57-2.77h0c.24.94.46,1.84.69,2.74.11.46.22.92.31,1.38s.09,1,.07,1.47l-.48-1.41-.22-1.39-.4-2.78h0a0,0,0,0,1,0,0Z"/><path class="cls-3" d="M165.64,101.11c-.37.67-.64,1.38-.95,2.08l-.39,1.06a8.21,8.21,0,0,0-.33,1.1h0c.07-.38.14-.76.23-1.13a5.8,5.8,0,0,1,.36-1.09,9.6,9.6,0,0,1,1.09-2Z"/><path class="cls-3" d="M165.65,101.12s0,0,0,0h0a12.15,12.15,0,0,0-1,2l-.38,1.06a5.35,5.35,0,0,0-.18,1.11v0a.06.06,0,0,0-.08,0l0,0c.26-.7.5-1.4.75-2.11a13.7,13.7,0,0,1,1-2.08h0a12.68,12.68,0,0,0-.89,2.12,20.45,20.45,0,0,1-.71,2.13v0h0a.11.11,0,0,1-.14,0v-.07a6.4,6.4,0,0,1,.18-1.15l.42-1.07a15.07,15.07,0,0,1,1.16-2h0s0,0,0,0Z"/><path class="cls-3" d="M174.49,105.71c-.31.77-.57,1.57-.93,2.32-.17.39-.33.77-.52,1.14l-.56,1.13h0l.45-1.17c.14-.39.31-.77.48-1.15.31-.78.72-1.51,1.08-2.26Z"/><path class="cls-3" d="M174.49,105.72s0,0,0,0h0l-1,2.28-.5,1.14-.12.39a2.66,2.66,0,0,0,.19-.36l.49-1.13c.32-.76.65-1.52,1-2.31h0l-.87,2.36c-.15.39-.3.78-.47,1.17s-.48.8-.72,1.11l.35-1.29.55-1.13,1.13-2.23h0s0,0,0,0Z"/><path class="cls-3" d="M183.08,114.44a11.85,11.85,0,0,1-1.52,1.73,5.61,5.61,0,0,1-.92.68l-1,.57h0q.47-.31.93-.66c.3-.24.6-.46.89-.7.54-.52,1.1-1,1.62-1.61Z"/><path class="cls-3" d="M183.08,114.45c-.53.48-1.06,1.09-1.6,1.63l-.9.69a3.32,3.32,0,0,0-.28.24l.33-.18.9-.69,1.55-1.69h0l-1.47,1.77-.9.74-1.13.49a10,10,0,0,1,.88-.82l.95-.66c.56-.5,1.12-1.07,1.67-1.53Z"/><path class="cls-3" d="M177.83,131.47a4.52,4.52,0,0,1-.2,1.86,4.36,4.36,0,0,1-.95,1.62,3,3,0,0,1-1.58,1l-.47.07c-.16,0-.32,0-.47,0l-.46-.11-.43-.19h0l.44.16a3.4,3.4,0,0,0,.46.08c.15,0,.3,0,.45,0l.45-.1a3.61,3.61,0,0,0,1.5-1,5.64,5.64,0,0,0,.94-1.56,4.17,4.17,0,0,0,.32-1.82Z"/><path class="cls-3" d="M177.84,131.48a4.9,4.9,0,0,1-1.21,3.35,3.41,3.41,0,0,1-1.53,1,2.77,2.77,0,0,1-1.84-.08l0-.07h0l0-.06.12.07a2.25,2.25,0,0,0,1.74.2,3.3,3.3,0,0,0,1.49-1,4.68,4.68,0,0,0,1.17-3.43h0a4.82,4.82,0,0,1-1.08,3.51,3.18,3.18,0,0,1-1.53,1.09,2.39,2.39,0,0,1-1.87-.21l-.13-.08h0a.12.12,0,0,1,0-.13.12.12,0,0,1,.11,0h0a2.7,2.7,0,0,0,1.73.08,3.58,3.58,0,0,0,1.49-1,4.73,4.73,0,0,0,1.3-3.27Z"/><path class="cls-3" d="M143.23,93.84a2.9,2.9,0,0,1-1.49-1.21,4.81,4.81,0,0,1-.64-1.84,6.71,6.71,0,0,1,0-2,12.21,12.21,0,0,1,.45-1.9h0a9.65,9.65,0,0,0-.32,1.91,8.13,8.13,0,0,0,.06,1.91,5.74,5.74,0,0,0,.59,1.81,2.76,2.76,0,0,0,1.38,1.27Z"/><path class="cls-3" d="M143.22,93.85a3.17,3.17,0,0,1-1.4-1.27,5,5,0,0,1-.61-1.85,8.49,8.49,0,0,1,0-2l.14-1,.06-.48,0-.24,0-.12v0h.06l.07,0h0l0,.05a6.93,6.93,0,0,0-.4,3.77,5.07,5.07,0,0,0,.63,1.81,2.8,2.8,0,0,0,1.44,1.23h0a2.89,2.89,0,0,1-1.49-1.2,5.4,5.4,0,0,1-.71-1.82A6.68,6.68,0,0,1,141.4,87l0-.06s0,0,.07,0,.07,0,.1,0,0,0,0,.07v.12l0,.24-.06.48-.14,1a10.27,10.27,0,0,0,0,1.92,5,5,0,0,0,.54,1.84,3,3,0,0,0,1.35,1.3Z"/></g><g id="eyebrows"><path class="cls-7" d="M119.39,96.16c-2.1.39-3.54-.6-5.34-1.08-9-2.58-16-1.26-23.21,4.94-2.75,2.38-5.73,4.58-8.73,6.76l-.09,0a27,27,0,0,1,.75-2.91C85.1,97,91.42,92.73,97.87,90c6.63-3,15.06-3.15,20.91,1.87a4.79,4.79,0,0,1,1.73,2.78l-1.12,1.47Z"/><path class="cls-7" d="M145.53,89.57c.47-2.64,2.94-3.93,5-5.14,11.3-6.55,29.41,3.07,28.85,16.48l-.09,0c-.72-.64-1.36-1.28-2-1.93-1.78-1.75-3.49-3.49-5.15-5.33-7.06-7.75-13.89-6.17-22.72-2.92a4.21,4.21,0,0,1-2.8.27l-1.12-1.47Z"/></g></g></svg>