<svg id="artwork" xmlns="http://www.w3.org/2000/svg" viewBox="0 0 245 730"><defs><style>.cls-1{fill:#d9cec5;}.cls-2{fill:#69564b;}.cls-3,.cls-4{fill:#2d2d2d;}.cls-4,.cls-7{fill-rule:evenodd;}.cls-5,.cls-7{fill:none;stroke:#2d2d2d;stroke-miterlimit:10;}.cls-6{fill:#f2eae4;}.cls-8{fill:#462e13;}</style></defs><g id="eyes_tired6"><g id="white"><path class="cls-1" d="M98.06,114.34c-3.9,1.43-6.08,1.9-7,3.11s-.87,3.12-.72,4.77c.27,2.8,4.85,5.69,7.86,6.82,2.83,1.07,11.22-.24,11.22-.24s6.69-2.06,7.81-2.73a39.44,39.44,0,0,0,5.32-4.18c1.8-1.73,2.6-3.71,1.29-4.85a30,30,0,0,0-7.14-4.25C113.34,111.34,98.06,114.34,98.06,114.34Z"/><path class="cls-1" d="M161.65,113.84c3.92,1.23,10.15,3.87,11.17,5s5,3.31,4.81,4.93-4.74,4.74-7.7,5.91-8.27,1-11,.86-6.65-1.95-7.8-2.55-6.09-4.42-7.09-6.16c-3-5.19-1-7.48-1-7.48a81.76,81.76,0,0,1,10.59-1.22A64.61,64.61,0,0,1,161.65,113.84Z"/></g><g id="iris"><path class="cls-2" d="M111.32,112l-.43-.17c-3.51.68-7,1.25-10.49,2.14-1.28,1.91-1.55,4.53-1,5.85a7.6,7.6,0,0,0,6.61,4c2.72-.11,6-.54,6.82-2.21s1.55-3.61,1.12-5.09S112.28,112.52,111.32,112Z"/><path class="cls-2" d="M163.76,114c-3-.86-6.18-.5-9.31-.53a10.75,10.75,0,0,0-2,4.11c-.33,1.42.44,3.22,1.3,4.76s4,1.8,6.57,1.79a7.21,7.21,0,0,0,6.08-4.07c.51-1.32.08-4-1.36-5.72Z"/></g><g id="iris_outline"><path class="cls-3" d="M106.41,117s0-.05.07-.05,0,0,0,.06v1.52l0,1.61a14.23,14.23,0,0,1-.08,1.61,10.3,10.3,0,0,1-.37,1.58H106a9.77,9.77,0,0,1-.08-1.62c0-.54.12-1.08.18-1.6l.19-1.6.1-.8,0-.4v-.19s0-.2,0-.11h0Z"/><path class="cls-3" d="M107.14,117.75l.83,1.18c.29.39.55.8.85,1.17s.64.72.91,1.12a5,5,0,0,1,.65,1.33s0,0,0,0h0c-.37-.34-.68-.7-1-1a11.51,11.51,0,0,1-.84-1.19c-.26-.42-.47-.86-.71-1.29l-.69-1.28,0,0Z"/><path class="cls-3" d="M107.81,117.23h-.08l0,0a28.2,28.2,0,0,0,2.81,1c.47.19,1,.28,1.43.49a3.58,3.58,0,0,1,1.31.87.08.08,0,0,1,0,0h0c-.49-.17-1-.31-1.45-.44a7.9,7.9,0,0,1-1.42-.59c-.87-.44-1.83-.76-2.68-1.3l-.11-.07h.2v0A0,0,0,0,1,107.81,117.23Z"/><path class="cls-3" d="M107.28,116.55a7.11,7.11,0,0,1,1.94-1.68,11.79,11.79,0,0,1,1.06-.67c.38-.18.74-.38,1.15-.55l0,0v0a3.39,3.39,0,0,1-.91.94,7.71,7.71,0,0,1-1.14.59,7.11,7.11,0,0,0-2.09,1.36h0S107.28,116.55,107.28,116.55Z"/><path class="cls-3" d="M106.45,116.87l-.2-1.61a3.7,3.7,0,0,1-.07-.81,2.71,2.71,0,0,1,.21-.8h0a2.37,2.37,0,0,1,.24.8,3.55,3.55,0,0,1,0,.8l-.15,1.61h0Z"/><path class="cls-3" d="M105.21,117.74v0h0v0h0a6.11,6.11,0,0,1-1.14,1l-1.22.87a13.07,13.07,0,0,1-1.3.74,5.5,5.5,0,0,0-1.23.77h0s0,0,0,0a2.42,2.42,0,0,1,1-1.17,13,13,0,0,1,1.36-.66l1.28-.71a5.4,5.4,0,0,0,1.22-.81h0s0,0,0,0v0l0,0a0,0,0,0,1,0,0S105.2,117.75,105.21,117.74Z"/><path class="cls-3" d="M105.05,116.76c-.62-.26-1.22-.57-1.81-.89a6.11,6.11,0,0,1-.87-.49,4.05,4.05,0,0,1-.74-.7v0l0,0a3.21,3.21,0,0,1,1,.31,4.38,4.38,0,0,1,.82.59c.53.41,1.06.81,1.62,1.18a0,0,0,0,1,0,0A0,0,0,0,1,105.05,116.76Z"/><path class="cls-3" d="M100.41,114.67a6.54,6.54,0,0,0-1.08,3.59,4.73,4.73,0,0,0,1.67,3.27,8.29,8.29,0,0,0,3.33,1.72,9.65,9.65,0,0,0,3.74.3,7.78,7.78,0,0,0,3.48-1.23,5.3,5.3,0,0,0,2.08-2.92,7.2,7.2,0,0,0-2-6.88s0,0,0,0l0,0a7,7,0,0,1,2.46,7,5.42,5.42,0,0,1-2.28,3.2,8.19,8.19,0,0,1-3.72,1.22,10.06,10.06,0,0,1-3.86-.4,8.62,8.62,0,0,1-3.4-1.85,4.92,4.92,0,0,1-1.66-3.43,6.72,6.72,0,0,1,1.17-3.63s0,0,0,0A0,0,0,0,1,100.41,114.67Z"/><path class="cls-3" d="M159.6,117.76c0-.09,0,.06,0,.1l0,.19.06.37.13.75.26,1.5c.08.5.21,1,.24,1.51a7.22,7.22,0,0,1,0,1.54h-.05a8.22,8.22,0,0,1-.42-1.48,10.88,10.88,0,0,1-.15-1.51l-.09-1.53,0-.76,0-.38v-.29s0,0,0-.07,0,0,.06,0,0,0,0,0Z"/><path class="cls-3" d="M159,118.47l-.59,1.25c-.2.41-.38.84-.6,1.25a8.22,8.22,0,0,1-.75,1.16,12.42,12.42,0,0,1-.91,1h0a0,0,0,0,1,0,0,4.46,4.46,0,0,1,.54-1.29,13.09,13.09,0,0,1,.82-1.1c.51-.75,1-1.53,1.49-2.3h0A0,0,0,0,1,159,118.47Z"/><path class="cls-3" d="M158.33,118l.07,0,.12,0-.1.08c-.78.55-1.68.9-2.48,1.36a7.54,7.54,0,0,1-1.32.62c-.46.15-.89.29-1.36.47l0,0v0a3.36,3.36,0,0,1,1.2-.89c.44-.22.89-.33,1.33-.52a26.49,26.49,0,0,0,2.62-1l0,0h-.07a0,0,0,0,1,0,0A0,0,0,0,1,158.33,118Z"/><path class="cls-3" d="M158.77,117.36a6.53,6.53,0,0,0-2.06-1.19,6.07,6.07,0,0,1-1.1-.51,2.92,2.92,0,0,1-.9-.85,0,0,0,0,1,0,0h0c.4.14.74.3,1.11.45a9,9,0,0,1,1,.6,6.51,6.51,0,0,1,1.91,1.51,0,0,0,0,1,0,0Z"/><path class="cls-3" d="M159.55,117.59l-.22-1.52a3.21,3.21,0,0,1-.07-.76,2.25,2.25,0,0,1,.2-.77h0a2.45,2.45,0,0,1,.25.75,3.31,3.31,0,0,1,0,.77l-.13,1.53h0Z"/><path class="cls-3" d="M160.78,118.37l0,0v0s0,0,.05,0h0a5.75,5.75,0,0,0,1.2.71l1.25.6a11.43,11.43,0,0,1,1.32.57,2.35,2.35,0,0,1,1,1.07l0,0h0a5.49,5.49,0,0,0-1.21-.66,10.9,10.9,0,0,1-1.27-.65l-1.19-.77a5.39,5.39,0,0,1-1.12-.86h0s0,0,0,0,0,0,0,0v0h0Z"/><path class="cls-3" d="M160.91,117.38c.63-.44,1.23-.93,1.83-1.43a7.07,7.07,0,0,1,.93-.7,4,4,0,0,1,1.12-.41l0,0v0a7.06,7.06,0,0,1-.87.79,8.93,8.93,0,0,1-1,.61c-.67.4-1.34.8-2,1.14h0Z"/><path class="cls-3" d="M165,114.86a6.8,6.8,0,0,1,1.5,3.28,4.52,4.52,0,0,1-1.1,3.42,7.65,7.65,0,0,1-3,2.09,9.44,9.44,0,0,1-3.6.72,8.3,8.3,0,0,1-3.62-.76,5.25,5.25,0,0,1-2.55-2.7,6.49,6.49,0,0,1,1.49-6.88s0,0,0,0a0,0,0,0,1,0,0,6.61,6.61,0,0,0-1.07,6.65,5.09,5.09,0,0,0,2.32,2.46,7.86,7.86,0,0,0,3.39.8,9.24,9.24,0,0,0,3.49-.61,7.45,7.45,0,0,0,2.94-1.94,4.33,4.33,0,0,0,1.13-3.27,6.56,6.56,0,0,0-1.4-3.26s0,0,0,0A.06.06,0,0,1,165,114.86Z"/></g><g id="pupil"><path class="cls-4" d="M106.68,117.82l1.61,1.43a2.22,2.22,0,0,1-3.09.2,2.16,2.16,0,0,1-.14-3.06,2.21,2.21,0,0,1,3.09-.19,2.11,2.11,0,0,1,.59.88Z"/><path class="cls-4" d="M159.43,118.5,158,119.93a2.12,2.12,0,0,0,2.94,0,2,2,0,0,0,0-2.9,2.12,2.12,0,0,0-2.94,0,2.05,2.05,0,0,0-.52.86Z"/><path class="cls-4" d="M106.68,117.82l1.61,1.43a2.22,2.22,0,0,1-3.09.2,2.16,2.16,0,0,1-.14-3.06,2.21,2.21,0,0,1,3.09-.19,2.11,2.11,0,0,1,.59.88Z"/><path class="cls-4" d="M159.43,118.5,158,119.93a2.12,2.12,0,0,0,2.94,0,2,2,0,0,0,0-2.9,2.12,2.12,0,0,0-2.94,0,2.05,2.05,0,0,0-.52.86Z"/><path class="cls-5" d="M106.68,117.82l1.61,1.43a2.22,2.22,0,0,1-3.09.2,2.16,2.16,0,0,1-.14-3.06,2.21,2.21,0,0,1,3.09-.19,2.11,2.11,0,0,1,.59.88Z"/><path class="cls-5" d="M159.43,118.5,158,119.93a2.12,2.12,0,0,0,2.94,0,2,2,0,0,0,0-2.9,2.12,2.12,0,0,0-2.94,0,2.05,2.05,0,0,0-.52.86Z"/></g><g id="spec"><ellipse class="cls-6" cx="113.55" cy="116.87" rx="1.95" ry="2.49" transform="matrix(0.05, -1, 1, 0.05, -8.59, 224.74)"/><ellipse class="cls-6" cx="166.6" cy="118.14" rx="1.99" ry="2.19" transform="translate(-29.15 59.86) rotate(-18.76)"/></g><g id="outline"><path class="cls-3" d="M124.21,117.55a28.79,28.79,0,0,0-9.65-3.86,23.11,23.11,0,0,0-5.06-.51,17.39,17.39,0,0,0-4.87,1c-1.61.55-3.19,1.3-4.86,2-.81.34-1.72.66-2.53.93l-2.41.81c-3.24,1.08-6.5,2.5-10,3.34l-.13-.27a42.81,42.81,0,0,1,9.06-5.85,19.53,19.53,0,0,1,2.57-1l2.5-.76c1.67-.5,3.39-1,5.17-1.48a19.5,19.5,0,0,1,5.57-.66,23.05,23.05,0,0,1,5.41,1.06,27.58,27.58,0,0,1,9.46,5Z"/><path class="cls-3" d="M90.34,121.82A6.38,6.38,0,0,0,93,126a14.46,14.46,0,0,0,4.47,2.29,23.65,23.65,0,0,0,10,.88,27,27,0,0,0,9.46-3.14,29.75,29.75,0,0,0,4.16-2.81,36.68,36.68,0,0,0,3.65-3.52l.08.06a23,23,0,0,1-3.27,4,24,24,0,0,1-4.12,3.16,23.64,23.64,0,0,1-9.87,3.07,24,24,0,0,1-10.21-1.21,14.93,14.93,0,0,1-4.51-2.52,6.58,6.58,0,0,1-2.53-4.37Z"/><path class="cls-3" d="M119.6,106.6a13.14,13.14,0,0,1,.24,2.59,6.32,6.32,0,0,1-.09,1.3,5,5,0,0,1-.42,1.24h0c0-.44.06-.86.09-1.29s.12-.84.16-1.26a12.88,12.88,0,0,0,0-2.56h0Z"/><path class="cls-3" d="M112.35,107.39l.27,1.64a5.57,5.57,0,0,1,.1.82,3.5,3.5,0,0,1-.1.84h0a3.08,3.08,0,0,1-.23-.81,4.58,4.58,0,0,1,0-.83v-1.66h0Z"/><path class="cls-3" d="M102.85,107.47a10.52,10.52,0,0,1,.72,1.89,4.88,4.88,0,0,1,.2,1,3.55,3.55,0,0,1-.11,1,0,0,0,0,1,0,0h0a9.22,9.22,0,0,1-.23-1c-.06-.33-.07-.66-.11-1a11.15,11.15,0,0,0-.46-1.94,0,0,0,0,1,0,0A0,0,0,0,1,102.85,107.47Z"/><path class="cls-3" d="M94.91,108.76l.83,2.1a8.45,8.45,0,0,1,.39,1.06,6.08,6.08,0,0,1,.2,1.13h0a5.72,5.72,0,0,1-.51-1,10.27,10.27,0,0,1-.32-1.08l-.59-2.19h0Z"/><path class="cls-3" d="M88.36,110.36a15.31,15.31,0,0,0,1.22,2.51l.75,1.18c.23.4.48.79.69,1.22,0,0,0,0,0,0h0a5.68,5.68,0,0,1-1-1,7.55,7.55,0,0,1-.71-1.23,16.31,16.31,0,0,1-1-2.65l0,0Z"/><path class="cls-3" d="M83.13,123.05a95.87,95.87,0,0,1,13.58-7.31,38.17,38.17,0,0,1,7.38-2.42,28.69,28.69,0,0,1,7.73-.56v.1A73.8,73.8,0,0,0,97,116.48a109.74,109.74,0,0,0-13.83,6.65Z"/><path class="cls-3" d="M103.33,134.55A13.91,13.91,0,0,1,93.62,132a18.66,18.66,0,0,1-3.82-3.44A25.24,25.24,0,0,1,87,124.34s0,0,0,0,0,0,0,0c1,1.35,2,2.71,3.18,3.95a23.9,23.9,0,0,0,3.67,3.44,13.68,13.68,0,0,0,9.48,2.8s0,0,0,0A0,0,0,0,1,103.33,134.55Z"/><path class="cls-3" d="M143,114a55.79,55.79,0,0,1,10.33-2,31,31,0,0,1,5.36,0,29,29,0,0,1,5.29,1,48.56,48.56,0,0,1,10,3.44,30.12,30.12,0,0,1,8.58,6.29l-.17.25c-3.32-1.29-6.44-2.6-9.64-3.81s-6.27-2.69-9.5-3.88a28.71,28.71,0,0,0-9.89-1.89,62,62,0,0,0-10.31.79Z"/><path class="cls-3" d="M178,122.45a6.46,6.46,0,0,1-2.3,4.43,14.5,14.5,0,0,1-4.33,2.69,23.78,23.78,0,0,1-10,1.67,23.43,23.43,0,0,1-9.89-2.57,24.16,24.16,0,0,1-4.22-2.91A23.52,23.52,0,0,1,143.8,122l.08-.06a36.65,36.65,0,0,0,3.78,3.29,27.84,27.84,0,0,0,4.24,2.57,26.64,26.64,0,0,0,9.48,2.66,23.48,23.48,0,0,0,9.79-1.33,14.28,14.28,0,0,0,4.31-2.45,6.36,6.36,0,0,0,2.4-4.21Z"/><path class="cls-7" d="M177.36,122.66c-9.29-7.18-13.57-8.53-27.13-9.68"/><path class="cls-3" d="M170.1,131.91a38.17,38.17,0,0,0,4-3.36l1.85-1.84c.64-.59,1.25-1.21,1.93-1.79h0a0,0,0,0,1,0,0,15.68,15.68,0,0,1-1.61,2.11,20.68,20.68,0,0,1-2,1.79,38,38,0,0,1-4.26,3.1s0,0,0,0Z"/><path class="cls-3" d="M106.75,140.56a47.17,47.17,0,0,0,10.6-9.78,55.88,55.88,0,0,0,4.09-5.94,62,62,0,0,0,3.39-6.4s0,0,0,0,0,0,0,0a36.93,36.93,0,0,1-3,6.63,41.16,41.16,0,0,1-4.21,5.94,47.49,47.49,0,0,1-10.88,9.57s0,0,0,0S106.73,140.58,106.75,140.56Z"/><path class="cls-3" d="M141.29,115.7a48.88,48.88,0,0,0,8.63,14.57,61.27,61.27,0,0,0,6,6,36.87,36.87,0,0,0,6.89,4.89l0,.09a23,23,0,0,1-7.5-4.21,37.79,37.79,0,0,1-5.95-6.24,46.36,46.36,0,0,1-8.11-15Z"/><path class="cls-3" d="M143.62,109.93a4.08,4.08,0,0,0,.35,1.25c.09.2.21.37.29.57a4.8,4.8,0,0,1,.21.64h0a1.56,1.56,0,0,1-.51-.48,2,2,0,0,1-.24-.65,4.12,4.12,0,0,1-.11-1.35h0Z"/><path class="cls-3" d="M146.56,107.36a7,7,0,0,0-.16,2.13c0,.36.09.7.12,1.06s.08.7.09,1.07h0a0,0,0,0,1,0,0,3.44,3.44,0,0,1-.42-1,4,4,0,0,1-.05-1.1,7.39,7.39,0,0,1,.42-2.15h0Z"/><path class="cls-3" d="M149.38,107.05l.15,1.71a6,6,0,0,1,0,.85,3.19,3.19,0,0,1-.16.85h0a3.13,3.13,0,0,1-.17-.85,4.84,4.84,0,0,1,0-.85l.11-1.71h0Z"/><path class="cls-3" d="M153.57,105.48l0,2.15a7.62,7.62,0,0,1,0,1.07,5.53,5.53,0,0,1-.21,1.06h0a5.67,5.67,0,0,1-.12-1.08,7.58,7.58,0,0,1,.09-1.06l.23-2.14h0Z"/></g><g id="eyebrows"><path class="cls-8" d="M118.33,93.85c.37,1-.09,1.11-.35,1.42a9.71,9.71,0,0,1-.89.81c-4.22,3.44-9.52,5.13-14.49,7.08-5.57,2.64-11.19,4.91-17.47,5.2l-.11-.3a45.53,45.53,0,0,1,8.07-4.37c2.76-1.25,5.77-1.79,8.57-2.89s5.47-2.5,8.18-3.72c2.35-1.08,4.61-2.26,6.87-3.46.33-.16.46-.52,1.41,0l.21.24Z"/><path class="cls-8" d="M152.07,94.66c1.07-.19,1.09.19,1.36.45.78.77,1.6,1.49,2.46,2.19a72.76,72.76,0,0,0,11.55,7.41c2.79,1.38,5.85,2.16,8.61,3.61a54.15,54.15,0,0,1,8.15,4.87l-.12.3a41.09,41.09,0,0,1-9.28-2.25c-3-1-5.66-2.85-8.49-4.26a68.18,68.18,0,0,1-8.42-4.59,19.41,19.41,0,0,1-6.15-6c-.16-.4-.57-.68.06-1.52l.27-.16Z"/><path class="cls-3" d="M119.46,97.46a3.65,3.65,0,0,0,.87-1.6,3.19,3.19,0,0,0-.1-1.76,5.4,5.4,0,0,0-.88-1.53A3.79,3.79,0,0,0,118,91.44a0,0,0,0,1,0,0s0,0,0,0a2.52,2.52,0,0,1,1.73.85,3.66,3.66,0,0,1,.89,1.75,3.51,3.51,0,0,1-.06,1.93,3.89,3.89,0,0,1-1,1.58h0A0,0,0,0,1,119.46,97.46Z"/><path class="cls-3" d="M148.87,96.18c.44-.86.67-1.77,1-2.69a2.86,2.86,0,0,1,.88-1.24,3.06,3.06,0,0,1,1.39-.56l0,0v0c-.38.32-.77.57-1.08.89a4.55,4.55,0,0,0-.85,1c-.45.81-.82,1.74-1.36,2.53h0Z"/></g></g></svg>