<svg id="artwork" xmlns="http://www.w3.org/2000/svg" viewBox="0 0 245 730"><defs><style>.cls-1{fill:#bfa18b;fill-rule:evenodd;}.cls-2{fill:#2d2d2d;}</style></defs><g id="mouth_happy3"><g id="lip_colour" data-name="lip colour"><path class="cls-1" d="M115.93,181.58s.11.88,6.36,5.48c1.93,1.43,4.77,1.24,7.83,1.31,7.26.18,11.58-2.22,13.82-3,5.9-2.09,4.22-5,4.22-5l.94-.42a14.43,14.43,0,0,1-4.95-3.13c-2.28-2.31-4.57-1.55-5.6-1.63-3.24-.26-4.88,2.05-8.45,2.32-1.43.1-4.8-2.06-9-2-.55,0-3.26.57-4.27,1.57-.64.63-.79,1.83-1.45,2.22-1,.64-1.74.91-1.5.92Z"/></g><g id="outine"><path class="cls-2" d="M151.21,179.62c-10.53,2.41-37.44,7.81-43-4.48l.09,0c5.86,10.77,32.79,6,42.88,4.53Z"/><path class="cls-2" d="M113.77,179.8a2,2,0,0,0,1.86-1,6,6,0,0,1,1.17-2,11.47,11.47,0,0,1,9.14-1.05,35.87,35.87,0,0,1,4.41,1.52H130c3.29-1.2,6.45-2.66,10.1-2.43,2.54.57,4.72,2.32,6.85,3.71a17.13,17.13,0,0,0,2.13,1.37l0,.09c-3.12-1.08-5.91-3.52-9.11-4.17-3.26-.12-6.56,1.18-9.63,2.2l-.17.07a36.87,36.87,0,0,0-4.41-1.71,11.06,11.06,0,0,0-8.71.71c-.89.61-1,2.22-2.12,2.65a2.87,2.87,0,0,1-1.16.17v-.1Z"/><path class="cls-2" d="M148.08,180.17c1.23,1.58-.25,3.54-1.74,4.27a33.29,33.29,0,0,1-9.44,3.93,24.47,24.47,0,0,1-10.26.26,13.21,13.21,0,0,1-4.93-1.62,23.38,23.38,0,0,1-3.89-3.36,28.69,28.69,0,0,0-4-3.13l0-.09c3,1.47,5.33,4.29,8.13,6,6,2.66,13.43,1.86,19.5-.27a32.11,32.11,0,0,0,4.59-2.08,4.44,4.44,0,0,0,1.87-1.54,2.13,2.13,0,0,0,0-2.31l.08-.06Z"/><path class="cls-2" d="M105.14,176.87c.65-.64,1.26-1.3,1.85-2,.29-.34.56-.7.88-1a9.9,9.9,0,0,1,1-.87h0a0,0,0,0,1,0,0,5.64,5.64,0,0,1-.72,1.18,7.33,7.33,0,0,1-1,1c-.67.61-1.37,1.19-2.09,1.74h0Z"/></g></g></svg>