<svg id="artwork" xmlns="http://www.w3.org/2000/svg" xmlns:xlink="http://www.w3.org/1999/xlink" viewBox="0 0 282 282"><defs><style>.cls-1,.cls-18{fill:none;stroke-miterlimit:10;}.cls-1{stroke:#1f193d;}.cls-2{clip-path:url(#clip-path);}.cls-3{fill:#d9c3b0;}.cls-4{fill:#f2dfce;}.cls-5{fill:#825813;}.cls-6{fill:#bfa68f;}.cls-7{opacity:0.7;}.cls-8{fill:#e1cfc0;}.cls-9{fill:#f5d6c0;}.cls-10,.cls-17{fill:#2d2d2d;}.cls-11{fill:#d6a190;}.cls-12{fill:#d7d7ce;}.cls-13{fill:#e9ae8c;}.cls-14{fill:#d9bbb0;}.cls-14,.cls-17{fill-rule:evenodd;}.cls-15{fill:#d9cec5;}.cls-16{fill:#9b7942;}.cls-18{stroke:#2d2d2d;}.cls-19{fill:#f2eae4;}.cls-20{fill:#462e13;}</style><clipPath id="clip-path"><rect id="face_clip" class="cls-1" x="1" y="1" width="280" height="280" rx="140"/></clipPath></defs><g class="cls-2"><g id="head_neutral1"><g id="head_neutral_colour"><path class="cls-3" d="M209.54,135.13a22.13,22.13,0,0,1,0-2.44c-.06-2.5-.28-5-.37-7.49-.38-10.65-2.35-21-4.24-31.47-1.32-7.26-3.77-12.71-6.42-19.62a38,38,0,0,0-6.45-10c-2.53-2.94-3.2-6.82-6.46-9-3.49-2.35-7.71-4.21-11-6.84-1.6-1.29-2.82-3.44-2.74-1.8.21,4.43-.2,14.64-.33,19.08a64.77,64.77,0,0,1-8.34,28.81,62.65,62.65,0,0,1-4.92,7.55c-1.71,2.16-4,3.74-6,5.57-1.79,1.62-3.18,3.5-5.59,4.26a3.21,3.21,0,0,1-1.91.12c-.62-.19-2.13-2.07-2.06-2.72a39,39,0,0,1-1.57,5,22.44,22.44,0,0,1-2.49,4.94,4.37,4.37,0,0,1-1.24,1.22c-.63.36-.82,1.06-1.48.76-.1.43-.69.19-1.09.35-.78-.87-.1-2.46.06-3.57.46-3.1,1.56-6,2.27-9.11a211.11,211.11,0,0,0,5.63-41.41c.06-2,.25-4.53.16-6.49-.07-1.58.67-2.86.33-4.41a.72.72,0,0,0-.16-.38.62.62,0,0,0-.82,0,2.1,2.1,0,0,0-.48.75c-1.53,3.27-4.68,5-7.9,6.27a46.48,46.48,0,0,0-7.5,3.49,15.44,15.44,0,0,0-3.23,2.31c-.93,1-1.12,2.44-1.68,3.62-1.08,2.22-3.37-7.25-5.76-6.61-7,1.89-3.26-1.69-9.92,3.41-4.25,3.25-8.47,4.06-13,6.82-2.3,1.39-4.6,3.79-6.89,5.18-2,1.24-5.18,10.23-7.47,10.84-.71.19-4.13,27-4.1,27.86.18,6.9,1.1,13.79,1.56,20.69.7,10.65,6.16,18.85,12.9,26.51a108.77,108.77,0,0,0,16,14.7c5.07,3.73,15.88,8.94,16,11.37.11,2.2.87,4.32,1,6.53a238.1,238.1,0,0,1-1.12,30.56c-.44,5.09-.94,10.18-1.39,15.27-.36,4-.33,8.5-1.64,12.36-.87,2.57-11.54,5.18-8.18,6.83,9,4.38,20.39,4.13,30.19,4.22a179.37,179.37,0,0,0,19.39-.88c5.41-.54,13-.38,17.46-3.85,5.32-4.09,3.08-13.69-3.94-14.18-2.15-.14-8-.95-8-.95s-.33-2.35-.42-3.74c0-10.72-1.84-19.21-2.49-29.91-.34-5.62-.83-19.11-.83-19.11s8.81-5.92,10.75-7a67.65,67.65,0,0,0,15.52-12.75c7.28-8.13,6.87-9.32,12.7-18.59C204.6,150.44,209.82,137.16,209.54,135.13Z"/><path class="cls-4" d="M225.74,104.89h.12v18.83h-.12Z"/><path class="cls-4" d="M66.88,108.24c-.32,12.3,8,24.4,5.15,36.72a1.4,1.4,0,0,1-1,1.16,6.55,6.55,0,0,1-2.14.1c-4.56-.15-11.4,3.88-14.45.28-5.89-7-3-18.49-3.83-26.07a43.43,43.43,0,0,1-.4-6.73,22.49,22.49,0,0,1,3.58-10.87c.83-1.36,2.58-2.35,5.2-2.87a6.64,6.64,0,0,1,5.28.89c1.84,1.41,3,2.92,2.81,4.69A24.54,24.54,0,0,0,66.88,108.24Z"/><path class="cls-4" d="M67.11,108.71c-.31,12.3,8,24.4,5.16,36.72a1.4,1.4,0,0,1-1,1.16,6.56,6.56,0,0,1-2.14.1c-4.56-.15-11.4,3.88-14.45.28-5.89-7-3-18.49-3.84-26.07a46.05,46.05,0,0,1-.4-6.73A22.51,22.51,0,0,1,54,103.3c.82-1.36,2.57-2.34,5.2-2.87a6.65,6.65,0,0,1,5.27.89c1.85,1.41,3.06,2.92,2.82,4.69A24.56,24.56,0,0,0,67.11,108.71Z"/><path class="cls-4" d="M225.54,105.93a40.19,40.19,0,0,1,.31,6.76l-.16,12.07a4.13,4.13,0,0,1-.16,1.31,8.44,8.44,0,0,1-.51,1c-1.16,2.16-.75,5.42-.92,7.78l-.63,8.66a3.81,3.81,0,0,1-4.25,3c-2.22-.55-2.28-4.39-2.47-6L214.89,125l-.34-2.85c-.26-2.22-.53-4.45-.77-6.67q-.57-5.37-.93-10.74c-.15-2.32-.26-4.8,1-6.9,1.5-2.43,4.83-1.76,6.94-.27a11.82,11.82,0,0,1,4.44,7C225.37,105,225.47,105.47,225.54,105.93Z"/><path class="cls-4" d="M152.4,72.39a27.69,27.69,0,0,1,.72-5,1.7,1.7,0,0,1,.18,1.45q-.37,2.1-.78,4.2C152.32,72.82,152.44,72.59,152.4,72.39Z"/><path class="cls-4" d="M152.4,72.39c0,.2-.08.43.12.6a13.43,13.43,0,0,1-.47,2.16h0A15.11,15.11,0,0,1,152.4,72.39Z"/><path class="cls-4" d="M152.05,75.15v.61c-.15-.31-.17-.47,0-.61Z"/><path class="cls-5" d="M70.89,277.89c-1.8-10.63-7.8-171.16-6.81-184.56-.06-11,.09-30.92,2.12-47,1.25-9.88,8.24-15.59,15.28-21.21,17.18-13.73,38.88-14.5,46.6-14.49a46.23,46.23,0,0,1,13.7,2.07s2.07-5.84,7.07-6.46C150.94,6,155.6,6.68,163,9s23.28,7.81,27.31,11.45c1.8,1.63,9.95,5.61,13.37,13.93,3.3,8,5.88,25,7.18,36.36,2.34,20.59,4.34,50.81,5.06,73.53s4.59,74.87,5,82.32,2.8,51.39,3.31,53.94-28.21-11.2-33.3-12.74c-3-.9-10.06-14-15.05-16.8-2.82-1.59-11.33-1.18-11.33-1.18a80.41,80.41,0,0,1-1-11.42c.17-3.89-2.55-24.47-2.91-27.63s-.41-14.54-.41-14.54,18.36-11.82,20-13.44c6.73-4.9,16-18,17.63-20.57s9.75-19.89,10.91-24.66c1.1-4.57-.64-9.79-1.19-15.76S205.7,99,203.45,91.33c-2-6.64-4.12-19-9.41-25.69-4.69-5.94-15.16-13.81-21-16.21-1.41-.59-1.25.27-1,1.78,1.42,9.61-1.81,31.58-6.25,40.55C160.25,103,152.6,110,149.36,113.2s-4.79,3.32-4.79,3.32l-1.67-7.38a57.4,57.4,0,0,1-4.3,10.13c-1.93,3.34-4.58,5.61-5.49,5,0,0,8.8-35.43,8.8-44.93,0-8.29,1.09-22.13,1.09-22.13s-6.08,7.35-8.92,8.39S125.51,69,125.51,69s-17.24,22.29-24.45,29.55-25.58,15.86-25.58,15.86-.61,8.27-.49,12.53-.21,23,6.22,30.49c8.42,9.83,23,24.06,27.36,26.8s11.4,7.29,14.39,8.9c1.55.83.71,67.47.71,67.47s-20.38,1.71-25.19,3.61C92.88,266.42,70.89,277.89,70.89,277.89Z"/></g><g id="head_neutral_shading_dark"><path class="cls-6" d="M142.53,68.41c.33-4.23.45-11,.45-11-5.5,8.38-17.6,11.55-19.35,11.74-.26.63-.53,1.26-.81,1.88-1.3,4.91-6.7,10.64-9.37,15C121.21,80,129,77.71,133.61,75.29,138.62,72.68,140.21,70.09,142.53,68.41Z"/><path class="cls-6" d="M75,110.58a75.89,75.89,0,0,0,4.12-7.27c1.64-2.94,4.59-6,6.59-9.17,1.76-2.79,3.11-4.13,5.39-9.33,1.64-3.76,4.46-8.48,4.18-8.38C84.39,80.26,77.76,92.24,76,99.43A55.56,55.56,0,0,0,75,110.58Z"/><path class="cls-6" d="M87.19,153c-7.28-13.36-3.28-28.15-2.55-43-3.23,1.65-7.23,3.37-9.25,4.15-.5,16.63-1.81,36,7.49,45.44,8.29,12.23,14.12,16.47,30.35,27.59C104.3,180.07,93.86,165.27,87.19,153Z"/><path class="cls-6" d="M136.17,198.82s-9.34-4.19-15.78-6.92l1,.5c.67,4.9,2,34.3.84,42.24-.43,3-.79,17-.79,17s-9.09-1.07-10.56.68c-2.6,3.11-11.18,17.29-11.18,17.29a203.49,203.49,0,0,0,21.07-.59c5.65-12.71,3.74-39.56,6.25-56.79C128.56,201.5,136.17,198.82,136.17,198.82Z"/><path class="cls-6" d="M58.64,109.18c-1.28,7-1.36,14.14-1.28,21.24,0,3.75-.56,10.53,1.41,13.67,9.72-2.67,5-21.34,5-28.09,0-3.35.21-6.86-1.23-9.89-.25-.51-.63-1.07-1.21-1.1a1.55,1.55,0,0,0-1.14.65,7.32,7.32,0,0,0-1.51,3.49Z"/><path class="cls-6" d="M217.11,105.72c6.08.87,5,14.84,4.86,18.81-.14,5.05.57,19.19-4.08,22.48a3.55,3.55,0,0,1-.7-2.12c-.44-4.39-1.95-14.44-2.29-18.58-.39-4.64-1.29-9.23-1-13.91.08-1.63,0-5.2,1.68-6.24A2.33,2.33,0,0,1,217.11,105.72Z"/></g><g id="head_neutral_shading_light" class="cls-7"><path class="cls-8" d="M216.8,102.2a17,17,0,0,1,6.88,11c.4,3-4.21,32.85-.45,33.48,3.13.51,3.15-9.07,3.21-11.5.35-14.12,2.1-29.84-3.55-35.48a10.59,10.59,0,0,0-9.21-2.8C211,97.64,215.73,101.44,216.8,102.2Z"/><path class="cls-8" d="M180.8,63.61c2.37,5,4.21,8.08,7.06,14.12,9,19.06,21.28,45.42,13.43,65.15-6.61,16.61-18.35,32.3-18.35,32.3s-29.39,25.06-20,19.49,16.72-9.25,24.95-20.52,18.76-23.49,20.59-37-1.72-24.12-3.22-35.84-5-23-10.43-31.46-15.38-18.47-22.62-20.06c-.38-.08.47,2.27,4.85,6.36"/><path class="cls-8" d="M153.86,202.53c.42,15.71-1.94,40.18-2.27,44.82-.4,5.65,1.35,19.53,1.35,19.53s19.74-10,23.65-14.72c2.28-2.74-11.88-2.36-11.88-2.36s-.81-7.6-1.94-14.65-.53-10.51-1.05-19.26-1-21.22-1-21.22Z"/><path class="cls-9" d="M58.15,104C55.49,109.87,56.67,125.9,56,131s-.13,19.25-1.36,12.86-1.55-20.67-1.67-26.6a113.86,113.86,0,0,1,.79-13.48s.71-2.91,2.4-2.81S58.15,104,58.15,104Z"/></g><g id="head_neutral_outline"><path class="cls-10" d="M83.14,161.15c-.19,32.82,2,66,1.74,98.81a.05.05,0,0,1-.1,0c-1.57-32.66-2.35-66.42-1.64-98.81Z"/><path class="cls-10" d="M101.55,179.8c1.61,26.16,3.08,52.33,3.62,78.54,0,.06-.09.07-.1,0-2.35-26-2.44-52.77-3.52-78.55Z"/><path class="cls-10" d="M181.32,182.63c.81,20.68,2.75,49.67,2.52,70.07,0,.06-.09.07-.1,0-1.58-20.12-2.05-49.93-2.42-70.08Z"/><path class="cls-10" d="M196.09,165.91c1.44,29.42,3.25,59,.58,88.41,0,.06-.1.05-.1,0,.86-29.37.43-59.33-.48-88.4Z"/><path class="cls-10" d="M206.07,146.54a542.85,542.85,0,0,1,4.07,62.68c.08,10.48-.23,21-.77,31.42s-1.25,21.05-4.65,31c0,.06-.11,0-.09,0,2.9-10.09,3.39-20.6,3.79-31,.93-20.9,1.39-41.84.1-62.74-.48-10.36-1.72-21.26-2.45-31.31Z"/><path class="cls-10" d="M201.55,81.34c12.18,59.14,18,120.09,15.88,180.48-.05,0-.5,12.17-.64,12.14s.23-12.15.18-12.15A864.64,864.64,0,0,0,201.55,81.34Z"/><path class="cls-10" d="M69,116.76c1.08-.39,3.53-1.32,4.55-1.7L78,113.13,82.36,111l4.21-2.4,4.08-2.6,3.94-2.81a98.9,98.9,0,0,0,9.76-8.44c1.32-1.23,3.19-3.33,4.45-4.66s3-3.53,4.08-5c1.43-1.81,3.36-4.65,4.64-6.58l2.5-4.12c.83-1.56,2.27-4.09,3-5.7,3.35-6.73,5.54-14.14,9.76-20.44a28.44,28.44,0,0,1,4.2-4.95c0-.05.11,0,.07.07-6,6.36-8.35,14.93-11.75,22.81A91.64,91.64,0,0,1,104.83,95.2c-1.67,1.66-4.27,3.9-6.06,5.41s-4.56,3.53-6.52,4.82c-1.48,1.08-3.92,2.49-5.48,3.48s-4.09,2.3-5.72,3-4.3,2-5.91,2.65c-.72.32-2.27.92-3,1.17l-3,1.08c-.06,0-.09-.07,0-.09Z"/><path class="cls-10" d="M133.64,25.19c-28.75,13.22-32.92,48.31-49.4,72.14-5.49,8.17-11.15,16.87-14.4,25.9a63,63,0,0,1,5.79-13.73c2.4-4.36,5.13-8.52,7.77-12.71,5.49-8.26,9.81-17.16,13.9-26.2C105.15,53,115,32.69,133.64,25.19Z"/><path class="cls-10" d="M143.61,56.47a24.6,24.6,0,0,1-14.83,11.62,31.16,31.16,0,0,0-6,1.88c-.05,0-.1,0-.06-.08,3.39-2.72,7.94-2.92,11.62-5a25.27,25.27,0,0,0,9.2-8.44c0-.06.12,0,.09,0Z"/><path class="cls-10" d="M142.9,56a232.31,232.31,0,0,1-9.36,68.26l-.46-.41c5.77-2.5,7.75-9.1,9.33-14.69a.41.41,0,0,1,.78,0l1.79,7.15-.64-.28a46.45,46.45,0,0,0,14.17-13.29c11.33-16.21,15.21-36.94,13-56.37,3.14,19.43-.84,40.65-12.22,57a46.38,46.38,0,0,1-14.55,13.47.43.43,0,0,1-.59-.16.25.25,0,0,1,0-.12l-1.73-7.15h.78c-1.27,4.39-2.71,9-6,12.45-.5.64-4.44,3.71-4.33,2.24,6.72-21.93,9.82-45.44,10-68.07Z"/><path class="cls-10" d="M153.06,69.2c-1.68,14.24-5.53,28.67-13.38,40.83,0,0-.12,0-.09,0,3-6.54,5.89-13.09,8.29-19.87s3.91-14.22,5.18-20.91Z"/><path class="cls-10" d="M172.86,49.41c15.82,5.71,28.75,21,29.61,38.15,0,0-.09.07-.1,0-2.8-16.83-13.88-31.73-29.51-38.16Z"/><path class="cls-10" d="M163,25.9c10.05,1.53,18.74,7.85,25.54,15.14,13.74,15.09,19.33,35.77,20.7,55.72a253.33,253.33,0,0,1,0,30.18c-.4-20-.18-40.4-6.5-59.57C196.7,48.81,182.78,30,163,25.9Z"/><path class="cls-10" d="M70.84,279.77c-1.52-26.9-4.49-80.9-5.92-107.79-1.5-29.19-2.19-58.57,1.23-87.66C66.64,79.85,67.28,75.39,68,71l1.16-6.65c-10,61.55,0,152.8,1.67,215.47Z"/><path class="cls-10" d="M212.21,96.85a11.08,11.08,0,0,1,13.89,6.72c.89,2.77.61,5.67.57,8.45l-.23,8.43c-.24,7-.16,14.07-.81,21.09-.29,2.1-1.1,4.57-3.21,5.53-1.86.93-5.27.18-5.23-2.23.44,2.17,3.23,2.64,5,1.71,3.06-1.89,2.63-6.11,2.77-9.28.22-8.12.75-17.11,1.08-25.27.09-2.8.4-5.64-.4-8.28-1.68-5.57-8.17-8.4-13.41-6.87Z"/><path class="cls-10" d="M65.59,99.62a10.78,10.78,0,0,0-13.38,6.77c-.81,2.64-.5,5.48-.4,8.28.33,8.18.86,17.14,1.07,25.27.14,3.17-.28,7.39,2.78,9.28,1.75.93,4.53.46,5-1.71,0,2.41-3.37,3.16-5.23,2.23-2.11-1-2.93-3.43-3.21-5.53-.81-9.6-.67-19.86-1-29.52,0-2.78-.32-5.68.57-8.45,1.71-5.5,9-8.93,13.86-6.62Z"/><path class="cls-10" d="M75.42,114.64c-.61,11.35-.65,23,1.69,34.13,1.12,4.47,4,8.17,6.58,11.87,4,5.57,8.21,11,13.55,15.33a101.36,101.36,0,0,0,11.23,7.81c7.76,4.78,15.42,9.91,23.91,13.27,6.29,2.17,13.23,4.41,19.76,1.9a61.24,61.24,0,0,0,6.29-2.6c4.35-1.48,8.09-4,11.79-6.73s7.41-5.34,10.94-8.22c10.51-8.71,18.1-20.66,23.56-33.1a108.62,108.62,0,0,0,4.66-12.94,83.88,83.88,0,0,1-4.23,13.12c-5.36,12.63-12.8,24.75-23.36,33.69-3.56,2.9-7.25,5.63-11,8.27s-7.55,5.33-12,6.81c-4.11,1.87-8.54,3.82-13.29,3.74s-9.07-1.67-13.45-3.19c-8.55-3.45-16.19-8.63-24-13.47a104.48,104.48,0,0,1-11.25-7.92c-5.35-4.37-9.6-9.88-13.54-15.51-2.61-3.75-5.46-7.52-6.56-12-1.52-6.72-1.69-13.65-1.87-20.51,0-4.47-.12-9.57.51-13.71Z"/><path class="cls-10" d="M121.63,19.19C97.92,32.25,84.44,58.29,78.79,84c-2,8.67-2.72,17.67-3.8,26.47a157,157,0,0,1,2.82-26.68c5.69-25.62,20-52.32,43.82-64.55Z"/><path class="cls-10" d="M95.66,76.33C81.05,80.49,76.4,96.88,75,110.37a.05.05,0,0,1-.1,0c-.7-13.73,6.36-30.93,20.72-34Z"/><path class="cls-10" d="M74.52,114.4c-1,18.35-3.25,38.46-1.19,56.7,2.68,31.47,3.35,63.1,3.09,94.68a.05.05,0,0,1-.1,0C75.8,241,75,214.88,73.83,190.05c-.46-12.62-2.22-25.19-1.94-37.84.13-6.33.67-12.63,1.13-18.93.1,0,1.24-19.21,1.5-18.88Z"/><path class="cls-10" d="M147.05,131.46c.09,2.35-.1,4.67-.06,7-.36,2.46,1.42,4.31,3.11,5.82s3.75,3,4.7,5.24c1.15,2.25.71,5.3-1.74,6.48a18.29,18.29,0,0,1-6.79,2.26c-2.46.21-4.54-1.53-6.74-2-1.06-.21-2.24-.15-3.47-.41-2.93-.44-3.31-3.73-2.81-6.13.19-1.25,2.17-2.17,2.86-.83a0,0,0,1,1-.09,0c-.7-1-2.23-.17-2.3.91-.21,1.94.07,4.89,2.52,5.12,1.06.18,2.24.07,3.48.3,2.36.44,4.15,2.18,6.52,2.09a17.26,17.26,0,0,0,6.46-2c2.19-1,2.54-3.58,1.58-5.61s-2.73-3.6-4.43-5.2c-1.23-1.22-2.61-2.56-3-4.33-.25-2.91.16-5.85.08-8.75,0-.06.09-.08.09,0Z"/><path class="cls-10" d="M162.63,34.45c-5.9-9.41-12.86-20-24.37-22.65-6.7-1.44-13.66-.86-20.44-.38A63,63,0,0,0,80.63,26.86c-13.81,11.24-15,18.69-15.17,35.81-.56,22.85-.49,45.73.42,68.57.1,4.57.45,9.24.52,13.76-.47-4.5-.66-9.17-1-13.74-1.25-22.85-1.64-45.74-1-68.62.28-17.32,1.65-25,15.69-36.34a63.69,63.69,0,0,1,37.61-15.38c6.83-.43,13.82-1,20.57.54,11.43,2.7,18.92,13.66,24.29,23Z"/><path class="cls-10" d="M141.83,15.05a8.23,8.23,0,0,1,5.06-8.37c3.35-1.31,6.92.09,10.29.61A117.72,117.72,0,0,1,177,13.39c6.4,2.68,12.77,5.6,18.31,9.86s10.1,10.51,10.2,17.58c-.93-6.88-5.24-12.78-10.81-16.8-11.2-7.94-24.31-13.09-37.64-16.25-3.28-.56-6.8-2-10.07-.82A8,8,0,0,0,141.93,15c0,.06-.09.08-.1,0Z"/><path class="cls-10" d="M224.21,280.52c-1.48-23.26-8.51-133.91-9.83-154.55-1.63-25.74-3-51.56-7.5-77-.83-5.1-1.88-10.15-3-15.2,0-.06.09-.08.1,0,5,20.06,7.51,40.65,9.28,61.22,3,41.61,8.58,142.88,10.92,185.53Z"/><path class="cls-10" d="M168.41,258.16c5.14.63,9.73,3.3,14.2,5.74a151,151,0,0,0,13.83,6.61c9.46,3.93,19.11,7.33,28.56,11.3.06,0,0,.12,0,.1a233.1,233.1,0,0,1-28.85-10.66c-4.69-2.09-9.3-4.37-13.76-6.91s-8.86-5.31-14-6.09c-.07,0-.05-.11,0-.09Z"/></g></g><g id="torso_armscrossed1"><g id="torso_crossed_colour"><path class="cls-11" d="M272.76,464.34c-.57-8.22-1.32-16.43-2.14-24.65q-2.81-27.58-7-55c-1.95-12.78-3.87-25.59-5.9-38.37a1,1,0,0,1-.05-.12c-.28-1.43-.53-2.86-.79-4.29h0a.7.7,0,0,1-1-.48c-2-8.93-3.61-17.95-5.17-27a.76.76,0,0,1-.39-.43c-2.21-6-3-11.41-4.65-17.58-1.15-4.33-2.26-9.56-4.15-13.61-1.69-3.62-3.55-7.69-6.91-10.06-2.17-1.52-4.72-2.4-7.08-3.58-3.93-1.95-7.9-3.81-11.84-5.74-2.91-1.42-10.13-3.8-12.45-4.55a1.33,1.33,0,0,0-1.28.25,107.86,107.86,0,0,1-20.55,13.32c-10.16,5.16-31.47,8.42-35.32,7.37-8.89-2.44-41-2.27-50.17-9.47-2.27-1.78-5.44-8.28-6.7-11a1.35,1.35,0,0,0-1.77-.67L82.19,261c-7.73,3.31-15.84,6.86-22.64,11.87-.59.43-7.09,10.55-7.39,11.25a185.29,185.29,0,0,0-8.26,22c-7.56,23.56-14.45,53.68-20,77.58-6,25.77-10.09,44.15-16.71,70.56-2.6,10.38-4.76,22-7.49,32.32-2.18,8.29-3.85,18.1-2.72,26.66s4.07,15.63,14.82,16.06c2.53.1,17.34-3.14,32.34-8C54.31,518,59.68,515,67.66,512a74.75,74.75,0,0,1,8.09-3.32c3.77-1.68,3-1.2,6.87-2.72.34-.13,2.26-.57,2.26-.57l1.43-.56s-.13,2.82-.12,3.42c.08,5.56-1.08,10-1.5,15.29S83.11,537.69,82,543c-.85,4.19-1.48,8.42-2.51,12.58a49,49,0,0,1-1.74,5.78,11.45,11.45,0,0,1-1.18,3.51,18.74,18.74,0,0,1-3.45,4.92,9,9,0,0,1-4,2c-1.41.41-3.07.39-4.32,1.27-1,.74,0,2.93.88,3.76,1.06,1,.6,1.2-.32,2.21a20.49,20.49,0,0,1-3.94,3.44,8.73,8.73,0,0,0-1.82,1.67c-1,1.19,0,2.14.17,3.49.14,1.61.5,2.41-.25,3.83-.34.64-4.8,5.25-3.33,5.65a9.67,9.67,0,0,0,4.83.25,34.8,34.8,0,0,0,4.58-1.9,1.36,1.36,0,0,1,1.85,1.69c-.29.78-.59,1.63-.87,2.42a1.36,1.36,0,0,0,1.83,1.69l.31-.1,3-.65q3.27-.72,6.53-1.49c4.7-1.1,9.38-2.25,14.07-3.39,8.69-2.13,14.51.57,23.28-1.17,2.31-.46,5.75-.92,8.09-1.19,1.33-.16,7.8-1.11,10-.95,15.46,1.1,64.55-5.92,79.62-2.33.88.21,11.51,3.84,22.22,6.59a1.36,1.36,0,0,0,1.66-1.62,9.41,9.41,0,0,1-.19-1.05c0-.07-.1-.54-.08-.6a5.68,5.68,0,0,1-.29-.77,4,4,0,0,0-.17-.75c0-.14,1.32-.09,1.37-.09a17,17,0,0,0,2,0,18.49,18.49,0,0,0,3.91-.74,7.33,7.33,0,0,0,2.18-1,5,5,0,0,0,1.68-2.44,1.21,1.21,0,0,0,.1-.56,5.18,5.18,0,0,0-.1-1.19c-.63-1.84-2.24-2.9-3.54-4.27a36.61,36.61,0,0,1-3.53-3.74,22.13,22.13,0,0,1-1.38-1.95,5.2,5.2,0,0,1-.82-2.16c.06-1.54,2.81-2.51,1.88-4.09-.55-.93-2.37-1.39-3.29-1.8s-2.61-1.21-1.72-2.35a6.39,6.39,0,0,1,1.37-1.33l-.53-.61c-1.68-1.28-3.86-1.27-5.73-2.23s-3.86-1.84-5.67-2.93a5.26,5.26,0,0,1-2.58-2.45,2.67,2.67,0,0,1,1-2.77,5.58,5.58,0,0,1,2.38-.89c.33-.1,1.44-.45,1.81-.58a.64.64,0,0,0,.42-.57,3.26,3.26,0,0,0,.07-.7v-.31c-.33-2.54-.75-5.06-1.28-7.57-.38-1.83-1.1-3.51-1.51-5.33-.24-1.06-1.23-2.73-1.65-4.47-.24-1-1.64-3.17-.65-2.89,1.44.42,6,1.81,7.18,2.18,2.27.71,4.72,1.4,7,2.06,10.77,3.12,10.67,3.94,23.41,6.7,2.28.5,8.29-.52,8.94-2.76a29,29,0,0,0,1.06-7.18c1.35-13.17,2.38-19.24,2.71-32.35C273.22,487.08,273.53,475.66,272.76,464.34ZM77.93,452l-11.3,27h0l3.24,1.07h0L69,481.68h0a128.41,128.41,0,0,1-14.93,1.37h0s-7.57-7-8.55-9.82c-3.72-10.79,24.29-74,30.63-97.4,2.09-7.71,5-14,6.92-21.77a59.77,59.77,0,0,1,3.76-9,.81.81,0,0,1,1.53.35c.06,2.79-.63,7.4-.68,8.66-.28,6.54.13,7.46-.09,14-.41,12.22.49,20.83,0,33.05-.55,15.25,1.34,37.77,1.22,53,0,1.53-10.89-2.17-10.92-2.18Zm161.9,33c-.06.42-1.12,2.51-1.53,2.45A132.2,132.2,0,0,1,220.62,483a1.82,1.82,0,0,1-.57-1c-.57-4.37,0-8.87-.56-13.24a1.38,1.38,0,0,0-.44-.85c-.31-.29-.41-.51-.26-.66a1.63,1.63,0,0,0,.31-.83c-.07-.28-.13-.56-.21-.84a.93.93,0,0,1,.27-1c-.12-3.64-1.28-9.74-1.42-11-1.26-11.59-1.66-21.91-2.89-33.5-1.18-11.13-2.29-22.26-3.54-33.38-1.27-11.43-1.77-20.88-2.55-32.36-.17-2.51-1.61-7.44.23-7.61,2.56-.23,5.31,7.54,5.76,9.22,5.61,21.22,19.35,84.07,23.37,110l-.07.06C238.61,469,240.25,482,239.83,485Z"/><path class="cls-12" d="M121.47,251.59c-3.53.32-8.3,1.74-7.23,3a9.26,9.26,0,0,0,4.8,2.74c8.25,2.17,13.38,4.77,23.08,4.41,9.33-.36,16.21-1,24.84-4.71,3.91-1.7,10-5.2,7.64-6-2.19-.73-9.67-1-9.67-1l-.37-1.24s6.69.34,8,.69c8.5,2.36,32.06,10.42,32.06,10.42s1.27,9.15-7.44,13.48c-8.9,4.43-25.54,9.9-39.32,11.09-9.29.8-45.88-.92-59-8.45-8.2-4.69-10.54-17.68-10.54-17.68s27.13-8.22,33.32-7.91Z"/></g><g id="torso_crosse_shading_light"><path class="cls-13" d="M272.76,480.06c-.69-22.39-3.24-44.91-5.84-66.9-.71-6.06-1.5-12.11-2.3-18.16-.53-2.69-1.05-5.39-1.58-8.09-2.41-12.22-4.87-24.44-7.19-36.69-.86-4.57-1.78-9.15-2.48-13.75-1.39-5.93-2.65-11.89-3.67-17.9-1.19-7-3-13.84-4.46-20.77-2.86-10-4.38-15.21-7.05-19.71-3.23-5.43-6.74-5.84-10.78-8.11-4.63-2.6-19.39-8.62-19.39-8.62s18.08,17,22.61,21.43c6.68,6.56,10.2,19,12.42,31,4.39,23.71,7.36,36.85,12.49,60.21,4.35,19.83,5.53,39.31,6.2,59.51,1,31,5.78,62.16,3,93.15a2.34,2.34,0,0,1-.29.95c.31,3.22.63,6.43,1,9.64a1.54,1.54,0,0,1-.37,1.15c1.53,2.56,2.94.3,4.26-.31.42-.19,1-2.58,1.53-6.28a1.46,1.46,0,0,1-.21-.91A341.17,341.17,0,0,0,272.76,480.06Z"/></g><g id="torso_crossed_outline"><path class="cls-10" d="M245.33,295.29a38.94,38.94,0,0,0-1.7-6c-.69-2-1.47-3.89-2.33-5.77a60.21,60.21,0,0,0-2.84-5.54,17.66,17.66,0,0,0-3.78-4.8,9.71,9.71,0,0,0-1.28-.83l-1.36-.77c-.9-.51-1.81-1-2.73-1.48-1.84-1-3.71-1.87-5.59-2.74-3.77-1.73-7.62-3.3-11.51-4.77-7.77-2.94-15.74-5.28-23.71-7.67-4-1.21-8-2.43-11.91-3.73l-3-1a22.2,22.2,0,0,0-3-.68c-1-.18-2-.33-3.07-.47a23.22,23.22,0,0,0-3.09-.29l0-.1a21.83,21.83,0,0,1,3.14.1c1,.08,2.08.18,3.11.31a21.2,21.2,0,0,1,3.11.57l3,.88,12,3.44a249.47,249.47,0,0,1,23.71,7.89c3.88,1.51,7.73,3.13,11.49,4.91q2.83,1.35,5.59,2.83c.92.49,1.82,1,2.73,1.52l1.35.8a10.44,10.44,0,0,1,1.32.88,9.31,9.31,0,0,1,1.16,1.1c.33.41.66.82,1,1.24l.88,1.31.81,1.34a59.57,59.57,0,0,1,2.77,5.61c.84,1.91,1.59,3.86,2.25,5.83a40.71,40.71,0,0,1,1.6,6Z"/><path class="cls-10" d="M44.91,302.43c2.5-7.91,5.43-15.76,9.78-22.9a42.12,42.12,0,0,1,3.6-5.12,24.6,24.6,0,0,1,2.14-2.31,15.27,15.27,0,0,1,1.24-1c.49-.32.92-.51,1.39-.78,3.64-2,7.3-4,11-5.84s7.46-3.71,11.28-5.36a123.85,123.85,0,0,1,11.73-4.34,111.91,111.91,0,0,1,12.14-3,105.38,105.38,0,0,1,12.38-1.51v.1c-4.11.56-8.21,1.19-12.26,2.1s-8,1.94-12,3.24-7.81,2.72-11.64,4.29-7.59,3.33-11.31,5.16-7.39,3.77-11.06,5.71a13.68,13.68,0,0,0-4.64,3.9,45,45,0,0,0-3.63,5c-4.41,7-7.46,14.81-10.1,22.67Z"/><path class="cls-10" d="M88.35,258.32a34,34,0,0,0,2.36,8.33,23.37,23.37,0,0,0,4.58,7.28,10.64,10.64,0,0,0,1.64,1.37,11.48,11.48,0,0,0,1.91,1,41,41,0,0,0,4.08,1.43c2.77.83,5.59,1.52,8.42,2.15s5.67,1.2,8.52,1.71,5.71,1,8.58,1.23c5.78.52,11.56,1,17.34,1.25,11.55.44,23.24-.31,34.3-3.65a77.42,77.42,0,0,0,15.9-6.72c1.24-.74,2.53-1.44,3.72-2.21a10.46,10.46,0,0,0,2.7-3.22,15,15,0,0,0,2.14-8.22l.1,0a15,15,0,0,1-1.84,8.46,10.88,10.88,0,0,1-2.75,3.48c-1.23.84-2.48,1.56-3.71,2.34a75,75,0,0,1-16,7.07c-11.19,3.51-23,4-34.62,3.48-5.81-.26-11.59-.81-17.37-1.38-2.91-.26-5.77-.8-8.63-1.32s-5.69-1.14-8.52-1.8-5.65-1.38-8.43-2.24a42.7,42.7,0,0,1-4.1-1.49,10.08,10.08,0,0,1-3.63-2.46,23.76,23.76,0,0,1-4.55-7.42,34,34,0,0,1-2.27-8.4Z"/><path class="cls-10" d="M166.91,250.21c1.37,0,2.72.21,4.08.39.67.1,1.35.2,2,.32l1,.2.5.13a1.54,1.54,0,0,1,.55.26c.25.36-.18.81-.36,1a8.3,8.3,0,0,1-.76.69c-.52.43-1.06.82-1.62,1.2-1.11.75-2.25,1.45-3.43,2.1s-2.49,1-3.73,1.54-2.52.9-3.8,1.3A56.76,56.76,0,0,1,145.52,262a79.72,79.72,0,0,1-20-2.48c-1.64-.38-3.27-.8-4.89-1.22l-2.43-.65c-.21-.06-.38-.09-.65-.19a4.94,4.94,0,0,1-.61-.3c-.38-.22-.73-.46-1.08-.71a8.68,8.68,0,0,1-1.94-1.77,3.25,3.25,0,0,1-.15-.4,1.29,1.29,0,0,1,.06-.45,1.64,1.64,0,0,1,.5-.59,4.52,4.52,0,0,1,1.19-.58,17.35,17.35,0,0,1,5-.85v.1a18.84,18.84,0,0,0-4.83,1.17,4.64,4.64,0,0,0-1,.57c-.29.26-.42.49-.24.72a8.47,8.47,0,0,0,1.85,1.5,11.22,11.22,0,0,0,1,.63c.17.09.35.17.52.24l.56.14,2.45.57c1.63.37,3.26.75,4.9,1.1,6.52,1.41,13.11,2.67,19.78,2.65a56.57,56.57,0,0,0,15.7-2.33c1.27-.38,2.53-.81,3.79-1.23s2.51-.93,3.7-1.45a38.11,38.11,0,0,0,3.44-2c.55-.36,1.1-.74,1.62-1.15a6.51,6.51,0,0,0,.73-.65,2.35,2.35,0,0,0,.28-.33c.06-.1.12-.25,0-.34a1.09,1.09,0,0,0-.36-.16l-.48-.13c-.33-.09-.66-.16-1-.23-.67-.13-1.34-.25-2-.35-1.35-.21-2.7-.4-4.05-.48Z"/><path class="cls-10" d="M147.51,340.3a4.86,4.86,0,0,0,3.16.42,10.86,10.86,0,0,0,3.06-1.09,29,29,0,0,0,5.42-3.64,46.73,46.73,0,0,0,8.5-9.89c2.43-3.64,4.52-7.49,6.63-11.32s4.1-7.74,6-11.67,3.68-7.94,5.33-12,3.19-8.14,4.55-12.29,2.6-8.34,3.58-12.6c.48-2.13,1-4.26,1.33-6.42l.29-1.61a4.8,4.8,0,0,0,.14-1.58,1.38,1.38,0,0,0-.87-1.15,3.68,3.68,0,0,0-1.59-.16v-.09a3.59,3.59,0,0,1,1.66.06,1.62,1.62,0,0,1,1.09,1.29,4.72,4.72,0,0,1-.05,1.68l-.21,1.63c-.27,2.18-.68,4.34-1.09,6.5a121.34,121.34,0,0,1-3.32,12.76,131.69,131.69,0,0,1-4.58,12.36q-2.56,6.08-5.53,12t-6.16,11.63c-2.16,3.82-4.31,7.65-6.8,11.28a46.76,46.76,0,0,1-8.71,9.86,29.94,29.94,0,0,1-5.53,3.59,11.11,11.11,0,0,1-3.13,1.05,5,5,0,0,1-3.23-.48Z"/><path class="cls-10" d="M148.42,365.35c-.21-5.45-.2-10.91.12-16.37.11-1.36.35-2.72.4-4.06a5.81,5.81,0,0,0-.25-1.95,3.45,3.45,0,0,0-1.09-1.58,5.74,5.74,0,0,0-.79-.58l-.89-.47c-.61-.31-1.23-.6-1.83-.93a38.29,38.29,0,0,1-3.52-2.13,41.33,41.33,0,0,1-11.23-11.89c-3-4.54-6-9.1-9-13.7a272.49,272.49,0,0,1-16.3-28.41c-2.36-4.93-4.53-9.95-6.42-15.08a72.65,72.65,0,0,1-2.51-7.82,11.88,11.88,0,0,1-.34-4.12,2.69,2.69,0,0,1,1-1.83,2.83,2.83,0,0,1,2-.39v.1a2.7,2.7,0,0,0-1.89.45,2.46,2.46,0,0,0-.81,1.71,11.52,11.52,0,0,0,.49,4A80.54,80.54,0,0,0,98.33,268q3,7.57,6.66,14.89c4.84,9.75,10.3,19.18,16.07,28.42q4.35,6.93,8.83,13.77a41.2,41.2,0,0,0,11,11.85,37,37,0,0,0,3.46,2.14c.59.33,1.2.63,1.8.94l.92.49a7.44,7.44,0,0,1,.84.64,3.93,3.93,0,0,1,1.18,1.76,5.9,5.9,0,0,1,.24,2.08c-.06,1.39-.32,2.73-.44,4.08-.38,5.43-.47,10.89-.33,16.34Z"/><path class="cls-10" d="M160.6,196.67c.74,13.68,1.89,27.3,3.21,40.93.28,3.41.52,6.84.74,10.24.16,1,.17,2.4,1.07,3.06.06,0,0,.12,0,.09-1.05-.62-1.14-2-1.39-3.1-.47-3.4-.93-6.78-1.33-10.19-1.38-13.52-2.15-27.74-2.26-41Z"/><path class="cls-10" d="M121.28,191.72a458.83,458.83,0,0,1,1,46.62c-.11,2.59-.17,5.18-.31,7.77a26.54,26.54,0,0,1-.54,5.83,2.2,2.2,0,0,1-1.15,1.57.05.05,0,0,1,0-.1,2.06,2.06,0,0,0,.93-1.54c.5-4.46,0-9,.14-13.55.36-15.44.59-31.46,0-46.6Z"/></g></g><g id="mouth_neutral4"><path class="cls-14" d="M127.62,178.57c.83,1.41,4,6.56,6.29,6.76s6.92-.35,9.81-.15,10.58-.52,12.64-1.52,3.36-3.58,4.19-5.19-4.57-5.58-7.64-5.87-6.65,2.17-10,1.75-5.65-2.44-8.13-1.43a25,25,0,0,0-6.2,3.82A3.34,3.34,0,0,0,127.62,178.57Z"/><path class="cls-10" d="M165.94,177.87c-1.77.79-3.75.26-5.62.57-2.91-.24-5.25,1.16-8.35,1.23-4.41.14-9.73-.34-14.14-.19-5.46,0-11.47-1.09-16.92-1.11v-.09c5.61-.74,11.32.05,16.94.21,3.27,0,8,.37,11.3.55a22.07,22.07,0,0,0,5.57-.24c1.85-.29,3.75-1,5.6-.66,1.78-.22,3.88.32,5.57-.35l.06.08Z"/><path class="cls-10" d="M127.05,178c4.29-3.33,6.37-7.3,12.54-5a10.17,10.17,0,0,0,4.44,1c5.59-1.31,8.5-4.11,13.5.93l3.43,3.3-.06.08c-4.07-2.61-6.75-6.78-12.12-4.73a28.13,28.13,0,0,1-4.68,1.22,10.81,10.81,0,0,1-4.73-1.18c-2.11-.85-4.64-1.14-6.65.09-1.69,1-4.23,3.71-5.67,4.27Z"/><path class="cls-10" d="M158.66,181.76c-.43,1.2-2.11,1.77-3.15,2.37-3.56,2.07-7.87,1.47-11.72,1.35-2.69-.09-5.24.83-8,.42a12.18,12.18,0,0,1-5.59-2.39,3.19,3.19,0,0,1-.87-1.85l.1,0a3.78,3.78,0,0,0,2.75,2.36,19.51,19.51,0,0,0,3.75.91c2.54.27,5.23-.44,7.83-.23,4,.26,7.91,1,11.59-.82,1.07-.55,2.62-1,3.17-2.1Z"/></g><g id="eyes_neutral7"><g id="white"><path class="cls-15" d="M101.73,117.1c-4,1.73-7.51,2.62-8.47,4s-.39,4.89,0,6.63,1.31,2.06,4.41,3.48c3.66,1.67,11.34,2,14.23,1.59s8.88-1.22,10-2,3.21-1.93,3.21-1.93.66-5.46.08-7.19-1.79-6.2-5.64-5.81S101.73,117.1,101.73,117.1Z"/><path class="cls-15" d="M167.52,114.84c-4.29,1-7.16.83-8.12,2.18s-1.15,6.57-.76,8.3,1,2.22,4.27,3.19,12.48,2.23,15.37,1.85,8.3-1.08,9.45-1.85a8,8,0,0,0,2.93-4.84A15,15,0,0,0,190,117c-.57-1.73-1.44-3.36-5.29-3S171.73,113.91,167.52,114.84Z"/></g><g id="iris"><path class="cls-16" d="M105.6,117.47c-3.65,1.22-4.87,6.56-3.84,8.61a7.37,7.37,0,0,0,6.86,3.61c2.83-.26,6.44-1.12,7.21-2.92s1.29-3.65.78-5.19-2-4.1-3-4.61S108.68,116.44,105.6,117.47Z"/><path class="cls-16" d="M171.43,115.16c-3.65,1.22-4.87,6.93-3.85,9s3.76,4.26,6.68,4,5.68-1.1,6.69-2.79,2.29-3.77,1.78-5.31-1.8-4.62-2.83-5.14S174.51,114.13,171.43,115.16Z"/></g><g id="iris_outline"><path class="cls-10" d="M108.73,122.54s0-.05.07-.05,0,0,0,.06v.11l0,.21,0,.43,0,.85.06,1.7a15.86,15.86,0,0,1,0,1.69,10.1,10.1,0,0,1-.28,1.69h0a9.8,9.8,0,0,1-.17-1.7c0-.57.07-1.14.11-1.7l.22-3.28s0,0,0,0Z"/><path class="cls-10" d="M109.52,123.25l.92,1.21c.32.4.61.81.94,1.19s.7.72,1,1.14a5.14,5.14,0,0,1,.75,1.36l0,0h0c-.4-.34-.73-.7-1.09-1.06a11.17,11.17,0,0,1-.94-1.21c-.29-.43-.53-.88-.8-1.31l-.79-1.31,0,0Z"/><path class="cls-10" d="M110.19,122.67h-.08v-.06a29.19,29.19,0,0,0,3,.91c.5.17,1,.25,1.52.44a3.67,3.67,0,0,1,1.4.84v0l0,0c-.51-.16-1-.29-1.52-.4a8.56,8.56,0,0,1-1.51-.55,26.33,26.33,0,0,1-2.85-1.23l-.12-.06h.2l0,0Z"/><path class="cls-10" d="M109.6,122a7.42,7.42,0,0,1,1.93-1.86,13.15,13.15,0,0,1,1.08-.76c.38-.21.74-.44,1.16-.65l0,0a0,0,0,0,1,0,0,3.55,3.55,0,0,1-.91,1,8.86,8.86,0,0,1-1.14.69,7,7,0,0,0-2.11,1.55h0Z"/><path class="cls-10" d="M108.76,122.36a11.73,11.73,0,0,1-.18-1.42l-.19-1.42a9.74,9.74,0,0,1-.12-1.43,4.21,4.21,0,0,1,.3-1.44h.05c.07.49.1,1,.15,1.42a13.38,13.38,0,0,1,0,1.42v1.43c0,.47-.09,1,0,1.41a0,0,0,0,1,0,0A0,0,0,0,1,108.76,122.36Z"/><path class="cls-10" d="M108,123l0,0h0v0h0a5.46,5.46,0,0,1-1.13,1.07l-1.22,1a14.58,14.58,0,0,1-1.32.84,5.58,5.58,0,0,0-1.23.89h0s0,0,0,0a2.59,2.59,0,0,1,1-1.27,11.92,11.92,0,0,1,1.38-.77l1.3-.82a5.79,5.79,0,0,0,1.22-.91h0s0,0,0,0v0l0,0h0Z"/><path class="cls-10" d="M107.85,122.41a6.35,6.35,0,0,1-1.18-.54l-1.18-.54a9.06,9.06,0,0,1-1.19-.51,5,5,0,0,0-.55-.3,1.37,1.37,0,0,1-.54-.42,0,0,0,0,1,0,0h0a3.24,3.24,0,0,0,.62.12,3.27,3.27,0,0,1,.65.19,10.76,10.76,0,0,1,1.17.6l1.09.7a6.83,6.83,0,0,0,1.09.69v0Z"/><path class="cls-10" d="M175,120.34s0,0,.06,0a.12.12,0,0,1,0,.07l0,.1v.22l0,.42,0,.85.06,1.7a13.61,13.61,0,0,1,0,1.69,10,10,0,0,1-.29,1.69s0,0,0,0h0a10.75,10.75,0,0,1-.16-1.7c0-.57.07-1.14.1-1.7l.23-3.28h0Z"/><path class="cls-10" d="M175.76,121.06l.93,1.2c.31.4.61.82.93,1.2s.71.72,1,1.13a5.14,5.14,0,0,1,.75,1.36l0,0h0c-.4-.34-.74-.71-1.1-1.07a9.45,9.45,0,0,1-.93-1.21c-.29-.42-.54-.87-.8-1.31l-.79-1.31,0,0Z"/><path class="cls-10" d="M176.44,120.48h-.09l0,0c.95.41,2,.58,3,.9.5.17,1,.25,1.52.44a3.94,3.94,0,0,1,1.4.84,0,0,0,0,1,0,0h0c-.52-.16-1-.28-1.52-.4a7.6,7.6,0,0,1-1.51-.55,29.58,29.58,0,0,1-2.86-1.22l-.11-.07h.2a0,0,0,0,1,0,0Z"/><path class="cls-10" d="M175.85,119.79a7.42,7.42,0,0,1,1.93-1.86,13.15,13.15,0,0,1,1.08-.76c.38-.21.74-.44,1.15-.64h0a0,0,0,0,1,0,0,3.57,3.57,0,0,1-.91,1,7.45,7.45,0,0,1-1.15.69,7.29,7.29,0,0,0-2.1,1.55h0Z"/><path class="cls-10" d="M175,120.17a14.33,14.33,0,0,1-.18-1.43l-.18-1.42a8.45,8.45,0,0,1-.12-1.43,4.39,4.39,0,0,1,.29-1.43h.05c.08.49.11,1,.16,1.42a13.43,13.43,0,0,1,0,1.42l0,1.43a13.45,13.45,0,0,0,0,1.42H175Z"/><path class="cls-10" d="M173.76,121.14v0s0,0,0,0v0h0a5.72,5.72,0,0,1-1.14,1.06l-1.22,1a13.85,13.85,0,0,1-1.31.85,5.64,5.64,0,0,0-1.24.89h0l0,0a2.65,2.65,0,0,1,1-1.28c.44-.32.94-.51,1.38-.77l1.3-.81a5.79,5.79,0,0,0,1.22-.91v0h0s0,0,0,0v.06h0A0,0,0,0,1,173.76,121.14Z"/><path class="cls-10" d="M173.54,120.12a6.78,6.78,0,0,1-1.25-.58l-1.23-.61c-.41-.22-.85-.35-1.24-.59l-.58-.37a1.3,1.3,0,0,1-.54-.48v0h0a3.48,3.48,0,0,0,.65.19c.23.07.44.16.66.24a7.26,7.26,0,0,1,1.21.69l1.15.77a6.45,6.45,0,0,0,1.15.72v0Z"/><path class="cls-10" d="M105.17,117a13.09,13.09,0,0,0-3.06,3.93,5.84,5.84,0,0,0-.25,4.8,5.37,5.37,0,0,0,1.44,2,11.26,11.26,0,0,0,1,.69,7,7,0,0,0,1.12.51,10.53,10.53,0,0,0,4.89.44,8.24,8.24,0,0,0,4.47-1.83,5.39,5.39,0,0,0,1.76-4.3,7.68,7.68,0,0,0-1.67-4.52,6.4,6.4,0,0,0-4.12-2.52s-.05,0-.05,0,0,0,.05,0a6.22,6.22,0,0,1,4.39,2.35,8.07,8.07,0,0,1,1.9,4.72,5.73,5.73,0,0,1-1.93,4.69,8.79,8.79,0,0,1-4.75,1.86,10.79,10.79,0,0,1-5-.55,6.85,6.85,0,0,1-1.16-.55,9.47,9.47,0,0,1-1-.74,7.86,7.86,0,0,1-.86-1,4.87,4.87,0,0,1-.61-1.12,6.07,6.07,0,0,1,.33-4.95,13.7,13.7,0,0,1,3.15-3.91s.05,0,.06,0S105.19,117,105.17,117Z"/><path class="cls-10" d="M172.2,114.41a13.45,13.45,0,0,0-3.47,3.3,6.94,6.94,0,0,0-1.36,4.47,5.8,5.8,0,0,0,2.19,4,8.27,8.27,0,0,0,4.33,1.75,8,8,0,0,0,7.78-4.19,6.26,6.26,0,0,0,.5-4.54,9.9,9.9,0,0,0-2.41-4.06s0-.05,0-.05,0,0,0,0a9.17,9.17,0,0,1,2.72,4,6.61,6.61,0,0,1-.4,4.86,8.23,8.23,0,0,1-8.27,4.36,8.62,8.62,0,0,1-4.48-1.91,6,6,0,0,1-2.21-4.26,7.12,7.12,0,0,1,1.46-4.57,13.36,13.36,0,0,1,3.57-3.26,0,0,0,0,1,.06,0S172.23,114.39,172.2,114.41Z"/></g><g id="pupil"><path class="cls-17" d="M109,122.72l1.76,1.42a2.26,2.26,0,1,1-.31-3.21,2.27,2.27,0,0,1,.66.9Z"/><path class="cls-17" d="M174.85,120.51l1.76,1.42a2.26,2.26,0,1,1-.31-3.21,2.27,2.27,0,0,1,.66.9Z"/><path class="cls-17" d="M109,122.72l1.76,1.42a2.26,2.26,0,1,1-.31-3.21,2.27,2.27,0,0,1,.66.9Z"/><path class="cls-17" d="M174.85,120.51l1.76,1.42a2.26,2.26,0,1,1-.31-3.21,2.27,2.27,0,0,1,.66.9Z"/><path class="cls-18" d="M109,122.72l1.76,1.42a2.26,2.26,0,1,1-.31-3.21,2.27,2.27,0,0,1,.66.9Z"/><path class="cls-18" d="M174.85,120.51l1.76,1.42a2.26,2.26,0,1,1-.31-3.21,2.27,2.27,0,0,1,.66.9Z"/></g><g id="spec"><ellipse class="cls-19" cx="116" cy="119.81" rx="2.44" ry="2.18" transform="translate(-23.47 211.24) rotate(-79.17)"/><ellipse class="cls-19" cx="180.04" cy="118.09" rx="2.44" ry="2.18"/></g><g id="outline"><path class="cls-10" d="M159.7,127.24a3.17,3.17,0,0,1-1.25-2.32,14,14,0,0,1-.3-2.68,11.16,11.16,0,0,1,.23-2.7,9.13,9.13,0,0,1,1-2.52h0s0,0,0,0c-.19.88-.41,1.73-.54,2.6a22.68,22.68,0,0,0-.32,2.61,13.78,13.78,0,0,0,.12,2.64,3.09,3.09,0,0,0,1.05,2.31s0,0,0,0Z"/><path class="cls-10" d="M187.74,128.47a5.57,5.57,0,0,0,2.27-3,10.29,10.29,0,0,0,.65-3.75,20,20,0,0,0-.57-3.78,8.66,8.66,0,0,0-1.59-3.44,0,0,0,0,1,0,0,0,0,0,0,1,0,0,6.73,6.73,0,0,1,2,3.35,13.58,13.58,0,0,1,.49,3.91,10.51,10.51,0,0,1-.84,3.84,5.76,5.76,0,0,1-2.46,3h0S187.73,128.48,187.74,128.47Z"/><path class="cls-10" d="M190.82,127.31a39.1,39.1,0,0,1-15.64,3.36,36.75,36.75,0,0,1-8-.77,33,33,0,0,1-7.6-2.65.05.05,0,0,1,0,0h0a46.36,46.36,0,0,0,7.68,2.21,44.86,44.86,0,0,0,7.93.86,39,39,0,0,0,15.62-3s0,0,0,0S190.84,127.31,190.82,127.31Z"/><path class="cls-10" d="M117.74,108.26l.34,2.35a7.78,7.78,0,0,1,.14,1.17,5.46,5.46,0,0,1-.14,1.2h0a4.86,4.86,0,0,1-.31-1.16,7.85,7.85,0,0,1,0-1.19v-2.37h0Z"/><path class="cls-10" d="M111.93,109.08a8.27,8.27,0,0,1,.68,1.9,3.42,3.42,0,0,1,.14,1,2.47,2.47,0,0,1-.26,1h0a6,6,0,0,1-.19-1c0-.32,0-.64,0-1a8.69,8.69,0,0,0-.34-1.93h.05Z"/><path class="cls-10" d="M106.07,109.64l.59,1.91a5.34,5.34,0,0,1,.26,1,3.5,3.5,0,0,1,0,1h0a3.9,3.9,0,0,1-.43-.93,5.41,5.41,0,0,1-.16-1l-.25-2,0,0Z"/><path class="cls-10" d="M97.7,109.09l1,2.74a9.59,9.59,0,0,1,.46,1.37,7.13,7.13,0,0,1,.2,1.46l0,0h0a7.31,7.31,0,0,1-.63-1.33,11.66,11.66,0,0,1-.36-1.41l-.65-2.84h0S97.7,109.09,97.7,109.09Z"/><path class="cls-10" d="M163.34,108.26l.18,2.23a8.25,8.25,0,0,1,0,1.11,4.88,4.88,0,0,1-.23,1.11h-.05a4.37,4.37,0,0,1-.22-1.11,5.9,5.9,0,0,1,.05-1.11l.17-2.23h.05Z"/><path class="cls-10" d="M180.05,106.5c0,1,0,1.91,0,2.85,0,.48.08,1,.06,1.43a9,9,0,0,1-.17,1.43h-.05a5.86,5.86,0,0,1-.28-1.42,8.66,8.66,0,0,1,0-1.44c.08-1,.2-1.91.35-2.86h.05Z"/><path class="cls-10" d="M174.29,107.06a8.63,8.63,0,0,1,.35,2.16,3.7,3.7,0,0,1-.06,1.1,2.84,2.84,0,0,1-.46,1h0l0,0a9.6,9.6,0,0,1,0-1.08c0-.35.11-.69.15-1a8.44,8.44,0,0,0,0-2.13h0A0,0,0,0,1,174.29,107.06Z"/><path class="cls-10" d="M169.34,106.23a30,30,0,0,1,.17,3,8.4,8.4,0,0,1-.08,1.51,6.33,6.33,0,0,1-.42,1.47h0a10.91,10.91,0,0,1,0-1.51c0-.49.11-1,.17-1.48a29.6,29.6,0,0,0,.18-3h.05Z"/><path class="cls-10" d="M94.13,130a11.58,11.58,0,0,1-1.51-3.79,8.37,8.37,0,0,1-.19-2.06,6.54,6.54,0,0,1,.46-2s0,0,0,0l0,0c0,.69,0,1.35,0,2s0,1.33.09,2A11.11,11.11,0,0,0,94.18,130l0,0A0,0,0,0,1,94.13,130Z"/><path class="cls-10" d="M124.86,129.84a16.55,16.55,0,0,0,.4-6.82,22.36,22.36,0,0,0-.82-3.32,26.08,26.08,0,0,0-1.24-3.2,0,0,0,0,1,0,0s0,0,0,0a12,12,0,0,1,1.68,3.06,13.46,13.46,0,0,1,.73,3.43,16.66,16.66,0,0,1-.74,6.88s0,0,0,0Z"/><path class="cls-10" d="M94,129.24a18.43,18.43,0,0,0,3.82,1.91,26.77,26.77,0,0,0,4.14,1.07,38,38,0,0,0,8.52.43,45.18,45.18,0,0,0,8.42-1.34,17.41,17.41,0,0,0,7.61-3.6s0,0,.06,0a.06.06,0,0,1,0,0c-2,2.16-4.78,3.29-7.53,4.06a39.8,39.8,0,0,1-17.1.64,26.75,26.75,0,0,1-4.14-1.16,18.7,18.7,0,0,1-3.81-2s0,0,0,0S94,129.23,94,129.24Z"/><path class="cls-10" d="M91.22,122.1a25.68,25.68,0,0,1,7.5-4.66,41.27,41.27,0,0,1,8.59-2.43,31,31,0,0,1,8.83-.73,37.72,37.72,0,0,1,4.36.71,22.12,22.12,0,0,1,4.27,1.38v.28a25.06,25.06,0,0,1-4.36,1c-1.44.22-2.87.36-4.29.5-2.82.27-5.62,0-8.42.09a43.8,43.8,0,0,0-8.29,1.24,36.33,36.33,0,0,0-7.92,3Z"/><path class="cls-10" d="M191.22,114.46c-1.35.19-2.68.23-4,.34s-2.66.23-4,.36c-2.65.26-5.29.61-7.91,1a75.52,75.52,0,0,1-7.84,1.23c-1.33.06-2.66.09-4,.05a16,16,0,0,1-2.05-.15l-2.08-.24-.05-.28a30.28,30.28,0,0,1,3.76-1.83,34,34,0,0,1,3.93-1.15,37.84,37.84,0,0,1,8.1-.51c2.71,0,5.42,0,8.11.15,1.35.08,2.69.18,4,.29a38.83,38.83,0,0,1,4,.49Z"/><path class="cls-10" d="M163.55,132.18a12.52,12.52,0,0,1-4.71-2.77,10.06,10.06,0,0,1-1.79-2.11,8.84,8.84,0,0,1-1-2.55s0,0,0,0,0,0,0,0a23.92,23.92,0,0,0,1.41,2.3,18.44,18.44,0,0,0,1.66,2.1,12.42,12.42,0,0,0,4.44,3s0,0,0,0Z"/><path class="cls-10" d="M118.18,136.79a6.91,6.91,0,0,0,3.69-1,11.48,11.48,0,0,0,2.93-2.45,23.56,23.56,0,0,0,2.21-3.13,34.88,34.88,0,0,0,1.84-3.41h0a0,0,0,0,1,0,0,15.23,15.23,0,0,1-1.46,3.64,15,15,0,0,1-2.35,3.15A11.49,11.49,0,0,1,122,136a7,7,0,0,1-3.79.81,0,0,0,0,1,0,0S118.17,136.79,118.18,136.79Z"/><path class="cls-10" d="M98.73,135.2a19.29,19.29,0,0,1-4.51-2.93,13.34,13.34,0,0,1-1.89-1.94A11.18,11.18,0,0,1,91,128s0,0,0,0h0c.58.69,1.12,1.39,1.71,2s1.15,1.34,1.78,2a19.32,19.32,0,0,0,4.26,3.18s0,0,0,0S98.74,135.21,98.73,135.2Z"/><path class="cls-10" d="M184.56,134.77a12.83,12.83,0,0,0,6-4,16,16,0,0,0,1.95-3,16.5,16.5,0,0,0,1.3-3.39h0s0,0,0,0a10,10,0,0,1-.9,3.59,11.54,11.54,0,0,1-2.1,3.07,13.07,13.07,0,0,1-6.24,3.79s0,0,0,0S184.55,134.77,184.56,134.77Z"/></g><g id="eyebrows"><path class="cls-20" d="M125.43,107.5c-3.66-.23-7.18-1.59-10.82-2-6.58-1-13.07,1-19.45,2.45a27.33,27.33,0,0,1-4.58.51,30.85,30.85,0,0,1,12.8-4.87c3.8-.69,7.7-1.57,11.62-1.07a43.19,43.19,0,0,1,6.73,1.84c1.42.59,2.94,1,4.13,2.28l-.43.81Z"/><path class="cls-20" d="M193.6,107.33c-7.62-1.86-15.45-3.25-23.29-2.79-3.09.26-5.85,1.76-8.85,2.47a45.3,45.3,0,0,1-4.87.66c2.15-2.72,5.25-4.06,8.48-4.91,9.63-2.67,19.69.5,28.82,3.59l-.29,1Z"/></g></g></g><rect id="face_clip-2" data-name="face_clip" class="cls-1" x="1" y="1" width="280" height="280" rx="140"/></svg>