<svg id="artwork" xmlns="http://www.w3.org/2000/svg" xmlns:xlink="http://www.w3.org/1999/xlink" viewBox="0 0 300 630"><defs><style>.cls-1{fill:none;}.cls-2{clip-path:url(#clip-path);}.cls-3{fill:#d9c3b0;}.cls-4{fill:#f2dfce;}.cls-5{fill:#825813;}.cls-6{fill:#bfa68f;}.cls-7{opacity:0.7;}.cls-8{fill:#e1cfc0;}.cls-9{fill:#f5d6c0;}.cls-10{fill:#2d2d2d;}.cls-11{fill:#d6a190;}.cls-12{fill:#d7d7ce;}.cls-13{fill:#f29178;}.cls-14{fill:#f18974;}.cls-15{fill:#959c70;}.cls-16{fill:#facd78;fill-rule:evenodd;}.cls-17{fill:#9c906d;}.cls-18{fill:#e9ae8c;}.cls-19{fill:#879d7e;}</style><clipPath id="clip-path"><rect class="cls-1" y="1" width="300" height="630" rx="12"/></clipPath></defs><g class="cls-2"><g id="head_neutral1"><g id="head_neutral_colour"><path class="cls-3" d="M216.54,135.13a22.13,22.13,0,0,1,0-2.44c-.06-2.5-.28-5-.37-7.49-.38-10.65-2.35-21-4.24-31.47-1.32-7.26-3.77-12.71-6.42-19.62a38,38,0,0,0-6.45-10c-2.53-2.94-3.2-6.82-6.46-9-3.49-2.35-7.71-4.21-11-6.84-1.6-1.29-2.82-3.44-2.74-1.8.21,4.43-.2,14.64-.33,19.08a64.77,64.77,0,0,1-8.34,28.81,62.65,62.65,0,0,1-4.92,7.55c-1.71,2.16-4,3.74-6,5.57-1.79,1.62-3.18,3.5-5.59,4.26a3.21,3.21,0,0,1-1.91.12c-.62-.19-2.13-2.07-2.06-2.72a39,39,0,0,1-1.57,5,22.44,22.44,0,0,1-2.49,4.94,4.37,4.37,0,0,1-1.24,1.22c-.63.36-.82,1.06-1.48.76-.1.43-.69.19-1.09.35-.78-.87-.1-2.46.06-3.57.46-3.1,1.56-6,2.27-9.11a211.11,211.11,0,0,0,5.63-41.41c.06-2,.25-4.53.16-6.49-.07-1.58.67-2.86.33-4.41a.72.72,0,0,0-.16-.38.62.62,0,0,0-.82,0,2.1,2.1,0,0,0-.48.75c-1.53,3.27-4.68,5-7.9,6.27a46.48,46.48,0,0,0-7.5,3.49,15.44,15.44,0,0,0-3.23,2.31c-.93,1-1.12,2.44-1.68,3.62-1.08,2.22-3.37-7.25-5.76-6.61-7,1.89-3.26-1.69-9.92,3.41-4.25,3.25-8.47,4.06-13,6.82-2.3,1.39-4.6,3.79-6.89,5.18-2,1.24-5.18,10.23-7.47,10.84-.71.19-4.13,27-4.1,27.86.18,6.9,1.1,13.79,1.56,20.69.7,10.65,6.16,18.85,12.9,26.51a108.77,108.77,0,0,0,16,14.7c5.07,3.73,15.88,8.94,16,11.37.11,2.2.87,4.32,1,6.53a238.1,238.1,0,0,1-1.12,30.56c-.44,5.09-.94,10.18-1.39,15.27-.36,4-.33,8.5-1.64,12.36-.87,2.57-11.54,5.18-8.18,6.83,9,4.38,20.39,4.13,30.19,4.22a179.37,179.37,0,0,0,19.39-.88c5.41-.54,13-.38,17.46-3.85,5.32-4.09,3.08-13.69-3.94-14.18-2.15-.14-8-.95-8-.95s-.33-2.35-.42-3.74c0-10.72-1.84-19.21-2.49-29.91-.34-5.62-.83-19.11-.83-19.11s8.81-5.92,10.75-7a67.65,67.65,0,0,0,15.52-12.75c7.28-8.13,6.87-9.32,12.7-18.59C211.6,150.44,216.82,137.16,216.54,135.13Z"/><path class="cls-4" d="M232.74,104.89h.12v18.83h-.12Z"/><path class="cls-4" d="M73.88,108.24c-.32,12.3,8,24.4,5.15,36.72a1.4,1.4,0,0,1-1,1.16,6.55,6.55,0,0,1-2.14.1c-4.56-.15-11.4,3.88-14.45.28-5.89-7-3-18.49-3.83-26.07a43.43,43.43,0,0,1-.4-6.73,22.49,22.49,0,0,1,3.58-10.87c.83-1.36,2.58-2.35,5.2-2.87a6.64,6.64,0,0,1,5.28.89c1.84,1.41,3,2.92,2.81,4.69A24.54,24.54,0,0,0,73.88,108.24Z"/><path class="cls-4" d="M74.11,108.71c-.31,12.3,8,24.4,5.16,36.72a1.4,1.4,0,0,1-1,1.16,6.56,6.56,0,0,1-2.14.1c-4.56-.15-11.4,3.88-14.45.28-5.89-7-3-18.49-3.84-26.07a46.05,46.05,0,0,1-.4-6.73A22.51,22.51,0,0,1,61,103.3c.82-1.36,2.57-2.34,5.2-2.87a6.65,6.65,0,0,1,5.27.89c1.85,1.41,3.06,2.92,2.82,4.69A24.56,24.56,0,0,0,74.11,108.71Z"/><path class="cls-4" d="M232.54,105.93a40.19,40.19,0,0,1,.31,6.76l-.16,12.07a4.13,4.13,0,0,1-.16,1.31,8.44,8.44,0,0,1-.51,1c-1.16,2.16-.75,5.42-.92,7.78l-.63,8.66a3.81,3.81,0,0,1-4.25,3c-2.22-.55-2.28-4.39-2.47-6L221.89,125l-.34-2.85c-.26-2.22-.53-4.45-.77-6.67q-.57-5.37-.93-10.74c-.15-2.32-.26-4.8,1-6.9,1.5-2.43,4.83-1.76,6.94-.27a11.82,11.82,0,0,1,4.44,7C232.37,105,232.47,105.47,232.54,105.93Z"/><path class="cls-4" d="M159.4,72.39a27.69,27.69,0,0,1,.72-5,1.7,1.7,0,0,1,.18,1.45q-.37,2.1-.78,4.2C159.32,72.82,159.44,72.59,159.4,72.39Z"/><path class="cls-4" d="M159.4,72.39c0,.2-.08.43.12.6a13.43,13.43,0,0,1-.47,2.16h0A15.11,15.11,0,0,1,159.4,72.39Z"/><path class="cls-4" d="M159.05,75.15v.61c-.15-.31-.17-.47,0-.61Z"/><path class="cls-5" d="M77.89,277.89c-1.8-10.63-7.8-171.16-6.81-184.56-.06-11,.09-30.92,2.12-47,1.25-9.88,8.24-15.59,15.28-21.21,17.18-13.73,38.88-14.5,46.6-14.49a46.23,46.23,0,0,1,13.7,2.07s2.07-5.84,7.07-6.46C157.94,6,162.6,6.68,170,9s23.28,7.81,27.31,11.45c1.8,1.63,9.95,5.61,13.37,13.93,3.3,8,5.88,25,7.18,36.36,2.34,20.59,4.34,50.81,5.06,73.53s4.59,74.87,5,82.32,2.8,51.39,3.31,53.94-28.21-11.2-33.3-12.74c-3-.9-10.06-14-15.05-16.8-2.82-1.59-11.33-1.18-11.33-1.18a80.41,80.41,0,0,1-1-11.42c.17-3.89-2.55-24.47-2.91-27.63s-.41-14.54-.41-14.54,18.36-11.82,20-13.44c6.73-4.9,16-18,17.63-20.57s9.75-19.89,10.91-24.66c1.1-4.57-.64-9.79-1.19-15.76S212.7,99,210.45,91.33c-2-6.64-4.12-19-9.41-25.69-4.69-5.94-15.16-13.81-21-16.21-1.41-.59-1.25.27-1,1.78,1.42,9.61-1.81,31.58-6.25,40.55C167.25,103,159.6,110,156.36,113.2s-4.79,3.32-4.79,3.32l-1.67-7.38a57.4,57.4,0,0,1-4.3,10.13c-1.93,3.34-4.58,5.61-5.49,5,0,0,8.8-35.43,8.8-44.93,0-8.29,1.09-22.13,1.09-22.13s-6.08,7.35-8.92,8.39S132.51,69,132.51,69s-17.24,22.29-24.45,29.55-25.58,15.86-25.58,15.86-.61,8.27-.49,12.53-.21,23,6.22,30.49c8.42,9.83,23,24.06,27.36,26.8s11.4,7.29,14.39,8.9c1.55.83.71,67.47.71,67.47s-20.38,1.71-25.19,3.61C99.88,266.42,77.89,277.89,77.89,277.89Z"/></g><g id="head_neutral_shading_dark"><path class="cls-6" d="M149.53,68.41c.33-4.23.45-11,.45-11-5.5,8.38-17.6,11.55-19.35,11.74-.26.63-.53,1.26-.81,1.88-1.3,4.91-6.7,10.64-9.37,15C128.21,80,136,77.71,140.61,75.29,145.62,72.68,147.21,70.09,149.53,68.41Z"/><path class="cls-6" d="M82,110.58a75.89,75.89,0,0,0,4.12-7.27c1.64-2.94,4.59-6,6.59-9.17,1.76-2.79,3.11-4.13,5.39-9.33,1.64-3.76,4.46-8.48,4.18-8.38C91.39,80.26,84.76,92.24,83,99.43A55.56,55.56,0,0,0,82,110.58Z"/><path class="cls-6" d="M94.19,153c-7.28-13.36-3.28-28.15-2.55-43-3.23,1.65-7.23,3.37-9.25,4.15-.5,16.63-1.81,36,7.49,45.44,8.29,12.23,14.12,16.47,30.35,27.59C111.3,180.07,100.86,165.27,94.19,153Z"/><path class="cls-6" d="M143.17,198.82s-9.34-4.19-15.78-6.92l1,.5c.67,4.9,2,34.3.84,42.24-.43,3-.79,17-.79,17s-9.09-1.07-10.56.68c-2.6,3.11-11.18,17.29-11.18,17.29a203.49,203.49,0,0,0,21.07-.59c5.65-12.71,3.74-39.56,6.25-56.79C135.56,201.5,143.17,198.82,143.17,198.82Z"/><path class="cls-6" d="M65.64,109.18c-1.28,7-1.36,14.14-1.28,21.24,0,3.75-.56,10.53,1.41,13.67,9.72-2.67,5-21.34,5-28.09,0-3.35.21-6.86-1.23-9.89-.25-.51-.63-1.07-1.21-1.1a1.55,1.55,0,0,0-1.14.65,7.32,7.32,0,0,0-1.51,3.49Z"/><path class="cls-6" d="M224.11,105.72c6.08.87,5,14.84,4.86,18.81-.14,5.05.57,19.19-4.08,22.48a3.55,3.55,0,0,1-.7-2.12c-.44-4.39-1.95-14.44-2.29-18.58-.39-4.64-1.29-9.23-1-13.91.08-1.63,0-5.2,1.68-6.24A2.33,2.33,0,0,1,224.11,105.72Z"/></g><g id="head_neutral_shading_light" class="cls-7"><path class="cls-8" d="M223.8,102.2a17,17,0,0,1,6.88,11c.4,3-4.21,32.85-.45,33.48,3.13.51,3.15-9.07,3.21-11.5.35-14.12,2.1-29.84-3.55-35.48a10.59,10.59,0,0,0-9.21-2.8C218,97.64,222.73,101.44,223.8,102.2Z"/><path class="cls-8" d="M187.8,63.61c2.37,5,4.21,8.08,7.06,14.12,9,19.06,21.28,45.42,13.43,65.15-6.61,16.61-18.35,32.3-18.35,32.3s-29.39,25.06-20,19.49,16.72-9.25,24.95-20.52,18.76-23.49,20.59-37-1.72-24.12-3.22-35.84-5-23-10.43-31.46-15.38-18.47-22.62-20.06c-.38-.08.47,2.27,4.85,6.36"/><path class="cls-8" d="M160.86,202.53c.42,15.71-1.94,40.18-2.27,44.82-.4,5.65,1.35,19.53,1.35,19.53s19.74-10,23.65-14.72c2.28-2.74-11.88-2.36-11.88-2.36s-.81-7.6-1.94-14.65-.53-10.51-1.05-19.26-1-21.22-1-21.22Z"/><path class="cls-9" d="M65.15,104C62.49,109.87,63.67,125.9,63,131s-.13,19.25-1.36,12.86-1.55-20.67-1.67-26.6a113.86,113.86,0,0,1,.79-13.48s.71-2.91,2.4-2.81S65.15,104,65.15,104Z"/></g><g id="head_neutral_outline"><path class="cls-10" d="M90.14,161.15c-.19,32.82,2,66,1.74,98.81a.05.05,0,0,1-.1,0c-1.57-32.66-2.35-66.42-1.64-98.81Z"/><path class="cls-10" d="M108.55,179.8c1.61,26.16,3.08,52.33,3.62,78.54,0,.06-.09.07-.1,0-2.35-26-2.44-52.77-3.52-78.55Z"/><path class="cls-10" d="M188.32,182.63c.81,20.68,2.75,49.67,2.52,70.07,0,.06-.09.07-.1,0-1.58-20.12-2.05-49.93-2.42-70.08Z"/><path class="cls-10" d="M203.09,165.91c1.44,29.42,3.25,59,.58,88.41,0,.06-.1.05-.1,0,.86-29.37.43-59.33-.48-88.4Z"/><path class="cls-10" d="M213.07,146.54a542.85,542.85,0,0,1,4.07,62.68c.08,10.48-.23,21-.77,31.42s-1.25,21.05-4.65,31c0,.06-.11,0-.09,0,2.9-10.09,3.39-20.6,3.79-31,.93-20.9,1.39-41.84.1-62.74-.48-10.36-1.72-21.26-2.45-31.31Z"/><path class="cls-10" d="M208.55,81.34c12.18,59.14,18,120.09,15.88,180.48-.05,0-.5,12.17-.64,12.14s.23-12.15.18-12.15A864.64,864.64,0,0,0,208.55,81.34Z"/><path class="cls-10" d="M76,116.76c1.08-.39,3.53-1.32,4.55-1.7L85,113.13,89.36,111l4.21-2.4,4.08-2.6,3.94-2.81a98.9,98.9,0,0,0,9.76-8.44c1.32-1.23,3.19-3.33,4.45-4.66s3-3.53,4.08-5c1.43-1.81,3.36-4.65,4.64-6.58l2.5-4.12c.83-1.56,2.27-4.09,3-5.7,3.35-6.73,5.54-14.14,9.76-20.44a28.44,28.44,0,0,1,4.2-4.95c0-.05.11,0,.07.07-6,6.36-8.35,14.93-11.75,22.81A91.64,91.64,0,0,1,111.83,95.2c-1.67,1.66-4.27,3.9-6.06,5.41s-4.56,3.53-6.52,4.82c-1.48,1.08-3.92,2.49-5.48,3.48s-4.09,2.3-5.72,3-4.3,2-5.91,2.65c-.72.32-2.27.92-3,1.17l-3,1.08c-.06,0-.09-.07,0-.09Z"/><path class="cls-10" d="M140.64,25.19c-28.75,13.22-32.92,48.31-49.4,72.14-5.49,8.17-11.15,16.87-14.4,25.9a63,63,0,0,1,5.79-13.73c2.4-4.36,5.13-8.52,7.77-12.71,5.49-8.26,9.81-17.16,13.9-26.2C112.15,53,122,32.69,140.64,25.19Z"/><path class="cls-10" d="M150.61,56.47a24.6,24.6,0,0,1-14.83,11.62,31.16,31.16,0,0,0-6,1.88s-.1,0-.06-.08c3.39-2.72,7.94-2.92,11.62-5a25.27,25.27,0,0,0,9.2-8.44c0-.06.12,0,.09,0Z"/><path class="cls-10" d="M149.9,56a232.31,232.31,0,0,1-9.36,68.26l-.46-.41c5.77-2.5,7.75-9.1,9.33-14.69a.41.41,0,0,1,.78,0l1.79,7.15-.64-.28a46.45,46.45,0,0,0,14.17-13.29c11.33-16.21,15.21-36.94,13-56.37,3.14,19.43-.84,40.65-12.22,57a46.38,46.38,0,0,1-14.55,13.47.43.43,0,0,1-.59-.16.25.25,0,0,1,0-.12l-1.73-7.15h.78c-1.27,4.39-2.71,9-6,12.45-.5.64-4.44,3.71-4.33,2.24,6.72-21.93,9.82-45.44,10-68.07Z"/><path class="cls-10" d="M160.06,69.2c-1.68,14.24-5.53,28.67-13.38,40.83,0,0-.12,0-.09,0,3-6.54,5.89-13.09,8.29-19.87s3.91-14.22,5.18-20.91Z"/><path class="cls-10" d="M179.86,49.41c15.82,5.71,28.75,21,29.61,38.15,0,0-.09.07-.1,0-2.8-16.83-13.88-31.73-29.51-38.16Z"/><path class="cls-10" d="M170,25.9c10.05,1.53,18.74,7.85,25.54,15.14,13.74,15.09,19.33,35.77,20.7,55.72a253.33,253.33,0,0,1,0,30.18c-.4-20-.18-40.4-6.5-59.57C203.7,48.81,189.78,30,170,25.9Z"/><path class="cls-10" d="M77.84,279.77c-1.52-26.9-4.49-80.9-5.92-107.79-1.5-29.19-2.19-58.57,1.23-87.66C73.64,79.85,74.28,75.39,75,71l1.16-6.65c-10,61.55,0,152.8,1.67,215.47Z"/><path class="cls-10" d="M219.21,96.85a11.08,11.08,0,0,1,13.89,6.72c.89,2.77.61,5.67.57,8.45l-.23,8.43c-.24,7-.16,14.07-.81,21.09-.29,2.1-1.1,4.57-3.21,5.53-1.86.93-5.27.18-5.23-2.23.44,2.17,3.23,2.64,5,1.71,3.06-1.89,2.63-6.11,2.77-9.28.22-8.12.75-17.11,1.08-25.27.09-2.8.4-5.64-.4-8.28-1.68-5.57-8.17-8.4-13.41-6.87Z"/><path class="cls-10" d="M72.59,99.62a10.78,10.78,0,0,0-13.38,6.77c-.81,2.64-.5,5.48-.4,8.28.33,8.18.86,17.14,1.07,25.27.14,3.17-.28,7.39,2.78,9.28,1.75.93,4.53.46,5-1.71,0,2.41-3.37,3.16-5.23,2.23-2.11-1-2.93-3.43-3.21-5.53-.81-9.6-.67-19.86-1-29.52,0-2.78-.32-5.68.57-8.45,1.71-5.5,9-8.93,13.86-6.62Z"/><path class="cls-10" d="M82.42,114.64c-.61,11.35-.65,23,1.69,34.13,1.12,4.47,4,8.17,6.58,11.87,4,5.57,8.21,11,13.55,15.33a101.36,101.36,0,0,0,11.23,7.81c7.76,4.78,15.42,9.91,23.91,13.27,6.29,2.17,13.23,4.41,19.76,1.9a61.24,61.24,0,0,0,6.29-2.6c4.35-1.48,8.09-4,11.79-6.73s7.41-5.34,10.94-8.22c10.51-8.71,18.1-20.66,23.56-33.1a108.62,108.62,0,0,0,4.66-12.94,83.88,83.88,0,0,1-4.23,13.12c-5.36,12.63-12.8,24.75-23.36,33.69-3.56,2.9-7.25,5.63-11,8.27s-7.55,5.33-12,6.81c-4.11,1.87-8.54,3.82-13.29,3.74s-9.07-1.67-13.45-3.19c-8.55-3.45-16.19-8.63-24-13.47a104.48,104.48,0,0,1-11.25-7.92c-5.35-4.37-9.6-9.88-13.54-15.51-2.61-3.75-5.46-7.52-6.56-12-1.52-6.72-1.69-13.65-1.87-20.51,0-4.47-.12-9.57.51-13.71Z"/><path class="cls-10" d="M128.63,19.19C104.92,32.25,91.44,58.29,85.79,84c-2,8.67-2.72,17.67-3.8,26.47a157,157,0,0,1,2.82-26.68c5.69-25.62,20-52.32,43.82-64.55Z"/><path class="cls-10" d="M102.66,76.33C88.05,80.49,83.4,96.88,82,110.37a.05.05,0,0,1-.1,0c-.7-13.73,6.36-30.93,20.72-34Z"/><path class="cls-10" d="M81.52,114.4c-1,18.35-3.25,38.46-1.19,56.7,2.68,31.47,3.35,63.1,3.09,94.68a.05.05,0,0,1-.1,0C82.8,241,82,214.88,80.83,190.05c-.46-12.62-2.22-25.19-1.94-37.84.13-6.33.67-12.63,1.13-18.93.1,0,1.24-19.21,1.5-18.88Z"/><path class="cls-10" d="M154.05,131.46c.09,2.35-.1,4.67-.06,7-.36,2.46,1.42,4.31,3.11,5.82s3.75,3,4.7,5.24c1.15,2.25.71,5.3-1.74,6.48a18.29,18.29,0,0,1-6.79,2.26c-2.46.21-4.54-1.53-6.74-2-1.06-.21-2.24-.15-3.47-.41-2.93-.44-3.31-3.73-2.81-6.13.19-1.25,2.17-2.17,2.86-.83a0,0,0,1,1-.09,0c-.7-1-2.23-.17-2.3.91-.21,1.94.07,4.89,2.52,5.12,1.06.18,2.24.07,3.48.3,2.36.44,4.15,2.18,6.52,2.09a17.26,17.26,0,0,0,6.46-2c2.19-1,2.54-3.58,1.58-5.61s-2.73-3.6-4.43-5.2c-1.23-1.22-2.61-2.56-3-4.33-.25-2.91.16-5.85.08-8.75,0-.06.09-.08.09,0Z"/><path class="cls-10" d="M169.63,34.45c-5.9-9.41-12.86-20-24.37-22.65-6.7-1.44-13.66-.86-20.44-.38A63,63,0,0,0,87.63,26.86c-13.81,11.24-15,18.69-15.17,35.81-.56,22.85-.49,45.73.42,68.57.1,4.57.45,9.24.52,13.76-.47-4.5-.66-9.17-1-13.74-1.25-22.85-1.64-45.74-1-68.62.28-17.32,1.65-25,15.69-36.34a63.69,63.69,0,0,1,37.61-15.38c6.83-.43,13.82-1,20.57.54,11.43,2.7,18.92,13.66,24.29,23Z"/><path class="cls-10" d="M148.83,15.05a8.23,8.23,0,0,1,5.06-8.37c3.35-1.31,6.92.09,10.29.61A117.72,117.72,0,0,1,184,13.39c6.4,2.68,12.77,5.6,18.31,9.86s10.1,10.51,10.2,17.58c-.93-6.88-5.24-12.78-10.81-16.8-11.2-7.94-24.31-13.09-37.64-16.25-3.28-.56-6.8-2-10.07-.82A8,8,0,0,0,148.93,15c0,.06-.09.08-.1,0Z"/><path class="cls-10" d="M231.21,280.52c-1.48-23.26-8.51-133.91-9.83-154.55-1.63-25.74-3-51.56-7.5-77-.83-5.1-1.88-10.15-3-15.2,0-.06.09-.08.1,0,5,20.06,7.51,40.65,9.28,61.22,3,41.61,8.58,142.88,10.92,185.53Z"/><path class="cls-10" d="M175.41,258.16c5.14.63,9.73,3.3,14.2,5.74a151,151,0,0,0,13.83,6.61c9.46,3.93,19.11,7.33,28.56,11.3.06,0,0,.12,0,.1a233.1,233.1,0,0,1-28.85-10.66c-4.69-2.09-9.3-4.37-13.76-6.91s-8.86-5.31-14-6.09c-.07,0-.05-.11,0-.09Z"/></g></g><g id="torso_armscrossed1"><g id="torso_crossed_colour"><path class="cls-11" d="M279.76,464.34c-.57-8.22-1.32-16.43-2.14-24.65q-2.81-27.58-7-55c-1.95-12.78-3.87-25.59-5.9-38.37a1,1,0,0,1-.05-.12c-.28-1.43-.53-2.86-.79-4.29h0a.7.7,0,0,1-1-.48c-2-8.93-3.61-17.95-5.17-27a.76.76,0,0,1-.39-.43c-2.21-6-3-11.41-4.65-17.58-1.15-4.33-2.26-9.56-4.15-13.61-1.69-3.62-3.55-7.69-6.91-10.06-2.17-1.52-4.72-2.4-7.08-3.58-3.93-1.95-7.9-3.81-11.84-5.74-2.91-1.42-10.13-3.8-12.45-4.55a1.33,1.33,0,0,0-1.28.25,107.86,107.86,0,0,1-20.55,13.32c-10.16,5.16-31.47,8.42-35.32,7.37-8.89-2.44-41-2.27-50.17-9.47-2.27-1.78-5.44-8.28-6.7-11a1.35,1.35,0,0,0-1.77-.67L89.19,261c-7.73,3.31-15.84,6.86-22.64,11.87-.59.43-7.09,10.55-7.39,11.25a185.29,185.29,0,0,0-8.26,22c-7.56,23.56-14.45,53.68-20,77.58-6,25.77-10.09,44.15-16.71,70.56-2.6,10.38-4.76,22-7.49,32.32C4.54,494.89,2.87,504.7,4,513.26s4.07,15.63,14.82,16.06c2.53.1,17.34-3.14,32.34-8C61.31,518,66.68,515,74.66,512a74.75,74.75,0,0,1,8.09-3.32c3.77-1.68,3-1.2,6.87-2.72.34-.13,2.26-.57,2.26-.57l1.43-.56s-.13,2.82-.12,3.42c.08,5.56-1.08,10-1.5,15.29S90.11,537.69,89,543c-.85,4.19-1.48,8.42-2.51,12.58a49,49,0,0,1-1.74,5.78,11.45,11.45,0,0,1-1.18,3.51,18.74,18.74,0,0,1-3.45,4.92,9,9,0,0,1-4,2c-1.41.41-3.07.39-4.32,1.27-1,.74,0,2.93.88,3.76,1.06,1,.6,1.2-.32,2.21a20.49,20.49,0,0,1-3.94,3.44,8.73,8.73,0,0,0-1.82,1.67c-1,1.19.05,2.14.17,3.49.14,1.61.5,2.41-.25,3.83-.34.64-4.8,5.25-3.33,5.65a9.67,9.67,0,0,0,4.83.25,34.8,34.8,0,0,0,4.58-1.9,1.36,1.36,0,0,1,1.85,1.69c-.29.78-.59,1.63-.87,2.42a1.36,1.36,0,0,0,1.83,1.69l.31-.1,3-.65q3.27-.72,6.53-1.49c4.7-1.1,9.38-2.25,14.07-3.39,8.69-2.13,14.51.57,23.28-1.17,2.31-.46,5.75-.92,8.09-1.19,1.33-.16,7.8-1.11,10-.95,15.46,1.1,64.55-5.92,79.62-2.33.88.21,11.51,3.84,22.22,6.59a1.36,1.36,0,0,0,1.66-1.62,9.41,9.41,0,0,1-.19-1.05c0-.07-.1-.54-.08-.6a5.68,5.68,0,0,1-.29-.77,4,4,0,0,0-.17-.75c0-.14,1.32-.09,1.37-.09a17,17,0,0,0,2,0,18.49,18.49,0,0,0,3.91-.74,7.33,7.33,0,0,0,2.18-1,5,5,0,0,0,1.68-2.44,1.21,1.21,0,0,0,.1-.56,5.18,5.18,0,0,0-.1-1.19c-.63-1.84-2.24-2.9-3.54-4.27a36.61,36.61,0,0,1-3.53-3.74,22.13,22.13,0,0,1-1.38-1.95,5.2,5.2,0,0,1-.82-2.16c.06-1.54,2.81-2.51,1.88-4.09-.55-.93-2.37-1.39-3.29-1.8s-2.61-1.21-1.72-2.35a6.39,6.39,0,0,1,1.37-1.33l-.53-.61c-1.68-1.28-3.86-1.27-5.73-2.23s-3.86-1.84-5.67-2.93a5.26,5.26,0,0,1-2.58-2.45,2.67,2.67,0,0,1,1-2.77,5.58,5.58,0,0,1,2.38-.89c.33-.1,1.44-.45,1.81-.58a.64.64,0,0,0,.42-.57,3.26,3.26,0,0,0,.07-.7v-.31c-.33-2.54-.75-5.06-1.28-7.57-.38-1.83-1.1-3.51-1.51-5.33-.24-1.06-1.23-2.73-1.65-4.47-.24-1-1.64-3.17-.65-2.89,1.44.42,6,1.81,7.18,2.18,2.27.71,4.72,1.4,7,2.06,10.77,3.12,10.67,3.94,23.41,6.7,2.28.5,8.29-.52,8.94-2.76a29,29,0,0,0,1.06-7.18c1.35-13.17,2.38-19.24,2.71-32.35C280.22,487.08,280.53,475.66,279.76,464.34ZM84.93,452l-11.3,27h0l3.24,1.07h0L76,481.68h0a128.41,128.41,0,0,1-14.93,1.37h0s-7.57-7-8.55-9.82c-3.72-10.79,24.29-74,30.63-97.4,2.09-7.71,5-14,6.92-21.77a59.77,59.77,0,0,1,3.76-9,.81.81,0,0,1,1.53.35c.06,2.79-.63,7.4-.68,8.66-.28,6.54.13,7.46-.09,14-.41,12.22.49,20.83,0,33.05-.55,15.25,1.34,37.77,1.22,53,0,1.53-10.89-2.17-10.92-2.18Zm161.9,33c-.06.42-1.12,2.51-1.53,2.45A132.2,132.2,0,0,1,227.62,483a1.82,1.82,0,0,1-.57-1c-.57-4.37,0-8.87-.56-13.24a1.38,1.38,0,0,0-.44-.85c-.31-.29-.41-.51-.26-.66a1.63,1.63,0,0,0,.31-.83c-.07-.28-.13-.56-.21-.84a.93.93,0,0,1,.27-1c-.12-3.64-1.28-9.74-1.42-11-1.26-11.59-1.66-21.91-2.89-33.5-1.18-11.13-2.29-22.26-3.54-33.38-1.27-11.43-1.77-20.88-2.55-32.36-.17-2.51-1.61-7.44.23-7.61,2.56-.23,5.31,7.54,5.76,9.22,5.61,21.22,19.35,84.07,23.37,110l-.07.06C245.61,469,247.25,482,246.83,485Z"/><path class="cls-12" d="M128.47,251.59c-3.53.32-8.3,1.74-7.23,3a9.26,9.26,0,0,0,4.8,2.74c8.25,2.17,13.38,4.77,23.08,4.41,9.33-.36,16.21-1,24.84-4.71,3.91-1.7,10-5.2,7.64-6-2.19-.73-9.67-1-9.67-1l-.37-1.24s6.69.34,8,.69c8.5,2.36,32.06,10.42,32.06,10.42s1.27,9.15-7.44,13.48c-8.9,4.43-25.54,9.9-39.32,11.09-9.29.8-45.88-.92-59-8.45-8.2-4.69-10.54-17.68-10.54-17.68s27.13-8.22,33.32-7.91Z"/><path class="cls-12" d="M188.56,466.38c-1.15,1.48-.61,6,.31,7.58s22.58,5,22.58,5-2.06-4.64-1.86-7a10.69,10.69,0,0,1,2.52-6.17s-6.14-2.44-10.24-2.18C196.53,464,190.71,463.63,188.56,466.38Z"/><path class="cls-12" d="M74.44,444.43c-6.15-1.2-15.7.05-15.7.05s-3,9.94-4.46,14.28-3.72,13.43-.44,15.91c2.59,1.95,8.95,5.41,14.87,8l.93-.15a16.08,16.08,0,0,1,3.51-.4l.76-.08c1.63-5.14,5.6-17.36,7.57-21.16a69.6,69.6,0,0,1,6.08-9.43S80.59,445.64,74.44,444.43Z"/><path class="cls-13" d="M79.69,458.15s-3.7,4.77-4.06,8.24c-.24.38-.81.21-1.2,0-4.15-2.17-9-4.22-13.31-6-2-.8-.86-3.37-.2-5.53,1-3.17.54-3.91,5.27-2,3.49,1.21,8.37,3.14,11.83,4.43A13.21,13.21,0,0,1,79.69,458.15Z"/><path class="cls-13" d="M58.27,471.12c.08-1.48.18-2.95.24-4.43.1-2.79.39-3.11,3-2.49a40,40,0,0,0,11.31,4.23c1.23.67,1.1.75.65,2.13a17.85,17.85,0,0,0-2.39,6.08c-.36,1.42.26,2.37-1.18,1.73-3.24-1.44-6.51-2.8-9.79-4.16A2.71,2.71,0,0,1,58.27,471.12Z"/><path class="cls-13" d="M69,446.62c1.22.44,2.81,1,4.42,1.59,3.22,1.11,6.51,2.6,9.77,3.62,1.91.6,1.47.42-.12,2l-2.86,2.86s-8.88-4.11-13-5.49c-.83-.27-2.9-.63-3-1.79a2.54,2.54,0,0,1,.72-2.38C65.76,446.38,67.32,446.54,69,446.62Z"/><path class="cls-14" d="M197.78,467c3.19.18,5.78,0,9,.25.81.06.84.34.9,1.59.05,1-.12,2.52-1.06,2.65-5.37.75-9.92.28-15.32.85-1.95.21-.76-1-.85-2-.1-1.16,0-1.81,2-2.5,2.59-.53,3.68-1,5.4-.74Z"/><path class="cls-14" d="M191.93,475.16c4.4-.57,9.46-1.19,13.87-1.73a1.77,1.77,0,0,1,2,1.76c-.2,4.42-.65,4.53-5.29,3.65a75.94,75.94,0,0,1-10.56-2.56C191.94,476,191.92,475.41,191.93,475.16Z"/><path class="cls-15" d="M251.38,630s-1.53-10.62-1.94-13.48c-.51-2.11-1-4.21-1.56-6.32s-1-4.16-1.57-6.24-1-4.4-1.45-6.61-1.16-4.45-1.67-6.77a7.74,7.74,0,0,0-.48-1.88c-.22-.32-.46-.11-.79-.2-1.12-.29-2.25-.57-3.38-.82q-3.36-.76-6.77-1.33c-4.51-.75-9.06-1.25-13.62-1.55s-9.13-.39-13.7-.34-9.18.23-13.76.51-9.2.64-13.79,1c-3.29.29-6.59.55-9.87.88-2,.19-4,.37-6,.52-4,.3-7.94.77-12,.76-4.31,0-9.42.83-13.74.73-6.87-.15-13-1-19.82-.61-3.22.18-6.79-.2-10-.1s-6.29-.2-9.63-.12c-4.71.11-9.71.79-13.82,3.08-2.81,1.57-8.59,2.8-8.59,2.8s-1.48,6.77-2,8.12a32.23,32.23,0,0,0-1.64,4.48c-.47,2.32-1.07,5-1.61,7.32-1.1,4.7-.88,8-1.94,12.71a31.53,31.53,0,0,0-.52,3.43Z"/><path class="cls-16" d="M155.1,365.47a15.66,15.66,0,0,0-12,5c-6.68,7.11-1.74,24.05,8.68,32.57a3.29,3.29,0,0,0,5.11-.07,29.87,29.87,0,0,0,11-25.1c-.23-3.89-2.45-8.81-5.83-10.76s-5.17-1.44-8.64-1.72"/></g><g id="torso_crosse_shading_dark"><path class="cls-13" d="M95.09,336c6.72-.47,8.85,43.67,9.25,50,.81,13.24,2.93,39.11,7.87,56.67,4,14.37,6.07,17.7,6.06,17.7L95.09,453Z"/><path class="cls-13" d="M86.24,559.06c-1.53,2.66,1.72,8,5.05,7.76,3-.17,2.49-20.38,3.17-23.15,3.74-15.28,4.1-18.49,7.3-31.25,1.71-6.78,15.44-11,22.24-15.21-.28.18-30.5,8-30.5,8,.49.05-2.85,32.27-5.62,42.68C87.16,550.61,86.4,558.77,86.24,559.06Z"/><path class="cls-13" d="M81.57,485c7,4.36,13.56,9.5,20.11,14.47a.83.83,0,0,1,.26,1q1,.79,1.92,1.62c1.54-.43,3.09-.9,4.55-1.42a101.21,101.21,0,0,1,15.39-3.93s-41.49-15.64-44.34-15.17l-.23,0c.66,1,1.32,2.09,2,3.14Z"/><path class="cls-13" d="M69.85,297c-.58-4.84-1.73-11.61-5.56-14.86C56.7,297.36,53,316.18,48.07,332.51q-7.82,25.68-15,51.53-9.9,35.64-18.61,71.59c-.87,3.57-8.39,32.81-5.76,32.76,4.89-.11,4.47-16.05,4.93-19.34.94-6.72,3.29-15.39,6.12-24.77s10-4.37,13.64-16,14.12-46.12,17.84-56.46S70.58,303.07,69.85,297Z"/><path class="cls-13" d="M219.61,344.48c6.91,7.53,12.73,40.54,14.9,49.22,3,12,9.45,34.31,10.37,41s9,34,9.92,40.83,4.75,16.92,4.75,16.92l-20.28-6.74s11.3,1.94,4.59-21.53c-11.19-39.17-24.72-115.54-26.4-117.74"/><path class="cls-17" d="M94,630s-.34-27.55-1.15-41.58c-3.17.35-6.32.76-9.47,1.22-.3.17-9.45,3.89-9.45,3.89s-2.4,6.35-2.88,8.53c-1.27,5.72-2.2,7.45-3.12,13.23-.78,4.94-1,10-2.16,14.71C66.27,630,94,630,94,630Z"/></g><g id="torso_crosse_shading_light"><path class="cls-18" d="M279.76,480.06c-.69-22.39-3.24-44.91-5.84-66.9-.71-6.06-1.5-12.11-2.3-18.16-.53-2.69-1.05-5.39-1.58-8.09-2.41-12.22-4.87-24.44-7.19-36.69-.86-4.57-1.78-9.15-2.48-13.75-1.39-5.93-2.65-11.89-3.67-17.9-1.19-7-3-13.84-4.46-20.77-2.86-10-4.38-15.21-7.05-19.71-3.23-5.43-6.74-5.84-10.78-8.11-4.63-2.6-19.39-8.62-19.39-8.62s18.08,17,22.61,21.43c6.68,6.56,10.2,19,12.42,31,4.39,23.71,7.36,36.85,12.49,60.21,4.35,19.83,5.53,39.31,6.2,59.51,1,31,5.78,62.16,3,93.15a2.34,2.34,0,0,1-.29.95c.31,3.22.63,6.43,1,9.64a1.54,1.54,0,0,1-.37,1.15c1.53,2.56,2.94.3,4.26-.31.42-.19,1-2.58,1.53-6.28a1.46,1.46,0,0,1-.21-.91A341.17,341.17,0,0,0,279.76,480.06Z"/><path class="cls-18" d="M88.32,459C107,458,163,479.48,177.17,484.54c9.09,3.24,61,16.32,72.89,20.31s14.47-1,12-6.69-84-29-94.74-29.34-71.26-15-76.2-15.15S88.32,459,88.32,459Z"/><path class="cls-18" d="M202.89,395.71c-1,8.68-.41,24.11.43,29.76s4.31,38.32,4.31,38.32l6.14,5.3s7.66-6,9.08-10.36-8.5-109.46-8.5-109.46-5.65,13.8-7.12,16.68C204.65,371,204.24,384.42,202.89,395.71Z"/><path class="cls-18" d="M90.59,329.51c6,0-2.47,3.56-4.27,13.91s-17.67,64.57-19,69.13-6.75,23.05-8.93,24.63-4.6,9-7.21,8.31-4,1.44-4.3-5.44,5.23-14.86,5.2-21.06,10.62-31.92,11.6-36.09S78.33,346.7,82.31,339C83.35,337,85.81,329.49,90.59,329.51Z"/><path class="cls-19" d="M246.32,630S237.2,592.86,235,589.56c-.77-1.16-1.5-2.27-2.22-3.34a142.06,142.06,0,0,0-22.7-2.25c-.89,1.64-1.83,3.48-2.81,5.59-4.52,9.71-2.75,24.21,1.42,40.44C212.45,629.88,246.32,630,246.32,630Z"/></g><g id="torso_crossed_skin"><path class="cls-10" d="M239.11,485.59a4.72,4.72,0,0,0,3.82-.8,6.25,6.25,0,0,0,2.23-3.26,7.78,7.78,0,0,0,.17-4l-.68-4q-1.4-8-2.94-16c-2.05-10.65-4.21-21.28-6.4-31.91l-6.66-31.85c-2.27-10.62-4.18-21.3-7.06-31.74-.72-2.61-1.49-5.21-2.32-7.78l-.63-1.93a14.18,14.18,0,0,0-.68-1.87,7.3,7.3,0,0,0-2.24-3,2.2,2.2,0,0,0-.76-.33c-.12,0-.14,0-.13,0l.11,1.84.25,4.06.51,8.12q1.08,16.23,2.39,32.45c1.73,21.62,3.86,43.21,6.23,64.78h-.1q-4.36-32.25-7.12-64.71-1.4-16.21-2.38-32.47l-.48-8.12L214,349l-.12-2.22c0-.16,0-.3,0-.46v-.11s.07,0,.1,0l.23,0,.46,0a2.42,2.42,0,0,1,.43,0,2.88,2.88,0,0,1,1.09.46,8.14,8.14,0,0,1,2.55,3.42,20.07,20.07,0,0,1,.7,2l.62,1.94q1.21,3.88,2.28,7.83c2.86,10.49,4.72,21.2,6.93,31.81l6.5,31.9c2.13,10.63,4.23,21.28,6.22,31.94q1.5,8,2.85,16l.65,4a8.1,8.1,0,0,1-.2,4.06,6.42,6.42,0,0,1-2.31,3.31,4.86,4.86,0,0,1-3.91.8Z"/><path class="cls-10" d="M280.06,469.3l-5-45.09-2.5-22.55q-1.17-11.28-3.23-22.43c-1.5-7.42-2.54-14.93-3.71-22.39s-2.67-14.86-4.12-22.28-3.07-14.8-4.84-22.14-3.7-14.66-5.63-22l.1,0c2.19,7.24,4.3,14.5,6.21,21.83s3.59,14.7,5.14,22.11,3.05,14.83,4.12,22.33,2.07,15,3.52,22.4,2.36,15,3.09,22.49l2.34,22.57,4.63,45.14Z"/><path class="cls-3" d="M281.74,458.54c-1.92-1.16-3.23-2.17-3.38-2.19-5.28-.7-8.23-1.31-13.75-1.3a31.5,31.5,0,0,1-8.27-.78c-.86-.2-5.68-2.71-5.68-2.71l6.48-1c5.18-.8,7.26-1.73,12.45-1.79s9.08.11,14.62.39c4.21.21,7.48,1.48,12.09,2.31.39.07,1.78.7,2,.65a3.47,3.47,0,0,0,.46-.13h0l0,0,.16-.09.19-.12a1.37,1.37,0,0,1,.17-.19,1.76,1.76,0,0,1,.12-.2l0-.1c0-.07,0-.15.06-.23s0-.22,0-.33l0-.35,0-.21a5.83,5.83,0,0,0-.25-.81l0-.1,0,0c-2.88-2-5.66-4.56-9.06-5.57a45,45,0,0,0-6.89-1.49c-3.23-.38-6-.66-9.27-.79a81.52,81.52,0,0,0-10,.52c-3.14.27-7.39,1.1-7.39,1.1a32.31,32.31,0,0,0,3.25-2c3.62-3.09,7.78-6.51,12-8.72s7.53-3.68,12.28-3.42c3.57.2,5.67,1.87,9.14,1,.95-.24,2.79-.63,3.41-1.39.83-1,1.5-2.51.93-2.67-2.68-.74-6.29-1.91-9.23-2.68-4.66-1.22-9.38-2.24-13.88-.5-6.86,2.67-10.82,9.84-16.88,14-.66.46-8.1,4.66-8.1,4.66s8-10.52,16.24-22.33a36.73,36.73,0,0,0,5.54-14c.27-1.83.37-5.73-.28-7.39-.54-1.38-1.9-3.05-2.49-2.21a17.75,17.75,0,0,1-1.84,3.6c-.63.88-1.51,2.9-2.13,3.78-1.19,1.7-2,4-3.23,5.72-2.39,3.4-15.78,24.46-15.78,24.46s-1.27.14-1-1.75c.55-4.11,2.71-12.63,1.57-16.43-.22-.75-3.09-6.9-4.06-5.45-2.48,3.74-4.39,19.49-5.54,23.08-4,12.46-6.84,23.89-15.78,32.31-2.62,2.46-11.94,6.19-11.94,6.19s1.68,6.93,2.27,7.45a1.4,1.4,0,0,0,.81.5c3.23.73,6.15,1.54,9.38,2.27,3.81.86,12.4,3.07,12.4,3.07s7.81-2.16,11.44-5.29c3.91-3.36,7-7.67,11-10.83a19.85,19.85,0,0,1,10.75-4.15,31.63,31.63,0,0,1,14.14,1.5c2.49.94,1.55,1.05,4.16,1.62.31.06,2,.81,2.19.59a3.69,3.69,0,0,0,.7-2C286.43,462.62,285.12,460.57,281.74,458.54Z"/><path class="cls-3" d="M55.16,449.07l-18.64-2.29h0a3.76,3.76,0,0,0-4,3.93l1.21,24.09L35.43,488,59,482.86l1.09-1.42L42.08,465s7.63-.54,8.39-.1,2.73-10.47,2.73-10.47Z"/></g><g id="torso_crossed_outline"><path class="cls-10" d="M95.46,454.79c-.81-18-1.47-36-1.74-54q-.21-13.53-.22-27c-.13-9,.66-18,.84-27l0-1.55V345s0-.06,0,0a.31.31,0,0,0-.16.1,11.41,11.41,0,0,0-1.65,2.77,54.8,54.8,0,0,0-2.31,6.28q-2,6.47-4,12.91Q82,379.93,77.45,392.67t-9.27,25.4l-4.74,12.66c-1.57,4.22-3.21,8.42-4.63,12.7l-.1,0c1.29-4.33,2.83-8.57,4.3-12.82l4.51-12.75,9-25.49c3-8.51,5.89-17,8.71-25.59q2.11-6.4,4.13-12.86a52.78,52.78,0,0,1,2.4-6.38,11.74,11.74,0,0,1,1.83-3,1.71,1.71,0,0,1,1.16-.57,1.5,1.5,0,0,1,.3,0l.08.26a2,2,0,0,1,.06.28v.37l0,1.84c-.22,9-1.06,18-1,27s0,18,0,27c.15,18,.68,36,1.35,54.05Z"/><path class="cls-10" d="M267.37,396.69a2.93,2.93,0,0,1,.94-1.51,4.62,4.62,0,0,1,.4-.29c.14,0,.29.16.42.22a6.36,6.36,0,0,1,.7.56,6.82,6.82,0,0,1,1.73,3.1,15,15,0,0,1-.05,7.07A43.69,43.69,0,0,1,266.33,419a97.25,97.25,0,0,1-8,11.67c-2.92,3.69-5.86,7.35-8.94,10.91l-.08-.07c2.64-3.89,5.42-7.68,8.22-11.44s5.66-7.48,8.08-11.48A43.84,43.84,0,0,0,271,405.73a14.71,14.71,0,0,0,.24-6.88,6.57,6.57,0,0,0-1.59-3,4.93,4.93,0,0,0-.65-.56c-.11-.06-.2-.19-.31-.18a2.58,2.58,0,0,0-.31.22,2.78,2.78,0,0,0-.94,1.41Z"/><path class="cls-10" d="M258.84,442.42c3.27-2.51,6.33-5.29,9.59-7.82a48.68,48.68,0,0,1,5.06-3.59,17,17,0,0,1,5.85-2.16,24.54,24.54,0,0,1,6.23-.21c1,.08,2.07.21,3.1.37s2,.36,3,.44a7.5,7.5,0,0,0,2.92-.25,4.3,4.3,0,0,0,2.23-1.69,3.16,3.16,0,0,0,.29-.62,1.78,1.78,0,0,0,.09-.33l0-.16v-.06c0-.1,0-.09-.15-.11l-.77-.17c-1-.25-2-.52-3-.83-4-1.2-7.82-2.73-11.85-3.1a15.57,15.57,0,0,0-5.93.52,19.87,19.87,0,0,0-5.41,2.61c-3.39,2.25-6.22,5.25-9.18,8.13s-6.17,5.68-10.05,7.21l0-.09c3.74-1.78,6.74-4.67,9.59-7.62s5.65-6.07,9.12-8.46a20.08,20.08,0,0,1,5.67-2.78,16.29,16.29,0,0,1,6.32-.51c4.23.46,8.1,2.09,12,3.33,1,.31,2,.59,3,.84l.74.18.62.14c.05,0,.12,0,.15.05v.5a1.72,1.72,0,0,1,0,.32c0,.07,0,.14,0,.21a2.9,2.9,0,0,1-.12.42,3.25,3.25,0,0,1-.38.77,5,5,0,0,1-2.62,2,7.92,7.92,0,0,1-3.2.24c-1-.1-2.07-.31-3.08-.48s-2-.31-3-.41a24.48,24.48,0,0,0-6.11.13,16.61,16.61,0,0,0-5.73,2,49.58,49.58,0,0,0-5.07,3.49c-3.3,2.47-6.4,5.2-9.72,7.66Z"/><path class="cls-10" d="M242,409c-2.92,7.27-2.61,15.28-5.09,22.77-1.16,3.74-2.45,7.4-3.81,11.05s-2.81,7.26-4.39,10.83l-.1,0c1.07-3.75,2.29-7.45,3.55-11.13s2.73-7.29,4-11a75.5,75.5,0,0,0,2.67-11.3A49.33,49.33,0,0,1,241.88,409Z"/><path class="cls-10" d="M242.3,410.72l-.07-.86,0-.46,0-.23v-.12c0-.06.05,0,.07,0,.24.17.51.34.74.54a7,7,0,0,1,.66.58,9.19,9.19,0,0,1,1.81,2.64,16.8,16.8,0,0,1,1.38,6.24,25.67,25.67,0,0,1-.33,6.37,22.29,22.29,0,0,1-2.07,6l-.09,0c.47-2.06.9-4.09,1.17-6.15a47.27,47.27,0,0,0,.53-6.18,16.84,16.84,0,0,0-1-6.06,8.91,8.91,0,0,0-1.58-2.63,4.71,4.71,0,0,0-.49-.5c-.14-.15-.32-.27-.49-.42s-.06,0-.05.06v1.18Z"/><path class="cls-10" d="M242.09,437.44Q249,427.38,255.38,417l6.28-10.42,6.33-10.4.09.05a119.37,119.37,0,0,1-5.56,10.86c-2,3.54-4.24,6.94-6.46,10.34q-6.66,10.21-13.89,20Z"/><path class="cls-10" d="M287,467.84a51.06,51.06,0,0,0-14.62-3.91,28.59,28.59,0,0,0-7.51.2,18.35,18.35,0,0,0-6.92,2.65c-4.25,2.69-6.45,7.55-10.39,11a29.59,29.59,0,0,1-13.82,6.43l0-.1a34.75,34.75,0,0,0,7-2.83,30.29,30.29,0,0,0,6.17-4.24,56.66,56.66,0,0,0,5-5.66,22.79,22.79,0,0,1,5.64-5.26,18.63,18.63,0,0,1,7.25-2.62,28.56,28.56,0,0,1,7.67-.05,50.51,50.51,0,0,1,14.61,4.31Z"/><path class="cls-10" d="M251.34,452c4.06,1.88,8.56,2.19,13,2.48,2.22.14,4.45.21,6.66.46s4.42.55,6.61,1v.1c-2.24.09-4.46,0-6.69-.11s-4.43-.42-6.64-.66c-4.4-.46-9-1-12.94-3.19Z"/><path class="cls-10" d="M252.45,443.72a80.26,80.26,0,0,1,24.9-2.29c2.09.14,4.18.36,6.25.66a35.42,35.42,0,0,1,6.17,1.36,26.58,26.58,0,0,1,5.73,2.71,25.7,25.7,0,0,1,2.57,1.85,5.55,5.55,0,0,1,1.18,1.19,2,2,0,0,1,.3,1.85,1.58,1.58,0,0,1-.63.79,2.37,2.37,0,0,1-.88.33,4.88,4.88,0,0,1-1.71-.05c-1.1-.25-2-.57-3.05-.83-2-.55-4-1-6.06-1.41a55,55,0,0,0-12.37-.72c-4.15.18-8.29.67-12.44,1.14s-8.3.92-12.46,1.33l0-.1q6.19-1,12.39-1.93c4.13-.61,8.28-1.19,12.48-1.44a49.81,49.81,0,0,1,12.6.75c2.07.4,4.11.93,6.12,1.51,1,.28,2,.64,3,.87s2.08.17,2.32-.54a1.17,1.17,0,0,0-.21-1.11,5.2,5.2,0,0,0-1-1,24.81,24.81,0,0,0-2.49-1.82,25.37,25.37,0,0,0-5.54-2.7,35.36,35.36,0,0,0-6-1.42q-3.09-.48-6.2-.74a80.87,80.87,0,0,0-24.85,1.9Z"/><path class="cls-10" d="M288,465.35a32.29,32.29,0,0,0-5.16-5c-.95-.74-2-1.38-2.9-2.12s-1.9-1.46-2.83-2.28l0-.09a13.61,13.61,0,0,1,3.35,1.55,18.23,18.23,0,0,1,2.85,2.33,27.4,27.4,0,0,1,4.72,5.59Z"/><path class="cls-10" d="M286.62,463.27a4.57,4.57,0,0,1,1.89,2.37,1.89,1.89,0,0,1-.32,1.72,1.28,1.28,0,0,1-1.64.39v-.1a1.58,1.58,0,0,0,.81-.86,2.58,2.58,0,0,0,.35-1,5,5,0,0,0-1.18-2.43Z"/><path class="cls-10" d="M55.3,449.16l-15-1.69L36.53,447l-.94-.11a.55.55,0,0,0-.17,0,.41.41,0,0,0-.16,0,2.58,2.58,0,0,0-.38.18,8.51,8.51,0,0,0-1.48,1,3.29,3.29,0,0,0-.77,1.5,6.86,6.86,0,0,0-.28,1.75l.1,3.77c.19,5,.65,10,1.15,15s1.07,10,1.61,15h-.1q-1.55-7.41-2.5-14.92a138.86,138.86,0,0,1-1-15.12l0-3.78a7.32,7.32,0,0,1,.35-2,3.81,3.81,0,0,1,1-1.79,9.27,9.27,0,0,1,1.63-1.09,4.32,4.32,0,0,1,.48-.21,1.13,1.13,0,0,1,.3-.06,1.19,1.19,0,0,1,.3,0l.93.13,3.74.54,15,2.08Z"/><path class="cls-10" d="M58.52,483.22A3.09,3.09,0,0,0,60,481.77l0-.1-.09-.07-.17-.13-.43-.35-.85-.69c-1.14-.93-2.26-1.88-3.37-2.83q-3.35-2.88-6.54-5.91-1.61-1.5-3.18-3l-1.55-1.57-.76-.8-1.29-1.39-.17-.2c-.07,0,0,0,0,0l.14,0,.53-.08,1.05-.14c.48-.06.77-.09,1.17-.12a16.72,16.72,0,0,1,2.24-.05,15.6,15.6,0,0,1,4.35,1l0,.09a21.88,21.88,0,0,0-4.32-.34c-.72,0-1.43.11-2.14.21l-1,.17s-.05,0,0,0l0,0h0l.18.19.76.79,1.5,1.59c1,1.07,2,2.13,3,3.17q3.09,3.12,6.3,6.11c1.08,1,2.15,2,3.25,3l.82.73.41.36.25.22.12.11a1,1,0,0,1-.07.15,3.14,3.14,0,0,1-1.64,1.54Z"/><path class="cls-10" d="M57.06,476.86a31.47,31.47,0,0,1-4.19-2.09A5,5,0,0,1,51.24,473a5.32,5.32,0,0,1-.55-2.34,57.23,57.23,0,0,1,.73-9.35c.24-1.55.5-3.1.88-4.63a32.14,32.14,0,0,1,1.5-4.47c.59-1.45,1.25-2.88,1.88-4.28s1.11-2.9,1.82-4.3l.09,0c-.45,1.49-.77,3-1.25,4.51s-1.08,2.93-1.61,4.39-1.06,2.9-1.48,4.36-.75,3-1,4.51a59.55,59.55,0,0,0-1,9.21,4.86,4.86,0,0,0,.42,2.17,4.7,4.7,0,0,0,1.45,1.69,31.92,31.92,0,0,0,4.06,2.25Z"/><path class="cls-10" d="M57.29,443.7c5.23.14,10.45-.65,15.75,0a20.73,20.73,0,0,1,7.58,2.46,14.28,14.28,0,0,1,5.69,5.5l-.09.06A18.89,18.89,0,0,0,80.15,447a25.72,25.72,0,0,0-7.23-2.54c-5.11-.79-10.41-.24-15.63-.67Z"/><path class="cls-10" d="M75.48,479.72a2.55,2.55,0,0,1-1.59,1.61,2.19,2.19,0,0,1-.62.13c-.12,0-.23,0-.34,0s-.3,0-.23-.12.08-.44.13-.68l.11-.56c.29-1.49.64-3,1-4.44a71.4,71.4,0,0,1,2.9-8.65,57.17,57.17,0,0,1,4-8.22,48.11,48.11,0,0,1,5.39-7.36l.08.06c-1.6,2.59-3.16,5.16-4.61,7.8s-2.88,5.28-4.11,8a74.25,74.25,0,0,0-3.17,8.47c-.44,1.44-.85,2.9-1.2,4.37l-.24,1c-.06.1.07.07.13.09h.21a2.05,2.05,0,0,0,.49-.09,2.43,2.43,0,0,0,1.56-1.44Z"/><path class="cls-10" d="M69.93,478.5a19.76,19.76,0,0,1,.22-4.67,8.79,8.79,0,0,1,1.95-4.27c.14-.14.07-.49-.07-.66a2.38,2.38,0,0,0-.8-.39l-1.86-.72-3.72-1.44-7.44-2.91-.37-.14-.08,0c-.07,0-.06,0-.06.09l-.11,1.41c-.06,1.05-.09,2.09-.09,3.14s0,2.1.08,3.11a1.35,1.35,0,0,0,.43,1.05,10.68,10.68,0,0,0,1.27.75c3.69,2,7.49,3.79,11.36,5.48l0,.1a69.76,69.76,0,0,1-11.8-4.7,8.69,8.69,0,0,1-1.46-.84,1.93,1.93,0,0,1-.61-.84,2.91,2.91,0,0,1-.19-.92c-.06-1.09-.07-2.14,0-3.21s.09-2.13.19-3.19l.19-1.73.09-.71,0-.17a1.42,1.42,0,0,1,.16.05l.33.14,1,.42,7.37,3.08,3.68,1.54,1.84.77a2.72,2.72,0,0,1,1,.53,1.19,1.19,0,0,1,.22.58.77.77,0,0,1-.18.62,8.45,8.45,0,0,0-2,4.06A19.28,19.28,0,0,0,70,478.5Z"/><path class="cls-10" d="M73.93,466.09a14.57,14.57,0,0,1,.8-3.25,13.3,13.3,0,0,1,1.58-2.95q.48-.69,1-1.35l.46-.59.16-.2c.06,0,0-.05,0-.07l-.12,0-3-1.09L62.25,452c-.49-.17-1.35-.52-1.24-.38l-1.79,7.26L62,460.07c4,1.84,8.07,3.71,12,5.74l0,.09c-4.17-1.52-8.29-3.2-12.38-4.91L60,460.33l-.78-.34-.4-.17a.93.93,0,0,1-.66-1,1.14,1.14,0,0,1,0-.23l0-.13.13-.49.26-1,.53-2,.53-1.95.27-1,.14-.49a1.38,1.38,0,0,1,.31-.67.89.89,0,0,1,.75-.21,2.43,2.43,0,0,1,.53.16l.84.33,12.39,4.87,3.24,1.28.26.1c.08,0,.23.06.1.15l-.37.44-.58.7c-.35.43-.69.86-1,1.31a13.36,13.36,0,0,0-2.53,6Z"/><path class="cls-10" d="M79.18,456.54a5,5,0,0,1,1.56-2.9,7.18,7.18,0,0,1,1.39-.93l.37-.19.27-.12.51-.23-7.72-2.9-4-1.54-2-.77a4.61,4.61,0,0,0-1.9-.49c-1.08.15-2.1-.12-3,0-.26,0-.59.35-.88.7a6.6,6.6,0,0,0-.73,1.14c0,.07,0,.09.06.22a1.61,1.61,0,0,0,.41.34,3.23,3.23,0,0,0,.57.26l.72.22c1,.32,1.9.64,2.84,1a64.52,64.52,0,0,1,10.79,5.27l0,.09c-3.66-1.61-7.34-3.12-11.09-4.42l-2.82-.95-.71-.23a3.35,3.35,0,0,1-.79-.37,2.28,2.28,0,0,1-.7-.63,1.19,1.19,0,0,1-.15-1.19,6.81,6.81,0,0,1,.92-1.35,3.66,3.66,0,0,1,.59-.59,2.13,2.13,0,0,1,.4-.26,1.2,1.2,0,0,1,.51-.13c1.12-.11,2.08.19,3,.07a5.12,5.12,0,0,1,2.25.59l2,.82,4,1.64,8.37,3.45-1,.4-.5.21-.37.17a6.84,6.84,0,0,0-1.37.85,4.86,4.86,0,0,0-1.6,2.76Z"/><path class="cls-10" d="M66.55,481.61c-2.37-.9-4.7-1.92-7-3a35.85,35.85,0,0,1-3.41-1.67A25,25,0,0,1,53,474.79l0-.09a22,22,0,0,1,3.58,1.35c1.15.53,2.21,1.21,3.31,1.84,2.2,1.24,4.41,2.47,6.66,3.63Z"/><path class="cls-10" d="M264.82,495.14A130.35,130.35,0,0,0,243.2,487c-7.41-2.15-14.93-3.88-22.45-5.63q-22.55-5.24-45.17-10.18c-15.08-3.28-30.19-6.38-45.3-9.56L85,452.2l0-.1q22.83,3.94,45.52,8.56c15.13,3,30.21,6.37,45.27,9.76s30.1,6.87,45.11,10.49c7.5,1.8,15,3.59,22.42,5.8a131.32,131.32,0,0,1,21.58,8.34Z"/><path class="cls-10" d="M229.24,452a28.92,28.92,0,0,1-7.87,12.29,23.52,23.52,0,0,1-6.1,4.2c-1.13.51-2.32.91-3.47,1.3s-2.31.76-3.49,1.09l0-.09c1.08-.58,2.18-1.13,3.29-1.66s2.2-1,3.27-1.54a32.8,32.8,0,0,0,6-3.9A29.78,29.78,0,0,0,229.14,452Z"/><path class="cls-10" d="M211,478.35a19.61,19.61,0,0,1-2.66-9.11,9,9,0,0,1,.29-2.46,5.52,5.52,0,0,1,.49-1.2,2.07,2.07,0,0,1,.5-.59,1.26,1.26,0,0,1,.91-.28,1.72,1.72,0,0,1,1.21,1,9.35,9.35,0,0,1,.56,1.09,7.72,7.72,0,0,1,.62,2.34l-.1,0a16.74,16.74,0,0,0-1.14-2c-.21-.32-.43-.62-.66-.92s-.48-.49-.58-.46-.26.12-.43.41a5.67,5.67,0,0,0-.43,1,7.89,7.89,0,0,0-.44,2.19,20.74,20.74,0,0,0,1.95,9Z"/><path class="cls-10" d="M187.36,472.91a15.41,15.41,0,0,1-.88-3.81,7.37,7.37,0,0,1,0-2,3.06,3.06,0,0,1,1-1.81,8.82,8.82,0,0,1,3.72-1.42c1.28-.29,2.57-.54,3.86-.73a31.42,31.42,0,0,1,7.87-.29,29.69,29.69,0,0,1,7.63,1.81l0,.1a70,70,0,0,0-7.69-.91,48.17,48.17,0,0,0-7.69.08c-1.28.15-2.55.34-3.82.58a8.56,8.56,0,0,0-3.55,1.16c-1,.74-1.09,2.14-1,3.4a15.47,15.47,0,0,0,.67,3.8Z"/><path class="cls-10" d="M170.58,469.94q3.73-.72,7.47-1.37c1.24-.22,2.48-.5,3.74-.61a24.31,24.31,0,0,1,3.82-.06v.1a24.09,24.09,0,0,1-3.69.95c-1.25.24-2.51.3-3.77.42q-3.78.38-7.56.67Z"/><path class="cls-10" d="M279.93,465.23a290.79,290.79,0,0,1-.28,46.94C279,520,278.2,527.78,277,535.52l-.22,1.45-.12.72c0,.13,0,.22-.07.39s-.11.33-.18.47a4.72,4.72,0,0,1-2.7,1.74,15.9,15.9,0,0,1-6,.44,36.38,36.38,0,0,1-11.32-3.22l0-.09A40.29,40.29,0,0,0,267.77,540a15.89,15.89,0,0,0,5.65-.57,4,4,0,0,0,2.14-1.36,1.43,1.43,0,0,1,.08-.22,2.12,2.12,0,0,0,.05-.33l.1-.73.2-1.45c1.09-7.74,2.13-15.49,2.87-23.27a304.21,304.21,0,0,0,1-46.86Z"/><path class="cls-10" d="M252.33,295.29a38.94,38.94,0,0,0-1.7-6c-.69-2-1.47-3.89-2.33-5.77a60.21,60.21,0,0,0-2.84-5.54,17.66,17.66,0,0,0-3.78-4.8,9.71,9.71,0,0,0-1.28-.83l-1.36-.77c-.9-.51-1.81-1-2.73-1.48-1.84-1-3.71-1.87-5.59-2.74-3.77-1.73-7.62-3.3-11.51-4.77-7.77-2.94-15.74-5.28-23.71-7.67-4-1.21-8-2.43-11.91-3.73l-3-1a22.2,22.2,0,0,0-3-.68c-1-.18-2-.33-3.07-.47a23.22,23.22,0,0,0-3.09-.29l0-.1a21.83,21.83,0,0,1,3.14.1c1,.08,2.08.18,3.11.31a21.2,21.2,0,0,1,3.11.57l3,.88,12,3.44a249.47,249.47,0,0,1,23.71,7.89c3.88,1.51,7.73,3.13,11.49,4.91q2.83,1.35,5.59,2.83c.92.49,1.82,1,2.73,1.52l1.35.8a10.44,10.44,0,0,1,1.32.88,9.31,9.31,0,0,1,1.16,1.1c.33.41.66.82,1,1.24l.88,1.31.81,1.34a59.57,59.57,0,0,1,2.77,5.61c.84,1.91,1.59,3.86,2.25,5.83a40.71,40.71,0,0,1,1.6,6Z"/><path class="cls-10" d="M51.91,302.43c2.5-7.91,5.43-15.76,9.78-22.9a42.12,42.12,0,0,1,3.6-5.12,24.6,24.6,0,0,1,2.14-2.31,15.27,15.27,0,0,1,1.24-1c.49-.32.92-.51,1.39-.78,3.64-2,7.3-4,11-5.84s7.46-3.71,11.28-5.36a123.85,123.85,0,0,1,11.73-4.34,111.91,111.91,0,0,1,12.14-3,105.38,105.38,0,0,1,12.38-1.51v.1c-4.11.56-8.21,1.19-12.26,2.1s-8,1.94-12,3.24-7.81,2.72-11.64,4.29-7.59,3.33-11.31,5.16-7.39,3.77-11.06,5.71a13.68,13.68,0,0,0-4.64,3.9,45,45,0,0,0-3.63,5c-4.41,7-7.46,14.81-10.1,22.67Z"/><path class="cls-10" d="M95.35,258.32a34,34,0,0,0,2.36,8.33,23.37,23.37,0,0,0,4.58,7.28,10.64,10.64,0,0,0,1.64,1.37,11.48,11.48,0,0,0,1.91,1,41,41,0,0,0,4.08,1.43c2.77.83,5.59,1.52,8.42,2.15s5.67,1.2,8.52,1.71,5.71,1,8.58,1.23c5.78.52,11.56,1,17.34,1.25,11.55.44,23.24-.31,34.3-3.65a77.42,77.42,0,0,0,15.9-6.72c1.24-.74,2.53-1.44,3.72-2.21a10.46,10.46,0,0,0,2.7-3.22,15,15,0,0,0,2.14-8.22l.1,0a15,15,0,0,1-1.84,8.46,10.88,10.88,0,0,1-2.75,3.48c-1.23.84-2.48,1.56-3.71,2.34a75,75,0,0,1-16,7.07c-11.19,3.51-23,4-34.62,3.48-5.81-.26-11.59-.81-17.37-1.38-2.91-.26-5.77-.8-8.63-1.32s-5.69-1.14-8.52-1.8-5.65-1.38-8.43-2.24a42.7,42.7,0,0,1-4.1-1.49,10.08,10.08,0,0,1-3.63-2.46,23.76,23.76,0,0,1-4.55-7.42,34,34,0,0,1-2.27-8.4Z"/><path class="cls-10" d="M173.91,250.21c1.37,0,2.72.21,4.08.39.67.1,1.35.2,2,.32l1,.2.5.13a1.54,1.54,0,0,1,.55.26c.25.36-.18.81-.36,1a8.3,8.3,0,0,1-.76.69c-.52.43-1.06.82-1.62,1.2-1.11.75-2.25,1.45-3.43,2.1s-2.49,1-3.73,1.54-2.52.9-3.8,1.3A56.76,56.76,0,0,1,152.52,262a79.72,79.72,0,0,1-20-2.48c-1.64-.38-3.27-.8-4.89-1.22l-2.43-.65c-.21-.06-.38-.09-.65-.19a4.94,4.94,0,0,1-.61-.3c-.38-.22-.73-.46-1.08-.71a8.68,8.68,0,0,1-1.94-1.77,3.25,3.25,0,0,1-.15-.4,1.29,1.29,0,0,1,.06-.45,1.64,1.64,0,0,1,.5-.59,4.52,4.52,0,0,1,1.19-.58,17.35,17.35,0,0,1,5-.85v.1a18.84,18.84,0,0,0-4.83,1.17,4.64,4.64,0,0,0-1,.57c-.29.26-.42.49-.24.72a8.47,8.47,0,0,0,1.85,1.5,11.22,11.22,0,0,0,1,.63c.17.09.35.17.52.24l.56.14,2.45.57c1.63.37,3.26.75,4.9,1.1,6.52,1.41,13.11,2.67,19.78,2.65a56.57,56.57,0,0,0,15.7-2.33c1.27-.38,2.53-.81,3.79-1.23s2.51-.93,3.7-1.45a38.11,38.11,0,0,0,3.44-2c.55-.36,1.1-.74,1.62-1.15a6.51,6.51,0,0,0,.73-.65,2.35,2.35,0,0,0,.28-.33c.06-.1.12-.25,0-.34a1.09,1.09,0,0,0-.36-.16l-.48-.13c-.33-.09-.66-.16-1-.23-.67-.13-1.34-.25-2-.35-1.35-.21-2.7-.4-4.05-.48Z"/><path class="cls-10" d="M154.51,340.3a4.86,4.86,0,0,0,3.16.42,10.86,10.86,0,0,0,3.06-1.09,29,29,0,0,0,5.42-3.64,46.73,46.73,0,0,0,8.5-9.89c2.43-3.64,4.52-7.49,6.63-11.32s4.1-7.74,6-11.67,3.68-7.94,5.33-12,3.19-8.14,4.55-12.29,2.6-8.34,3.58-12.6c.48-2.13,1-4.26,1.33-6.42l.29-1.61a4.8,4.8,0,0,0,.14-1.58,1.38,1.38,0,0,0-.87-1.15,3.68,3.68,0,0,0-1.59-.16v-.09a3.59,3.59,0,0,1,1.66.06,1.62,1.62,0,0,1,1.09,1.29,4.72,4.72,0,0,1-.05,1.68l-.21,1.63c-.27,2.18-.68,4.34-1.09,6.5a121.34,121.34,0,0,1-3.32,12.76,131.69,131.69,0,0,1-4.58,12.36q-2.56,6.08-5.53,12t-6.16,11.63c-2.16,3.82-4.31,7.65-6.8,11.28a46.76,46.76,0,0,1-8.71,9.86,29.94,29.94,0,0,1-5.53,3.59,11.11,11.11,0,0,1-3.13,1.05,5,5,0,0,1-3.23-.48Z"/><path class="cls-10" d="M155.42,365.35c-.21-5.45-.2-10.91.12-16.37.11-1.36.35-2.72.4-4.06a5.81,5.81,0,0,0-.25-1.95,3.45,3.45,0,0,0-1.09-1.58,5.74,5.74,0,0,0-.79-.58l-.89-.47c-.61-.31-1.23-.6-1.83-.93a38.29,38.29,0,0,1-3.52-2.13,41.33,41.33,0,0,1-11.23-11.89c-3-4.54-6-9.1-9-13.7a272.49,272.49,0,0,1-16.3-28.41c-2.36-4.93-4.53-9.95-6.42-15.08a72.65,72.65,0,0,1-2.51-7.82,11.88,11.88,0,0,1-.34-4.12,2.69,2.69,0,0,1,1-1.83,2.83,2.83,0,0,1,2-.39v.1a2.7,2.7,0,0,0-1.89.45,2.46,2.46,0,0,0-.81,1.71,11.52,11.52,0,0,0,.49,4,80.54,80.54,0,0,0,2.73,7.67q3,7.57,6.66,14.89c4.84,9.75,10.3,19.18,16.07,28.42q4.35,6.93,8.83,13.77a41.2,41.2,0,0,0,11,11.85,37,37,0,0,0,3.46,2.14c.59.33,1.2.63,1.8.94l.92.49a7.44,7.44,0,0,1,.84.64,3.93,3.93,0,0,1,1.18,1.76,5.9,5.9,0,0,1,.24,2.08c-.06,1.39-.32,2.73-.44,4.08-.38,5.43-.47,10.89-.33,16.34Z"/><path class="cls-10" d="M152,404.49a32,32,0,0,1-13.08-21.69,17.1,17.1,0,0,1,.22-6.53,13.13,13.13,0,0,1,1.2-3.08,15.5,15.5,0,0,1,1.91-2.7,19.72,19.72,0,0,1,11.44-6.1,11.89,11.89,0,0,1,6.61.54,9,9,0,0,1,4.53,4.89,19.88,19.88,0,0,1,1.42,6.46,31.39,31.39,0,0,1-.2,6.57,32.67,32.67,0,0,1-12.93,21.95l-.06-.08a34,34,0,0,0,12-22,32.21,32.21,0,0,0,.15-6.36,19.56,19.56,0,0,0-1.29-6.15,8,8,0,0,0-4-4.46,11,11,0,0,0-6.12-.57,19.08,19.08,0,0,0-11.07,5.75,14.69,14.69,0,0,0-1.86,2.56,12.77,12.77,0,0,0-1.18,2.92,16.62,16.62,0,0,0-.29,6.33,31.83,31.83,0,0,0,12.65,21.67Z"/><path class="cls-10" d="M265.42,540.26l-1.54-.37-.19,0-.06,0h0s.1,0,.05,0a2.52,2.52,0,0,0-.33-.14l-.75-.25-3-.93-6-1.86L241.5,533l-24.23-7.13c-16.17-4.71-32.35-9.35-48.49-14.16s-32.27-9.68-48.22-15.11S88.8,485.28,73.28,478.73l0-.1q23.58,9.06,47.56,17T169,510.9c16.11,4.89,32.27,9.63,48.4,14.44l24.18,7.31,12.06,3.75,6,1.9,3,1,.75.26a1.84,1.84,0,0,1,.38.17c.06.07-.15,0-.09,0l.19,0,1.53.38Z"/><path class="cls-10" d="M10.73,526.4a11.46,11.46,0,0,0,6.89,2.23,30,30,0,0,0,7.29-1q7.22-1.74,14.34-3.76c9.5-2.69,18.89-5.8,28.1-9.36,4.59-1.79,9.15-3.73,13.73-5.59,2.3-.92,4.56-1.93,6.91-2.73s4.7-1.59,7.08-2.29a279.51,279.51,0,0,1,29-6.48l0,.1c-9.62,2.3-19.27,4.43-28.7,7.34q-3.52,1.08-7,2.31c-2.32.79-4.59,1.78-6.89,2.67-4.6,1.81-9.17,3.66-13.81,5.42-9.26,3.49-18.7,6.5-28.25,9.09q-7.16,1.93-14.4,3.58a30.42,30.42,0,0,1-7.36.93,11.68,11.68,0,0,1-7-2.36Z"/><path class="cls-10" d="M11.67,496.53a174.62,174.62,0,0,1,32.24-11.22,147.79,147.79,0,0,1,16.81-3.2,130.06,130.06,0,0,1,17.07-1.05v.1c-5.68.5-11.33,1.11-16.94,1.94s-11.22,1.75-16.76,3a184,184,0,0,0-32.39,10.53Z"/><path class="cls-10" d="M11.56,527.11a17.82,17.82,0,0,1-5.07-5.26A22.34,22.34,0,0,1,3.77,515a39.76,39.76,0,0,1-.2-14.63c.72-4.85,2-9.59,3.06-14.35L10,471.77c4.36-19.07,8.43-38.19,12.53-57.32s8.23-38.25,13.1-57.2,10.22-37.79,16.21-56.41l.09,0c-5.47,18.78-10.63,37.64-15.33,56.62s-9.08,38-13.29,57.13-8.36,38.22-12.83,57.26L7,486.15c-1.12,4.76-2.41,9.48-3.16,14.31A39.7,39.7,0,0,0,4,515a22.32,22.32,0,0,0,2.65,6.77,19.46,19.46,0,0,0,2.22,2.89A20.24,20.24,0,0,0,11.62,527Z"/><path class="cls-10" d="M103.65,587.77c-6.26.23-12.59.49-18.63,2.19a43.75,43.75,0,0,0-8.69,3.46c-2.77,1.43-5.51,3.13-8.69,3.71a8.46,8.46,0,0,1-2.41.09A6.06,6.06,0,0,1,64,597a3,3,0,0,1-.58-.19l-.38-.15c-.12-.06-.35-.07-.26-.25A4.35,4.35,0,0,1,63.2,595a5.52,5.52,0,0,1,.65-1c.49-.65,1-1.22,1.56-1.8a7.05,7.05,0,0,0,1.3-1.83,3.13,3.13,0,0,0,.18-2.11c-.17-.72-.5-1.44-.67-2.27a3.87,3.87,0,0,1,.34-2.5c.83-1.53,2.3-2.36,3.56-3.25.65-.44,1.29-.88,1.88-1.36s1.21-1.07,1.27-1.59c0-.24-.11-.44-.39-.64a9.65,9.65,0,0,1-1-.69,1.86,1.86,0,0,1-.61-1.3,2.58,2.58,0,0,1,.31-1.32,3.33,3.33,0,0,1,2-1.64,14,14,0,0,1,2.37-.48c3-.39,5.5-2.6,7-5.22a29.68,29.68,0,0,0,2.81-8.78c1.28-6.14,2.48-12.3,3.56-18.47A233,233,0,0,0,93,504.91h.25v3.55h-.1L93,504.91h.25a197.78,197.78,0,0,1-2.94,34c-1,6.21-2.24,12.37-3.57,18.51a30.41,30.41,0,0,1-3,9,12.82,12.82,0,0,1-3.17,3.67A9.23,9.23,0,0,1,76.06,572c-1.53.22-3.17.38-3.8,1.68a1.4,1.4,0,0,0,.12,1.72,10.68,10.68,0,0,0,.94.64,1.46,1.46,0,0,1,.68,1.32,2.23,2.23,0,0,1-.66,1.22,11.78,11.78,0,0,1-.89.84c-.63.51-1.29,1-1.94,1.39a9.75,9.75,0,0,0-3.36,3,3.09,3.09,0,0,0-.3,2.07c.13.73.45,1.45.64,2.25a3.76,3.76,0,0,1-.23,2.49,8,8,0,0,1-1.42,2c-.54.59-1.09,1.14-1.55,1.74a4.75,4.75,0,0,0-.6.95,3.2,3.2,0,0,0-.29.87c0,.07,0,.07.08.09l.16.07a3.31,3.31,0,0,0,.53.18,6.23,6.23,0,0,0,1.11.22,7.94,7.94,0,0,0,2.28-.07c3-.51,5.79-2.17,8.58-3.58a44.75,44.75,0,0,1,8.8-3.4c6.1-1.65,12.45-1.84,18.71-2Z"/><path class="cls-10" d="M243.29,591a23.91,23.91,0,0,0,5.73-.33,14.42,14.42,0,0,0,2.77-.7,4.27,4.27,0,0,0,2.17-1.67,4.74,4.74,0,0,0-.48-5.22,6.65,6.65,0,0,0-2.15-1.77,20.62,20.62,0,0,1-2.37-1.71,10.55,10.55,0,0,1-2-2.2,27.63,27.63,0,0,1-1.44-2.52,4.4,4.4,0,0,1-.52-1.45,2,2,0,0,1,0-.84,2.52,2.52,0,0,1,.38-.73c.31-.42.66-.76,1-1.11s.62-.76.59-1-.36-.59-.73-.81a7.48,7.48,0,0,0-1.24-.6c-.88-.34-1.8-.59-2.75-1.05a1.78,1.78,0,0,1-.66-.6,1.57,1.57,0,0,1-.21-.9,3.92,3.92,0,0,1,.15-.8,1.84,1.84,0,0,1,.46-.74c.16-.2.33-.37.5-.55l.11-.12.06-.07s-.09,0-.12-.08l-.58-.25-10.6-4.58a6.21,6.21,0,0,1-2.49-1.85,3.68,3.68,0,0,1-.7-1.51,2.64,2.64,0,0,1,.24-1.73,6.63,6.63,0,0,1,.91-1.28,3.14,3.14,0,0,1,1.39-.94,21.14,21.14,0,0,1,2.87-.68l.31-.07h0v-.3c0-.48,0-1-.06-1.42-.05-.95-.16-1.89-.29-2.84-.27-1.88-.65-3.76-1.09-5.62a113.34,113.34,0,0,0-3.32-11l.09,0a84.36,84.36,0,0,1,3.91,10.88,54.5,54.5,0,0,1,1.28,5.66c.15,1,.29,1.92.37,2.9,0,.48.08,1,.09,1.46v.95c0,.05,0,.14,0,.14l-.67.19-.4.1a20.39,20.39,0,0,0-2.72.68,2.17,2.17,0,0,0-1,.64,5.31,5.31,0,0,0-.76,1.07,2,2,0,0,0,.34,2.16,5,5,0,0,0,2.08,1.56l10.5,4.75.74.33.57.27c.13.1.49.14.23.33l-.39.47-.37.4c-.17.17-.34.34-.48.51a1.27,1.27,0,0,0-.31.46,2.46,2.46,0,0,0-.13.62.81.81,0,0,0,.49.83c.79.39,1.72.67,2.63,1a8.54,8.54,0,0,1,1.35.68,1.91,1.91,0,0,1,1,1.34,1.44,1.44,0,0,1-.29.87,4.74,4.74,0,0,1-.48.59c-.33.37-.68.7-.94,1.05-.6.66-.31,1.57.11,2.39a27.46,27.46,0,0,0,1.38,2.5,10,10,0,0,0,1.84,2.12,20.15,20.15,0,0,0,2.28,1.7,12.44,12.44,0,0,1,1.21.83,5.81,5.81,0,0,1,1,1.08,5.08,5.08,0,0,1,.42,5.62,4.53,4.53,0,0,1-2.34,1.75,15.58,15.58,0,0,1-2.82.66,23.76,23.76,0,0,1-5.77.23Z"/><path class="cls-10" d="M83.37,587.09l39.49.86c6.58.15,13.16.29,19.73.1,3.28-.1,6.57-.27,9.83-.58l9.81-1.07c6.55-.69,13.08-1.53,19.66-2.07s13.17-.79,19.77-.74,13.19.38,19.75,1a155.18,155.18,0,0,1,19.52,3.11l0,.1a184.47,184.47,0,0,0-19.56-2.51c-6.55-.52-13.13-.76-19.7-.74s-13.13.24-19.69.72-13.09,1.25-19.64,1.89l-9.83,1c-3.29.29-6.59.44-9.88.51-6.6.13-13.18-.06-19.76-.27l-39.48-1.25Z"/><path class="cls-10" d="M65.73,630c.63-5.92,1.29-11.84,2.37-17.72a72.61,72.61,0,0,1,2-8.73,54,54,0,0,1,3.33-8.33l.09,0c-.85,2.86-1.7,5.7-2.46,8.56s-1.55,5.72-2.18,8.62c-1.26,5.8-2.14,11.69-3.06,17.58Z"/><path class="cls-10" d="M250.88,629.54c-.95-6.86-1.87-13.73-3.17-20.51-.66-3.39-1.49-6.74-2.29-10.1s-1.69-6.68-2.61-10l.1,0a68.49,68.49,0,0,1,3.48,9.81,93.86,93.86,0,0,1,2.11,10.21c1.13,6.85,1.82,13.74,2.48,20.64Z"/><path class="cls-10" d="M191.43,474.4l4.72-.61c1.57-.2,3.14-.42,4.72-.59l2.37-.28a12.81,12.81,0,0,1,2.42-.14,1.9,1.9,0,0,1,.35.08.63.63,0,0,1,.34.34,1.82,1.82,0,0,1,.05.67l0,1.19c0,.8-.06,1.59-.12,2.39l0,0,0,0c-.08-.8-.14-1.59-.18-2.38l-.06-1.19a1.59,1.59,0,0,0-.05-.5c0-.06-.11-.08-.32-.1a18.84,18.84,0,0,0-2.32.14l-2.37.18c-1.58.11-3.16.28-4.74.42l-4.74.43,0,0A0,0,0,0,1,191.43,474.4Z"/><path class="cls-10" d="M205.91,466.9a39.72,39.72,0,0,0-15.23,1.1l-.62.17-.41.13-.07.41c0,.2-.06.41-.07.61a10.45,10.45,0,0,0,0,1.25c0,.2,0,.41,0,.62v.15s0,.06,0,.06l2.25,0,2.56-.07c1.7-.07,3.41-.16,5.11-.26s3.41-.23,5.11-.38a5.53,5.53,0,0,0,1.13-.15c.2-.08.25-.53.27-1a21.79,21.79,0,0,0,0-2.56h.1a15.93,15.93,0,0,1,.3,2.58,3.86,3.86,0,0,1,0,.68,1,1,0,0,1-.38.75,1.88,1.88,0,0,1-.74.26l-.64.11c-1.69.29-3.41.51-5.12.68s-3.45.23-5.17.25c-.86,0-1.73,0-2.59,0l-2.89-.05c-.14,0-.09-.12-.11-.2l0-.28,0-.48c0-.23,0-.45,0-.67a11.88,11.88,0,0,1,.09-1.33c0-.22.06-.43.1-.65l.06-.33.12-.52.83-.22.63-.16a40.1,40.1,0,0,1,5.11-.87,39.46,39.46,0,0,1,10.3.31Z"/><path class="cls-10" d="M167.6,196.67c.74,13.68,1.89,27.3,3.21,40.93.28,3.41.52,6.84.74,10.24.16,1,.17,2.4,1.07,3.06.06,0,0,.12,0,.09-1.05-.62-1.14-2-1.39-3.1-.47-3.4-.93-6.78-1.33-10.19-1.38-13.52-2.15-27.74-2.26-41Z"/><path class="cls-10" d="M128.28,191.72a458.83,458.83,0,0,1,1,46.62c-.11,2.59-.17,5.18-.31,7.77a26.54,26.54,0,0,1-.54,5.83,2.2,2.2,0,0,1-1.15,1.57.05.05,0,0,1,0-.1,2.06,2.06,0,0,0,.93-1.54c.5-4.46,0-9,.14-13.55.36-15.44.59-31.46,0-46.6Z"/></g></g></g></svg>