<svg id="artwork" xmlns="http://www.w3.org/2000/svg" viewBox="0 0 282 282"><defs><style>.cls-1{fill:#d9cec5;}.cls-2{fill:#647d55;}.cls-3,.cls-4{fill:#2d2d2d;}.cls-4{fill-rule:evenodd;}.cls-5{fill:none;stroke:#2d2d2d;stroke-miterlimit:10;}.cls-6{fill:#f2eae4;}.cls-7{fill:#36302c;}</style></defs><g id="eyes_neutral7"><g id="white"><path class="cls-1" d="M109.68,126.12c-4.14,1.74-7.3,1.74-8.29,3.09s-.79,5.78-.39,7.51c.54,2.33,2,3.19,5.37,4.16a39.28,39.28,0,0,0,11.42,1.19,97.83,97.83,0,0,0,12.61-2.26,11.47,11.47,0,0,0,3.4-2.06s1.13-4.05.39-7a16.26,16.26,0,0,0-2.84-5.11Z"/><path class="cls-1" d="M164,125.2c-4.16,1.71-7.38.81-8.37,2.16s-1,7-.61,8.75,1.74,2.07,5.09,3.06,8.26,2.48,13,2.18c3-.19,10.64-1.74,11.83-2.5a4.21,4.21,0,0,0,2.4-3.36c.41-2.12.74-5.68.16-7.42s-1.22-4.13-5.17-3.77S164,125.2,164,125.2Z"/></g><g id="iris"><path class="cls-2" d="M113.57,126.41c-3.75,1.22-4.86,6.54-3.81,8.59a8,8,0,0,0,7.22,3.81,10.63,10.63,0,0,0,6.15-2.28,6.25,6.25,0,0,0,1.81-5.7c-.53-1.54-2.07-4.32-3.13-4.84S116.72,125.38,113.57,126.41Z"/><path class="cls-2" d="M168,126c-3.76,1.19-4.78,6.66-3.74,8.73a7.78,7.78,0,0,0,7,4c2.9-.23,5.18-1.05,6.36-2.57s2.32-4.15,1.81-5.69-1.68-4.14-2.73-4.66S171.11,125,168,126Z"/></g><g id="iris_outline"><path class="cls-3" d="M116.86,131.57s0,0,.07,0,0,0,0,.06v.11l0,.21,0,.43,0,.85.06,1.7a16.05,16.05,0,0,1,0,1.7,10.13,10.13,0,0,1-.29,1.69h-.05a11,11,0,0,1-.16-1.71c0-.56.07-1.14.11-1.7l.22-3.28h0Z"/><path class="cls-3" d="M117.66,132.28l1,1.21c.32.4.62.82,1,1.2s.72.72,1,1.13a5.56,5.56,0,0,1,.77,1.37l0,0h0c-.4-.34-.75-.7-1.11-1.06a11.42,11.42,0,0,1-1-1.21c-.29-.43-.54-.88-.82-1.32l-.81-1.31,0,0Z"/><path class="cls-3" d="M118.35,131.7h-.08l0-.06a29.72,29.72,0,0,0,3,.91c.51.17,1,.25,1.55.44a3.82,3.82,0,0,1,1.44.84,0,0,0,0,1,0,0h0c-.53-.16-1-.28-1.56-.4a8.35,8.35,0,0,1-1.54-.55,27.55,27.55,0,0,1-2.93-1.23l-.12-.06h.21a0,0,0,0,1,0,0S118.36,131.7,118.35,131.7Z"/><path class="cls-3" d="M117.75,131a7.54,7.54,0,0,1,2-1.87c.36-.26.72-.54,1.1-.76s.76-.44,1.18-.64h0v0a3.71,3.71,0,0,1-.94,1,8.09,8.09,0,0,1-1.17.68,7.41,7.41,0,0,0-2.16,1.56h0Z"/><path class="cls-3" d="M116.89,131.39a10,10,0,0,1-.18-1.42l-.2-1.42a8.65,8.65,0,0,1-.11-1.44,3.93,3.93,0,0,1,.29-1.43h0c.08.49.1.95.16,1.42s0,1,0,1.42l0,1.44a13.26,13.26,0,0,0,0,1.41,0,0,0,0,1,0,0A0,0,0,0,1,116.89,131.39Z"/><path class="cls-3" d="M116.27,132v0h0v0h0a6.17,6.17,0,0,1-1.16,1.07l-1.25,1q-.68.47-1.35.84a5.82,5.82,0,0,0-1.27.89s0,0,0,0h0a2.69,2.69,0,0,1,1-1.29,12,12,0,0,1,1.41-.76l1.32-.82a6,6,0,0,0,1.26-.91v0h0s0,0,0,0,0,0,0,0v0h0A0,0,0,0,1,116.27,132Z"/><path class="cls-3" d="M116.26,131.87a6.85,6.85,0,0,1-1.29-.58l-1.26-.62c-.41-.22-.87-.34-1.26-.58l-.6-.37a1.53,1.53,0,0,1-.56-.49l0,0h0a4.6,4.6,0,0,0,.66.2,5.35,5.35,0,0,1,.67.24,6.81,6.81,0,0,1,1.24.68l1.18.77a6.8,6.8,0,0,0,1.19.73v0A0,0,0,0,1,116.26,131.87Z"/><path class="cls-3" d="M170.85,130.94s0-.05.07-.05,0,0,0,.07v.32l0,.42,0,.85,0,1.71a11.9,11.9,0,0,1,0,1.69,10.17,10.17,0,0,1-.3,1.69h0a11,11,0,0,1-.15-1.71c0-.56.08-1.14.12-1.69l.25-3.29s0,0,0,0Z"/><path class="cls-3" d="M172.45,131.66l.94,1.22c.32.4.62.82,1,1.2s.71.73,1,1.14a5.23,5.23,0,0,1,.76,1.37l0,0h0c-.4-.35-.74-.71-1.11-1.08a10.34,10.34,0,0,1-.95-1.21c-.29-.43-.54-.88-.81-1.32l-.8-1.32v0Z"/><path class="cls-3" d="M172.32,131.45l-.08,0v-.05a30.42,30.42,0,0,0,3.17,0c.54,0,1.06,0,1.62,0a4,4,0,0,1,1.61.41v0a0,0,0,0,1,0,0c-.56,0-1.07,0-1.61,0a8.26,8.26,0,0,1-1.64-.1,28.47,28.47,0,0,1-3.15-.38l-.13,0,.13,0,.07,0,0,0Z"/><path class="cls-3" d="M172.55,130.4a7.35,7.35,0,0,1,2-1.85c.37-.26.72-.54,1.11-.76s.76-.43,1.18-.63h0a0,0,0,0,0,0,0,3.56,3.56,0,0,1-.95,1,8.09,8.09,0,0,1-1.17.68,7.26,7.26,0,0,0-2.17,1.54h0Z"/><path class="cls-3" d="M171.61,131.65a14.08,14.08,0,0,1-.17-1.42l-.18-1.43a9.63,9.63,0,0,1-.11-1.43,4.17,4.17,0,0,1,.31-1.43h0c.07.49.09,1,.14,1.42s0,1,0,1.43v1.43a13.45,13.45,0,0,0,0,1.42h0Z"/><path class="cls-3" d="M170.6,131.14v0s0,0,0,0v0h0a5.88,5.88,0,0,1-1.17,1.06l-1.26,1q-.67.47-1.35.84a5.72,5.72,0,0,0-1.28.88h0v0a2.62,2.62,0,0,1,1-1.27,11.5,11.5,0,0,1,1.42-.76l1.33-.81a6,6,0,0,0,1.26-.9h0s0,0,0,0,0,0,0,0v0h0A0,0,0,0,1,170.6,131.14Z"/><path class="cls-3" d="M171,131.45a7.85,7.85,0,0,1-1.28-.59l-1.25-.63c-.42-.22-.87-.35-1.27-.59l-.59-.38a1.49,1.49,0,0,1-.55-.48,0,0,0,0,1,0,0h0a3,3,0,0,0,.66.2c.23.07.45.16.67.25a7.05,7.05,0,0,1,1.23.69l1.18.78a7.46,7.46,0,0,0,1.18.74,0,0,0,0,1,0,0A0,0,0,0,1,171,131.45Z"/><path class="cls-3" d="M113.21,126.05a13.47,13.47,0,0,0-3.15,4,5.77,5.77,0,0,0-.23,4.85,6.06,6.06,0,0,0,3.7,3.14,11,11,0,0,0,5,.42,8.69,8.69,0,0,0,4.55-1.8,5.41,5.41,0,0,0,1.85-4.33,7.72,7.72,0,0,0-1.74-4.56,6.59,6.59,0,0,0-4.21-2.5s-.06,0,0,0,0,0,0,0a6.43,6.43,0,0,1,4.48,2.33,7.92,7.92,0,0,1,2,4.76,5.69,5.69,0,0,1-2,4.72,9,9,0,0,1-4.82,1.83,11.4,11.4,0,0,1-5.12-.53,6.24,6.24,0,0,1-3.79-3.34,5.92,5.92,0,0,1,.31-5,13.59,13.59,0,0,1,3.23-3.93s0,0,.06,0S113.23,126,113.21,126.05Z"/><path class="cls-3" d="M168.85,125a13.8,13.8,0,0,0-3.58,3.27,6.88,6.88,0,0,0-1.43,4.5,5.74,5.74,0,0,0,2.25,4.06,8.61,8.61,0,0,0,4.39,1.77,8.26,8.26,0,0,0,8-4.1,6.11,6.11,0,0,0,.58-4.57,9.72,9.72,0,0,0-2.45-4.1s0,0,0-.06a.06.06,0,0,1,0,0,9.3,9.3,0,0,1,2.75,4,6.48,6.48,0,0,1-.48,4.9,8.47,8.47,0,0,1-8.47,4.25,8.86,8.86,0,0,1-4.54-1.92,6,6,0,0,1-2.27-4.29,7,7,0,0,1,1.54-4.6,13.62,13.62,0,0,1,3.67-3.22,0,0,0,0,1,.06,0S168.88,125,168.85,125Z"/></g><g id="pupil"><path class="cls-4" d="M117.18,131.75l1.8,1.43a2.39,2.39,0,0,1-3.29.35,2.25,2.25,0,0,1-.31-3.21,2.38,2.38,0,0,1,3.28-.36,2.32,2.32,0,0,1,.68.9Z"/><path class="cls-4" d="M171.52,131.1l1.79,1.44a2.39,2.39,0,0,1-3.29.34,2.26,2.26,0,0,1-.29-3.22,2.39,2.39,0,0,1,3.29-.33,2.2,2.2,0,0,1,.67.9Z"/><path class="cls-4" d="M117.18,131.75l1.8,1.43a2.39,2.39,0,0,1-3.29.35,2.25,2.25,0,0,1-.31-3.21,2.38,2.38,0,0,1,3.28-.36,2.32,2.32,0,0,1,.68.9Z"/><path class="cls-4" d="M171.52,131.1l1.79,1.44a2.39,2.39,0,0,1-3.29.34,2.26,2.26,0,0,1-.29-3.22,2.39,2.39,0,0,1,3.29-.33,2.2,2.2,0,0,1,.67.9Z"/><path class="cls-5" d="M117.18,131.75l1.8,1.43a2.39,2.39,0,0,1-3.29.35,2.25,2.25,0,0,1-.31-3.21,2.38,2.38,0,0,1,3.28-.36,2.32,2.32,0,0,1,.68.9Z"/><path class="cls-5" d="M171.52,131.1l1.79,1.44a2.39,2.39,0,0,1-3.29.34,2.26,2.26,0,0,1-.29-3.22,2.39,2.39,0,0,1,3.29-.33,2.2,2.2,0,0,1,.67.9Z"/></g><g id="spec"><ellipse class="cls-6" cx="122.5" cy="129.21" rx="2.44" ry="2.23" transform="translate(-55.49 124.47) rotate(-45)"/><ellipse class="cls-6" cx="177.21" cy="128.3" rx="2.18" ry="2.5" transform="translate(47.87 304.75) rotate(-89.66)"/></g><g id="outline"><path class="cls-3" d="M155.94,137.74a3.18,3.18,0,0,1-1.26-2.32,15.17,15.17,0,0,1-.29-2.69,11.18,11.18,0,0,1,.26-2.71,9.35,9.35,0,0,1,1-2.51s0,0,0,0,0,0,0,0c-.21.87-.44,1.72-.58,2.59a25.55,25.55,0,0,0-.35,2.61,14.7,14.7,0,0,0,.11,2.65,3,3,0,0,0,1.07,2.31v0Z"/><path class="cls-3" d="M184.9,138.82a5.07,5.07,0,0,0,2.21-2.75,9.79,9.79,0,0,0,.61-3.51,18.41,18.41,0,0,0-.5-3.54,22.57,22.57,0,0,0-1.05-3.46s0,0,0,0,0,0,0,0a11.68,11.68,0,0,1,1.5,3.36,12.9,12.9,0,0,1,.41,3.66,10.08,10.08,0,0,1-.8,3.6,5.16,5.16,0,0,1-2.4,2.7s0,0,0,0S184.89,138.82,184.9,138.82Z"/><path class="cls-3" d="M185.69,138.56a35.55,35.55,0,0,1-15,3,34.17,34.17,0,0,1-7.66-1.07,38.25,38.25,0,0,1-7.21-2.74s0,0,0,0h.05a60.82,60.82,0,0,0,7.32,2.29,41.64,41.64,0,0,0,7.54,1.16,35.26,35.26,0,0,0,15-2.64,0,0,0,0,1,.05,0A.05.05,0,0,1,185.69,138.56Z"/><path class="cls-3" d="M126.1,117.27l.34,2.35a7.76,7.76,0,0,1,.14,1.18,5.53,5.53,0,0,1-.14,1.2h0a4.86,4.86,0,0,1-.31-1.16,7.94,7.94,0,0,1,0-1.19v-2.38h0Z"/><path class="cls-3" d="M120.13,118.1a7.8,7.8,0,0,1,.7,1.89,3.16,3.16,0,0,1,.14,1,2.4,2.4,0,0,1-.26,1h0a7.18,7.18,0,0,1-.19-1c0-.31,0-.64,0-1a8.51,8.51,0,0,0-.35-1.93l0,0Z"/><path class="cls-3" d="M114.13,118.66l.6,1.91a5.49,5.49,0,0,1,.27,1,3.87,3.87,0,0,1,0,1l0,0h0a3.94,3.94,0,0,1-.44-.93,6.48,6.48,0,0,1-.17-1l-.26-2h0Z"/><path class="cls-3" d="M105.55,118.1l1,2.74a14,14,0,0,1,.47,1.38,7.9,7.9,0,0,1,.2,1.46l0,0h0a8,8,0,0,1-.63-1.33,11.75,11.75,0,0,1-.38-1.41l-.67-2.84,0,0Z"/><path class="cls-3" d="M159.81,118.76,160,121a6,6,0,0,1,0,1.12,4,4,0,0,1-.23,1.11s0,0,0,0h0a4.93,4.93,0,0,1-.22-1.12,6.89,6.89,0,0,1,.06-1.11l.19-2.23h.05Z"/><path class="cls-3" d="M177,117.12c0,.95,0,1.91,0,2.86a13.39,13.39,0,0,1,0,1.42,7.85,7.85,0,0,1-.17,1.43h-.05a6.46,6.46,0,0,1-.28-1.43,8.63,8.63,0,0,1,.06-1.44c.08-1,.21-1.92.37-2.86,0,0,0,0,0,0Z"/><path class="cls-3" d="M171.05,117.63a9.27,9.27,0,0,1,.34,2.17,3.78,3.78,0,0,1-.08,1.11,3,3,0,0,1-.47,1h0l0,0a7.66,7.66,0,0,1,0-1.08c0-.35.12-.69.17-1a9,9,0,0,0,0-2.14h.05Z"/><path class="cls-3" d="M166,116.77a27.33,27.33,0,0,1,.14,3,7.66,7.66,0,0,1-.09,1.51,5.85,5.85,0,0,1-.44,1.46h0l0,0a10.87,10.87,0,0,1,0-1.51c0-.49.12-1,.18-1.48a29.43,29.43,0,0,0,.21-3h0Z"/><path class="cls-3" d="M101.9,139.05a10.57,10.57,0,0,1-1.41-4.2,9.9,9.9,0,0,1-.1-2.24,7.83,7.83,0,0,1,.5-2.19h0s0,0,0,0c0,.75-.06,1.47,0,2.2s0,1.45,0,2.18a10.52,10.52,0,0,0,1.06,4.22v0Z"/><path class="cls-3" d="M133.78,137.73a11.54,11.54,0,0,0-.78-9.3,22.21,22.21,0,0,0-1.66-2.74.06.06,0,0,1,0,0h0a10.39,10.39,0,0,1,2.06,2.55,9.49,9.49,0,0,1,1.07,3.11,13,13,0,0,1-.69,6.43s0,0,0,0S133.77,137.74,133.78,137.73Z"/><path class="cls-3" d="M101.8,138.72a19.66,19.66,0,0,0,7.78,2.78,37.19,37.19,0,0,0,8.3.33,55.7,55.7,0,0,0,8.23-1.19c1.37-.29,2.75-.48,4.07-.86a9.21,9.21,0,0,0,3.57-2s0,0,.05,0a.06.06,0,0,1,0,.05,8.42,8.42,0,0,1-3.49,2.31c-1.34.46-2.73.69-4.07,1a44,44,0,0,1-8.32,1.1,37.78,37.78,0,0,1-8.36-.5,20,20,0,0,1-7.77-3s0,0,0,0S101.77,138.7,101.8,138.72Z"/><path class="cls-3" d="M98.91,131.13a26,26,0,0,1,7.26-4.51,41.17,41.17,0,0,1,8.27-2.46,27.36,27.36,0,0,1,8.59-.81,34.66,34.66,0,0,1,4.21.76,22.55,22.55,0,0,1,4.12,1.41l0,.27a21.14,21.14,0,0,1-4.23,1c-1.4.21-2.78.33-4.14.46-2.7.24-5.38,0-8.1.15a45.29,45.29,0,0,0-8,1.27,38.86,38.86,0,0,0-7.69,2.87Z"/><path class="cls-3" d="M188.34,125.17c-1.38.18-2.74.21-4.11.31s-2.73.21-4.09.33c-2.72.25-5.43.57-8.12.93s-5.34,1.06-8.05,1.18c-1.36,0-2.73.07-4.11,0-.68,0-1.39-.09-2.09-.17s-1.41-.16-2.13-.26l0-.28a30.16,30.16,0,0,1,3.88-1.8,36.2,36.2,0,0,1,4-1.13,39.69,39.69,0,0,1,8.3-.45c2.77,0,5.54.06,8.3.21,1.38.09,2.76.2,4.13.32a40.85,40.85,0,0,1,4.11.52Z"/><path class="cls-3" d="M125.64,148a30.56,30.56,0,0,0,4.49-4.75c.66-.87,1.24-1.79,1.84-2.69s1.18-1.83,1.77-2.76l0,0a15.12,15.12,0,0,1-1.39,3,18.9,18.9,0,0,1-1.95,2.68,27.34,27.34,0,0,1-4.77,4.54Z"/><path class="cls-3" d="M165.6,147.08a30.11,30.11,0,0,1-5.68-4.05,20.67,20.67,0,0,1-2.44-2.51,16.31,16.31,0,0,1-1.9-3l0,0c.74.9,1.47,1.79,2.23,2.65s1.52,1.73,2.34,2.54a33.34,33.34,0,0,0,5.43,4.3Z"/></g><g id="eyebrows"><path class="cls-7" d="M132.87,113.74c-3.47.19-6.49-1.26-9.81-1.8-6.16-1.42-12.43.8-17.84,3.82-3,1.62-6.3,3.26-9.75,3.65,3.68-6.59,10.72-9.36,17.43-11.94a18.39,18.39,0,0,1,8.66-1.31,33.54,33.54,0,0,1,10.25,4,5.52,5.52,0,0,1,2,2.25l-1,1.36Z"/><path class="cls-7" d="M188.82,115a48.25,48.25,0,0,0-10-4.83,23.32,23.32,0,0,0-7.83-.64c-6.93.55-12.69,4.37-20,3,5.16-6.58,12-7.2,19.65-7.89,3.76-.36,7.89.2,11.08,2.46,3.09,2,6,3.78,8.51,6.61L188.82,115Z"/></g></g></svg>