<svg id="artwork" xmlns="http://www.w3.org/2000/svg" viewBox="0 0 282 282"><defs><style>.cls-1{fill:#d9cec5;}.cls-2{fill:#647d55;}.cls-3,.cls-4{fill:#2d2d2d;}.cls-4,.cls-7{fill-rule:evenodd;}.cls-5,.cls-7{fill:none;stroke:#2d2d2d;stroke-miterlimit:10;}.cls-6{fill:#f2eae4;}.cls-7{stroke-width:0.6px;}.cls-8{fill:#36302c;}</style></defs><g id="eyes_tired6"><g id="white"><path class="cls-1" d="M112.83,123.82c-3.67,1.36-7.5,4-8.21,5.36s-.2,3.7.32,5.25S109,138,112,138.6s9.13-.61,11.63-1.24,5.77-3.21,6.7-4,3.65-3.24,3.77-5.2a6.7,6.7,0,0,0-.73-4.06c-.69-1.52-4-2.81-7.47-2.75A51.21,51.21,0,0,0,112.83,123.82Z"/><path class="cls-1" d="M174.93,122.9c3.56,1.19,5.82,2.71,6.74,3.82a7.24,7.24,0,0,1,1.29,4.84c-.18,1.56-4.32,4.58-7,5.71s-7.52.93-10,.83-6-1.88-7.09-2.46a44.64,44.64,0,0,1-5.89-5.16c-2-2.18-1.29-3.22-1.16-5.5s6-3.73,9.29-3.72S174.93,122.9,174.93,122.9Z"/></g><g id="iris"><path class="cls-2" d="M122.3,120.48a2.76,2.76,0,0,0-.43-.1c-3.13,1.18-6.3,2.25-9.36,3.63a7.17,7.17,0,0,0,0,5.83,7.08,7.08,0,0,0,6.73,2.89c2.5-.52,5.46-1.42,6-3.16s.87-3.74.24-5.12S123.27,120.86,122.3,120.48Z"/><path class="cls-2" d="M170.34,122.06c-2.76-.82-5.63-.47-8.47-.5a10.52,10.52,0,0,0-1.83,4c-.3,1.37.4,3.12,1.18,4.61s3.63,1.74,6,1.72a6.56,6.56,0,0,0,5.53-3.93,6.74,6.74,0,0,0-1.23-5.53Z"/></g><g id="iris_outline"><path class="cls-3" d="M118.55,126.12s0-.05.06-.05l0,.06,0,.09,0,.2.06.39.12.78.24,1.58a11.83,11.83,0,0,1,.18,1.56,8.66,8.66,0,0,1-.1,1.6h0a9.48,9.48,0,0,1-.35-1.56c-.07-.53,0-1.06-.07-1.59l-.07-1.57,0-.79,0-.4v-.2s0-.18,0-.1h0Z"/><path class="cls-3" d="M119.33,126.71c.65.68,1.28,1.37,1.93,2,.34.32.72.6,1,.95a4.62,4.62,0,0,1,.79,1.2s0,0,0,0h0a13.57,13.57,0,0,1-1.1-.87,8.71,8.71,0,0,1-1-1c-.58-.75-1.12-1.52-1.67-2.27a0,0,0,0,1,0,0Z"/><path class="cls-3" d="M119.87,126.1l-.07,0v-.06a26.94,26.94,0,0,0,2.76.54c.47.1.93.13,1.41.26a3.12,3.12,0,0,1,1.33.65v0h0c-.48-.09-.93-.15-1.41-.2a7.06,7.06,0,0,1-1.4-.37,24.59,24.59,0,0,1-2.68-.87l-.12,0h.2a0,0,0,0,1,0,0A0,0,0,0,1,119.87,126.06Z"/><path class="cls-3" d="M119.28,125.52a6.65,6.65,0,0,1,1.51-1.91,9.71,9.71,0,0,1,.89-.82c.32-.23.62-.48,1-.7h0l0,0a3.2,3.2,0,0,1-.69,1,7.54,7.54,0,0,1-1,.75,6.44,6.44,0,0,0-1.73,1.64h0A0,0,0,0,1,119.28,125.52Z"/><path class="cls-3" d="M118.56,126l-.45-1.53a3.47,3.47,0,0,1-.19-.77,2.6,2.6,0,0,1,.08-.82h0a2.35,2.35,0,0,1,.36.75,3.39,3.39,0,0,1,.09.78l.11,1.59h0Z"/><path class="cls-3" d="M117.54,127v0s0,0,0,0h0a5.57,5.57,0,0,1-.89,1.1l-1,1a11.32,11.32,0,0,1-1.09.92,5.63,5.63,0,0,0-1,.93h0v0a2.3,2.3,0,0,1,.75-1.29,10.11,10.11,0,0,1,1.16-.85l1.08-.88a5.36,5.36,0,0,0,1-1v0h0s0,0,0,0,0,0,0,0v0h0Z"/><path class="cls-3" d="M117.24,126.06c-.61-.16-1.22-.38-1.82-.59a6.72,6.72,0,0,1-.88-.35,4.2,4.2,0,0,1-.78-.57v0l0,0a2.86,2.86,0,0,1,1,.16,4.48,4.48,0,0,1,.84.44c.55.32,1.1.64,1.67.91v0Z"/><path class="cls-3" d="M112.63,124.71a6.82,6.82,0,0,0-.45,3.59,4.63,4.63,0,0,0,2,2.93,7.6,7.6,0,0,0,3.38,1.23,8.72,8.72,0,0,0,3.59-.27,6.87,6.87,0,0,0,3-1.78,5.08,5.08,0,0,0,1.39-3.16,7.32,7.32,0,0,0-2.92-6.29s0,0,0,0h0a7.09,7.09,0,0,1,3.4,6.36,5.32,5.32,0,0,1-1.53,3.47,7.23,7.23,0,0,1-3.3,1.82,8.91,8.91,0,0,1-3.74.2,7.77,7.77,0,0,1-3.46-1.36,4.75,4.75,0,0,1-2-3.08,6.85,6.85,0,0,1,.54-3.63s0,0,0,0S112.64,124.69,112.63,124.71Z"/><path class="cls-3" d="M166.55,125.72c0-.08,0,.06,0,.1l0,.18.06.36.12.73.24,1.45a12,12,0,0,1,.23,1.46,6.77,6.77,0,0,1,0,1.49h-.05a7.87,7.87,0,0,1-.4-1.43,9,9,0,0,1-.13-1.47l-.08-1.47,0-.74v-.65a.15.15,0,0,1,0-.06c.1,0,0,0,.07,0h0S166.55,125.72,166.55,125.72Z"/><path class="cls-3" d="M166,126.41c-.35.8-.69,1.61-1.07,2.41a8.41,8.41,0,0,1-.67,1.13c-.28.34-.53.68-.85,1h0a4.11,4.11,0,0,1,.48-1.25,10.23,10.23,0,0,1,.75-1.07c.47-.72.91-1.47,1.37-2.22h0Z"/><path class="cls-3" d="M165.4,125.9h.06l.12,0-.1.07a22.38,22.38,0,0,1-2.25,1.32,5.9,5.9,0,0,1-1.2.61c-.42.14-.81.28-1.24.45l0,0v0a2.9,2.9,0,0,1,1.07-.87c.4-.21.82-.32,1.22-.5a24.34,24.34,0,0,0,2.4-1l0,.06h-.07v0A0,0,0,0,1,165.4,125.9Z"/><path class="cls-3" d="M165.79,125.34a5.9,5.9,0,0,0-1.87-1.15,5.54,5.54,0,0,1-1-.49,2.67,2.67,0,0,1-.81-.83,0,0,0,0,1,0,0h0c.37.13.69.29,1,.44a8.53,8.53,0,0,1,1,.57,6.21,6.21,0,0,1,1.72,1.46s0,0,0,0Z"/><path class="cls-3" d="M166.51,125.56l-.22-1.47a3.09,3.09,0,0,1-.07-.74,2.34,2.34,0,0,1,.2-.74h0a0,0,0,0,1,0,0,2,2,0,0,1,.25.73,3.08,3.08,0,0,1,0,.74l-.13,1.48h-.05Z"/><path class="cls-3" d="M167.62,126.32v0s0,0,0,0,0,0,.05,0h0a5.26,5.26,0,0,0,1.09.68l1.14.58a9.36,9.36,0,0,1,1.22.55,2.13,2.13,0,0,1,.9,1s0,0,0,0h0a5.11,5.11,0,0,0-1.11-.63,10.9,10.9,0,0,1-1.15-.63l-1.08-.75a5,5,0,0,1-1-.83h0s0,0,0,0v0s0,0,0,0Z"/><path class="cls-3" d="M167.74,125.36c.58-.43,1.11-.91,1.65-1.39a5.57,5.57,0,0,1,.85-.67,3.26,3.26,0,0,1,1-.4,0,0,0,0,1,0,0v0a6.22,6.22,0,0,1-.77.77,9.3,9.3,0,0,1-.9.59c-.61.38-1.22.77-1.86,1.1,0,0,0,0,0,0A0,0,0,0,1,167.74,125.36Z"/><path class="cls-3" d="M171.48,122.92a6.94,6.94,0,0,1,1.37,3.11,4.53,4.53,0,0,1-.93,3.27,7.84,7.84,0,0,1-6.12,2.83,7.21,7.21,0,0,1-3.39-.81,4.91,4.91,0,0,1-2.26-2.69,6.52,6.52,0,0,1,1.43-6.51s0,0,0,0,0,0,0,0a6.76,6.76,0,0,0-1,6.31,4.77,4.77,0,0,0,2,2.43,6.82,6.82,0,0,0,3.15.84,7.53,7.53,0,0,0,5.93-2.57,4.37,4.37,0,0,0,1-3.12,6.83,6.83,0,0,0-1.27-3.09s0,0,0,0S171.46,122.9,171.48,122.92Z"/></g><g id="pupil"><path class="cls-4" d="M118.92,126.85l1.72,1.15a2,2,0,0,1-2.83.64,2.18,2.18,0,0,1-.61-2.94,2,2,0,0,1,2.83-.65,2.08,2.08,0,0,1,.68.76Z"/><path class="cls-4" d="M166.4,126.44l-1.33,1.38a1.83,1.83,0,0,0,2.67,0,2.06,2.06,0,0,0,0-2.8,1.84,1.84,0,0,0-2.68,0,2,2,0,0,0-.47.83Z"/><path class="cls-4" d="M118.92,126.85l1.72,1.15a2,2,0,0,1-2.83.64,2.18,2.18,0,0,1-.61-2.94,2,2,0,0,1,2.83-.65,2.08,2.08,0,0,1,.68.76Z"/><path class="cls-4" d="M166.4,126.44l-1.33,1.38a1.83,1.83,0,0,0,2.67,0,2.06,2.06,0,0,0,0-2.8,1.84,1.84,0,0,0-2.68,0,2,2,0,0,0-.47.83Z"/><path class="cls-5" d="M118.92,126.85l1.72,1.15a2,2,0,0,1-2.83.64,2.18,2.18,0,0,1-.61-2.94,2,2,0,0,1,2.83-.65,2.08,2.08,0,0,1,.68.76Z"/><path class="cls-5" d="M166.4,126.44l-1.33,1.38a1.83,1.83,0,0,0,2.67,0,2.06,2.06,0,0,0,0-2.8,1.84,1.84,0,0,0-2.68,0,2,2,0,0,0-.47.83Z"/></g><g id="spec"><ellipse class="cls-6" cx="124.65" cy="124.27" rx="1.85" ry="1.7"/><ellipse class="cls-6" cx="171.62" cy="126.09" rx="1.85" ry="1.7"/></g><g id="outline"><path class="cls-3" d="M135.08,124a21.26,21.26,0,0,0-9.45-1.91,23.89,23.89,0,0,0-4.74.5,25.12,25.12,0,0,0-4.46,1.56c-1.45.68-2.85,1.49-4.28,2.29l-4.21,2.33a98.1,98.1,0,0,1-8.72,4.68l-.18-.24a38.67,38.67,0,0,1,7.3-7,17.62,17.62,0,0,1,2.21-1.35c.78-.41,1.49-.74,2.27-1.09,1.52-.68,3.1-1.3,4.71-1.86a25,25,0,0,1,5-1.28,24.56,24.56,0,0,1,5.14,0,21.1,21.1,0,0,1,9.53,3.13Z"/><path class="cls-3" d="M104.45,133.17a6.3,6.3,0,0,0,3,3.57,13.78,13.78,0,0,0,4.49,1.6,21.13,21.13,0,0,0,9.45-.62,24.53,24.53,0,0,0,8.29-4.51,26,26,0,0,0,3.37-3.35,33.44,33.44,0,0,0,2.81-3.91l.09,0a21.39,21.39,0,0,1-5.63,8,22.22,22.22,0,0,1-18.48,4.85,13.93,13.93,0,0,1-4.55-1.82,6.48,6.48,0,0,1-2.92-3.81Z"/><path class="cls-3" d="M129.11,114a12.8,12.8,0,0,1,.64,2.47,6.1,6.1,0,0,1,.12,1.28,5,5,0,0,1-.21,1.27h0c-.08-.43-.09-.85-.13-1.27s0-.83,0-1.25a14.15,14.15,0,0,0-.38-2.49,0,0,0,0,1,0,0Z"/><path class="cls-3" d="M122.54,115.86l.51,1.55a5.45,5.45,0,0,1,.22.79,3.27,3.27,0,0,1,0,.83h0a2.89,2.89,0,0,1-.35-.76,5.15,5.15,0,0,1-.16-.8l-.25-1.61h0Z"/><path class="cls-3" d="M113.77,117.35a11.37,11.37,0,0,1,1,1.74,5.28,5.28,0,0,1,.34.94,3.43,3.43,0,0,1,0,1h0a8.1,8.1,0,0,1-.38-.92c-.1-.3-.16-.62-.25-.94a11.34,11.34,0,0,0-.73-1.82h0Z"/><path class="cls-3" d="M106.63,119.79l1.1,1.92a7.63,7.63,0,0,1,.53,1,5.58,5.58,0,0,1,.35,1.07h0a5.63,5.63,0,0,1-.64-.92,8.15,8.15,0,0,1-.46-1l-.88-2,0,0Z"/><path class="cls-3" d="M100.82,122.32a15,15,0,0,0,1.52,2.25c.29.36.6.68.88,1s.57.7.82,1.09c0,0,0,0,0,0a0,0,0,0,1,0,0,5.4,5.4,0,0,1-1.08-.88,8.2,8.2,0,0,1-.84-1.1,16.22,16.22,0,0,1-1.32-2.42h0Z"/><path class="cls-3" d="M105.38,129.49a44.69,44.69,0,0,1,12.53-8,35.19,35.19,0,0,1,7.13-2.33,29.77,29.77,0,0,1,7.47-.59v.1c-2.45.41-4.87.85-7.25,1.46a64.76,64.76,0,0,0-7.05,2.1,47.05,47.05,0,0,0-12.76,7.37Z"/><path class="cls-3" d="M118.44,143.6a11.07,11.07,0,0,1-4.82.41,14.48,14.48,0,0,1-4.66-1.47,17.67,17.67,0,0,1-4-2.77,24.33,24.33,0,0,1-3.22-3.66s0,0,0,0a0,0,0,0,1,0,0c1.15,1.14,2.28,2.29,3.52,3.32a24.14,24.14,0,0,0,3.88,2.79,14.2,14.2,0,0,0,4.51,1.59,10.74,10.74,0,0,0,4.78-.23l0,0S118.46,143.6,118.44,143.6Z"/><path class="cls-3" d="M150.87,123.52a21.88,21.88,0,0,1,9.33-3.35,24.57,24.57,0,0,1,10,.94,43,43,0,0,1,9.35,3.38,26.77,26.77,0,0,1,7.86,6.18l-.18.24c-3.09-1.26-6-2.53-9-3.71s-5.8-2.64-8.81-3.81a24.11,24.11,0,0,0-9.19-1.75,22.21,22.21,0,0,0-9.28,2.14Z"/><path class="cls-3" d="M183.28,130.26a6.37,6.37,0,0,1-2,4.19,13.46,13.46,0,0,1-3.9,2.65,21.15,21.15,0,0,1-18.38-.85,21.57,21.57,0,0,1-3.81-2.84,21.19,21.19,0,0,1-3-3.6l.08-.07a33.56,33.56,0,0,0,3.41,3.14,26.43,26.43,0,0,0,3.83,2.49,23.48,23.48,0,0,0,8.69,2.61,20.25,20.25,0,0,0,9-1.33,13.17,13.17,0,0,0,3.89-2.42,6.21,6.21,0,0,0,2.09-4Z"/><path class="cls-7" d="M186.38,129.93c-9-7.21-13-8-25-11.46"/><path class="cls-3" d="M176.11,139.41a34.36,34.36,0,0,0,3.66-3.26l1.67-1.78c.59-.57,1.14-1.17,1.77-1.72,0,0,0,0,0,0a0,0,0,0,1,0,0,12.55,12.55,0,0,1-1.44,2,16.16,16.16,0,0,1-1.77,1.74,36.5,36.5,0,0,1-3.9,3s0,0,0,0A0,0,0,0,1,176.11,139.41Z"/><path class="cls-3" d="M121.72,151.76A45.2,45.2,0,0,0,130,140.59a56.47,56.47,0,0,0,2.83-6.36,66.75,66.75,0,0,0,2.12-6.65s0,0,0,0,0,0,0,0a36.46,36.46,0,0,1-1.69,6.81,40.63,40.63,0,0,1-3,6.39,45.87,45.87,0,0,1-8.63,11s0,0,0,0S121.71,151.78,121.72,151.76Z"/><path class="cls-3" d="M151.28,127.36a47.92,47.92,0,0,0,7.78,14,56.59,56.59,0,0,0,5.44,5.82,33.92,33.92,0,0,0,6.33,4.82l0,.1a21,21,0,0,1-7-4.18,35.83,35.83,0,0,1-5.41-6.07,45.65,45.65,0,0,1-7.24-14.41Z"/><path class="cls-3" d="M157.25,111.77a14.15,14.15,0,0,0-.38,2.49c0,.42,0,.84,0,1.26s-.05.83-.13,1.26h0a5,5,0,0,1-.21-1.27,6.1,6.1,0,0,1,.12-1.28,13,13,0,0,1,.64-2.47,0,0,0,0,1,0,0Z"/><path class="cls-3" d="M163.83,113.61l-.25,1.62a5.27,5.27,0,0,1-.16.79,3.72,3.72,0,0,1-.35.76h0a3.27,3.27,0,0,1,0-.83,5.45,5.45,0,0,1,.22-.79l.51-1.55h0Z"/><path class="cls-3" d="M172.6,115.11a11.08,11.08,0,0,0-.73,1.83c-.09.31-.15.63-.25.93a8.1,8.1,0,0,1-.38.92h0a3.35,3.35,0,0,1,.05-1,5.38,5.38,0,0,1,.34-1,11.37,11.37,0,0,1,1-1.74h0Z"/><path class="cls-3" d="M179.74,117.55l-.88,2a7.52,7.52,0,0,1-.46,1,5.13,5.13,0,0,1-.65.92h0a5.58,5.58,0,0,1,.35-1.07,7.63,7.63,0,0,1,.53-1l1.1-1.92h0Z"/><path class="cls-3" d="M185.55,120.08a15.64,15.64,0,0,1-1.32,2.41,7.61,7.61,0,0,1-.84,1.1,5.4,5.4,0,0,1-1.08.88h0v0c.25-.39.54-.73.82-1.09s.59-.68.88-1a15.67,15.67,0,0,0,1.52-2.26h0Z"/></g><g id="eyebrows"><path class="cls-8" d="M128.22,100.78c.43.73.49,1.17.4,1.44a8,8,0,0,1-1.42,1.55c-4.42,3.85-10.12,5.64-15.2,8.25-2.86,1.5-5.2,3.89-8.1,5.18a55.89,55.89,0,0,1-9.22,3.5l-.36-.41a21.26,21.26,0,0,1,6.71-7.78c2.65-2.11,6-2.87,8.93-4.39s5.63-3.39,8.56-4.76a78,78,0,0,1,8-3.62,3.6,3.6,0,0,1,1.72,1Z"/><path class="cls-8" d="M161.68,100.47c.7-.15,1.26-.59,1.77-.13,4.41,2.53,8.65,5.3,13.17,7.77,2.55,1.29,5.57,1.72,8,3.46a22.36,22.36,0,0,1,3.47,2.89,11.09,11.09,0,0,1,2.64,4l-.4.39c-1.54-.39-2.89-.71-4.27-1.09s-2.71-.84-4-1.35c-2.67-1-4.8-3.08-7.37-4.39-3.94-1.93-8.2-3.49-11.61-6.5a9.38,9.38,0,0,1-2.64-3.56,2.15,2.15,0,0,1,1.3-1.51Z"/><path class="cls-3" d="M133.29,101.7a9.28,9.28,0,0,0-.67-3.74,7.66,7.66,0,0,0-1.11-1.5c-.4-.49-.87-.92-1.29-1.43,0,0,0,0,0,0s0,0,0,0a6.66,6.66,0,0,1,1.63,1.12A5.13,5.13,0,0,1,133,97.79a9.65,9.65,0,0,1,.35,3.91h-.05Z"/><path class="cls-3" d="M156.6,101.86c.4-.84.6-1.72.93-2.6a2.74,2.74,0,0,1,.8-1.22,2.9,2.9,0,0,1,1.32-.58l0,0v0a11.23,11.23,0,0,0-1,.89,4.92,4.92,0,0,0-.78,1,27.07,27.07,0,0,1-1.25,2.46h0S156.6,101.86,156.6,101.86Z"/></g></g></svg>