<svg id="artwork" xmlns="http://www.w3.org/2000/svg" viewBox="0 0 282 282"><defs><style>.cls-1{fill:#c9b29d;fill-rule:evenodd;}.cls-2{fill:#2d2d2d;}</style></defs><g id="mouth_happy3"><g id="lip_colour" data-name="lip colour"><path class="cls-1" d="M129.8,186.26s.11.85,6.07,5.29c1.85,1.37,4.57,1.19,7.49,1.26,6.94.17,11.07-2.15,13.21-2.91,5.63-2,4-4.84,4-4.84l.9-.41a13.78,13.78,0,0,1-4.73-3c-2.18-2.23-4.37-1.49-5.36-1.57-3.09-.24-4.66,2-8.07,2.23-1.37.11-4.59-2-8.62-1.87a8.55,8.55,0,0,0-4.08,1.51c-.61.61-.76,1.76-1.39,2.14-1,.62-1.66.88-1.42.88Z"/></g><g id="outine"><path class="cls-2" d="M163.51,184.38c-10.12,2.34-35.77,7.55-41.07-4.32l.1,0c5.63,10.34,31.29,5.71,41,4.36Z"/><path class="cls-2" d="M127.74,184.55a1.88,1.88,0,0,0,1.77-.94,5.77,5.77,0,0,1,1.11-2,10.83,10.83,0,0,1,8.75-1,35.07,35.07,0,0,1,4.22,1.46h-.32c3.15-1.16,6.16-2.57,9.66-2.34,2.44.56,4.52,2.24,6.55,3.59a16.3,16.3,0,0,0,2,1.31l0,.1c-3-1-5.65-3.38-8.71-4-3.11-.11-6.26,1.14-9.19,2.13l-.18.06a33.25,33.25,0,0,0-4.22-1.65,10.46,10.46,0,0,0-8.32.68c-.83.59-.91,2.14-2,2.55a2.82,2.82,0,0,1-1.11.16v-.1Z"/><path class="cls-2" d="M160.52,184.91c2.78,3.86-8,7.21-10.67,7.91a23.11,23.11,0,0,1-9.83.25,12.6,12.6,0,0,1-4.72-1.57,22.21,22.21,0,0,1-3.7-3.24,27.44,27.44,0,0,0-3.78-3l.05-.09c2.92,1.41,5.09,4.11,7.77,5.76,5.77,2.57,12.78,1.79,18.64-.26a32.15,32.15,0,0,0,4.39-2,4.26,4.26,0,0,0,1.78-1.48,2,2,0,0,0,0-2.21l.08-.06Z"/><path class="cls-2" d="M119.49,181.73c.61-.62,1.2-1.26,1.76-1.92.28-.33.53-.68.84-1a7.5,7.5,0,0,1,1-.84h0a0,0,0,0,1,0,0,4.85,4.85,0,0,1-.68,1.14,6.81,6.81,0,0,1-.93.93c-.64.59-1.32,1.14-2,1.67h0A0,0,0,0,1,119.49,181.73Z"/></g></g></svg>