<svg id="artwork" xmlns="http://www.w3.org/2000/svg" xmlns:xlink="http://www.w3.org/1999/xlink" viewBox="0 0 282 282"><defs><style>.cls-1{fill:none;}.cls-2{clip-path:url(#clip-path);}.cls-3{fill:#c9b29d;}.cls-3,.cls-5,.cls-6{fill-rule:evenodd;}.cls-4,.cls-5{fill:#2d2d2d;}.cls-6{fill:#f2eae4;}</style><clipPath id="clip-path"><rect id="face_clip" class="cls-1" x="1" y="1" width="280" height="280" rx="140"/></clipPath></defs><g class="cls-2"><g id="mouth_shocked1"><g id="lip_colour" data-name="lip colour"><path class="cls-3" d="M125.9,187.62c.81,2,5,6.4,7.21,6.69s8.14-.79,11-.51,7.31,1.53,9.34.09,8.77-5.73,9.58-8S153,178.56,150,178.14s-4.56,2.71-7.88,2.1-7.17-2.06-9.61-.62-2.76,3.3-3.8,4.4A42.1,42.1,0,0,0,125.9,187.62Z"/></g><g id="outine"><path class="cls-4" d="M168,185.57c-.82.07-1.63.07-2.45.07l-2.45,0c-.81,0-1.63,0-2.44-.05s-1.62-.15-2.44-.25v0a12.66,12.66,0,0,1,2.45-.2c.82,0,1.63.09,2.45.15l2.44.18c.81,0,1.63.12,2.44.12Z"/><path class="cls-4" d="M120,189.34a28.59,28.59,0,0,1,4.24-1.34,17.91,17.91,0,0,1,2.17-.49,12.62,12.62,0,0,1,2.22-.17v0a20.73,20.73,0,0,1-2.14.61c-.72.17-1.45.26-2.18.39a40,40,0,0,0-4.3,1Z"/><path class="cls-5" d="M126,187.62c2.09-1.22,11-3.65,16.34-4.31,5.08-.64,18.89.18,20.31,2.23.46.67-10.92,4.88-18.39,5.07-4.2.11-10.69-1.52-13.61-2A27.74,27.74,0,0,1,126,187.62Z"/><path class="cls-6" d="M127.84,186.89c-1.57.23,13-3.87,16.78-3.73s11.78.12,11.78.9-.13,1-1.42,1.42-15.94,2.19-17.54,1.87A78,78,0,0,0,127.84,186.89Z"/><path class="cls-4" d="M125.54,187.75c1-1.53,2-3.1,3.12-4.57a11.74,11.74,0,0,1,4.18-3.67,7,7,0,0,1,2.8-.6c1,.07,1.85.22,2.77.34l2.73.4c.45.07.91.13,1.34.17a5.8,5.8,0,0,0,1.23-.23c1.75-.48,3.49-1.1,5.27-1.6.45-.13.9-.25,1.37-.36.24,0,.47-.09.73-.12a2.78,2.78,0,0,1,.82,0,9.57,9.57,0,0,1,5.17,2.36c.71.59,1.43,1.13,2.14,1.74,1.41,1.18,2.81,2.39,4.18,3.62l-.06.08q-2.31-1.53-4.54-3.14l-2.25-1.6a10.92,10.92,0,0,0-2.27-1.36,11.71,11.71,0,0,0-2.54-.67,1.29,1.29,0,0,0-.55,0,5.44,5.44,0,0,0-.63.1c-.43.08-.87.19-1.31.3-1.77.45-3.52,1-5.34,1.43a6.35,6.35,0,0,1-1.48.21c-.49-.05-.94-.13-1.39-.21l-2.72-.47c-.9-.15-1.83-.32-2.7-.41A6.33,6.33,0,0,0,133,180a11.42,11.42,0,0,0-4.14,3.41c-1.16,1.41-2.18,2.95-3.27,4.43Z"/><path class="cls-4" d="M125.5,188c1.29,1.19,2.47,2.5,3.77,3.66a10.91,10.91,0,0,0,4.41,2.57,8.57,8.57,0,0,0,2.53,0c.86-.09,1.73-.22,2.6-.34a24.26,24.26,0,0,1,5.33-.26c1.78.15,3.51.53,5.21.75a7.37,7.37,0,0,0,1.21.07c.36,0,.82-.13,1.22-.21a10.38,10.38,0,0,0,2.36-.78,14.83,14.83,0,0,0,3.84-3.3,28,28,0,0,1,4-3.47l.06.08a47.62,47.62,0,0,0-3.53,3.86,14.16,14.16,0,0,1-3.91,3.71,9.84,9.84,0,0,1-2.6.92c-.46.08-.86.16-1.37.21a7.12,7.12,0,0,1-1.42-.11c-1.76-.29-3.45-.74-5.16-.94a24.15,24.15,0,0,0-5.16.12c-.87.09-1.74.2-2.63.27a9.11,9.11,0,0,1-2.7-.11,11.18,11.18,0,0,1-4.5-2.82c-1.27-1.24-2.39-2.58-3.63-3.81Z"/><path class="cls-4" d="M125.59,187.72a95.26,95.26,0,0,1,9.53,1.62,39.26,39.26,0,0,0,9.51.94,56.6,56.6,0,0,0,9.43-1.48,38,38,0,0,0,4.57-1.35,16.67,16.67,0,0,0,4.23-2.19l.06.07a13.11,13.11,0,0,1-4,2.76,28.15,28.15,0,0,1-4.6,1.68,40.35,40.35,0,0,1-9.65,1.31,39,39,0,0,1-9.64-1.26c-3.14-.73-6.25-1.56-9.44-2Z"/><path class="cls-4" d="M125.56,187.73a52.41,52.41,0,0,1,8.93-3.34,36.78,36.78,0,0,1,9.45-1.44,69.37,69.37,0,0,1,9.56.29,32.67,32.67,0,0,1,9.29,2.23l0,.1a56,56,0,0,0-9.36-1.33c-3.14-.23-6.29-.46-9.45-.49a37.87,37.87,0,0,0-9.34,1.11,55.11,55.11,0,0,0-9,3Z"/><path class="cls-4" d="M127.77,186.83a121.12,121.12,0,0,0,14.76-.13c2.45-.18,4.89-.5,7.34-.71l3.67-.33a7.62,7.62,0,0,0,1.76-.28,1.55,1.55,0,0,0,1.19-1.11h.1a1.38,1.38,0,0,1-.32.92,2.55,2.55,0,0,1-.79.6,6.67,6.67,0,0,1-1.83.57c-1.22.25-2.44.45-3.67.62a65.4,65.4,0,0,1-7.41.51,101.68,101.68,0,0,1-14.81-.56Z"/></g></g></g></svg>