<svg id="artwork" xmlns="http://www.w3.org/2000/svg" viewBox="0 0 282 282"><defs><style>.cls-1{fill:#d9cec5;}.cls-2{fill:#69564b;}.cls-3,.cls-4{fill:#2d2d2d;}.cls-4{fill-rule:evenodd;}.cls-5{fill:none;stroke:#2d2d2d;stroke-miterlimit:10;}.cls-6{fill:#f2eae4;}.cls-7{fill:#462e13;}</style></defs><g id="eyes_left1"><g id="white"><path class="cls-1" d="M170.93,118.9a49.11,49.11,0,0,1,12.39,4.34c14,6.69-7.93,13.82-15.07,13.26-4.4-.35-10.54-1.9-13.47-5.56-2.53-3.16-4.15-12.41.22-12.57C159.19,118.21,163.87,117.66,170.93,118.9Z"/><path class="cls-1" d="M120,115c5.62,2.24,12.31,7.49,10,12.22-4.3,8.68-13.94,10-22.1,7.58-5.56-1.67-9.79-6.45-8.63-11.08a11.46,11.46,0,0,1,3.59-5.32,17.47,17.47,0,0,1,5.23-3.34,16.9,16.9,0,0,1,10.84-.44C119.27,114.75,119.64,114.88,120,115Z"/></g><g id="iris"><path class="cls-2" d="M155.7,131.75c-2.78-2.07-4.36-10.87-3.17-13.79,3.17-.23,8.26,0,11.46.08,2.44,2.19.9,7.45-.15,9.35C162.22,130.32,156.15,132.09,155.7,131.75Z"/><path class="cls-2" d="M97.75,122a8.78,8.78,0,0,1,4.36-6c3-1.46,5.28,2.36,5.64,4.84.38,2.66-1.42,8.23-5.23,8.78-1.8,1.32-3.32-2.09-4-3.43A16.38,16.38,0,0,1,97.75,122Z"/></g><g id="iris_outline"><path class="cls-3" d="M159.72,129.62a37.19,37.19,0,0,1-3.86-4.46l-.06-.08s0,0,0-.06,0,0,0,0v0c-.08,0,0,0,0,.07l.13.15a43.11,43.11,0,0,1,3.7,4.34Z"/><path class="cls-3" d="M103.53,129.4c-.73-1.21-1.72-2.21-2.4-3.46a10.55,10.55,0,0,1,2.4,3.46Z"/><path class="cls-3" d="M161.41,118.67a14.4,14.4,0,0,1-3.36,1.37,6.33,6.33,0,0,1,1.64-.78s1.74-.67,1.72-.59Z"/><path class="cls-3" d="M106.13,118.22a14.4,14.4,0,0,1-3.36,1.37,6,6,0,0,1,1.64-.77s1.74-.67,1.72-.6Z"/><path class="cls-3" d="M162.64,126.43a28.69,28.69,0,0,1-4.32-2.72,12.16,12.16,0,0,1,2.22,1.27s2.18,1.42,2.1,1.45Z"/><path class="cls-3" d="M106.85,126a44.87,44.87,0,0,1-5.42-3.24,43.36,43.36,0,0,1,5.42,3.24Z"/><path class="cls-3" d="M164.17,121.23c-.9.18-1.85,0-2.76.14a9.47,9.47,0,0,1-2.76,0,26.77,26.77,0,0,1,5.52-.19Z"/><path class="cls-3" d="M107,120.53c-1.14.46-2.42.48-3.59.87a14.93,14.93,0,0,1-3.59.81c1.11-.29,2.35-.78,3.55-1s2.5-.36,3.63-.67Z"/><path class="cls-3" d="M156.61,131.61a10.26,10.26,0,0,0,7.86-12.68l.09,0c3.65,5.38-2.31,12.8-7.95,12.72Z"/><path class="cls-3" d="M100.55,129.75c7.61.62,8.59-11.41,3.08-14.76l0-.09c7.51,2.07,4.61,16.79-3.12,14.85Z"/></g><g id="pupil"><path class="cls-4" d="M99.77,126.8c-.88-.53-1.42-1.26-1.64-3.46-.36-3.53,3.82-6.71,5.64-2.74.82,1.8-.62,1.4-1.16,2.42-1.14,2.17.28,1.41,1.06,3.61C104.17,128,101.64,127.92,99.77,126.8Z"/><path class="cls-4" d="M154.41,125.56c-.87-.53-1.19-1.3-1.64-3.46-.64-3.07.19-4.59.19-4.59s4.76.33,5.45,1.84c.83,1.81-.62,1.41-1.16,2.42-1.14,2.18.28,1.42,1.06,3.62C158.81,126.79,156.28,126.68,154.41,125.56Z"/><path class="cls-4" d="M99.77,126.8c-.88-.53-1.42-1.26-1.64-3.46-.36-3.53,3.82-6.71,5.64-2.74.82,1.8-.62,1.4-1.16,2.42-1.14,2.17.28,1.41,1.06,3.61C104.17,128,101.64,127.92,99.77,126.8Z"/><path class="cls-4" d="M154.41,125.56c-.87-.53-1.19-1.3-1.64-3.46-.64-3.07.19-4.59.19-4.59s4.76.33,5.45,1.84c.83,1.81-.62,1.41-1.16,2.42-1.14,2.18.28,1.42,1.06,3.62C158.81,126.79,156.28,126.68,154.41,125.56Z"/><path class="cls-5" d="M99.77,126.8c-.88-.53-1.42-1.26-1.64-3.46-.36-3.53,3.82-6.71,5.64-2.74.82,1.8-.62,1.4-1.16,2.42-1.14,2.17.28,1.41,1.06,3.61C104.17,128,101.64,127.92,99.77,126.8Z"/><path class="cls-5" d="M154.41,125.56c-.87-.53-1.19-1.3-1.64-3.46-.64-3.07.19-4.59.19-4.59s4.76.33,5.45,1.84c.83,1.81-.62,1.41-1.16,2.42-1.14,2.18.28,1.42,1.06,3.62C158.81,126.79,156.28,126.68,154.41,125.56Z"/></g><g id="spec"><path class="cls-6" d="M166.26,121.18a1,1,0,0,1,.5.75,2.19,2.19,0,0,1-1.14,2.18,1.74,1.74,0,0,1-2.5-1.61C163.23,121.14,165.14,120.53,166.26,121.18Z"/><path class="cls-6" d="M109,119.92a1.05,1.05,0,0,1,.56.81,2.35,2.35,0,0,1-1.25,2.35,1.94,1.94,0,0,1-2.77-1.74C105.68,119.86,107.78,119.21,109,119.92Z"/></g><g id="outline"><path class="cls-3" d="M149.85,117.5c.85-.16,1.7-.34,2.56-.45s1.72-.15,2.58-.21c1.71-.11,3.43-.16,5.14-.11s3.42.19,5.12.34,3.47.38,5.18.67a53.15,53.15,0,0,1,10.1,2.53,16.07,16.07,0,0,1,4.59,2.8,41.14,41.14,0,0,1,3.62,3.74l-.1.12c-1.56-.77-3-1.68-4.49-2.49a24.49,24.49,0,0,0-4.42-2,81,81,0,0,0-9.63-2.82,35.89,35.89,0,0,0-5-.5c-1.7-.08-3.4-.16-5.09-.3s-3.39-.33-5.08-.54L152.4,118c-.85-.13-1.7-.31-2.55-.43Z"/><path class="cls-3" d="M188.05,128.42a25.09,25.09,0,0,1-10.24,7.48,23,23,0,0,1-12.69,1.29,17.36,17.36,0,0,1-6.05-2.28,14.09,14.09,0,0,1-4.58-4.54,15.67,15.67,0,0,1-2.16-6,24.33,24.33,0,0,1,0-6.38h0a22.07,22.07,0,0,0,.23,6.34,15.27,15.27,0,0,0,2.37,5.79,15.86,15.86,0,0,0,10.33,6.47,24.5,24.5,0,0,0,12.4-1.12,23.93,23.93,0,0,0,10.4-7Z"/><path class="cls-3" d="M163.8,109.7a15.4,15.4,0,0,0,0,2.88c0,.48.12,1,.14,1.43a11.69,11.69,0,0,1,0,1.45s0,0,0,0h0a4.92,4.92,0,0,1-.44-1.41,6.56,6.56,0,0,1,0-1.47,15.67,15.67,0,0,1,.38-2.9h.05Z"/><path class="cls-3" d="M168.4,111l0,1.87a4.9,4.9,0,0,1,0,.94,3.13,3.13,0,0,1-.32.9H168a3.56,3.56,0,0,1-.13-1,4.87,4.87,0,0,1,.15-.93l.36-1.83h.05Z"/><path class="cls-3" d="M174.77,111.92a12.85,12.85,0,0,0-.5,2.19c-.05.37-.06.74-.14,1.11a6.69,6.69,0,0,1-.32,1.09h-.05a3.53,3.53,0,0,1-.12-1.16,4.31,4.31,0,0,1,.24-1.12,13.1,13.1,0,0,1,.84-2.13h.05Z"/><path class="cls-3" d="M181.29,113.82l-.63,2.46a8.54,8.54,0,0,1-.36,1.22,5.65,5.65,0,0,1-.61,1.13h0l0,0a6,6,0,0,1,.19-1.27,9.05,9.05,0,0,1,.45-1.19l1-2.35h0Z"/><path class="cls-3" d="M188,116.16a18.31,18.31,0,0,1-1.06,3,8.19,8.19,0,0,1-.75,1.4,6,6,0,0,1-1.09,1.16h0l0,0c.21-.5.47-.94.71-1.4s.55-.87.82-1.31a18,18,0,0,0,1.36-2.79s0,0,0,0Z"/><path class="cls-3" d="M167.37,140.25a25.36,25.36,0,0,1-8.62-4.29,16,16,0,0,1-3.36-3.52,14.13,14.13,0,0,1-2-4.43s0,0,0,0a0,0,0,0,1,0,0,20.94,20.94,0,0,0,5.56,7.66,25,25,0,0,0,8.38,4.55.05.05,0,0,1,0,0S167.39,140.26,167.37,140.25Z"/><path class="cls-3" d="M179.08,137a24,24,0,0,0,4.35-3.2c.66-.61,1.27-1.28,1.9-1.91l1.89-1.94a0,0,0,0,1,0,0,0,0,0,0,1,0,0,12.8,12.8,0,0,1-1.57,2.25,15.43,15.43,0,0,1-2,1.87,25.17,25.17,0,0,1-4.58,3s0,0,0,0A0,0,0,0,1,179.08,137Z"/><path class="cls-3" d="M129.06,129.47a14.65,14.65,0,0,1-1.53,4.67,22.55,22.55,0,0,1-2.7,4.15,17.19,17.19,0,0,1-3.61,3.41,10.81,10.81,0,0,1-4.57,1.88s0,0,0,0l0,0a14.34,14.34,0,0,0,4.3-2.24,22.28,22.28,0,0,0,6.39-7.25,14.43,14.43,0,0,0,1.68-4.58s0,0,0,0S129.06,129.45,129.06,129.47Z"/><path class="cls-3" d="M101.68,111.41a17.44,17.44,0,0,0-6.7,7.14,14.64,14.64,0,0,0-1.27,4.71,19.5,19.5,0,0,0,.14,4.94s0,0,0,0l0,0a13.56,13.56,0,0,1-.59-5,12.68,12.68,0,0,1,1.41-4.85,17.57,17.57,0,0,1,7-7,0,0,0,0,1,0,0S101.7,111.41,101.68,111.41Z"/><path class="cls-3" d="M131.1,123.19a99.22,99.22,0,0,0-8.51-5.45,13.92,13.92,0,0,0-4.4-1.56,44.33,44.33,0,0,0-4.88-.37,20.62,20.62,0,0,0-4.66.49,15.34,15.34,0,0,0-2.05.62,21.22,21.22,0,0,0-2,.92c-.76.37-1.45.7-2,1a6.19,6.19,0,0,0-1.53,1.32c-1,1.16-2,2.63-3.07,4l-.37-.14a16.32,16.32,0,0,1,1-5.3,7.58,7.58,0,0,1,1.69-2.58,16.59,16.59,0,0,1,2.22-1.79,10.76,10.76,0,0,1,2.56-1.38,12.51,12.51,0,0,1,2.88-.63,23.8,23.8,0,0,1,5.5.22,42.08,42.08,0,0,1,5.19,1,15,15,0,0,1,4.89,2.45,74.5,74.5,0,0,1,7.73,6.81Z"/><path class="cls-3" d="M130.6,125.4a13.59,13.59,0,0,1-6.75,8.31,20.83,20.83,0,0,1-10.59,2.73,16.34,16.34,0,0,1-10.42-3.5,14.34,14.34,0,0,1-3.5-4.33,16.89,16.89,0,0,1-1.73-5.22l.1,0a21.67,21.67,0,0,0,2.23,4.89,15.12,15.12,0,0,0,3.53,3.9,17,17,0,0,0,9.81,3.48,20.5,20.5,0,0,0,10.34-2.36,13.42,13.42,0,0,0,6.88-7.91Z"/><path class="cls-3" d="M129.61,112.5l-.18,2.22a6.73,6.73,0,0,1-.12,1.1,4.7,4.7,0,0,1-.4,1.06h0a4.81,4.81,0,0,1-.05-1.13,6.7,6.7,0,0,1,.23-1.08l.52-2.17h.05Z"/><path class="cls-3" d="M126,110.51l-.07,2a6.5,6.5,0,0,1-.08,1,3.82,3.82,0,0,1-.35,1h-.05a4,4,0,0,1-.1-1,5.45,5.45,0,0,1,.18-1l.42-2H126Z"/><path class="cls-3" d="M122.77,107.71a12.69,12.69,0,0,1,.26,2.22,4.74,4.74,0,0,1,0,1.13,3.22,3.22,0,0,1-.42,1.06h0s0,0,0,0a7.08,7.08,0,0,1,0-1.12c0-.36.11-.71.15-1.07a13.45,13.45,0,0,0,.09-2.2h0Z"/><path class="cls-3" d="M118.42,106.92l.17,2.18a5.69,5.69,0,0,1,0,1.09,4.14,4.14,0,0,1-.22,1.09h0a4.61,4.61,0,0,1-.23-1.09,8,8,0,0,1,0-1.09l.18-2.18h0Z"/><path class="cls-3" d="M114.8,104.93a7.48,7.48,0,0,0-.5,3.07c0,.52.1,1,.13,1.55s.1,1,.13,1.57h0s0,0,0,0a4.38,4.38,0,0,1-.57-1.52,6.27,6.27,0,0,1,0-1.62,7.89,7.89,0,0,1,.86-3.09h0A0,0,0,0,1,114.8,104.93Z"/></g><g id="eyebrows"><path class="cls-7" d="M148.42,95.43c2.26-.31,4.14.6,6.22,1.15A122,122,0,0,1,172,103.72c7.61,3.55,15.3,7.17,21.14,13.42-8-2.44-14.83-7.21-22.49-10.4C164,104,157,101.88,150.56,98.51a7.29,7.29,0,0,1-2.58-2l.44-1.13Z"/><path class="cls-7" d="M133.86,109.11c-8.62-9.06-22.22-21.93-35.21-13.81a12.36,12.36,0,0,1,9.68-5.69c11.7-.67,22,9,25.53,19.5Z"/></g></g></svg>