<svg id="artwork" xmlns="http://www.w3.org/2000/svg" viewBox="0 0 282 282"><defs><style>.cls-1{fill:#d9cec5;}.cls-2{fill:#69564b;}.cls-3,.cls-4{fill:#2d2d2d;}.cls-4{fill-rule:evenodd;}.cls-5{fill:none;stroke:#2d2d2d;stroke-miterlimit:10;}.cls-6{fill:#f2eae4;}.cls-7{fill:#462e13;}</style></defs><g id="eyes_neutral7"><g id="white"><path class="cls-1" d="M103.18,116.14c-4.6,1.71-8,1.58-9.18,3s-1.11,6.24-.75,8.14,7.74,4.59,11.37,5.77,9.36.5,12.61.2,6.65-.64,8-1.42,3.4-.3,3.92-2.59a25.92,25.92,0,0,0-.43-9.23c-.58-1.9-1.95-5.31-6.27-5Z"/><path class="cls-1" d="M162.49,116c-4.67,1.94-8.3,1-9.42,2.49s-1.06,8.39-.63,10.36,5.8,2.82,9.56,3.94,12,1,15.34.63,6-.69,7.35-1.56,3.69-2.21,4.15-4.61.67-6,0-8-2.18-5.48-6.62-5.08Z"/></g><g id="iris"><path class="cls-2" d="M106.94,116.42c-4.13,1.17-5.21,7-4.15,9.31A7.89,7.89,0,0,0,110,130c3.17-.16,5.69-.52,7.46-1.77,1.58-1.12,2.78-4.64,2.27-6.34s-2.18-4.81-3.31-5.41S110.44,115.43,106.94,116.42Z"/><path class="cls-2" d="M166.87,116.63c-4.21,1.35-5.67,7.84-4.5,10.18s4.79,4.55,8.15,4.27,6.91-1.77,7.81-3.81,2.09-3.25,1.51-5-2-5.26-3.21-5.85S170.43,115.49,166.87,116.63Z"/></g><g id="iris_outline"><path class="cls-3" d="M110.79,122.34s0,0,.07,0,0,0,0,.07v1.74l0,1.85c0,.62,0,1.23-.08,1.84a12,12,0,0,1-.37,1.82h0a12.87,12.87,0,0,1-.08-1.86c0-.61.12-1.23.18-1.84l.36-3.55h0S110.79,122.35,110.79,122.34Z"/><path class="cls-3" d="M111.63,123.15l1,1.36c.33.44.64.91,1,1.34s.75.81,1.07,1.28a5.78,5.78,0,0,1,.8,1.49s0,0,0,0h0c-.41-.4-.77-.81-1.15-1.21a13.46,13.46,0,0,1-1-1.35c-.31-.48-.57-1-.85-1.46l-.83-1.45s0,0,0,0Z"/><path class="cls-3" d="M112.41,122.55h-.09l0-.06a32.27,32.27,0,0,0,3.27,1.12c.55.21,1.12.33,1.68.55a4.41,4.41,0,0,1,1.54,1,0,0,0,0,1,0,0h0c-.56-.2-1.11-.36-1.68-.51a9.72,9.72,0,0,1-1.66-.66,30.62,30.62,0,0,1-3.15-1.44l-.12-.06h.22v0S112.42,122.55,112.41,122.55Z"/><path class="cls-3" d="M111.79,121.78a8.18,8.18,0,0,1,2.25-1.93,13.4,13.4,0,0,1,1.24-.77c.44-.22.85-.46,1.31-.67h0v0a4.18,4.18,0,0,1-1.08,1.06,10.23,10.23,0,0,1-1.3.7,8.08,8.08,0,0,0-2.41,1.61h0A0,0,0,0,1,111.79,121.78Z"/><path class="cls-3" d="M110.83,122.15a2.09,2.09,0,0,1-.09-.78,6.62,6.62,0,0,0,0-.77l-.14-1.55a9.05,9.05,0,0,1-.06-1.56,4.38,4.38,0,0,1,.36-1.55h0c0,.53,0,1,.09,1.54s0,1,0,1.55l0,1.56c0,.51-.14,1,0,1.53,0,0,0,0,0,0Z"/><path class="cls-3" d="M109.39,123.16s0,0,0,0h0s0,0,0,0h0a6.89,6.89,0,0,1-1.32,1.1l-1.41,1c-.5.32-1,.6-1.51.86a6.16,6.16,0,0,0-1.42.92s0,0,0,0a0,0,0,0,1,0,0,3.05,3.05,0,0,1,1.2-1.34,17.45,17.45,0,0,1,1.57-.77l1.48-.84a6.51,6.51,0,0,0,1.4-1h0s0,0,0,0,0,0,0,0v0h0A0,0,0,0,1,109.39,123.16Z"/><path class="cls-3" d="M109.19,122a7.32,7.32,0,0,1-1.37-.69l-1.35-.72c-.44-.26-.93-.42-1.35-.69l-.64-.42a1.82,1.82,0,0,1-.6-.54l0,0h0a4,4,0,0,0,.71.25l.71.29a8,8,0,0,1,1.33.79l1.26.88a7.68,7.68,0,0,0,1.27.83s0,0,0,0A0,0,0,0,1,109.19,122Z"/><path class="cls-3" d="M171,122.29s0-.06.07-.06a.13.13,0,0,1,0,.08l0,.12v.24l0,.48,0,1,0,1.93a17.49,17.49,0,0,1,0,1.92,12.76,12.76,0,0,1-.3,1.92s0,0,0,0,0,0,0,0a11.4,11.4,0,0,1-.14-1.93c0-.65.08-1.29.12-1.93l.25-3.73s0,0,0,0Z"/><path class="cls-3" d="M171.93,123.11l1,1.39c.36.45.69.93,1.06,1.37s.79.83,1.14,1.3a6.28,6.28,0,0,1,.88,1.53,0,0,0,0,1,0,0h0c-.44-.41-.82-.82-1.23-1.24a13.34,13.34,0,0,1-1.07-1.38c-.33-.48-.61-1-.92-1.49l-.91-1.48s0,0,0,0S171.93,123.1,171.93,123.11Z"/><path class="cls-3" d="M172.72,122.45h-.1l0,0a32,32,0,0,0,3.4,1.07c.58.21,1.16.31,1.74.53a4.31,4.31,0,0,1,1.62.93s0,0,0,0,0,0,0,0a15,15,0,0,0-1.74-.5,11.18,11.18,0,0,1-1.73-.62c-1.07-.47-2.24-.81-3.29-1.4l-.11-.06h.21s0,0,0,0Z"/><path class="cls-3" d="M172.05,121.67a8.37,8.37,0,0,1,2.25-2.07,14.76,14.76,0,0,1,1.26-.86l1.31-.75,0,0a0,0,0,0,1,0,0,4.15,4.15,0,0,1-1.08,1.13,9.67,9.67,0,0,1-1.32.77,8.3,8.3,0,0,0-2.42,1.77h0A0,0,0,0,1,172.05,121.67Z"/><path class="cls-3" d="M171.08,122.09a2.11,2.11,0,0,1-.11-.82,7.22,7.22,0,0,0-.08-.8l-.19-1.62a10.84,10.84,0,0,1-.11-1.62,5.06,5.06,0,0,1,.31-1.63h0l0,0c.07.55.09,1.07.14,1.61s0,1.07,0,1.61l0,1.63a14.41,14.41,0,0,0,0,1.61l0,0Z"/><path class="cls-3" d="M169.63,123.19v0s0,0,0,0v0h0a6.77,6.77,0,0,1-1.32,1.19l-1.42,1.08c-.51.35-1,.66-1.53.95a5.88,5.88,0,0,0-1.42,1h0a0,0,0,0,1,0,0,3.06,3.06,0,0,1,1.19-1.42,15.61,15.61,0,0,1,1.59-.87l1.49-.92a7,7,0,0,0,1.41-1l0,0h0s0,0,0,0,0,0,0,0v0h0A0,0,0,0,1,169.63,123.19Z"/><path class="cls-3" d="M169.39,122a6.28,6.28,0,0,1-1.43-.68l-1.41-.71c-.47-.26-1-.41-1.42-.69l-.67-.41a1.77,1.77,0,0,1-.63-.53s0,0,0,0,0,0,0,0a3.49,3.49,0,0,0,.73.25c.26.08.5.19.75.28a9.5,9.5,0,0,1,1.39.78l1.32.88a8.68,8.68,0,0,0,1.34.83v0S169.39,122,169.39,122Z"/><path class="cls-3" d="M107,116.2a14.62,14.62,0,0,0-3.6,4.16,6.19,6.19,0,0,0-.46,5.27,6.53,6.53,0,0,0,3.91,3.56,12,12,0,0,0,5.39.66,9.57,9.57,0,0,0,5-1.76,5.84,5.84,0,0,0,2.22-4.64,8.35,8.35,0,0,0-1.71-5,7.13,7.13,0,0,0-4.5-2.87s-.06,0-.06,0a.06.06,0,0,1,.06,0,7,7,0,0,1,4.77,2.71,8.63,8.63,0,0,1,1.94,5.25,6.15,6.15,0,0,1-2.42,5,9.92,9.92,0,0,1-5.32,1.77,12.45,12.45,0,0,1-5.54-.77,6.79,6.79,0,0,1-4-3.77,6.39,6.39,0,0,1,.55-5.42,14.86,14.86,0,0,1,3.69-4.13s.06,0,.06,0S107.06,116.18,107,116.2Z"/><path class="cls-3" d="M167.89,115.52a15.34,15.34,0,0,0-4,3.71,7.81,7.81,0,0,0-1.61,5.1,6.56,6.56,0,0,0,2.51,4.63,9.67,9.67,0,0,0,5,2,9.26,9.26,0,0,0,9-4.68,7.06,7.06,0,0,0,.63-5.2,11.18,11.18,0,0,0-2.77-4.64s0,0,0-.06,0,0,.06,0A10.56,10.56,0,0,1,179.7,121a7.36,7.36,0,0,1-.53,5.52,9.47,9.47,0,0,1-9.5,4.85,10,10,0,0,1-5.11-2.18,6.86,6.86,0,0,1-2.54-4.85,8.1,8.1,0,0,1,1.72-5.2,15.51,15.51,0,0,1,4.12-3.67s.06,0,.07,0S167.92,115.5,167.89,115.52Z"/></g><g id="pupil"><path class="cls-4" d="M111.12,122.55l1.91,1.62a2.62,2.62,0,0,1-3.6.26,2.44,2.44,0,0,1-.21-3.5,2.62,2.62,0,0,1,3.6-.26,2.34,2.34,0,0,1,.7,1Z"/><path class="cls-4" d="M170.89,122.47l2,1.64a2.66,2.66,0,0,1-3.69.38,2.58,2.58,0,0,1-.33-3.65,2.65,2.65,0,0,1,3.69-.38,2.47,2.47,0,0,1,.76,1Z"/><path class="cls-4" d="M111.12,122.55l1.91,1.62a2.62,2.62,0,0,1-3.6.26,2.44,2.44,0,0,1-.21-3.5,2.62,2.62,0,0,1,3.6-.26,2.34,2.34,0,0,1,.7,1Z"/><path class="cls-4" d="M170.89,122.47l2,1.64a2.66,2.66,0,0,1-3.69.38,2.58,2.58,0,0,1-.33-3.65,2.65,2.65,0,0,1,3.69-.38,2.47,2.47,0,0,1,.76,1Z"/><path class="cls-5" d="M111.12,122.55l1.91,1.62a2.62,2.62,0,0,1-3.6.26,2.44,2.44,0,0,1-.21-3.5,2.62,2.62,0,0,1,3.6-.26,2.34,2.34,0,0,1,.7,1Z"/><path class="cls-5" d="M170.89,122.47l2,1.64a2.66,2.66,0,0,1-3.69.38,2.58,2.58,0,0,1-.33-3.65,2.65,2.65,0,0,1,3.69-.38,2.47,2.47,0,0,1,.76,1Z"/></g><g id="spec"><ellipse class="cls-6" cx="115.67" cy="119.96" rx="2.66" ry="2.44" transform="translate(-33.31 194.64) rotate(-72.67)"/><ellipse class="cls-6" cx="176.04" cy="119.76" rx="2.48" ry="2.81" transform="translate(55.15 295.03) rotate(-89.63)"/></g><g id="outline"><path class="cls-3" d="M153.38,130a2.28,2.28,0,0,1-1-1.16,6.94,6.94,0,0,1-.42-1.48,15.55,15.55,0,0,1-.31-3,12.61,12.61,0,0,1,.3-3.06,10.71,10.71,0,0,1,1.12-2.86s0,0,0,0a0,0,0,0,1,0,0c-.26,1-.52,2-.69,2.94a24.61,24.61,0,0,0-.38,3,16,16,0,0,0,.13,3,3.48,3.48,0,0,0,1.21,2.63s0,0,0,0S153.39,130,153.38,130Z"/><path class="cls-3" d="M186.17,130.65a5.22,5.22,0,0,0,2.43-3,10.11,10.11,0,0,0,.52-3.86,23.15,23.15,0,0,0-.58-3.88,26.82,26.82,0,0,0-1.18-3.76,0,0,0,0,1,0,0,0,0,0,0,1,0,0,13.49,13.49,0,0,1,1.62,3.66,15.37,15.37,0,0,1,.5,4,10.43,10.43,0,0,1-.71,4,5.32,5.32,0,0,1-2.62,2.93s0,0,0,0A0,0,0,0,1,186.17,130.65Z"/><path class="cls-3" d="M189.23,130.34a45.78,45.78,0,0,1-18,3.66,42.73,42.73,0,0,1-9.23-.95,38.62,38.62,0,0,1-8.75-3s0,0,0,0h0a51.91,51.91,0,0,0,8.83,2.6,51,51,0,0,0,9.13,1,45.48,45.48,0,0,0,18-3.31s0,0,.06,0S189.25,130.33,189.23,130.34Z"/><path class="cls-3" d="M121.48,107.2l.26,2.56a9.32,9.32,0,0,1,.09,1.29,5.73,5.73,0,0,1-.18,1.29h-.05a6,6,0,0,1-.27-1.28,11.1,11.1,0,0,1,0-1.29l.09-2.58h0Z"/><path class="cls-3" d="M114.94,107.85a8.78,8.78,0,0,1,.66,2.09,4.07,4.07,0,0,1,.11,1.1,3,3,0,0,1-.31,1.08h-.05a8.19,8.19,0,0,1-.14-1.08c0-.34,0-.7,0-1a9,9,0,0,0-.32-2.11h0Z"/><path class="cls-3" d="M108.36,108.22l.56,2.1a6.27,6.27,0,0,1,.24,1.06,4.52,4.52,0,0,1,0,1.1h0a4.23,4.23,0,0,1-.42-1,6.53,6.53,0,0,1-.15-1.08l-.21-2.16h0S108.36,108.22,108.36,108.22Z"/><path class="cls-3" d="M99,107.26l1,3a13.89,13.89,0,0,1,.45,1.52,9.21,9.21,0,0,1,.18,1.59h0a9,9,0,0,1-.62-1.47c-.16-.51-.24-1-.35-1.55l-.62-3.1s0,0,0,0Z"/><path class="cls-3" d="M157.73,108.46l.16,2.54a10.61,10.61,0,0,1,0,1.26,5.6,5.6,0,0,1-.24,1.26h-.05a5.53,5.53,0,0,1-.21-1.26,8.93,8.93,0,0,1,.06-1.27l.19-2.53h0Z"/><path class="cls-3" d="M177,106.59c-.06,1.09-.07,2.17,0,3.25,0,.54.06,1.08,0,1.62a12.72,12.72,0,0,1-.17,1.62s0,0,0,0h0a7.62,7.62,0,0,1-.28-1.63,11.11,11.11,0,0,1,.06-1.63c.08-1.09.22-2.17.39-3.24,0,0,0,0,0,0Z"/><path class="cls-3" d="M170.35,107.18a9.7,9.7,0,0,1,.37,2.46,5.23,5.23,0,0,1-.09,1.25,3.64,3.64,0,0,1-.51,1.16h-.05c0-.43,0-.82.07-1.23s.13-.78.18-1.18a10.4,10.4,0,0,0,0-2.43h0Z"/><path class="cls-3" d="M164.66,106.2a32.37,32.37,0,0,1,.14,3.42,10.84,10.84,0,0,1-.11,1.71,8,8,0,0,1-.46,1.66h0l0,0a13.92,13.92,0,0,1,0-1.71c0-.56.14-1.12.2-1.68a31.8,31.8,0,0,0,.21-3.39s0,0,0,0S164.66,106.19,164.66,106.2Z"/><path class="cls-3" d="M94.13,129.85a12,12,0,0,1-1.5-4.18,8.39,8.39,0,0,1-.12-2.24,7,7,0,0,1,.57-2.17s0,0,0,0l0,0c0,.75-.12,1.46-.12,2.19s-.05,1.44,0,2.17a11.76,11.76,0,0,0,1.16,4.2l0,0A0,0,0,0,1,94.13,129.85Z"/><path class="cls-3" d="M128.52,131a17.4,17.4,0,0,0,.76-7.4,22.78,22.78,0,0,0-.77-3.65,26.81,26.81,0,0,0-1.27-3.51s0,0,0,0h0a12.92,12.92,0,0,1,1.71,3.4,15,15,0,0,1,.69,3.75,17.84,17.84,0,0,1-1.11,7.46h0S128.52,131,128.52,131Z"/><path class="cls-3" d="M93.23,127.69a24.24,24.24,0,0,0,4.29,2.37,34.61,34.61,0,0,0,4.63,1.58,45.89,45.89,0,0,0,9.67,1.48,39.52,39.52,0,0,0,9.71-.74,19.86,19.86,0,0,0,8.93-3.68s0,0,.06,0a.09.09,0,0,1,0,.05c-2.38,2.33-5.68,3.41-8.86,4.13a34.91,34.91,0,0,1-9.83.65,47,47,0,0,1-9.71-1.66,36.53,36.53,0,0,1-4.63-1.67,24.42,24.42,0,0,1-4.26-2.46s0,0,0,0S93.21,127.68,93.23,127.69Z"/><path class="cls-3" d="M91.22,121.15a29.54,29.54,0,0,1,8.66-4.69,47.35,47.35,0,0,1,9.68-2.22,37.19,37.19,0,0,1,9.87-.4,44.35,44.35,0,0,1,4.84.91,27.32,27.32,0,0,1,4.73,1.57l0,.28a30.57,30.57,0,0,1-4.91.79c-1.62.15-3.22.23-4.81.31-3.17.15-6.3-.27-9.45-.23a50.61,50.61,0,0,0-9.34,1,40.4,40.4,0,0,0-9,3Z"/><path class="cls-3" d="M189.79,115.72c-1.54.17-3.08.2-4.62.29s-3.06.21-4.59.34c-3.06.25-6.11.59-9.14,1s-6,1.13-9.07,1.29c-1.52.08-3.05.13-4.6.11a23.29,23.29,0,0,1-2.35-.13c-.79,0-1.58-.12-2.38-.2l0-.28a37.4,37.4,0,0,1,4.38-1.9,42.14,42.14,0,0,1,4.54-1.2,47.6,47.6,0,0,1,9.32-.56c3.11-.06,6.22,0,9.32.16,1.55.08,3.09.19,4.64.32s3.08.24,4.61.53Z"/></g><g id="eyebrows"><path class="cls-7" d="M128.12,101.45c-4.13-.34-7.83-2.23-11.85-3-8.44-1.84-16.24,2.79-23.7,6.11A26.74,26.74,0,0,1,87,106.2c4.66-6.58,12.24-9.42,19.63-11.85a20.16,20.16,0,0,1,9.3-1,38.08,38.08,0,0,1,11,4.55,6.29,6.29,0,0,1,2.17,2.33l-.92,1.21Z"/><path class="cls-7" d="M191.93,104a62.13,62.13,0,0,0-13.08-6c-6.32-1.75-13.09-1-19.41.48-3.9.91-7.78,1.84-11.83,1,5.07-5.63,9.95-6,17-6.6,10.58-1.22,14.81.39,23.59,6.13a27.84,27.84,0,0,1,4.92,3.78L191.93,104Z"/></g></g></svg>