<svg id="artwork" xmlns="http://www.w3.org/2000/svg" viewBox="0 0 282 282"><defs><style>.cls-1,.cls-4{fill:#2d2d2d;}.cls-1,.cls-2{fill-rule:evenodd;}.cls-2{fill:#bfa18b;}.cls-3{fill:#f2eae4;}</style></defs><g id="mouth_shocked2"><g id="Layer_88" data-name="Layer 88"><path class="cls-1" d="M163.11,183s-3.78,4.64-5,5-13.71,3.42-14.82,2.85-12.53-2.92-12.53-2.92L127,185.72l-.18-2.66,6-2.59,12.47-1.08,11.82.7Z"/></g><g id="lip_colour" data-name="lip colour"><path class="cls-2" d="M150.64,174.55c-3.17-.62-7.87,2.56-7.87,2.56s-4-2.87-6.78-2c-3,1-7,4.4-8.1,5.59-1.27,1.37-2.79,5.14-2.79,5.14,1.66,2.31,5.18,8.21,7.45,8.54s7.89.35,10.79.67,9.91,0,12.12-1.44c5.94-3.76,8.22-10.63,8.22-10.63a16.63,16.63,0,0,0-5.18-5.52A21.44,21.44,0,0,0,150.64,174.55Zm7.1,11.84c-3.61,1.58-9.69,2.26-12.55,2.43a30.52,30.52,0,0,1-12.33-1.88A41,41,0,0,0,126.7,185a17.82,17.82,0,0,1,4-1.84,44.92,44.92,0,0,1,6.54-1.32c2.78-.36,5.46-.68,8.25-.89a72.91,72.91,0,0,1,10.65.83c3.61.51,6.69,1.27,6.69,1.27A28.92,28.92,0,0,1,157.74,186.39Z"/></g><g id="teeth"><path class="cls-3" d="M160.93,182.58a11.25,11.25,0,0,1-4.77,1.31c-.92.07-3.17.3-4.37.25s-5.69.18-6.84.18-7.27.19-8.17.14-4.86.13-4.86.13l-.13-1.72s13.85-1.8,15.3-1.88S159.34,182,160.93,182.58Z"/></g><g id="outine"><path class="cls-4" d="M168.4,183.07a23.45,23.45,0,0,1-2.91.22,10,10,0,0,1-1.45,0,8.07,8.07,0,0,1-1.45-.28V183a6.61,6.61,0,0,1,1.46-.17,13.91,13.91,0,0,1,1.44.09c1,.07,1.93.12,2.9.13Z"/><path class="cls-4" d="M119.55,186.57c1.43-.25,2.84-.57,4.24-.91.71-.18,1.4-.39,2.12-.51a13,13,0,0,1,2.17-.25v0a17.26,17.26,0,0,1-2.07.68c-.7.19-1.43.3-2.14.42a39.46,39.46,0,0,1-4.33.57Z"/><path class="cls-4" d="M125.11,185.56a13.11,13.11,0,0,1,2.84-5,21.91,21.91,0,0,1,4.28-3.88,11.83,11.83,0,0,1,5.39-2.23l.38,0a1.82,1.82,0,0,1,.44.08,6.74,6.74,0,0,1,.72.26c.45.2.88.42,1.31.65l1.27.7,1,.62.17-.1.38-.2c.88-.47,1.77-.92,2.68-1.35a14.87,14.87,0,0,1,2.9-1.08,2.94,2.94,0,0,1,.46-.05h.26l.19,0,.73.13,1.48.26a25.75,25.75,0,0,1,2.94.73,14.61,14.61,0,0,1,2.81,1.23,14.93,14.93,0,0,1,2.42,1.86,19.6,19.6,0,0,1,2.1,2.17,7.14,7.14,0,0,1,1.42,2.66l-.09,0a7.53,7.53,0,0,0-1.67-2.39,22.45,22.45,0,0,0-2.21-1.93,15.8,15.8,0,0,0-2.39-1.63,13.64,13.64,0,0,0-2.68-1c-.93-.27-1.89-.48-2.85-.67l-1.46-.28-.73-.13-.18,0h-.1a1.58,1.58,0,0,0-.28,0,14.13,14.13,0,0,0-2.7.92c-.91.38-1.8.8-2.68,1.24l-1,.49-1.4-.88-1.23-.72c-.41-.23-.83-.45-1.25-.65a4.47,4.47,0,0,0-.62-.25,1,1,0,0,0-.26-.06l-.34,0a11.43,11.43,0,0,0-5.16,2,21.7,21.7,0,0,0-4.32,3.68,13.13,13.13,0,0,0-3,4.82Z"/><path class="cls-4" d="M125.06,185.86a33.16,33.16,0,0,1,3.57,4.94,11.19,11.19,0,0,0,2,2.27,5.59,5.59,0,0,0,2.61,1.26,38.8,38.8,0,0,0,6,.47c2,0,4,0,6.08,0s4.1,0,6-.17a12.94,12.94,0,0,0,5.37-2.18,16.66,16.66,0,0,0,4.13-4.2,27.09,27.09,0,0,0,2.81-5.33l.1,0a21.71,21.71,0,0,1-2.32,5.68,16.07,16.07,0,0,1-4.14,4.64,12.55,12.55,0,0,1-5.82,2.34c-2.12.18-4.12,0-6.15,0s-4.07,0-6.1-.1a39.22,39.22,0,0,1-6.1-.65,6.09,6.09,0,0,1-2.78-1.44,11.69,11.69,0,0,1-1.93-2.4,33.91,33.91,0,0,0-3.39-5Z"/><path class="cls-4" d="M125,185.51a3.18,3.18,0,0,1,2.38-.55,22.53,22.53,0,0,1,2.45.47,39.66,39.66,0,0,1,4.63,1.8,11.39,11.39,0,0,0,2.39.56l2.45.41a18.44,18.44,0,0,0,4.9.35,43.16,43.16,0,0,0,9.79-1.21,26.08,26.08,0,0,0,4.61-1.72,29.41,29.41,0,0,0,4.22-2.58l0,0a23.75,23.75,0,0,1-4.09,2.85,23.32,23.32,0,0,1-4.63,1.89c-3.22,1-6.62,1-9.9,1.13a18.45,18.45,0,0,1-5-.43l-2.44-.44a11.85,11.85,0,0,1-2.43-.61,37.6,37.6,0,0,0-4.59-1.89,22.69,22.69,0,0,0-2.42-.52,3.15,3.15,0,0,0-2.34.49Z"/><path class="cls-4" d="M126,185.43a21.21,21.21,0,0,1,8.86-3.28c1.57-.27,3.14-.49,4.71-.68s3.15-.38,4.74-.49a39.93,39.93,0,0,1,4.77-.09,42.1,42.1,0,0,1,4.76.3,55.86,55.86,0,0,1,9.33,1.87v.05a87.74,87.74,0,0,0-9.38-1.42c-1.57-.16-3.14-.27-4.72-.31a41.46,41.46,0,0,0-4.73,0c-1.57.09-3.15.24-4.72.41s-3.15.36-4.71.61a21.1,21.1,0,0,0-8.88,3.08Z"/><path class="cls-4" d="M131.79,183l.18,1.59,13.82-.54c2.58-.1,5.16-.23,7.75-.27,1.28,0,2.6,0,3.84-.16.64-.1,1.28-.2,1.91-.34.31-.07.62-.14.93-.24s.65-.2.75-.48H161c-.09.37-.48.47-.75.62s-.62.23-.93.32c-.62.19-1.26.33-1.89.47a37,37,0,0,1-3.89.31c-2.59.1-5.17.12-7.76.17l-13.92.23-.14-1.68Z"/></g></g></svg>