<svg id="artwork" xmlns="http://www.w3.org/2000/svg" viewBox="0 0 282 282"><defs><style>.cls-1{fill:#bfa18b;fill-rule:evenodd;}.cls-2{fill:#2d2d2d;}</style></defs><g id="mouth_neutral4"><g id="lip_colour" data-name="lip colour"><path class="cls-1" d="M126.45,180.89a13.78,13.78,0,0,0,4.18,4.87c2.05,1.27,6.88,2.26,9.81,2.47s10.87-.24,13-1.28,4.5-4.11,5.34-5.78c.35-.71,4.34-.06,3.11-1-1.79-1.3-8-5.12-9.8-5.3a49,49,0,0,0-9.78.24c-4.43.48-6.47-.6-8.6.09a43,43,0,0,0-9.09,4.94C123.74,181,126.45,180.89,126.45,180.89Z"/></g><g id="outine"><path class="cls-2" d="M165.23,180.38a6.33,6.33,0,0,1-2.83.47,22.64,22.64,0,0,0-2.85.12,8,8,0,0,0-2.79.18,25.87,25.87,0,0,1-5.66,1.09c-4.46.14-9.85-.35-14.3-.2-5.54,0-11.61-1.13-17.13-1.13v-.1c5.68-.76,11.46.08,17.14.24,3.31,0,8.09.38,11.44.56a22.18,22.18,0,0,0,5.64-.25c1.89-.31,3.75-1,5.66-.69,1.8-.23,3.93.33,5.63-.37l.06.08Z"/><path class="cls-2" d="M123.55,180.29c3.55-.42,5.82-3.6,8.85-5.15,1.65-.73,3.52-.46,5.23-.29,3.5.49,6.79-.76,10.27-.86a15.63,15.63,0,0,1,5.28.75c3.24,1.53,5.69,3.9,8.82,5.56l-.05.09a31.07,31.07,0,0,1-4.66-2.31,31,31,0,0,0-4.46-2.43,20.34,20.34,0,0,0-7.46-.55,29.74,29.74,0,0,1-10.35.08c-3.61-.2-5.86,3.21-9,4.51a6.08,6.08,0,0,1-2.5.7v-.1Z"/><path class="cls-2" d="M158.79,181.17c-.49,1.92-2,3.45-3.42,4.76-6.42,3.88-14.81,3.72-21.89,1.93a9,9,0,0,1-4-2.7,22,22,0,0,1-2.84-3.77l.08-.06c2,2.2,4.13,4.85,7,5.62,7,1.51,14.94,2.31,21.45-1.33a10.33,10.33,0,0,0,3.52-4.45Z"/></g></g></svg>