<svg id="artwork" xmlns="http://www.w3.org/2000/svg" viewBox="0 0 282 282"><defs><style>.cls-1{fill:#bfa18b;fill-rule:evenodd;}.cls-2{fill:#2d2d2d;}</style></defs><g id="mouth_sad1"><g id="lip_colour" data-name="lip colour"><path class="cls-1" d="M126.15,182.14c.83,1.47,2.3,5.44,4.6,5.65s7.94-.63,10.87-.42,9,1,11.09,0a17.64,17.64,0,0,0,6.06-5.65c.84-1.67-3.62-6.51-6.72-6.81s-6.73,2.26-10.15,1.82-5.72-2.53-8.23-1.49a25.67,25.67,0,0,0-6.27,4A7.22,7.22,0,0,0,126.15,182.14Z"/></g><g id="outline"><path class="cls-2" d="M125.88,180.48c1.93-1.47,3.54-3.32,5.5-4.77a6.89,6.89,0,0,1,7.19-.14,4.27,4.27,0,0,0,4.31.52c5.3-1.52,9.49-3.55,13.86,1.24l3.46,3.41-.07.07c-7.95-6-7-6.64-17-3.95a7.4,7.4,0,0,1-2.52.31,5.48,5.48,0,0,1-2.33-1,6.44,6.44,0,0,0-6.62-.08c-1.73,1-4.25,3.82-5.73,4.44Z"/><path class="cls-2" d="M167.47,185.29a14.61,14.61,0,0,0-8.14-4.56,8.44,8.44,0,0,0-3.07.54,28,28,0,0,1-6.42-.15,207,207,0,0,0-25.4.53,27.82,27.82,0,0,0-6.19,1.29l0-.09a21.48,21.48,0,0,1,6.12-1.92c8.46-1.49,17-.74,25.56-.41a29.1,29.1,0,0,0,6.29.33,8.62,8.62,0,0,1,3.19-.43,14,14,0,0,1,1.55.45,14.27,14.27,0,0,1,6.62,4.35l-.07.07Z"/><path class="cls-2" d="M158.56,180.78a11,11,0,0,1-2.72,3.64,8.38,8.38,0,0,1-3.87,2.43c-3,.9-6.08-.3-9.07-.13-4.29.1-9.6,2.4-13.57-.48a6.58,6.58,0,0,1-1.84-4.24l.1,0a7.08,7.08,0,0,0,2.21,3.69c4,2.19,8.67.12,13.09.25,3.12-.06,6.06,1.25,9,.5,2.21-.42,3.89-2.2,5.37-3.8a6,6,0,0,0,1.23-1.85Z"/></g></g></svg>