<svg id="artwork" xmlns="http://www.w3.org/2000/svg" viewBox="0 0 282 282"><defs><style>.cls-1{fill:#d9cec5;}.cls-2{fill:#ddcab4;}.cls-2,.cls-5{fill-rule:evenodd;}.cls-3{fill:#806172;}.cls-4,.cls-5{fill:#2d2d2d;}.cls-6{fill:none;stroke:#2d2d2d;stroke-miterlimit:10;}.cls-7{fill:#f2eae4;}</style></defs><g id="eyes_sad4"><g id="white"><path class="cls-1" d="M111.74,122.34c-.39.17-3,.9-3.35,1.12-2.51,1.43-5.47,2.3-6.26,4.39-1.68,4.44,1,11.41,1,11.41s8.77,5,16.45,4.49c3.88-.27,10.46-5.16,10.46-5.16l.36-6.59-.32-3.06-1.4-3.72A53.31,53.31,0,0,0,121.3,122,13.83,13.83,0,0,0,111.74,122.34Z"/><path class="cls-1" d="M173.23,124a6.54,6.54,0,0,0,1.38.45,8,8,0,0,1,5.55,4.76A14.47,14.47,0,0,1,181.5,135a14.44,14.44,0,0,1-1.5,5.23s-9.12,5.18-16.64,4.19c-3.84-.5-10.57-5-10.57-5a13.89,13.89,0,0,1-1.47-5.08c-.32-4,.12-7.79,1.62-9.47a17.22,17.22,0,0,1,7.73-4.77C164.31,119,169.49,122.24,173.23,124Z"/></g><g id="eyelids"><path class="cls-2" d="M151.54,128.25s9.28-1.64,10.67-1.78a35.75,35.75,0,0,1,12.7,1.19c.64.19,5.81,2.43,5.81,2.43a13,13,0,0,0-1.81-3.57,21,21,0,0,0-5-3.85,20.55,20.55,0,0,0-20.68.27C152.51,123.39,151.54,128.25,151.54,128.25Z"/><path class="cls-2" d="M128.6,125.16a14.41,14.41,0,0,0-6.44-3c-7.7-.77-13.34-.51-19.16,4.15-.68.54-1.28,2.89-1.28,2.89s7.76-2.07,9.4-2.24a49.85,49.85,0,0,1,12.2-.16c.66.1,6.48,1,6.33.57"/></g><g id="iris"><path class="cls-3" d="M115.65,143.94a8.91,8.91,0,0,1-6.42-5.46c-1.6-4.48,6.38-7.89,11.22-5.62a6.63,6.63,0,0,1,3.26,4C125.33,141.71,120.35,144.64,115.65,143.94Z"/><path class="cls-3" d="M171.11,143.33c-1.86,1.52-6.28,1.64-9.44.36-5.24-2.11-3.4-9.52,1.68-11.09a9.33,9.33,0,0,1,5.92.54C174.44,135.39,174.08,140.9,171.11,143.33Z"/></g><g id="iris_outline"><path class="cls-4" d="M110.3,138.57a44.64,44.64,0,0,1,6.84.19c0,.06,0,0,0,0v0a58.83,58.83,0,0,1-6.79-.2Z"/><path class="cls-4" d="M112.82,133.36c1.26,1.61,3.28,3.78,4.33,5.32a31.85,31.85,0,0,1-4.33-5.32Z"/><path class="cls-4" d="M122.62,134.67A31.24,31.24,0,0,1,118,137.6l0,0h.08s0,0-.16.09c1.32-1.33,3.25-1.9,4.68-3Z"/><path class="cls-4" d="M118,133.2c-.68,1.43-.3,3.21-1.33,4.51.51-1.41.58-3.21,1.33-4.51Z"/><path class="cls-4" d="M122.61,139.74a27.37,27.37,0,0,1-6.41-1.52c2.12.32,4.34,1.15,6.41,1.52Z"/><path class="cls-4" d="M114.15,142.72a28.06,28.06,0,0,1,2.88-4.15,11,11,0,0,1-1.36,2.13s-1.49,2.1-1.52,2Z"/><path class="cls-4" d="M119.66,142.61a48.63,48.63,0,0,1-3.87-4.75,33.88,33.88,0,0,1,3.87,4.75Z"/><path class="cls-4" d="M119.18,143.68c5.69-1.2,6.25-7.72,1.46-10.49-2.76-1.52-6.31-.45-8.81,1.06-3,1.86-2.69,5.38-.11,7.41a9.67,9.67,0,0,0,4.28,2v.1c-5.58.06-10.5-6.47-4.72-10.31,4.4-2.72,11-2.54,12.79,3.1,1.2,3.51-1.41,6.74-4.86,7.27l0-.1Z"/><path class="cls-4" d="M162.78,143.33a39.1,39.1,0,0,1,3.83-4.2s.35-.33.28-.16h0l-.08.08-.13.14a41.38,41.38,0,0,1-3.88,4.15Z"/><path class="cls-4" d="M168.53,143.85a41.57,41.57,0,0,1-2.57-5.07c0-.05-.18-.45,0-.32l0,0c0-.07,0,.07,0,.1l.09.17a42.17,42.17,0,0,1,2.5,5.1Z"/><path class="cls-4" d="M159.1,140.21c2.07-.29,5.09-1,7.1-1.16a35,35,0,0,1-7.1,1.16Z"/><path class="cls-4" d="M166.34,133.22a38.73,38.73,0,0,1,0,5.05h0l0-.07,0,0,0,.14a7.65,7.65,0,0,1-.1-2.61s0-2.58.08-2.53Z"/><path class="cls-4" d="M161.24,135c1,1.36,2.4,2.39,3.12,3.94a27.42,27.42,0,0,1-3.12-3.94Z"/><path class="cls-4" d="M171.52,133.71a29.43,29.43,0,0,1-3.33,4.22c-.16.16-.37.49-.59.51,1.13-1.65,2.78-3.13,3.92-4.73Z"/><path class="cls-4" d="M172.76,139.94a51.67,51.67,0,0,1-6.24-.57,34.41,34.41,0,0,1,6.24.57Z"/><path class="cls-4" d="M171.66,142.86c6.84-10.55-12.27-14.61-12.65-3.5a5.26,5.26,0,0,0,2.83,3.74,9.5,9.5,0,0,0,9.83-.25l.06.08c-4.5,4.67-16.39,1.19-13.17-6.3,4.3-9.3,20.14-2.87,13.1,6.23Z"/></g><g id="pupil"><path class="cls-5" d="M118.69,139.08l.47,1.29a3.45,3.45,0,0,1-4,.43,2,2,0,0,1,0-3.22,3.48,3.48,0,0,1,4-.42,1.89,1.89,0,0,1,.71.88Z"/><path class="cls-5" d="M167.74,139.75l.47,1.29a3.47,3.47,0,0,1-4.05.42,2,2,0,0,1,0-3.21,3.47,3.47,0,0,1,4-.43,1.9,1.9,0,0,1,.72.88Z"/><path class="cls-5" d="M118.69,139.08l.47,1.29a3.45,3.45,0,0,1-4,.43,2,2,0,0,1,0-3.22,3.48,3.48,0,0,1,4-.42,1.89,1.89,0,0,1,.71.88Z"/><path class="cls-5" d="M167.74,139.75l.47,1.29a3.47,3.47,0,0,1-4.05.42,2,2,0,0,1,0-3.21,3.47,3.47,0,0,1,4-.43,1.9,1.9,0,0,1,.72.88Z"/><path class="cls-6" d="M118.69,139.08l.47,1.29a3.45,3.45,0,0,1-4,.43,2,2,0,0,1,0-3.22,3.48,3.48,0,0,1,4-.42,1.89,1.89,0,0,1,.71.88Z"/><path class="cls-6" d="M167.74,139.75l.47,1.29a3.47,3.47,0,0,1-4.05.42,2,2,0,0,1,0-3.21,3.47,3.47,0,0,1,4-.43,1.9,1.9,0,0,1,.72.88Z"/></g><g id="spec"><path class="cls-7" d="M120.42,134c-1.72,1.45.72,3.27,2.56,3a2.44,2.44,0,0,0,2.12-1.78c.26-1.89-3.11-2.46-4.62-1.26Z"/><ellipse class="cls-7" cx="172.08" cy="134.99" rx="1.93" ry="2.71" transform="translate(19.43 291.61) rotate(-83.85)"/><path class="cls-4" d="M152.79,107.37a3,3,0,0,1-.57-2.1,5.08,5.08,0,0,1,.6-2.16,3.49,3.49,0,0,1,1.59-1.7,2.78,2.78,0,0,1,1.2-.22,2.93,2.93,0,0,1,.59.11,4.06,4.06,0,0,1,.51.26l0,.09c-.19,0-.36.08-.53.1s-.32.1-.47.13a4.39,4.39,0,0,0-.81.41,5.53,5.53,0,0,0-1.38,1.24,5.22,5.22,0,0,0-.8,1.8,3,3,0,0,0,.18,2Z"/><path class="cls-4" d="M131,109.65a3.24,3.24,0,0,0,.07-2,3.74,3.74,0,0,0-1-1.64,6.6,6.6,0,0,0-1.55-1,7.38,7.38,0,0,0-.85-.4c-.31-.12-.62-.22-1-.34v-.1a3,3,0,0,1,1.1-.26,3.72,3.72,0,0,1,1.14.18,3.82,3.82,0,0,1,1.77,1.43,4.14,4.14,0,0,1,.83,2.06,3.44,3.44,0,0,1-.47,2.1Z"/></g><g id="outline"><path class="cls-4" d="M106.78,146.06a26.62,26.62,0,0,1-4-3.22,15.46,15.46,0,0,1-1.71-1.91,12,12,0,0,1-1.3-2.21s0,0,0,0h0c.58.63,1.09,1.3,1.65,1.93s1.05,1.31,1.61,1.94a26.45,26.45,0,0,0,3.71,3.46,0,0,0,0,1,0,0Z"/><path class="cls-4" d="M174.55,148.75a16.78,16.78,0,0,0,6.54-4.7,20.74,20.74,0,0,0,2.27-3.32A21.93,21.93,0,0,0,185,137s0,0,0,0,0,0,0,0A12.79,12.79,0,0,1,183.8,141a15,15,0,0,1-2.42,3.35,17,17,0,0,1-6.81,4.47,0,0,0,0,1,0,0A0,0,0,0,1,174.57,148.79Z"/><path class="cls-4" d="M130.51,126.75a20,20,0,0,0-7.32-3.87,21.18,21.18,0,0,0-8.19-.64,25.9,25.9,0,0,0-7.85,2.35l-1.83.94-1.76,1.08-1.69,1.21-1.61,1.34-.08-.07c.46-.54.92-1.08,1.39-1.61s1-1,1.57-1.44,1.14-.84,1.72-1.26l1.85-1.09a22.36,22.36,0,0,1,16.63-1.28,20.07,20.07,0,0,1,7.24,4.26Z"/><path class="cls-4" d="M101.91,138.69c2.39,1.05,4.75,2.15,7.16,3.11a23.41,23.41,0,0,0,7.49,1.86,16,16,0,0,0,7.45-1.58,40.29,40.29,0,0,0,6.62-4h.05a.08.08,0,0,1,0,0,29.23,29.23,0,0,1-6.44,4.45,15.13,15.13,0,0,1-7.68,1.53A23.52,23.52,0,0,1,109,142c-2.4-1-4.74-2.17-7.1-3.27a.05.05,0,0,1,0,0A0,0,0,0,1,101.91,138.69Z"/><path class="cls-4" d="M152.27,123.68a14.82,14.82,0,0,1,7.75-3.77,19.82,19.82,0,0,1,8.69.68,25.71,25.71,0,0,1,7.91,3.76l1.73,1.36c.55.48,1.07,1,1.6,1.49s1,1.08,1.47,1.62.87,1.17,1.29,1.76l-.08.06-1.54-1.51-1.61-1.41-1.68-1.32-1.75-1.22a32.62,32.62,0,0,0-7.57-3.82,19.59,19.59,0,0,0-8.39-1,14.82,14.82,0,0,0-7.76,3.35Z"/><path class="cls-4" d="M181,139.89c-2.33,1.14-4.64,2.32-7,3.36a23.1,23.1,0,0,1-7.56,2.13,14.69,14.69,0,0,1-7.77-1.5,15.42,15.42,0,0,1-1.73-1,15.09,15.09,0,0,1-1.63-1.11,27.83,27.83,0,0,1-3-2.56l.07-.08c1.12.67,2.16,1.43,3.29,2a18.45,18.45,0,0,0,1.68.94,15.85,15.85,0,0,0,1.71.83,16.54,16.54,0,0,0,7.3,1.61,23.33,23.33,0,0,0,7.42-1.78c2.42-.93,4.79-2,7.18-3Z"/><path class="cls-4" d="M156.8,147.82a24.49,24.49,0,0,1-4.62-4.59,13.71,13.71,0,0,1-1.83-2.77,2.57,2.57,0,0,1-.14-1.88,1.3,1.3,0,0,1,1.53-.86l0,.1a1,1,0,0,0-.83,1,2.14,2.14,0,0,0,.37,1.25c.52.86,1,1.84,1.57,2.73a29.62,29.62,0,0,0,4,5Z"/><path class="cls-4" d="M125.36,146.36c.7-.84,1.5-1.58,2.27-2.35s1.55-1.52,2.27-2.3a9.15,9.15,0,0,0,.92-1.23,9.3,9.3,0,0,0,.61-1.33,1.78,1.78,0,0,0,.06-1.28,1.28,1.28,0,0,0-1-.88l0-.1a1.43,1.43,0,0,1,1.64.64,2.33,2.33,0,0,1,.3,1.88,4.85,4.85,0,0,1-.75,1.61,10.9,10.9,0,0,1-1.18,1.25c-.81.75-1.66,1.44-2.52,2.11s-1.72,1.32-2.52,2.05Z"/><path class="cls-4" d="M128.91,125.74A17.35,17.35,0,0,1,131,132a12.06,12.06,0,0,1,.1,3.34,9.14,9.14,0,0,1-1,3.18l-.09,0c0-1.12.1-2.18.12-3.24s.14-2.12.1-3.19a19,19,0,0,0-1.34-6.28Z"/><path class="cls-4" d="M103.35,139.72a10.34,10.34,0,0,1-1.6-2.55,11.56,11.56,0,0,1-.83-2.95,8.8,8.8,0,0,1,0-3.07A7.51,7.51,0,0,1,102,128.3l.09,0c-.06,1-.18,2-.23,2.94a27.57,27.57,0,0,0-.14,2.87,12,12,0,0,0,.49,2.85,10.57,10.57,0,0,0,1.22,2.67Z"/><path class="cls-4" d="M153,123a22,22,0,0,0-1.17,4.2,26.23,26.23,0,0,0-.42,4.32,24,24,0,0,0,.41,4.26l.22,1,.29,1,.37,1,.47,1-.07.07c-.27-.26-.54-.53-.79-.82s-.44-.62-.63-.95-.34-.69-.48-1-.25-.72-.35-1.09a13.13,13.13,0,0,1-.24-4.5,24,24,0,0,1,.74-4.39,20.34,20.34,0,0,1,1.56-4.15Z"/><path class="cls-4" d="M179.11,140.6a7.45,7.45,0,0,0,1.62-2.58,9.41,9.41,0,0,0,.61-3,14.54,14.54,0,0,0-.29-2.95c-.08-.49-.2-1-.32-1.46l-.22-.74c-.08-.24-.17-.49-.24-.75l.08,0a5.16,5.16,0,0,1,1,1.26,6.75,6.75,0,0,1,.65,1.51,7.63,7.63,0,0,1,.12,3.26,9.16,9.16,0,0,1-1,3.07,7.48,7.48,0,0,1-2,2.46Z"/><path class="cls-4" d="M181.64,131.82a2.05,2.05,0,0,0-1.09-1.55,17.89,17.89,0,0,0-1.78-1,25.31,25.31,0,0,0-3.76-1.48,30.66,30.66,0,0,0-7.95-1.3,46.84,46.84,0,0,0-8,.58c-2.67.37-5.31.94-8,1.52l0-.1a36.1,36.1,0,0,1,7.84-2.4,32,32,0,0,1,8.23-.4,30.62,30.62,0,0,1,8.06,1.63,25.24,25.24,0,0,1,3.75,1.68,18.77,18.77,0,0,1,1.76,1.07,2.19,2.19,0,0,1,1.07,1.72Z"/><path class="cls-4" d="M100.92,130.29A2.72,2.72,0,0,1,102.3,129a14.07,14.07,0,0,1,1.75-.63c1.17-.39,2.36-.72,3.56-1a47.85,47.85,0,0,1,7.33-1.19,39.36,39.36,0,0,1,7.44-.1,35.25,35.25,0,0,1,3.69.53,29.71,29.71,0,0,1,3.6.93l0,.1-3.67-.34c-1.22-.09-2.44-.18-3.66-.23-2.43-.1-4.87-.21-7.31-.09a50.93,50.93,0,0,0-7.28.87c-1.2.23-2.4.49-3.59.82a16.87,16.87,0,0,0-1.75.53,2.58,2.58,0,0,0-1.37,1.1Z"/></g><g id="eyebrows"><path class="cls-4" d="M100.16,119.71c6.21-1.33,13.36-1.18,18.44-5.37,2-1.64,3.12-4.07,5.33-5.54a11.3,11.3,0,0,1,3.79-1.93l.24.25c-2.39,8.4-11.84,12-19.79,12.46-2.67.23-5.32.28-8,.48l0-.35Z"/><path class="cls-4" d="M185.86,120.8c-5.76-.63-11.21-2.83-16.49-5.11-4-1.65-8.07-3.54-11.1-6.82a8,8,0,0,1-2.44-3.9l.32-.12c2.19,1.63,4.93,2.57,7.33,3.93s4.74,3,7.17,4.41c4.9,2.75,9.85,5.64,15.27,7.26l-.06.35Z"/></g></g></svg>