<svg id="artwork" xmlns="http://www.w3.org/2000/svg" viewBox="0 0 282 282"><defs><style>.cls-1{fill:#d9cec5;}.cls-2{fill:#806172;}.cls-3,.cls-4{fill:#2d2d2d;}.cls-4{fill-rule:evenodd;}.cls-5{fill:none;stroke:#2d2d2d;stroke-miterlimit:10;}.cls-6{fill:#f2eae4;}</style></defs><g id="eyes_right2"><g id="white"><path class="cls-1" d="M119.26,130.71a41.55,41.55,0,0,0-9.48,3.32c-10.19,4,6.66,10.87,11.92,9.9,3.32-.62,7.12-1.62,9.36-4.42,1.94-2.42,3.73-9.08.39-9.2A49.46,49.46,0,0,0,119.26,130.71Z"/><path class="cls-1" d="M160.47,129.27c-4.3,1.71-9.42,5.73-7.63,9.34,3.29,6.64,10.66,7.67,16.91,5.8,4.25-1.27,7.49-4.93,6.59-8.47a8.64,8.64,0,0,0-2.74-4.07,13.5,13.5,0,0,0-4-2.56,12.93,12.93,0,0,0-8.29-.33A7.55,7.55,0,0,0,160.47,129.27Z"/></g><g id="iris"><path class="cls-2" d="M130.4,140.38c2.63-1.18,3.79-8.28,2.87-10.51-2.42-.18-6.34,0-8.79.13-1.87,1.67-.5,5.7.3,7.14C126,139.39,130,140.56,130.4,140.38Z"/><path class="cls-2" d="M177.49,134.62a6.72,6.72,0,0,0-3.34-4.62c-2.33-1.11-4,1.81-4.31,3.7-.3,2,1.08,6.3,4,6.72,1.37,1,2.53-1.6,3-2.62A12.65,12.65,0,0,0,177.49,134.62Z"/></g><g id="iris_outline"><path class="cls-3" d="M129.12,139.52a49.08,49.08,0,0,1,2.18-5.06s-.05.23-.06.31a29.86,29.86,0,0,1-2.12,4.75Z"/><path class="cls-3" d="M132,134.69a6.59,6.59,0,0,1-2.56-.82,9.23,9.23,0,0,1,2.56.82Z"/><path class="cls-3" d="M125.71,130.75a8.39,8.39,0,0,1,2.61.95,8.09,8.09,0,0,1-2.61-.95Z"/><path class="cls-3" d="M125.42,137a24.83,24.83,0,0,1,4.16-2.44,10.3,10.3,0,0,1-2,1.3s-2.15,1.21-2.13,1.14Z"/><path class="cls-3" d="M123.6,133a25.05,25.05,0,0,1,5,.12,7.43,7.43,0,0,1-2.49,0,18,18,0,0,1-2.48-.12Z"/><path class="cls-3" d="M174.11,140.27a46.65,46.65,0,0,1,3.17-4.52c0,.05-.1.22-.13.29a30.08,30.08,0,0,1-3,4.23Z"/><path class="cls-3" d="M173,131.35a8.39,8.39,0,0,1,2.56,1.09,7.89,7.89,0,0,1-2.56-1.09Z"/><path class="cls-3" d="M171.18,137.68a25.55,25.55,0,0,1,4.17-2.43,10.78,10.78,0,0,1-2,1.3s-2.15,1.21-2.14,1.13Z"/><path class="cls-3" d="M170,133.54c.88.29,1.87.26,2.77.52a21.93,21.93,0,0,1,2.71.79,9.28,9.28,0,0,1-2.75-.6,24.08,24.08,0,0,1-2.73-.71Z"/><path class="cls-3" d="M130.3,140.41c-4.43-.15-9.09-5.67-6.08-9.82l.09,0c-.79,4.78,1.49,8.41,6,9.78Z"/><path class="cls-3" d="M175.36,140.62c-6.15,1.25-8.27-10-2.4-11.46l0,.1c-3,2.21-3.43,7.18-1.07,10a4,4,0,0,0,3.42,1.28l0,.1Z"/></g><g id="pupil"><path class="cls-4" d="M176,137.65c.68-.39,1.1-.93,1.28-2.56.27-2.61-3-5-4.38-2-.64,1.33.49,1,.9,1.79.89,1.61-.22,1.05-.82,2.68C172.58,138.57,174.54,138.48,176,137.65Z"/><path class="cls-4" d="M131.92,136.16c.67-.41,1.39-.95,1.3-4.18-.08-2.72-3-3.61-4.36-.57-.63,1.38.47,1.08.88,1.85.88,1.66-.21,1.08-.81,2.77C128.55,137.1,130.49,137,131.92,136.16Z"/><path class="cls-4" d="M176,137.65c.68-.39,1.1-.93,1.28-2.56.27-2.61-3-5-4.38-2-.64,1.33.49,1,.9,1.79.89,1.61-.22,1.05-.82,2.68C172.58,138.57,174.54,138.48,176,137.65Z"/><path class="cls-4" d="M131.92,136.16c.67-.41,1.39-.95,1.3-4.18-.08-2.72-3-3.61-4.36-.57-.63,1.38.47,1.08.88,1.85.88,1.66-.21,1.08-.81,2.77C128.55,137.1,130.49,137,131.92,136.16Z"/><path class="cls-5" d="M176,137.65c.68-.39,1.1-.93,1.28-2.56.27-2.61-3-5-4.38-2-.64,1.33.49,1,.9,1.79.89,1.61-.22,1.05-.82,2.68C172.58,138.57,174.54,138.48,176,137.65Z"/><path class="cls-5" d="M131.92,136.16c.67-.41,1.39-.95,1.3-4.18-.08-2.72-3-3.61-4.36-.57-.63,1.38.47,1.08.88,1.85.88,1.66-.21,1.08-.81,2.77C128.55,137.1,130.49,137,131.92,136.16Z"/></g><g id="spec"><path class="cls-6" d="M123.59,132.41a1.17,1.17,0,0,0-.37,1.47c.55,1.42,3,.82,2.49-.76A1.35,1.35,0,0,0,123.59,132.41Z"/><path class="cls-6" d="M170,131.84h-.1c-1.23.11-.95,1.27-.74,1.7a1.34,1.34,0,0,0,1.67.76,1.21,1.21,0,0,0,.5-1.61A1.71,1.71,0,0,0,170,131.84Z"/></g><g id="outline"><path class="cls-3" d="M135.48,129.56c-.66.11-1.31.3-1.95.43s-1.3.21-1.94.31c-1.29.2-2.58.38-3.88.49s-2.59.17-3.89.23a25.08,25.08,0,0,0-3.79.36,66.72,66.72,0,0,0-7.31,2.19,20.39,20.39,0,0,0-3.37,1.43c-1.11.58-2.29,1.23-3.53,1.76l-.09-.13a25,25,0,0,1,2.66-3,11.78,11.78,0,0,1,3.53-2.24,39.11,39.11,0,0,1,7.78-1.9c1.31-.22,2.67-.41,4-.53s2.61-.24,3.92-.26a34.6,34.6,0,0,1,3.94.15c.66.07,1.32.12,2,.23s1.31.3,2,.45Z"/><path class="cls-3" d="M106.65,137.57a14.58,14.58,0,0,0,7.61,5.07,20.07,20.07,0,0,0,9.11.54,13.69,13.69,0,0,0,7.88-4.29,9.64,9.64,0,0,0,2-4.07,12.07,12.07,0,0,0,.09-4.64h0a13.37,13.37,0,0,1,.12,4.68,10.13,10.13,0,0,1-1.85,4.35,12.93,12.93,0,0,1-8.15,4.6,17.92,17.92,0,0,1-9.38-.71,15.48,15.48,0,0,1-7.47-5.52Z"/><path class="cls-3" d="M124.86,123.56a12.5,12.5,0,0,1,.32,2.22,4.75,4.75,0,0,1,0,1.13,3.44,3.44,0,0,1-.39,1.07h0a7.14,7.14,0,0,1-.06-1.12c0-.36.09-.72.12-1.08a11.55,11.55,0,0,0,0-2.2h0S124.86,123.56,124.86,123.56Z"/><path class="cls-3" d="M121.33,124.54l.32,1.4a2.85,2.85,0,0,1,.12.71,2,2,0,0,1-.15.73h-.05a2.12,2.12,0,0,1-.29-.68,2.9,2.9,0,0,1,0-.72l0-1.43h0Z"/><path class="cls-3" d="M116.46,125.25a10,10,0,0,1,.68,1.61,2.9,2.9,0,0,1,.2.87,2.17,2.17,0,0,1-.15.89h0a4.11,4.11,0,0,1-.29-.83,7.71,7.71,0,0,1-.1-.84,8.78,8.78,0,0,0-.34-1.68l0,0Z"/><path class="cls-3" d="M111.47,126.7l.78,1.79a4.67,4.67,0,0,1,.35.9,3.58,3.58,0,0,1,.1,1h0a3.47,3.47,0,0,1-.52-.85,5.93,5.93,0,0,1-.26-.94l-.44-1.89,0,0Z"/><path class="cls-3" d="M106.36,128.5a15,15,0,0,0,1.08,2.11c.21.33.46.64.64,1a7.33,7.33,0,0,1,.49,1.1s0,0,0,0h0a3.74,3.74,0,0,1-.87-.86,5.08,5.08,0,0,1-.57-1.08,14.22,14.22,0,0,1-.77-2.28h0Z"/><path class="cls-3" d="M121.88,147a19.3,19.3,0,0,0,6.39-3.52,16.61,16.61,0,0,0,2.43-2.67,17,17,0,0,0,1.84-3.15s0,0,0,0l0,0a10.3,10.3,0,0,1-1.48,3.42,12,12,0,0,1-2.59,2.69,19.41,19.41,0,0,1-6.62,3.26s0,0,0,0S121.87,147,121.88,147Z"/><path class="cls-3" d="M113.1,144.52a19,19,0,0,1-3.54-2.23,11,11,0,0,1-1.54-1.43,8.58,8.58,0,0,1-1.16-1.75s0,0,0,0,0,0,0,0c.53.47,1,1,1.49,1.45s.94,1,1.44,1.46a18.19,18.19,0,0,0,3.29,2.48,0,0,0,0,1,0,0A0,0,0,0,1,113.1,144.52Z"/><path class="cls-3" d="M152.82,138.78a10.92,10.92,0,0,0,1.31,3.49,16.53,16.53,0,0,0,2.16,3,17.4,17.4,0,0,0,2.74,2.48,11.49,11.49,0,0,0,3.25,1.76s0,0,0,0,0,0,0,0a7.9,7.9,0,0,1-3.53-1.39,12.76,12.76,0,0,1-2.76-2.63,17.24,17.24,0,0,1-2-3.18,11.53,11.53,0,0,1-1.16-3.59,0,0,0,0,1,0,0Z"/><path class="cls-3" d="M174.34,124.24a13.46,13.46,0,0,1,5.42,5.34,9.37,9.37,0,0,1,1.1,3.72,10,10,0,0,1-.5,3.82s0,0,0,0,0,0,0,0a15.8,15.8,0,0,0,.05-3.76,11.17,11.17,0,0,0-1-3.59,13.14,13.14,0,0,0-5.08-5.48,0,0,0,0,1,0,0S174.33,124.23,174.34,124.24Z"/><path class="cls-3" d="M151.76,135.24a47.78,47.78,0,0,1,6-5.35,16.53,16.53,0,0,1,3.71-2,20.35,20.35,0,0,1,4.09-1.06,22.06,22.06,0,0,1,4.26-.4,9.45,9.45,0,0,1,4.48,1.09,6.38,6.38,0,0,1,2,1.79,6.79,6.79,0,0,1,1,2.17,13.34,13.34,0,0,1,.45,4.2l-.37.14c-1-1-1.79-2.13-2.58-3.05a6.48,6.48,0,0,0-1.13-1.11,3.6,3.6,0,0,0-1.14-.53,23.93,23.93,0,0,0-6.71-1.11,16.7,16.7,0,0,0-7.11,1.56,61.72,61.72,0,0,0-6.69,4Z"/><path class="cls-3" d="M152.45,137.19a7.55,7.55,0,0,0,1.79,3.62,10,10,0,0,0,3.26,2.4A16.27,16.27,0,0,0,173,142.1a11.48,11.48,0,0,0,4.7-6.35l.09,0a9.79,9.79,0,0,1-1.31,4,10.66,10.66,0,0,1-2.91,3.15,14.44,14.44,0,0,1-8.07,2.49,16.31,16.31,0,0,1-8.18-1.76A10.35,10.35,0,0,1,154,141a7.7,7.7,0,0,1-1.66-3.81Z"/><path class="cls-3" d="M153.16,127.33l.44,1.65a4.11,4.11,0,0,1,.18.83,2.88,2.88,0,0,1-.08.87h0a2.6,2.6,0,0,1-.36-.8,3.37,3.37,0,0,1-.08-.84l-.1-1.71h0Z"/><path class="cls-3" d="M155.89,125.81l.36,1.49a3.32,3.32,0,0,1,.15.75,2.22,2.22,0,0,1-.13.79h-.05a2.41,2.41,0,0,1-.32-.72,3.29,3.29,0,0,1,0-.77l0-1.53h0Z"/><path class="cls-3" d="M158.4,123.69a9.31,9.31,0,0,0,.1,1.67,8.19,8.19,0,0,1,.13.82,3.68,3.68,0,0,1-.08.86h-.05a2.08,2.08,0,0,1-.37-.8,3.17,3.17,0,0,1,0-.87,10.55,10.55,0,0,1,.25-1.7h.05Z"/><path class="cls-3" d="M161.72,123.07l.18,1.67a4.74,4.74,0,0,1,0,.84,3,3,0,0,1-.23.83h-.05a2.63,2.63,0,0,1-.22-.83,3.39,3.39,0,0,1,.05-.84l.17-1.67h.05Z"/><path class="cls-3" d="M164.48,121.53a6,6,0,0,1,.7,2.36,4.36,4.36,0,0,1,0,1.25,2.91,2.91,0,0,1-.49,1.16h0c0-.42,0-.81,0-1.21s.09-.77.11-1.17a5.72,5.72,0,0,0-.34-2.35l0,0Z"/></g><g id="eyebrows"><path class="cls-3" d="M136.93,113.57c-1.06,1.45-2.6,1.89-4.07,2.67-4.27,2.06-8.82,3.45-13.19,5.23-5.87,2.42-11.1,6.14-17.28,7.78,4.33-5,10.27-7.69,16.09-10.43a84.6,84.6,0,0,1,13.27-5.47c1.61-.4,3-1.11,4.8-.76l.38,1Z"/><path class="cls-3" d="M149.87,124.75c2.63-9.21,14.19-18.91,23.86-13.66a9.08,9.08,0,0,1,3.07,3.09c-10.28-5.77-19.91,3.79-26.93,10.57Z"/></g></g></svg>