<svg id="artwork" xmlns="http://www.w3.org/2000/svg" viewBox="0 0 282 282"><defs><style>.cls-1{fill:#d9cec5;}.cls-2{fill:#806172;}.cls-3,.cls-4{fill:#2d2d2d;}.cls-4{fill-rule:evenodd;}.cls-5{fill:none;stroke:#2d2d2d;stroke-miterlimit:10;}.cls-6{fill:#f2eae4;}</style></defs><g id="eyes_shocked3"><g id="white"><path class="cls-1" d="M114.1,125.44c-3.37.8-8,3.4-10.09,6.43-1.81,2.62-.14,7.31,2.71,9,4.51,2.74,6.64-1.08,11.56.06,10,2.32,10.52,2.14,14.27-4.64a7.1,7.1,0,0,0-1-8.28c-1.14-1.15-5.85-2.74-7.46-3A29.4,29.4,0,0,0,114.1,125.44Z"/><path class="cls-1" d="M168.73,123.88c3.37.8,9.42,5.22,11.52,8.25,1.81,2.62.15,7.31-2.71,9-1.41.86-2.34,1.74-3.4,1.47-2.06-.51-4.69-1.61-8.15-1.41-3.74.21-6.51,1.32-8.81,1.49-2,.14-3.57-2.26-4.92-5.66-1.15-2.87-2.35-6.95.15-9.44a15.1,15.1,0,0,1,6.16-3.07C160.92,124.24,165.07,123,168.73,123.88Z"/></g><g id="iris"><path class="cls-2" d="M116.56,140.78a9,9,0,0,0,2.65.1,8.34,8.34,0,0,0,4.72-1.86c1.74-1.58,1.75-3.2,1.06-5.44a5.94,5.94,0,0,0-2.38-2.91c-2.2-1.75-5.63-1.36-7.89.08a5.29,5.29,0,0,0-2.37,5.91,4.18,4.18,0,0,0,.89,2.06,4.06,4.06,0,0,0,2,1.68C115.41,140.46,116.4,140.73,116.56,140.78Z"/><path class="cls-2" d="M164.26,140.89a9.39,9.39,0,0,0,2.65.11,8.28,8.28,0,0,0,4.71-1.87c1.75-1.58,1.75-3.19,1.07-5.44a6,6,0,0,0-2.38-2.9c-2.2-1.75-5.63-1.37-7.89.07a5.31,5.31,0,0,0-2.37,5.92,4.1,4.1,0,0,0,.89,2.05,4,4,0,0,0,2,1.68C163.11,140.58,164.1,140.84,164.26,140.89Z"/></g><g id="iris_outline"><path class="cls-3" d="M113.24,135.83A31.36,31.36,0,0,1,119,137c0,.06,0,0-.05,0v0l-1.38-.23c-1-.14-3.41-.66-4.34-.93Z"/><path class="cls-3" d="M114,131.53a47.52,47.52,0,0,1,3.87,2.78,17.31,17.31,0,0,1-3.87-2.78Z"/><path class="cls-3" d="M123.38,131.9a25.81,25.81,0,0,1-3.91,2.89c0-.06,0,0,0,0s0,0-.14.1c1.07-1.3,2.79-1.91,4-2.94Z"/><path class="cls-3" d="M119.7,130.13a24.92,24.92,0,0,1-1.24,4.64,10.42,10.42,0,0,1,.52-2.34s.67-2.37.72-2.3Z"/><path class="cls-3" d="M125.28,136.49a28.63,28.63,0,0,1-4.83-1.19c-.19-.07-.55-.13-.65-.31,1.85.31,3.68,1.13,5.48,1.5Z"/><path class="cls-3" d="M116.07,140.06c.67-1.13.61-2.74,1.53-3.63h0s0,0,0,0h0s.05,0,0,0v0c-.55,1.14-.8,2.61-1.56,3.61Z"/><path class="cls-3" d="M121.82,139.76a39,39,0,0,1-3.06-4.38,24.94,24.94,0,0,1,3.06,4.38Z"/><path class="cls-3" d="M118.39,140.83c3,0,6.94-1.51,6.8-5.05a6.29,6.29,0,0,0-6-6c-4.71-.45-8.48,5.8-5.13,9.42a6.46,6.46,0,0,0,4.29,1.59v.1c-8.09,1.14-8.63-9.56-1.68-11.6,4.22-1.38,9.05,2,9,6.46,0,3.74-4.1,5.31-7.28,5.14v-.1Z"/><path class="cls-3" d="M166,141c3,0,6.94-1.51,6.8-5a6.28,6.28,0,0,0-6-6c-4.71-.45-8.47,5.8-5.13,9.42A6.46,6.46,0,0,0,166,141v.1c-8.09,1.14-8.63-9.56-1.68-11.6,4.23-1.39,9,2,9,6.45,0,3.75-4.09,5.32-7.28,5.15V141Z"/><path class="cls-3" d="M170.66,132.18a53.22,53.22,0,0,1-4.48,3.58.39.39,0,0,0-.1.08s0,0,0,0l0,0s0,0-.06,0l.1-.11a31.63,31.63,0,0,1,4.51-3.54Z"/><path class="cls-3" d="M167.62,130.3c-.3,1.78-.52,4.45-1.23,6.07a20.9,20.9,0,0,1,.58-3s.6-3.1.65-3Z"/><path class="cls-3" d="M162.92,131.4c.92,1.36,2.47,2.25,3.2,3.79l-.12-.1s0,0,.07,0a11.77,11.77,0,0,1-1.67-1.76c-.45-.63-1.22-1.2-1.48-1.93Z"/><path class="cls-3" d="M160.64,135.83c1.78-.06,3.49-.63,5.26-.68-.11.17-.46.18-.64.22a21.36,21.36,0,0,1-4.62.46Z"/><path class="cls-3" d="M168.42,140.32c-.83-1-1-2.47-1.55-3.62,0,0,0-.06,0,0h0s0,0,0,0h0v0c1,1,.82,2.57,1.52,3.65Z"/><path class="cls-3" d="M172,137.23c-1.31,0-2.65-.29-3.94-.33,0,0,0-.06,0-.05l0,0s0,0,0,0,0,0,0,0h0c1.24-.39,2.7.27,3.94.37Z"/><path class="cls-3" d="M163.34,140a25.76,25.76,0,0,1,2.85-4,25.12,25.12,0,0,1-2.85,4Z"/></g><g id="pupil"><path class="cls-4" d="M117.75,137.59l-1.55,0a3.88,3.88,0,0,1,.9-4.47,2.25,2.25,0,0,1,3.46,1.13,3.87,3.87,0,0,1-.9,4.47,2.1,2.1,0,0,1-1.19.46Z"/><path class="cls-4" d="M165.25,137.28l.68,1.39a3.85,3.85,0,0,0,3.53-2.87c.26-1.49-.92-2.63-2.6-2.54a3.87,3.87,0,0,0-3.54,2.88,2.1,2.1,0,0,0,.15,1.27Z"/><path class="cls-4" d="M117.75,137.59l-1.55,0a3.88,3.88,0,0,1,.9-4.47,2.25,2.25,0,0,1,3.46,1.13,3.87,3.87,0,0,1-.9,4.47,2.1,2.1,0,0,1-1.19.46Z"/><path class="cls-4" d="M165.25,137.28l.68,1.39a3.85,3.85,0,0,0,3.53-2.87c.26-1.49-.92-2.63-2.6-2.54a3.87,3.87,0,0,0-3.54,2.88,2.1,2.1,0,0,0,.15,1.27Z"/><path class="cls-5" d="M117.75,137.59l-1.55,0a3.88,3.88,0,0,1,.9-4.47,2.25,2.25,0,0,1,3.46,1.13,3.87,3.87,0,0,1-.9,4.47,2.1,2.1,0,0,1-1.19.46Z"/><path class="cls-5" d="M165.25,137.28l.68,1.39a3.85,3.85,0,0,0,3.53-2.87c.26-1.49-.92-2.63-2.6-2.54a3.87,3.87,0,0,0-3.54,2.88,2.1,2.1,0,0,0,.15,1.27Z"/></g><g id="spec"><path class="cls-6" d="M122.68,132.56c-1.47,1.19.91,3.09,2.58,3a1.81,1.81,0,0,0,1.82-1.47c.09-1.73-3-2.56-4.35-1.57Z"/><path class="cls-6" d="M170.39,135.29c-1.5-1.51.88-3,2.56-2.59a2.37,2.37,0,0,1,1.85,1.85c.11,1.8-3.05,2-4.36.79Z"/></g><g id="outline"><path class="cls-3" d="M101.14,137.54c1.14-3.5,2.77-7,5.64-9.46,3.57-3.08,8.21-5.26,13-4.91,4.56.17,10,.73,12.89,4.74a9.15,9.15,0,0,1,1.51,5.35H134a8.84,8.84,0,0,0-1.95-4.83c-3.87-4.55-14.66-3.85-19.8-1.89a17.48,17.48,0,0,0-8.25,6.33,32.87,32.87,0,0,0-2.58,4.75l-.23-.09Z"/><path class="cls-3" d="M107.68,143.24a25.44,25.44,0,0,1,10.58-2.36,21.84,21.84,0,0,1,5.39.88c1.75.5,3.46,1.12,5.17,1.74l0,0h0c-1.75-.48-3.48-1.06-5.23-1.52a24.69,24.69,0,0,0-5.33-.92,25.4,25.4,0,0,0-10.56,2.18s0,0,0,0Z"/><path class="cls-3" d="M103.4,134.23a2.08,2.08,0,0,0-.15,1.43,5.73,5.73,0,0,0,.51,1.38,11.12,11.12,0,0,0,1.69,2.39,12.59,12.59,0,0,0,2.21,1.92,3.79,3.79,0,0,0,2.7.87h0s0,0,0,0a3.59,3.59,0,0,1-2.85-.69,10.29,10.29,0,0,1-2.22-2,11.06,11.06,0,0,1-1.64-2.47,5.53,5.53,0,0,1-.48-1.42,2.09,2.09,0,0,1,.2-1.45h0S103.4,134.22,103.4,134.23Z"/><path class="cls-3" d="M133.44,131.5a12.62,12.62,0,0,1-.53,3.81,18.81,18.81,0,0,1-1.41,3.6,8.65,8.65,0,0,1-2.43,3,4.15,4.15,0,0,1-1.81.76,3.47,3.47,0,0,1-1.91-.27,0,0,0,0,1,0,0h0a3.8,3.8,0,0,0,3.56-.67,9.29,9.29,0,0,0,2.4-2.91,18.19,18.19,0,0,0,1.48-3.53,12.52,12.52,0,0,0,.62-3.78s0,0,0,0S133.44,131.49,133.44,131.5Z"/><path class="cls-3" d="M134.77,120.87a13.45,13.45,0,0,1-1.05,2.28,8.45,8.45,0,0,1-.7,1.06,6.24,6.24,0,0,1-.89.89h0c.23-.36.48-.69.71-1l.73-1a14.89,14.89,0,0,0,1.2-2.18h0Z"/><path class="cls-3" d="M122.89,117.31l-.37,2.37c-.06.39-.11.79-.21,1.18A9.45,9.45,0,0,1,122,122h0a8,8,0,0,1,.12-1.2c.06-.39.16-.78.25-1.17l.55-2.34h0A0,0,0,0,1,122.89,117.31Z"/><path class="cls-3" d="M113.21,117.71a17.48,17.48,0,0,1,1.14,2.19,11.6,11.6,0,0,1,.45,1.16,6.34,6.34,0,0,1,.22,1.23h0l-.43-1.15-.4-1.16a15.58,15.58,0,0,0-1-2.26h0Z"/><path class="cls-3" d="M106.41,122.19l.94,1.92c.15.32.32.64.45,1a7.52,7.52,0,0,1,.32,1,0,0,0,0,1,0,0h0a6.56,6.56,0,0,1-.53-.93c-.16-.32-.28-.65-.41-1l-.77-2a0,0,0,0,1,0,0Z"/><path class="cls-3" d="M99.92,127.83a14.83,14.83,0,0,0,1.4,1.35c.25.2.52.37.78.56s.52.39.76.62h0A5.52,5.52,0,0,1,102,130a4.19,4.19,0,0,1-.77-.62,13.81,13.81,0,0,1-1.28-1.49h0Z"/><path class="cls-3" d="M104.41,142.4a4,4,0,0,0,1.09,2.86,3.11,3.11,0,0,0,1.27.8,2.31,2.31,0,0,0,1.51-.05s0,0,0,0,0,0,0,0a2,2,0,0,1-1.58.28,2.74,2.74,0,0,1-1.36-.92,4.05,4.05,0,0,1-1-3,0,0,0,0,1,0,0A0,0,0,0,1,104.39,142.4Z"/><path class="cls-3" d="M129.85,117.28a3.67,3.67,0,0,0,3.33-1.46,2.44,2.44,0,0,0,.45-1.74,3.52,3.52,0,0,0-.77-1.69s0,0,0,0,0,0,0,0a2.92,2.92,0,0,1,1,1.67,2.42,2.42,0,0,1-.54,1.89,3.78,3.78,0,0,1-3.49,1.38s0,0,0,0Z"/><path class="cls-3" d="M182.89,137.89c-5.08-11.65-13.66-17.72-26.2-12.7a10.6,10.6,0,0,0-6.38,8.34l-.25,0a10.07,10.07,0,0,1,1.53-5.63c4.53-6.81,14.82-8.31,21.64-4.18,5.08,3.11,8,8.69,9.89,14.1l-.23.09Z"/><path class="cls-3" d="M176.1,143.52a26.19,26.19,0,0,0-10.16-2.31,21.89,21.89,0,0,0-5.14.83c-1.69.44-3.36,1-5.05,1.46h0s0,0,0,0c1.64-.6,3.29-1.2,5-1.68a19.57,19.57,0,0,1,5.21-.79c3.55,0,6.95,1.16,10.17,2.49a0,0,0,0,1,0,0Z"/><path class="cls-3" d="M180.89,134.48a3.46,3.46,0,0,1-.22,2.86,11.93,11.93,0,0,1-1.55,2.53,10,10,0,0,1-2.15,2,3.52,3.52,0,0,1-2.81.74,0,0,0,0,1,0,0h0a3.77,3.77,0,0,0,2.67-.91,12.51,12.51,0,0,0,2.14-2,11.94,11.94,0,0,0,1.6-2.44,3.36,3.36,0,0,0,.29-2.81s0,0,0,0S180.88,134.47,180.89,134.48Z"/><path class="cls-3" d="M150.85,130.9a24.39,24.39,0,0,0,2.12,7.62,10.64,10.64,0,0,0,2.22,3.22,3.55,3.55,0,0,0,1.66.94,3.18,3.18,0,0,0,1.92-.19h0a3.08,3.08,0,0,1-2,.35,3.76,3.76,0,0,1-1.8-.93,9.76,9.76,0,0,1-2.23-3.32,22.18,22.18,0,0,1-1.29-3.78,23.94,23.94,0,0,1-.68-3.93.1.1,0,0,1,0,0S150.85,130.88,150.85,130.9Z"/><path class="cls-3" d="M150.18,118.51a14.89,14.89,0,0,0,1.2,2.18l.73,1c.23.34.48.67.71,1h0a6.24,6.24,0,0,1-.89-.89,7.41,7.41,0,0,1-.69-1.06,13,13,0,0,1-1.06-2.27v0Z"/><path class="cls-3" d="M158.91,116.53l.55,2.34c.09.39.19.77.25,1.17a7.87,7.87,0,0,1,.12,1.2h0a10,10,0,0,1-.34-1.15c-.09-.39-.14-.79-.21-1.18l-.37-2.37a0,0,0,0,1,0,0Z"/><path class="cls-3" d="M169.45,116.71a11.19,11.19,0,0,0-.78,1.77l-.3.92c-.11.3-.21.61-.35.91h0a4.54,4.54,0,0,1,.13-1,6,6,0,0,1,.35-.92,12,12,0,0,1,1-1.72h0Z"/><path class="cls-3" d="M177,120.63l-.78,2c-.13.34-.25.67-.4,1a9.34,9.34,0,0,1-.53.93h0a9.32,9.32,0,0,1,.33-1c.13-.33.29-.65.45-1l.93-1.92h0Z"/><path class="cls-3" d="M184.36,128.1a16.48,16.48,0,0,1-1.28,1.49,4.55,4.55,0,0,1-.77.62,6.07,6.07,0,0,1-.89.43h0a8.94,8.94,0,0,1,.76-.62c.25-.19.53-.36.78-.56a14.73,14.73,0,0,0,1.39-1.35h0Z"/><path class="cls-3" d="M179.87,142.66a4.06,4.06,0,0,1-1,3,2.69,2.69,0,0,1-1.35.91,2,2,0,0,1-1.59-.27v0h0a2.37,2.37,0,0,0,1.51,0,3,3,0,0,0,1.27-.81,3.94,3.94,0,0,0,1.09-2.85h0Z"/><path class="cls-3" d="M153.05,112.88a2.31,2.31,0,0,1-1.92-.48,4.27,4.27,0,0,1-1.25-1.6,4.2,4.2,0,0,1-.38-2,4,4,0,0,1,.67-1.92s0,0,0,0,0,0,0,0a5.21,5.21,0,0,0-.44,1.92,4.68,4.68,0,0,0,.32,1.92,3.84,3.84,0,0,0,1.13,1.59,2.26,2.26,0,0,0,1.84.55s0,0,0,0Z"/><path class="cls-3" d="M134.07,133.26a8.34,8.34,0,0,0-6.21-8,20.57,20.57,0,0,0-5.34-.94,35.28,35.28,0,0,0-5.44.07,20.13,20.13,0,0,0-9.86,4.26,15.45,15.45,0,0,0-3.58,4.06,30.37,30.37,0,0,0-2.38,4.9h0a31.78,31.78,0,0,1,2.34-4.93,15.78,15.78,0,0,1,3.55-4.13,19.69,19.69,0,0,1,9.92-4.32,35.68,35.68,0,0,1,5.47-.07,20.1,20.1,0,0,1,5.37,1,8.47,8.47,0,0,1,6.18,8.14Z"/><path class="cls-3" d="M101.14,137.54l.16.06s.06,0,.07,0l0-.08.14-.31.3-.62.61-1.23a26.7,26.7,0,0,1,1.39-2.37,15,15,0,0,1,3.76-4,21.43,21.43,0,0,1,4.82-2.62,25.85,25.85,0,0,1,5.36-1.21,28.79,28.79,0,0,1,5.49-.18,18,18,0,0,1,5.38,1.09,7.91,7.91,0,0,1,4.22,3.43,9.12,9.12,0,0,1,1,2.58c0,.23.09.46.13.68l.05.35s0,0,0,0h.08v-.6c0-.23,0-.45-.06-.68a8.05,8.05,0,0,0-2.2-4.86,10.64,10.64,0,0,0-4.64-2.74,23.34,23.34,0,0,0-5.38-.94,22.66,22.66,0,0,0-5.46,0,20.09,20.09,0,0,0-9.7,4.81c-2.78,2.43-4.4,5.88-5.53,9.33h0c1.12-3.46,2.72-6.92,5.5-9.37a20,20,0,0,1,9.71-4.89,22.92,22.92,0,0,1,5.49-.08,23.77,23.77,0,0,1,5.42.94,10.84,10.84,0,0,1,4.71,2.79,8.23,8.23,0,0,1,2.24,4.95c0,.23,0,.46.06.69v.35c0,.12,0,.2,0,.41l-.27,0s-.13,0-.12,0l0-.14-.05-.34c0-.23-.08-.45-.13-.67a8.83,8.83,0,0,0-.94-2.54,7.76,7.76,0,0,0-4.13-3.36,18,18,0,0,0-5.34-1.09,29.43,29.43,0,0,0-5.47.15,25.12,25.12,0,0,0-5.34,1.18,21.1,21.1,0,0,0-4.82,2.58,14.73,14.73,0,0,0-3.77,3.94,25.26,25.26,0,0,0-1.4,2.36l-.61,1.23-.3.61-.15.32,0,.07s-.06,0-.08,0l-.16-.07Z"/><path class="cls-3" d="M107.66,143.26a37.39,37.39,0,0,1,5.16-1.77,18.81,18.81,0,0,1,5.44-.59,21.89,21.89,0,0,1,5.39.92c1.75.51,3.46,1.13,5.19,1.7h0c-1.74-.54-3.47-1.12-5.23-1.58a25,25,0,0,0-5.36-.88,20.91,20.91,0,0,0-5.4.55,35.17,35.17,0,0,0-5.19,1.65Z"/><path class="cls-3" d="M107.68,143.24c3.26-1.24,6.91-2.41,10.57-2.22a24.12,24.12,0,0,1,5.37.9l1.84.52-1.84-.6a21.63,21.63,0,0,0-5.36-.9,24.93,24.93,0,0,0-10.58,2.3h0a25.9,25.9,0,0,1,10.59-2.42,21.51,21.51,0,0,1,5.4.86l5.24,1.85c-1.7-.41-3.55-1-5.31-1.44a25.75,25.75,0,0,0-5.36-1c-3.62-.24-7.3.86-10.56,2.1Z"/><path class="cls-3" d="M103.4,134.21a2.05,2.05,0,0,0-.16,1.44,5.37,5.37,0,0,0,.52,1.38,12.11,12.11,0,0,0,1.68,2.41,12.8,12.8,0,0,0,2.19,2,6.05,6.05,0,0,0,1.3.7,2.48,2.48,0,0,0,1.45.12h0a2.55,2.55,0,0,1-1.47-.07,6,6,0,0,1-1.35-.65,10.45,10.45,0,0,1-2.24-2,10,10,0,0,1-1.67-2.47,5.49,5.49,0,0,1-.46-1.42,2.13,2.13,0,0,1,.2-1.45Z"/><path class="cls-3" d="M103.4,134.23a1.87,1.87,0,0,0-.21,1.39,5,5,0,0,0,.47,1.4,10.86,10.86,0,0,0,1.65,2.45,10.75,10.75,0,0,0,2.18,2,3.69,3.69,0,0,0,2.73.76l.08,0s0-.06.06,0,0,0,0,.08l-.19,0h-.39a3.16,3.16,0,0,1-.74-.16,5.48,5.48,0,0,1-1.34-.69,12,12,0,0,1-2.25-1.95,11.47,11.47,0,0,1-1.71-2.45,5.32,5.32,0,0,1-.5-1.4,2,2,0,0,1,.15-1.45h0a2.07,2.07,0,0,0-.13,1.45,5.79,5.79,0,0,0,.53,1.38,11,11,0,0,0,1.75,2.38,12.85,12.85,0,0,0,2.25,1.91,5.93,5.93,0,0,0,1.3.67,3.45,3.45,0,0,0,.71.15h.35l.18,0a.13.13,0,0,1,.11.05s0,.11,0,.13h-.05l-.09,0a3.86,3.86,0,0,1-2.86-.78,10.57,10.57,0,0,1-2.19-2,11.37,11.37,0,0,1-1.6-2.51,5.46,5.46,0,0,1-.45-1.42,1.91,1.91,0,0,1,.24-1.39Z"/><path class="cls-3" d="M133.43,131.48a12.41,12.41,0,0,1-.52,3.82,16.19,16.19,0,0,1-1.43,3.6,8.65,8.65,0,0,1-2.46,3,4.17,4.17,0,0,1-1.78.74,3.66,3.66,0,0,1-1.91-.23h0a3.63,3.63,0,0,0,1.9.18,4.22,4.22,0,0,0,1.72-.79,9.43,9.43,0,0,0,2.39-3,20.71,20.71,0,0,0,1.46-3.55,12.24,12.24,0,0,0,.63-3.79Z"/><path class="cls-3" d="M133.44,131.5a12.35,12.35,0,0,1-.17,1.85c-.11.63-.26,1.25-.43,1.87a18.44,18.44,0,0,1-1.43,3.55,9.37,9.37,0,0,1-2.4,3,3.89,3.89,0,0,1-3.68.71l0,0s0,0,0,0v0c0-.07,0,0,0,0h0l.08,0a3.61,3.61,0,0,0,3.57-.55,8.7,8.7,0,0,0,2.39-3,18.43,18.43,0,0,0,1.45-3.57,12,12,0,0,0,.55-3.81h0a12.72,12.72,0,0,1-.52,3.82,18.44,18.44,0,0,1-1.37,3.62,8.82,8.82,0,0,1-2.4,3,3.81,3.81,0,0,1-3.73.56l-.07,0-.06,0a.11.11,0,0,1,0-.05.07.07,0,0,1,0-.08.1.1,0,0,1,.1,0h0a3.76,3.76,0,0,0,3.53-.68,9.65,9.65,0,0,0,2.39-2.92,18.64,18.64,0,0,0,1.5-3.5c.18-.61.34-1.23.46-1.86a12.42,12.42,0,0,0,.18-1.85Z"/><path class="cls-3" d="M134.77,120.86a10.55,10.55,0,0,1-1.07,2.28,8.32,8.32,0,0,1-.73,1c-.27.32-.56.63-.85.93h0a11.85,11.85,0,0,0,.75-1l.69-1a20.35,20.35,0,0,0,1.2-2.2Z"/><path class="cls-3" d="M134.77,120.88s0,0,0,0h0a14.49,14.49,0,0,1-1.15,2.21c-.48.69-.94,1.38-1.42,2v0a.07.07,0,0,0-.06-.07,9.87,9.87,0,0,0,.82-.86l.71-1a12.47,12.47,0,0,0,1.11-2.26h0a15.2,15.2,0,0,1-1,2.31l-.69,1.07a4.4,4.4,0,0,1-1,.92.1.1,0,0,1-.1-.1v0c.45-.7,1-1.37,1.46-2a13.11,13.11,0,0,0,1.25-2.15h0s0,0,0,0Z"/><path class="cls-3" d="M122.88,117.3c-.13.79-.2,1.59-.38,2.37-.07.4-.15.79-.25,1.18L122,122h0l.17-1.19c.05-.4.13-.8.21-1.19.13-.79.36-1.56.54-2.34Z"/><path class="cls-3" d="M122.89,117.31s0,0,0,0h0l-.49,2.35-.23,1.17,0,.4a2.15,2.15,0,0,0,.1-.38l.22-1.16.44-2.37h0l-.32,2.39c-.06.4-.12.8-.2,1.2s-.28.86-.45,1.19l0-1.29.28-1.17.61-2.33h0s0,0,0,0Z"/><path class="cls-3" d="M113.19,117.71a10.94,10.94,0,0,1,1.14,2.2,9.53,9.53,0,0,1,.41,1.17c.1.4.19.81.27,1.21h0a9.59,9.59,0,0,0-.39-1.18l-.44-1.15c-.33-.75-.59-1.54-1-2.26Z"/><path class="cls-3" d="M113.2,117.71s0,0,0,0h0a18.15,18.15,0,0,1,1,2.24l.85,2.3,0,0a.06.06,0,0,0-.08,0h0v.05h0a6.32,6.32,0,0,0-.22-1.2l-.43-1.15a14,14,0,0,0-1.09-2.23h0a17.73,17.73,0,0,1,1.2,2.18l.47,1.16a5.67,5.67,0,0,1,.22,1.23h0v0l0,0a.11.11,0,0,1-.12,0l0,0v0a24.6,24.6,0,0,1-.82-2.32,13.59,13.59,0,0,0-.92-2.28h0Z"/><path class="cls-3" d="M106.4,122.19c.31.65.67,1.27.93,1.93.15.33.29.65.41,1s.24.67.37,1h0c-.15-.33-.32-.64-.48-1s-.31-.65-.45-1c-.31-.65-.52-1.33-.78-2Z"/><path class="cls-3" d="M106.41,122.19c.21.63.54,1.32.81,2l.43,1,.19.31c0-.15-.1-.28-.12-.34l-.42-1-.89-2h0l1,1.91c.16.33.33.64.47,1s.22.78.25,1.11l-.64-1-.39-1c-.22-.68-.5-1.37-.69-2Z"/><path class="cls-3" d="M99.91,127.83c.45.48.93.92,1.39,1.37.25.21.51.39.76.6s.52.39.79.57h0l-.86-.47a4.46,4.46,0,0,1-.79-.58,9.58,9.58,0,0,1-1.29-1.49Z"/><path class="cls-3" d="M99.92,127.83a0,0,0,0,0,0,0h0l1.31,1.44.76.59.34.15c-.08-.08-.22-.17-.26-.21l-.76-.57-1.38-1.41h0c.48.45,1,.89,1.45,1.32.27.18.54.36.81.56l.39.38.19.18.1.09s.08.09,0,.06c-.33-.14-.67-.27-1-.41l-.76-.64-1.24-1.52h0Z"/><path class="cls-3" d="M104.4,142.39a3.42,3.42,0,0,0,.28,1.55,4.65,4.65,0,0,0,.81,1.33,3.15,3.15,0,0,0,1.27.86,2.23,2.23,0,0,0,.77.09,2.51,2.51,0,0,0,.76-.2h0a2.76,2.76,0,0,1-.75.25,2.45,2.45,0,0,1-.81,0,2.74,2.74,0,0,1-1.36-.87,3.82,3.82,0,0,1-1-3Z"/><path class="cls-3" d="M104.41,142.4a3.86,3.86,0,0,0,1,2.91,2.91,2.91,0,0,0,1.25.89,1.91,1.91,0,0,0,1.48-.15l.15-.08,0,0s-.07.08.06,0h0l0,.07a2.47,2.47,0,0,1-1.52.06,3,3,0,0,1-1.29-.81,4.07,4.07,0,0,1-1.09-2.94h0a3.93,3.93,0,0,0,1.18,2.86,2.52,2.52,0,0,0,2.66.67h0c.09,0,.15.09.1.15h0l-.16.09a2.06,2.06,0,0,1-1.61.16,2.74,2.74,0,0,1-1.3-1,4,4,0,0,1-.86-3Z"/><path class="cls-3" d="M129.84,117.29a3.46,3.46,0,0,0,1.88-.31,4,4,0,0,0,1.48-1.15,2.55,2.55,0,0,0,.49-1.77,2.21,2.21,0,0,0-.28-.9,3.51,3.51,0,0,0-.55-.79h0a4.83,4.83,0,0,1,.59.76,2,2,0,0,1,.22.44,1.9,1.9,0,0,1,.14.48,2.42,2.42,0,0,1-.49,1.87,3.37,3.37,0,0,1-1.57,1.17,3.71,3.71,0,0,1-1.92.21Z"/><path class="cls-3" d="M129.85,117.28a3.66,3.66,0,0,0,3.4-1.32,2.5,2.5,0,0,0,.57-1.75,2.77,2.77,0,0,0-.84-1.64l-.09-.09,0,0h0c-.05,0,.06-.07,0-.05h0l.06,0h0l.14.2a4.28,4.28,0,0,1,.26.42,2.92,2.92,0,0,1,.35.92,2.52,2.52,0,0,1-.4,1.91,3.72,3.72,0,0,1-3.43,1.49h0a3.6,3.6,0,0,0,3.32-1.56,2.41,2.41,0,0,0,.35-1.81,2.79,2.79,0,0,0-.33-.87c-.08-.14-.16-.28-.25-.41l-.14-.2s0-.18.11-.14,0,0,.05,0l0,0,.09.08a2.9,2.9,0,0,1,.89,1.75,2.5,2.5,0,0,1-.64,1.83,3.72,3.72,0,0,1-3.49,1.25Z"/><path class="cls-3" d="M150.19,133.52a10.14,10.14,0,0,1,1.79-5.37,12.37,12.37,0,0,1,4.31-3.72,18.7,18.7,0,0,1,11.15-1.89,15.12,15.12,0,0,1,5.42,1.82,17.37,17.37,0,0,1,4.43,3.62,32.79,32.79,0,0,1,5.72,9.86h0a32.17,32.17,0,0,0-5.81-9.78,16.2,16.2,0,0,0-9.78-5.36,19,19,0,0,0-11.08,1.84,12.26,12.26,0,0,0-4.32,3.64,10.05,10.05,0,0,0-1.83,5.34Z"/><path class="cls-3" d="M182.89,137.89c.36,0,.13-.32.07-.54l-.24-.67c-.18-.45-.34-.9-.53-1.34-.36-.89-.77-1.76-1.19-2.62a27.24,27.24,0,0,0-3.11-4.83,18.45,18.45,0,0,0-4.23-3.85,15.83,15.83,0,0,0-5.28-2.16,17.61,17.61,0,0,0-11.19,1.3,14,14,0,0,0-4.53,3.44,10.74,10.74,0,0,0-1.59,2.36,9.89,9.89,0,0,0-.81,2.73,11.18,11.18,0,0,0-.12,1.42v.31h.11s0,0,0,0c0-.24.06-.48.11-.71a9.79,9.79,0,0,1,1-2.73,11,11,0,0,1,4-4.14,12.11,12.11,0,0,1,1.28-.69c.44-.18.9-.32,1.36-.49a22.44,22.44,0,0,1,2.77-.8,9.6,9.6,0,0,1,1.42-.26c.48-.06.95-.17,1.43-.19a18.59,18.59,0,0,1,2.89,0,16.21,16.21,0,0,1,2.84.48l1.37.45A12.88,12.88,0,0,1,172,125a17,17,0,0,1,4.66,3.35,24.25,24.25,0,0,1,3.58,4.5,39.2,39.2,0,0,1,2.68,5.09h0a38.45,38.45,0,0,0-2.7-5.07,23.9,23.9,0,0,0-3.6-4.48,16.82,16.82,0,0,0-4.66-3.31c-.44-.18-.85-.43-1.31-.57l-1.37-.44a16.75,16.75,0,0,0-2.82-.46,18.33,18.33,0,0,0-2.87,0c-.48,0-.94.13-1.42.19a11.31,11.31,0,0,0-1.41.27,22.14,22.14,0,0,0-2.75.8c-.45.17-.91.31-1.35.49a11.6,11.6,0,0,0-1.25.68,10.93,10.93,0,0,0-3.91,4.08,9.44,9.44,0,0,0-1,2.68c0,.23-.07.47-.11.7a.2.2,0,0,1,0,.14h-.27s-.13,0-.11-.06v-.41a11.65,11.65,0,0,1,.12-1.45,10.05,10.05,0,0,1,.83-2.77,11.08,11.08,0,0,1,1.61-2.4,14.07,14.07,0,0,1,4.58-3.48,17.61,17.61,0,0,1,11.28-1.27,16.07,16.07,0,0,1,5.31,2.2,18.62,18.62,0,0,1,4.22,3.9,26.94,26.94,0,0,1,3.09,4.85c.42.86.83,1.73,1.18,2.62.19.45.35.9.52,1.34l.25.68c.05.22.28.51-.08.54Z"/><path class="cls-3" d="M176.13,143.52a40,40,0,0,0-5-1.66,20.78,20.78,0,0,0-5.2-.67,22.08,22.08,0,0,0-5.17.79c-1.7.44-3.37,1-5,1.52h0c1.67-.55,3.32-1.15,5-1.64a19.48,19.48,0,0,1,5.2-.83,18.49,18.49,0,0,1,5.23.71,45.76,45.76,0,0,1,5,1.78Z"/><path class="cls-3" d="M176.1,143.52a25.3,25.3,0,0,0-10.1-2.44,19.27,19.27,0,0,0-5.17.78l-1.83.62c.21,0,.54-.16.7-.2l.8-.24.41-.11,1-.24a20,20,0,0,1,4-.54c3.56-.07,7,1.09,10.22,2.37h0a25.48,25.48,0,0,0-10.21-2.24,20.53,20.53,0,0,0-4,.56l-1,.24-1.62.47-3.26.95h-.17l-.12,0h-.08s-.11,0,0-.05l5.06-1.78A18.88,18.88,0,0,1,166,141a26.39,26.39,0,0,1,10.1,2.57Z"/><path class="cls-3" d="M180.87,134.47a3.48,3.48,0,0,1-.19,2.87,10.47,10.47,0,0,1-1.58,2.52,10.18,10.18,0,0,1-2.17,2,4.6,4.6,0,0,1-.64.37,3.45,3.45,0,0,1-2.15.4h0a2.36,2.36,0,0,0,1.44-.15,2.5,2.5,0,0,0,.66-.31,5.11,5.11,0,0,0,.62-.41,12.29,12.29,0,0,0,3.7-4.48,3.31,3.31,0,0,0,.31-2.82Z"/><path class="cls-3" d="M180.88,134.48s0,0,0,0h0a3.46,3.46,0,0,1-.28,2.82,11.4,11.4,0,0,1-1.57,2.46,11.89,11.89,0,0,1-2.13,2,3.84,3.84,0,0,1-2.74.94v-.05s0,0,0,0l0-.06.09,0a3.57,3.57,0,0,0,2.69-.77,10.73,10.73,0,0,0,2.13-2,11.45,11.45,0,0,0,1.56-2.49,3.38,3.38,0,0,0,.23-2.84h0a3.46,3.46,0,0,1-.19,2.86,11.54,11.54,0,0,1-1.52,2.55,9.91,9.91,0,0,1-2.12,2.07,3.67,3.67,0,0,1-2.83.8l-.1,0h0a.1.1,0,0,1-.07-.12.11.11,0,0,1,.1-.07h0a3.8,3.8,0,0,0,2.63-.92,12.72,12.72,0,0,0,2.13-1.95,11.14,11.14,0,0,0,1.61-2.41,3.31,3.31,0,0,0,.32-2.79h0s0,0,0,0Z"/><path class="cls-3" d="M150.84,130.87a21.75,21.75,0,0,0,.77,3.92,24.87,24.87,0,0,0,1.34,3.74,10.88,10.88,0,0,0,2.2,3.27,3.72,3.72,0,0,0,1.71.95,3.08,3.08,0,0,0,1.93-.26h0a3.21,3.21,0,0,1-2,.3,3.79,3.79,0,0,1-1.78-.91,9.68,9.68,0,0,1-2.26-3.29,23.32,23.32,0,0,1-2-7.73Z"/><path class="cls-3" d="M150.85,130.9a20,20,0,0,0,.65,3.88,24,24,0,0,0,1.32,3.76,10.16,10.16,0,0,0,2.19,3.27,3.84,3.84,0,0,0,1.69.94,3,3,0,0,0,1.9-.23l.11-.06h0c0,.07,0,0,0,.05h0s0,0,0,.07h0l-.23.09a4.54,4.54,0,0,1-.5.12,3.17,3.17,0,0,1-1,0,3.57,3.57,0,0,1-1.8-.92,10.68,10.68,0,0,1-2.28-3.29,22.84,22.84,0,0,1-1.34-3.77,25.07,25.07,0,0,1-.74-3.92h0a23.62,23.62,0,0,0,2.19,7.63,10.52,10.52,0,0,0,2.28,3.22,3.41,3.41,0,0,0,1.71.89,3.16,3.16,0,0,0,1,0,4.21,4.21,0,0,0,.48-.12l.23-.08h0s.13,0,.13.05-.07.14-.06.12h0l-.11.06a3.07,3.07,0,0,1-2,.25,3.93,3.93,0,0,1-1.76-1,9.76,9.76,0,0,1-2.2-3.34,23.47,23.47,0,0,1-1.25-3.8c-.15-.65-.29-1.31-.4-2a13.84,13.84,0,0,1-.21-1.93Z"/><path class="cls-3" d="M150.17,118.5a20.35,20.35,0,0,0,1.2,2.2l.69,1a10.14,10.14,0,0,0,.76,1h0c-.29-.3-.57-.61-.85-.93a8.32,8.32,0,0,1-.73-1,10.55,10.55,0,0,1-1.07-2.28Z"/><path class="cls-3" d="M150.18,118.51s0,0,0,0h0a13.29,13.29,0,0,0,1.1,2.24l.7,1a6,6,0,0,0,.87.88l0,0,0,0a.07.07,0,0,0-.07.06v0l-1.4-2a15.41,15.41,0,0,1-1.17-2.24h0a12.62,12.62,0,0,0,1.27,2.16c.51.65,1,1.33,1.44,2v0a.1.1,0,0,1-.11.09h0l0,0a6.88,6.88,0,0,1-.89-.9l-.68-1.07a15.09,15.09,0,0,1-1-2.3h0s0,0,0,0Z"/><path class="cls-3" d="M158.9,116.53c.18.78.41,1.55.54,2.34.08.39.16.79.21,1.18l.17,1.19h0l-.29-1.17c-.1-.39-.17-.78-.25-1.18-.18-.78-.25-1.58-.38-2.37Z"/><path class="cls-3" d="M158.91,116.53h0l.43,2.36.23,1.17.13.37a3.91,3.91,0,0,0-.05-.39l-.23-1.15-.49-2.37h0l.61,2.34c.1.39.2.78.28,1.18s.06.9,0,1.27l-.43-1.21-.19-1.19-.31-2.38h0a0,0,0,0,1,0,0Z"/><path class="cls-3" d="M169.45,116.7c-.32.57-.54,1.18-.8,1.77l-.34.91c-.11.31-.22.62-.3.93h0c.06-.32.11-.64.18-1a5.44,5.44,0,0,1,.31-.94,7.82,7.82,0,0,1,.95-1.72Z"/><path class="cls-3" d="M169.45,116.71l0,0h0l-.89,1.74-.32.9a3.9,3.9,0,0,0-.14,1v0a.07.07,0,0,0-.08,0l0,0c.23-.59.44-1.19.65-1.79l.85-1.78h0l-.74,1.81a14.45,14.45,0,0,1-.62,1.82v0h0a.09.09,0,0,1-.12,0l0,0v0a3.93,3.93,0,0,1,.14-1l.37-.92,1-1.69h0l0,0Z"/><path class="cls-3" d="M177,120.62c-.26.67-.48,1.35-.79,2-.14.32-.28.65-.44,1s-.33.63-.49,1h0c.13-.33.25-.66.37-1s.27-.66.42-1c.26-.66.62-1.28.93-1.93Z"/><path class="cls-3" d="M177,120.63h0l-.88,1.95-.42,1-.09.35a2.33,2.33,0,0,0,.16-.31l.42-1c.27-.65.54-1.3.84-2h0l-.73,2c-.13.34-.25.68-.39,1s-.43.69-.65.94l.28-1.12.47-1,1-1.9h0Z"/><path class="cls-3" d="M184.35,128.09a9.07,9.07,0,0,1-1.29,1.48,5.08,5.08,0,0,1-.79.59l-.86.47h0c.27-.18.53-.38.79-.58s.51-.39.76-.6c.46-.44.94-.89,1.39-1.36Z"/><path class="cls-3" d="M184.36,128.1c-.46.4-.92.93-1.37,1.39l-.78.59a1.77,1.77,0,0,0-.23.21l.28-.15.77-.59,1.33-1.45h0l-1.24,1.54-.77.64-1,.4a6.51,6.51,0,0,1,.75-.73l.81-.56c.48-.42,1-.91,1.45-1.29Z"/><path class="cls-3" d="M179.86,142.65a3.91,3.91,0,0,1-.16,1.59,3.61,3.61,0,0,1-.81,1.39,2.58,2.58,0,0,1-1.35.87,2.22,2.22,0,0,1-.81,0,2.83,2.83,0,0,1-.76-.25h0a2.61,2.61,0,0,0,.76.21,2.21,2.21,0,0,0,.77-.1,3.07,3.07,0,0,0,1.28-.85,5.15,5.15,0,0,0,.81-1.33,3.58,3.58,0,0,0,.27-1.55Z"/><path class="cls-3" d="M179.87,142.66a4.2,4.2,0,0,1-1,2.85,3,3,0,0,1-1.3.88,2.44,2.44,0,0,1-1.58,0h0s.09,0,0-.07h0l0-.06.11.08a1.94,1.94,0,0,0,1.49.16,2.79,2.79,0,0,0,1.26-.87,4,4,0,0,0,1-2.93h0a4.19,4.19,0,0,1-.91,3,2.74,2.74,0,0,1-1.31,1,2.07,2.07,0,0,1-1.61-.19l-.12-.07h0s-.05-.1,0-.12a.08.08,0,0,1,.07-.05h0a2.53,2.53,0,0,0,2.74-.76,4.07,4.07,0,0,0,1.13-2.77Z"/><path class="cls-3" d="M153.06,112.87a2.38,2.38,0,0,1-1.92-.46,3.82,3.82,0,0,1-1.24-1.62,4.17,4.17,0,0,1-.34-2,4.24,4.24,0,0,1,.21-1,5.89,5.89,0,0,1,.42-.92h0a5.1,5.1,0,0,0-.37.94,3.62,3.62,0,0,0-.13,1,4.78,4.78,0,0,0,.36,1.94,4.24,4.24,0,0,0,1.16,1.58,2.24,2.24,0,0,0,1.85.56Z"/><path class="cls-3" d="M153.05,112.88s0,0,0,0h0a2.29,2.29,0,0,1-1.88-.55,4,4,0,0,1-1.18-1.63,4.81,4.81,0,0,1-.14-3,4.42,4.42,0,0,1,.15-.48l.09-.24,0-.06h0l.06,0h0s-.06,0,.06,0l-.07.1a4,4,0,0,0-.21,3.8,4,4,0,0,0,1.2,1.57,2.28,2.28,0,0,0,1.89.49h0a2.37,2.37,0,0,1-1.92-.44,4.25,4.25,0,0,1-1.28-1.57,4,4,0,0,1,.18-3.94l.08-.1c.06-.08.19,0,.16.07v0l0,.06-.09.23-.15.48a4.56,4.56,0,0,0-.15,1,4.78,4.78,0,0,0,.26,1.95,3.84,3.84,0,0,0,1.1,1.64,2.19,2.19,0,0,0,1.84.59h0s0,0,0,0Z"/></g><g id="eyebrows"><path class="cls-3" d="M129.52,114.05c-1.75-.07-2.88-.94-4.42-1.42-7.4-2.63-14.75-.8-20.59,4.42-2.3,2-4.67,4.15-7.08,6.24,2.65-9.85,16.69-17.73,26.49-14.5,2.39,1,5,1.92,6.24,4.42l-.64.84Z"/><path class="cls-3" d="M152.48,109c1-2.31,3.4-3.35,5.52-4.39,9.72-4.27,22.37,3.38,23.24,13.88l-.05,0c-7.95-10.25-12.81-15.21-25.86-9.24a4.31,4.31,0,0,1-2.21.57l-.64-.84Z"/></g></g></svg>