<svg id="artwork" xmlns="http://www.w3.org/2000/svg" viewBox="0 0 282 282"><defs><style>.cls-1{fill:#d9cec5;}.cls-2{fill:#806172;}.cls-3,.cls-4{fill:#2d2d2d;}.cls-4,.cls-7{fill-rule:evenodd;}.cls-5,.cls-7{fill:none;stroke:#2d2d2d;stroke-miterlimit:10;}.cls-6{fill:#f2eae4;}</style></defs><g id="eyes_tired6"><g id="white"><path class="cls-1" d="M112.66,128.33c-3.43,1.3-6,1.2-6.83,2.29s-.84,4.77-.58,6.23,4.46,4,7.15,5,7.41.45,9.83.23,5.82-2.09,6.8-2.69,3.85-2.4,4.24-4.15a5.68,5.68,0,0,0-.1-3.73c-.42-1.47-3.34-3.68-6.55-3.5S112.66,128.33,112.66,128.33Z"/><path class="cls-1" d="M172.3,129.55c3.53,1,6.07.67,7,1.68s1.25,4.69,1.12,6.16-4.1,4.42-6.7,5.56-7.34,1.1-9.77,1.09-6-1.58-7-2.09-4-2.06-4.59-3.76-1.68-6.81-1.39-8.3,4.53-1.36,7.75-1.45S172.3,129.55,172.3,129.55Z"/></g><g id="iris"><path class="cls-2" d="M123.37,126.73a2.14,2.14,0,0,0-.38-.15c-3.08.63-6.18,1.15-9.22,2a6.29,6.29,0,0,0-.81,5.23,6.69,6.69,0,0,0,5.84,3.51c2.4-.12,5.29-.52,6-2s1.33-3.23,1-4.55S124.22,127.2,123.37,126.73Z"/><path class="cls-2" d="M167.79,128.9c-2.73-.68-5.53-.27-8.32-.21a9.78,9.78,0,0,0-1.66,3.77c-.26,1.3.48,2.91,1.29,4.28s3.6,1.51,5.9,1.42a6.42,6.42,0,0,0,5.3-3.84,6.11,6.11,0,0,0-1.37-5.14Z"/></g><g id="iris_outline"><path class="cls-3" d="M119.09,131.27s0-.05.06,0,0,0,0,.05v2.8a9.66,9.66,0,0,1-.06,1.43,7.46,7.46,0,0,1-.33,1.42h0a7,7,0,0,1-.12-1.44c0-.48.11-1,.16-1.44l.17-1.42.08-.71,0-.36v-.17s0-.18,0-.1h0Z"/><path class="cls-3" d="M119.73,131.9c.51.7,1,1.4,1.52,2.08a11.24,11.24,0,0,1,.81,1,3.94,3.94,0,0,1,.56,1.19l0,0h0a11.26,11.26,0,0,1-.91-.92,7.23,7.23,0,0,1-.75-1.06c-.43-.76-.82-1.53-1.23-2.29l0,0Z"/><path class="cls-3" d="M120.32,131.44h-.07l0-.06a24.28,24.28,0,0,0,2.49.85c.42.16.84.23,1.27.42a2.87,2.87,0,0,1,1.14.79v0l0,0c-.44-.14-.85-.25-1.28-.36a6.56,6.56,0,0,1-1.26-.52,23.5,23.5,0,0,1-2.36-1.17l-.11-.07.13,0h.06v0A0,0,0,0,1,120.32,131.44Z"/><path class="cls-3" d="M119.84,130.83a6.33,6.33,0,0,1,1.69-1.53,10.6,10.6,0,0,1,.93-.61c.34-.16.65-.33,1-.48l0,0v0a2.68,2.68,0,0,1-.78.86,6.92,6.92,0,0,1-1,.54,6,6,0,0,0-1.85,1.21h0Z"/><path class="cls-3" d="M119.12,131.12l-.21-1.44a2.41,2.41,0,0,1-.07-.71,2.16,2.16,0,0,1,.2-.72h0a2.07,2.07,0,0,1,.25.72,2.9,2.9,0,0,1,0,.72l-.14,1.44h0Z"/><path class="cls-3" d="M118,131.9v0h0v0h0a5.42,5.42,0,0,1-1,.87l-1.06.79a9.78,9.78,0,0,1-1.14.68,5.49,5.49,0,0,0-1.1.67h0l0,0a2.13,2.13,0,0,1,.88-1.08,9.59,9.59,0,0,1,1.2-.6l1.13-.63a4.67,4.67,0,0,0,1.07-.72h0s0,0,0,0v0l0,0h0Z"/><path class="cls-3" d="M117.88,131c-.55-.22-1.08-.49-1.61-.76a4.77,4.77,0,0,1-.77-.43,3.51,3.51,0,0,1-.65-.63v0l0,0a2.8,2.8,0,0,1,.88.25,4.12,4.12,0,0,1,.72.52c.47.37.93.74,1.42,1.06v0Z"/><path class="cls-3" d="M113.78,129.2a5.91,5.91,0,0,0-.92,3.19,4.18,4.18,0,0,0,1.48,2.9,7.36,7.36,0,0,0,3,1.52,8.42,8.42,0,0,0,3.31.24,6.58,6.58,0,0,0,3.05-1.14,4.62,4.62,0,0,0,1.78-2.61,6.47,6.47,0,0,0-1.79-6.09s0,0,0,0,0,0,0,0a6.3,6.3,0,0,1,2.25,6.25,4.83,4.83,0,0,1-2,2.89,7,7,0,0,1-3.29,1.13,8.49,8.49,0,0,1-3.44-.33,7.57,7.57,0,0,1-3-1.65,4.37,4.37,0,0,1-1.46-3.06,5.9,5.9,0,0,1,1-3.23s0,0,0,0A0,0,0,0,1,113.78,129.2Z"/><path class="cls-3" d="M164.18,132.44c0-.08,0,.06,0,.09l0,.17.07.34.14.67.28,1.35a9.92,9.92,0,0,1,.27,1.36,7.17,7.17,0,0,1,0,1.39H165a7,7,0,0,1-.45-1.33,8.72,8.72,0,0,1-.17-1.36l-.11-1.38-.06-.69,0-.35v-.26a.18.18,0,0,1,0-.06c.1,0,.05,0,.07,0h0Z"/><path class="cls-3" d="M163.71,133.11c-.33.76-.64,1.53-1,2.29a7.59,7.59,0,0,1-.62,1.08,11.67,11.67,0,0,1-.81,1h0a3.72,3.72,0,0,1,.42-1.2,10.62,10.62,0,0,1,.7-1c.44-.69.85-1.41,1.28-2.12h0Z"/><path class="cls-3" d="M163.06,132.64h.06l.12,0-.1.08A23.12,23.12,0,0,1,161,134a6.13,6.13,0,0,1-1.16.61l-1.2.44,0,0a0,0,0,0,1,0,0,2.75,2.75,0,0,1,1-.86c.38-.21.79-.32,1.17-.5.79-.36,1.59-.59,2.32-1l0,.05h-.07v0S163.06,132.64,163.06,132.64Z"/><path class="cls-3" d="M163.43,132.11a5.72,5.72,0,0,0-1.87-1,5.48,5.48,0,0,1-1-.43,2.61,2.61,0,0,1-.82-.77v0l0,0c.37.1.68.24,1,.36a8.54,8.54,0,0,1,.94.51,6.15,6.15,0,0,1,1.74,1.33l0,0Z"/><path class="cls-3" d="M164.14,132.29l-.26-1.37a2.59,2.59,0,0,1-.09-.68,1.86,1.86,0,0,1,.18-.7H164a2,2,0,0,1,.26.68,2.66,2.66,0,0,1,0,.69l-.09,1.39h-.05Z"/><path class="cls-3" d="M165.25,133v0s0,0,0,0,0,0,0,0h0a5,5,0,0,0,1.09.59l1.13.51a9,9,0,0,1,1.2.47,2.06,2.06,0,0,1,.93,1l0,0h0a5.16,5.16,0,0,0-1.11-.54,9.32,9.32,0,0,1-1.15-.56l-1.08-.67a4.9,4.9,0,0,1-1-.75h0v0h0l0,0h-.05Z"/><path class="cls-3" d="M165.34,132.06c.55-.42,1.06-.89,1.58-1.35a5.25,5.25,0,0,1,.81-.67,3.26,3.26,0,0,1,1-.39l0,0v0a5.2,5.2,0,0,1-.73.75,7.19,7.19,0,0,1-.86.58c-.59.37-1.18.75-1.79,1.07h0Z"/><path class="cls-3" d="M168.92,129.67a6,6,0,0,1,1.44,2.91,4.09,4.09,0,0,1-.86,3.12,6.78,6.78,0,0,1-2.62,2,8.26,8.26,0,0,1-3.21.76,7.15,7.15,0,0,1-3.28-.6,4.66,4.66,0,0,1-2.35-2.4,5.91,5.91,0,0,1,1.17-6.24s0,0,0,0,0,0,0,0a6.07,6.07,0,0,0-.75,6,4.58,4.58,0,0,0,2.12,2.16,6.72,6.72,0,0,0,3,.64,7.57,7.57,0,0,0,5.66-2.5,3.9,3.9,0,0,0,.91-3,6.24,6.24,0,0,0-1.34-2.89s0,0,0,0A0,0,0,0,1,168.92,129.67Z"/></g><g id="pupil"><path class="cls-4" d="M119.32,132l1.44,1.27a1.92,1.92,0,1,1-.15-2.73,1.9,1.9,0,0,1,.53.78Z"/><path class="cls-4" d="M164.06,133.12l-1.27,1.33a1.84,1.84,0,1,0-.08-2.62,1.72,1.72,0,0,0-.44.79Z"/><path class="cls-4" d="M119.32,132l1.44,1.27a1.92,1.92,0,1,1-.15-2.73,1.9,1.9,0,0,1,.53.78Z"/><path class="cls-4" d="M164.06,133.12l-1.27,1.33a1.84,1.84,0,1,0-.08-2.62,1.72,1.72,0,0,0-.44.79Z"/><path class="cls-5" d="M119.32,132l1.44,1.27a1.92,1.92,0,1,1-.15-2.73,1.9,1.9,0,0,1,.53.78Z"/><path class="cls-5" d="M164.06,133.12l-1.27,1.33a1.84,1.84,0,1,0-.08-2.62,1.72,1.72,0,0,0-.44.79Z"/></g><g id="spec"><ellipse class="cls-6" cx="124.61" cy="129.68" rx="1.45" ry="1.66" transform="translate(-30.06 221.45) rotate(-76.82)"/><circle class="cls-6" cx="169.93" cy="132.59" r="1.81"/></g><g id="outline"><path class="cls-3" d="M134.76,131.62a20.43,20.43,0,0,0-8.53-3,23.94,23.94,0,0,0-4.46-.17,24.28,24.28,0,0,0-4.35.8c-1.44.41-2.85,1-4.29,1.49-.7.27-1.47.54-2.15.77l-2.09.74a82.86,82.86,0,0,1-8.82,2.89l-.13-.27a34.26,34.26,0,0,1,7.79-5.39,17.11,17.11,0,0,1,2.25-.92c.78-.26,1.49-.45,2.26-.65,1.52-.39,3.08-.72,4.65-1a25.12,25.12,0,0,1,4.84-.43,23.55,23.55,0,0,1,4.77.69,20.36,20.36,0,0,1,8.44,4.17Z"/><path class="cls-3" d="M105,135.65a5.73,5.73,0,0,0,2.33,3.65,12.88,12.88,0,0,0,3.94,2,20.81,20.81,0,0,0,8.8.71,23.92,23.92,0,0,0,8.3-2.88,26.53,26.53,0,0,0,3.64-2.52,36.41,36.41,0,0,0,3.21-3.13l.08,0a20.27,20.27,0,0,1-2.82,3.59,21.71,21.71,0,0,1-3.6,2.87,20.5,20.5,0,0,1-8.72,2.81,20.75,20.75,0,0,1-9-1,13.35,13.35,0,0,1-4-2.23,5.92,5.92,0,0,1-2.23-3.88Z"/><path class="cls-3" d="M130.63,121.87a11,11,0,0,1,.25,2.3,5.11,5.11,0,0,1-.07,1.17,4.42,4.42,0,0,1-.38,1.11h0c0-.4,0-.78.05-1.16s.11-.74.14-1.12a11.68,11.68,0,0,0,0-2.29,0,0,0,0,1,0,0Z"/><path class="cls-3" d="M124.26,122.62l.26,1.46a4.42,4.42,0,0,1,.1.73,2.78,2.78,0,0,1-.11.75h0a2.77,2.77,0,0,1-.24-.72,4.54,4.54,0,0,1,0-.74v-1.48h0Z"/><path class="cls-3" d="M115.89,122.75a9.88,9.88,0,0,1,.66,1.69,3.91,3.91,0,0,1,.18.89,2.86,2.86,0,0,1-.1.92h0a8,8,0,0,1-.23-.87c-.06-.29-.06-.59-.1-.88a9.46,9.46,0,0,0-.41-1.73l0,0Z"/><path class="cls-3" d="M108.9,124l.76,1.87a6.28,6.28,0,0,1,.36.94,4.84,4.84,0,0,1,.16,1h0a5.18,5.18,0,0,1-.48-.9,7.73,7.73,0,0,1-.28-1l-.52-2h0Z"/><path class="cls-3" d="M103.14,125.43a13.24,13.24,0,0,0,1.11,2.23c.21.35.46.68.67,1s.42.71.59,1.1v0h0a5.11,5.11,0,0,1-.89-.91,7.51,7.51,0,0,1-.62-1.11,14.25,14.25,0,0,1-.88-2.36h0A0,0,0,0,1,103.14,125.43Z"/><path class="cls-3" d="M106.36,132.48A42.43,42.43,0,0,1,119.19,127a33.93,33.93,0,0,1,7-1.12,28.3,28.3,0,0,1,7,.54v.1c-2.33,0-4.63.13-6.93.36a65.81,65.81,0,0,0-6.83.9,45.18,45.18,0,0,0-13,4.83Z"/><path class="cls-3" d="M116.5,146.93a12.21,12.21,0,0,1-8.62-2.19,16.6,16.6,0,0,1-3.38-3,21.33,21.33,0,0,1-2.5-3.78,0,0,0,0,1,0,0h0c.93,1.19,1.82,2.38,2.84,3.48a22.12,22.12,0,0,0,3.23,3,12,12,0,0,0,8.38,2.47s0,0,0,0Z"/><path class="cls-3" d="M122.71,146.39c2.34-1.83,5-3.28,7.19-5.2a15.69,15.69,0,0,0,2.88-3.27,13.69,13.69,0,0,0,1.76-4s0,0,0,0,0,0,0,0a10,10,0,0,1-1.38,4.26,13,13,0,0,1-3.05,3.31c-2.35,1.87-5,3.2-7.42,4.93,0,0,0,0,0,0S122.7,146.4,122.71,146.39Z"/><path class="cls-3" d="M149.28,129.54a47.51,47.51,0,0,1,9.16-2.14,27.4,27.4,0,0,1,4.8-.14A25.13,25.13,0,0,1,168,128a40.65,40.65,0,0,1,9,2.81,25.6,25.6,0,0,1,7.75,5.56l-.17.25c-3-1-5.85-2.06-8.74-3s-5.63-2.26-8.54-3.26a25.17,25.17,0,0,0-8.83-1.48,54.07,54.07,0,0,0-9.17,1Z"/><path class="cls-3" d="M180.7,136.17a5.9,5.9,0,0,1-1.89,4.06A13,13,0,0,1,175,142.8a20.73,20.73,0,0,1-8.92,1.82,20.48,20.48,0,0,1-8.93-2,21.47,21.47,0,0,1-3.84-2.54,20.92,20.92,0,0,1-3.12-3.33l.08-.06a33.24,33.24,0,0,0,3.47,2.83,26.1,26.1,0,0,0,3.84,2.2,23.89,23.89,0,0,0,8.52,2.15,20.72,20.72,0,0,0,8.7-1.48A13,13,0,0,0,178.6,140a5.74,5.74,0,0,0,2-3.84Z"/><path class="cls-3" d="M185.28,135.26a26.66,26.66,0,0,1-5.1-3.11c-1.59-1.21-3.08-2.54-4.62-3.76a20.58,20.58,0,0,0-4.95-2.95,13.92,13.92,0,0,0-5.71-.8v-.1a9.91,9.91,0,0,1,6.05,0,15.13,15.13,0,0,1,5.13,3.28c1.51,1.31,2.91,2.7,4.42,4a27.77,27.77,0,0,0,4.84,3.41Z"/><path class="cls-7" d="M180.15,136.38c-8.49-6.24-12.33-7.33-24.45-8"/><path class="cls-3" d="M174,145a36,36,0,0,0,3.48-3.17c.54-.56,1-1.16,1.59-1.72s1.08-1.13,1.68-1.66h0a0,0,0,0,1,0,0,12.63,12.63,0,0,1-1.35,2,17.76,17.76,0,0,1-1.68,1.68A36,36,0,0,1,174,145s0,0,0,0S173.94,145,174,145Z"/><path class="cls-3" d="M149.73,125.81a3.87,3.87,0,0,0,.36,1.12c.09.17.21.33.28.5a4.39,4.39,0,0,1,.18.58,0,0,0,0,1,0,0h0a1.28,1.28,0,0,1-.48-.41,1.77,1.77,0,0,1-.23-.59,3.87,3.87,0,0,1-.12-1.22h0Z"/><path class="cls-3" d="M152.27,123.41a6.25,6.25,0,0,0-.06,1.93c0,.32.11.63.14.94s.08.64.09,1h0a2.77,2.77,0,0,1-.43-.92,3.69,3.69,0,0,1-.07-1,6.38,6.38,0,0,1,.33-1.95h0Z"/><path class="cls-3" d="M154.78,123.05l.19,1.53a5,5,0,0,1,.07.77,2.67,2.67,0,0,1-.14.78h0a2.67,2.67,0,0,1-.2-.76,4,4,0,0,1,0-.77l.07-1.55h0Z"/><path class="cls-3" d="M162.39,118.6l.11,1.51a3.9,3.9,0,0,1,0,.76,3,3,0,0,1-.18.76h0a3.56,3.56,0,0,1-.16-.76,4.77,4.77,0,0,1,0-.76l.16-1.51h0Z"/></g><g id="eyebrows"><path class="cls-3" d="M132.79,108.3c.41,1.07-.11,1.21-.4,1.55-4.67,3.87-10.66,5.55-16,8.1-2.84,1.34-5.36,3.27-8.19,4.55s-5.61,2.6-8.66,3.8L99.3,126c.47-.68,1-1.3,1.53-1.94a30.91,30.91,0,0,1,5.64-4.63c2.7-1.8,5.84-2.69,8.71-4,4.12-2,8.57-4.26,12.79-6.08.69-.29,2.44-1.08,3.12-1.37.33-.14.42-.49,1.46.09l.24.25Z"/><path class="cls-3" d="M148.58,107.73c1.06-.48,1.06-.17,1.39,0A129.41,129.41,0,0,0,165.12,113c2.84.77,5.86.94,8.66,2s5.77,2.34,7.85,4.71l-.19.29c-2.94-.62-5.78-1-8.65-1.64s-5.56-1.91-8.41-2.69c-5-1.39-10.53-2.22-14.9-5.39a6.9,6.9,0,0,1-1.36-1.34,1.19,1.19,0,0,1,.46-1.26Z"/><path class="cls-3" d="M137.38,111a9.51,9.51,0,0,0-.74-3.85,7.85,7.85,0,0,0-1.18-1.52c-.43-.48-.94-.91-1.4-1.42v0h0a6.94,6.94,0,0,1,1.72,1.11A4.84,4.84,0,0,1,137,107a9.7,9.7,0,0,1,.43,4s0,0,0,0A0,0,0,0,1,137.38,111Z"/><path class="cls-3" d="M146.27,112.14c.08-1-.05-1.9-.06-2.88a3,3,0,0,1,.33-1.48,3.13,3.13,0,0,1,1-1.07h0l0,0c-.22.45-.47.84-.63,1.26a4.59,4.59,0,0,0-.38,1.29c-.11.92-.1,1.91-.29,2.85h0Z"/></g></g></svg>