<svg id="artwork" xmlns="http://www.w3.org/2000/svg" viewBox="0 0 282 282"><defs><style>.cls-1{fill:#d9cec5;}.cls-2{fill:#806172;}.cls-3,.cls-4{fill:#2d2d2d;}.cls-4{fill-rule:evenodd;}.cls-5{fill:none;stroke:#2d2d2d;stroke-miterlimit:10;}.cls-6{fill:#f2eae4;}</style></defs><g id="eyes_thinking5"><g id="white"><path class="cls-1" d="M173.09,124.53c7.38,5.29,6.55,18.23-2.33,20.7-6.55,1.83-13.54,1-17.25-6.1-2.56-4.88.25-13.54,5.32-15.21C164.23,122.13,167.93,120.84,173.09,124.53Z"/><path class="cls-1" d="M112.1,124.18c-.4.19-.48,1.88-.83,2.11a10,10,0,0,0-3.79,5c-1.6,4.23-3.32,8.4,3.14,13.12,3.63,2.64,10.39,2.85,14.13.51,7.69-4.82,9.44-9.88,5.31-14.5-2-2.19-2.64-4.7-5.26-5.47C121.32,123.91,115.68,122.54,112.1,124.18Z"/></g><g id="iris"><path class="cls-2" d="M114.18,124.68c1.85-.22,4.51.47,5.13,2.71,1,3.69-4.77,8.23-8.19,7.24a3.74,3.74,0,0,1-2.24-2.86C108,128,110.82,125.07,114.18,124.68Z"/><path class="cls-2" d="M161.33,123.46c1.85-.2,4.5.51,5.11,2.75,1,3.7-4.83,8.19-8.25,7.17a3.73,3.73,0,0,1-2.22-2.87C155.09,126.73,158,123.83,161.33,123.46Z"/></g><g id="iris_outline"><path class="cls-3" d="M115.25,133.23a27.41,27.41,0,0,1-1.57-4,2.79,2.79,0,0,1-.13-.58,30.06,30.06,0,0,1,1.7,4.54Z"/><path class="cls-3" d="M112.14,134.34a44.33,44.33,0,0,1,1.35-4.38,14.74,14.74,0,0,1-1.35,4.38Z"/><path class="cls-3" d="M109.6,133.47a29.34,29.34,0,0,1,3.45-3.72c-.85,1.48-2.38,2.48-3.45,3.72Z"/><path class="cls-3" d="M108.62,128.79c1.5.33,3.17-.4,4.55.46-1.43-.33-3.15,0-4.55-.46Z"/><path class="cls-3" d="M111.93,124a19.48,19.48,0,0,1,1.23,3.81c0,.14.14.48,0,.58-.59-1.38-.75-3-1.26-4.39Z"/><path class="cls-3" d="M118.7,129.57c-.93-.4-2,.06-3-.09-.24,0-.87-.08-1-.26,0,0,0,0,0,0h0s0-.06,0-.05c.65.07,1.33,0,2,.1s1.48-.16,2,.27Z"/><path class="cls-3" d="M117.32,125a25,25,0,0,1-2.6,3.5,17.38,17.38,0,0,1,2.6-3.5Z"/><path class="cls-3" d="M111.54,125.77c-4.06,2.54-2.87,10.77,2.75,8,2.71-1.28,5.79-4.76,3.6-7.61a5.89,5.89,0,0,0-2.9-1.62l0-.1c7.17.63,4.88,8.23-.37,10.1-6.57,2.84-7.89-6.45-3.1-8.77Z"/><path class="cls-3" d="M162.33,132a28.22,28.22,0,0,1-1.54-4,2.53,2.53,0,0,1-.12-.57,28.65,28.65,0,0,1,1.66,4.55Z"/><path class="cls-3" d="M159.22,133.1c.44-1.46.79-2.95,1.37-4.36a14.57,14.57,0,0,1-1.37,4.36Z"/><path class="cls-3" d="M156.68,132.21a28.37,28.37,0,0,1,3.48-3.69c-.87,1.47-2.4,2.46-3.48,3.69Z"/><path class="cls-3" d="M155.74,127.52c1.49.35,3.17-.37,4.54.5-1.43-.34-3.15-.05-4.54-.5Z"/><path class="cls-3" d="M159.09,122.77a19.67,19.67,0,0,1,1.19,3.82c0,.15.14.48,0,.59-.58-1.39-.73-3-1.22-4.41Z"/><path class="cls-3" d="M165.81,128.39c-.92-.41-2,.05-3-.12-.24,0-.87-.08-1-.26,0,0,0,0,0,0h0s0,0,0,0c.64.07,1.32,0,2,.11s1.48-.14,1.95.29Z"/><path class="cls-3" d="M164.46,123.85a23.56,23.56,0,0,1-2.62,3.47,17.38,17.38,0,0,1,2.62-3.47Z"/><path class="cls-3" d="M158.68,124.53c-4.08,2.51-3,10.75,2.69,8,2.72-1.26,5.82-4.72,3.66-7.58a5.85,5.85,0,0,0-2.89-1.64l0-.1c4.84.19,5.86,5,2.61,8.1-2.59,2.66-7.92,4.13-8.92-.71a6,6,0,0,1,2.77-6.17l.06.08Z"/></g><g id="pupil"><path class="cls-4" d="M113,128.87l1.55-.83a1.89,1.89,0,0,1-1.06,2.13,1.38,1.38,0,0,1-2-.47,1.89,1.89,0,0,1,1.07-2.13,2,2,0,0,1,.8-.24Z"/><path class="cls-4" d="M160.15,127.64l1.56-.82a1.91,1.91,0,0,1-1.08,2.13,1.39,1.39,0,0,1-2-.49,1.9,1.9,0,0,1,1.08-2.12,1.87,1.87,0,0,1,.8-.23Z"/><path class="cls-4" d="M113,128.87l1.55-.83a1.89,1.89,0,0,1-1.06,2.13,1.38,1.38,0,0,1-2-.47,1.89,1.89,0,0,1,1.07-2.13,2,2,0,0,1,.8-.24Z"/><path class="cls-4" d="M160.15,127.64l1.56-.82a1.91,1.91,0,0,1-1.08,2.13,1.39,1.39,0,0,1-2-.49,1.9,1.9,0,0,1,1.08-2.12,1.87,1.87,0,0,1,.8-.23Z"/><path class="cls-5" d="M113,128.87l1.55-.83a1.89,1.89,0,0,1-1.06,2.13,1.38,1.38,0,0,1-2-.47,1.89,1.89,0,0,1,1.07-2.13,2,2,0,0,1,.8-.24Z"/><path class="cls-5" d="M160.15,127.64l1.56-.82a1.91,1.91,0,0,1-1.08,2.13,1.39,1.39,0,0,1-2-.49,1.9,1.9,0,0,1,1.08-2.12,1.87,1.87,0,0,1,.8-.23Z"/></g><g id="spec"><ellipse class="cls-6" cx="115.65" cy="126.94" rx="1.52" ry="1.19" transform="translate(-55.81 117.5) rotate(-44.51)"/><ellipse class="cls-6" cx="162.78" cy="125.73" rx="1.52" ry="1.19" transform="translate(-41.63 148.58) rotate(-44.06)"/></g><g id="outline"><path class="cls-3" d="M150.12,136a15,15,0,0,0,2.57,6.31,19.67,19.67,0,0,0,2.23,2.58,15.32,15.32,0,0,0,1.25,1.16c.22.18.44.37.67.54s.47.5.64.29c0,0,0,0,0,0s0,0,0,0c0,.18-.3.14-.42.07l-.39-.21a8.27,8.27,0,0,1-.75-.45,12,12,0,0,1-1.39-1.08,12.6,12.6,0,0,1-2.21-2.72,15.18,15.18,0,0,1-2.29-6.53l0,0Z"/><path class="cls-3" d="M101.82,139.61a15.49,15.49,0,0,1,1-7.46,13.33,13.33,0,0,1,1.84-3.35,11.64,11.64,0,0,1,2.77-2.61,0,0,0,0,1,0,0,0,0,0,0,1,0,0,21.65,21.65,0,0,0-2.4,2.86,20.53,20.53,0,0,0-1.87,3.21,15.38,15.38,0,0,0-1.32,7.31s0,0,0,0Z"/><path class="cls-3" d="M123.05,149.34a9.4,9.4,0,0,0,4.59-1.78A13,13,0,0,0,131,144a22.92,22.92,0,0,0,2.11-4.48c.59-1.55,1-3.16,1.54-4.75,0,0,0,0,0,0s0,0,0,0a29.81,29.81,0,0,1-1.12,4.91,17.88,17.88,0,0,1-2.24,4.53,13.51,13.51,0,0,1-3.59,3.56,9.77,9.77,0,0,1-4.72,1.64,0,0,0,0,1,0,0S123,149.34,123.05,149.34Z"/><path class="cls-3" d="M175.28,122.78a26.83,26.83,0,0,1,5,6.76,18.41,18.41,0,0,1,1.62,3.92,10.57,10.57,0,0,1,.33,4.22s0,0,0,0l0,0a15.65,15.65,0,0,0-.76-4.08,29.85,29.85,0,0,0-1.49-3.88,27,27,0,0,0-4.69-6.91,0,0,0,0,1,0,0A0,0,0,0,1,175.28,122.78Z"/><path class="cls-3" d="M151.75,133.94a22.47,22.47,0,0,1,5-9.19,11.77,11.77,0,0,1,4.31-3.35,8.19,8.19,0,0,1,1.37-.33c.43-.08.88-.15,1.32-.21a15.52,15.52,0,0,1,2.73-.11,11.82,11.82,0,0,1,5.37,1.48,14.48,14.48,0,0,1,4.2,3.57,13.77,13.77,0,0,1,2.58,4.85,9,9,0,0,1-.14,5.39l-.2,0a10.73,10.73,0,0,0-1-4.87,15.49,15.49,0,0,0-2.77-4c-2.24-2.39-4.89-4.47-8.17-4.77a14.54,14.54,0,0,0-2.47,0q-.63,0-1.26.12a7,7,0,0,0-1.18.21,11,11,0,0,0-4,2.77,22.87,22.87,0,0,0-5.55,8.56Z"/><path class="cls-3" d="M152.48,139.12a15.84,15.84,0,0,0,6.68,5.49,15,15,0,0,0,8.47,1,14.23,14.23,0,0,0,7.44-3.93,16,16,0,0,0,4.13-7.48l.1,0a13,13,0,0,1-11.54,12.18,15.37,15.37,0,0,1-8.8-1.33,15.82,15.82,0,0,1-6.56-5.88Z"/><path class="cls-3" d="M132.1,133.77a22.88,22.88,0,0,0-6.84-7.63,10.84,10.84,0,0,0-4.4-2.14,6.62,6.62,0,0,0-1.2,0c-.42,0-.85,0-1.27.07a14.07,14.07,0,0,0-2.45.39,10.37,10.37,0,0,0-4.24,2.23,19.91,19.91,0,0,0-3.21,3.68,15.53,15.53,0,0,0-2.16,4.4,10.6,10.6,0,0,0-.24,5l-.19.07a8.84,8.84,0,0,1-1-5.33,13.76,13.76,0,0,1,1.86-5.2,14.38,14.38,0,0,1,3.66-4.16,12.27,12.27,0,0,1,5.12-2.25,15.8,15.8,0,0,1,2.73-.28c.45,0,.9,0,1.34,0a8.05,8.05,0,0,1,1.41.12,11.86,11.86,0,0,1,4.8,2.66,22.58,22.58,0,0,1,6.41,8.33Z"/><path class="cls-3" d="M106.14,139.5a15.72,15.72,0,0,0,6.68,5.49,15,15,0,0,0,8.47,1,14.31,14.31,0,0,0,7.44-3.93,16,16,0,0,0,4.13-7.48l.1,0a13,13,0,0,1-11.54,12.18,15.34,15.34,0,0,1-8.81-1.34,15.8,15.8,0,0,1-6.56-5.88Z"/><path class="cls-3" d="M180.05,144a10.44,10.44,0,0,0-.94-.76c-.17-.11-.37-.17-.46-.34a1.38,1.38,0,0,1-.15-.72l.06-.08a1.05,1.05,0,0,1,.78.07,1.06,1.06,0,0,1,.37.55,3.46,3.46,0,0,1,.43,1.24Z"/><path class="cls-3" d="M177.8,147a6.45,6.45,0,0,1-1.7-.94,2.14,2.14,0,0,1-.74-.66,1.76,1.76,0,0,1-.21-1l.08-.06a2.53,2.53,0,0,1,.9.46,3,3,0,0,1,.53.73,14.43,14.43,0,0,0,1.2,1.43Z"/><path class="cls-3" d="M174.38,150a9.35,9.35,0,0,1-1.56-1.7,3.06,3.06,0,0,1-.6-1,2.23,2.23,0,0,1,0-1.23l.1,0a3.29,3.29,0,0,1,.82.86,3.92,3.92,0,0,1,.39,1c.28.67.59,1.35.94,2Z"/><path class="cls-3" d="M113.38,149.25a11.12,11.12,0,0,0,.13-1.21,1.12,1.12,0,0,1,0-.58,1.33,1.33,0,0,1,.52-.51h.1a1,1,0,0,1,.36.69,1.09,1.09,0,0,1-.25.61,3.56,3.56,0,0,1-.81,1Z"/><path class="cls-3" d="M109.65,149a6.59,6.59,0,0,1-.13-1.94,2.11,2.11,0,0,1,.15-1,1.77,1.77,0,0,1,.76-.75l.09,0a2.48,2.48,0,0,1,.11,1,3.34,3.34,0,0,1-.33.84,16.06,16.06,0,0,0-.55,1.78Z"/><path class="cls-3" d="M105.27,147.73a9.18,9.18,0,0,1,.59-2.23,3.08,3.08,0,0,1,.5-1.05,2.26,2.26,0,0,1,1-.67l.08.06a3.09,3.09,0,0,1-.27,1.16,4.81,4.81,0,0,1-.64.88,22.21,22.21,0,0,0-1.19,1.88Z"/></g><g id="eyebrows"><path class="cls-3" d="M149,114.26c1.49-1,3-1.05,4.58-1.38s3.12-.61,4.72-.89c7.89-1.34,18.76-3.39,24.08,4.42a9.77,9.77,0,0,1,1.14,2.43c.13.88.84,1.62-.35,2.77a1.69,1.69,0,0,1-1.44-.81c-1.12-2.18-2.43-4.5-4.72-5.6-7.34-3-15.32.45-22.87,1.25-1.63.17-3.33.57-5.06-.31l-.08-1.88Z"/><path class="cls-3" d="M129.66,118.57a4.39,4.39,0,0,1-2.22-1,23.94,23.94,0,0,0-5.83-3c-9-2.36-13-1.16-18,6.78a18.17,18.17,0,0,1-3.24,3.68l-.07,0c.53-1.56,1-3.05,1.46-4.57,2.91-9.19,9.33-12.13,18.45-9.75a18,18,0,0,1,9,4.59,4,4,0,0,1,1.5,2l-1,1.28Z"/></g></g></svg>