<svg id="artwork" xmlns="http://www.w3.org/2000/svg" viewBox="0 0 282 282"><defs><style>.cls-1{fill:#ddcab4;fill-rule:evenodd;}.cls-2{fill:#2d2d2d;}</style></defs><g id="mouth_happy3"><g id="lip_colour" data-name="lip colour"><path class="cls-1" d="M127.22,181.38s0,3.26,5.83,5.28c2,.71,6.57,2.1,9.34,2.16a32.44,32.44,0,0,0,12.54-2.36c5.34-1.64,3.82-3.93,3.82-3.93l.85-.32a35.27,35.27,0,0,1-3.81-2.87,7.61,7.61,0,0,0-4.87-2c-2.93-.2-5,1.36-8.21,1.57-1.29.08-5.16-2.41-8.66-1.14-2.2.81-3.64.85-5.53,2.41a3.86,3.86,0,0,1-2.19.78Z"/></g><g id="outine"><path class="cls-2" d="M166.5,179.37a55.82,55.82,0,0,1-7.92,3.42c-2.79.84-5.7.66-8.56,1.15-9.28,1-20.35,1.79-27.46-5.43l.07-.08c7.73,6,18.08,5.52,27.32,4.85,2.83-.42,5.75-.11,8.54-.85,1.91-.34,3.53-1.38,5.34-2,.89-.35,1.76-.73,2.62-1.15l.05.09Z"/><path class="cls-2" d="M126.15,180.9c1.68.09,2.5-1.11,3.76-2a19.36,19.36,0,0,1,6.43-1.84,23.46,23.46,0,0,1,6.49,1.65l-.29,0c1.51-.49,3-.92,4.54-1.3,1.91-.38,4.08-1.08,6.06-.4,1.79.75,3.32,2.4,4.7,3.71a8.19,8.19,0,0,0,1.78,1.46l0,.1a6.84,6.84,0,0,1-2.06-1.2c-1.67-1.16-3.73-3.28-5.72-3.33a40.21,40.21,0,0,0-9,1.76c-.15,0-.13.06-.28,0a23,23,0,0,0-6.19-1.85,20.82,20.82,0,0,0-6.23,1.61c-.63.3-1.12.86-1.77,1.26a3.87,3.87,0,0,1-2.17.48v-.1Z"/><path class="cls-2" d="M158.68,182.41c2.14,2.81-4.56,4.69-6.38,5.46-7.37,2.67-16.31,2-22.75-2.7-1.15-1-2.59-2.23-2.48-3.9l.1,0c0,1.56,1.48,2.68,2.64,3.54,6.52,4.24,14.95,4.42,22.29,2.39,2.13-.71,4.55-1.35,6.31-2.74a1.5,1.5,0,0,0,.19-2l.08-.06Z"/><path class="cls-2" d="M117,180.93a14.35,14.35,0,0,0,2.22-2c.34-.36.63-.76,1-1.11s.67-.72,1.06-1h0a5.18,5.18,0,0,1-.73,1.35,6.83,6.83,0,0,1-1.07,1.08A14.46,14.46,0,0,1,117,181h0Z"/></g></g></svg>