<svg id="artwork" xmlns="http://www.w3.org/2000/svg" viewBox="0 0 282 282"><defs><style>.cls-1{fill:#ddcab4;fill-rule:evenodd;}.cls-2{fill:#2d2d2d;}</style></defs><g id="mouth_neutral4"><g id="lip_colour" data-name="lip colour"><path class="cls-1" d="M127.31,183.69c.77,1.34,2.1,5,4.21,5.16s7.26-.57,9.94-.38,8.22,1,10.13,0a16,16,0,0,0,5.54-5.16c.76-1.53-3.31-5.95-6.15-6.22s-6.14,2.06-9.27,1.65-5.22-2.31-7.52-1.36a22.85,22.85,0,0,0-5.73,3.64A6.55,6.55,0,0,0,127.31,183.69Z"/></g><g id="outine"><path class="cls-2" d="M163,182.09a5.92,5.92,0,0,1-2.59.43,20.8,20.8,0,0,0-2.61.11,7.33,7.33,0,0,0-2.54.17,22.06,22.06,0,0,1-7.82,1c-5.06-.28-10.68,0-15.69-.47-3-.25-7.39-.81-10.4-.79v-.1c5.19-.72,10.48,0,15.67.18,3,0,7.39.36,10.46.53a22.39,22.39,0,0,0,7.68-.76,7.61,7.61,0,0,1,2.64-.09,22.89,22.89,0,0,1,2.62,0A5.8,5.8,0,0,0,163,182l.06.09Z"/><path class="cls-2" d="M127.06,182.17c3.92-3.13,5.89-6.95,11.61-4.73a9.22,9.22,0,0,0,4.1.93c5.21-1.26,7.88-3.92,12.53.91l3.13,3.12-.06.08c-3.73-2.4-6.24-6.41-11.18-4.46a25.62,25.62,0,0,1-4.35,1.15,9.89,9.89,0,0,1-4.4-1.12,6.68,6.68,0,0,0-7.88,1.42c-1.13.94-2.23,1.93-3.44,2.78l-.06-.08Z"/><path class="cls-2" d="M156.31,185.78c-.42,1.15-1.91,1.65-2.89,2.24-3.28,2-7.31,1.42-10.88,1.3-2.49-.07-4.86.82-7.39.4a11,11,0,0,1-5.17-2.3,3.09,3.09,0,0,1-.77-1.74l.1,0a3.57,3.57,0,0,0,2.52,2.22c3.58,1.54,7,.53,10.73.64s7.32,1,10.73-.77c1-.52,2.41-.92,2.92-2Z"/></g></g></svg>