<svg id="artwork" xmlns="http://www.w3.org/2000/svg" viewBox="0 0 282 282"><defs><style>.cls-1{fill:#ddcab4;}.cls-1,.cls-3,.cls-4{fill-rule:evenodd;}.cls-2,.cls-3{fill:#2d2d2d;}.cls-4{fill:#f2eae4;}</style></defs><g id="mouth_shocked2"><g id="lip_colour" data-name="lip colour"><path class="cls-1" d="M127.46,184c.76,1.94,2.08,7.19,4.16,7.47s7.19-.83,9.84-.56,8.14,1.39,10,0a20.43,20.43,0,0,0,5.49-7.46c.76-2.21-3.27-8.61-6.08-9s-6.09,3-9.18,2.4-5.18-3.35-7.45-2a23.63,23.63,0,0,0-5.67,5.25A12.41,12.41,0,0,0,127.46,184Z"/></g><g id="outine"><path class="cls-2" d="M164.36,180.83c-.76.07-1.52.07-2.28.07l-2.29,0c-.76,0-1.52,0-2.27,0s-1.51-.15-2.27-.25v-.05a11.08,11.08,0,0,1,2.29-.2c.77,0,1.52.08,2.28.14l2.28.18c.75.05,1.51.12,2.27.12Z"/><path class="cls-2" d="M119.62,184.46a26.33,26.33,0,0,1,3.94-1.3,17.61,17.61,0,0,1,2-.48,11.88,11.88,0,0,1,2.07-.15v.05a15.63,15.63,0,0,1-2,.59c-.67.17-1.35.25-2,.38a34.36,34.36,0,0,0-4,.95Z"/><path class="cls-3" d="M124.64,183c1.94-.78,10.91-3.73,15.85-4.37,4.73-.61,17.6.18,18.92,2.15.43.65-10.17,4.7-17.13,4.88-3.92.1-10-1.46-12.69-1.94C125.93,183.1,124.64,183,124.64,183Z"/><path class="cls-4" d="M126.33,182.17c-1.46.22,12.85-3.82,16.3-3.82s10.94-.15,10.94.6-.15,1.35-1.35,1.79-14.84,2.1-16.34,1.8A77.38,77.38,0,0,0,126.33,182.17Z"/><path class="cls-2" d="M124.79,182.92a19.3,19.3,0,0,1,3.36-3.69,25.85,25.85,0,0,1,4.07-2.89A14.06,14.06,0,0,1,137,174.6a4.07,4.07,0,0,1,1.35,0,10.85,10.85,0,0,1,1.22.42,3.56,3.56,0,0,0,1.08.27,6.39,6.39,0,0,0,1.11-.2c.78-.22,1.57-.48,2.37-.73a9,9,0,0,1,2.59-.52,22,22,0,0,1,2.52.45,10.22,10.22,0,0,1,2.43.92,14.3,14.3,0,0,1,2.12,1.43,15.94,15.94,0,0,0,2.06,1.27,27.87,27.87,0,0,1,4.25,2.61l-.07.08c-1.41-.83-3-1.37-4.5-2.07a12.93,12.93,0,0,1-2.26-1.19,16.21,16.21,0,0,0-2.05-1.24,16.89,16.89,0,0,0-4.59-1.28,9.22,9.22,0,0,0-2.26.4c-.79.21-1.59.44-2.41.64a5.48,5.48,0,0,1-1.34.19,4,4,0,0,1-1.31-.35,9.93,9.93,0,0,0-1.12-.42,3.76,3.76,0,0,0-1.12,0,13.67,13.67,0,0,0-4.58,1.52,23.11,23.11,0,0,0-7.58,6.21Z"/><path class="cls-2" d="M124.75,183.19a30.55,30.55,0,0,1,3.39,4.32c1.06,1.45,2.31,2.92,4,3.37a9,9,0,0,0,2.65,0c.9-.08,1.8-.2,2.71-.31a25.68,25.68,0,0,1,5.56-.27c.93.1,1.85.27,2.74.43a12.72,12.72,0,0,0,1.32.19,3.42,3.42,0,0,0,1.22-.1,14,14,0,0,0,4.84-2,17.62,17.62,0,0,0,4-3.56,19.39,19.39,0,0,0,2.84-4.61l.09,0a16.06,16.06,0,0,1-2.37,5,16.41,16.41,0,0,1-4,4,12.73,12.73,0,0,1-5.21,2.18,4.41,4.41,0,0,1-1.5.07,11.82,11.82,0,0,1-1.39-.25c-.9-.2-1.78-.4-2.66-.51a25.77,25.77,0,0,0-5.4.12c-.91.09-1.82.18-2.74.24a9.55,9.55,0,0,1-2.81-.15c-1.91-.58-3.12-2.17-4.14-3.66a30.69,30.69,0,0,0-3.21-4.43Z"/><path class="cls-2" d="M124.84,182.9a86.23,86.23,0,0,1,8.9,1.55,35.49,35.49,0,0,0,8.87.89,51.19,51.19,0,0,0,8.78-1.43,34.22,34.22,0,0,0,4.25-1.3,15.37,15.37,0,0,0,3.92-2.08l.07.07a12.06,12.06,0,0,1-3.7,2.65,25.76,25.76,0,0,1-4.28,1.62,36.16,36.16,0,0,1-9,1.27,35.31,35.31,0,0,1-9-1.21c-2.93-.7-5.82-1.51-8.8-1.93Z"/><path class="cls-2" d="M124.81,182.9a48,48,0,0,1,8.3-3.21,32.88,32.88,0,0,1,8.82-1.39,61.8,61.8,0,0,1,8.92.27,29.37,29.37,0,0,1,8.66,2.16l0,.1a51.49,51.49,0,0,0-8.72-1.26c-2.93-.22-5.86-.45-8.81-.47a33.35,33.35,0,0,0-8.71,1.06,49.67,49.67,0,0,0-8.37,2.83Z"/><path class="cls-2" d="M126.87,182a109,109,0,0,0,13.77-.15c2.29-.17,4.56-.48,6.84-.68l3.43-.31a6.54,6.54,0,0,0,1.63-.27,1.47,1.47,0,0,0,1.09-1.06h.1a1.63,1.63,0,0,1-1,1.46,5.59,5.59,0,0,1-1.71.55c-1.13.25-2.27.45-3.42.61a57.18,57.18,0,0,1-6.91.49,92.54,92.54,0,0,1-13.83-.55Z"/></g></g></svg>