<svg id="artwork" xmlns="http://www.w3.org/2000/svg" xmlns:xlink="http://www.w3.org/1999/xlink" viewBox="0 0 282 282"><defs><style>.cls-1,.cls-19{fill:none;stroke-miterlimit:10;}.cls-1{stroke:#1f193d;}.cls-2{clip-path:url(#clip-path);}.cls-3{isolation:isolate;}.cls-4{fill:#804f36;}.cls-11,.cls-14,.cls-15,.cls-18,.cls-4,.cls-5,.cls-7,.cls-8,.cls-9{fill-rule:evenodd;}.cls-5{fill:#d9bfb0;}.cls-6{opacity:0.33;}.cls-7{fill:#e8d9d0;}.cls-8{fill:#f0e5df;}.cls-9{fill:#bf9b88;}.cls-10,.cls-18{fill:#2d2d2d;}.cls-11{fill:#005159;}.cls-12{fill:#d7d7ce;}.cls-13{opacity:0.5;}.cls-14{fill:#33595d;}.cls-15{fill:#bfa18b;}.cls-16{fill:#d9cec5;}.cls-17{fill:#69564b;}.cls-19{stroke:#2d2d2d;}.cls-20{fill:#f2eae4;}.cls-21{fill:#462e13;}</style><clipPath id="clip-path"><rect id="face_clip" class="cls-1" x="1" y="1" width="280" height="280" rx="140"/></clipPath></defs><g class="cls-2"><g id="newdad_head_neutral" class="cls-3"><g id="newdad_head_neutral_skin_hair"><g id="hair"><path class="cls-4" d="M168.37,7.65h3l1.1,0a20.69,20.69,0,0,1,2.91.54,4.24,4.24,0,0,1,2.12,1.35,7.68,7.68,0,0,0,5.83,2.62,27.31,27.31,0,0,0,7.22-.43,3.29,3.29,0,0,1,.77,0,.78.78,0,0,1,.81.73A39.09,39.09,0,0,1,192,17.3c-.09,1.14-.2,2.27-.3,3.4a2.87,2.87,0,0,0,.56,1.86,15.42,15.42,0,0,0,4.07,4.18,5.87,5.87,0,0,0,3,.82,22.16,22.16,0,0,0,5.74-.4,3.74,3.74,0,0,1,.75-.07.72.72,0,0,1,.71.64,3.39,3.39,0,0,1-.3,1.57l-1.53,3.64a8.34,8.34,0,0,0-.51,1.77,2.39,2.39,0,0,0,1.37,2.83,10.07,10.07,0,0,0,3.93.93c.47,0,.95,0,1.43.05a.68.68,0,0,1,.76.78,8.57,8.57,0,0,1-.79,2.61,6.71,6.71,0,0,0-.39,2.17c0,.53.15.81.75.77s1.4,0,2.1,0,.94.37.77,1.54a7.43,7.43,0,0,1-.51,1.86c-.2.46-.4.92-.59,1.39-.29.72-.23.91.43,1.32a3.41,3.41,0,0,0,1.84.51h2.49a.78.78,0,0,1,.78.75A22.25,22.25,0,0,1,218,54.6c-.07.63.31,1,.66,1.44A28.58,28.58,0,0,1,221,60.13q1.24,2.31,2.32,4.7a102.89,102.89,0,0,1,4.18,11.52c.44,1.43,1.75,3.69,1.16,5.06C228,83,225.41,86.87,225,88.56c-1.08,4.36.93,3.89,3.27,7.6a14.32,14.32,0,0,1,1.78,5.59,7.26,7.26,0,0,1-1,3c-.34.58-.87,1-1.45.7-5.31-2.44-11.59-1.25-15,3.22A21.43,21.43,0,0,0,209,116c-.93,3.35-1.05,7-1.94,10.42-.53,2-3.17,9.2-5.85,5.26a24.15,24.15,0,0,1-1.37-5.43c-.61-5.14,0-7.48-.76-12.61-1.27-8.45-3.83-16.48-9.53-23-7.65-8.73-18.67-13.63-30-15.28-4.29-.62-9.53-.64-13.64-2.11-6.22-2.22-11.05-8.89-10.22-15.89.15-1.29,1.36-5.5.14-6.37-1.37-1-2.86,1.71-4.17,2a59.62,59.62,0,0,1-12.13.84c-8.59-.27-14.7,2.94-21,8.94-2.7,2.59-4.07,5.33-5.62,8.72-1.36,3-3.29,7.17-4.83,10.08-2.82,5.33-4.92,6.23-8,11.38-2,3.45.13,11.2-3.48,13.28-1.72,1-5.61-1.54-7.29-2.16s-6.7.17-6.7.17,3.93-6.26,2.82-11.82c-.76-3.82-2-14.18-2.94-17.94A17.51,17.51,0,0,1,63.93,63c1-1.74,2.32-3.09,3.15-4.91,1-2.06,2.07-3.71,1.44-5.94-.43-1.51,0-4-.46-5.49-.8-2.67-1-5,.26-7.43,1.64-3.1,2.79-7.16,5.36-9.49,4.69-4.25,10.38-4.32,16.54-5.95a36.19,36.19,0,0,1,7.69-1.09c2.86-.19,6.11-2.4,8.91-3.17a16.49,16.49,0,0,0,5.1-2.28,10.45,10.45,0,0,1,6.84-1.84,44.31,44.31,0,0,1,11.33,2.66c4.49,1.91,4.74,4.07,8.24,7.47,3.35,3.26-7-6.6-6.85-7a8,8,0,0,1,2.19-2.08c8.68-1.88,17.16-4.53,25.69-6.94a44.78,44.78,0,0,1,9-1.85"/></g><g id="skin"><path class="cls-5" d="M203.19,128.86a8.85,8.85,0,0,1-2.93-4.23,38.12,38.12,0,0,1-1.24-8.37c-.5-6.77-1.88-14-5.08-20.07-6.21-11.75-16-18.36-29-21.19-5.79-1.26-13.74.36-19.18-2s-9.18-8.33-9.62-14.24c-.12-1.64.07-3.76.12-5.41.06-2.12.17-3.41-1.18-2.47s-5.79,2.14-8.12,2.53c-7.17,1.2-15-.33-22.61,4.09s-9.88,11.3-13.88,19.31a82.27,82.27,0,0,1-6,9.89c-1.13,1.63-2.7,2.87-3.86,4.48A15,15,0,0,0,78,100.29c0,3.64-.12,5.52-.57,5.33a16.11,16.11,0,0,0-7.82-2.12c-4.94.15-11.38,1.68-14.57,5.44-1.24,1.46-.45,6.85-.36,11,.17,8.21,2.09,16.05,3.74,24.1.68,3.32,1.43,2.8,3.32,5.62s4.12,3.45,7.52,3.34c3.86-.13,11.29-2.41,11.29-2.41s-.65-5.94-1.19-10a91.3,91.3,0,0,0,12.83,38.53c4.62,7.53,5.16,8.75,11,14.51,2.78,1.23,7.28,3.06,10.58,4.75,3.5,1.79,5.68,4.56,9.29,6.1s9,5,12.68,6a105.7,105.7,0,0,0,12.4.81c9.24-.12,30.12-8.71,36.86-14.77s9.17-15,12.4-23.46c2.69-7.06,4.66-14.91,6.58-22.23.62-2.34,2.42-7.65,2.42-13.58,0-2,.06-8.24.06-8.24C204.94,129.13,204.44,129.76,203.19,128.86Z"/><path class="cls-5" d="M168.74,257.42c-.41-1.59-.9-3.17-1.3-4.77a.49.49,0,0,1,.06-.4c-.56-2.35-1-4.72-1.47-7.09s-.9-4.92-1.24-7.4c-.26-1.84-.56-3.68-.81-5.52s-.43-3.4-.63-5.11-.35-3.13-.53-4.7-.38-3.41-.56-5.12c-.14-1.26-.27-2.53-.41-3.8a47.51,47.51,0,0,0-1-5.25c-.24-1.08-.2-1.89-1.08-1.67a22.08,22.08,0,0,1-4.71.59c-2.23.06-4.52.61-6.75.45s-4.16-.34-6.23-.62A100.51,100.51,0,0,1,131.37,205,105.62,105.62,0,0,1,120,201.48c-.74-.27-1.52-.18-1.48,1,.09,3,0,5.93.11,8.89.13,3.72-.08,7.44-.1,11.15,0,.81-.06,1.63-.08,2.43-.08,2.54-.21,5.06-.39,7.59-.14,1.88-.21,3.76-.4,5.63-.26,2.6-.46,5.2-.8,7.79-.29,2.24-.62,4.48-1,6.7-.52,2.68-.76,13.48-.76,13.48s7.06,2.27,9.49,2.91c3.85,1,12.65,3.16,15.22,3.19,8.8.13,10-2,16.59-3.32,3.2-.63,11.73-4.45,13.54-5.73-.18-1.42-.76-4.4-1.12-5.79"/><path class="cls-5" d="M230.23,118.26c0,1.77.06,3.55,0,5.32a52.46,52.46,0,0,1-2.71,15.75c-1.3,3.61-2.78,8.25-5.4,11.12-3,3.26-5,3.84-10.29,3.49a81.5,81.5,0,0,1-8-2s2.77-13.55,3-20.82c.21-7.11,1.32-11.36,3.46-18.17a17.52,17.52,0,0,1,4.54-7.71,6.9,6.9,0,0,1,3.44-1.77c2.77-.61,5.75.94,8.23,2,1.9.81,3.23,1.78,3.51,3.84a70.79,70.79,0,0,1,.26,9"/></g></g><g id="newdad_head_neutral_shading_light" class="cls-6"><path class="cls-7" d="M185.73,87.16c-3-2.59-13-9.92-19-9.73s-15.61-.11-22.2-3-8.93-6.85-10.35-11.75l-.26-.86c-2.25.85-4.47,1.78-6.7,2.71-1.87.79-3.81,1.46-5.74,2.15,1.63,4.42,5.66,11.36,10.55,13,5.91,2,19.74,2.87,26.24,5a139,139,0,0,0,15.38,4c6.18,1.41,19.24,15.06,19,10.89C192.23,93.69,188.75,89.75,185.73,87.16Z"/><path class="cls-7" d="M200.12,128.74c-1.41,2.34-4.92,20.48-7.58,29.47C190,166.74,188,173.56,181.24,185,174.71,196.15,146,209.74,146,209.74s10.71-2.44,17.12-4.5,21.48-7.43,26.11-14.74,6.78-18.08,9.8-26.75c2.65-7.59,6.82-29.19,6.82-29.19S202.3,125.11,200.12,128.74Z"/><path class="cls-7" d="M156.33,214.41c1,9.4,2.74,31.91,2.74,31.91s2.44,16.65,2.67,17.45,4.34.57,5.73-.92-6.61-42.75-7.23-45.51a33,33,0,0,0-.78-4.15A1.73,1.73,0,0,0,156.33,214.41Z"/><path class="cls-8" d="M226.17,105.09c-2.43-.19-6.16.2-6,2.64v0c0,1.27,5,4.12,5,4.12l2.21,11.24-3.62,17,2,3.31,3.22-14.49,1.47-15.17-.76-5.65Z"/></g><g id="newdad_head_neutral_shading_dark"><path class="cls-9" d="M135.9,50.43a22.5,22.5,0,0,1-7.73,2.78c-6.31,1.08-15.28.5-16.43.9a50.56,50.56,0,0,0-6.45,3.27c-6.92,4.49-9.81,9.51-13.12,17.06C89.66,80.15,85.51,84,82.34,89,81,91,79.2,93.46,78.46,95.79a24.36,24.36,0,0,0-.64,7.24c-.12,21.88,0,45.06,9.05,64.83,4.38,9.55,8.34,18.68,16.38,25.42a128.37,128.37,0,0,0,14.12,9.62c6,2.66,8.49,4.4,14.45,7.07-19.39-14.26-25.47-23.33-36.65-44.65-5.65-10.76-17-55-13.06-67.23C85.89,86.36,100,75.41,109.58,67.62c5-4.12,27.2-4.17,26.94-5.47C136.05,59.81,135.9,50.43,135.9,50.43Z"/><path class="cls-9" d="M122.07,205.55c1.45.59,5.16,4.21,10.16,4.77,7.06.8,15.7,1.24,15.7,1.24s-14.75,17-16.87,22.37c-3.12,7.82-5,36.48-5,36.48a51.37,51.37,0,0,1-5.76-1.54c-1.3-.56-5.14-2.87-5.14-2.87L119,202.65Z"/><path class="cls-9" d="M68.17,106.23c-6.25,2.5-8.35,5.46-9.53,7.6s-.62,10.48,0,13.61c1.06,5.41,1.43,9,3.18,12.88C63.93,145,70.37,153,70.37,153l-6-.51A17.08,17.08,0,0,1,59.48,145a169,169,0,0,1-4.55-23c-.51-5.1-1.11-11.69.29-13.35s3-2.26,6.52-3.59c2.64-1,3.75-1.47,8-.89S70.53,105.29,68.17,106.23Z"/><path class="cls-9" d="M214.8,118.28a47.67,47.67,0,0,1,0,9.1c-.15,4.31-1.3,10.65-1,15.06.07.87-5.79,6.85-6.48.62-.76-6.8-.22-21.58,2.19-28.38a2.44,2.44,0,0,1,1.11-1.53c1.26-.61,2.55.52,3,1.57A13.34,13.34,0,0,1,214.8,118.28Z"/></g><g id="newdad_head_neutral_outline"><path class="cls-10" d="M114.79,268.86c1.17-19.05,2-45.84,4.17-64.55h.1c-.34,18.65-2.7,45.9-4.27,64.54Z"/><path class="cls-10" d="M160.83,208.14c3.41,19.7,5.55,39.59,10.09,59.08l-.09,0c-6.31-19-7.15-39.63-10-59.11Z"/><path class="cls-10" d="M77.89,96.65c-1,34.58-.24,65.87,23,93.91a31.74,31.74,0,0,0,6,5.55l6.94,4.49a94.64,94.64,0,0,0,14.44,7.9c11.15,5,20.77,3.07,32-.37,7.79-2.51,15.66-5.39,22.38-10.12,4.43-3.21,6.74-8.51,9.16-13.28a175,175,0,0,0,13-39.1,90.35,90.35,0,0,0,1.89-16.4,73.63,73.63,0,0,1-1.42,16.49c-2.32,12.86-11.64,45.59-22,53.09-6.84,4.81-14.78,7.74-22.69,10.25-11.46,3.45-21.21,5.31-32.57.19a95.53,95.53,0,0,1-14.53-8l-6.94-4.52a32.69,32.69,0,0,1-6.09-5.71A98.65,98.65,0,0,1,84.1,162.21c-7.48-20.88-7-43.9-6.21-65.56Z"/><path class="cls-10" d="M206.6,129.1a88.92,88.92,0,0,1-2.73,23.31l-.13-.26a36.69,36.69,0,0,0,6.56,1.5c3.24.36,6.84.68,9.78-.94,4.26-3.64,5.58-9.68,6.86-14.93a121.33,121.33,0,0,0,2.79-20.07c0-4.06,1.43-9.59-3-11.79a17.74,17.74,0,0,0-6.35-1.6c-2.21-.23-4.52-.39-6,1.21a6.76,6.76,0,0,0-1.84,2.59c-3.18,7.18-6.17,14.67-5.93,22.67h-.1c-.67-8,2.11-15.76,5.21-23,.87-2.2,2.81-4.26,5.26-4.52a21,21,0,0,1,10.22,1.8c4.89,2.36,3.6,8.33,3.45,12.72a113.41,113.41,0,0,1-4.85,26.73c-1.21,3.15-2.65,6.6-5.42,8.68-3.08,1.7-6.79,1.35-10.14.95a36.14,36.14,0,0,1-6.63-1.58l-.19-.06.05-.19c2.21-7.63,2.81-15.5,3.14-23.2Z"/><path class="cls-10" d="M77.61,105.59c-3.06-1.94-6.92-2.12-10.45-1.91s-6.88,2-10,3.86c-1.55.86-2.88,2.18-2.75,4.06A139.16,139.16,0,0,0,56,127.74c.93,5.28,1.47,10.76,3.5,15.75,1.26,2.76,2.43,5.79,4.59,7.95a2.88,2.88,0,0,0,1.07.45,18.87,18.87,0,0,0,5.19,1c3.52,0,7-1.5,10.4-2.42l-.21.38a79.47,79.47,0,0,1-1.62-9.68,18.93,18.93,0,0,1-.08-3.28h.1c0,4.43,1.28,8.79,2.29,13.08-3.57,1.09-7.12,2.69-10.89,2.78a19.61,19.61,0,0,1-6.13-1.08c-1.6-.72-2.38-2.45-3.25-3.83a33.31,33.31,0,0,1-3.85-10.25,157.12,157.12,0,0,1-3.13-27c-.12-2,1.39-3.54,3-4.39,3.12-1.79,6.47-3.5,10.15-3.75a24.75,24.75,0,0,1,5.44.24,12.4,12.4,0,0,1,5.09,1.84l-.06.08Z"/><path class="cls-10" d="M62.28,104.53c6.29-8.24.77-20.87.07-30.26-.62-5.11-.19-10.87,3.38-14.92a10.73,10.73,0,0,0,2.38-4.42c.68-3.35-.67-6.72-.78-10.25a20.6,20.6,0,0,1,9.61-17.8c6.08-3.82,13.57-3.06,20.29-4.33,6.93-1.09,12.42-6.34,19.46-7.09,14.92-1.9,27.82,11,25.55,25.95,1.2-14.62-10.43-26.9-25.42-25-6.85.64-12.26,6-19.41,7.06-6.73,1.22-14,.36-20.06,4A19.89,19.89,0,0,0,68,44.66c.07,3.45,1.43,6.89.7,10.39a11.16,11.16,0,0,1-2.52,4.62c-3.53,4-4,9.47-3.41,14.57.59,9,6.1,22.85-.45,30.29Z"/><path class="cls-10" d="M73.09,103.8c1.15.21,3.15,1,3.7-.46.45-2.3.21-4.74,1.1-7,2.56-7.24,9.11-12.09,12-19.11a100.41,100.41,0,0,1,5-10.21A28.59,28.59,0,0,1,113.2,54c3.78-.87,7.64-.59,11.38-.69a24.41,24.41,0,0,0,5.53-.61,27.11,27.11,0,0,0,5.22-2.06l0,.09a18.78,18.78,0,0,1-10.77,3.4c-3.8.16-7.58,0-11.2.86a28.39,28.39,0,0,0-17.8,12.44,101,101,0,0,0-5.09,10.07c-3,7-9.6,11.82-12.28,19-.89,2.2-.72,4.64-1.25,6.94-.6,1.6-2.72.75-3.92.49l0-.1Z"/><path class="cls-10" d="M135.16,41.32c-.5.76-1.69-.17-1.44-.92a1.33,1.33,0,0,1,2-.4,2.48,2.48,0,0,1,1,2c.12,3.63-.33,7.25-.47,10.86-.68,9.13,1.44,17.9,11.32,20.5,5.6,1.5,11.48,1.11,17.23,1.6a34.15,34.15,0,0,1,23.07,11.43c8,8.71,11.38,20.73,11.74,32.32.11,2.83.14,5.82,1.66,8.27s5.31,4.31,5.38-.21h.1c.22,3-2,4.09-4.4,2.15-3-2.41-3.29-6.61-3.5-10.17-.59-11.4-3.95-23.11-11.71-31.7a34.55,34.55,0,0,0-14-9.63c-8.17-3.05-17.33-1.19-25.73-3.51-10.06-2.73-12.28-11.75-11.46-21.06.16-2.9.47-5.78.58-8.68,0-1.33.36-3.09-.85-4-.55-.37-1.5-.38-1.78.31s.81,1.48,1.24.83l.08,0Z"/><path class="cls-10" d="M228,105.62c2-1.34,2.39-4.09,1.62-6.21s-2.47-3.86-4-5.59c-3.75-4.33,2.46-8.75,2.89-13,.27-2.2-1.53-4-2.56-6.14-.57-1-1.06-2.11-1.54-3.19-2.18-5.45-3.68-11.1-6.07-16.45l.09-.05c3.64,6,5.27,13,8.39,19.24,3.7,6.16,3.11,7.19-.63,13.07-1.21,1.9-1.83,4.35-.19,6.19s3.25,3.49,3.94,5.8.22,5.07-1.84,6.39l-.06-.08Z"/><path class="cls-10" d="M153.71,152.34c-.12-.11-.07-.18.15-.2s.43,0,.66,0a5.67,5.67,0,0,1,.67.2,3,3,0,0,1,.62.37,2.66,2.66,0,0,1,.67,2.79,7.5,7.5,0,0,1-3.83,4.63,9.87,9.87,0,0,1-6.12.2c-2-.47-3.85-1.22-5.73-1.77a9.77,9.77,0,0,0-5.64.05c-1.9.44-4,1-6.13.42a7.32,7.32,0,0,1-2.7-1.54,6.06,6.06,0,0,1-1.75-2.5,2.61,2.61,0,0,1,.43-2.75,4.24,4.24,0,0,1,2.42-1l-.09.14a3.47,3.47,0,0,0-2.12,1.36,2.26,2.26,0,0,0,.15,2.3,6.54,6.54,0,0,0,4.22,3.08c1.77.34,3.66-.15,5.58-.53a14.71,14.71,0,0,1,3-.33,9.21,9.21,0,0,1,3,.56c1.88.6,3.68,1.38,5.57,1.87a9.37,9.37,0,0,0,5.69,0,6.52,6.52,0,0,0,2.31-1.69,6.75,6.75,0,0,0,1.46-2.45,2.59,2.59,0,0,0-.35-2.58,3.83,3.83,0,0,0-.51-.39,3.4,3.4,0,0,0-.57-.23c-.36-.13-.79-.11-.66,0Z"/><path class="cls-10" d="M172.13,23.83a57.73,57.73,0,0,1-8.08,15.92,54,54,0,0,1-5.77,6.86,52.32,52.32,0,0,1-6.86,5.76s0,0,0,0,0,0,0-.05a81.57,81.57,0,0,0,6.53-6.07,71.76,71.76,0,0,0,5.81-6.75,57.35,57.35,0,0,0,8.36-15.69s0-.05,0,0S172.14,23.81,172.13,23.83Z"/><path class="cls-10" d="M187.07,31.47a30.32,30.32,0,0,1-4.06,7.9,46.8,46.8,0,0,1-5.88,6.7,72,72,0,0,1-6.81,5.76q-3.58,2.64-7.34,5s0,0-.06,0a.05.05,0,0,1,0,0c2.34-1.82,4.74-3.56,7.07-5.39s4.67-3.65,6.84-5.65a46.18,46.18,0,0,0,6-6.54,29.64,29.64,0,0,0,4.2-7.79s0,0,0,0S187.08,31.44,187.07,31.47Z"/><path class="cls-10" d="M197.32,39.7A78.79,78.79,0,0,1,186.6,53.33a71.26,71.26,0,0,1-6.43,5.85c-1.15.89-2.31,1.76-3.5,2.58-.6.41-1.19.83-1.81,1.21a2.94,2.94,0,0,1-2.1.52s0,0,0,0,0,0,.05,0a3,3,0,0,0,2-.66c.58-.42,1.15-.87,1.73-1.3q1.71-1.3,3.38-2.69c2.22-1.84,4.4-3.73,6.47-5.75a77.77,77.77,0,0,0,11-13.37l0,0A.06.06,0,0,1,197.32,39.7Z"/><path class="cls-10" d="M203.84,48.34a42.28,42.28,0,0,1-7.67,12.41,40.33,40.33,0,0,1-5.3,5.07,38.48,38.48,0,0,1-6.16,4h-.05a.08.08,0,0,1,0,0,65.65,65.65,0,0,0,5.87-4.32,53,53,0,0,0,5.32-5,42.11,42.11,0,0,0,7.93-12.16s0,0,0,0S203.85,48.32,203.84,48.34Z"/><path class="cls-10" d="M212.41,55.22a43.47,43.47,0,0,1-8.49,13,42.47,42.47,0,0,1-5.83,5.22,39.9,39.9,0,0,1-6.71,4s0,0,0,0,0,0,0,0a67.19,67.19,0,0,0,6.43-4.36,55.54,55.54,0,0,0,5.84-5.1,43.1,43.1,0,0,0,8.74-12.77s0,0,0,0A0,0,0,0,1,212.41,55.22Z"/><path class="cls-10" d="M211.91,69.66a25.9,25.9,0,0,1-5.42,9.9,25.56,25.56,0,0,1-4.17,3.88,24,24,0,0,1-5,2.79s0,0,0,0,0,0,0,0A43.42,43.42,0,0,0,202,83a34.46,34.46,0,0,0,4.17-3.75,25.6,25.6,0,0,0,5.67-9.65l0,0S211.91,69.64,211.91,69.66Z"/><path class="cls-10" d="M95.1,27.77A101.78,101.78,0,0,1,109,34.32a35.9,35.9,0,0,1,6.22,4.54,24.68,24.68,0,0,1,4.79,6s0,0,0,0,0,0,0,0a32.76,32.76,0,0,0-5.09-5.68,45.44,45.44,0,0,0-6.09-4.57,100.71,100.71,0,0,0-13.71-6.84s0,0,0,0S95.07,27.76,95.1,27.77Z"/><path class="cls-10" d="M87.65,38a42.67,42.67,0,0,1,9.45,4.32,31.77,31.77,0,0,1,4.26,3A28.58,28.58,0,0,1,105,49a0,0,0,0,1,0,0h0c-1.3-1.15-2.59-2.29-4-3.35s-2.72-2.12-4.16-3.07A43,43,0,0,0,87.63,38s0,0,0,0Z"/><path class="cls-10" d="M79.68,46.91a43.41,43.41,0,0,1,7.6,4,29.89,29.89,0,0,1,3.46,2.58,25,25,0,0,1,3,3.1,0,0,0,0,1,0,0h0c-1.1-.93-2.17-1.87-3.28-2.76s-2.21-1.8-3.36-2.63A44,44,0,0,0,79.66,47a0,0,0,0,1,0,0A0,0,0,0,1,79.66,47Z"/><path class="cls-10" d="M73.55,58.31a22,22,0,0,1,5.75,2.48,16.46,16.46,0,0,1,2.55,1.86A13.29,13.29,0,0,1,83.9,65s0,0,0,0h0c-.78-.69-1.54-1.39-2.34-2s-1.59-1.31-2.44-1.9a22.17,22.17,0,0,0-5.55-2.77s0,0,0,0S73.54,58.3,73.55,58.31Z"/><path class="cls-10" d="M204.73,31.43A6,6,0,0,0,204,35.9a3,3,0,0,0,1.39,1.75,5.74,5.74,0,0,0,2.17.72,8.23,8.23,0,0,0,2.32-.07,1.15,1.15,0,0,1,1.12.56,2.19,2.19,0,0,1,.25,1.22,11,11,0,0,1-.62,2.29,2.29,2.29,0,0,0,.17,2.08,1.07,1.07,0,0,0,.83.47c.34,0,.71-.14,1.16-.15a.92.92,0,0,1,.7.25,1.24,1.24,0,0,1,.3.65,3,3,0,0,1,0,1.26c-.16.8-.51,1.52-.61,2.24a1.8,1.8,0,0,0,.59,1.85,3.55,3.55,0,0,0,2.13.27,3,3,0,0,1,2.35.64,1.34,1.34,0,0,1,.33,1.23,7,7,0,0,1-.43,1.12,1.42,1.42,0,0,0,0,1.07.59.59,0,0,0,.39.33.23.23,0,0,0,.23,0,.13.13,0,0,0-.07-.2s0,0,0,0l.07,0a.18.18,0,0,1,.1.27.3.3,0,0,1-.31.1.72.72,0,0,1-.5-.36,1.55,1.55,0,0,1-.08-1.21,9.24,9.24,0,0,0,.35-1.1,1,1,0,0,0-.29-.93,2.62,2.62,0,0,0-2.06-.46,4,4,0,0,1-2.44-.28,1.82,1.82,0,0,1-.78-1.07,3,3,0,0,1-.05-1.27c.12-.84.48-1.55.64-2.28a2.78,2.78,0,0,0,.06-1.07c-.06-.36-.21-.54-.54-.54s-.72.15-1.17.14a1.52,1.52,0,0,1-1.14-.66,2.64,2.64,0,0,1-.19-2.42,11.21,11.21,0,0,0,.64-2.21,1.85,1.85,0,0,0-.18-1.05.86.86,0,0,0-.86-.44,8.47,8.47,0,0,1-2.36,0,5.73,5.73,0,0,1-2.23-.79,3.14,3.14,0,0,1-1.43-1.86,6.09,6.09,0,0,1,.81-4.54s0,0,0,0S204.74,31.4,204.73,31.43Z"/><path class="cls-10" d="M204,34.2l1.46-4,.73-2c.1-.32.09-.72-.22-.77a7.64,7.64,0,0,0-1,.07c-2.78.25-5.77.45-8.43-.8A11.18,11.18,0,0,1,193,24.27a6.11,6.11,0,0,1-1.68-4c0-1.47.4-2.85.53-4.24s.3-2.81.49-4.22c0,0,0,0,0,0s0,0,0,.05c-.05,1.41-.11,2.83-.2,4.24s-.4,2.83-.37,4.2a5.94,5.94,0,0,0,1.55,3.67,10.42,10.42,0,0,0,3.33,2.42c2.52,1.26,5.46,1.14,8.25.94a5.48,5.48,0,0,1,1.08,0,.51.51,0,0,1,.41.44,1.34,1.34,0,0,1-.06.57l-.77,2-1.54,4s0,0,0,0S204,34.22,204,34.2Z"/><path class="cls-10" d="M191.71,11.37c-1.29.29-2.57.63-3.88.84a13.9,13.9,0,0,1-4,.07,23.53,23.53,0,0,1-3.9-.83,12.91,12.91,0,0,1-3.2-2.37,7.29,7.29,0,0,0-3.55-1.51,14.29,14.29,0,0,0-3.92,0A68.68,68.68,0,0,0,161.52,9c-5.14,1.25-10.16,2.92-15.25,4.39l-7.66,2.12-3.83,1a5,5,0,0,0-3.25,2s-.06.07-.07.06,0,0,0-.09a3.32,3.32,0,0,1,1.39-1.41,8.85,8.85,0,0,1,1.85-.78l3.8-1.16L146.13,13c5.06-1.53,10.13-3.1,15.3-4.3a71.33,71.33,0,0,1,7.83-1.41,14.89,14.89,0,0,1,4,.06,7.61,7.61,0,0,1,3.65,1.6A12.56,12.56,0,0,0,180,11.28a24.35,24.35,0,0,0,3.85.87,14.13,14.13,0,0,0,3.95,0c1.3-.2,2.59-.52,3.88-.8h.09S191.76,11.36,191.71,11.37Z"/><path class="cls-10" d="M119,204.41l-1.9,32.2c-.32,5.36-.61,10.73-1,16.1s-.78,10.72-1.27,16.08c0,0,0,.08,0,.08a.14.14,0,0,1,0-.09c.21-5.37.52-10.74.82-16.11s.72-10.73,1.09-16.09L119,204.41c0-.06,0-.1,0-.09S119,204.36,119,204.41Z"/><path class="cls-10" d="M114.78,268.68c.88-10.72,1.75-21.43,2.5-32.16s1.39-21.46,1.58-32.2l.19.2h0l.14-.17c-1.18,10.67-1.77,21.4-2.41,32.13s-1.14,21.49-1.92,32.23c0,.1,0,.17,0,.16a.58.58,0,0,1,0-.17l1.47-32.25c.57-10.73,1.28-21.47,2.52-32.15v-.17h.49v.2c-.25,10.76-1,21.49-1.76,32.22s-1.74,21.43-2.67,32.14c0,.11,0,.19,0,.18A.58.58,0,0,1,114.78,268.68Z"/><path class="cls-10" d="M170.83,267.16a222.75,222.75,0,0,1-6-29.29q-1.11-7.4-2.08-14.82t-2-14.82s0-.09,0-.08,0,0,0,.07c1,4.9,1.69,9.83,2.41,14.77l2,14.82a223.16,223.16,0,0,0,5.68,29.34s0,.08,0,.09S170.84,267.2,170.83,267.16Z"/><path class="cls-10" d="M160.88,208.3c1.46,9.88,2.41,19.82,3.78,29.7A161.32,161.32,0,0,0,171,267.19l-.25-.13h0l.11,0-.16.25c-2.29-9.7-4-19.51-5.51-29.35s-2.83-19.76-4.39-29.62c0-.1,0-.17,0-.16s0,.07,0,.15c1.84,9.81,3.26,19.7,4.84,29.55s3.16,19.64,5.4,29.34l-.2,0-.09,0h0l-.19.06a161.79,161.79,0,0,1-6.2-29.28c-1.32-9.89-2.2-19.84-3.61-29.72a.41.41,0,0,1,0-.17S160.87,208.21,160.88,208.3Z"/><path class="cls-10" d="M206.58,129.61a76.64,76.64,0,0,1-1.65,16.4,163.54,163.54,0,0,1-4,16c-1.59,5.27-3.4,10.48-5.44,15.59a100.69,100.69,0,0,1-7.21,14.85,28.13,28.13,0,0,1-2.4,3.36,17.29,17.29,0,0,1-3.07,2.79,49,49,0,0,1-7.13,4.17,105.06,105.06,0,0,1-15.4,6q-3.94,1.23-8,2.13a53.71,53.71,0,0,1-8.18,1.26,30.9,30.9,0,0,1-8.25-.61,45.2,45.2,0,0,1-7.89-2.49,95.59,95.59,0,0,1-14.49-7.94l-6.93-4.49a31,31,0,0,1-6.09-5.63,84,84,0,0,1-9.35-13.63,103.52,103.52,0,0,1-7-15C80.31,152,78.65,141,77.91,130s-.43-22-.1-33a.92.92,0,0,1,0-.34,1.67,1.67,0,0,1,0,.34c-.18,11-.4,22,.4,33s2.49,21.92,6.38,32.21a106.29,106.29,0,0,0,6.93,14.92,83.73,83.73,0,0,0,9.28,13.55,30.88,30.88,0,0,0,6,5.57l6.91,4.51a93.91,93.91,0,0,0,14.4,7.94,44.74,44.74,0,0,0,7.82,2.49,31,31,0,0,0,8.15.63,54.68,54.68,0,0,0,8.13-1.24c2.68-.59,5.34-1.29,8-2.1a104.43,104.43,0,0,0,15.37-5.92,48.3,48.3,0,0,0,7.1-4.13,16.87,16.87,0,0,0,3-2.74,28,28,0,0,0,2.39-3.33,100.28,100.28,0,0,0,7.23-14.8c2.06-5.1,3.88-10.3,5.48-15.56s3-10.59,4-16a76.49,76.49,0,0,0,1.69-16.38,1.69,1.69,0,0,1,0-.37A1.48,1.48,0,0,1,206.58,129.61Z"/><path class="cls-10" d="M77.89,97.39a313.14,313.14,0,0,0,.09,33,117.12,117.12,0,0,0,6.37,32.26,97.51,97.51,0,0,0,16.27,28.51,31.5,31.5,0,0,0,6,5.56l6.91,4.5A95.07,95.07,0,0,0,128,209.16a34.6,34.6,0,0,0,16,3.09A66.83,66.83,0,0,0,160.1,209a109.09,109.09,0,0,0,15.38-5.89A55.35,55.35,0,0,0,182.6,199a15.11,15.11,0,0,0,3-2.72,28.35,28.35,0,0,0,2.49-3.26,82.09,82.09,0,0,0,7.34-14.71c2-5.11,3.77-10.33,5.33-15.6s2.94-10.6,4-16a78.87,78.87,0,0,0,1.64-16.35l0-1.15h.4A90.82,90.82,0,0,1,205,145.51q-1.65,8-4,15.88c-1.58,5.22-3.4,10.38-5.47,15.43a123.58,123.58,0,0,1-7.05,14.79,22.08,22.08,0,0,1-5.29,6.3,50.37,50.37,0,0,1-7,4.27,105.69,105.69,0,0,1-15.25,6,71.66,71.66,0,0,1-16,3.49,33.79,33.79,0,0,1-16.1-2.69,90.93,90.93,0,0,1-14.54-7.84l-6.93-4.49a29.29,29.29,0,0,1-6.19-5.51c-.9-1.05-1.7-2.17-2.56-3.25l-1.26-1.64a18.35,18.35,0,0,1-1.21-1.68c-1.51-2.3-3.13-4.54-4.43-7a92.09,92.09,0,0,1-7-15c-.87-2.62-1.8-5.21-2.46-7.89s-1.3-5.36-1.88-8a143.43,143.43,0,0,1-2.12-16.37c-.26-2.74-.31-5.5-.47-8.24s-.15-5.51-.13-8.26c0-5.5.11-11,.27-16.5a4.35,4.35,0,0,1,0-.69s0,.33,0,.69c-.12,5.5-.24,11-.17,16.5,0,2.75.11,5.5.17,8.25s.23,5.49.51,8.23a144.69,144.69,0,0,0,2.17,16.34c.6,2.68,1.12,5.38,1.91,8s1.6,5.26,2.48,7.86a94.8,94.8,0,0,0,16.45,28.34,29.1,29.1,0,0,0,6.1,5.42l6.94,4.46a89.74,89.74,0,0,0,14.48,7.78,33.35,33.35,0,0,0,15.87,2.63,71.39,71.39,0,0,0,15.89-3.46,106.93,106.93,0,0,0,15.17-6,50.6,50.6,0,0,0,6.95-4.21,21.72,21.72,0,0,0,5.16-6.15A123.5,123.5,0,0,0,195,176.64c2.07-5,3.89-10.17,5.47-15.38,3.09-10.43,5.7-21.12,5.9-32h.4l0,1.16a79.45,79.45,0,0,1-1.67,16.43c-1.07,5.41-2.47,10.74-4,16s-3.33,10.51-5.36,15.62a82.19,82.19,0,0,1-7.39,14.77,29.84,29.84,0,0,1-2.52,3.29,16,16,0,0,1-3.1,2.76,56.57,56.57,0,0,1-7.16,4.13,109.38,109.38,0,0,1-15.43,5.88A67.2,67.2,0,0,1,144,212.5a35,35,0,0,1-16.1-3.13,94.54,94.54,0,0,1-14.45-8l-6.91-4.51a31.6,31.6,0,0,1-6.06-5.6A97.87,97.87,0,0,1,84.22,162.7a117.56,117.56,0,0,1-6.33-32.31,310.47,310.47,0,0,1,0-33,5.14,5.14,0,0,1,0-.74S77.9,97,77.89,97.39Z"/><path class="cls-10" d="M206.52,130.61a39.54,39.54,0,0,1,.6-8.2,45.27,45.27,0,0,1,2.28-7.91c.47-1.29,1-2.56,1.5-3.83l.79-1.9a15.12,15.12,0,0,1,.84-1.89,7.84,7.84,0,0,1,1.3-1.62,5.66,5.66,0,0,1,1.68-1.22,8.59,8.59,0,0,1,4.11-.4c2.71.25,5.55.57,7.95,2.06a6.08,6.08,0,0,1,2.58,3.21,12.32,12.32,0,0,1,.39,4.13,123.62,123.62,0,0,1-1.43,16.41c-.42,2.72-.92,5.42-1.52,8.1a57,57,0,0,1-2.25,7.95,20.4,20.4,0,0,1-4.26,7.1,7.53,7.53,0,0,1-3.87,1.63,20,20,0,0,1-4.16.18,37.46,37.46,0,0,1-8.14-1.44c-.33-.09-.66-.2-1-.31l-.37-.12c-.23,0-.06-.23-.05-.36l.14-.55.49-2c.31-1.34.61-2.67.86-4a95.16,95.16,0,0,0,1.53-16.34c0-.11,0-.19,0-.18a.53.53,0,0,1,0,.18,88.56,88.56,0,0,1-1.24,16.41c-.24,1.35-.52,2.69-.82,4l-.47,2-.11.45s0,0,0,0l.13,0c.32.1.64.21,1,.29a36.64,36.64,0,0,0,8.05,1.36,20.16,20.16,0,0,0,4-.19,7,7,0,0,0,3.61-1.5,20.17,20.17,0,0,0,4.15-6.9,55.82,55.82,0,0,0,2.27-7.87q.91-4,1.57-8.06A124.52,124.52,0,0,0,230.23,113a12,12,0,0,0-.36-4,5.81,5.81,0,0,0-2.45-3.09c-2.31-1.45-5.12-1.79-7.82-2.06a8.61,8.61,0,0,0-4,.36A5.48,5.48,0,0,0,214,105.4a8,8,0,0,0-1.27,1.57c-.63,1.19-1.09,2.51-1.64,3.76s-1,2.54-1.53,3.82a46.08,46.08,0,0,0-2.31,7.87,39.48,39.48,0,0,0-.64,8.19c0,.1,0,.19,0,.18A.36.36,0,0,1,206.52,130.61Z"/><path class="cls-10" d="M206.61,129.48A120.6,120.6,0,0,1,205,145.9c-.24,1.35-.53,2.7-.85,4-.16.67-.34,1.33-.53,2l-.12.47c-.06.08.07.07.12.1l.23.08,1,.31a37,37,0,0,0,8.09,1.44,18.12,18.12,0,0,0,4.1-.12,11.15,11.15,0,0,0,2-.5,5.24,5.24,0,0,0,1.77-1,17.35,17.35,0,0,0,4.37-6.86,85.78,85.78,0,0,0,4-16,145.45,145.45,0,0,0,1.62-16.4,15,15,0,0,0-.3-4.07,6.11,6.11,0,0,0-2-3.41,11.08,11.08,0,0,0-3.64-1.76,20.33,20.33,0,0,0-4-.79,22.27,22.27,0,0,0-4.08,0,5.91,5.91,0,0,0-3.39,2,7.33,7.33,0,0,0-1.13,1.67c-.3.59-.55,1.24-.82,1.88-.52,1.27-1,2.54-1.52,3.83-1.9,5.12-3.36,10.52-3.25,16,0,.65.06,1.3.09,1.95l-.21-.19h.16l-.25.2a39,39,0,0,1,2.15-13.25c.7-2.14,1.51-4.23,2.37-6.3l1.33-3.08a7.17,7.17,0,0,1,1.95-2.81h0a4.29,4.29,0,0,1,2.09-1.22,8.35,8.35,0,0,1,2.38-.21,34.37,34.37,0,0,1,4.64.56,12,12,0,0,1,4.39,1.72,5.79,5.79,0,0,1,1.61,1.8,8,8,0,0,1,.75,2.28,21.57,21.57,0,0,1,.06,4.68c-.11,1.54-.1,3.08-.24,4.64-.22,3.09-.55,6.18-1,9.24-.54,3.5-1.19,7-2.05,10.43a35.44,35.44,0,0,1-3.63,10,15.83,15.83,0,0,1-1.57,2.18,12.15,12.15,0,0,1-.94,1,6.71,6.71,0,0,1-.53.47c-.2.1-.4.21-.61.3a12.51,12.51,0,0,1-5.26.93,37.59,37.59,0,0,1-5.3-.51c-.88-.15-1.75-.33-2.61-.55-.43-.1-.86-.22-1.28-.34l-.64-.19-.58-.18c-.09-.08,0,.12,0,.2l-.11-.18a90.3,90.3,0,0,0,2.84-22.92,1.17,1.17,0,0,1,0-.34,2.24,2.24,0,0,1,0,.34,88.21,88.21,0,0,1-2.62,23l-.12-.17-.12-.12s-.07,0,0-.06l.1-.06.69.22.64.19c.42.12.85.23,1.27.33.86.2,1.72.37,2.59.52a35.57,35.57,0,0,0,5.25.47,12.1,12.1,0,0,0,5.1-.92l.58-.29.46-.41c.33-.29.6-.63.9-.94a15.25,15.25,0,0,0,1.52-2.13,35.18,35.18,0,0,0,3.54-9.89c.84-3.42,1.48-6.9,2-10.39q.67-4.59,1-9.21c.14-1.52.13-3.08.25-4.63a21.77,21.77,0,0,0-.07-4.57,7.24,7.24,0,0,0-.68-2.11,5.33,5.33,0,0,0-1.46-1.64A11.76,11.76,0,0,0,223.2,105a33.2,33.2,0,0,0-4.56-.55,5,5,0,0,0-4.1,1.26h0a6.75,6.75,0,0,0-1.84,2.64l-1.34,3.08c-.86,2.06-1.68,4.14-2.38,6.26a38.77,38.77,0,0,0-2.17,13.1v.13l-.26.07h-.24v-.19c0-.66-.1-1.31-.09-2-.1-5.56,1.39-11,3.32-16.14.48-1.29,1-2.57,1.53-3.84.28-.63.52-1.27.83-1.9a8.19,8.19,0,0,1,1.19-1.73,6.22,6.22,0,0,1,3.59-2.1,23.11,23.11,0,0,1,4.16.05,21.11,21.11,0,0,1,4.07.81,11.28,11.28,0,0,1,3.73,1.83,6.35,6.35,0,0,1,2.09,3.57,15.57,15.57,0,0,1,.3,4.14A143.78,143.78,0,0,1,229.35,130a85.52,85.52,0,0,1-4,16,17.54,17.54,0,0,1-4.43,6.92,5.31,5.31,0,0,1-1.83,1,10.75,10.75,0,0,1-2,.5,18.49,18.49,0,0,1-4.14.12A37.34,37.34,0,0,1,204.8,153l-1-.32-.25-.08c-.08,0-.28,0-.19-.16l.15-.54c.18-.66.36-1.32.52-2,.34-1.33.63-2.68.87-4a120.21,120.21,0,0,0,1.65-16.4,1.85,1.85,0,0,1,0-.38A1.66,1.66,0,0,1,206.61,129.48Z"/><path class="cls-10" d="M78.88,138a32.8,32.8,0,0,0,.67,6.4c.19,1.06.39,2.12.62,3.17l.34,1.58.39,1.63-2.26.73-2.2.68A32.71,32.71,0,0,1,72,153.3a14.93,14.93,0,0,1-4.62-.21c-.76-.15-1.51-.34-2.25-.56a4.87,4.87,0,0,1-1.1-.4,3.57,3.57,0,0,1-.9-.78,20.55,20.55,0,0,1-2.49-3.91,45.58,45.58,0,0,1-1.91-4.21,22.89,22.89,0,0,1-1.32-4.44c-.31-1.51-.61-3-.89-4.53-.76-4.08-1.37-8.2-1.81-12.33-.22-2.07-.4-4.14-.56-6.21-.08-1-.16-2.07-.17-3.12A12,12,0,0,1,54,111a3.71,3.71,0,0,1,.43-1.59,6.53,6.53,0,0,1,2.37-2.16c.9-.53,1.81-1,2.74-1.51a22.15,22.15,0,0,1,5.88-2.14,21.4,21.4,0,0,1,6.24-.1,13.3,13.3,0,0,1,5.89,1.94c.07,0,.11.08.09.09s-.06,0-.12,0a13.58,13.58,0,0,0-5.88-1.75,21.9,21.9,0,0,0-6.16.21,21.74,21.74,0,0,0-5.74,2.19c-.91.48-1.82,1-2.7,1.52a6,6,0,0,0-2.17,2,3.29,3.29,0,0,0-.37,1.39c0,.5-.05,1-.05,1.52,0,1,.1,2.06.18,3.09.16,2.07.33,4.14.53,6.2q.62,6.18,1.71,12.31c.27,1.51.56,3,.86,4.53A22.49,22.49,0,0,0,59,143.11a44.91,44.91,0,0,0,1.87,4.19,20.79,20.79,0,0,0,2.42,3.87,3.5,3.5,0,0,0,.82.73,5.53,5.53,0,0,0,1.06.39c.73.22,1.47.42,2.22.57a15.1,15.1,0,0,0,4.55.24A33.65,33.65,0,0,0,76.39,152l2.21-.66,2.13-.67-.34-1.51-.34-1.58q-.31-1.59-.6-3.18a33,33,0,0,1-.62-6.43c0-.08,0-.14,0-.13S78.88,137.92,78.88,138Z"/><path class="cls-10" d="M77.5,105.43a13.76,13.76,0,0,0-5.91-1.86,21.25,21.25,0,0,0-6.22.15,22,22,0,0,0-5.85,2.15c-.93.47-1.83,1-2.74,1.5a5.82,5.82,0,0,0-2.23,2.09,3.54,3.54,0,0,0-.5,1.44,11.45,11.45,0,0,0,0,1.55c0,1,.06,2.09.12,3.13.11,2.08.27,4.17.48,6.24.42,4.15,1,8.28,1.75,12.39.37,2,.71,4.12,1.19,6.14a31.27,31.27,0,0,0,2.16,5.84c.44.94.91,1.87,1.44,2.76a14.82,14.82,0,0,0,1.73,2.57,3.93,3.93,0,0,0,1.19.92,12.46,12.46,0,0,0,1.46.46,19.77,19.77,0,0,0,3.05.58,15.94,15.94,0,0,0,6.13-.64c2-.55,4-1.3,6-1.93.34-.12.29,0,.25-.24l-.19-.76-.36-1.52c-.25-1-.49-2-.71-3.06a40.46,40.46,0,0,1-.93-6.21c0-.42,0-.84-.05-1.26l.18.2H78.8l.21-.18a19.5,19.5,0,0,0,.1,3.41c.11,1.14.26,2.27.44,3.41s.39,2.26.61,3.38l.35,1.69c0,.14.07.28.09.42l-.07.46v.17l0,0,.15-.18.07-.09,0-.05h0c.18,0,0,0,.09,0h0l0,0-.12.16-1.26.37-1,.33-2.09.65a26.14,26.14,0,0,1-4.29,1,13.18,13.18,0,0,1-4.43-.19c-.72-.14-1.43-.32-2.14-.53l-1-.33a1.39,1.39,0,0,1-.57-.33l-.38-.41c-2-2.24-3.08-5-4.28-7.67a42.61,42.61,0,0,1-2.28-8.47c-.7-4.12-1.37-8.25-1.84-12.41-.24-2.07-.46-4.15-.61-6.24-.08-1-.13-2.08-.17-3.13l0-1.56a3.86,3.86,0,0,1,.22-1.61,5,5,0,0,1,2.1-2.39c.91-.55,1.81-1.06,2.73-1.56a23.56,23.56,0,0,1,5.85-2.29,15.69,15.69,0,0,1,3.13-.33,25.18,25.18,0,0,1,3.13.09,13.59,13.59,0,0,1,6,1.81c.14.08.24.15.22.15a.94.94,0,0,1-.24-.11,13.63,13.63,0,0,0-6-1.7,25,25,0,0,0-3.12,0,15.17,15.17,0,0,0-3.08.37,23.33,23.33,0,0,0-5.76,2.32c-.91.5-1.82,1-2.69,1.57a4.7,4.7,0,0,0-2,2.24,3.47,3.47,0,0,0-.19,1.47l0,1.57c0,1,.11,2.08.19,3.11.17,2.08.4,4.15.65,6.22.49,4.14,1.19,8.26,1.9,12.37a43.37,43.37,0,0,0,2.26,8.36c1.2,2.63,2.28,5.39,4.19,7.53l.36.39a1,1,0,0,0,.38.21l1,.32c.69.21,1.39.38,2.09.52a12.51,12.51,0,0,0,4.27.2,25.84,25.84,0,0,0,4.21-.95l2.09-.64,1-.32.83-.24c.06,0,0,.08,0,0l-.1-.5-.34-1.69c-.23-1.13-.43-2.27-.6-3.41s-.33-2.28-.43-3.43a19.34,19.34,0,0,1-.09-3.49l0-.2.19,0h.29v.19c0,.41,0,.82,0,1.23a40.44,40.44,0,0,0,.9,6.17c.21,1,.45,2,.69,3l.37,1.53.18.76.06.27c0,.1.09.24-.07.24l-.48.15c-2,.62-3.94,1.37-6,1.91a16.31,16.31,0,0,1-6.25.63,20.45,20.45,0,0,1-3.1-.6A12.63,12.63,0,0,1,64,152.7a4.41,4.41,0,0,1-1.28-1A16.61,16.61,0,0,1,61,149.1c-.53-.91-1-1.85-1.45-2.79a31.8,31.8,0,0,1-2.15-5.9c-.47-2-.8-4.1-1.17-6.16-.71-4.12-1.3-8.25-1.71-12.41-.2-2.08-.36-4.16-.46-6.25,0-1-.09-2.09-.11-3.13a13.88,13.88,0,0,1,0-1.58,4,4,0,0,1,.53-1.49,6,6,0,0,1,2.29-2.13c.91-.51,1.81-1,2.75-1.5a22.41,22.41,0,0,1,5.88-2.14,21.81,21.81,0,0,1,6.25-.12,13.66,13.66,0,0,1,5.93,1.89l.15.1v0h0l-.07.07s0,0,0-.09v0Z"/><path class="cls-10" d="M142.19,41.16a22.53,22.53,0,0,0-25.54-25.08c-7,.75-12.35,6.12-19.36,7.11-3.42.63-6.89.74-10.3,1.17a23.67,23.67,0,0,0-9.74,3A20.06,20.06,0,0,0,67.9,44.62C68,48,69.34,51.4,68.66,55a11,11,0,0,1-2.47,4.63A15,15,0,0,0,63.61,64a23.08,23.08,0,0,0-.87,10.13c.33,3.43,1,6.82,1.58,10.22a58.62,58.62,0,0,1,1.12,10.32c0,3.43-.76,7-3,9.76-.08.11-.14.18-.15.16a.87.87,0,0,1,.11-.19c2.16-2.75,2.82-6.32,2.79-9.73A60,60,0,0,0,64,84.39c-.62-3.4-1.31-6.79-1.67-10.25a23.39,23.39,0,0,1,.83-10.34,15.6,15.6,0,0,1,2.64-4.52,10.53,10.53,0,0,0,2.37-4.42c.66-3.35-.69-6.73-.75-10.23A20.5,20.5,0,0,1,77,27.05a23.88,23.88,0,0,1,9.9-3c3.44-.42,6.9-.51,10.29-1.12,6.91-.93,12.32-6.29,19.39-7a22.67,22.67,0,0,1,25.62,25.31c0,.13,0,.23-.05.23A.81.81,0,0,1,142.19,41.16Z"/><path class="cls-10" d="M62.54,104.13l.76-1c.22-.36.4-.75.6-1.13.1-.19.21-.38.29-.57l.21-.61c.14-.41.31-.8.41-1.22a21.22,21.22,0,0,0,.6-5.09,57.43,57.43,0,0,0-1.16-10.2,100,100,0,0,1-1.59-10.17,22.89,22.89,0,0,1,.9-10.2c1-3.38,4.34-5.44,5-8.87s-.58-6.77-.7-10.21a20,20,0,0,1,9.43-17.38,23.63,23.63,0,0,1,9.82-3c3.42-.39,6.86-.49,10.23-1.1s6.51-2,9.56-3.56,6.2-3.12,9.68-3.49a23.36,23.36,0,0,1,10.24.85,22.06,22.06,0,0,1,8.79,5.33,23.91,23.91,0,0,1,6.81,18.91l-.39,0,.09-1.05a21.91,21.91,0,0,0-1.29-10.08,22.62,22.62,0,0,0-5.65-8.46,22.93,22.93,0,0,0-8.74-5.18,23.16,23.16,0,0,0-10.13-.85c-6.85.89-12.32,6.08-19.36,7.1-3.42.61-6.89.73-10.3,1.18A23.47,23.47,0,0,0,77,27.15a20.37,20.37,0,0,0-9.45,17.2c0,3.41,1.38,6.78.82,10.32A10.17,10.17,0,0,1,66,59.32a14,14,0,0,0-2.61,4.38,22.91,22.91,0,0,0-.93,10.15,93.26,93.26,0,0,0,1.63,10.22,55.53,55.53,0,0,1,1.24,10.28,22.3,22.3,0,0,1-.59,5.15,15.82,15.82,0,0,1-.9,2.44c-.19.38-.35.79-.58,1.16l-.72,1.08a1.61,1.61,0,0,1-.25.34,2.56,2.56,0,0,1,.21-.37l.71-1.08c.22-.37.37-.78.56-1.16a15.31,15.31,0,0,0,.87-2.43,21.55,21.55,0,0,0,.54-5.13,56.17,56.17,0,0,0-1.31-10.24,90.18,90.18,0,0,1-1.7-10.23,22.91,22.91,0,0,1,.9-10.3c1-3.44,4.42-5.54,4.91-9s-.85-6.75-.86-10.25a20.83,20.83,0,0,1,9.61-17.63,23.82,23.82,0,0,1,9.88-3.2c3.44-.46,6.9-.58,10.28-1.19,6.85-.95,12.32-6.14,19.38-7.07a23.66,23.66,0,0,1,10.34.89,23.4,23.4,0,0,1,8.91,5.31,23.14,23.14,0,0,1,5.74,8.63,22.32,22.32,0,0,1,1.29,10.27l-.1,1.07-.39,0a23.55,23.55,0,0,0-6.67-18.63,21.8,21.8,0,0,0-8.64-5.27,23.16,23.16,0,0,0-10.1-.85c-3.41.35-6.53,1.92-9.59,3.44s-6.2,3.08-9.65,3.57-6.84.69-10.24,1.08a23.32,23.32,0,0,0-9.73,2.91,19.79,19.79,0,0,0-9.37,17.19c.11,3.39,1.4,6.78.68,10.24a11.19,11.19,0,0,1-2.44,4.52A13.77,13.77,0,0,0,63.69,64a22.74,22.74,0,0,0-.91,10.14,100.12,100.12,0,0,0,1.56,10.16,56.71,56.71,0,0,1,1.14,10.22,21.45,21.45,0,0,1-.61,5.11c-.11.42-.28.81-.41,1.22l-.22.61A6.1,6.1,0,0,1,64,102c-.2.38-.38.77-.6,1.14l-.77,1a3.32,3.32,0,0,1-.3.36A2.11,2.11,0,0,1,62.54,104.13Z"/><path class="cls-10" d="M135.26,50.79a24.85,24.85,0,0,1-5.16,2.3,13.13,13.13,0,0,1-2.78.53c-.94.1-1.88.16-2.82.19-3.76.14-7.57,0-11.24.83A28.31,28.31,0,0,0,95.44,67.35a97.73,97.73,0,0,0-5,10.11,42.91,42.91,0,0,1-6.2,9.48c-2.31,3-4.71,5.92-6,9.44a20,20,0,0,0-1,5.5A7.81,7.81,0,0,1,77,103.3a1.31,1.31,0,0,1-1,1,7,7,0,0,1-2.8-.37c-.07,0-.12,0-.11-.06a.17.17,0,0,1,.12,0,7.06,7.06,0,0,0,2.76.28,1.16,1.16,0,0,0,.87-.9,7,7,0,0,0,.19-1.38,19.75,19.75,0,0,1,.91-5.59c1.26-3.63,3.66-6.66,5.94-9.64A45.11,45.11,0,0,0,90,77.25,99.56,99.56,0,0,1,95.1,67.14a28.61,28.61,0,0,1,18.12-12.72c3.71-.85,7.52-.63,11.27-.74.94,0,1.88-.08,2.82-.18a12.9,12.9,0,0,0,2.76-.5,25,25,0,0,0,5.17-2.25c.06,0,.11-.06.12,0S135.32,50.76,135.26,50.79Z"/><path class="cls-10" d="M73.23,103.91a6.5,6.5,0,0,0,2.75.36,1.34,1.34,0,0,0,1-.88c.1-.45.18-.92.24-1.38a22.78,22.78,0,0,1,1-5.55c1.32-3.55,3.66-6.59,6-9.52s4.72-5.9,6.21-9.36a103.3,103.3,0,0,1,5.06-10.09,28.5,28.5,0,0,1,18.09-12.66c3.71-.83,7.51-.69,11.26-.86a18.7,18.7,0,0,0,10.47-3.39l-.05.27-.06-.08.27.07-.15.08A28.07,28.07,0,0,1,130,53a27.12,27.12,0,0,1-5.66.58c-3.78.09-7.57-.14-11.22.74A28.44,28.44,0,0,0,95.28,67a90.32,90.32,0,0,0-5,10.09,41.44,41.44,0,0,1-6.14,9.52c-2.32,3-4.65,6-6,9.5a17.68,17.68,0,0,0-1,5.51q-.06.71-.18,1.41a1.31,1.31,0,0,1-.8,1.14,5.23,5.23,0,0,1-2.8-.24c-.14,0-.24-.07-.23-.08a.65.65,0,0,1,.24,0,5.3,5.3,0,0,0,2.75.2,1.19,1.19,0,0,0,.71-1.07c.08-.47.13-.93.17-1.4a17.44,17.44,0,0,1,1-5.58c1.31-3.58,3.63-6.65,5.92-9.63a41.21,41.21,0,0,0,6-9.48,90.52,90.52,0,0,1,5-10.18A28.72,28.72,0,0,1,113,53.81c3.73-.88,7.57-.63,11.31-.7a26.54,26.54,0,0,0,5.58-.54,27.07,27.07,0,0,0,5.22-2l.15-.07.16-.09.1.16.05.08.11.16-.16.11a19.06,19.06,0,0,1-10.69,3.41c-3.76.16-7.55,0-11.21.81a28.26,28.26,0,0,0-18,12.48,102.8,102.8,0,0,0-5.08,10C89,81.14,86.63,84.09,84.29,87s-4.68,5.94-6,9.48a22.22,22.22,0,0,0-1,5.52c-.07.46-.15.93-.25,1.39a1.41,1.41,0,0,1-1,.92,6.63,6.63,0,0,1-2.79-.37l-.15,0h0a.26.26,0,0,1,0-.11s0,0,0,.09h0Z"/><path class="cls-10" d="M206.66,126.92a3.71,3.71,0,0,1-.54,2.08,1.79,1.79,0,0,1-2,.66,4.43,4.43,0,0,1-1.89-1.06,7.43,7.43,0,0,1-1.41-1.65,10.81,10.81,0,0,1-1.4-4.09,39.29,39.29,0,0,1-.36-4.33,59.69,59.69,0,0,0-3.16-17,42.41,42.41,0,0,0-8.65-14.83,34.93,34.93,0,0,0-14.16-9.56c-5.44-2-11.32-1.8-17.08-2.13a41.34,41.34,0,0,1-8.62-1.2,16,16,0,0,1-7.51-4.39,15.45,15.45,0,0,1-3.73-7.84,37.76,37.76,0,0,1-.33-8.69c.16-2.89.46-5.77.59-8.65,0-.72.07-1.45,0-2.16a2.63,2.63,0,0,0-.74-1.9,1.31,1.31,0,0,0-1.85.07c-.41.58.48,1.52,1.09,1.12.07-.07.12-.13.13-.12a.33.33,0,0,1-.1.16.77.77,0,0,1-1-.18.83.83,0,0,1-.2-1,1.15,1.15,0,0,1,1-.48,1.72,1.72,0,0,1,1.05.35,2.78,2.78,0,0,1,.84,2c0,.73,0,1.45,0,2.18-.07,2.89-.34,5.78-.46,8.66a37.92,37.92,0,0,0,.4,8.59,15,15,0,0,0,3.68,7.58,15.64,15.64,0,0,0,7.28,4.23,41.87,41.87,0,0,0,8.51,1.21c2.88.17,5.78.23,8.67.49a33.13,33.13,0,0,1,8.52,1.76,35.09,35.09,0,0,1,14.25,9.72,42.66,42.66,0,0,1,8.64,15,59.9,59.9,0,0,1,3.07,17c.14,2.85.2,5.87,1.71,8.37a7.75,7.75,0,0,0,1.38,1.64,4.54,4.54,0,0,0,1.86,1.05,1.72,1.72,0,0,0,1.89-.63,3.61,3.61,0,0,0,.54-2c0-.11,0-.2,0-.2A.54.54,0,0,1,206.66,126.92Z"/><path class="cls-10" d="M134.87,41.48a.87.87,0,0,1-1-.43.71.71,0,0,1-.13-.53.85.85,0,0,1,.3-.46,1.45,1.45,0,0,1,1.95.45,3.34,3.34,0,0,1,.5,2.09c0,.73,0,1.44-.08,2.17l-.56,8.65a30,30,0,0,0,.48,8.61,16.09,16.09,0,0,0,3.81,7.63,15.47,15.47,0,0,0,7.41,4.18,43.27,43.27,0,0,0,8.56,1.2c5.73.34,11.65.23,17.14,2.29a34.92,34.92,0,0,1,14.12,9.85,43.42,43.42,0,0,1,8.51,15,63,63,0,0,1,3.08,17,27.65,27.65,0,0,0,.5,4.27,9.76,9.76,0,0,0,1.65,3.89,6.92,6.92,0,0,0,1.49,1.47,3.3,3.3,0,0,0,1.88.74,1.73,1.73,0,0,0,1.61-.92,3.6,3.6,0,0,0,.35-2l.2.19a.37.37,0,0,1-.2-.06.33.33,0,0,1-.1-.16l.4,0v0a4.41,4.41,0,0,1-.54,2.19,1.74,1.74,0,0,1-1,.72,2.24,2.24,0,0,1-1.18,0,5.93,5.93,0,0,1-3.28-2.92,11.4,11.4,0,0,1-1.26-4.21c-.18-1.45-.19-2.9-.27-4.34a58.81,58.81,0,0,0-3.11-16.94,42.05,42.05,0,0,0-8.67-14.77,35,35,0,0,0-14.16-9.5C168,74.87,162.07,75,156.3,74.72a42.56,42.56,0,0,1-8.62-1.16,14,14,0,0,1-9.92-8,20.3,20.3,0,0,1-1.31-4.16,32.82,32.82,0,0,1-.38-8.68c.13-2.89.45-5.77.52-8.66q0-1.08,0-2.16a2.45,2.45,0,0,0-.86-1.86,1.38,1.38,0,0,0-1.89.15c-.42.6.37,1.52,1,1.29.19-.09.28-.24.28-.21a.52.52,0,0,1-.26.26.91.91,0,0,1-1-.34.85.85,0,0,1-.13-1,1.45,1.45,0,0,1,2-.19,2.56,2.56,0,0,1,.93,1.93c0,.73,0,1.45,0,2.18,0,2.89-.34,5.77-.44,8.66a32.65,32.65,0,0,0,.44,8.61,20,20,0,0,0,1.31,4.08A15.24,15.24,0,0,0,140.42,69a15,15,0,0,0,7.36,4.15,43,43,0,0,0,8.55,1.11c2.88.13,5.78.16,8.67.41a31.89,31.89,0,0,1,8.53,1.75,35.52,35.52,0,0,1,14.38,9.63,42.51,42.51,0,0,1,8.75,15,59.1,59.1,0,0,1,3.09,17.08c.13,2.86.06,5.85,1.45,8.37a5.57,5.57,0,0,0,3,2.72,1.86,1.86,0,0,0,1,0,1.31,1.31,0,0,0,.73-.56,4,4,0,0,0,.48-2h0l.4,0a.16.16,0,0,0,0-.16.12.12,0,0,0-.1-.06l.21.18a4,4,0,0,1-.41,2.22,2.12,2.12,0,0,1-2,1.11,3.74,3.74,0,0,1-2.09-.82,6.84,6.84,0,0,1-1.57-1.56,10.21,10.21,0,0,1-1.71-4,30.23,30.23,0,0,1-.5-4.33,62.33,62.33,0,0,0-3-17,43.08,43.08,0,0,0-8.41-15,34.62,34.62,0,0,0-14-9.82c-5.43-2.06-11.33-2-17.07-2.31A43.73,43.73,0,0,1,147.56,74a15.55,15.55,0,0,1-7.47-4.24,16.07,16.07,0,0,1-3.82-7.7,29.82,29.82,0,0,1-.47-8.64l.59-8.64c.06-.72.05-1.45.08-2.17a3.25,3.25,0,0,0-.48-2.05,1.38,1.38,0,0,0-1.86-.44c-.72.44.05,1.54.72,1.32a.55.55,0,0,0,.21-.17v0l0,0s0,0,0,0l0,0h0s0,0,0,0l0,0v0A.48.48,0,0,1,134.87,41.48Z"/><path class="cls-10" d="M218.45,55.09a109.53,109.53,0,0,1,5.29,13,49.5,49.5,0,0,0,2.79,6.38c.53,1,1.15,2,1.73,3a7.51,7.51,0,0,1,.7,1.65,5.48,5.48,0,0,1,.13,1.8,8.94,8.94,0,0,1-1.18,3.35c-.56,1-1.21,2-1.77,3A8.33,8.33,0,0,0,225,90.43a4.11,4.11,0,0,0,1,3c.7.88,1.58,1.7,2.27,2.66A10.56,10.56,0,0,1,230,99.25a6.43,6.43,0,0,1,.15,3.53,4.68,4.68,0,0,1-2,2.86s-.07,0-.07,0a.12.12,0,0,1,.05-.06,4.74,4.74,0,0,0,1.76-2.87,6.25,6.25,0,0,0-.26-3.37,10.54,10.54,0,0,0-1.7-3c-.7-.92-1.55-1.68-2.33-2.61a4.62,4.62,0,0,1-1.12-3.41A8.53,8.53,0,0,1,225.71,87c.59-1,1.24-2,1.81-3a8.51,8.51,0,0,0,1.17-3.18,2.9,2.9,0,0,0,0-.83,3.32,3.32,0,0,0-.11-.83,7.21,7.21,0,0,0-.65-1.58c-.55-1-1.18-2-1.7-3.05a52.3,52.3,0,0,1-2.73-6.46,107.47,107.47,0,0,0-5.12-13,.1.1,0,0,1,0-.09S218.43,55.06,218.45,55.09Z"/><path class="cls-10" d="M228.13,105.65a4.66,4.66,0,0,0,1.9-2.82,6.29,6.29,0,0,0-.11-3.44c-.67-2.25-2.34-4-3.88-5.73A4.09,4.09,0,0,1,225,90.39a7.76,7.76,0,0,1,1.27-3.28c.62-1,1.24-2,1.8-3a8.55,8.55,0,0,0,1.16-3.23,6.91,6.91,0,0,0-.72-3.33,31.42,31.42,0,0,0-1.66-3.07A64.17,64.17,0,0,1,224,68.06c-1.69-4.35-3.24-8.78-5.63-12.77l-.1-.17.26.07-.1.05.11-.27c1.9,4.24,3.26,8.67,4.82,13,.39,1.08.79,2.17,1.21,3.23s1,2.07,1.49,3.11,1.13,2,1.72,3a5.88,5.88,0,0,1,1,3.41,8.75,8.75,0,0,1-1.19,3.38c-.56,1-1.19,2-1.75,3a9,9,0,0,0-1.17,3.19,4.16,4.16,0,0,0,.91,3.14c1.45,1.75,3.31,3.39,4.1,5.66a6.3,6.3,0,0,1,.32,3.49,4.71,4.71,0,0,1-1.82,2.94c-.07,0-.13.08-.13.07s.05-.06.1-.11a4.59,4.59,0,0,0,1.7-2.93,6.1,6.1,0,0,0-.38-3.38c-.82-2.2-2.64-3.74-4.16-5.53a4.48,4.48,0,0,1-1-3.39,9.5,9.5,0,0,1,1.18-3.35c.56-1,1.18-2,1.72-3.05a8.31,8.31,0,0,0,1.1-3.2,5.36,5.36,0,0,0-1-3.11,34.28,34.28,0,0,1-1.73-3c-.5-1-1-2.08-1.5-3.14s-.82-2.17-1.21-3.26c-1.54-4.37-2.85-8.8-4.72-13l-.08-.18.19-.09.07,0,.17-.08.1.16.09.17c2.4,4.06,3.92,8.52,5.58,12.87A68.66,68.66,0,0,0,227,74.36a27.87,27.87,0,0,1,1.65,3.1,7.09,7.09,0,0,1,.73,3.45,8.87,8.87,0,0,1-1.21,3.31c-.57,1-1.2,2-1.83,3a7.48,7.48,0,0,0-1.26,3.19,3.93,3.93,0,0,0,1,3.17c1.52,1.74,3.19,3.51,3.86,5.8a6.33,6.33,0,0,1,.09,3.48,4.73,4.73,0,0,1-1.94,2.84l0,0h0v0s-.05-.09,0-.09,0,0,.08.07h0Z"/><path class="cls-10" d="M153.84,152.33l.22,0,0,.05s0-.07,0-.09a.11.11,0,0,1,.07,0h.13a1.15,1.15,0,0,1,.26,0c.17,0,.32.1.48.14a1.37,1.37,0,0,1,.45.23,1.76,1.76,0,0,1,.4.32h0a2.61,2.61,0,0,1,.4,2.54,6.51,6.51,0,0,1-1.29,2.31,7.11,7.11,0,0,1-2,1.72,6.45,6.45,0,0,1-2.57.67,14.14,14.14,0,0,1-5.23-.88c-1.68-.54-3.32-1.22-5-1.68a11.12,11.12,0,0,0-5.19.15,14.53,14.53,0,0,1-5.3.5,6.68,6.68,0,0,1-4.32-3,3.29,3.29,0,0,1-.48-1.3,1.89,1.89,0,0,1,.31-1.38,2.81,2.81,0,0,1,1-.92,3.6,3.6,0,0,1,.63-.29l.32-.11c.16-.06,0,0,.16-.11l.18.31a6.19,6.19,0,0,0-1.38.34,2.61,2.61,0,0,0-1.07.77,2.11,2.11,0,0,0-.42,1.22,4.13,4.13,0,0,0,.94,2.51,6.8,6.8,0,0,0,4.68,2.71,18.5,18.5,0,0,0,5.6-.8,11.87,11.87,0,0,1,2.92-.29,8.14,8.14,0,0,1,1.47.21c.49.13.93.29,1.4.43a54.72,54.72,0,0,0,5.48,1.67,9.18,9.18,0,0,0,5.54-.27,7.47,7.47,0,0,0,3.65-4.12,3.09,3.09,0,0,0-.15-2.69,1.64,1.64,0,0,0-.5-.48,1.44,1.44,0,0,0-.61-.32,2.43,2.43,0,0,0-.69-.18c-.21,0-.53-.08-.65,0s.06.1,0,.1-.07,0-.09-.1.24-.11.35-.12h.36a2.5,2.5,0,0,1,.71.15,1.59,1.59,0,0,1,.65.32,1.72,1.72,0,0,1,.55.49,3.26,3.26,0,0,1,.25,2.85,7.53,7.53,0,0,1-1.44,2.54,7.12,7.12,0,0,1-2.28,1.83,9.61,9.61,0,0,1-5.78.38,53.56,53.56,0,0,1-5.54-1.63c-.46-.13-.93-.29-1.37-.4a7.06,7.06,0,0,0-1.37-.19,11.58,11.58,0,0,0-2.8.28,18.08,18.08,0,0,1-5.75.78,7.29,7.29,0,0,1-5-2.93,4.54,4.54,0,0,1-1-2.8,2.55,2.55,0,0,1,.52-1.46,3,3,0,0,1,1.24-.88,7.16,7.16,0,0,1,1.47-.36l.47-.07-.28.38-.14.18-.22.07-.3.1a4.29,4.29,0,0,0-.58.26,2.57,2.57,0,0,0-.93.79,2.15,2.15,0,0,0,.17,2.31,6.3,6.3,0,0,0,4.08,2.9,14.13,14.13,0,0,0,5.19-.45,11.44,11.44,0,0,1,5.3-.11c1.71.48,3.34,1.17,5,1.73a14,14,0,0,0,5.16.9,6.14,6.14,0,0,0,2.52-.64,7,7,0,0,0,2-1.67,6.49,6.49,0,0,0,1.29-2.27,2.55,2.55,0,0,0-.37-2.47h0a1.63,1.63,0,0,0-.38-.3,1.33,1.33,0,0,0-.44-.23,4.26,4.26,0,0,0-.47-.15l-.25,0c-.06,0-.21,0-.16,0v0l-.22,0c-.08,0-.13,0-.13,0S153.77,152.32,153.84,152.33Z"/><path class="cls-10" d="M153.77,151.84a2.77,2.77,0,0,1,2.41,4.26,7.67,7.67,0,0,1-1.64,2.43,6.36,6.36,0,0,1-2.46,1.6,10.66,10.66,0,0,1-5.82-.15c-1.89-.48-3.71-1.21-5.56-1.73a10.12,10.12,0,0,0-5.64.12c-1.86.44-3.85,1-5.86.53a7.22,7.22,0,0,1-4.55-3.65,2.86,2.86,0,0,1,.1-2.91,4.33,4.33,0,0,1,2.52-1.45s.06,0,.06,0,0,0,0,0a4.3,4.3,0,0,0-2.34,1.52,2.62,2.62,0,0,0,0,2.64,6.86,6.86,0,0,0,4.36,3.31c1.83.41,3.75-.1,5.63-.52a15.82,15.82,0,0,1,2.92-.43,8.34,8.34,0,0,1,2.94.41c1.87.56,3.67,1.31,5.53,1.81a10.46,10.46,0,0,0,5.68.23,7.15,7.15,0,0,0,4-3.86,2.7,2.7,0,0,0-2.3-4.16s-.06,0-.06,0S153.74,151.83,153.77,151.84Z"/><path class="cls-10" d="M172.13,23.83a57.73,57.73,0,0,1-8.08,15.92,54,54,0,0,1-5.77,6.86,52.32,52.32,0,0,1-6.86,5.76s0,0,0,0,0,0,0-.05a81.57,81.57,0,0,0,6.53-6.07,71.76,71.76,0,0,0,5.81-6.75,57.35,57.35,0,0,0,8.36-15.69s0-.05,0,0S172.14,23.81,172.13,23.83Z"/><path class="cls-10" d="M172.12,23.81c-3.79,11.31-11.48,21.3-20.75,28.51v0h0c-.11-.15,0,0-.05-.08h0l0,0,.06,0,.11-.08.23-.16.45-.33.89-.67c.58-.46,1.16-.93,1.72-1.41q1.69-1.45,3.27-3a57.35,57.35,0,0,0,5.74-6.8,61.34,61.34,0,0,0,8.27-15.74c0-.06,0-.09.06-.08s0,0,0,.09a55.08,55.08,0,0,1-7.92,16,50.53,50.53,0,0,1-5.79,6.86,50.38,50.38,0,0,1-6.95,5.76s-.1.09-.27-.08,0-.22,0-.26l.09-.08.1-.09.22-.18.42-.36.85-.73,1.67-1.48c1.1-1,2.17-2,3.2-3.11a70.73,70.73,0,0,0,5.86-6.74,57.09,57.09,0,0,0,8.45-15.67,0,0,0,0,1,.06,0s0,0,0,0,0,0,0,0S172.13,23.75,172.12,23.81Z"/><path class="cls-10" d="M187.07,31.47a30.32,30.32,0,0,1-4.06,7.9,46.8,46.8,0,0,1-5.88,6.7,72,72,0,0,1-6.81,5.76q-3.58,2.64-7.34,5s0,0-.06,0a.05.05,0,0,1,0,0c2.34-1.82,4.74-3.56,7.07-5.39s4.67-3.65,6.84-5.65a46.18,46.18,0,0,0,6-6.54,29.64,29.64,0,0,0,4.2-7.79s0,0,0,0S187.08,31.44,187.07,31.47Z"/><path class="cls-10" d="M187.05,31.45c-1.94,5.64-5.8,10.42-10.14,14.44-2.18,2-4.51,3.87-6.85,5.7l-3.53,2.72-1.76,1.36-.88.68-.44.33-.22.17-.11.09,0,0h0s0,.08-.07-.07h0a.11.11,0,0,0-.06,0s0,0,0,0v0h0l0-.09,0,0,.06,0,.11-.08.23-.16.46-.31.91-.64,1.82-1.26,3.66-2.53a78.43,78.43,0,0,0,6.77-5.72c4.29-4,8.08-8.77,10.1-14.38,0-.06,0-.09,0-.08a.1.1,0,0,1,0,.09c-1.75,5.73-5.54,10.61-9.79,14.73a68.21,68.21,0,0,1-6.83,5.76l-3.69,2.5L164.9,55.8l-.92.62-.46.31-.23.16-.12.08-.06,0a.34.34,0,0,1-.14.06.22.22,0,0,1-.14,0,.23.23,0,0,1-.11-.22.39.39,0,0,1,.08-.14l.07-.06.11-.08.23-.17.44-.33.89-.67L166.32,54l3.55-2.68c2.35-1.81,4.69-3.63,6.88-5.63,4.37-4,8.26-8.67,10.26-14.3a.07.07,0,0,1,.06,0,0,0,0,0,1,0,.05,0,0,0,0,1,0,0S187.07,31.39,187.05,31.45Z"/><path class="cls-10" d="M197.32,39.7A78.79,78.79,0,0,1,186.6,53.33a71.26,71.26,0,0,1-6.43,5.85c-1.15.89-2.31,1.76-3.5,2.58-.6.41-1.19.83-1.81,1.21a2.94,2.94,0,0,1-2.1.52s0,0,0,0,0,0,.05,0a3,3,0,0,0,2-.66c.58-.42,1.15-.87,1.73-1.3q1.71-1.3,3.38-2.69c2.22-1.84,4.4-3.73,6.47-5.75a77.77,77.77,0,0,0,11-13.37l0,0A.06.06,0,0,1,197.32,39.7Z"/><path class="cls-10" d="M197.3,39.67a78.42,78.42,0,0,1-10.92,13.47c-2.06,2-4.24,3.94-6.46,5.8l-3.39,2.72L174.79,63a3.84,3.84,0,0,1-1,.53,2.37,2.37,0,0,1-.57.14h-.46c0,.09,0-.12,0-.1h0l0-.06s0,0,0,0a0,0,0,0,0,0,0h0s0,.08,0-.1c1.35.24,2.51-1,3.7-1.69L180,59a74.73,74.73,0,0,0,6.39-5.81,84.88,84.88,0,0,0,10.89-13.45s.06-.07.07-.06,0,0,0,.09a72.74,72.74,0,0,1-10.57,13.77,62.81,62.81,0,0,1-6.45,5.85L176.76,62l-1.83,1.19a3.15,3.15,0,0,1-2.21.52.19.19,0,0,1-.1,0,.27.27,0,0,1-.09-.11.22.22,0,0,1,.06-.23.23.23,0,0,1,.22-.06h.36a2.68,2.68,0,0,0,.49-.11,3.79,3.79,0,0,0,.91-.48l1.74-1.28,3.41-2.68C182,56.87,184.15,55,186.23,53a78.47,78.47,0,0,0,11-13.33,0,0,0,0,1,.06,0s0,0,0,0,0,0,0,0S197.33,39.62,197.3,39.67Z"/><path class="cls-10" d="M203.84,48.34a42.28,42.28,0,0,1-7.67,12.41,40.33,40.33,0,0,1-5.3,5.07,38.48,38.48,0,0,1-6.16,4h-.05a.08.08,0,0,1,0,0,65.65,65.65,0,0,0,5.87-4.32,53,53,0,0,0,5.32-5,42.11,42.11,0,0,0,7.93-12.16s0,0,0,0S203.85,48.32,203.84,48.34Z"/><path class="cls-10" d="M203.83,48.32a42.39,42.39,0,0,1-7.89,12.26,57.56,57.56,0,0,1-5.34,5c-.94.79-1.9,1.54-2.89,2.27l-1.49,1.07-.75.52-.38.26-.19.12-.09.07h0s.07.11-.08-.1h0l0,0s0,0,0,0v0h0l-.06-.11a39.7,39.7,0,0,0,11.33-9,44.69,44.69,0,0,0,7.84-12.21s0-.07.06-.06a.26.26,0,0,1,0,.07A39.94,39.94,0,0,1,196.32,61a37.71,37.71,0,0,1-11.52,9,.25.25,0,0,1-.12,0,.22.22,0,0,1-.22-.2.23.23,0,0,1,.12-.22l.1-.07.19-.12.38-.25.76-.52,1.49-1c1-.71,2-1.45,2.9-2.22a55.73,55.73,0,0,0,5.37-4.93,42.16,42.16,0,0,0,8-12.14s.1,0,.08,0,0,0,0,0S203.83,48.29,203.83,48.32Z"/><path class="cls-10" d="M212.41,55.22a43.47,43.47,0,0,1-8.49,13,42.47,42.47,0,0,1-5.83,5.22,39.9,39.9,0,0,1-6.71,4s0,0,0,0,0,0,0,0a67.19,67.19,0,0,0,6.43-4.36,55.54,55.54,0,0,0,5.84-5.1,43.1,43.1,0,0,0,8.74-12.77s0,0,0,0A0,0,0,0,1,212.41,55.22Z"/><path class="cls-10" d="M212.4,55.2c-4.11,9.55-12.11,17.37-21.05,22.2-.1-.21,0-.06,0-.11h0l.06,0,.11,0,.22-.11.43-.21.86-.45c.57-.31,1.13-.64,1.68-1,1.1-.68,2.18-1.4,3.22-2.17a44.13,44.13,0,0,0,5.77-5.16,45.68,45.68,0,0,0,8.66-12.83s0-.08.06-.07,0,.05,0,.08a41.58,41.58,0,0,1-8.33,13.16,40,40,0,0,1-12.6,9.2l-.13,0a.24.24,0,0,1-.13-.05.21.21,0,0,1-.07-.19.25.25,0,0,1,.13-.19l.11-.06.21-.13.41-.25.83-.51,1.64-1c1.08-.72,2.14-1.47,3.17-2.26a55.74,55.74,0,0,0,5.89-5.08,43.31,43.31,0,0,0,8.83-12.74c0-.05.11,0,.08,0s0,0,0,0S212.41,55.15,212.4,55.2Z"/><path class="cls-10" d="M211.91,69.66a25.9,25.9,0,0,1-5.42,9.9,25.56,25.56,0,0,1-4.17,3.88,24,24,0,0,1-5,2.79s0,0,0,0,0,0,0,0A43.42,43.42,0,0,0,202,83a34.46,34.46,0,0,0,4.17-3.75,25.6,25.6,0,0,0,5.67-9.65l0,0S211.91,69.64,211.91,69.66Z"/><path class="cls-10" d="M211.89,69.64a25.74,25.74,0,0,1-5.65,9.75,34.57,34.57,0,0,1-4.2,3.83c-.74.59-1.52,1.15-2.3,1.68l-1.2.77-.6.38-.31.18-.15.09,0,0h0l-.08-.13h0s0,0,0,0-.07-.18-.06-.15h0a24.6,24.6,0,0,0,9-6.61,27.21,27.21,0,0,0,5.59-9.7s0-.06,0,0,0,0,0,.06a24.48,24.48,0,0,1-5.25,10,23.45,23.45,0,0,1-9.19,6.65l-.05,0a.24.24,0,0,1-.3-.18.23.23,0,0,1,.12-.23l0,0,.15-.09.31-.18.6-.36,1.2-.75c.79-.51,1.56-1,2.31-1.63a34.84,34.84,0,0,0,4.23-3.73,25.78,25.78,0,0,0,5.78-9.64c.1,0,.06.09,0,.06Z"/><path class="cls-10" d="M95.1,27.77A101.78,101.78,0,0,1,109,34.32a35.9,35.9,0,0,1,6.22,4.54,24.68,24.68,0,0,1,4.79,6s0,0,0,0,0,0,0,0a32.76,32.76,0,0,0-5.09-5.68,45.44,45.44,0,0,0-6.09-4.57,100.71,100.71,0,0,0-13.71-6.84s0,0,0,0S95.07,27.76,95.1,27.77Z"/><path class="cls-10" d="M95.07,27.79a100.7,100.7,0,0,1,13.79,6.78A46,46,0,0,1,115,39.16a32,32,0,0,1,2.75,2.71c.43.48.84,1,1.24,1.47l.6.77.28.38.14.2.07.1h0s-.19.14-.1.08h0s0,0,0,0a0,0,0,0,0,0,0h0c-.21.11-.06,0-.11,0a24.21,24.21,0,0,0-4.75-5.91,37.33,37.33,0,0,0-6.15-4.5,116.26,116.26,0,0,0-13.77-6.75s-.07,0-.06-.05,0,0,.08,0a88.7,88.7,0,0,1,14,6.36,28.45,28.45,0,0,1,11,10.64.41.41,0,0,1,0,.09.23.23,0,0,1-.13.25c-.26,0-.25-.09-.29-.1l-.07-.1-.14-.19-.28-.39-.57-.76c-.39-.5-.8-1-1.22-1.47a31.39,31.39,0,0,0-2.69-2.72,46.31,46.31,0,0,0-6.09-4.63A102.93,102.93,0,0,0,95,27.82c-.05,0,0-.1,0-.07a0,0,0,0,1,0,0S95,27.78,95.07,27.79Z"/><path class="cls-10" d="M87.65,38a42.67,42.67,0,0,1,9.45,4.32,31.77,31.77,0,0,1,4.26,3A28.58,28.58,0,0,1,105,49a0,0,0,0,1,0,0h0c-1.3-1.15-2.59-2.29-4-3.35s-2.72-2.12-4.16-3.07A43,43,0,0,0,87.63,38s0,0,0,0Z"/><path class="cls-10" d="M87.63,38a46.17,46.17,0,0,1,17.38,11l-.13.1h0l0,0,0-.06-.1-.12-.22-.25-.43-.47q-.44-.48-.9-.93c-.61-.6-1.25-1.18-1.91-1.74a39,39,0,0,0-4.21-3A48.87,48.87,0,0,0,87.69,38s0,0,0,0,0,0,0,0a39,39,0,0,1,9.57,4.13,28.89,28.89,0,0,1,7.93,6.81.23.23,0,0,1-.06.32.25.25,0,0,1-.28,0l-.06-.05-.12-.11-.25-.21-.49-.43-1-.84-2-1.7-4.15-3.12A44.3,44.3,0,0,0,87.59,38c0-.09.08-.05.06,0Z"/><path class="cls-10" d="M79.68,46.91a43.41,43.41,0,0,1,7.6,4,29.89,29.89,0,0,1,3.46,2.58,25,25,0,0,1,3,3.1,0,0,0,0,1,0,0h0c-1.1-.93-2.17-1.87-3.28-2.76s-2.21-1.8-3.36-2.63A44,44,0,0,0,79.66,47a0,0,0,0,1,0,0A0,0,0,0,1,79.66,47Z"/><path class="cls-10" d="M79.67,46.93a48.7,48.7,0,0,1,14,9.68h0s-.26.2-.13.11h0l0,0,0-.05-.09-.1-.17-.2-.35-.4c-.24-.26-.48-.52-.74-.77-.5-.5-1-1-1.56-1.46a34.38,34.38,0,0,0-3.41-2.55A52.53,52.53,0,0,0,79.71,47s0,0,0-.05h0a37.48,37.48,0,0,1,7.72,3.82,27.29,27.29,0,0,1,3.47,2.6c.54.49,1.06,1,1.55,1.52.25.26.5.52.74.8l.35.41.17.21.08.11,0,.05,0,0s0,0,.06.11a.22.22,0,0,1-.12.25.23.23,0,0,1-.24,0l-.06-.05-.1-.08-.2-.18-.41-.35-.81-.7L90.35,54,87,51.34a47.67,47.67,0,0,0-7.38-4.41c0-.07.08,0,.06,0Z"/><path class="cls-10" d="M73.55,58.31a22,22,0,0,1,5.75,2.48,16.46,16.46,0,0,1,2.55,1.86A13.29,13.29,0,0,1,83.9,65s0,0,0,0h0c-.78-.69-1.54-1.39-2.34-2s-1.59-1.31-2.44-1.9a22.17,22.17,0,0,0-5.55-2.77s0,0,0,0S73.54,58.3,73.55,58.31Z"/><path class="cls-10" d="M73.55,58.33A22.15,22.15,0,0,1,79.16,61l2.5,1.9,1.2,1,.6.5.3.26.15.12.08.07h0c-.24.28-.06.08-.11.14h0s0,0,0,0h0l-.15.1,0,0a13.14,13.14,0,0,0-2-2.3A18.24,18.24,0,0,0,79.18,61a25.81,25.81,0,0,0-5.61-2.67s0,0,0,0h0a19.28,19.28,0,0,1,5.86,2.29,13.43,13.43,0,0,1,4.61,4.32v0a.24.24,0,0,1,0,.25.26.26,0,0,1-.19.09c-.12,0-.17-.06-.15-.05l-.08-.07L83.51,65l-.29-.26-.59-.52-1.16-1-2.44-2a24.72,24.72,0,0,0-5.53-2.91s.06,0,0,0A0,0,0,0,0,73.55,58.33Z"/><path class="cls-10" d="M204.73,31.43A6,6,0,0,0,204,35.9a3,3,0,0,0,1.39,1.75,5.74,5.74,0,0,0,2.17.72,8.23,8.23,0,0,0,2.32-.07,1.15,1.15,0,0,1,1.12.56,2.19,2.19,0,0,1,.25,1.22,11,11,0,0,1-.62,2.29,2.29,2.29,0,0,0,.17,2.08,1.07,1.07,0,0,0,.83.47c.34,0,.71-.14,1.16-.15a.92.92,0,0,1,.7.25,1.24,1.24,0,0,1,.3.65,3,3,0,0,1,0,1.26c-.16.8-.51,1.52-.61,2.24a1.8,1.8,0,0,0,.59,1.85,3.55,3.55,0,0,0,2.13.27,3,3,0,0,1,2.35.64,1.34,1.34,0,0,1,.33,1.23,7,7,0,0,1-.43,1.12,1.42,1.42,0,0,0,0,1.07.59.59,0,0,0,.39.33.23.23,0,0,0,.23,0,.13.13,0,0,0-.07-.2s0,0,0,0l.07,0a.18.18,0,0,1,.1.27.3.3,0,0,1-.31.1.72.72,0,0,1-.5-.36,1.55,1.55,0,0,1-.08-1.21,9.24,9.24,0,0,0,.35-1.1,1,1,0,0,0-.29-.93,2.62,2.62,0,0,0-2.06-.46,4,4,0,0,1-2.44-.28,1.82,1.82,0,0,1-.78-1.07,3,3,0,0,1-.05-1.27c.12-.84.48-1.55.64-2.28a2.78,2.78,0,0,0,.06-1.07c-.06-.36-.21-.54-.54-.54s-.72.15-1.17.14a1.52,1.52,0,0,1-1.14-.66,2.64,2.64,0,0,1-.19-2.42,11.21,11.21,0,0,0,.64-2.21,1.85,1.85,0,0,0-.18-1.05.86.86,0,0,0-.86-.44,8.47,8.47,0,0,1-2.36,0,5.73,5.73,0,0,1-2.23-.79,3.14,3.14,0,0,1-1.43-1.86,6.09,6.09,0,0,1,.81-4.54s0,0,0,0S204.74,31.4,204.73,31.43Z"/><path class="cls-10" d="M204.71,31.4a6.13,6.13,0,0,0-.81,4.47,3.07,3.07,0,0,0,1.33,1.82,5.61,5.61,0,0,0,2.16.81,7.84,7.84,0,0,0,2.32,0,1,1,0,0,1,1.11.43,2,2,0,0,1,.2,1.2,14,14,0,0,1-.67,2.26,2.5,2.5,0,0,0,.19,2.17,1.53,1.53,0,0,0,.85.63,2.9,2.9,0,0,0,1.12-.09.93.93,0,0,1,.66.08.84.84,0,0,1,.29.6,3,3,0,0,1-.09,1.21,15.3,15.3,0,0,0-.61,2.24,2.11,2.11,0,0,0,.66,2,3,3,0,0,0,2.15.34,3.43,3.43,0,0,1,2.39.37,1.23,1.23,0,0,1,.47,1.22,11.62,11.62,0,0,1-.36,1.13,1.37,1.37,0,0,0,.06,1,.55.55,0,0,0,.32.28.3.3,0,0,0,.16,0s0,0,.07,0-.05,0-.05,0,0,0,0,0h0v-.08h0a.3.3,0,0,0,0,.06l0,0c-.22-.35-.1-.23-.1-.26h.06a.31.31,0,0,1,.27.16.34.34,0,0,1,0,.37.46.46,0,0,1-.48.11.85.85,0,0,1-.53-.52,1.75,1.75,0,0,1,.09-1.28,4.83,4.83,0,0,0,.37-1,1.15,1.15,0,0,0-.25-.9,2.56,2.56,0,0,0-2-.62,4.89,4.89,0,0,1-2.4-.2,1.56,1.56,0,0,1-.8-1.06,2.93,2.93,0,0,1,0-1.25c.15-.81.49-1.51.61-2.23s.08-1.58-.48-1.72a2.59,2.59,0,0,0-1,.09,1.47,1.47,0,0,1-.69,0,1.37,1.37,0,0,1-.59-.38,1.9,1.9,0,0,1-.5-1.21,3.36,3.36,0,0,1,.18-1.24,11.51,11.51,0,0,0,.62-2.21c.07-.71-.19-1.53-.91-1.59a13.6,13.6,0,0,1-2.33.07,6,6,0,0,1-2.29-.69,3.22,3.22,0,0,1-1.57-1.81,5.91,5.91,0,0,1,.73-4.57c0-.05.06-.08.07-.07s0,.05,0,.1a5.85,5.85,0,0,0-.55,4.47,3,3,0,0,0,1.49,1.62,5.91,5.91,0,0,0,2.18.6,7.36,7.36,0,0,0,1.15,0l.57-.07a3,3,0,0,1,.63,0,1.32,1.32,0,0,1,1.07.76,2.5,2.5,0,0,1,.22,1.25,10.44,10.44,0,0,1-.61,2.31,2,2,0,0,0,.24,2,.81.81,0,0,0,.84.23,2.83,2.83,0,0,1,1.26-.08,1.23,1.23,0,0,1,.85,1,3.28,3.28,0,0,1,0,1.25c-.14.81-.49,1.52-.62,2.23s0,1.49.55,1.78a4.59,4.59,0,0,0,2.16.17,3,3,0,0,1,2.3.79,1.55,1.55,0,0,1,.36,1.27,5.19,5.19,0,0,1-.42,1.13,1.33,1.33,0,0,0-.09,1,.41.41,0,0,0,.26.28h.06s0,0,0,0h0c.11.09,0,0,0,0s-.06,0,0,0,0,0,0,0,0,0,0,0v.06c.05.14,0,0,0,.07s-.39-.62-.2-.34h0v0c.05-.08.31-.08.35,0a.35.35,0,0,1,.15.21.39.39,0,0,1,0,.31.51.51,0,0,1-.21.16.75.75,0,0,1-.42,0,.92.92,0,0,1-.54-.48,1.73,1.73,0,0,1-.08-1.28c.12-.4.29-.75.36-1.1a.83.83,0,0,0-.32-.86c-1.21-.92-3,.31-4.52-.75a2.42,2.42,0,0,1-.76-2.27,13.54,13.54,0,0,1,.64-2.27,3,3,0,0,0,.1-1.11.62.62,0,0,0-.18-.43.71.71,0,0,0-.49,0,3,3,0,0,1-1.2.06,1.64,1.64,0,0,1-1-.73,2.7,2.7,0,0,1-.19-2.35,13.45,13.45,0,0,0,.68-2.22,1.83,1.83,0,0,0-.17-1.09.84.84,0,0,0-.94-.36,8.12,8.12,0,0,1-2.36,0,5.78,5.78,0,0,1-2.2-.84,3.18,3.18,0,0,1-1.36-1.89,6.09,6.09,0,0,1,.87-4.53s0,0,.06,0,0,0,0,0l0,0S204.74,31.34,204.71,31.4Z"/><path class="cls-10" d="M204,34.2l1.46-4,.73-2c.1-.32.09-.72-.22-.77a7.64,7.64,0,0,0-1,.07c-2.78.25-5.77.45-8.43-.8A11.18,11.18,0,0,1,193,24.27a6.11,6.11,0,0,1-1.68-4c0-1.47.4-2.85.53-4.24s.3-2.81.49-4.22c0,0,0,0,0,0s0,0,0,.05c-.05,1.41-.11,2.83-.2,4.24s-.4,2.83-.37,4.2a5.94,5.94,0,0,0,1.55,3.67,10.42,10.42,0,0,0,3.33,2.42c2.52,1.26,5.46,1.14,8.25.94a5.48,5.48,0,0,1,1.08,0,.51.51,0,0,1,.41.44,1.34,1.34,0,0,1-.06.57l-.77,2-1.54,4s0,0,0,0S204,34.22,204,34.2Z"/><path class="cls-10" d="M204,34.22l1.52-4,.76-2c.1-.31.14-.72-.15-.89a2.13,2.13,0,0,0-1,0c-2.79.2-5.76.4-8.4-.84A10.92,10.92,0,0,1,193.23,24a6,6,0,0,1-1.61-3.93c0-1.45.32-2.84.35-4.24l.09-2.12,0-1.06,0-.53,0-.26v-.07h.13s0,0,0,0,0,0,.05,0h.12v.07L192,16.14a41.79,41.79,0,0,0-.49,4.19A5.88,5.88,0,0,0,193.06,24a10.7,10.7,0,0,0,3.34,2.41c2.5,1.27,5.42,1.19,8.21,1l1.06-.08a1,1,0,0,1,.3,0,.45.45,0,0,1,.32.23.92.92,0,0,1,0,.63c-.25.69-.51,1.33-.76,2L204,34.12c0,.05,0,.09-.05.08a.1.1,0,0,1,0-.09l1.38-4,.68-2a.69.69,0,0,0,0-.41.12.12,0,0,0-.1-.07.88.88,0,0,0-.23,0l-1.05.1c-2.79.29-5.8.44-8.46-.86a11,11,0,0,1-3.51-2.51,6.29,6.29,0,0,1-1.64-4,37.75,37.75,0,0,1,.54-4.24l.51-4.22v-.07a.2.2,0,0,1,0-.08s0-.1.18-.15a.23.23,0,0,1,.24.17.44.44,0,0,1,0,.09v.33l0,.53-.05,1.07-.11,2.12c-.05,1.43-.4,2.82-.4,4.21a5.73,5.73,0,0,0,1.5,3.76,10.67,10.67,0,0,0,3.38,2.45c2.55,1.24,5.5,1.09,8.29.91a2.15,2.15,0,0,1,1.09.06.87.87,0,0,1,.19,1l-.78,2L204,34.25a.06.06,0,0,1-.06,0,0,0,0,0,1,0-.05s0,0,0,0S204,34.27,204,34.22Z"/><path class="cls-10" d="M191.71,11.37c-1.29.29-2.57.63-3.88.84a13.9,13.9,0,0,1-4,.07,23.53,23.53,0,0,1-3.9-.83,12.91,12.91,0,0,1-3.2-2.37,7.29,7.29,0,0,0-3.55-1.51,14.29,14.29,0,0,0-3.92,0A68.68,68.68,0,0,0,161.52,9c-5.14,1.25-10.16,2.92-15.25,4.39l-7.66,2.12-3.83,1a5,5,0,0,0-3.25,2s-.06.07-.07.06,0,0,0-.09a3.32,3.32,0,0,1,1.39-1.41,8.85,8.85,0,0,1,1.85-.78l3.8-1.16L146.13,13c5.06-1.53,10.13-3.1,15.3-4.3a71.33,71.33,0,0,1,7.83-1.41,14.89,14.89,0,0,1,4,.06,7.61,7.61,0,0,1,3.65,1.6A12.56,12.56,0,0,0,180,11.28a24.35,24.35,0,0,0,3.85.87,14.13,14.13,0,0,0,3.95,0c1.3-.2,2.59-.52,3.88-.8h.09S191.76,11.36,191.71,11.37Z"/><path class="cls-10" d="M191.72,11.34l-3.89.81a13.54,13.54,0,0,1-4,0,23.4,23.4,0,0,1-3.88-.87,13.53,13.53,0,0,1-3.16-2.4,7.68,7.68,0,0,0-3.57-1.54,14.85,14.85,0,0,0-3.94-.06,69.4,69.4,0,0,0-7.8,1.43c-5.15,1.21-10.2,2.79-15.27,4.33l-7.61,2.28-3.79,1.17a5.09,5.09,0,0,0-3.13,2l-.05.11-.13,0c-.08,0-.05,0-.08,0s-.1-.1-.1-.11h0a3.57,3.57,0,0,1,1.51-1.4,9.3,9.3,0,0,1,1.88-.71l3.79-1,7.58-2.13c5-1.45,10-3.12,15.12-4.36a74,74,0,0,1,7.83-1.49,15,15,0,0,1,4,0,7.6,7.6,0,0,1,3.72,1.53,14.73,14.73,0,0,0,3.1,2.38,22.66,22.66,0,0,0,3.83.89,14,14,0,0,0,3.93,0l3.89-.78c.1,0,.18,0,.17,0a.46.46,0,0,1-.16.06c-1.29.29-2.58.6-3.87.88a14.41,14.41,0,0,1-4,.07,22.2,22.2,0,0,1-3.91-.85,14.41,14.41,0,0,1-3.2-2.38A7.3,7.3,0,0,0,173,7.74a14.63,14.63,0,0,0-3.91,0,73.46,73.46,0,0,0-7.76,1.55c-5.08,1.26-10,2.92-15.11,4.35l-7.59,2.08-3.8,1a4.85,4.85,0,0,0-3.15,1.89h0a.36.36,0,0,1-.11.12s-.1.11-.27,0,0-.14-.06-.17a.41.41,0,0,1,0-.09l.08-.15a3.68,3.68,0,0,1,1.49-1.44,10.33,10.33,0,0,1,1.87-.76L138.53,15l7.62-2.24c5.07-1.51,10.14-3.07,15.31-4.25a71.69,71.69,0,0,1,7.83-1.39,15.15,15.15,0,0,1,4,.08,7.82,7.82,0,0,1,3.63,1.59,13.27,13.27,0,0,0,3.12,2.4,23.11,23.11,0,0,0,3.85.89,13.76,13.76,0,0,0,3.95,0l3.89-.79h.08c.05.08,0,.07,0,.08a.09.09,0,0,1-.06,0l0,0s.05,0,0,0Z"/></g></g><g id="newdad_torso_armsbehind"><g id="newdad_torso_armsbehind_colour"><path class="cls-11" d="M252.63,502.52c-.44-.67-.58-2.84-.65-3.86-.67-9.35-1.89-17.32-2.22-26.6-1-11.18-1.22-22.11-1.45-33.31-.95-14.14-.4-28.43-1.08-42.53-.59-12-1.87-23-2.61-35.06-1-6.63-2-13.17-2.67-19.85-.62-5.83-1.42-11.27-2.34-17.07-3.17-11.45-4.42-27.06-7.92-34.95A12.13,12.13,0,0,0,230,287a9.54,9.54,0,0,0-3-1.72c-13.44-3.86-41.95-9.61-41.95-9.61l-1-1.87s-15.64,13.59-22.84,18.94a33,33,0,0,1-5.95,3.53c-1.51.69-.44-.64-.59-2.09-.62-6.14-4-11-5.68-16.9-.14-.5-2.24-6.37-2.24-6.37l-2.34.2c-.44,0-2.56.08-2.56.08s-4.48,14.42-7.08,19.34a13.88,13.88,0,0,1-3,4s-1.06-.33-1.58-.52C119.46,290.14,96.83,277,96.83,277l1.42-3.2s-4.1,1.25-5.6,1.66c-2.24.63-4.83,1.32-7.06,2-12.17,3.63-27.53,5.62-38.31,11.08-6.86,3.46-7.85,8-10.22,14.49a49.86,49.86,0,0,0-2.67,10.73c-1.32,10.1-3.86,19.22-4.13,30.29A263.72,263.72,0,0,1,26,383.4c-2.46,14.44-4.54,28.6-5.57,42.67-1.06,14.46-.59,25.94-2.58,41.76a59,59,0,0,1-1.74,10.36c-.54,1.8-1.76,2.57-2.31,4.37-.45,1.46-1.28,2.32-.92,3.88.32,1.35,3.07,3.18,4.34,2.8,2.25-.65,3.09-.52,5.29-1.32,2.59-.94,4.61-.78,7.37-1a20.71,20.71,0,0,1,10.05,1.72,19.09,19.09,0,0,1,6.88,4.08c2,1.95,3,3.65,6.62,4.64.89.24,1.81.5,2.36-.23,2.51-3.34-.87-9.85-1.18-14.83-.74-12.24,2.73-27,5.81-38.7,3.44-13.12,2.74-23.65,4.28-36.43,1-8.63.5-16.47,1.8-25.07C67.62,374.48,77,353.57,77,353.57s.06,2.31.17,4c.08,1.25.4,35.88-.78,49.41-1.53,17.38-3.87,34.68-6.27,52-2.37,17-3.9,34.42-7.25,51.22-2.94,14.74-4.63,29.76-8.82,44.23-2.13,7.38-8.56,11-6.7,18.59,1.37,5.65,6.78,14.54-.27,18-5.18,2.55-.05,9.07-3.89,12.81-2.92,2.86-9,5.77-10.72,9.35-3.68,7.71,16.07,5.46,20,5.48,10.51.05,21.16-.1,30.92,3.05,15.64,5,29.2,9.14,45.43,12.62a56.3,56.3,0,0,0,10.49,1.36,14.82,14.82,0,0,1,1.7-.17,3.67,3.67,0,0,1,2.87,2.31s6.22,1.42,8.6,2.14a115.75,115.75,0,0,0,17.68,4.41c5.54,1,15.33,1.48,21.1.7,4.93-.66,9.24-.93,13.5-2.74,4.54-1.93,5.76-5.82,2.48-9.12-1.11-1.12-4.1-2.11-5.54-2.9-5.15-2.81-2.9-5.45-2.14-8.27.08-.27,1.13-3.73,1.2-4,.68-2.9-1.11-6.74-2.55-11.36-.89-2.86-1.67-5.67-1.37-8.24.2-1.72-.53-2.18-.5-3.91.34-20.82,1.24-41.52,2.28-62.34.52-10.58-.48-18.71.15-29.27,0-1.2.17-4.78.23-6,0-1,.43-3,.51-4,.09-1.23,0-2.34.16-3.56,1.26-20.6,3.7-40.61,4.93-61.2,1-16.65.94-30.27,1.86-46.93.67-12,3.12-36.5,3.12-36.5s1.75,43.64,2.16,55c.76,20.68,1.59,23.18.9,43.91-.21,6.21-.49,9.93-.68,13.23-.08,1.34-.38,4.75-.45,5.33-.47,3.73-.53,11.37-1.14,15.07-.85,5.95-2.43,7.28-3.79,13.14-.54,3-1.06,6.57-1.3,9.61a15.56,15.56,0,0,0,.24,5.89,4.49,4.49,0,0,0,.94,1.81,2.33,2.33,0,0,0,1.77.78,4.42,4.42,0,0,0,1.45-.32c.17-.05.73-.44.91-.38.15-.19.17-.5.36-.64a9.32,9.32,0,0,1,3.15-1.5c5.49-2.74,11.88-2.87,18-1.38,5.35.4,6.64,4,11.07,7,1.87,0,5.8-1.71,7-3.22.38-.46,2-3.22,2.48-3.44C252.63,504,252.63,503.23,252.63,502.52Z"/><path class="cls-12" d="M141.82,271.21s.07.17-.25,1.07c-2.9,8-10,27.13-10,27.13s-2.09-.43-3.14-.79c-11-3.82-24.63-12.27-31.73-21.65-.28-.38,1-2.25,2.13-4.7,4.24-5.39,2.32-6.1,6.3-11.49,1.22-1.65,1.83-.57,3.4.58a12.81,12.81,0,0,0,2.36,1l2.36,1c1.43.6,2.3,1.86,3.78,2.27,1.71.46,3.21,1.34,4.94,1.7,3.47.73,7,2.35,10.53,2.65C133.67,270.13,141.82,271.21,141.82,271.21Z"/><path class="cls-12" d="M184.05,274.1s-5.69,6.78-9.22,9.68a32.73,32.73,0,0,0-2.91,2.82c-.82.94-3.51,3.43-3.56,3.44-5.73,4.2-13.06,11-13.06,11a19.07,19.07,0,0,1-2.19-6.71c-1.11-7.91-3.62-13.82-5.65-21.54-.36-1.36-.37-2.25,1.36-2.53a35.56,35.56,0,0,1,4.64-1.41c8.89-2.06,15.39-3.59,22.22-9.51.36,0,.83-.49,1.19-.49,3.28,4,3.16,5,4.89,9.77A46.69,46.69,0,0,0,184.05,274.1Z"/></g><g id="newdad_torso_neutral_shading_light"><path class="cls-14" d="M182.32,276.72c-5.23,6.44-9.58,8.73-10.92,11.16s3.42-2.7,16.18.56,16,1.72,26.12,6.59,13.17,14.59,16,22.35c3.15,8.67,8.23,34.59,8.53,40.67s3.2,49.51,3.41,68.58a208.72,208.72,0,0,0,3.84,40.15c2.05,11.38,3.27,24,3.5,24.44,2.36,4.62.93-23.11,0-37-.55-8.19.58-26.38-.35-41.1-.75-11.87-4.1-53.63-4.94-60.08s-4.49-25.49-6.86-40.1c-1.28-7.91-2.74-24.77-11.6-26.91l-40.06-9.71-1.06-1.41"/></g><g id="newdad_torso_armsbehind_outline"><path class="cls-10" d="M105.85,260c-3.74,5.09-5.64,11.2-9.08,16.48.15-3.05,2.32-6,3.82-8.64s3.14-5.83,5.26-7.84Z"/><path class="cls-10" d="M141.8,271.34c-2.79,9-6.35,18.1-9.87,26.68.52-4.78,2.6-9.16,4.45-13.53s3.62-9,5.42-13.15Z"/><path class="cls-10" d="M146.86,270.84c2.18,7.21,4.53,15.35,6,22.74.25,1.1.42,2.78.77,3.83.43,1.22,1,2.42,1.49,3.61l-.09.05a55.86,55.86,0,0,1-4.81-14.92c-1-5.08-2.47-10.41-3.38-15.31Z"/><path class="cls-10" d="M184.63,273.79c-9.15,9.67-17.78,20.29-29.27,27.31l-.06-.08c5.11-4.31,10.09-8.69,15-13.22s9.56-9.68,14.32-14Z"/><path class="cls-10" d="M176.7,258.59c2,1.82,3.35,5.62,4.67,8,1.32,2.72,2.93,5.69,3.49,8.54-3.69-4.93-5-11.5-8.16-16.49Z"/><path class="cls-10" d="M145.61,270.83c3.49-.25,6.63-2.22,10-3a83.58,83.58,0,0,0,19.21-8.05,3.67,3.67,0,0,0,1.24-1,.38.38,0,0,0,.09.36c.23.17.13.07.12.09l-.53-.15a23.61,23.61,0,0,0-7.27-.84.54.54,0,0,0,.2.15l0,.09c-1.23-.56,1.65-.69,2-.7a20.5,20.5,0,0,1,5.62.57c1.37.24.27,1.35-.38,1.83a42.49,42.49,0,0,1-10.06,5c-4.11,1.51-8.38,2.68-12.59,3.83-2.51.69-4.94,1.95-7.61,1.95v-.1Z"/><path class="cls-10" d="M143.32,271.14A65.38,65.38,0,0,1,106.75,261a9.4,9.4,0,0,1-1-.73.49.49,0,0,1-.15-.39.5.5,0,0,1,.27-.43,4.67,4.67,0,0,1,2-.07c2.53.33,5.07.38,7.63.63v.1c-3,.23-6.33.06-9.15.09a.34.34,0,0,0,.16-.28.33.33,0,0,0-.07-.23c.06,0,.76.45.89.52a71.49,71.49,0,0,0,36.07,10.93Z"/><path class="cls-10" d="M97,274.31C90.85,276,63.08,284,57.68,285.43c-5.06,1.56-10.9,2.4-14.57,6.54A24.09,24.09,0,0,0,39,298.9c-4.28,10-6.12,20.85-7.15,31.65-1.52,16.26-1.82,32.67-4.42,48.82-2,10.71-3.91,21.41-5.11,32.24-2.42,16.19-2.62,32.5-3.54,48.83-.44,5.42-.41,11-1.77,16.28A32.13,32.13,0,0,1,13.34,484a3.74,3.74,0,0,0-.57,1.85c.33,2,3,2.56,4.65,3.28l0,.09c-6.87-2.12-5.34-3.73-2.4-9,3.13-6.08,2.54-13.24,3.15-19.89.6-10.87.82-21.75,1.48-32.65a469.56,469.56,0,0,1,6.84-48.54c2.69-16.11,3.16-32.48,4.73-48.73,1.08-10.84,3-21.73,7.34-31.79a24.49,24.49,0,0,1,4.23-7c3.77-4.2,9.68-5,14.82-6.58C63,283.65,91.2,275.64,97,274.31Z"/><path class="cls-10" d="M184.43,275.42l34,7.53c4,1.09,9.12,1.26,12.19,4.4a9.81,9.81,0,0,1,2.06,3.87c1.48,5.63,2.74,11.28,3.92,17,6,28.4,8.59,57.36,11.23,86.22a183,183,0,0,1,.92,34.79c-1,11.6.61,23.14.91,34.71.69,12.25.72,24.69,3.2,36.74,1.07,5.32-3.76,10-8.72,10.83l0-.09c4.16-.85,8.13-4.16,8.49-8.55a14.14,14.14,0,0,0-.63-4.23c-.57-2.86-.95-5.74-1.24-8.63-.9-8.66-1.32-17.35-1.77-26-.36-11.61-2-23.18-1.22-34.79a189.26,189.26,0,0,0-.85-34.65c-2.43-28.87-4.94-57.8-10.77-86.22-1.14-5.67-2.38-11.35-3.81-16.95a9.6,9.6,0,0,0-2-3.74c-3-3.09-8.08-3.25-12-4.36,0,0-34.17-7.63-33.9-7.81Z"/><path class="cls-10" d="M131.58,299.46c-12.86-2.66-27.13-12-35-22.46l.08-.06c9.89,9.72,21.47,18.91,34.92,22.52Z"/><path class="cls-10" d="M96.71,276.4c.57-1.46,1.18-2.91,1.85-4.33s1.45-2.79,2.16-4.19,1.4-2.81,2.23-4.15a23.31,23.31,0,0,1,2.82-3.79h0a0,0,0,0,1,0,0c-.86,1.32-1.68,2.64-2.43,4l-2.31,4.09c-.76,1.38-1.58,2.71-2.3,4.1s-1.39,2.81-2,4.25c0,0,0,0,0,0A0,0,0,0,1,96.71,276.4Z"/><path class="cls-10" d="M105.83,260c-2.23,2.24-3.55,5.16-5.15,7.85-.76,1.38-1.62,2.71-2.33,4.1a11.24,11.24,0,0,0-1.37,4.4v.08l-.37-.12a88.48,88.48,0,0,0,4.34-8.24,44.59,44.59,0,0,1,4.86-8.1s0,0,0,0,0,0,0,.06a63.39,63.39,0,0,0-4.45,8.28,64.92,64.92,0,0,1-4.45,8.25l-.45.67.08-.79v-.09a11.52,11.52,0,0,1,1.5-4.51c.74-1.4,1.62-2.71,2.41-4.07,1.64-2.66,3-5.57,5.3-7.78,0,0,0,0,.06,0S105.85,260,105.83,260Z"/><path class="cls-10" d="M132,298A45.89,45.89,0,0,1,134,291.2c.82-2.22,1.67-4.43,2.52-6.63l2.55-6.62,2.61-6.6a.05.05,0,0,1,0,0,.07.07,0,0,1,0,.05c-.6,2.29-1.39,4.53-2.19,6.76s-1.74,4.4-2.65,6.58-1.81,4.37-2.68,6.57A44.4,44.4,0,0,0,132,298s0,0,0,0S132,298,132,298Z"/><path class="cls-10" d="M141.79,271.42c-1.86,4.36-3.43,8.83-5.33,13.17s-3.84,8.72-4.33,13.42v0l-.39-.09c1.77-4.39,3.47-8.79,5.17-13.2s3.3-8.87,4.85-13.35c0,0,0-.07.05-.06s0,0,0,.08c-1.28,4.56-2.81,9.05-4.44,13.5s-3.44,8.82-5.26,13.18l-.59,1.41.21-1.51v0c.57-4.78,2.65-9.14,4.52-13.47s3.58-8.76,5.5-13.1c0,0,0-.07.05-.06S141.81,271.38,141.79,271.42Z"/><path class="cls-10" d="M155.05,301c-.57-1.18-1.13-2.35-1.6-3.57s-.72-2.51-1.06-3.77l-1.91-7.59-1.89-7.58c-.6-2.54-1.19-5.07-1.79-7.61,0,0,0,0,0,0s0,0,0,0c.84,2.47,1.54,5,2.22,7.5s1.22,5.07,1.8,7.61l1.74,7.62c.31,1.26.58,2.55,1,3.78s1,2.41,1.52,3.59c0,0,0,.05,0,.05S155.06,301,155.05,301Z"/><path class="cls-10" d="M146.9,270.92c1,5.12,2.46,10.15,3.46,15.27A55.65,55.65,0,0,0,155.23,301l-.27-.08h0l.07,0-.09.26-1.52-3.61c-.41-1.29-.52-2.59-.79-3.84-.54-2.54-1.13-5.07-1.75-7.59-1.24-5.07-2.66-10.09-4-15.13,0-.05,0-.09,0-.09s0,0,0,.07q2.47,7.44,4.48,15c.65,2.51,1.23,5.06,1.74,7.61.27,1.28.37,2.59.74,3.8l1.45,3.59.08.18-.17.08-.07,0h0l-.18.08-.09-.17a56.4,56.4,0,0,1-4.73-14.92c-.94-5.13-2.34-10.17-3.28-15.31,0-.05,0-.09,0-.09S146.9,270.87,146.9,270.92Z"/><path class="cls-10" d="M155.36,301a134,134,0,0,0,15.09-13.07c2.37-2.33,4.66-4.75,7-7.11s4.68-4.75,7.09-7.06c0,0,.05,0,.06,0l0,.05c-2.21,2.5-4.48,4.94-6.77,7.36s-4.67,4.76-7.08,7.06a134.1,134.1,0,0,1-15.34,12.82s0,0-.06,0S155.34,301,155.36,301Z"/><path class="cls-10" d="M184.56,273.88c-4.91,4.53-9.33,9.54-14.25,14.07l-7.48,6.65-3.75,3.32-1.63,1.46c-.15.15-.34.28-.38.37l.49-.32,1.85-1.3,2-1.51,1.94-1.57c2.55-2.14,5-4.42,7.35-6.77,4.74-4.68,9.17-9.68,13.86-14.43,0-.05.09-.07.09-.06s0,0,0,.09c-4.48,4.95-8.86,10-13.55,14.76-2.35,2.37-4.8,4.66-7.38,6.79l-2,1.56-2,1.5L157.41,300l-2.19,1.17c-.11-.06-.07-.11,0-.14l.06-.11.14-.23c0-.05,0-.05.11-.14l.42-.36.82-.72,2.12-1.86,3.77-3.29,7.54-6.58c4.94-4.48,9.42-9.45,14.37-13.93.05-.05.09-.07.1-.06S184.61,273.84,184.56,273.88Z"/><path class="cls-10" d="M184.87,275.05c-1.43-2.72-2.74-5.49-4.06-8.25-.66-1.39-1.35-2.75-2-4.14a16.1,16.1,0,0,0-2.17-4,0,0,0,0,1,0,0h0a6.58,6.58,0,0,1,1.49,1.78c.38.67.73,1.35,1.09,2,.69,1.37,1.28,2.79,1.89,4.19,1.22,2.81,2.42,5.63,3.74,8.39,0,0,0,0,0,0A0,0,0,0,1,184.87,275.05Z"/><path class="cls-10" d="M176.75,258.62c3.32,5.18,4.56,11.46,8.27,16.34l-.36.16v0c-.64-3-2.21-5.66-3.51-8.42-.72-1.36-1.32-2.79-2-4.16a15.33,15.33,0,0,0-2.43-3.86s0,0,0-.05,0,0,.05,0a13.32,13.32,0,0,1,2.71,3.73c.74,1.36,1.37,2.76,2.13,4.09A34.89,34.89,0,0,1,185,275v0l.19.91-.54-.75c-3.69-5.06-4.77-11.32-8-16.55,0,0,0,0,0-.06S176.73,258.6,176.75,258.62Z"/><path class="cls-10" d="M168.58,258.42c-.07,0-.17-.06-.21-.17s.14-.13.21-.17a4.67,4.67,0,0,1,.52-.08c.35,0,.69,0,1,0,.7,0,1.39,0,2.08.05a20.56,20.56,0,0,1,2.07.27c.7.13,1.31.23,2.09.43.06,0,.16,0,.18.12a.32.32,0,0,1-.06.23,1.85,1.85,0,0,1-.29.35,3.41,3.41,0,0,1-.61.53l-1.34.85c-.91.55-1.83,1.07-2.76,1.55a59.64,59.64,0,0,1-5.77,2.61,103.62,103.62,0,0,1-9.95,3.32c-1.69.47-3.36.92-5,1.52a15,15,0,0,1-5.12,1.12s0,0,0,0l0,0a17.48,17.48,0,0,0,5-1.39c1.62-.67,3.32-1.17,5-1.68,3.33-1,6.68-2,9.94-3.21a60.32,60.32,0,0,0,5.78-2.5c.94-.47,1.87-1,2.77-1.5l1.35-.82a3.34,3.34,0,0,0,.59-.49,1.76,1.76,0,0,0,.21-.24s.06-.07.05-.11-.06,0-.1-.06c-.56-.15-1.31-.3-2-.43s-1.36-.25-2-.31-1.38-.07-2.07-.08c-.34,0-.69,0-1,0a2.85,2.85,0,0,0-.51.07c-.07,0-.19.05-.18.1s.11.1.18.14.05,0,.05.05S168.61,258.44,168.58,258.42Z"/><path class="cls-10" d="M145.63,270.91a16.16,16.16,0,0,0,5.15-1.19c1.66-.62,3.39-1.05,5.09-1.54,3.41-1,6.81-2,10.13-3.22a42.89,42.89,0,0,0,9.47-4.7,4.14,4.14,0,0,0,1-.84,1.44,1.44,0,0,0,.29-.5c0-.16,0-.25-.22-.33a20.35,20.35,0,0,0-2.56-.49,16.6,16.6,0,0,0-5.22.08l-.17.06-.05,0a.09.09,0,0,0-.09,0c.06,0,.06-.05.1-.05l0,0,.15.09-.27.1,0-.09.1.26a.47.47,0,0,1-.14-.08l-.06,0,0,0,0,0,0,0,0-.06a.23.23,0,0,1,.1-.24l0,0h0a24.18,24.18,0,0,1,7.89,1l-.25.06c.21-.14.24-.05.27-.06l.06,0,0,0h0s0-.08.07.17a.27.27,0,0,1-.12.21l-.07,0a.53.53,0,0,1-.14,0l0,0-.07,0-.09-.07h0v0l0,0v0h0l-.13.12-.3.23c-.2.14-.42.26-.62.38l-1.22.72c-.82.46-1.65.92-2.5,1.34-1.69.86-3.41,1.64-5.16,2.36-3.3,1.33-6.67,2.45-10.09,3.46-3.43.77-6.59,2.71-10.19,3-.06,0-.12,0-.11,0a.18.18,0,0,1,.11,0c3.55-.39,6.63-2.4,10.1-3.25,3.37-1.06,6.73-2.22,10-3.58,1.73-.73,3.44-1.51,5.12-2.36.83-.42,1.66-.87,2.48-1.33l1.22-.71c.21-.12.4-.22.59-.35l.26-.2.13-.11a2,2,0,0,0,.24-.27c.18.1.23.11.22.12l.21.15s.05.06,0,.06l0,0,.08.06,0,0s0,.06-.05.1a.3.3,0,0,0,0,.1s-.06.06-.06.08,0-.07,0-.07l-.07.23a23.82,23.82,0,0,0-7.71-1l0-.2a.21.21,0,0,0,.08-.06s.09-.09.08-.07h0l0,0a.13.13,0,0,0,.07,0l.18.09-.08.18,0,.09-.09.21-.18-.1-.22-.13a.41.41,0,0,1-.19-.37.48.48,0,0,1,.26-.28,1.27,1.27,0,0,1,.23-.08,16.75,16.75,0,0,1,5.38-.05,20,20,0,0,1,2.65.53.74.74,0,0,1,.33.26.59.59,0,0,1,.07.44,1.53,1.53,0,0,1-.36.65,4.55,4.55,0,0,1-1,.88,43,43,0,0,1-9.57,4.66c-3.34,1.22-6.75,2.21-10.17,3.14-1.72.48-3.44.89-5.1,1.5a16,16,0,0,1-5.18,1.15h0v0c0-.07,0-.11,0-.11s0,0,0,.1l0,0Z"/><path class="cls-10" d="M115.35,260.09c-2,0-4.08,0-6.12-.11-.51-.05-1-.1-1.52-.13l-.76,0a3.53,3.53,0,0,0-.64,0c-.09,0-.18.09-.08.15l.29.18.62.39c.42.25.81.51,1.25.76a70.1,70.1,0,0,0,11,5.21,78.44,78.44,0,0,0,11.73,3.25,69.41,69.41,0,0,0,12.12,1.26s.07,0,.06,0,0,0-.06,0a54.36,54.36,0,0,1-12.21-.82,66.83,66.83,0,0,1-11.78-3.36,70.87,70.87,0,0,1-11-5.4c-.44-.26-.89-.57-1.33-.85l-.67-.43A1.78,1.78,0,0,1,106,260a.18.18,0,0,1,0-.19.4.4,0,0,1,.18-.1,1.83,1.83,0,0,1,.46-.07H107l.77,0c.51,0,1,.09,1.52.15,2,.1,4.07.13,6.11.2,0,0,.07,0,.07,0S115.39,260.09,115.35,260.09Z"/><path class="cls-10" d="M143.18,271.16a72.21,72.21,0,0,1-36.87-11.32l0-.15,0,0s.1-.08.1-.07h0l0,0,0,.05a.23.23,0,0,1,0,.11.37.37,0,0,1,0,.21.49.49,0,0,1-.24.35l-.07-.31c3,0,6.11.11,9.13-.12l-.18.19V260l.18.2-.69-.06c-2-.17-4.11-.23-6.18-.45l-.76-.09-.77-.06a2.87,2.87,0,0,0-.72,0,1.78,1.78,0,0,0-.33.09s-.12.08-.14.13a.33.33,0,0,0,.17.4,5.91,5.91,0,0,0,.61.42c.45.3.88.54,1.32.81A64.77,64.77,0,0,0,119,266.8a67.42,67.42,0,0,0,24.2,4.31l.13,0-.13,0a63.73,63.73,0,0,1-24.37-3.89,60.68,60.68,0,0,1-11.17-5.43c-.44-.28-.9-.54-1.32-.83a6,6,0,0,1-.66-.45.81.81,0,0,1-.29-1,.7.7,0,0,1,.41-.38,1.85,1.85,0,0,1,.42-.11,3.78,3.78,0,0,1,.82,0c.27,0,.51.06.77.06l.78.1c2,.24,4.1.32,6.17.5l.69.07.18,0v.46h-.18c-3.06.21-6.12,0-9.16.06l-.07-.32a.24.24,0,0,0,.06-.12.11.11,0,0,0,0-.08,0,0,0,0,0,0,0h0a.08.08,0,0,1,0,0,.07.07,0,0,1,0-.05.17.17,0,0,1,.13-.15h.09a75.69,75.69,0,0,0,17.6,8.3,69.61,69.61,0,0,0,19.16,3.28.22.22,0,0,1,.14,0A.33.33,0,0,1,143.18,271.16Z"/><path class="cls-10" d="M17.05,489.11a11.77,11.77,0,0,1-3.65-1.77,2.05,2.05,0,0,1-.81-1.81,5.34,5.34,0,0,1,.72-1.9c.66-1.19,1.4-2.33,2-3.55a19.46,19.46,0,0,0,1.49-3.77,51.59,51.59,0,0,0,1.08-8.05q.32-4.06.52-8.13c.61-10.84.84-21.7,1.53-32.55,1.11-10.8,2.34-21.59,3.95-32.34.41-2.69.92-5.36,1.45-8s1-5.34,1.44-8c.89-5.36,1.52-10.75,2-16.16s.86-10.82,1.27-16.23.73-10.84,1.24-16.25a151.59,151.59,0,0,1,2.36-16.14,84.73,84.73,0,0,1,4.85-15.58,25.08,25.08,0,0,1,4.15-7.05,14.31,14.31,0,0,1,3.16-2.65,20.33,20.33,0,0,1,3.73-1.73c2.59-.91,5.23-1.54,7.84-2.29L65.21,283l31.41-8.63a1.19,1.19,0,0,1,.34-.07,1.42,1.42,0,0,1-.32.12L65.3,283.3l-7.84,2.21c-2.6.76-5.25,1.41-7.79,2.32A15.25,15.25,0,0,0,43,292.11a24.56,24.56,0,0,0-4,6.94,85.23,85.23,0,0,0-4.8,15.49,152.53,152.53,0,0,0-2.37,16.07c-.53,5.4-.89,10.82-1.3,16.24s-.84,10.83-1.31,16.24-1.13,10.81-2,16.17c-.44,2.68-.94,5.35-1.46,8s-1.06,5.32-1.47,8c-1.64,10.73-2.9,21.52-4,32.31-.71,10.83-1,21.7-1.61,32.54q-.23,4.07-.54,8.13a51,51,0,0,1-1.11,8.07,19.88,19.88,0,0,1-1.51,3.78c-.61,1.22-1.35,2.36-2,3.54a5.37,5.37,0,0,0-.71,1.88,2,2,0,0,0,.78,1.75,11.78,11.78,0,0,0,3.63,1.77,1.48,1.48,0,0,1,.34.15A1.37,1.37,0,0,1,17.05,489.11Z"/><path class="cls-10" d="M96.26,274.51c-10.52,2.71-21,5.72-31.42,8.62L57,285.31c-2.61.75-5.27,1.34-7.8,2.3A15.74,15.74,0,0,0,42.5,292a25.82,25.82,0,0,0-4,7c-4.27,10-6.14,20.84-7.2,31.62s-1.58,21.66-2.63,32.47c-.52,5.41-1.18,10.81-2.07,16.17s-2,10.67-2.83,16c-1.68,10.73-2.94,21.52-3.94,32.33-.66,10.83-.87,21.69-1.46,32.55-.49,5.38-.2,10.9-1.66,16.21a20.19,20.19,0,0,1-1.47,3.83c-.64,1.21-1.37,2.36-1.94,3.57a4.74,4.74,0,0,0-.55,1.86,2,2,0,0,0,.82,1.59A11.78,11.78,0,0,0,17.14,489l.31.1-.25.13h0s0,.06.11.18.21,0,.23,0l0,0-.24,0a15.16,15.16,0,0,1-3.71-1.72,2.6,2.6,0,0,1-1.07-1.86,4.4,4.4,0,0,1,.7-2,30.75,30.75,0,0,0,3.58-7.19c1.32-5.23,1.29-10.69,1.72-16.08.6-10.8.89-21.63,1.72-32.43.4-5.4,1-10.8,1.75-16.16q.91-8.06,2.23-16.09c.86-5.34,1.83-10.67,2.83-16s1.5-10.7,2-16.08c1-10.81,1.49-21.67,2.49-32.49s2.79-21.68,7-31.75a26.83,26.83,0,0,1,4-7.13,15.59,15.59,0,0,1,6.73-4.57c2.55-1,5.21-1.56,7.81-2.33l7.84-2.21,31.38-8.79a5.05,5.05,0,0,1,.66-.16s-.31.11-.65.21l-31.32,9-7.83,2.24c-2.61.78-5.26,1.38-7.79,2.36a15.24,15.24,0,0,0-6.58,4.49,26.58,26.58,0,0,0-3.9,7.06c-4.16,10-5.91,20.88-6.89,31.66S30.57,353,29.59,363.78c-.49,5.39-1.1,10.78-2,16.13s-2,10.65-2.83,16S23.15,406.59,22.53,412c-.78,5.36-1.35,10.73-1.76,16.13-.84,10.78-1.14,21.6-1.76,32.42-.44,5.38-.41,10.85-1.76,16.16A31,31,0,0,1,13.62,484a4,4,0,0,0-.65,1.79,2.29,2.29,0,0,0,.91,1.54A16,16,0,0,0,17.5,489l-.23,0s0,0,0,0,0-.07.22,0,.08.21.09.23l0,.06,0,.19-.2-.06-.31-.11a11.69,11.69,0,0,1-3.74-1.74,2.35,2.35,0,0,1-1-1.9,5.31,5.31,0,0,1,.58-2c.59-1.24,1.32-2.39,2-3.57a21.17,21.17,0,0,0,1.45-3.76c1.45-5.23,1.16-10.74,1.67-16.14.6-10.83.82-21.7,1.49-32.55,1-10.82,2.3-21.61,4-32.34q1.26-8.06,2.85-16c.89-5.35,1.56-10.75,2.09-16.15,1.06-10.8,1.62-21.66,2.67-32.47S34,309,38.33,299a25.91,25.91,0,0,1,4.07-7,16,16,0,0,1,6.75-4.46c2.54-1,5.21-1.54,7.81-2.29L64.81,283c10.48-2.89,20.92-5.88,31.44-8.58a4.33,4.33,0,0,1,.72-.15A5.29,5.29,0,0,1,96.26,274.51Z"/><path class="cls-10" d="M244.46,511.32a11.32,11.32,0,0,0,7-4.77,8.09,8.09,0,0,0,1.3-4.06,17.79,17.79,0,0,0-.69-4.26A163.12,163.12,0,0,1,250.14,481c-.4-5.77-.69-11.54-1-17.32s-.51-11.55-1-17.31a114.19,114.19,0,0,1-.1-17.35c.15-2.89.3-5.77.36-8.66s.07-5.78,0-8.66c-.1-5.78-.71-11.53-1.31-17.28s-1-11.53-1.57-17.28c-2.09-23-4.83-46-9.45-68.68-1.14-5.66-2.39-11.32-3.8-16.9a10.23,10.23,0,0,0-1.87-3.78,8.54,8.54,0,0,0-3.5-2.32,30.19,30.19,0,0,0-4.14-1.17l-4.23-1-33.81-7.75a1,1,0,0,1-.35-.11l.36.06L218.66,283l4.23.94a31.28,31.28,0,0,1,4.21,1.16,8.9,8.9,0,0,1,3.66,2.42,10.55,10.55,0,0,1,2,3.93c1.45,5.62,2.71,11.25,3.88,16.92,4.69,22.68,7.32,45.71,9.36,68.74.53,5.76.95,11.53,1.53,17.28s1.18,11.52,1.26,17.31q.08,4.33,0,8.68c-.08,2.89-.24,5.78-.39,8.67a115,115,0,0,0,.05,17.31c.47,5.77.67,11.55.95,17.32s.54,11.55.92,17.32a163.33,163.33,0,0,0,1.85,17.24l.47,2.11a7.85,7.85,0,0,1,.21,2.16,8.13,8.13,0,0,1-1.32,4.1,11.27,11.27,0,0,1-7,4.77,1.77,1.77,0,0,1-.39.08A1.3,1.3,0,0,1,244.46,511.32Z"/><path class="cls-10" d="M185.18,275.62c11,2.69,22.09,5,33.18,7.65l0-.08c2.44.67,5,1,7.39,1.73a12.75,12.75,0,0,1,3.44,1.62,8.22,8.22,0,0,1,1.42,1.28,8,8,0,0,1,1,1.61,12.37,12.37,0,0,1,.69,1.78c.16.61.28,1.23.43,1.85l.83,3.7,1.67,7.42c2.26,9.87,3.92,19.87,5.39,29.89,2.9,20.06,4.65,40.26,6.37,60.43a191.17,191.17,0,0,1,1.1,30.35c-.1,2.54-.32,5.06-.4,7.59s-.06,5.05,0,7.58c.17,5.06.57,10.11.92,15.16.62,10.12.94,20.24,1.83,30.32a101,101,0,0,0,2.11,15,8.23,8.23,0,0,1-1.91,7.24,11.76,11.76,0,0,1-6.54,3.83l.15-.23v.08s.05.08-.15.2-.19-.08-.21-.07h0l.16-.27.39-.09a11,11,0,0,0,6.89-4.63,8.22,8.22,0,0,0,1.4-3.94,18.32,18.32,0,0,0-.58-4.23,149.61,149.61,0,0,1-1.92-17.26c-.36-5.78-.55-11.56-.87-17.33-.16-5.78-.63-11.54-.94-17.32a125.87,125.87,0,0,1,0-17.37q.56-8.64.36-17.32c-.15-5.77-.56-11.53-1.28-17.27L246,377.25c-2.18-23-4.77-46-9.49-68.68l-3.87-16.9a10,10,0,0,0-1.79-3.85,9,9,0,0,0-3.45-2.45c-2.65-1.14-5.56-1.46-8.37-2.15l-33.85-7.62a3.67,3.67,0,0,1-.7-.19l.71.14L219,283c2.79.67,5.71,1,8.41,2.12a9.53,9.53,0,0,1,3.57,2.52,10.49,10.49,0,0,1,1.85,3.94l3.94,16.91c4.78,22.66,7.41,45.7,9.63,68.71l1.62,17.27a172.83,172.83,0,0,1,1.28,17.32q.21,8.68-.37,17.37a126.42,126.42,0,0,0,0,17.3c.3,5.77.77,11.54.92,17.33.31,5.77.5,11.55.84,17.32a150.2,150.2,0,0,0,1.9,17.21l.41,2.13c.06.35.1.73.15,1.09s0,.75,0,1.12a8.78,8.78,0,0,1-1.46,4.14,11.58,11.58,0,0,1-7.16,4.8l-.41.08,0-.2,0-.09,0-.2h0a11.35,11.35,0,0,0,6.33-3.7,7.86,7.86,0,0,0,1.83-6.9,100.69,100.69,0,0,1-2.1-15.06c-.88-10.09-1.19-20.23-1.79-30.33-.34-5.05-.74-10.1-.9-15.17-.08-2.53-.1-5.07,0-7.6s.3-5.06.41-7.59a189.48,189.48,0,0,0-1.07-30.31c-1.69-20.19-3.42-40.38-6.28-60.43-1.46-10-3.12-20-5.35-29.9l-1.67-7.41-.83-3.7c-.14-.62-.26-1.24-.42-1.85a13.91,13.91,0,0,0-.68-1.76,7.52,7.52,0,0,0-1-1.59,7.92,7.92,0,0,0-1.39-1.26A12.26,12.26,0,0,0,225.7,285c-2.41-.77-4.94-1.06-7.38-1.74v0c-5.54-1.17-11.07-2.47-16.6-3.71s-11.06-2.49-16.56-3.85a2.31,2.31,0,0,1-.74-.25l.22.06Z"/><path class="cls-10" d="M96.68,277a70.26,70.26,0,0,0,7.5,7.34,85.88,85.88,0,0,0,8.41,6.28,79.32,79.32,0,0,0,9.13,5.13,51.62,51.62,0,0,0,9.82,3.62s.05,0,.05,0,0,0-.06,0a40.71,40.71,0,0,1-10-3.22,62.18,62.18,0,0,1-9.14-5.25,86.91,86.91,0,0,1-8.34-6.44A71.49,71.49,0,0,1,96.64,277s0,0,0-.06S96.65,277,96.68,277Z"/><path class="cls-10" d="M131.46,299.45a62.53,62.53,0,0,1-18.86-8.95,119.31,119.31,0,0,1-16.08-13.42h.26l0,0v-.23l.08.11a62.89,62.89,0,0,0,15.53,14,61.49,61.49,0,0,0,19.12,8.45c.07,0,.12,0,.11,0a.22.22,0,0,1-.12,0,57.06,57.06,0,0,1-19.38-8.08A60.57,60.57,0,0,1,96.5,277.23l-.08-.11-.1-.13.09-.1.12-.11.14-.11.13.12a118,118,0,0,0,15.93,13.52,62.26,62.26,0,0,0,18.74,9.09.24.24,0,0,1,.11.06A.17.17,0,0,1,131.46,299.45Z"/></g></g><g id="mouth_neutral4"><g id="lip_colour" data-name="lip colour"><path class="cls-15" d="M126.45,180.89a13.78,13.78,0,0,0,4.18,4.87c2.05,1.27,6.88,2.26,9.81,2.47s10.87-.24,13-1.28,4.5-4.11,5.34-5.78c.35-.71,4.34-.06,3.11-1-1.79-1.3-8-5.12-9.8-5.3a49,49,0,0,0-9.78.24c-4.43.48-6.47-.6-8.6.09a43,43,0,0,0-9.09,4.94C123.74,181,126.45,180.89,126.45,180.89Z"/></g><g id="outine"><path class="cls-10" d="M165.23,180.38a6.33,6.33,0,0,1-2.83.47,22.64,22.64,0,0,0-2.85.12,8,8,0,0,0-2.79.18,25.87,25.87,0,0,1-5.66,1.09c-4.46.14-9.85-.35-14.3-.2-5.54,0-11.61-1.13-17.13-1.13v-.1c5.68-.76,11.46.08,17.14.24,3.31,0,8.09.38,11.44.56a22.18,22.18,0,0,0,5.64-.25c1.89-.31,3.75-1,5.66-.69,1.8-.23,3.93.33,5.63-.37l.06.08Z"/><path class="cls-10" d="M123.55,180.29c3.55-.42,5.82-3.6,8.85-5.15,1.65-.73,3.52-.46,5.23-.29,3.5.49,6.79-.76,10.27-.86a15.63,15.63,0,0,1,5.28.75c3.24,1.53,5.69,3.9,8.82,5.56l-.05.09a31.07,31.07,0,0,1-4.66-2.31,31,31,0,0,0-4.46-2.43,20.34,20.34,0,0,0-7.46-.55,29.74,29.74,0,0,1-10.35.08c-3.61-.2-5.86,3.21-9,4.51a6.08,6.08,0,0,1-2.5.7v-.1Z"/><path class="cls-10" d="M158.79,181.17c-.49,1.92-2,3.45-3.42,4.76-6.42,3.88-14.81,3.72-21.89,1.93a9,9,0,0,1-4-2.7,22,22,0,0,1-2.84-3.77l.08-.06c2,2.2,4.13,4.85,7,5.62,7,1.51,14.94,2.31,21.45-1.33a10.33,10.33,0,0,0,3.52-4.45Z"/></g></g><g id="eyes_neutral7"><g id="white"><path class="cls-16" d="M103.18,116.14c-4.6,1.71-8,1.58-9.18,3s-1.11,6.24-.75,8.14,7.74,4.59,11.37,5.77,9.36.5,12.61.2,6.65-.64,8-1.42,3.4-.3,3.92-2.59a25.92,25.92,0,0,0-.43-9.23c-.58-1.9-1.95-5.31-6.27-5Z"/><path class="cls-16" d="M162.49,116c-4.67,1.94-8.3,1-9.42,2.49s-1.06,8.39-.63,10.36,5.8,2.82,9.56,3.94,12,1,15.34.63,6-.69,7.35-1.56,3.69-2.21,4.15-4.61.67-6,0-8-2.18-5.48-6.62-5.08Z"/></g><g id="iris"><path class="cls-17" d="M106.94,116.42c-4.13,1.17-5.21,7-4.15,9.31A7.89,7.89,0,0,0,110,130c3.17-.16,5.69-.52,7.46-1.77,1.58-1.12,2.78-4.64,2.27-6.34s-2.18-4.81-3.31-5.41S110.44,115.43,106.94,116.42Z"/><path class="cls-17" d="M166.87,116.63c-4.21,1.35-5.67,7.84-4.5,10.18s4.79,4.55,8.15,4.27,6.91-1.77,7.81-3.81,2.09-3.25,1.51-5-2-5.26-3.21-5.85S170.43,115.49,166.87,116.63Z"/></g><g id="iris_outline"><path class="cls-10" d="M110.79,122.34s0,0,.07,0,0,0,0,.07v1.74l0,1.85c0,.62,0,1.23-.08,1.84a12,12,0,0,1-.37,1.82h0a12.87,12.87,0,0,1-.08-1.86c0-.61.12-1.23.18-1.84l.36-3.55h0S110.79,122.35,110.79,122.34Z"/><path class="cls-10" d="M111.63,123.15l1,1.36c.33.44.64.91,1,1.34s.75.81,1.07,1.28a5.78,5.78,0,0,1,.8,1.49s0,0,0,0h0c-.41-.4-.77-.81-1.15-1.21a13.46,13.46,0,0,1-1-1.35c-.31-.48-.57-1-.85-1.46l-.83-1.45s0,0,0,0Z"/><path class="cls-10" d="M112.41,122.55h-.09l0-.06a32.27,32.27,0,0,0,3.27,1.12c.55.21,1.12.33,1.68.55a4.41,4.41,0,0,1,1.54,1,0,0,0,0,1,0,0h0c-.56-.2-1.11-.36-1.68-.51a9.72,9.72,0,0,1-1.66-.66,30.62,30.62,0,0,1-3.15-1.44l-.12-.06h.22v0S112.42,122.55,112.41,122.55Z"/><path class="cls-10" d="M111.79,121.78a8.18,8.18,0,0,1,2.25-1.93,13.4,13.4,0,0,1,1.24-.77c.44-.22.85-.46,1.31-.67h0v0a4.18,4.18,0,0,1-1.08,1.06,10.23,10.23,0,0,1-1.3.7,8.08,8.08,0,0,0-2.41,1.61h0A0,0,0,0,1,111.79,121.78Z"/><path class="cls-10" d="M110.83,122.15a2.09,2.09,0,0,1-.09-.78,6.62,6.62,0,0,0,0-.77l-.14-1.55a9.05,9.05,0,0,1-.06-1.56,4.38,4.38,0,0,1,.36-1.55h0c0,.53,0,1,.09,1.54s0,1,0,1.55l0,1.56c0,.51-.14,1,0,1.53,0,0,0,0,0,0Z"/><path class="cls-10" d="M109.39,123.16s0,0,0,0h0s0,0,0,0h0a6.89,6.89,0,0,1-1.32,1.1l-1.41,1c-.5.32-1,.6-1.51.86a6.16,6.16,0,0,0-1.42.92s0,0,0,0a0,0,0,0,1,0,0,3.05,3.05,0,0,1,1.2-1.34,17.45,17.45,0,0,1,1.57-.77l1.48-.84a6.51,6.51,0,0,0,1.4-1h0s0,0,0,0,0,0,0,0v0h0A0,0,0,0,1,109.39,123.16Z"/><path class="cls-10" d="M109.19,122a7.32,7.32,0,0,1-1.37-.69l-1.35-.72c-.44-.26-.93-.42-1.35-.69l-.64-.42a1.82,1.82,0,0,1-.6-.54l0,0h0a4,4,0,0,0,.71.25l.71.29a8,8,0,0,1,1.33.79l1.26.88a7.68,7.68,0,0,0,1.27.83s0,0,0,0A0,0,0,0,1,109.19,122Z"/><path class="cls-10" d="M171,122.29s0-.06.07-.06a.13.13,0,0,1,0,.08l0,.12v.24l0,.48,0,1,0,1.93a17.49,17.49,0,0,1,0,1.92,12.76,12.76,0,0,1-.3,1.92s0,0,0,0,0,0,0,0a11.4,11.4,0,0,1-.14-1.93c0-.65.08-1.29.12-1.93l.25-3.73s0,0,0,0Z"/><path class="cls-10" d="M171.93,123.11l1,1.39c.36.45.69.93,1.06,1.37s.79.83,1.14,1.3a6.28,6.28,0,0,1,.88,1.53,0,0,0,0,1,0,0h0c-.44-.41-.82-.82-1.23-1.24a13.34,13.34,0,0,1-1.07-1.38c-.33-.48-.61-1-.92-1.49l-.91-1.48s0,0,0,0S171.93,123.1,171.93,123.11Z"/><path class="cls-10" d="M172.72,122.45h-.1l0,0a32,32,0,0,0,3.4,1.07c.58.21,1.16.31,1.74.53a4.31,4.31,0,0,1,1.62.93s0,0,0,0,0,0,0,0a15,15,0,0,0-1.74-.5,11.18,11.18,0,0,1-1.73-.62c-1.07-.47-2.24-.81-3.29-1.4l-.11-.06h.21s0,0,0,0Z"/><path class="cls-10" d="M172.05,121.67a8.37,8.37,0,0,1,2.25-2.07,14.76,14.76,0,0,1,1.26-.86l1.31-.75,0,0a0,0,0,0,1,0,0,4.15,4.15,0,0,1-1.08,1.13,9.67,9.67,0,0,1-1.32.77,8.3,8.3,0,0,0-2.42,1.77h0A0,0,0,0,1,172.05,121.67Z"/><path class="cls-10" d="M171.08,122.09a2.11,2.11,0,0,1-.11-.82,7.22,7.22,0,0,0-.08-.8l-.19-1.62a10.84,10.84,0,0,1-.11-1.62,5.06,5.06,0,0,1,.31-1.63h0l0,0c.07.55.09,1.07.14,1.61s0,1.07,0,1.61l0,1.63a14.41,14.41,0,0,0,0,1.61l0,0Z"/><path class="cls-10" d="M169.63,123.19v0s0,0,0,0v0h0a6.77,6.77,0,0,1-1.32,1.19l-1.42,1.08c-.51.35-1,.66-1.53.95a5.88,5.88,0,0,0-1.42,1h0a0,0,0,0,1,0,0,3.06,3.06,0,0,1,1.19-1.42,15.61,15.61,0,0,1,1.59-.87l1.49-.92a7,7,0,0,0,1.41-1l0,0h0s0,0,0,0,0,0,0,0v0h0A0,0,0,0,1,169.63,123.19Z"/><path class="cls-10" d="M169.39,122a6.28,6.28,0,0,1-1.43-.68l-1.41-.71c-.47-.26-1-.41-1.42-.69l-.67-.41a1.77,1.77,0,0,1-.63-.53s0,0,0,0,0,0,0,0a3.49,3.49,0,0,0,.73.25c.26.08.5.19.75.28a9.5,9.5,0,0,1,1.39.78l1.32.88a8.68,8.68,0,0,0,1.34.83v0S169.39,122,169.39,122Z"/><path class="cls-10" d="M107,116.2a14.62,14.62,0,0,0-3.6,4.16,6.19,6.19,0,0,0-.46,5.27,6.53,6.53,0,0,0,3.91,3.56,12,12,0,0,0,5.39.66,9.57,9.57,0,0,0,5-1.76,5.84,5.84,0,0,0,2.22-4.64,8.35,8.35,0,0,0-1.71-5,7.13,7.13,0,0,0-4.5-2.87s-.06,0-.06,0a.06.06,0,0,1,.06,0,7,7,0,0,1,4.77,2.71,8.63,8.63,0,0,1,1.94,5.25,6.15,6.15,0,0,1-2.42,5,9.92,9.92,0,0,1-5.32,1.77,12.45,12.45,0,0,1-5.54-.77,6.79,6.79,0,0,1-4-3.77,6.39,6.39,0,0,1,.55-5.42,14.86,14.86,0,0,1,3.69-4.13s.06,0,.06,0S107.06,116.18,107,116.2Z"/><path class="cls-10" d="M167.89,115.52a15.34,15.34,0,0,0-4,3.71,7.81,7.81,0,0,0-1.61,5.1,6.56,6.56,0,0,0,2.51,4.63,9.67,9.67,0,0,0,5,2,9.26,9.26,0,0,0,9-4.68,7.06,7.06,0,0,0,.63-5.2,11.18,11.18,0,0,0-2.77-4.64s0,0,0-.06,0,0,.06,0A10.56,10.56,0,0,1,179.7,121a7.36,7.36,0,0,1-.53,5.52,9.47,9.47,0,0,1-9.5,4.85,10,10,0,0,1-5.11-2.18,6.86,6.86,0,0,1-2.54-4.85,8.1,8.1,0,0,1,1.72-5.2,15.51,15.51,0,0,1,4.12-3.67s.06,0,.07,0S167.92,115.5,167.89,115.52Z"/></g><g id="pupil"><path class="cls-18" d="M111.12,122.55l1.91,1.62a2.62,2.62,0,0,1-3.6.26,2.44,2.44,0,0,1-.21-3.5,2.62,2.62,0,0,1,3.6-.26,2.34,2.34,0,0,1,.7,1Z"/><path class="cls-18" d="M170.89,122.47l2,1.64a2.66,2.66,0,0,1-3.69.38,2.58,2.58,0,0,1-.33-3.65,2.65,2.65,0,0,1,3.69-.38,2.47,2.47,0,0,1,.76,1Z"/><path class="cls-18" d="M111.12,122.55l1.91,1.62a2.62,2.62,0,0,1-3.6.26,2.44,2.44,0,0,1-.21-3.5,2.62,2.62,0,0,1,3.6-.26,2.34,2.34,0,0,1,.7,1Z"/><path class="cls-18" d="M170.89,122.47l2,1.64a2.66,2.66,0,0,1-3.69.38,2.58,2.58,0,0,1-.33-3.65,2.65,2.65,0,0,1,3.69-.38,2.47,2.47,0,0,1,.76,1Z"/><path class="cls-19" d="M111.12,122.55l1.91,1.62a2.62,2.62,0,0,1-3.6.26,2.44,2.44,0,0,1-.21-3.5,2.62,2.62,0,0,1,3.6-.26,2.34,2.34,0,0,1,.7,1Z"/><path class="cls-19" d="M170.89,122.47l2,1.64a2.66,2.66,0,0,1-3.69.38,2.58,2.58,0,0,1-.33-3.65,2.65,2.65,0,0,1,3.69-.38,2.47,2.47,0,0,1,.76,1Z"/></g><g id="spec"><ellipse class="cls-20" cx="115.67" cy="119.96" rx="2.66" ry="2.44" transform="translate(-33.31 194.64) rotate(-72.67)"/><ellipse class="cls-20" cx="176.04" cy="119.76" rx="2.48" ry="2.81" transform="translate(55.15 295.03) rotate(-89.63)"/></g><g id="outline"><path class="cls-10" d="M153.38,130a2.28,2.28,0,0,1-1-1.16,6.94,6.94,0,0,1-.42-1.48,15.55,15.55,0,0,1-.31-3,12.61,12.61,0,0,1,.3-3.06,10.71,10.71,0,0,1,1.12-2.86s0,0,0,0a0,0,0,0,1,0,0c-.26,1-.52,2-.69,2.94a24.61,24.61,0,0,0-.38,3,16,16,0,0,0,.13,3,3.48,3.48,0,0,0,1.21,2.63s0,0,0,0S153.39,130,153.38,130Z"/><path class="cls-10" d="M186.17,130.65a5.22,5.22,0,0,0,2.43-3,10.11,10.11,0,0,0,.52-3.86,23.15,23.15,0,0,0-.58-3.88,26.82,26.82,0,0,0-1.18-3.76,0,0,0,0,1,0,0,0,0,0,0,1,0,0,13.49,13.49,0,0,1,1.62,3.66,15.37,15.37,0,0,1,.5,4,10.43,10.43,0,0,1-.71,4,5.32,5.32,0,0,1-2.62,2.93s0,0,0,0A0,0,0,0,1,186.17,130.65Z"/><path class="cls-10" d="M189.23,130.34a45.78,45.78,0,0,1-18,3.66,42.73,42.73,0,0,1-9.23-.95,38.62,38.62,0,0,1-8.75-3s0,0,0,0h0a51.91,51.91,0,0,0,8.83,2.6,51,51,0,0,0,9.13,1,45.48,45.48,0,0,0,18-3.31s0,0,.06,0S189.25,130.33,189.23,130.34Z"/><path class="cls-10" d="M121.48,107.2l.26,2.56a9.32,9.32,0,0,1,.09,1.29,5.73,5.73,0,0,1-.18,1.29h-.05a6,6,0,0,1-.27-1.28,11.1,11.1,0,0,1,0-1.29l.09-2.58h0Z"/><path class="cls-10" d="M114.94,107.85a8.78,8.78,0,0,1,.66,2.09,4.07,4.07,0,0,1,.11,1.1,3,3,0,0,1-.31,1.08h-.05a8.19,8.19,0,0,1-.14-1.08c0-.34,0-.7,0-1a9,9,0,0,0-.32-2.11h0Z"/><path class="cls-10" d="M108.36,108.22l.56,2.1a6.27,6.27,0,0,1,.24,1.06,4.52,4.52,0,0,1,0,1.1h0a4.23,4.23,0,0,1-.42-1,6.53,6.53,0,0,1-.15-1.08l-.21-2.16h0S108.36,108.22,108.36,108.22Z"/><path class="cls-10" d="M99,107.26l1,3a13.89,13.89,0,0,1,.45,1.52,9.21,9.21,0,0,1,.18,1.59h0a9,9,0,0,1-.62-1.47c-.16-.51-.24-1-.35-1.55l-.62-3.1s0,0,0,0Z"/><path class="cls-10" d="M157.73,108.46l.16,2.54a10.61,10.61,0,0,1,0,1.26,5.6,5.6,0,0,1-.24,1.26h-.05a5.53,5.53,0,0,1-.21-1.26,8.93,8.93,0,0,1,.06-1.27l.19-2.53h0Z"/><path class="cls-10" d="M177,106.59c-.06,1.09-.07,2.17,0,3.25,0,.54.06,1.08,0,1.62a12.72,12.72,0,0,1-.17,1.62s0,0,0,0h0a7.62,7.62,0,0,1-.28-1.63,11.11,11.11,0,0,1,.06-1.63c.08-1.09.22-2.17.39-3.24,0,0,0,0,0,0Z"/><path class="cls-10" d="M170.35,107.18a9.7,9.7,0,0,1,.37,2.46,5.23,5.23,0,0,1-.09,1.25,3.64,3.64,0,0,1-.51,1.16h-.05c0-.43,0-.82.07-1.23s.13-.78.18-1.18a10.4,10.4,0,0,0,0-2.43h0Z"/><path class="cls-10" d="M164.66,106.2a32.37,32.37,0,0,1,.14,3.42,10.84,10.84,0,0,1-.11,1.71,8,8,0,0,1-.46,1.66h0l0,0a13.92,13.92,0,0,1,0-1.71c0-.56.14-1.12.2-1.68a31.8,31.8,0,0,0,.21-3.39s0,0,0,0S164.66,106.19,164.66,106.2Z"/><path class="cls-10" d="M94.13,129.85a12,12,0,0,1-1.5-4.18,8.39,8.39,0,0,1-.12-2.24,7,7,0,0,1,.57-2.17s0,0,0,0l0,0c0,.75-.12,1.46-.12,2.19s-.05,1.44,0,2.17a11.76,11.76,0,0,0,1.16,4.2l0,0A0,0,0,0,1,94.13,129.85Z"/><path class="cls-10" d="M128.52,131a17.4,17.4,0,0,0,.76-7.4,22.78,22.78,0,0,0-.77-3.65,26.81,26.81,0,0,0-1.27-3.51s0,0,0,0h0a12.92,12.92,0,0,1,1.71,3.4,15,15,0,0,1,.69,3.75,17.84,17.84,0,0,1-1.11,7.46h0S128.52,131,128.52,131Z"/><path class="cls-10" d="M93.23,127.69a24.24,24.24,0,0,0,4.29,2.37,34.61,34.61,0,0,0,4.63,1.58,45.89,45.89,0,0,0,9.67,1.48,39.52,39.52,0,0,0,9.71-.74,19.86,19.86,0,0,0,8.93-3.68s0,0,.06,0a.09.09,0,0,1,0,.05c-2.38,2.33-5.68,3.41-8.86,4.13a34.91,34.91,0,0,1-9.83.65,47,47,0,0,1-9.71-1.66,36.53,36.53,0,0,1-4.63-1.67,24.42,24.42,0,0,1-4.26-2.46s0,0,0,0S93.21,127.68,93.23,127.69Z"/><path class="cls-10" d="M91.22,121.15a29.54,29.54,0,0,1,8.66-4.69,47.35,47.35,0,0,1,9.68-2.22,37.19,37.19,0,0,1,9.87-.4,44.35,44.35,0,0,1,4.84.91,27.32,27.32,0,0,1,4.73,1.57l0,.28a30.57,30.57,0,0,1-4.91.79c-1.62.15-3.22.23-4.81.31-3.17.15-6.3-.27-9.45-.23a50.61,50.61,0,0,0-9.34,1,40.4,40.4,0,0,0-9,3Z"/><path class="cls-10" d="M189.79,115.72c-1.54.17-3.08.2-4.62.29s-3.06.21-4.59.34c-3.06.25-6.11.59-9.14,1s-6,1.13-9.07,1.29c-1.52.08-3.05.13-4.6.11a23.29,23.29,0,0,1-2.35-.13c-.79,0-1.58-.12-2.38-.2l0-.28a37.4,37.4,0,0,1,4.38-1.9,42.14,42.14,0,0,1,4.54-1.2,47.6,47.6,0,0,1,9.32-.56c3.11-.06,6.22,0,9.32.16,1.55.08,3.09.19,4.64.32s3.08.24,4.61.53Z"/></g><g id="eyebrows"><path class="cls-21" d="M128.12,101.45c-4.13-.34-7.83-2.23-11.85-3-8.44-1.84-16.24,2.79-23.7,6.11A26.74,26.74,0,0,1,87,106.2c4.66-6.58,12.24-9.42,19.63-11.85a20.16,20.16,0,0,1,9.3-1,38.08,38.08,0,0,1,11,4.55,6.29,6.29,0,0,1,2.17,2.33l-.92,1.21Z"/><path class="cls-21" d="M191.93,104a62.13,62.13,0,0,0-13.08-6c-6.32-1.75-13.09-1-19.41.48-3.9.91-7.78,1.84-11.83,1,5.07-5.63,9.95-6,17-6.6,10.58-1.22,14.81.39,23.59,6.13a27.84,27.84,0,0,1,4.92,3.78L191.93,104Z"/></g></g></g><rect id="face_clip-2" data-name="face_clip" class="cls-1" x="1" y="1" width="280" height="280" rx="140"/></svg>