<svg id="speech_bubbles" xmlns="http://www.w3.org/2000/svg" viewBox="0 0 1175 1035"><defs><style>.cls-1{fill:#fffaee;}.cls-2{fill:#2d2d2d;}</style></defs><g id="large"><path class="cls-1" d="M604.25,111.72c-1.14-15.41-5.74-51.46-5.74-51.46s36.61-2.68,47.15-4.13C691,49.89,728.81,48,774.44,45.2c21.4-1.32,41.48-2.57,65.44-3.16,23.17-.57,53.13-2.22,76.31-1.87,28.27.42,106.91-.48,135.18-.05q6.26,129.63,2.24,259.5c-.24,7.78-1.17,41.21-1.17,41.21l-98.6.79c-43,.29-58.21-.06-100.49,3.1,1.82,61.57-6.61,75.79-29.61,125.28,5.31-61,5.66-71-10-136.11-17.57,2.64-178.18,15.42-187,15.75S604.25,111.72,604.25,111.72Z"/><path class="cls-2" d="M604.49,111.71c2.92,47,6.14,93.92,10,140.82,2,23.44,4.06,46.89,7,70.21.77,5.82,1.58,11.65,2.69,17.39.28,1.43.59,2.86.94,4.26.18.7.37,1.4.59,2.08a10.36,10.36,0,0,0,.7,1.74,1.33,1.33,0,0,0,.49.56c.23.1.49,0,.74,0l2.09-.13,4.39-.32,35.19-2.77,70.34-5.87,35.16-3.09c11.7-1.09,23.45-2.1,35.09-3.44l2.55-.32,1.62-.21.4-.05s.17-.07.17,0l.05.2.18.79,1.2,5,2,8.6,2,8.6,1.89,8.64a287.64,287.64,0,0,1,5.58,35c.58,5.9.72,11.83.8,17.74s-.19,11.83-.54,17.72c-.65,11.78-1.68,23.51-2.68,35.24l-2.77-.74c5-10.82,10.12-21.56,14.79-32.45s8.72-22,11-33.57a194.22,194.22,0,0,0,3.57-35.18c.13-2.95,0-5.92.08-8.88s0-5.93-.11-8.9l-.12-5.25,0-1.86v-.12s.07,0,.1,0H852l.46,0,.93-.07,3.13-.23,8.92-.64c11.88-.82,23.8-1.45,35.73-1.77s23.83-.41,35.73-.49l71.41-.65,26.57-.26,13.29-.13,2.16,0h.16c.06,0,0-.1,0-.14v-.32l.17-6.59,1.37-53.12q1.2-53.12.66-106.23T1050,66.25l-1-23.66-11.42-.09-13.28,0-53.14.12c-15.57,0-31.12,0-46.71-.07-7.82-.08-15.53-.25-23.29-.13s-15.52.28-23.29.51l-23.32.75c-7.78.27-15.59.4-23.34.62-15.53.44-31,1.22-46.57,2.1-31.07,1.83-62.16,3.24-93.13,5.88q-23.24,2-46.36,5c-7.78.89-15.53,1.46-23.29,2.06l-11.65.84-10.93.75L600.66,73l1.41,12.88c.89,8.58,1.8,17.17,2.4,25.79l-.44,0c-.75-8.59-1.81-17.16-2.85-25.72l-1.64-12.84-1.79-13.53,12.32-1,11.62-1c7.74-.72,15.51-1.4,23.17-2.39q23.11-3.31,46.39-5.57c31-3,62.11-4.74,93.15-6.84,15.53-1,31.09-1.92,46.66-2.48l23.32-.78,23.33-.9c7.78-.28,15.57-.53,23.37-.66s15.65,0,23.38,0c15.54,0,31.1-.07,46.66-.16l53.15-.28h13.3l6.66,0,8.49.09h1v.21l0,.41.08,1.66.13,2.87.15,3.32.31,6.64.55,13.29q2.14,53.15,2.45,106.35t-1.11,106.36l-1.61,53.14-.21,6.69-.08,3,0,.74c0,.23.09.6-.27.5h-1.5l-4.48,0-13.29.08-26.57.16-71.42.42c-11.9.05-23.79.09-35.66.38s-23.74.88-35.6,1.65l-8.89.61-1.33.09c-.11,0-.27,0-.34.05v.37l.06,3.67c.06,3,.13,6,.09,9s0,6-.11,9A197.47,197.47,0,0,1,851.35,404c-2.42,11.81-6.65,23.14-11.34,34.12s-9.93,21.69-15,32.47l-3.49,7.52.72-8.26c1-11.71,2.06-23.43,2.77-35.14.36-5.86.54-11.71.6-17.56s-.17-11.69-.72-17.51a284.27,284.27,0,0,0-5.4-34.7l-1.84-8.61-2-8.6-2-8.59-.84-3.57c.05-.57-.52-.27-.86-.28l-1.82.22c-11.74,1.3-23.45,2.26-35.18,3.31l-35.18,2.94q-35.19,2.88-70.38,5.58L634.28,350l-4.41.3-2.32.14a5.48,5.48,0,0,1-.7,0l-.35,0c-.11,0-.24,0-.33-.11a2.55,2.55,0,0,1-1-1,9,9,0,0,1-.59-1.23c-.14-.37-.27-.73-.38-1.09-.23-.73-.43-1.45-.61-2.18-.36-1.45-.66-2.9-.94-4.35-1.1-5.82-1.89-11.66-2.63-17.5-2.86-23.39-4.8-46.85-6.69-70.31-3.68-46.92-6.68-93.89-9.36-140.88Z"/><path class="cls-2" d="M620.12,353.54l95.67-8.1L763.58,341q12-1.08,23.92-2.07c4-.32,8-.63,12-.89,2-.13,4-.25,6-.33l1.52-.05c.58,0,1.26,0,1.87,0a5.24,5.24,0,0,1,1.76.32c.16.05.19.21.23.35l.15.41.28.84,2.23,10.52,2.06,10.19c1.32,6.8,2.63,13.62,3.69,20.48a262.21,262.21,0,0,1,3.54,41.51c.08,6.95-.12,13.89-.35,20.81l-.38,9.23-.3,6.47-.15,3.13,0,.38v.2s0,0,0,0l0-.1.33-.74.64-1.49,2.59-6,1.31-3.06,1.87-4.51,2-4.78,1.88-4.82.94-2.41.88-2.43,1.75-4.85c1-3.28,2.2-6.52,3.08-9.83.44-1.66,1-3.29,1.35-5l1.19-5c.38-1.68.66-3.37,1-5.05l.48-2.52.37-2.55c2.07-13.56,2.35-27.37,2.3-41.17,0-3.45,0-6.9-.13-10.35l-.12-6.12,0-1.94c0-.11,0-.12.13-.12l.25,0,.48-.05,1-.1,3.57-.38c6.92-.82,13.85-1.26,20.77-1.8,13.85-.81,27.7-1.46,41.55-1.85,27.7-.85,55.4-1.22,83.1-1.37,13.85-.1,27.7,0,41.55,0l20.78.09c1.91.24,1.19-.2,1.48-4.57l.33-10.37q1.29-41.49,1.93-83c.18-13.83.27-27.66.13-41.47s-.71-27.62-1.16-41.45l-1.86-53.51L1058.5,71l-.34-13.39L1058,51l0-1.25c.07-.23-.21-.1-.34-.13l-25.78.24-26.75.35q-26.76.39-53.5,1C880.28,52.64,809,54.92,737.73,58.55c-24.21,1.3-48.41,2.65-72.59,4.43-6,.39-12.08.9-18.12,1.37l-9.06.71c-1.52.12-3,.24-4.46.39s-2.94.35-4.42.55c-5.93.85-11.89,1.88-17.84,3l-8.91,1.67-4.05.79a.65.65,0,0,0-.49.7l2.94,35.11c.91,11.75,1.66,23.5,2.48,35.26L608,213c3.34,47,7.05,93.94,12.41,140.74l-.61.08c-6.55-46.67-11.32-93.59-15.42-140.53-2.06-23.47-4-47-5.88-70.44-1-11.73-1.87-23.48-2.91-35.2l-3.35-35.28a6,6,0,0,1,.94-3.84,5.86,5.86,0,0,1,3.17-2.35,8.12,8.12,0,0,1,1-.23l.56-.11L599,65.6l2.24-.46,9-1.78c6-1.15,12-2.25,18-3.17,1.53-.23,3.06-.44,4.61-.62s3.09-.31,4.6-.44l9.08-.8c6.05-.52,12.1-1.08,18.15-1.52,24.22-2,48.46-3.51,72.7-5,71.32-4.07,142.72-6.21,214.11-7.39q26.78-.44,53.56-.66l26.77-.18,27.75-.08,3.11,0h1.16c.1,0,0,.09.06.14v.2l0,1.55.08,5.44.11,6.69.25,13.37.65,26.74,1.56,53.5c.39,13.84.91,27.67,1,41.58s-.07,27.74-.31,41.59c-.5,27.71-1.32,55.4-2.31,83.08l-.38,10.38-.24,6.37-.08,2.14,0,.53h-1.61l-4.2-.05-20.75-.19c-13.84-.12-27.68-.11-41.51-.12-27.68,0-55.35.23-83,.92-13.83.31-27.64.89-41.43,1.62-6.88.49-13.78.88-20.61,1.66l-1.6.16a2.3,2.3,0,0,0-.62.1v.65l.06,4.26c.07,3.47.07,6.94.07,10.41,0,13.87-.38,27.83-2.57,41.66l-.39,2.59-.5,2.57c-.35,1.72-.64,3.44-1,5.14l-1.24,5.1c-.39,1.7-.94,3.36-1.41,5-.91,3.38-2.11,6.65-3.18,10l-1.8,4.9-.9,2.45-1,2.42-1.93,4.84-2,4.81-1,2.4L829,452.78l-2.81,6.42-5.73,13L819,475.41l-.72,1.62-.09.2c0,.11-.06.12,0,0l0-.45.05-.9.38-7.16.76-14.22.32-6.35.23-5.18c.28-6.9.52-13.8.48-20.7a260.73,260.73,0,0,0-3.26-41.18c-1-6.83-2.28-13.63-3.55-20.42l-2-10.18-2-9.8-.11-.54,0-.26c0-.09,0-.21-.12-.22a4.88,4.88,0,0,0-1.08-.1h-1.12l-1.49,0c-2,.07-4,.18-6,.3-4,.23-8,.51-12,.81q-12,.88-23.91,1.91l-23.92,2.07c-8,.68-15.93,1.45-23.92,2L620.15,354Z"/></g></svg>