<svg id="speech_bubbles" xmlns="http://www.w3.org/2000/svg" viewBox="0 0 1175 1035"><defs><style>.cls-1{fill:#2d2d2d;}.cls-2{fill:#fffaee;}</style></defs><g id="long"><path class="cls-1" d="M1059,809.43c3.2-.23,6.41-.53,9.64-.52a22.25,22.25,0,0,1,2.44.11,9.13,9.13,0,0,1,1.23.18,3,3,0,0,1,1.21.51,1.19,1.19,0,0,1,.37.54l.29.59c.17.39.29.78.42,1.17a18,18,0,0,1,.47,2.41,44.74,44.74,0,0,1-.17,9.68c-.36,3.2-.65,6.38-1,9.59-1.2,12.8-2.63,25.58-4.09,38.36-2.95,25.54-6.13,51.05-8.29,76.66-.57,6.4-1.23,12.88-3.23,19.09a20.68,20.68,0,0,1-4.88,8.52,32.33,32.33,0,0,1-8.24,5.26,68.73,68.73,0,0,1-18.73,5c-3.2.45-6.42.76-9.63,1s-6.43.37-9.64.55l-38.51,2.12c-12.83.73-25.68,1.3-38.52,1.95-25.67,1.33-51.36,2.38-77.05,3.55-25.69,1-51.38,2.11-77.08,3-51.39,1.89-102.79,3.37-154.2,4.72-102.81,2.64-205.64,4.41-308.47,6l-154.25,2.24-9.64.14c-3.21.06-6.44,0-9.65-.07l-19.32-.25-4.82-.07-2.63,0-2.08,0h-1.56c-.23.06-.06-.28-.11-.4l-.06-11.27-.08-19.28c0-12.84-.42-25.66-.86-38.5s-1-25.67-1.6-38.51q-.83-17.9-1.79-35.78l-2.11-37.92,70.3-.82,68.16-1c45.43-.74,90.87-1.56,136.28-2.72q34.07-.86,68.11-2.08c11.29-.48,22.64-1.2,34-1.88l34-2.15,17-1.11,1-.06h0l.47-.7,2.35-3.52c1.54-2.36,3.07-4.73,4.57-7.13,6-9.56,11.66-19.35,16.68-29.41,2.48-5,4.77-10.16,6.77-15.37s3.74-10.59,5.36-16a313,313,0,0,0,7.73-32.9c.31-1.7.59-3.41.87-5.11s.54-3.42.76-5.09l2.52-19.09L582,702.6c1.2,10.1,2.15,20.17,2.88,30.29s1.2,20.26.91,30.54a164,164,0,0,1-4.5,30.36c-1.16,5-2.46,9.88-3.81,14.76l-2,7.28-.45,1.8-.26,1.12a1.09,1.09,0,0,0,0,.26c0,.11.15,0,.22.06l29.24-.68,30.34-.51,30.34-.35,30.34-.22,121.34-.51c40.43-.28,80.87-.89,121.29-2.1s80.82-3,121.2-5.27l0,.48q-60.52,4.23-121.17,6.66c-40.42,1.62-80.87,2.58-121.32,3.17s-80.9.86-121.34,1.32l-30.32.39-30.32.5-30.32.66-31.41.87-.77-.13a2,2,0,0,1-.37-.08l-.27-.14a2.37,2.37,0,0,1-.53-.34,2,2,0,0,1-.42-.57,3.52,3.52,0,0,1-.38-1.37,8,8,0,0,1,.11-1.67c0-.28.09-.57.15-.86l.15-.75.22-1,.47-1.88,2-7.34c1.33-4.87,2.59-9.72,3.71-14.61a158.87,158.87,0,0,0,4.27-29.52c.25-9.93-.29-20-1-30q-.57-7.51-1.31-15l-.78-7.51-.42-3.75-.22-1.87-.12-.93,0-.47,0-.23,0-.12v-.08c1-.14-2.32.27,2.33-.32l2.45.29c-.23,1.79-.49,3.5-.76,5.25s-.57,3.47-.87,5.2a315.42,315.42,0,0,1-7.77,33.45c-1.64,5.49-3.4,11-5.44,16.34s-4.42,10.67-6.94,15.82c-5.12,10.28-10.83,20.2-16.9,29.88q-2.28,3.63-4.63,7.22l-2.37,3.57-.73,1.07-.6.88-.3.43-.15.22c0,.07-.09.18-.19.15l-3.3.23L514,824l-34,2.14c-11.35.67-22.68,1.38-34.09,1.85q-34.1,1.22-68.18,2c-45.44,1.06-90.89,1.75-136.34,2.35l-68.17.78-66,.56,1.77,33.66,1.69,35.81c.57,12.85,1.1,25.7,1.52,38.56s.8,25.74.78,38.61l0,19.29,0,8c0,.08,0,.07.1.07h.5l2.19,0,4.81.07,19.25.3c3.21,0,6.42.15,9.63.09l9.64-.11,154.25-1.88c102.83-1.3,205.66-2.8,308.46-5.17q77.12-1.8,154.19-4.27c25.7-.79,51.39-1.82,77.08-2.75,25.69-1.09,51.38-2.06,77-3.31,12.84-.62,25.69-1.15,38.52-1.83l38.51-2c3.21-.17,6.43-.31,9.62-.52s6.39-.52,9.55-1a67.25,67.25,0,0,0,18.43-4.82,31,31,0,0,0,8-5,19.65,19.65,0,0,0,4.61-8c2-6.05,2.66-12.47,3.24-18.85,2.25-25.62,5.51-51.13,8.54-76.66,1.51-12.77,3-25.54,4.22-38.33.31-3.19.62-6.4,1-9.59a44.34,44.34,0,0,0,.2-9.56,16.67,16.67,0,0,0-.45-2.32,6.4,6.4,0,0,0-.91-2,4.69,4.69,0,0,0-2.14-.59c-.78-.08-1.58-.1-2.38-.11-3.2,0-6.4.27-9.61.49Z"/><path class="cls-2" d="M116.47,893.16q1.74,55,3.5,110.06c296.43,2.21,571.4-14.08,866.39-23.56,9.56-.31,43.73-1.71,56.17-6.84,4.39-1.81,8-6.43,8.33-13.57,2.31-45.33,14.58-156.91,11.28-160.37-3.94-4.13-478.55,13.24-478.55,13.24s9.14-37.8,12.69-54.85C601.85,730.58,590,690,590,690s-5.7,39.57-15.91,73.49c-7.92,26.34-20.25,48.92-23.91,49.14-217.87,13-427.64,10.41-436.34,10.23C113.88,822.86,116.17,883.94,116.47,893.16Z"/><path class="cls-1" d="M116.36,893.17l-1.69-39.81-.82-19.9-.39-10.33,0-.71h2.07l2.73,0,5,0q39.83.27,79.67,0,79.67-.57,159.31-2.84T521.39,813l19.88-1.13,5-.29,2.49-.14,1.12-.06a1.16,1.16,0,0,0,.67-.26,5.27,5.27,0,0,0,.71-.64,10.43,10.43,0,0,0,.76-.85c.5-.6,1-1.25,1.44-1.91.92-1.32,1.78-2.71,2.6-4.12a160.78,160.78,0,0,0,8.65-17.75q3.84-9.12,6.87-18.57c4-12.59,7.13-25.48,9.92-38.43s5.17-26,7.13-39.09l1-6.76,1.81,6.56a235.08,235.08,0,0,1,6.32,30.65c.75,5.17,1.16,10.39,1.43,15.62.05,2.63.18,5.25.05,7.88-.06,1.31,0,2.63-.16,3.94l-.34,4c-.12,1.31-.4,2.62-.59,3.93l-.32,2-.4,1.91-1.66,7.61-3.44,15.17-6.63,28.18,113.81-4.19,116-4q58-1.95,116-3.66l58-1.55c19.35-.44,38.68-.92,58.07-1,3.21,0,6.41,0,9.65.11.81,0,1.63.06,2.46.11.29,0,1.17.06,1.82.18a3.7,3.7,0,0,1,1,.23l.45.18.4.23c1.11.69,1.34,2.14,1.51,3.52l.06.84,0,.64,0,1.25c0,6.56-.4,12.91-.79,19.32-.84,12.77-1.9,25.51-3,38.24-2.14,25.46-4.46,50.9-6.36,76.34-.47,6.35-.91,12.71-1.27,19.06-.1,1.6-.11,3.1-.33,5a20.33,20.33,0,0,1-1.36,5.28,17.34,17.34,0,0,1-2.93,4.79,15.28,15.28,0,0,1-4.56,3.52,23.05,23.05,0,0,1-2.52,1l-1.22.43-1.21.33c-1.62.49-3.22.83-4.83,1.19-3.22.66-6.42,1.19-9.63,1.63-6.41.87-12.82,1.46-19.22,1.94s-12.82.79-19.24,1l-19.14.67-38.28,1.35C827,988.13,725,992.47,622.84,996.13c-51.06,1.82-102.12,3.53-153.2,4.86-25.54.74-51.08,1.24-76.62,1.84-25.54.44-51.08,1-76.63,1.25q-76.63,1.08-153.28.53l-38.32-.37-5.7,0c-.1,0,0-.11-.06-.16v-.2l0-.4,0-.81,0-1.61-.07-2.51-.25-9.57-.49-19.16-1.92-76.6.49,0,3,76.58.73,19.14.36,9.57.09,2.28c0,.51,0,1.06.09,1.53h3.87l38.3-.09c51.08-.25,102.15-.78,153.22-1.89,25.53-.45,51.06-1.2,76.59-1.81,25.52-.77,51.05-1.45,76.57-2.35,51-1.66,102.09-3.63,153.13-5.62,102.08-4,204.17-8.24,306.29-11.68l38.3-1.23,19.15-.62q9.52-.29,19-.94c6.33-.44,12.65-1,18.89-1.83q4.7-.61,9.27-1.53c1.51-.33,3-.65,4.47-1.08l1.09-.3,1-.36a18.22,18.22,0,0,0,1.95-.75,10.08,10.08,0,0,0,3-2.28,12.17,12.17,0,0,0,2-3.34,15.28,15.28,0,0,0,1-4c.17-1.31.21-3,.32-4.6.38-6.4.84-12.78,1.34-19.16,2-25.49,4.42-50.92,6.66-76.36,1.12-12.71,2.22-25.43,3.11-38.14.41-6.34.86-12.74.85-19l0-1.14,0-.56,0-.35c0-.17,0-.4-.15-.49a1.26,1.26,0,0,0-.27,0l-.55,0-2.32-.11c-3.14-.11-6.33-.13-9.51-.15-19.29,0-38.63.39-58,.79l-58,1.44q-58,1.56-116,3.39l-116,3.73-118.15,4,4.15-17.21,3.58-15.13,3.48-15.14,1.67-7.57.41-1.9.31-1.87c.18-1.25.46-2.48.57-3.75l.35-3.8c.14-1.26.1-2.54.16-3.82.14-2.54,0-5.11,0-7.67-.26-5.12-.64-10.24-1.37-15.34a231.26,231.26,0,0,0-6.13-30.23l2.83-.2q-3,19.77-7.29,39.26c-2.84,13-6.06,25.93-10.11,38.66q-3.09,9.52-7,18.76a165.08,165.08,0,0,1-8.86,18c-.85,1.45-1.75,2.88-2.72,4.28-.5.7-1,1.4-1.57,2.07a12.09,12.09,0,0,1-.91,1,7.56,7.56,0,0,1-1.15,1,4.81,4.81,0,0,1-.77.42,2,2,0,0,1-.42.11,1.56,1.56,0,0,1-.43.08l-1.36.08-2.48.13-5,.27-19.89,1.07q-79.59,4.13-159.27,6.05t-159.36,2.25c-26.56.06-53.12,0-79.68-.27l-5-.07-2.25,0-1.11,0h-.55l0,.53.34,9.58.65,19.91,1.24,39.82Z"/></g></svg>