<svg id="speech_bubbles" xmlns="http://www.w3.org/2000/svg" viewBox="0 0 1175 1035"><defs><style>.cls-1{fill:#2d2d2d;}.cls-2{fill:#fffaee;}</style></defs><g id="meduim"><path class="cls-1" d="M401,91.82l4.55,0H406a.75.75,0,0,1,0,.15v.59l0,1.19-.07,2.25c-.1,2.89-.12,5.77-.17,8.65q-.07,8.66.06,17.3c.2,11.54.64,23.07,1,34.61s.62,23.08.58,34.63q0,8.64.56,17.26a141.49,141.49,0,0,0,2,17.1,48.78,48.78,0,0,0,2.2,8.24A42.15,42.15,0,0,0,416,241.3a62.92,62.92,0,0,0,5.16,6.82q2.83,3.21,5.92,6.23c4.11,4,8.39,7.89,12.51,12,2.07,2,4.07,4.13,6.08,6.18s4.06,4.09,6.12,6.1c8.23,8.07,16.75,15.87,24.86,24.12a183.56,183.56,0,0,1,22.2,26.74l2.25,3.35-3.56-1.92-41.6-22.45-20.81-11.19a71.36,71.36,0,0,0-10.64-4.63,39.39,39.39,0,0,0-11.24-2.06,30.64,30.64,0,0,0-11.15,1.53,12.84,12.84,0,0,0-4.59,2.66,6.94,6.94,0,0,0-1.83,4.51,25.26,25.26,0,0,0,.31,5.58c.27,1.92.64,3.85.88,5.88a18.34,18.34,0,0,1,.15,3.18,6.15,6.15,0,0,1-1.14,3.55,4.37,4.37,0,0,1-1.68,1.31,8.69,8.69,0,0,1-.94.32c-.31.06-.61.1-.92.14-1,.09-2,.15-3,.2-7.94.35-15.82.38-23.76.07s-15.73-.59-23.6-.77c-63-1.65-126,.29-188.89,3.68l-21.37,1.21-10.69.65-5.35.32c-1.82.1-3.62.15-5.42.19-7.17.16-14.35.08-21.45.06-3.56,0-7.11.06-10.67.13l-5.34.12-7.46.22L65.09,308l-.24-15.11-.31-15.09L64.48,276c0-.58,0-1.18-.11-1.82l-.3-3.74c-.24-2.49-.47-5-.75-7.48-2.16-20-5.35-39.89-7.12-60.11-.44-5.08-.69-10.12-1-15.14l-.92-15.09c-.6-10.07-1.19-20.16-1.42-30.29s-.08-20.26.25-30.36l.26-7.57.18-4.75,0-.93,0-.47V98c0-.07,0-.2.08-.18l1.85-.25,2.77-.38c5-.7,10-1.27,15.09-1.79,13.66-1.33,27.36-2.05,41-2.36s27.33-.32,41-.57c6.82-.11,13.63-.3,20.43-.53L186,91.52c1.73-.06,3.45-.11,5.17-.1s3.44,0,5.15,0c13.7.17,27.33.85,41,1.32,6.81.24,13.62.44,20.42.5,3.4,0,6.8,0,10.19-.08,1.69,0,3.38-.11,5.06-.24s3.38-.25,5.09-.38c13.64-1.11,27.31-1.67,41-1.86s27.33-.1,41,.17l40.94,1v.41l-41-.18c-13.65,0-27.29.1-40.92.51s-27.25,1.14-40.8,2.42c-1.7.15-3.38.32-5.12.45s-3.44.24-5.16.3c-3.43.15-6.86.2-10.28.21-6.85,0-13.68-.1-20.51-.27-13.66-.32-27.31-.87-40.9-.92-1.7,0-3.4,0-5.09,0s-3.38.08-5.06.15l-10.23.5q-10.26.44-20.5.69c-13.66.32-27.31.51-40.92,1s-27.2,1.2-40.71,2.59c-5,.54-10,1.13-14.92,1.85l-1,.14s0,0,0,0v0l0,.9-.06,1.88-.24,7.55c-.29,10-.43,20.09-.18,30.11s.84,20.07,1.45,30.12l.92,15.1c.31,5,.56,10.07,1,15,1.72,20,4.86,39.9,7,60,.26,2.52.49,5,.72,7.57l.29,3.8c0,.62.09,1.28.11,1.95l.06,1.92.24,15.15.3,28.12,8.61-.17c3.58-.05,7.16-.08,10.74-.07,7.18.06,14.27.17,21.38.06,1.77,0,3.54-.07,5.28-.15l5.34-.3,10.69-.59,21.4-1.11c63-3.14,126.09-4.83,189.16-2.89,7.88.22,15.76.57,23.64.89s15.7.3,23.51,0c1-.05,2-.1,2.88-.18a2.14,2.14,0,0,0,1.63-.72,3.5,3.5,0,0,0,.57-2,15.91,15.91,0,0,0-.13-2.72c-.41-3.78-1.47-7.72-1.13-12a12.62,12.62,0,0,1,.73-3.24,8.31,8.31,0,0,1,1.91-2.91,15.39,15.39,0,0,1,5.55-3.23A33.37,33.37,0,0,1,413.32,288c8.22.26,15.93,3.39,22.91,7.11L457,306.45l41.49,22.67-1.31,1.43A182.41,182.41,0,0,0,475.33,304c-8-8.25-16.5-16.09-24.71-24.23-2.06-2-4.09-4.08-6.11-6.15s-4-4.16-6-6.19c-4.07-4.06-8.33-7.94-12.45-12-2-2-4.06-4.15-6-6.34a65.63,65.63,0,0,1-5.25-7,43.58,43.58,0,0,1-3.94-7.84,50.81,50.81,0,0,1-2.22-8.47,143.75,143.75,0,0,1-2-17.27c-.35-5.78-.49-11.56-.46-17.34.11-11.54-.07-23.07-.37-34.61s-.66-23.07-.79-34.62c-.07-5.77-.05-11.54,0-17.32.07-2.88.11-5.77.23-8.65l.07-2.08,0-1,0-.48v-.12h-.36l-4.11,0Z"/><path class="cls-2" d="M64.11,181.81C64.3,214.25,80.94,253,74.42,321c82.78-4.49,146-.64,236.28-5.36,17.11-.89,52.9-.72,69.07-.53,9.26.1,2.72-15.3,6.35-22.86,2-4.13,10.8-3.44,16.64-1.15,30.87,12.1,57.51,25.35,90.23,36.95l-78.82-75c-4.56-4.35-9.19-8.76-11.61-13.73-2.34-4.78-2.54-9.84-2.72-14.83L394.53,80c-105.64,1.81-226.82,6.28-332.46,8.09-1.82,12.56-.26,33.44-.2,56.9Z"/><path class="cls-1" d="M63.93,181.82l-1.41-20.27-.66-10.13c-.22-3.39-.5-6.76-.46-10.16-.08-6.77-.28-13.53-.47-20.3s-.39-13.54-.29-20.33c0-3.42.16-6.75.51-10.25l.18-1.52.09-.77,0-.38c0-.12,0-.3.16-.25l3.08-.07,5.07-.11,20.31-.47,40.61-1.06,162.42-4.87q40.62-1.18,81.23-2.15l10.16-.21,5.08-.11,2.84-.06,2,0,1,0h.5a.92.92,0,0,1,.24,0v.24L397,100.4l1.6,40.59,3.21,81.19a84,84,0,0,0,.7,9.87,21,21,0,0,0,3.22,8.61,46.49,46.49,0,0,0,6.29,7.36c2.36,2.33,4.87,4.65,7.31,7l29.51,27.93,45.87,43.32,8.59,8.12-11.18-3.9c-20.72-7.24-40.85-15.94-60.89-24.5-5-2.13-10-4.25-15.07-6.32l-7.55-3.07-3.79-1.51-1.9-.74c-.62-.25-1.29-.52-1.82-.7a24.7,24.7,0,0,0-7.13-1.39,12.64,12.64,0,0,0-3.28.27,3.38,3.38,0,0,0-1.83.9.31.31,0,0,1-.05.1l0,.05-.06.14a5.66,5.66,0,0,0-.25.66,11,11,0,0,0-.37,1.55,24.26,24.26,0,0,0-.24,3.62c0,2.56.21,5.26.16,8.23a18.09,18.09,0,0,1-.66,4.86A8.3,8.3,0,0,1,386,315.4a7,7,0,0,1-2.85,2.15,9.1,9.1,0,0,1-3.06.58h-2.14l-4.08,0L357.48,318c-10.9,0-21.8,0-32.67.23-5.45.09-10.83.27-16.27.54l-16.38.72q-16.38.63-32.77.94-20.34.39-40.67.42H178.09c-27.08,0-54.14.14-81.17,1-3.38.11-6.76.19-10.14.35l-10.8.45-2.06.09-1,.05h-.25s-.1,0-.12,0v-.12l0-.52.34-4.1.44-5.2c.13-1.68.31-3.35.41-5l.24-5a316.85,316.85,0,0,0-.53-40.41c-1-13.46-2.93-26.85-5.07-40.21s-4.5-26.79-4.54-40.4h.49c.38,13.53,3.15,26.82,5.55,40.14s4.69,26.72,6,40.25A308.09,308.09,0,0,1,77.2,303l-.16,5.1c-.07,1.7-.22,3.39-.33,5.09l-.34,4.93-.06,1c-.08.24.2.11.33.13l.49,0,9.48-.54c3.38-.2,6.77-.33,10.16-.49,27.09-1.27,54.2-1.69,81.29-2s54.15-.6,81.19-1.36l16.33-.54,16.33-.65,16.33-.79c5.45-.29,11-.48,16.45-.58,10.95-.22,21.87-.25,32.8-.23l16.39.1,4.1.05h1.95a2.85,2.85,0,0,0,.94-.14,1,1,0,0,0,.39-.29,2.48,2.48,0,0,0,.4-.85,12.63,12.63,0,0,0,.4-3.23c.06-2.49-.16-5.25-.13-8.14a28.74,28.74,0,0,1,.34-4.53,16.18,16.18,0,0,1,.59-2.43,11.41,11.41,0,0,1,.48-1.25c.05-.11.08-.19.15-.32l.23-.39c.15-.26.32-.51.49-.76a8.73,8.73,0,0,1,1.21-1.22,8.56,8.56,0,0,1,1.33-.86,10.92,10.92,0,0,1,2.62-.94,18.61,18.61,0,0,1,4.85-.41,30.67,30.67,0,0,1,8.88,1.78c.75.27,1.34.52,2,.78l1.91.76,3.81,1.54,7.59,3.15c5,2.12,10.06,4.29,15.07,6.46,20,8.74,39.93,17.53,60.38,24.86l-2.59,4.21L445.7,286.25l-29.35-28.08c-2.45-2.35-4.9-4.64-7.35-7.08a50.47,50.47,0,0,1-6.82-8.11A23.88,23.88,0,0,1,399.7,238a27.44,27.44,0,0,1-1.33-5.32,89.09,89.09,0,0,1-.69-10.38l-2.77-81.2-1.38-40.6L392.9,81.8v-.07s0,0-.07,0h-.94l-2.24,0-5.08.08L374.42,82q-40.62.69-81.22,1.68c-54.15,1.25-108.3,2.7-162.46,3.83l-40.62.77-20.31.33-5.08.07-2,0c-.12,0-.1.08-.11.16l0,.25-.06.49-.13,1c-.34,3.23-.49,6.68-.56,10-.14,6.75,0,13.52.14,20.28s.29,13.55.32,20.32c-.07,3.38.19,6.76.38,10.14l.57,10.13L64.3,181.8Z"/></g></svg>