<svg id="speech_bubbles" xmlns="http://www.w3.org/2000/svg" viewBox="0 0 1175 1035"><defs><style>.cls-1{fill:#2d2d2d;}.cls-2{fill:#fffaee;}</style></defs><g id="small"><path class="cls-1" d="M502.88,491.46c5.57-4.66,10.92-9.6,16.25-14.55,2.65-2.49,5.3-5,7.91-7.51l3.9-3.82,1.91-1.93c.31-.33.63-.65.92-1l.46-.49.36-.47.63.65C525,467.9,514.59,473.17,504,478.08s-21.33,9.4-32.27,13.46-22.06,7.59-33.35,10.58l-4.24,1.08c-1.41.36-2.83.72-4.28,1-2.88.6-5.75,1.1-8.62,1.6l-8.63,1.4-9,1.36-1.07-.61-.78-.42-1.54-.81c-1-.52-2.09-1-3.14-1.5a55.57,55.57,0,0,0-6.46-2.45,32.76,32.76,0,0,0-3.32-.79c-1.13-.22-2.28-.42-3.43-.58-2.29-.34-4.6-.59-6.92-.73A130.47,130.47,0,0,0,349,502.22a210.75,210.75,0,0,0-53.75,15.55,206.33,206.33,0,0,0-24.83,13,115.81,115.81,0,0,0-22.1,16.81,72.35,72.35,0,0,0-8.68,10.68A89.45,89.45,0,0,0,233,570.38a128.18,128.18,0,0,0-5,13c-1.47,4.42-2.8,8.9-3.86,13.4-1.89,8.12-2.86,16.55-1.29,24.5a31.26,31.26,0,0,0,4.38,11.09,34.4,34.4,0,0,0,8.26,8.64c6.54,4.82,14.43,7.8,22.47,10a200.51,200.51,0,0,0,24.73,5.1,132.25,132.25,0,0,0,25.06,1.2,195.53,195.53,0,0,0,25.05-3.06c16.64-3.07,33.24-6.84,48.39-13.94,30.3-14,52.38-44.37,56.42-77.7l.52-6.25.08-6.28a65.68,65.68,0,0,1,0-6.57,16.41,16.41,0,0,1,.69-3.47,12.2,12.2,0,0,1,1.63-3.22,24.13,24.13,0,0,1,4.8-4.78l5.07-4q5.11-3.89,10.39-7.55c7-4.88,14.23-9.47,21.32-14.19s14.05-9.64,20.75-14.9l.31.37c-6.51,5.52-13.29,10.75-20.24,15.71s-14,9.77-20.84,14.82c-3.42,2.53-6.79,5.11-10.1,7.77l-4.91,4a21.89,21.89,0,0,0-4.16,4.31,10.44,10.44,0,0,0-1.67,5.3c-.14,2,.06,4,.12,6.21s.07,4.34.06,6.52L441,563c-3.48,34.66-26,66.76-57.74,81.78a145.77,145.77,0,0,1-24.41,8.93c-8.34,2.3-16.75,4.06-25.2,5.59a193.51,193.51,0,0,1-25.72,3,135.1,135.1,0,0,1-26-1.4,204.32,204.32,0,0,1-25.31-5.44,98,98,0,0,1-12.34-4.39,57,57,0,0,1-11.51-6.62,38.55,38.55,0,0,1-9.22-9.87,35.29,35.29,0,0,1-4.86-12.6c-1.65-8.88-.47-17.8,1.54-26.2,1.13-4.67,2.52-9.22,4.05-13.72a133.11,133.11,0,0,1,5.28-13.32,92.29,92.29,0,0,1,7-12.58,75.64,75.64,0,0,1,9.19-11.16,118.89,118.89,0,0,1,22.89-17.17,207.61,207.61,0,0,1,25.3-13,213.34,213.34,0,0,1,54.63-15.35,133.26,133.26,0,0,1,28.45-1.33c2.38.17,4.76.45,7.12.81,1.18.18,2.35.39,3.53.63s2.38.54,3.54.88a56.34,56.34,0,0,1,6.72,2.62c1.09.5,2.16,1,3.22,1.57l1.59.84.76.43.46.27,8.25-1.18,8.61-1.33c2.87-.46,5.73-.94,8.56-1.5,1.41-.27,2.81-.61,4.22-1l4.23-1c11.24-2.87,22.34-6.33,33.28-10.23s21.69-8.35,32.29-13.11,21-10,31.3-15.38l2-1-1.32,1.69-.48.6-.47.51q-.48.51-1,1l-1.94,1.93L527.61,470q-4,3.75-8,7.44c-5.39,4.9-10.79,9.78-16.43,14.4Z"/><path class="cls-2" d="M397.43,501.54c-34.49-8.6-66.59,3.81-98.78,18.58-24.39,11.2-48.76,25.24-63.13,47.38s-15.5,54.24,3.93,72.38c12.36,11.54,30.24,15.44,47.32,17.07,36.73,3.5,75.58-1.85,106.12-22s50.82-56.82,44.06-92c-.44-2.27-1-4.69,0-6.81.79-1.79,2.48-3,4.09-4.18,31.75-22.7,63.9-44.72,92.12-72-40.54,23.67-85.61,39.89-131.79,50.09l-1.15-7.33Z"/><path class="cls-1" d="M397.51,501.37l2.22,1,.6.26a2.35,2.35,0,0,1,.14.62l.2,1.23.73,4.54.09.52,0,.26c0,.06.15,0,.23,0l1-.24L405,509l4.62-1.08,9.21-2.31,9.16-2.49q18.28-5.13,36.12-11.64a422.47,422.47,0,0,0,68.63-32.13l5.48-3.23-4.56,4.44c-15.24,14.81-31.76,28.21-48.7,41-8.47,6.37-17.06,12.6-25.66,18.78l-12.92,9.26-3.22,2.31c-1.07.78-2.19,1.54-3.13,2.32a6.67,6.67,0,0,0-2.11,2.61,7,7,0,0,0-.28,3.35c.14,1.21.48,2.5.64,3.85l.59,4a30.17,30.17,0,0,1,.36,4l.22,4c0,1.35-.08,2.69-.12,4a38.54,38.54,0,0,1-.23,4,75.92,75.92,0,0,1-1.16,8A92.91,92.91,0,0,1,426.38,602a109.07,109.07,0,0,1-20.45,24.71,111.72,111.72,0,0,1-26.74,17.7,153.19,153.19,0,0,1-49.12,13.92,209.53,209.53,0,0,1-51.1-.43,96.44,96.44,0,0,1-25-6.49,51.62,51.62,0,0,1-20.87-15.62,50.31,50.31,0,0,1-9.73-24.22,65.22,65.22,0,0,1,2-25.9A69.91,69.91,0,0,1,230,573.49c1-1.94,2-3.85,3.17-5.69.57-.94,1.18-1.83,1.8-2.71l1.86-2.66a103.68,103.68,0,0,1,18-18.42c13.42-10.73,28.71-18.61,44.17-25.54S330.31,505,347,501.24a117.33,117.33,0,0,1,25.31-3.05,96.52,96.52,0,0,1,25.22,3.18l-.09.35a96.48,96.48,0,0,0-25.11-2.42,118.57,118.57,0,0,0-24.93,3.61c-16.36,4.09-31.88,10.87-47.18,18S269.93,536,257,546.59a100.31,100.31,0,0,0-17.24,17.95L238,567.1c-.59.85-1.17,1.7-1.69,2.59-1.08,1.74-2.05,3.56-3,5.41A66.06,66.06,0,0,0,229,586.65,62.07,62.07,0,0,0,227.21,611a46.74,46.74,0,0,0,9,22.37A48.14,48.14,0,0,0,255.5,647.9a93.61,93.61,0,0,0,24,6.34,208.1,208.1,0,0,0,50.19.76,149.18,149.18,0,0,0,48.22-13.29,109.28,109.28,0,0,0,26.16-17.13,106.21,106.21,0,0,0,20-24c10.78-17.86,15.82-39.43,11.23-60.19a8,8,0,0,1,3.25-8c1.11-.9,2.2-1.61,3.27-2.39l3.24-2.3,13-9.18c8.64-6.12,17.25-12.28,25.75-18.59,17-12.62,33.53-25.86,48.8-40.49l.92,1.21a421.45,421.45,0,0,1-69.06,31.74q-17.91,6.41-36.27,11.38l-9.2,2.41-9.23,2.25-4.64,1-2.4.54-1.29.29-.16,0s-.14.07-.13,0l-.05-.33-.1-.65-.74-4.84-.17-1.12a1.93,1.93,0,0,0-.11-.5l-.49-.22-2.12-.95Z"/></g></svg>