{
  "accessors": [
    {
      "bufferView": 2,
      "componentType": 5126,
      "count": 65532,
      "max": [
        41.639976501464844,
        38.032135009765625,
        46.506935119628906
      ],
      "min": [
        -41.40689468383789,
        -49.74285125732422,
        -0.9031350016593933
      ],
      "type": "VEC3"
    },
    {
      "bufferView": 2,
      "byteOffset": 786384,
      "componentType": 5126,
      "count": 65532,
      "max": [
        1.0,
        0.9999984502792358,
        1.0
      ],
      "min": [
        -0.999994158744812,
        -0.9999995231628418,
        -0.9998322129249573
      ],
      "type": "VEC3"
    },
    {
      "bufferView": 3,
      "componentType": 5126,
      "count": 65532,
      "max": [
        0.9999969005584717,
        0.9999997019767761,
        0.999971866607666,
        1.0
      ],
      "min": [
        -0.9999983310699463,
        -0.9999655485153198,
        -0.9999992847442627,
        -1.0
      ],
      "type": "VEC4"
    },
    {
      "bufferView": 1,
      "componentType": 5126,
      "count": 65532,
      "max": [
        0.9997519850730896,
        0.9940500259399414
      ],
      "min": [
        0.005956000182777643,
        2.8000000384054147e-05
      ],
      "type": "VEC2"
    },
    {
      "bufferView": 0,
      "componentType": 5125,
      "count": 360381,
      "type": "SCALAR"
    },
    {
      "bufferView": 2,
      "byteOffset": 1572768,
      "componentType": 5126,
      "count": 65532,
      "max": [
        51.39990234375,
        31.773330688476563,
        76.5826416015625
      ],
      "min": [
        -55.23579025268555,
        -41.67815399169922,
        -1.11142897605896
      ],
      "type": "VEC3"
    },
    {
      "bufferView": 2,
      "byteOffset": 2359152,
      "componentType": 5126,
      "count": 65532,
      "max": [
        1.0,
        0.9999955892562866,
        0.9999996423721313
      ],
      "min": [
        -0.9999996423721313,
        -0.9999978542327881,
        -0.9994214773178101
      ],
      "type": "VEC3"
    },
    {
      "bufferView": 3,
      "byteOffset": 1048512,
      "componentType": 5126,
      "count": 65532,
      "max": [
        0.9999977350234985,
        0.9999996423721313,
        0.9999998807907104,
        1.0
      ],
      "min": [
        -0.9999985098838806,
        -0.9999655485153198,
        -0.9999822974205017,
        -1.0
      ],
      "type": "VEC4"
    },
    {
      "bufferView": 1,
      "byteOffset": 524256,
      "componentType": 5126,
      "count": 65532,
      "max": [
        0.9651610255241394,
        0.9947400093078613
      ],
      "min": [
        3.600000127335079e-05,
        0.002015999983996153
      ],
      "type": "VEC2"
    },
    {
      "bufferView": 0,
      "byteOffset": 1441524,
      "componentType": 5125,
      "count": 339630,
      "type": "SCALAR"
    },
    {
      "bufferView": 2,
      "byteOffset": 3145536,
      "componentType": 5126,
      "count": 65532,
      "max": [
        49.47041320800781,
        33.44096374511719,
        53.782981872558594
      ],
      "min": [
        -55.1490592956543,
        -2.163512945175171,
        -1.0193519592285156
      ],
      "type": "VEC3"
    },
    {
      "bufferView": 2,
      "byteOffset": 3931920,
      "componentType": 5126,
      "count": 65532,
      "max": [
        0.9999991655349731,
        0.9999991655349731,
        0.9999997615814209
      ],
      "min": [
        -0.9999996423721313,
        -0.9999943971633911,
        -0.9999982118606567
      ],
      "type": "VEC3"
    },
    {
      "bufferView": 3,
      "byteOffset": 2097024,
      "componentType": 5126,
      "count": 65532,
      "max": [
        0.9999997615814209,
        0.999984085559845,
        0.9999996423721313,
        1.0
      ],
      "min": [
        -0.9999968409538269,
        -0.999998927116394,
        -0.9999969005584717,
        -1.0
      ],
      "type": "VEC4"
    },
    {
      "bufferView": 1,
      "byteOffset": 1048512,
      "componentType": 5126,
      "count": 65532,
      "max": [
        0.9987819790840149,
        0.9996309876441956
      ],
      "min": [
        7.000000186963007e-05,
        2.2000000171829015e-05
      ],
      "type": "VEC2"
    },
    {
      "bufferView": 0,
      "byteOffset": 2800044,
      "componentType": 5125,
      "count": 351825,
      "type": "SCALAR"
    },
    {
      "bufferView": 2,
      "byteOffset": 4718304,
      "componentType": 5126,
      "count": 65532,
      "max": [
        51.301395416259766,
        57.23371887207031,
        61.512752532958984
      ],
      "min": [
        -55.11532974243164,
        -9.924148559570313,
        -3.735930919647217
      ],
      "type": "VEC3"
    },
    {
      "bufferView": 2,
      "byteOffset": 5504688,
      "componentType": 5126,
      "count": 65532,
      "max": [
        0.9999969005584717,
        0.9999979734420776,
        0.9999985694885254
      ],
      "min": [
        -0.9999974966049194,
        -0.9999747276306152,
        -0.9999549388885498
      ],
      "type": "VEC3"
    },
    {
      "bufferView": 3,
      "byteOffset": 3145536,
      "componentType": 5126,
      "count": 65532,
      "max": [
        0.9999975562095642,
        0.9999885559082031,
        0.9999998807907104,
        1.0
      ],
      "min": [
        -0.9999922513961792,
        -0.9999608397483826,
        -0.9995129704475403,
        -1.0
      ],
      "type": "VEC4"
    },
    {
      "bufferView": 1,
      "byteOffset": 1572768,
      "componentType": 5126,
      "count": 65532,
      "max": [
        0.9551820158958435,
        0.9978299736976624
      ],
      "min": [
        9.999999974752427e-07,
        0.0030990000814199448
      ],
      "type": "VEC2"
    },
    {
      "bufferView": 0,
      "byteOffset": 4207344,
      "componentType": 5125,
      "count": 351750,
      "type": "SCALAR"
    },
    {
      "bufferView": 2,
      "byteOffset": 6291072,
      "componentType": 5126,
      "count": 65532,
      "max": [
        51.336788177490234,
        31.216659545898438,
        79.11390686035156
      ],
      "min": [
        -55.0587043762207,
        -35.1302490234375,
        -1.5198149681091309
      ],
      "type": "VEC3"
    },
    {
      "bufferView": 2,
      "byteOffset": 7077456,
      "componentType": 5126,
      "count": 65532,
      "max": [
        0.9999998807907104,
        0.9999890327453613,
        0.9999996423721313
      ],
      "min": [
        -0.9999986886978149,
        -0.9999939203262329,
        -0.999889612197876
      ],
      "type": "VEC3"
    },
    {
      "bufferView": 3,
      "byteOffset": 4194048,
      "componentType": 5126,
      "count": 65532,
      "max": [
        0.9999986290931702,
        0.9999963045120239,
        0.9999969601631165,
        1.0
      ],
      "min": [
        -0.999984860420227,
        -0.9999809265136719,
        -0.9999768137931824,
        -1.0
      ],
      "type": "VEC4"
    },
    {
      "bufferView": 1,
      "byteOffset": 2097024,
      "componentType": 5126,
      "count": 65532,
      "max": [
        0.9998329877853394,
        0.9999129772186279
      ],
      "min": [
        0.0005530000198632479,
        2.8000000384054147e-05
      ],
      "type": "VEC2"
    },
    {
      "bufferView": 0,
      "byteOffset": 5614344,
      "componentType": 5125,
      "count": 335877,
      "type": "SCALAR"
    },
    {
      "bufferView": 2,
      "byteOffset": 7863840,
      "componentType": 5126,
      "count": 15641,
      "max": [
        47.247764587402344,
        27.028762817382813,
        82.53317260742188
      ],
      "min": [
        -47.3996696472168,
        -37.930625915527344,
        -1.1216109991073608
      ],
      "type": "VEC3"
    },
    {
      "bufferView": 2,
      "byteOffset": 8051532,
      "componentType": 5126,
      "count": 15641,
      "max": [
        0.9999966621398926,
        0.9997567534446716,
        0.9999980926513672
      ],
      "min": [
        -0.9999963045120239,
        -0.9999932050704956,
        -0.9943416118621826
      ],
      "type": "VEC3"
    },
    {
      "bufferView": 3,
      "byteOffset": 5242560,
      "componentType": 5126,
      "count": 15641,
      "max": [
        0.9999903440475464,
        0.9999886155128479,
        0.9999710321426392,
        1.0
      ],
      "min": [
        -0.9999754428863525,
        -0.9998906254768372,
        -0.9999918937683105,
        -1.0
      ],
      "type": "VEC4"
    },
    {
      "bufferView": 1,
      "byteOffset": 2621280,
      "componentType": 5126,
      "count": 15641,
      "max": [
        0.9998970031738281,
        0.9947739839553833
      ],
      "min": [
        0.0002300000051036477,
        0.006031999830156565
      ],
      "type": "VEC2"
    },
    {
      "bufferView": 0,
      "byteOffset": 6957852,
      "componentType": 5125,
      "count": 53607,
      "type": "SCALAR"
    }
  ],
  "asset": {
    "extras": {
      "author": "Lassi Kaukonen (https://sketchfab.com/thesidekick)",
      "license": "CC-BY-4.0 (http://creativecommons.org/licenses/by/4.0/)",
      "source": "https://sketchfab.com/3d-models/stone-church-in-karuna-finland-d79d30e39182482f8655b01ea77879d5",
      "title": "Stone church in Karuna, Finland"
    },
    "generator": "Sketchfab-12.68.0",
    "version": "2.0"
  },
  "bufferViews": [
    {
      "buffer": 0,
      "byteLength": 7172280,
      "name": "floatBufferViews",
      "target": 34963
    },
    {
      "buffer": 0,
      "byteLength": 2746408,
      "byteOffset": 7172280,
      "byteStride": 8,
      "name": "floatBufferViews",
      "target": 34962
    },
    {
      "buffer": 0,
      "byteLength": 8239224,
      "byteOffset": 9918688,
      "byteStride": 12,
      "name": "floatBufferViews",
      "target": 34962
    },
    {
      "buffer": 0,
      "byteLength": 5492816,
      "byteOffset": 18157912,
      "byteStride": 16,
      "name": "floatBufferViews",
      "target": 34962
    }
  ],
  "buffers": [
    {
      "byteLength": 23650728,
      "uri": "scene.bin"
    }
  ],
  "images": [
    {
      "uri": "textures/Karunan_kirkko_baseColor.jpeg"
    },
    {
      "uri": "textures/Karunan_kirkko_metallicRoughness.png"
    },
    {
      "uri": "textures/Karunan_kirkko_normal.png"
    }
  ],
  "materials": [
    {
      "doubleSided": true,
      "name": "Karunan_kirkko",
      "normalTexture": {
        "index": 2
      },
      "occlusionTexture": {
        "index": 1
      },
      "pbrMetallicRoughness": {
        "baseColorTexture": {
          "index": 0
        },
        "metallicFactor": 0.0,
        "metallicRoughnessTexture": {
          "index": 1
        }
      }
    }
  ],
  "meshes": [
    {
      "name": "Object_0",
      "primitives": [
        {
          "attributes": {
            "NORMAL": 1,
            "POSITION": 0,
            "TANGENT": 2,
            "TEXCOORD_0": 3
          },
          "indices": 4,
          "material": 0,
          "mode": 4
        }
      ]
    },
    {
      "name": "Object_1",
      "primitives": [
        {
          "attributes": {
            "NORMAL": 6,
            "POSITION": 5,
            "TANGENT": 7,
            "TEXCOORD_0": 8
          },
          "indices": 9,
          "material": 0,
          "mode": 4
        }
      ]
    },
    {
      "name": "Object_2",
      "primitives": [
        {
          "attributes": {
            "NORMAL": 11,
            "POSITION": 10,
            "TANGENT": 12,
            "TEXCOORD_0": 13
          },
          "indices": 14,
          "material": 0,
          "mode": 4
        }
      ]
    },
    {
      "name": "Object_3",
      "primitives": [
        {
          "attributes": {
            "NORMAL": 16,
            "POSITION": 15,
            "TANGENT": 17,
            "TEXCOORD_0": 18
          },
          "indices": 19,
          "material": 0,
          "mode": 4
        }
      ]
    },
    {
      "name": "Object_4",
      "primitives": [
        {
          "attributes": {
            "NORMAL": 21,
            "POSITION": 20,
            "TANGENT": 22,
            "TEXCOORD_0": 23
          },
          "indices": 24,
          "material": 0,
          "mode": 4
        }
      ]
    },
    {
      "name": "Object_5",
      "primitives": [
        {
          "attributes": {
            "NORMAL": 26,
            "POSITION": 25,
            "TANGENT": 27,
            "TEXCOORD_0": 28
          },
          "indices": 29,
          "material": 0,
          "mode": 4
        }
      ]
    }
  ],
  "nodes": [
    {
      "children": [
        1
      ],
      "matrix": [
        1.0,
        0.0,
        0.0,
        0.0,
        0.0,
        2.220446049250313e-16,
        -1.0,
        0.0,
        0.0,
        1.0,
        2.220446049250313e-16,
        0.0,
        0.0,
        0.0,
        0.0,
        1.0
      ],
      "name": "Sketchfab_model"
    },
    {
      "children": [
        2,
        3,
        4,
        5,
        6,
        7
      ],
      "name": "Karunan_kirkko_SF.obj.cleaner.materialmerger.gles"
    },
    {
      "mesh": 0,
      "name": "Object_2"
    },
    {
      "mesh": 1,
      "name": "Object_3"
    },
    {
      "mesh": 2,
      "name": "Object_4"
    },
    {
      "mesh": 3,
      "name": "Object_5"
    },
    {
      "mesh": 4,
      "name": "Object_6"
    },
    {
      "mesh": 5,
      "name": "Object_7"
    }
  ],
  "samplers": [
    {
      "magFilter": 9729,
      "minFilter": 9987,
      "wrapS": 10497,
      "wrapT": 10497
    }
  ],
  "scene": 0,
  "scenes": [
    {
      "name": "Sketchfab_Scene",
      "nodes": [
        0
      ]
    }
  ],
  "textures": [
    {
      "sampler": 0,
      "source": 0
    },
    {
      "sampler": 0,
      "source": 1
    },
    {
      "sampler": 0,
      "source": 2
    }
  ]
}
